<svg width="24" height="24" viewBox="0 0 24 24" fill="none" xmlns="http://www.w3.org/2000/svg">
<g clip-path="url(#clip0_28_1042)">
<path d="M23.5 12C23.5 18.3513 18.3513 23.5 12 23.5C5.64873 23.5 0.5 18.3513 0.5 12C0.5 5.64873 5.64873 0.5 12 0.5C18.3513 0.5 23.5 5.64873 23.5 12Z" fill="white" stroke="#EDEEF0"/>
<path d="M7.86853 13.1657L8.34853 9.54003L4.1571 6.63431L7.97996 7.9286L8.87996 6.54003L12.18 4.49146L19.4571 8.50288L19.8342 14.6143L16.5942 19.1143L14.0314 19.5086L15.36 17.0829V14.7515L14.4 12.9257L13.4228 12.2743L11.9142 13.8257V15.4715L10.74 16.5686L9.24853 16.7486L8.58853 17.1257L7.49996 16.7829L7.04568 15.1543L7.85996 14.0143V13.1657H7.86853Z" fill="white"/>
<path d="M14.5543 6.59995C13.7571 6.43709 12.8829 6.47995 12.8829 6.47995C12.8829 6.47995 12.6 7.80852 10.8171 8.15138C10.8343 8.15138 13.1657 8.94852 14.5543 6.59995Z" fill="#94A6C3"/>
<path d="M15.2743 18.6172C16.2343 17.8629 16.9629 16.8257 17.2972 15.6514C17.3143 15.6086 17.4429 15.5314 17.5372 15.4714C17.6829 15.3772 17.8372 15.3086 17.8715 15.1886C17.9315 14.8457 17.9657 14.4772 17.9657 14.1172C17.9657 13.98 17.8286 13.8429 17.6915 13.7143C17.5886 13.62 17.4772 13.5172 17.4772 13.44C17.3315 12.0686 16.6972 10.7914 15.6857 9.85716L15.5829 9.96001C16.56 10.8772 17.1943 12.1286 17.3315 13.4572C17.3486 13.5772 17.4686 13.6972 17.5886 13.8172C17.6915 13.9114 17.82 14.0486 17.82 14.1C17.82 14.4429 17.7857 14.7943 17.7257 15.1372C17.7086 15.1972 17.58 15.2572 17.4686 15.3172C17.3229 15.3943 17.1857 15.4629 17.1515 15.5914C16.7915 16.8686 15.96 17.9914 14.8629 18.7114C15.06 18.2914 15.6772 16.92 16.0029 16.2257L15.9429 13.9972L14.0315 12.1457L12.9429 12.2914L11.7515 14.22C11.7515 14.22 12.3086 14.9314 11.52 15.7543C10.7572 16.5686 10.1486 16.7486 10.1486 16.7486L9.59146 16.4486C9.75431 16.2343 10.0886 15.9257 10.3457 15.7114C10.7829 15.3514 11.22 15.3172 11.22 14.9314C11.2372 14.1172 10.3629 14.34 10.3629 14.34L10.0457 14.64L9.9086 15.7543L9.2486 16.5857L9.17146 16.5686L8.08289 16.3286C8.08289 16.3286 8.74289 15.9857 8.85431 15.5914C8.95717 15.2143 8.64003 13.9629 8.62289 13.8857C8.64003 13.9029 8.94003 14.16 9.07717 14.58C9.31717 13.92 9.63431 13.2857 9.7286 13.2257C9.82289 13.1657 11.04 12.5143 11.04 12.5143L10.6372 13.5857L10.9372 13.4229L11.6572 11.6486C11.6572 11.6486 12.3686 11.3057 12.8915 11.3057C13.8429 11.2886 15.24 10.1314 14.6057 8.04858C14.7857 8.12573 17.9229 9.6943 18.4629 12.7629C18.8657 15.1286 17.5286 17.34 15.2657 18.6172H15.2743Z" fill="#94A6C3"/>
<path d="M11.6914 6.92574C12.0343 6.51431 11.9057 5.91431 11.9057 5.91431L10.8943 7.40574C10.8943 7.40574 11.2543 7.42288 11.6914 6.92574Z" fill="#1B314F"/>
<path d="M8.29713 15.0771L8.41713 14.4771C8.41713 14.4771 7.91999 15.3513 7.87713 15.4713C7.83427 15.6085 7.91142 15.8485 8.09999 15.8313C8.29713 15.8142 8.53713 15.5313 8.53713 15.3171C8.53713 15.0428 8.29713 15.0771 8.29713 15.0771Z" fill="#1B314F"/>
<path d="M17.2457 5.49436C17.2457 5.49436 17.9999 5.52865 18.7799 5.61436C17.0142 4.22579 15.3428 3.82294 13.9885 3.82294C12.1199 3.82294 10.8599 4.59436 10.7828 4.63722L11.3742 3.70294C11.3742 3.70294 9.02566 3.47151 8.19423 5.96579C7.97995 5.44294 7.79137 4.67151 7.79137 4.67151C7.79137 4.67151 6.56566 5.74294 7.13994 7.51722C5.73423 7.00294 3.73709 6.29151 3.65994 6.28294C3.55709 6.26579 3.5228 6.31722 3.5228 6.31722C3.5228 6.31722 3.48852 6.36008 3.5828 6.43722C3.75423 6.56579 6.91709 8.90579 7.61137 9.36008C7.46566 9.90008 7.46566 10.1572 7.61137 10.4144C7.82566 10.7572 7.83423 10.9372 7.80852 11.1944C7.77423 11.4515 7.50852 13.6629 7.44852 13.9372C7.38852 14.2115 6.75423 15.1715 6.78852 15.4544C6.8228 15.7372 7.20852 16.9629 7.55994 17.1001C7.81709 17.1944 8.45137 17.3829 8.87137 17.3829C9.01709 17.3829 9.15423 17.3486 9.21423 17.2887C9.47137 17.0658 9.54852 17.0144 9.72852 17.0144H9.77137C9.84852 17.0144 9.93423 17.0315 10.0457 17.0315C10.2857 17.0315 10.6028 16.9886 10.8257 16.7744C11.1599 16.4401 11.7257 15.9944 11.9142 15.7801C12.1457 15.4972 12.2571 15.1029 12.1971 14.7086C12.1542 14.3486 12.3428 14.0315 12.5742 13.7144C12.8571 13.3372 13.3885 12.6601 13.3885 12.6601C14.4257 13.4401 15.0771 14.6315 15.0771 15.9515C15.0771 18.3001 13.0285 20.2029 10.4999 20.2029C10.1057 20.2029 9.73709 20.1601 9.35994 20.0658C10.5171 20.4687 11.4942 20.6058 12.2999 20.6058C14.0057 20.6058 14.9057 19.9886 14.9057 19.9886C14.9057 19.9886 14.5885 20.4001 14.0742 20.8629H14.0914C16.9114 20.4687 18.2828 18.1544 18.2828 18.1544C18.2828 18.1544 18.1799 18.9086 18.0428 19.4229C21.7885 16.6029 21.1542 13.0801 21.1457 12.9601C21.1799 13.0029 21.5571 13.4572 21.7457 13.6972C22.3457 7.49151 17.2714 5.48579 17.2714 5.48579L17.2457 5.49436ZM11.4771 15.4115C11.4171 15.4886 11.1599 15.7115 10.9799 15.8829C10.7999 16.0544 10.6028 16.2172 10.4571 16.3629C10.3971 16.4229 10.2771 16.4572 10.0971 16.4572H9.6428C9.87423 16.1572 10.5342 15.4629 10.7571 15.3172C11.0314 15.1372 11.1685 14.9572 10.9971 14.6401C10.8342 14.3229 10.3971 14.4001 10.3971 14.4001C10.3971 14.4001 10.6542 14.2972 10.8771 14.2972C10.5942 14.2201 10.2257 14.2972 10.0628 14.4601C9.8828 14.6229 9.91709 15.2144 9.83994 15.5915C9.7628 15.9858 9.50566 16.1829 9.11995 16.5429C8.90566 16.7401 8.75994 16.8001 8.63995 16.8001C8.3828 16.7572 8.0828 16.6801 7.86852 16.6029C7.7228 16.4058 7.49137 15.7544 7.43137 15.4886C7.47423 15.3429 7.65423 15.0172 7.74852 14.8372C7.92852 14.4944 8.03137 14.2972 8.06566 14.1172C8.12566 13.8601 8.3228 12.2744 8.39995 11.6144C8.59709 11.8715 8.87137 12.2915 8.8028 12.5658C9.23995 11.9486 8.9228 11.3401 8.76852 11.1001C8.63137 10.8601 8.45137 10.3801 8.60566 9.86579C8.75994 9.35151 9.29995 7.93722 9.29995 7.93722C9.29995 7.93722 9.47994 8.25436 9.73709 8.19436C9.99423 8.13436 12.0599 5.03151 12.0599 5.03151C12.0599 5.03151 12.6171 6.24865 12.0257 7.14008C11.4257 8.03151 10.8342 8.19436 10.8342 8.19436C10.8342 8.19436 11.6657 8.34008 12.4285 7.78294C12.7457 8.52008 13.0457 9.29151 13.0628 9.39436C13.0199 9.49722 12.4114 10.9458 12.3514 11.0401C12.3171 11.0744 12.1114 11.1344 11.9571 11.1601C11.6999 11.2372 11.5542 11.2801 11.4857 11.3229C11.3828 11.4172 10.8942 12.7372 10.6714 13.3886C10.3971 13.4658 10.1314 13.6201 9.93423 13.9115C10.0371 13.8344 10.3714 13.7915 10.6114 13.7658C10.8257 13.7486 11.4685 14.1001 11.6399 14.7429V14.7772C11.6742 15.0172 11.5971 15.2401 11.4771 15.4201V15.4115ZM10.0628 15.5915C10.1999 15.3944 10.1828 15.0687 10.1999 14.9572C10.2171 14.8544 10.2428 14.6572 10.3628 14.6229C10.4828 14.5886 10.7742 14.6401 10.7742 14.8458C10.7742 15.0429 10.5599 15.0858 10.4142 15.2229C10.3028 15.3258 10.0971 15.5572 10.0628 15.5829V15.5915ZM16.0714 12.7115C16.2171 11.9487 16.2342 11.2801 16.1914 10.7401C16.7742 11.5201 17.1428 12.4715 17.2457 13.4486C17.2628 13.5686 17.3828 13.6887 17.5028 13.8087C17.6057 13.9029 17.7342 14.0229 17.7342 14.0915C17.7342 14.4344 17.6999 14.7858 17.6399 15.1286C17.6228 15.1715 17.4942 15.2487 17.3828 15.3087C17.2371 15.3858 17.0999 15.4544 17.0657 15.5829C16.7314 16.7401 16.0285 17.7687 15.0771 18.4886C16.4742 17.0229 17.1514 14.6144 16.0714 12.7029V12.7115ZM15.1199 18.6344C16.0971 17.8801 16.8514 16.8258 17.1857 15.6344C17.2028 15.5915 17.3314 15.5144 17.4257 15.4544C17.5714 15.3772 17.7257 15.2915 17.7599 15.1715C17.8199 14.8287 17.8542 14.4601 17.8542 14.1001C17.8542 13.9629 17.7171 13.8258 17.5799 13.6972C17.5028 13.6029 17.3828 13.5001 17.3828 13.4229C17.2628 12.3258 16.8257 11.2886 16.1485 10.4229C15.8485 8.61436 14.6399 8.05722 14.6142 8.04008C14.6485 8.08294 15.4285 9.21436 14.8885 10.5429C14.3314 11.8801 12.8999 11.6744 12.7799 11.6829C12.6599 11.6829 12.1971 12.2829 11.6057 13.3972C11.5285 13.3629 11.2114 13.2944 10.8514 13.3544C11.1257 12.6001 11.5285 11.5287 11.6057 11.4429C11.6399 11.4087 11.8628 11.3486 12.0171 11.3058C12.2999 11.2286 12.4371 11.1858 12.4885 11.1258C12.5228 11.0829 12.6685 10.7315 12.8228 10.3715C12.9599 10.3715 13.3028 10.3372 13.3371 10.3286C13.3714 10.2944 13.6542 9.56579 13.6542 9.47151C13.6542 9.39436 13.0628 7.93722 12.8399 7.38008C12.9428 7.26008 13.0542 7.10579 13.1571 6.94294C16.2428 7.27722 18.6599 9.90008 18.6599 13.0715C18.6599 15.5144 17.2285 17.6401 15.1542 18.6344H15.1199Z" fill="#1B314F"/>
<path d="M11.1171 10.5001C11.3999 10.1658 11.2542 9.54867 10.7228 9.44581C10.8599 9.12867 11.0571 8.49438 11.0571 8.49438C11.0571 8.49438 9.5228 10.903 9.38566 10.9544C9.24851 10.9972 9.11137 10.4744 9.11137 10.4744C8.82851 11.5715 9.59137 11.7258 9.68566 11.3744C10.1057 11.263 10.8257 10.8172 11.1171 10.5001Z" fill="#1B314F"/>
<path d="M9.80566 11.0827L10.5857 9.74561C10.5857 9.74561 11.0399 9.97703 10.8085 10.337C10.5257 10.757 9.80566 11.0913 9.80566 11.0913V11.0827Z" fill="#FFD923"/>
<path d="M19.4914 17.297C19.26 17.597 19.0114 17.9142 18.7114 18.2142C20.6571 14.477 18.8057 11.057 18.7286 10.9285C18.8657 11.0656 19.0029 11.2113 19.1229 11.3485C20.6143 13.0028 20.7943 15.4885 19.5 17.297H19.4914Z" fill="#D82122"/>
<path d="M21.3 12.4887C20.6229 10.6629 19.6543 9.11152 17.5372 7.71437C15.4886 6.36009 13.2858 6.46295 13.1658 6.48009H13.1315C13.2086 6.4458 13.2772 6.43723 13.3543 6.42009C13.8258 6.27437 14.4258 6.1458 15.0258 6.07723C16.62 5.8458 18.2315 6.3858 19.3372 7.55152C19.3372 7.55152 19.3486 7.56295 19.3715 7.5858C20.6229 8.91438 21.2658 10.5687 21.3 12.4972V12.4887Z" fill="#D82122"/>
<path d="M17.0486 5.03144C14.8029 4.61144 13.3543 4.81715 12.3172 5.21144C12.2829 5.09144 12.18 4.85144 12.0857 4.6543C11.7772 5.03144 11.4429 5.48572 11.2286 5.76858C10.6543 6.16287 10.4143 6.54001 10.4143 6.54001C10.7486 5.40858 11.7086 4.56858 12.8829 4.3543C13.2172 4.2943 13.5772 4.26001 13.9714 4.26001C15.0086 4.27715 16.0457 4.5343 17.04 5.02287L17.0486 5.03144Z" fill="#D82122"/>
<path d="M8.75143 7.91998C6.99429 7.85998 7.57715 5.81141 7.61143 5.69141C7.61143 5.70855 7.73143 7.30283 8.75143 7.91998Z" fill="#D82122"/>
<path d="M10.4829 4.23438C9.12857 5.04866 9.39428 6.9858 9.39428 6.9858C8.1 5.01437 10.3714 4.27723 10.4829 4.23438Z" fill="#D82122"/>
<path d="M8.25429 8.46868C8.34857 8.54583 8.43429 8.68297 8.33143 8.88011C8.27143 8.98297 8.18571 8.9744 8.04857 8.9144C7.86857 8.82011 6.78 8.1944 5.80286 7.54297C6.91714 7.93725 8.04857 8.35725 8.22857 8.44297C8.22857 8.44297 8.24571 8.46011 8.26286 8.46868H8.25429Z" fill="white"/>
</g>
<defs>
<clipPath id="clip0_28_1042">
<rect width="24" height="24" fill="white"/>
</clipPath>
</defs>
</svg>
