<svg width="24" height="24" viewBox="0 0 24 24" fill="none" xmlns="http://www.w3.org/2000/svg">
<g clip-path="url(#clip0_5357_39591)">
<path d="M12 24C18.6274 24 24 18.6274 24 12C24 5.37258 18.6274 0 12 0C5.37258 0 0 5.37258 0 12C0 18.6274 5.37258 24 12 24Z" fill="#E51B44"/>
<path d="M6.80967 8.7V12.696H6.77367L4.18167 8.7H2.83167V15H4.16367V11.004H4.19067L6.79167 15H8.14167V8.7H6.80967ZM12.3729 15.108C14.2179 15.108 15.5499 13.758 15.5499 11.85C15.5499 9.942 14.2179 8.592 12.3729 8.592C10.5279 8.592 9.19594 9.942 9.19594 11.85C9.19594 13.758 10.5279 15.108 12.3729 15.108ZM12.3729 13.875C11.3109 13.875 10.5729 13.074 10.5729 11.85C10.5729 10.626 11.3109 9.825 12.3729 9.825C13.4349 9.825 14.1729 10.626 14.1729 11.85C14.1729 13.074 13.4349 13.875 12.3729 13.875ZM19.2321 11.814L21.7701 8.7H20.2041L17.9631 11.445H17.9361V8.7H16.6041V15H17.9361V12.282H17.9631L20.1591 15H21.8151L19.2321 11.814Z" fill="white"/>
</g>
<defs>
<clipPath id="clip0_5357_39591">
<rect width="24" height="24" fill="white"/>
</clipPath>
</defs>
</svg>
