<svg width="24" height="24" viewBox="0 0 24 24" fill="none" xmlns="http://www.w3.org/2000/svg">
<g clip-path="url(#clip0_5357_40534)">
<mask id="mask0_5357_40534" style="mask-type:luminance" maskUnits="userSpaceOnUse" x="0" y="0" width="24" height="24">
<path d="M24 0H0V24H24V0Z" fill="white"/>
</mask>
<g mask="url(#mask0_5357_40534)">
<path d="M12.0004 23.6399C18.4289 23.6399 23.6404 18.4285 23.6404 11.9999C23.6404 5.57127 18.4289 0.359863 12.0004 0.359863C5.57176 0.359863 0.360352 5.57127 0.360352 11.9999C0.360352 18.4285 5.57176 23.6399 12.0004 23.6399Z" fill="url(#paint0_linear_5357_40534)"/>
<path d="M17.0948 16.6376L13.1588 7.12165C12.9368 6.62965 12.6068 6.38965 12.1718 6.38965H11.8238C11.3888 6.38965 11.0588 6.62965 10.8368 7.12165L9.12382 11.2676H7.82782C7.44082 11.2706 7.12582 11.5826 7.12282 11.9726V11.9816C7.12582 12.3686 7.44082 12.6836 7.82782 12.6866H8.52382L6.88882 16.6376C6.85882 16.7246 6.84082 16.8146 6.84082 16.9076C6.84082 17.1296 6.90982 17.3036 7.03282 17.4386C7.15582 17.5736 7.33282 17.6396 7.55482 17.6396C7.70182 17.6366 7.84282 17.5916 7.95982 17.5046C8.08582 17.4176 8.17282 17.2916 8.24182 17.1476L10.0418 12.6836H11.2898C11.6768 12.6806 11.9918 12.3686 11.9948 11.9786V11.9606C11.9918 11.5736 11.6768 11.2586 11.2898 11.2556H10.6238L11.9978 7.83265L15.7418 17.1446C15.8108 17.2886 15.8978 17.4146 16.0238 17.5016C16.1408 17.5886 16.2848 17.6336 16.4288 17.6366C16.6508 17.6366 16.8248 17.5706 16.9508 17.4356C17.0768 17.3006 17.1428 17.1266 17.1428 16.9046C17.1458 16.8146 17.1308 16.7216 17.0948 16.6376Z" fill="white"/>
</g>
</g>
<defs>
<linearGradient id="paint0_linear_5357_40534" x1="20.679" y1="4.69746" x2="3.35865" y2="19.2707" gradientUnits="userSpaceOnUse">
<stop stop-color="#B6509E"/>
<stop offset="1" stop-color="#2EBAC6"/>
</linearGradient>
<clipPath id="clip0_5357_40534">
<rect width="24" height="24" fill="white"/>
</clipPath>
</defs>
</svg>
