<svg width="24" height="24" viewBox="0 0 24 24" fill="none" xmlns="http://www.w3.org/2000/svg">
<g clip-path="url(#clip0_5357_48222)">
<circle cx="12" cy="12" r="12" fill="white"/>
<path d="M12.3662 4C13.0332 5.12829 13.6767 6.27054 14.3371 7.40251C14.4326 7.54942 14.4605 7.72572 14.4583 7.89834C14.4583 9.25729 14.4583 10.6155 14.4583 11.9737C13.5518 11.6527 12.5418 11.5969 11.6221 11.8981C11.13 12.0494 10.6856 12.3175 10.2646 12.6084C10.2661 11.0107 10.2661 9.41228 10.2646 7.81387C10.2646 7.69707 10.2683 7.57587 10.3403 7.47744C11.0183 6.3205 11.6941 5.16135 12.3662 4Z" fill="#020041"/>
<path d="M5 16.6764C6.23701 14.5425 7.47769 12.4108 8.72278 10.2798C8.74629 12.4144 8.7316 14.5506 8.73086 16.6852C7.48798 16.6742 6.24362 16.6852 5 16.6764Z" fill="#020041"/>
<path d="M15.9801 10.291C17.2399 12.4146 18.4512 14.5677 19.6911 16.7038C18.4527 16.7082 17.2149 16.6964 15.9772 16.7038C15.9728 14.5655 15.9661 12.4279 15.9801 10.291Z" fill="#020041"/>
<path d="M12.4078 13.1313C13.1034 13.0131 13.8277 13.1688 14.433 13.5258C14.4506 14.5828 14.4205 15.6406 14.4616 16.6962C13.1137 16.7013 11.765 16.6918 10.4171 16.6866C10.2768 16.1284 10.2114 15.5334 10.3686 14.9707C10.6184 14.0334 11.4484 13.2805 12.4078 13.1313Z" fill="#020041"/>
</g>
<defs>
<clipPath id="clip0_5357_48222">
<rect width="24" height="24" fill="white"/>
</clipPath>
</defs>
</svg>
