<svg width="24" height="24" viewBox="0 0 24 24" fill="none" xmlns="http://www.w3.org/2000/svg">
<path d="M11.9996 23.9993C18.6269 23.9993 23.9993 18.6269 23.9993 11.9996C23.9993 5.37242 18.6269 0 11.9996 0C5.37242 0 0 5.37242 0 11.9996C0 18.6269 5.37242 23.9993 11.9996 23.9993Z" fill="#0033AD"/>
<path d="M8.90239 11.9502C8.87344 12.5002 9.2643 12.971 9.77249 13.0031H9.82735C10.3394 13.0031 10.7523 12.5562 10.7493 12.0021C10.7493 11.448 10.3363 11.0011 9.8243 11.0044C9.33439 11.0044 8.92829 11.42 8.90239 11.9502Z" fill="white"/>
<path d="M5.45782 11.6931C5.29325 11.6815 5.15077 11.82 5.14315 11.9981C5.13553 12.1762 5.26049 12.3304 5.42506 12.3387C5.58963 12.3502 5.7283 12.2117 5.73973 12.0336C5.7504 11.8555 5.62239 11.7054 5.45782 11.6931Z" fill="white"/>
<path d="M8.84378 6.14868C8.99007 6.06952 9.04873 5.87163 8.97559 5.71331C8.90245 5.555 8.71959 5.49151 8.5733 5.57067C8.42702 5.64982 8.36835 5.84359 8.44149 6.00191C8.51464 6.16434 8.69368 6.23113 8.84378 6.14868C8.83997 6.14868 8.84378 6.14868 8.84378 6.14868Z" fill="white"/>
<path d="M9.78005 7.91725C10.0071 7.79439 10.0985 7.49343 9.985 7.24853C9.87148 7.00364 9.59338 6.90387 9.36709 7.02673C9.1408 7.14959 9.04861 7.45055 9.16214 7.69544C9.27566 7.94116 9.55376 8.04011 9.78005 7.91725Z" fill="white"/>
<path d="M6.62826 9.1329C6.8035 9.25576 7.03817 9.20381 7.15474 9.01417C7.26827 8.82452 7.22026 8.57056 7.04503 8.4444C6.86979 8.32154 6.63512 8.37349 6.51855 8.56313C6.40121 8.75278 6.45302 9.01004 6.62826 9.1329Z" fill="white"/>
<path d="M7.1873 11.515C6.9313 11.4993 6.71568 11.7088 6.7012 11.9858C6.68673 12.2629 6.88025 12.4962 7.13625 12.5119C7.39225 12.5275 7.60787 12.3181 7.62235 12.0411C7.63683 11.7681 7.4433 11.5307 7.1873 11.515Z" fill="white"/>
<path d="M6.67905 14.8675C6.49238 14.9706 6.41543 15.2155 6.51067 15.4216C6.6059 15.6237 6.83219 15.7069 7.02267 15.6039C7.20934 15.5008 7.28629 15.2559 7.19105 15.0498C7.09581 14.8478 6.86572 14.7645 6.67905 14.8675Z" fill="white"/>
<path d="M8.47126 10.4825C8.72345 10.6606 9.06021 10.5856 9.22098 10.3127C9.38555 10.0398 9.31621 9.6753 9.06402 9.50132C8.81183 9.32322 8.47506 9.39825 8.3143 9.67118C8.14973 9.93999 8.21906 10.3044 8.47126 10.4825Z" fill="white"/>
<path d="M14.1572 7.87772C14.369 8.02779 14.6586 7.96512 14.7972 7.73507C14.9359 7.50502 14.878 7.19252 14.6654 7.04245C14.4536 6.89238 14.1641 6.95504 14.0254 7.18509C13.8829 7.41844 13.9416 7.72765 14.1572 7.87772Z" fill="white"/>
<path d="M15.1013 6.11749C15.24 6.21644 15.4229 6.17274 15.5143 6.02267C15.6057 5.8726 15.5653 5.67471 15.4267 5.57576C15.288 5.47681 15.1051 5.52051 15.0137 5.66646C14.9261 5.81653 14.9665 6.01855 15.1013 6.11749Z" fill="white"/>
<path d="M14.2267 10.9972C13.7185 10.9659 13.2796 11.3889 13.2537 11.9389C13.2248 12.4889 13.6156 12.9638 14.1238 12.9918H14.1749C14.6831 12.9918 15.0968 12.5449 15.0968 11.9908C15.1006 11.4648 14.7166 11.0253 14.2267 10.9972Z" fill="white"/>
<path d="M10.0834 10.4108C10.2403 10.7472 10.5588 10.9607 10.9101 10.9607C11.4183 10.9607 11.832 10.5138 11.832 9.95972C11.832 9.80553 11.7992 9.65134 11.7329 9.50869C11.5028 9.01396 10.9466 8.81606 10.4933 9.06508C10.0362 9.31822 9.8533 9.92014 10.0834 10.4108Z" fill="white"/>
<path d="M17.3206 9.13284C17.5073 9.02977 17.5804 8.78076 17.4852 8.57874C17.3899 8.37672 17.1598 8.29757 16.9732 8.40064C16.7865 8.50371 16.7133 8.7486 16.8048 8.95061C16.9038 9.15263 17.1301 9.23591 17.3206 9.13284Z" fill="white"/>
<path d="M14.9801 9.44924C14.7134 9.59601 14.6037 9.9481 14.7385 10.2367C14.8742 10.5253 15.1995 10.644 15.4662 10.4981C15.7328 10.3521 15.8426 9.99922 15.7077 9.71063C15.5728 9.42203 15.2467 9.3066 14.9801 9.44924Z" fill="white"/>
<path d="M11.9631 5.96653C12.1719 5.97807 12.3509 5.80409 12.3654 5.57899C12.3799 5.35388 12.2153 5.15929 12.0073 5.14362C11.7985 5.13208 11.6195 5.30194 11.605 5.52786C11.5943 5.75709 11.7551 5.95169 11.9631 5.96735V5.96653Z" fill="white"/>
<path d="M11.9599 8.55073C12.2601 8.57052 12.5161 8.3215 12.5306 7.99662C12.5489 7.67175 12.3188 7.3947 12.0186 7.37903C11.7184 7.35924 11.4624 7.60826 11.4479 7.93313C11.4334 8.25801 11.6597 8.53506 11.9599 8.55073Z" fill="white"/>
<path d="M9.01964 14.5508C9.2863 14.404 9.39602 14.0519 9.26116 13.7633C9.12554 13.4747 8.80021 13.356 8.53354 13.502C8.26687 13.6479 8.15715 14.0008 8.29201 14.2894C8.42763 14.578 8.75297 14.6967 9.01964 14.5508Z" fill="white"/>
<path d="M12.3104 9.41002C12.0323 9.87342 12.1497 10.4902 12.5771 10.7911C13.0045 11.0921 13.5752 10.9651 13.8533 10.5026C14.1314 10.0392 14.014 9.42238 13.5866 9.12142C13.4365 9.01423 13.2613 8.95898 13.0822 8.95898C12.7714 8.95898 12.4826 9.12884 12.3104 9.41002Z" fill="white"/>
<path d="M13.9158 13.5893C13.6857 13.0945 13.1295 12.8966 12.6762 13.1456C12.219 13.3947 12.0362 13.9966 12.2663 14.4872C12.4964 14.9819 13.0525 15.1798 13.5059 14.9308C13.9592 14.6851 14.1459 14.0914 13.9188 13.5967C13.9188 13.5967 13.9176 13.5939 13.915 13.5884L13.9158 13.5893Z" fill="white"/>
<path d="M15.5286 13.5179C15.2764 13.3398 14.9397 13.4149 14.7789 13.6878C14.6143 13.9607 14.6837 14.3252 14.9359 14.4991C15.188 14.6773 15.5248 14.6022 15.6856 14.3293C15.8501 14.0605 15.7808 13.696 15.5286 13.5179Z" fill="white"/>
<path d="M17.2987 12.0181C17.3132 11.7411 17.1197 11.5077 16.8637 11.492C16.6077 11.4764 16.3921 11.6858 16.3776 11.9629C16.3631 12.2399 16.5566 12.4733 16.8126 12.4889C17.0648 12.5046 17.2843 12.291 17.2987 12.0181Z" fill="white"/>
<path d="M18.5749 11.6618C18.4103 11.6503 18.2678 11.7888 18.2602 11.9669C18.2526 12.145 18.3776 12.2992 18.5421 12.3074C18.7067 12.319 18.8454 12.1805 18.8568 12.0023C18.8644 11.8242 18.7395 11.6742 18.5749 11.6618Z" fill="white"/>
<path d="M17.3718 14.8677C17.1966 14.7449 16.9619 14.7968 16.8454 14.9865C16.7318 15.1761 16.7798 15.4301 16.9551 15.5562C17.1303 15.6791 17.365 15.6272 17.4816 15.4375C17.5989 15.2479 17.5471 14.9906 17.3718 14.8677Z" fill="white"/>
<path d="M8.8947 17.8829C8.75603 17.7839 8.57317 17.8276 8.48174 17.9736C8.39032 18.1237 8.4307 18.3216 8.56555 18.4205C8.70422 18.5194 8.88708 18.4757 8.97851 18.3298C9.07375 18.183 9.03337 17.9818 8.8947 17.8829Z" fill="white"/>
<path d="M15.1562 17.8518C15.0099 17.931 14.9512 18.1288 15.0244 18.2872C15.0975 18.4455 15.2804 18.509 15.4267 18.4298C15.573 18.3507 15.6316 18.1569 15.5585 17.9986C15.4853 17.8361 15.3063 17.7693 15.1562 17.8518C15.16 17.8518 15.1562 17.8518 15.1562 17.8518Z" fill="white"/>
<path d="M11.6887 14.5907C11.9668 14.1273 11.8495 13.5106 11.4221 13.2055C10.9939 12.9045 10.424 13.0315 10.1421 13.4941C9.86014 13.9567 9.98129 14.5742 10.4087 14.8793C10.5588 14.9865 10.7341 15.0418 10.9131 15.0418C11.2278 15.0459 11.5165 14.8752 11.6887 14.5907Z" fill="white"/>
<path d="M9.84252 16.1215C9.63071 15.9715 9.34118 16.0341 9.20251 16.2642C9.06385 16.4934 9.12175 16.8068 9.33432 16.9568C9.5469 17.1069 9.83566 17.0442 9.97433 16.8142C10.1168 16.5849 10.0581 16.2716 9.84252 16.1215Z" fill="white"/>
<path d="M11.9966 18.034C11.7878 18.0225 11.6087 18.1965 11.5943 18.4216C11.5798 18.6467 11.7444 18.8413 11.9524 18.8569C12.1611 18.8685 12.3402 18.6986 12.3547 18.4727C12.3653 18.2435 12.2046 18.0489 11.9966 18.0332V18.034Z" fill="white"/>
<path d="M11.9995 15.4489C11.6994 15.4291 11.4434 15.6781 11.4289 16.003C11.4106 16.3278 11.6407 16.6049 11.9409 16.6205C12.2411 16.6362 12.4971 16.3913 12.5116 16.0664C12.5298 15.7457 12.2997 15.4645 11.9995 15.4489Z" fill="white"/>
<path d="M14.2198 16.082C13.9927 16.209 13.9013 16.5092 14.0186 16.7549C14.136 17.0006 14.4133 17.0995 14.6403 16.9726C14.8674 16.8497 14.9588 16.5487 14.8453 16.3038C14.728 16.0581 14.4506 15.9559 14.2198 16.082Z" fill="white"/>
</svg>
