<svg width="24" height="24" viewBox="0 0 24 24" fill="none" xmlns="http://www.w3.org/2000/svg">
<g clip-path="url(#clip0_4787_61782)">
<path d="M12 24C18.6274 24 24 18.6274 24 12C24 5.37258 18.6274 0 12 0C5.37258 0 0 5.37258 0 12C0 18.6274 5.37258 24 12 24Z" fill="#0F063B"/>
<g clip-path="url(#clip1_4787_61782)">
<path d="M11.7099 4.35705C11.1606 4.91317 10.6775 5.52211 10.4052 6.1952C10.1331 6.84733 10.0605 7.57475 10.1979 8.2736C10.3066 8.94296 10.6156 9.55642 11.0785 10.0216C11.5367 10.5085 12.1566 10.9089 12.8126 11.3383C13.4642 11.7725 14.181 12.2433 14.7734 12.9602C15.3686 13.6859 15.7189 14.6043 15.7682 15.5683C15.8285 16.4941 15.6143 17.4167 15.1561 18.2048C14.7016 18.9741 14.0559 19.5389 13.3785 19.9703C13.2903 20.0264 13.1767 20.0009 13.1172 19.9115C13.0577 19.8222 13.0722 19.6989 13.1505 19.6281C13.7219 19.1067 14.2147 18.5001 14.5052 17.8211C14.7918 17.1537 14.878 16.4077 14.7518 15.6857C14.6526 14.9954 14.3363 14.3619 13.8552 13.8898C13.3835 13.4067 12.7614 13.021 12.0992 12.608C11.442 12.1893 10.7169 11.7468 10.0934 11.0514C9.77845 10.6946 9.52115 10.2842 9.332 9.83711C9.15265 9.39079 9.04396 8.91565 9.01038 8.43116C8.94956 7.49582 9.15533 6.50564 9.6429 5.74008C10.1142 5.01166 10.7489 4.42152 11.4889 4.02384C11.5743 3.9756 11.68 4.00254 11.7359 4.08684C11.7918 4.17115 11.7807 4.28671 11.7099 4.35705Z" fill="white"/>
<path d="M13.2745 4.01608C13.7915 4.27678 14.2597 4.63622 14.6561 5.07674C14.8653 5.31677 15.0498 5.58007 15.2065 5.86213C15.3659 6.16244 15.4902 6.48256 15.5767 6.81528C15.6589 7.1565 15.7021 7.50715 15.7052 7.85952C15.6986 8.20915 15.6182 9.90447 14.744 10.7201C14.633 10.8034 14.4955 10.8359 14.362 10.8103C14.2285 10.7846 14.1102 10.703 14.0332 10.5836C13.9247 10.4047 13.9148 10.1771 14.0072 9.98812L14.0184 9.96613C14.253 9.49288 15.2284 7.65334 14.115 5.62326C13.8161 5.15766 13.4758 4.72416 13.0987 4.32884L13.0974 4.3276C13.0317 4.25332 13.0285 4.13813 13.0899 4.05976C13.1349 4.00188 13.2109 3.98391 13.2745 4.01608Z" fill="white"/>
<path d="M11.5087 19.9841C10.9917 19.7234 10.5236 19.3639 10.1271 18.9235C9.91794 18.6834 9.73341 18.4201 9.5767 18.1379C9.4173 17.8377 9.29299 17.5176 9.20657 17.1849C9.12425 16.8437 9.08112 16.493 9.07812 16.1405C9.08464 15.7909 9.16515 14.0958 10.0392 13.2801C10.1502 13.1968 10.2877 13.1643 10.4212 13.19C10.5547 13.2156 10.6731 13.2972 10.7501 13.4166C10.8586 13.5955 10.8685 13.8232 10.776 14.0121L10.7648 14.0341C10.5302 14.5073 9.55483 16.3467 10.6684 18.377C10.9672 18.8426 11.3075 19.2761 11.6846 19.6714L11.6858 19.6726C11.7515 19.7469 11.7548 19.8621 11.6933 19.9405C11.6483 19.9984 11.5724 20.0163 11.5087 19.9841Z" fill="white"/>
</g>
</g>
<defs>
<clipPath id="clip0_4787_61782">
<rect width="24" height="24" fill="white"/>
</clipPath>
<clipPath id="clip1_4787_61782">
<rect width="7" height="16" fill="white" transform="translate(9 4)"/>
</clipPath>
</defs>
</svg>
