<svg width="24" height="24" viewBox="0 0 24 24" fill="none" xmlns="http://www.w3.org/2000/svg">
<g clip-path="url(#clip0_5357_40130)">
<path d="M24 12C24 18.6273 18.6273 24 12 24C5.37265 24 0 18.6273 0 12C0 8.09885 1.86176 4.63131 4.74601 2.44084C5.73074 2.08836 6.80639 1.52465 7.48619 0.878424C8.87936 0.311924 10.404 0 12 0C13.5974 0 15.1206 0.311924 16.5138 0.878424C16.5698 1.17496 18.7588 2.4912 19.282 2.46183C22.1494 4.65509 24 8.11144 24 12V12Z" fill="#E42028"/>
<path d="M15.775 6.61478C15.817 6.4861 15.8114 6.2553 15.7303 6.18676C15.105 5.65663 14.3721 5.3447 13.5608 5.22021C13.5538 5.22021 13.5454 5.23141 13.5244 5.24819C13.8084 6.26369 14.0951 7.28619 14.3791 8.2989C14.884 7.99397 15.5904 7.17709 15.7764 6.61478H15.775Z" fill="white"/>
<path d="M10.1005 5.25666C9.61372 5.45668 9.12415 5.65391 8.64857 5.87911C8.49331 5.95185 8.34783 6.08613 8.24992 6.2288C8.17718 6.33511 8.13242 6.51974 8.17439 6.63304C8.45414 7.38698 9.02344 7.91151 9.58434 8.3829C9.87109 7.32963 10.155 6.28755 10.4544 5.19092C10.3075 5.21749 10.1956 5.21749 10.1005 5.25666Z" fill="white"/>
<path d="M10.7594 9.12542C11.151 9.31285 11.5721 9.43594 12.0421 9.61079C12.6113 9.35621 13.1918 9.10444 13.7625 8.83028C13.8255 8.79951 13.873 8.63305 13.8507 8.54773C13.6185 7.63154 13.3905 6.71115 13.1177 5.80615C12.9666 5.3012 12.5848 5.09418 11.9973 5.09278C11.3888 5.09138 11.0196 5.2928 10.8531 5.81175C10.6181 6.5405 10.3957 7.27625 10.2307 8.02459C10.0432 8.87644 9.89215 8.70999 10.758 9.12542H10.7594Z" fill="white"/>
<path d="M20.1439 19.6386C20.6158 19.1779 20.7006 18.6725 20.3985 18.1223C20.3412 18.0174 20.2838 17.9125 20.2251 17.8076C20.0404 17.4705 19.8544 17.1334 19.6628 16.7851C19.7956 16.7068 19.8964 16.6467 20.0208 16.5739C19.6068 15.9207 19.1984 15.2759 18.7983 14.645C18.5004 14.8604 18.2304 15.0549 17.9227 15.2773C18.0961 15.6549 18.285 16.069 18.4906 16.518C17.4947 16.1921 17.2093 16.1529 16.9086 16.3361C18.2612 16.497 19.0277 17.2341 19.2487 18.535C18.485 18.1433 17.6751 17.9237 16.8135 17.8678C18.0444 18.2384 19.176 18.7896 20.1411 19.6386H20.1439Z" fill="white"/>
<path d="M9.67235 11.4363C9.41358 11.3118 9.1688 11.1482 8.9422 10.9705C8.38969 10.5355 7.84976 10.0823 7.28886 9.62354C7.19514 9.97043 7.07625 10.3313 7.0091 10.7006C6.97973 10.8572 7.00211 11.0824 7.09863 11.1902C7.40356 11.5314 7.75045 11.835 8.08895 12.1441C8.14071 12.1917 8.23722 12.2112 8.31135 12.2071C8.89744 12.1679 9.48352 12.1203 10.0934 12.0742C10.0654 11.7539 9.93672 11.565 9.67235 11.4377V11.4363Z" fill="white"/>
<path d="M12.2645 11.586C13.5793 11.1803 14.7626 10.5229 15.8103 9.63608C17.5616 8.15339 18.7379 6.32101 19.1002 4.02284C19.1827 3.4983 19.1995 2.96537 19.2457 2.43524C18.412 1.803 17.4916 1.27707 16.5069 0.878418C16.2691 1.03928 16.0551 1.18615 15.8271 1.34001C15.918 1.38477 15.988 1.42114 16.0593 1.45471C17.2762 2.01981 17.7616 2.96957 17.4902 4.28301C17.1867 5.76011 16.3922 6.96724 15.3907 8.05548C14.7291 8.77444 13.9779 9.37451 13.0897 9.80254C12.3442 10.1606 11.6182 10.162 10.8741 9.80254C9.47252 9.12274 8.42764 8.05548 7.5674 6.791C7.03028 6.00209 6.61904 5.15164 6.46098 4.19629C6.24697 2.90103 6.69737 2.0324 7.87933 1.4701C7.95066 1.43652 8.0192 1.39736 8.11712 1.34561C7.89331 1.18335 7.68909 1.03368 7.48348 0.884013C6.49875 1.28406 5.57976 1.80999 4.74609 2.44503C4.75449 2.54015 4.76008 2.5989 4.76288 2.65625C4.83002 4.29 5.21468 5.83704 6.06233 7.24699C7.39256 9.46264 9.40118 10.8013 11.8001 11.6167C11.9371 11.6629 12.119 11.6321 12.2645 11.5874V11.586Z" fill="white"/>
<path d="M3.83283 19.8402C4.79797 18.9855 5.93797 18.4442 7.17168 18.0735C6.32123 18.1099 5.52673 18.3505 4.763 18.7114L4.68747 18.717C4.69307 18.6918 4.70006 18.6666 4.70566 18.6414C4.78259 18.447 4.8861 18.2582 4.93365 18.0582C5.1071 17.3322 5.63164 16.9741 6.27787 16.7391C6.4639 16.6706 6.65973 16.6258 6.84856 16.5657C6.90172 16.5489 6.95207 16.5195 7.00383 16.4957L6.97445 16.388C6.48908 16.4789 6.00371 16.5699 5.50155 16.665C5.69598 16.2426 5.88062 15.8397 6.04427 15.483C5.73515 15.262 5.46239 15.0676 5.16585 14.855C4.76161 15.4942 4.35457 16.1362 3.94753 16.7783C4.38114 17.0426 4.3168 16.9447 4.11258 17.3462C3.95032 17.6665 3.76429 17.9742 3.59084 18.2889C3.28871 18.8326 3.34606 19.3376 3.76289 19.8038C3.77408 19.8164 3.79506 19.822 3.83143 19.8416L3.83283 19.8402Z" fill="white"/>
<path d="M3.51933 12.3048C4.13758 13.3049 4.96985 14.1036 5.90982 14.796C6.1602 14.9806 6.42876 14.9261 6.65955 14.6841C7.01764 14.3092 7.37992 13.9358 7.72821 13.5525C7.82333 13.4476 7.87788 13.3049 7.98418 13.1217C7.87508 12.9496 7.79535 12.7552 7.65687 12.6181C6.96868 11.9299 6.34064 11.1998 5.89023 10.3284C5.61748 9.80102 5.19645 9.74787 4.7978 10.1871C4.39495 10.6305 3.99631 11.0767 3.59626 11.5229C3.28853 11.867 3.27315 11.9076 3.51933 12.3034V12.3048Z" fill="white"/>
<path d="M17.7163 14.9429C17.8674 14.8758 17.9863 14.8464 18.0772 14.7793C18.3402 14.5821 18.6018 14.3792 18.8451 14.1596C19.4844 13.5833 20.0747 12.9609 20.5083 12.2084C20.6244 12.0055 20.6426 11.8237 20.4705 11.6363C20.0047 11.1285 19.5557 10.6054 19.0829 10.1046C18.778 9.7815 18.3276 9.82905 18.1304 10.2207C17.6674 11.1453 17.0142 11.916 16.284 12.635C15.9427 12.9693 15.9609 13.2798 16.2952 13.6211C16.6295 13.9638 16.947 14.3233 17.2869 14.6604C17.4058 14.7779 17.5709 14.8506 17.7163 14.9443V14.9429Z" fill="white"/>
<path d="M15.8776 12.1497C16.2189 11.8293 16.5686 11.516 16.8833 11.1719C16.9714 11.0754 17.0022 10.8726 16.9742 10.7341C16.8987 10.3536 16.7784 9.98297 16.6623 9.56055C15.9475 10.3257 15.1782 10.9397 14.3138 11.4251C14.0536 11.5706 13.897 11.7426 13.876 12.0741C14.4844 12.1189 15.0985 12.165 15.7126 12.2056C15.7671 12.2098 15.8384 12.1846 15.8776 12.1483V12.1497Z" fill="white"/>
</g>
<defs>
<clipPath id="clip0_5357_40130">
<rect width="24" height="24" fill="white"/>
</clipPath>
</defs>
</svg>
