<svg width="24" height="24" viewBox="0 0 24 24" fill="none" xmlns="http://www.w3.org/2000/svg">
<g clip-path="url(#clip0_28_644)">
<path d="M24 12C24 5.36638 18.6207 0 12 0C5.36638 0 0 5.36638 0 12C0 18.6207 5.36638 24 12 24C18.6207 24 24 18.6207 24 12Z" fill="url(#paint0_radial_28_644)"/>
<path d="M20.1596 8.25012C20.1078 8.54753 20.0561 8.68977 19.9785 8.84495C19.9009 9.02598 19.8234 9.21995 19.7458 9.63374C19.7199 9.78891 19.694 9.91822 19.6811 10.0217V10.0346C19.6553 10.2027 19.6423 10.3191 19.5777 10.513C19.5259 10.6812 19.4354 10.9527 19.2156 11.2372C19.0346 11.4699 18.7371 11.8708 18.3363 11.9225C18.2975 11.9225 18.2328 11.9225 18.194 11.9096C17.0561 11.3277 16.0863 10.901 15.7501 10.8105C15.3621 10.6941 15.4139 9.84064 15.4527 9.09064C15.4785 8.75443 15.4915 8.43115 15.4785 8.1596C15.4268 7.2027 15.2587 6.16822 14.4311 5.66391C13.9397 5.3665 13.2932 5.27598 12.6854 5.27598C12.8018 5.22426 12.9182 5.14667 13.0604 5.06908C13.4225 4.86219 13.8621 4.60357 14.3147 4.55184C14.457 4.53891 14.5992 4.52598 14.7415 4.50012C15.6337 4.39667 16.4096 4.30615 17.2242 4.59064C17.5992 4.71995 18.3492 5.13374 18.5432 5.5346C18.6854 5.80615 18.9182 6.02598 19.3708 6.4527C19.6165 6.67253 19.7716 6.80184 19.888 6.90529C20.0561 7.0346 20.082 7.07339 20.1337 7.16391C20.2889 7.47426 20.2371 7.79753 20.1596 8.25012Z" fill="white"/>
<path d="M16.0345 12.1682C16.0863 12.1811 16.1121 12.2458 16.0733 12.2975C15.957 12.4785 15.8147 12.7372 15.6466 13.0346C15.569 13.1768 15.4914 13.3191 15.4268 13.4225C15.207 13.7975 15.194 14.1208 15.1811 14.3665C15.1682 14.638 15.1552 14.7544 14.9871 14.8578C14.8578 14.9484 14.7156 14.9742 13.7845 15.1165C13.6164 15.1423 13.5518 15.1682 13.4871 15.207C13.4742 15.2199 13.4483 15.2199 13.4354 15.2328C13.3837 15.2587 13.332 15.207 13.332 15.1553C13.3449 15.0259 13.3449 14.8578 13.3449 14.638V14.5992C13.3449 14.4182 13.3449 14.263 13.332 14.1466C13.319 13.9139 13.319 13.8104 13.3837 13.707C13.4613 13.5777 13.5259 13.5389 13.6164 13.4742C13.7587 13.3837 13.9526 13.2673 14.2242 12.8794C14.3794 12.6725 14.4052 12.5561 14.4311 12.4656C14.444 12.4268 14.444 12.4139 14.5604 12.3234C14.6768 12.2328 15.0518 11.9484 15.5302 12.026C15.6854 12.0518 15.8535 12.1035 16.0345 12.1682Z" fill="white"/>
<path d="M12.3234 16.4613C12.2975 16.4871 12.2846 16.5001 12.2458 16.5001C12.1423 16.5001 12.0777 16.4742 12.0389 16.4225C11.9484 16.3061 11.9613 16.0733 11.9742 15.9311L12.3751 15.8276C12.401 16.0475 12.4139 16.3449 12.3234 16.4613Z" fill="white"/>
<path d="M12.3491 15.0389C12.3362 15.0906 12.3362 15.1552 12.3362 15.2328C12.3362 15.2587 12.3362 15.2846 12.3362 15.3104C12.3362 15.3751 12.3362 15.4785 12.3362 15.5302C12.2069 15.569 12.1034 15.569 11.9741 15.569C11.9741 15.5302 11.9741 15.4656 11.9741 15.4268C11.9741 15.4009 11.9741 15.3621 11.9741 15.3363C11.9741 15.2975 11.9741 15.2716 11.9741 15.2328C11.9741 15.1552 11.9741 15.0389 11.9871 15.0001C12.0258 15.0001 12.0646 14.9871 12.1034 14.9742C12.181 14.9613 12.2974 14.9354 12.3621 14.9483C12.3621 14.9742 12.3621 15.013 12.3491 15.0389Z" fill="white"/>
<path d="M11.625 16.345C11.6121 16.5519 11.5475 16.7976 11.3535 16.8363C11.263 16.8493 11.2242 16.8234 11.1983 16.7976C11.069 16.6812 11.0561 16.3191 11.069 16.0605C11.1595 16.0605 11.263 16.0476 11.3923 16.0217C11.4699 16.0088 11.5475 15.9829 11.6121 15.97C11.625 16.0734 11.638 16.2027 11.625 16.345Z" fill="white"/>
<path d="M11.5345 15.6207L11.1078 15.7759C11.1337 15.6078 11.1595 15.375 11.1724 15.2199C11.1854 15.1164 11.2112 15.0776 11.2242 15.0647C11.2242 15.0647 11.2371 15.0517 11.25 15.0517C11.25 15.0517 11.25 15.0517 11.263 15.0517H11.2759L11.5474 15.0388C11.5345 15.1681 11.5345 15.4526 11.5345 15.6207Z" fill="white"/>
<path d="M10.8363 15.4914C10.8104 15.5561 10.7846 15.7371 10.7716 15.8664L10.2415 15.8535C10.2673 15.6854 10.319 15.5173 10.3578 15.388C10.4096 15.2587 10.4484 15.1552 10.5001 15.1293C10.5518 15.1035 10.6682 15.0906 10.7458 15.1552C10.8621 15.2328 10.888 15.3492 10.8363 15.4914Z" fill="white"/>
<path d="M10.6423 17.1337C10.6035 17.1854 10.5517 17.2242 10.5 17.2242C10.4354 17.2371 10.3966 17.2112 10.3578 17.1854C10.1897 17.0302 10.2026 16.5259 10.2155 16.2802C10.4354 16.2285 10.681 16.1897 10.7974 16.1768C10.7974 16.3707 10.8104 16.9009 10.6423 17.1337Z" fill="white"/>
<path d="M9.944 15.8277C9.91814 15.8924 9.89228 15.957 9.87934 16.0217C9.81469 16.0475 9.62072 16.0217 9.42676 15.9829L9.55607 15.1424C9.7759 15.0777 10.0345 15.0648 10.0862 15.1294C10.1768 15.2199 10.0087 15.6467 9.944 15.8277Z" fill="white"/>
<path d="M9.69826 17.2502C9.59481 17.3795 9.43964 17.4441 9.21981 17.4312C9.06464 17.4312 9.01291 17.3666 8.98705 17.3278C8.87067 17.1338 8.98705 16.6812 9.10343 16.3967L9.82757 16.4355C9.8405 16.4872 9.8405 16.5519 9.8405 16.6166C9.85343 16.8364 9.82757 17.095 9.69826 17.2502Z" fill="white"/>
<path d="M15.6983 11.1338C15.0388 10.9528 15.1035 9.99589 15.1552 9.06486C15.1681 8.74158 15.194 8.43124 15.181 8.17262C15.1293 7.30624 14.9871 6.36227 14.2888 5.93555C13.5388 5.48296 12.3103 5.58641 11.5603 5.67693C11.2888 5.75451 11.0302 5.81917 10.8233 5.80624C10.3836 5.78037 10.0345 5.59934 9.72414 5.43124C9.49138 5.30193 9.28449 5.18555 9.07759 5.18555C9.06466 5.18555 9.05173 5.18555 9.05173 5.18555C8.46983 5.22434 8.19828 5.36658 7.95259 5.58641C7.88794 5.63813 7.81035 5.79331 7.56466 6.50451C7.43535 6.86658 7.42242 7.06055 7.39656 7.24158C7.37069 7.40968 7.35776 7.59072 7.26725 7.86227C7.20259 8.04331 7.15087 8.19848 7.11207 8.35365C6.99569 8.75451 6.89225 9.07779 6.60776 9.46572C6.56897 9.50451 6.53018 9.5821 6.47845 9.64675C6.4138 9.7502 6.33621 9.87951 6.21983 10.0218C6.14225 10.1252 5.97414 10.5131 5.98707 10.6295C6 10.8235 6.06466 10.9399 6.12931 11.0692C6.19397 11.1985 6.28449 11.3537 6.29742 11.5735V11.6123C6.32328 11.9485 6.27156 12.1166 5.63793 12.6855C5.23707 13.0476 4.93966 13.3968 4.74569 13.6554C4.73276 13.6812 4.74569 13.7071 4.78449 13.7071C4.79742 13.7071 4.79742 13.7071 4.79742 13.7071C4.81035 13.7071 4.82328 13.7071 4.83621 13.7071C4.84914 13.7071 4.86207 13.7071 4.875 13.7071C4.88794 13.7071 4.90087 13.7071 4.9138 13.7071C5.06897 13.72 5.22414 13.7847 5.32759 13.9011C5.34052 13.9269 5.37931 13.9269 5.40518 13.914C5.50862 13.8752 5.625 13.8752 5.72845 13.8881C5.85776 13.9011 6 13.9399 6.09052 14.0304C6.11638 14.0562 6.15518 14.0692 6.19397 14.0562C6.29742 14.0304 6.4138 14.0304 6.51725 14.0692C6.59483 14.095 6.67242 14.1468 6.72414 14.2114C6.76294 14.2502 6.82759 14.2631 6.87931 14.2373C6.90518 14.2243 6.94397 14.1985 6.98276 14.1855C7.125 14.1338 7.28018 14.1597 7.40949 14.2114C7.47414 14.2373 7.5388 14.2502 7.60345 14.3019C7.7069 14.3795 7.78449 14.483 7.82328 14.5993C7.84914 14.664 7.93966 14.6899 7.99138 14.6381C8.09483 14.5605 8.17242 14.5476 8.25 14.5735C8.2888 14.5864 8.31466 14.6123 8.34052 14.6511C8.37931 14.7028 8.44397 14.7545 8.49569 14.7287C8.71552 14.664 8.97414 14.7028 9.16811 14.8062C9.23276 14.845 9.31035 14.8968 9.34914 14.9743V14.9355C9.34914 14.9226 9.36207 14.9097 9.375 14.8968L9.4138 14.8838C9.51725 14.845 10.0603 14.6899 10.2672 14.9097C10.2802 14.9226 10.2931 14.9226 10.306 14.9097C10.3319 14.8838 10.3578 14.858 10.3707 14.858C10.5129 14.7804 10.7457 14.7674 10.9009 14.9097C10.9267 14.9355 10.9785 14.9226 11.0043 14.8968C11.0172 14.8709 11.0302 14.858 11.056 14.845C11.1078 14.7933 11.1853 14.7804 11.2629 14.7804L11.5603 14.7674C11.6379 14.7674 11.8707 14.7416 11.9353 14.7287H11.9483C11.9741 14.7287 12.0129 14.7157 12.0517 14.7028C12.194 14.6769 12.3621 14.6381 12.4914 14.7028C12.6207 14.7674 12.6078 14.9097 12.5948 15.039C12.5948 15.0907 12.5819 15.1424 12.5819 15.1942C12.5819 15.22 12.5819 15.2459 12.5819 15.2718C12.5819 15.3881 12.5819 15.4916 12.569 15.5692L12.5819 15.6338C12.5819 15.6338 12.5819 15.6338 12.5819 15.6468C12.5948 15.6985 12.6595 15.7373 12.6983 15.6985C12.8017 15.6338 12.9052 15.5562 12.944 15.5045V15.4916C12.944 15.4787 12.9569 15.4528 12.9698 15.4011C12.9828 15.2847 13.0086 15.0649 13.0086 14.6123C13.0086 14.5864 13.0086 14.5735 13.0086 14.5605C13.0086 14.3924 13.0086 14.2502 12.9957 14.1338C12.9828 13.8881 12.9698 13.6942 13.0991 13.5002C13.2155 13.3062 13.3319 13.2416 13.4483 13.164C13.5776 13.0864 13.7198 12.9959 13.9655 12.6597C14.0819 12.4916 14.0948 12.4269 14.1078 12.3752C14.1336 12.2459 14.1724 12.1683 14.3664 12.039C14.5216 11.9226 14.9741 11.5735 15.5948 11.6769C15.8017 11.7157 16.125 11.8192 16.4612 11.9485C16.4741 11.9485 16.4871 11.9614 16.5 11.9614H16.5129C16.8103 12.0778 17.0819 12.2071 17.2759 12.3105C17.3147 12.3364 17.3664 12.3235 17.4052 12.2847C17.4698 12.2071 17.5345 12.1683 17.5991 12.1166C17.625 12.1036 17.6509 12.0907 17.6638 12.0778C17.6767 12.0778 17.6767 12.0649 17.6767 12.0649C17.7285 12.0261 17.7285 11.9226 17.6638 11.8968C16.7974 11.47 15.9698 11.2114 15.6983 11.1338ZM9.46552 11.3278C9.25862 12.2071 7.88794 13.1899 7.26725 13.1899H7.25431C7.24138 13.1899 7.22845 13.1899 7.22845 13.1899C7.21552 13.1899 7.20259 13.1899 7.18966 13.1769C7.17673 13.1769 7.17673 13.1769 7.1638 13.1769C7.04742 13.1381 6.89225 13.0605 6.77587 12.9442C6.69828 12.8666 6.63362 12.7631 6.60776 12.6726C6.60776 12.6597 6.59483 12.6338 6.59483 12.6209C6.55604 12.4657 6.51725 12.2847 6.64656 11.9743C6.65949 11.9355 6.68535 11.8968 6.69828 11.858C6.69828 11.845 6.71121 11.8321 6.71121 11.8192C6.72414 11.7804 6.73707 11.7545 6.75 11.7287C6.76294 11.6769 6.7888 11.6381 6.80173 11.6123C6.80173 11.5993 6.81466 11.5864 6.81466 11.5735C6.85345 11.47 6.85345 11.4312 6.86638 11.3924C6.86638 11.3666 6.87931 11.3149 6.89225 11.2631C6.93104 11.095 6.9569 10.9528 6.96983 10.8364C6.99569 10.6166 7.03449 10.4226 7.15087 10.2416C7.17673 10.2157 7.18966 10.1899 7.21552 10.164C7.22845 10.1511 7.22845 10.1511 7.24138 10.1381C7.25431 10.1252 7.25431 10.1252 7.26725 10.1123C7.29311 10.0864 7.3319 10.0735 7.35776 10.0605C7.37069 10.0605 7.38362 10.0476 7.39656 10.0476C7.42242 10.0347 7.44828 10.0347 7.47414 10.0218C7.59052 9.99589 7.71983 9.99589 7.875 10.0088C8.04311 10.0218 8.19828 10.0476 8.32759 10.0864C8.44397 10.1123 8.54742 10.1511 8.625 10.1899C8.63793 10.1899 8.63794 10.2028 8.65087 10.2028C8.6638 10.2157 8.67673 10.2157 8.70259 10.2287C8.72845 10.2416 8.74138 10.2416 8.76725 10.2545C8.79311 10.2674 8.81897 10.2804 8.84483 10.2933L8.87069 10.3062C8.96121 10.345 9.05173 10.3968 9.11638 10.4485C9.15518 10.4743 9.18104 10.5002 9.2069 10.5261C9.21983 10.539 9.23276 10.539 9.23276 10.5519C9.24569 10.5649 9.24569 10.5649 9.25862 10.5778C9.53018 10.8105 9.51724 11.1338 9.46552 11.3278ZM10.1121 7.97865L10.0862 8.13382C10.0216 8.49589 9.87931 8.98727 9.36207 9.11658C8.85776 9.23296 8.74138 9.25882 8.39225 9.28469C8.37931 9.28469 8.37931 9.28469 8.36638 9.28469C8.10776 9.28469 7.60345 9.11658 7.51293 8.71572C7.46121 8.4571 7.57759 8.26313 7.75862 7.95279C7.78449 7.90106 7.82328 7.84934 7.86207 7.78468C8.12069 7.35796 8.21121 7.04762 8.2888 6.80193C8.36638 6.55624 8.43104 6.36227 8.59914 6.19417C8.63793 6.15537 8.67673 6.11658 8.72845 6.09072C8.75431 6.06486 8.79311 6.05193 8.8319 6.02606C8.88363 6.0002 8.93535 5.98727 8.98707 5.96141C9.10345 5.92262 9.23276 5.90969 9.34914 5.90969C9.59483 5.90969 9.84052 5.97434 10.0086 6.11658C10.0862 6.18124 10.2026 6.29762 10.2672 6.67262C10.2931 6.86658 10.2414 7.21572 10.1121 7.97865ZM13.8233 9.01313C13.6422 9.32348 13.5517 9.49158 13.3966 9.62089C13.0862 9.87951 12.7371 9.93124 12.4397 9.93124C12.2328 9.93124 12.0517 9.89244 11.9353 9.87951C11.625 9.82779 11.069 9.72434 10.875 9.27175C10.8362 9.18124 10.8362 9.12951 10.8362 9.05193C10.8362 8.98727 10.8362 8.85796 10.7974 8.58641V8.57348C10.7845 8.44417 10.7716 8.30193 10.7974 8.12089V8.09503C10.9009 7.55193 10.9397 7.47434 10.9526 7.42262C11.0043 7.31917 11.1336 7.26744 11.25 7.3321C11.3535 7.38382 11.3922 7.51313 11.3535 7.61658C11.3405 7.64244 11.3147 7.75882 11.2241 8.18555V8.21141C11.1983 8.32779 11.2112 8.41831 11.2241 8.53468V8.54762C11.2629 8.85796 11.2629 8.98727 11.2629 9.06486C11.2629 9.07779 11.2629 9.09072 11.2629 9.10365V9.11658C11.3017 9.2071 11.3793 9.25882 11.4698 9.31055C11.5345 9.33641 11.5991 9.28469 11.5862 9.22003C11.4957 8.74158 11.4957 8.18555 11.6767 7.83641C11.7414 7.72003 11.8448 7.539 11.9483 7.35796C11.9612 7.34503 11.9741 7.31917 11.9741 7.30624C11.9871 7.29331 11.9871 7.28037 12 7.26744C12.0517 7.18986 12.0905 7.1252 12.1293 7.06055C12.1293 7.04762 12.1422 7.04762 12.1422 7.03469L12.1552 7.02175C12.1681 7.00882 12.1681 6.99589 12.181 6.98296C12.181 6.98296 12.181 6.97003 12.194 6.97003L12.2069 6.9571C12.2069 6.94417 12.2198 6.94417 12.2198 6.93124C12.2586 6.87951 12.2974 6.82779 12.3233 6.77606C12.375 6.71141 12.3103 6.63382 12.2457 6.65968C12.0647 6.73727 11.9483 6.82779 11.9224 6.84072C11.8319 6.91831 11.6897 6.90537 11.6121 6.80193C11.5345 6.71141 11.5474 6.56917 11.6509 6.49158C11.7672 6.40106 12.3621 5.97434 13.0733 6.16831C13.5905 6.31055 13.8491 6.71141 13.9526 6.85365C14.0302 6.97003 14.2888 7.3321 14.2759 7.84934C14.2759 8.22434 14.1207 8.50882 13.8233 9.01313Z" fill="white"/>
<path d="M9.19406 6.3623C9.15527 6.45282 9.11648 6.55627 9.06475 6.67265C8.9613 6.9442 8.83199 7.25455 8.76734 7.37093C8.66389 7.56489 8.5863 7.6942 8.52165 7.78472C8.44406 7.9011 8.39234 7.99161 8.34061 8.12093C8.26303 8.34075 8.2501 8.58644 8.30182 8.85799C8.15958 8.84506 7.93975 8.75455 7.91389 8.62524C7.90096 8.53472 7.95268 8.4442 8.10786 8.17265C8.13372 8.12093 8.17251 8.05627 8.2113 8.00455C8.48286 7.53903 8.59923 7.18989 8.67682 6.93127C8.76734 6.65972 8.80613 6.54334 8.94837 6.43989C9.03889 6.4011 9.11648 6.37524 9.19406 6.3623Z" fill="white"/>
<path d="M8.92242 16.1382C8.76725 16.4485 8.58622 16.733 8.46984 16.8752C8.36639 16.6166 8.19829 16.0088 8.25001 15.5304C8.25001 15.5175 8.25001 15.5045 8.25001 15.4916C8.26294 15.3364 8.30173 15.2071 8.37932 15.0907C8.43105 15.0132 8.56036 14.9744 8.7026 14.9744C8.80605 14.9744 8.92242 15.0002 9.02587 15.052C9.0776 15.0778 9.15518 15.1425 9.15518 15.3106C9.18105 15.5433 9.06467 15.8537 8.92242 16.1382Z" fill="white"/>
<path d="M17.1983 12.6854C17.2112 12.6983 17.2112 12.7112 17.2112 12.7242C17.1724 12.8147 17.1078 12.8793 17.0431 12.9569C16.9655 13.0474 16.875 13.1509 16.7974 13.319C16.681 13.5518 16.6422 13.7587 16.6293 14.3018C16.6034 14.9354 16.6293 15.2845 16.6552 15.5431C16.6681 15.7888 16.681 15.944 16.6422 16.1897C16.5517 16.6811 16.3448 17.0043 16.0733 17.4181C15.7371 17.9354 15.4009 18.4656 14.8319 18.6337C14.7802 18.6466 14.7802 18.6466 14.625 18.6466C14.4957 18.6466 14.2759 18.6466 13.875 18.6595C13.125 18.6854 12.75 18.6983 12.4396 18.763C12.1034 18.8276 11.9353 18.9052 11.7543 18.9699C11.5991 19.0345 11.4569 19.0862 11.1853 19.1509C11.0172 19.1897 10.7715 19.2156 9.93103 19.2285C9.05172 19.2285 8.52154 19.2285 7.8362 19.1509C6.8793 19.0474 6.40085 18.9828 6.07758 18.8147C5.32758 18.4138 5.0043 17.6897 4.48706 16.5C4.48706 16.4871 4.49999 16.4742 4.51292 16.4742C4.53878 16.4871 4.56465 16.5 4.59051 16.513C4.61637 16.5259 4.64223 16.5259 4.65516 16.5259C4.70689 16.5388 4.75861 16.5388 4.81034 16.5259C4.82327 16.5259 4.82327 16.5259 4.8362 16.513C4.84913 16.513 4.86206 16.513 4.86206 16.5259C4.90085 16.6164 4.95258 16.694 5.04309 16.7457C5.13361 16.7974 5.23706 16.7974 5.32758 16.7974C5.43103 16.7974 5.53447 16.7845 5.63792 16.7716C5.68965 16.7716 5.74137 16.7974 5.76723 16.8362C5.85775 17.069 5.97413 17.2242 6.15516 17.25C6.16809 17.25 6.18103 17.25 6.19396 17.25C6.23275 17.25 6.29741 17.2371 6.37499 17.1854C6.43965 17.1337 6.54309 17.1724 6.59482 17.2371C6.63361 17.3018 6.68534 17.3406 6.73706 17.3793C6.91809 17.5604 7.35775 17.6509 7.71982 17.6509C7.91378 17.6509 8.09482 17.625 8.19827 17.5733C8.35344 17.4957 8.35344 17.3923 8.34051 17.3406C8.32758 17.263 8.31465 17.1724 8.30172 17.0949C8.30172 17.0819 8.31465 17.0819 8.31465 17.0949C8.34051 17.1466 8.36637 17.1983 8.43103 17.2112C8.44396 17.2112 8.44396 17.2112 8.45689 17.2112C8.56034 17.2112 8.71551 17.25 8.74137 17.3406C8.7543 17.3923 8.78016 17.4311 8.80603 17.4828C8.87068 17.5733 8.98706 17.6897 9.23275 17.7026H9.24568C9.53016 17.7026 9.74999 17.6121 9.89223 17.4311C9.90516 17.4181 9.90516 17.4052 9.91809 17.3923C9.96982 17.3147 10.125 17.3147 10.1896 17.3793C10.2672 17.444 10.3577 17.4828 10.4612 17.4828C10.4741 17.4828 10.5 17.4828 10.5129 17.4828C10.6422 17.4699 10.7457 17.4052 10.8362 17.2888C10.8879 17.2112 10.9267 17.1207 10.9526 17.0173C10.9655 16.9914 11.0043 16.9785 11.0302 17.0043C11.0819 17.0561 11.1724 17.1078 11.3017 17.1078C11.3276 17.1078 11.3664 17.1078 11.4052 17.0949C11.6509 17.0431 11.7802 16.8362 11.8319 16.6164C11.8319 16.6035 11.8448 16.6035 11.8448 16.6164C11.9095 16.694 12.0259 16.7845 12.2198 16.7845C12.2327 16.7845 12.2457 16.7845 12.2457 16.7845C12.3491 16.7845 12.4396 16.7328 12.5043 16.6552C12.5819 16.5518 12.6077 16.3966 12.6207 16.2543C12.6207 16.2156 12.6465 16.1768 12.6983 16.1509C12.9052 16.0604 13.1638 15.8664 13.2414 15.7371C13.2414 15.7371 13.2414 15.7242 13.2543 15.7242C13.2672 15.6854 13.306 15.6595 13.3319 15.6595C13.5 15.6337 13.5646 15.5949 13.6293 15.569C13.681 15.5431 13.7198 15.5302 13.8491 15.5043C14.7931 15.3621 14.9741 15.3233 15.181 15.194C15.4914 14.9871 15.5043 14.7026 15.5172 14.4311C15.5302 14.1983 15.5431 13.9397 15.7241 13.6293C15.7888 13.513 15.8664 13.3837 15.944 13.2285C16.0862 12.9699 16.2802 12.6078 16.4224 12.4138C16.4483 12.375 16.5 12.3621 16.5388 12.388C16.8621 12.5043 17.1465 12.6337 17.1983 12.6854Z" fill="white"/>
<path d="M8.01722 15.5044C7.97843 15.8277 7.95257 16.2674 8.00429 16.8363C8.01722 16.9915 8.04309 17.1596 8.06895 17.3277C8.03016 17.3536 7.88791 17.3924 7.65516 17.3794C7.31895 17.3665 6.98274 17.2889 6.87929 17.1725L6.86636 17.1596C6.78878 17.095 6.72412 17.0432 6.72412 16.9269C6.72412 16.8881 6.73705 16.8493 6.77585 16.7846C6.80171 16.7588 6.82757 16.72 6.85343 16.6682C6.90516 16.5907 6.98274 16.5001 7.06033 16.3708C7.28016 16.0088 7.35774 15.8924 7.46119 15.7501C7.47412 15.7372 7.47412 15.7243 7.48705 15.7113C7.55171 15.6338 7.61636 15.5303 7.73274 15.3622C7.81033 15.2458 7.87498 15.1424 7.93964 15.0648C8.03016 14.9355 8.09481 14.8708 8.1336 14.832C8.1336 14.8838 8.12067 14.9613 8.10774 15.0389C8.05602 15.1941 8.03016 15.3363 8.01722 15.5044Z" fill="white"/>
<path d="M7.84913 10.4097C7.84913 10.4226 7.84913 10.4226 7.84913 10.4097C7.79741 10.4743 7.74568 10.5519 7.68103 10.6812C7.51293 11.0433 7.51293 11.2502 7.51293 11.4183C7.51293 11.5088 7.51293 11.5734 7.48706 11.651C7.47413 11.7028 7.44827 11.7674 7.40948 11.8321C7.31896 12.0519 7.18965 12.3364 7.24137 12.7243C7.16379 12.6855 7.04741 12.595 7.02155 12.5562C7.02155 12.5303 7.00862 12.5174 7.00862 12.4915C6.98275 12.3752 6.96982 12.2976 7.03448 12.1165C7.24137 11.651 7.26724 11.5347 7.28017 11.4053C7.28017 11.3795 7.2931 11.3536 7.2931 11.3148C7.33189 11.1338 7.35775 10.9786 7.37068 10.8493C7.39655 10.6553 7.42241 10.526 7.48706 10.4355C7.51293 10.3967 7.57758 10.3838 7.6681 10.3838C7.70689 10.3838 7.74568 10.3838 7.79741 10.3967H7.81034C7.84913 10.4097 7.84913 10.4097 7.84913 10.4097Z" fill="white"/>
<path d="M7.59054 15.026C7.57761 14.9096 7.56468 14.8062 7.51296 14.6898C7.51296 14.6898 7.50003 14.664 7.50003 14.651C7.48709 14.6381 7.48709 14.6252 7.47416 14.6122L7.46123 14.5993C7.4483 14.5864 7.4483 14.5864 7.43537 14.5864L7.42244 14.5734C7.40951 14.5734 7.40951 14.5605 7.39658 14.5605H7.38365C7.31899 14.5346 7.25434 14.5088 7.17675 14.4958C7.16382 14.4958 7.15089 14.4958 7.15089 14.4958C7.13796 14.4958 7.13796 14.4958 7.12503 14.4958H7.11209C7.09916 14.4958 7.08623 14.5088 7.06037 14.5088C7.04744 14.5088 7.04744 14.5217 7.03451 14.5217L7.02158 14.5346C7.00865 14.5476 7.00865 14.5476 6.99571 14.5605L6.98278 14.5734V14.5864C6.95692 14.6252 6.93106 14.664 6.9052 14.7027C6.84054 14.7933 6.77589 14.8967 6.71123 14.9872C6.64658 15.0777 6.59485 15.1553 6.5302 15.2458C6.4914 15.2976 6.46554 15.3364 6.42675 15.3881C6.42675 15.401 6.41382 15.401 6.41382 15.414C6.45261 15.4269 6.4914 15.4269 6.5302 15.4398C6.62072 15.4527 6.71123 15.4657 6.78882 15.4786C6.96985 15.5045 7.16382 15.5174 7.34485 15.5045C7.35778 15.5045 7.35778 15.5045 7.37072 15.5045C7.40951 15.4398 7.47416 15.3622 7.53882 15.2588C7.57761 15.2071 7.6164 15.1553 7.64227 15.1036C7.60347 15.0907 7.59054 15.0519 7.59054 15.026Z" fill="white"/>
<path d="M6.93102 15.789C6.91809 15.9312 6.76292 16.2933 6.51723 16.6424C6.31033 16.9269 6.18102 17.0045 6.15516 17.0045C6.05171 16.9915 5.96119 16.7458 5.88361 16.5002C5.85775 16.3967 5.81895 16.3062 5.80602 16.2157C5.7543 16.0346 5.74137 15.776 5.7543 15.6208C5.96119 15.7372 6.32326 15.7631 6.8405 15.7631C6.86637 15.776 6.90516 15.776 6.93102 15.789Z" fill="white"/>
<path d="M6.56906 14.6251C6.47854 14.7673 6.38803 14.8966 6.29751 15.0259C6.24579 15.0906 6.20699 15.1552 6.15527 15.2199C6.12941 15.2587 6.09061 15.2975 6.06475 15.3363C5.98717 15.3233 5.92251 15.2975 5.84492 15.2845C5.78027 15.2716 5.72854 15.2458 5.66389 15.2199C5.65096 15.2199 5.63803 15.207 5.6251 15.207C5.61217 15.194 5.59923 15.1682 5.5863 15.1552C5.61217 15.1164 5.6251 15.0647 5.65096 15.0259C5.68975 14.9483 5.72855 14.8708 5.78027 14.7932C5.85786 14.6639 5.94837 14.5216 6.09061 14.4311C6.10354 14.4311 6.10354 14.4182 6.11648 14.4182C6.1682 14.3923 6.21992 14.3664 6.28458 14.3535C6.29751 14.3535 6.3363 14.3535 6.36217 14.3535H6.3751C6.3751 14.3535 6.3751 14.3535 6.38803 14.3535C6.40096 14.3535 6.41389 14.3664 6.43975 14.3664C6.43975 14.3664 6.45268 14.3664 6.45268 14.3794C6.46561 14.3923 6.47855 14.3923 6.49148 14.4052C6.46561 14.3923 6.51734 14.444 6.51734 14.4311C6.5432 14.5087 6.55613 14.5475 6.56906 14.6251Z" fill="white"/>
<path d="M5.87075 14.2502C5.70265 14.3795 5.58627 14.5605 5.49575 14.7545C5.44402 14.8579 5.3923 14.9614 5.34058 15.0648C5.34058 15.0778 5.32765 15.0907 5.32765 15.0907C5.27592 15.0778 5.2242 15.0648 5.1854 15.0519C5.13368 15.039 5.08196 15.0131 5.03023 15.0002C5.00437 14.9872 4.99144 14.9743 4.96558 14.9614C5.0173 14.8709 5.06902 14.7803 5.13368 14.6898C5.21127 14.5734 5.30178 14.4441 5.3923 14.3407C5.43109 14.3019 5.46989 14.2502 5.50868 14.2243C5.5604 14.1984 5.61213 14.1984 5.67678 14.2114C5.74144 14.2114 5.80609 14.2114 5.85782 14.2372C5.84489 14.2372 5.85782 14.2502 5.87075 14.2502Z" fill="white"/>
<path d="M5.61208 16.4483C5.59915 16.4612 5.59915 16.4612 5.58621 16.4742H5.57328C5.53449 16.4742 5.4957 16.4871 5.4569 16.4871C5.37932 16.4871 5.30173 16.5 5.22415 16.4871C5.18535 16.4871 5.14656 16.4742 5.1207 16.4483C5.09483 16.4095 5.0819 16.3319 5.06897 16.2802C5.01725 15.9957 5.01725 15.7112 5.04311 15.4268C5.18535 15.4785 5.34052 15.5173 5.4957 15.5431C5.4569 15.8018 5.52156 16.1768 5.54742 16.2802C5.58621 16.3319 5.59915 16.3966 5.61208 16.4483Z" fill="white"/>
<path d="M5.14658 14.1597C5.01727 14.3149 4.90089 14.483 4.79744 14.664C4.75865 14.7287 4.70693 14.8063 4.66813 14.8839C4.61641 14.8709 4.56468 14.8451 4.52589 14.8192C4.4871 14.7933 4.44831 14.7675 4.42244 14.7416C4.40951 14.7287 4.38365 14.7157 4.37072 14.7028C4.37072 14.7028 4.35779 14.7028 4.35779 14.6899C4.37072 14.6511 4.39658 14.6252 4.39658 14.5994C4.42244 14.5347 4.44831 14.483 4.4871 14.4313C4.55175 14.3278 4.61641 14.2244 4.69399 14.1209C4.71986 14.0821 4.74572 14.0433 4.79744 14.0304C4.83624 14.0175 4.88796 14.0304 4.92675 14.0304C5.00434 14.0433 5.08193 14.0951 5.14658 14.1597Z" fill="white"/>
<path d="M4.1509 14.8449C4.1509 14.832 4.16383 14.832 4.1509 14.8449C4.20263 14.8966 4.24142 14.9354 4.29314 14.9742C4.31901 14.9871 4.33194 15.013 4.3578 15.0259C4.3578 15.0259 4.3578 15.0259 4.3578 15.0389C4.30608 15.2587 4.26728 15.4915 4.26728 15.7242C4.26728 15.7371 4.25435 15.7371 4.25435 15.7242C4.1897 15.4527 4.11211 15.013 4.1509 14.8449Z" fill="white"/>
<path d="M4.78454 15.3234C4.75868 15.5174 4.74575 15.7114 4.75868 15.9053C4.75868 16.0088 4.77161 16.1122 4.78454 16.2286C4.75868 16.2286 4.73282 16.2286 4.70696 16.2286H4.69402H4.68109C4.65523 16.2157 4.65523 16.2157 4.62937 16.2027C4.60351 16.1898 4.57765 16.151 4.55178 16.1122C4.50006 16.0217 4.48713 15.9182 4.48713 15.8148C4.4742 15.6208 4.50006 15.4139 4.53885 15.22C4.56471 15.2329 4.60351 15.2458 4.6423 15.2588C4.69403 15.2846 4.73282 15.3105 4.78454 15.3234Z" fill="white"/>
<g opacity="0.8">
<path opacity="0.8" d="M9.87932 25.4096C9.00001 25.4096 8.17242 25.3578 7.47415 25.3061L7.28018 25.2932L7.08622 25.2673C6.9957 25.2544 6.89225 25.2415 6.77587 25.2285C6.10346 25.1509 4.84915 25.0216 3.46553 24.3751L3.2457 24.2716L3.05173 24.1553C0.387941 22.6553 -0.594817 20.4182 -1.13792 19.2156C-1.17671 19.138 -1.21551 19.0475 -1.2543 18.957C-1.52585 18.4009 -1.69396 17.9096 -1.8362 17.444L-1.86206 17.3406L-1.88792 17.2371C-2.27585 15.8665 -2.36637 14.6897 -2.19827 13.513C-2.01723 12.3363 -1.59051 11.2759 -0.827576 10.1509L-0.439645 9.51732C-0.362059 9.38801 -0.310334 9.24577 -0.271541 9.10353C0.0258724 7.62939 0.698286 6.58197 1.03449 6.07766C1.12501 5.4699 1.28018 4.87508 1.48708 4.29318L1.51294 4.20266L1.55173 4.11215C1.55173 4.09921 1.56467 4.07335 1.5776 4.03456C1.73277 3.58197 2.08191 2.53456 2.97415 1.42249L3.31036 1.03456L3.65949 0.724214C4.5388 -0.0775102 5.59915 -0.672338 6.73708 -1.00854C7.3707 -1.20251 8.03018 -1.31889 8.7026 -1.35768H8.76725H8.85777C8.97415 -1.35768 9.09053 -1.37061 9.19398 -1.37061C9.60777 -1.37061 10.0216 -1.33182 10.4354 -1.26717C10.694 -1.22837 10.9526 -1.25423 11.1983 -1.35768C11.9095 -1.6551 12.6466 -1.84906 13.4095 -1.95251C13.4741 -1.96544 13.5259 -1.96544 13.5776 -1.97837C13.694 -1.9913 13.8879 -2.01717 14.1207 -2.04303C14.5216 -2.08182 15.1423 -2.13354 15.8017 -2.13354C17.1078 -2.13354 18.2328 -1.96544 19.2414 -1.6163L19.3319 -1.59044L19.4095 -1.56458C21.6336 -0.724062 22.7586 0.452662 23.5733 1.47421L23.6121 1.52594L23.7285 1.62939C24.4655 2.19835 25.0862 2.90956 25.5776 3.69835L25.7328 3.94404L25.8621 4.20266C26.9483 6.41387 26.5991 8.4699 26.4698 9.23284L26.4569 9.27163C26.3664 9.84059 26.2112 10.3966 26.0173 10.9397C25.9397 11.457 25.8233 11.9742 25.6552 12.4656C25.3707 13.3449 24.944 14.1854 24.4009 14.9354C24.0905 15.3751 23.7285 15.8018 23.3405 16.1768C23.1983 16.3061 23.1078 16.4871 23.0819 16.6811C23.069 16.7975 23.0431 16.9139 23.0302 17.0302C22.7069 18.7371 21.9698 19.9268 21.6595 20.4053L20.7414 21.7242C19.6293 23.1078 18.3104 24.013 16.7198 24.5044L16.3319 24.6208L15.9181 24.6984C15.4397 24.7889 14.9612 24.8277 14.4698 24.8277C14.4052 24.8277 14.3405 24.8277 14.2629 24.8277H14.2371H14.1595H14.069C13.8879 24.8277 13.7069 24.8665 13.5259 24.9182C12.4655 25.2544 11.3017 25.4096 9.87932 25.4096Z" stroke="url(#paint1_linear_28_644)" stroke-width="1.0554" stroke-miterlimit="10"/>
<path opacity="0.8" d="M9.87932 24.4915C9.0388 24.4915 8.22415 24.4398 7.55173 24.3881L7.39656 24.3751L7.24139 24.3493C7.13794 24.3364 7.02156 24.3234 6.90518 24.3105C6.2457 24.2458 5.15949 24.1165 3.94397 23.5476L3.76294 23.457L3.59484 23.3665C1.22846 22.0605 0.362077 20.1079 -0.155165 18.9441C-0.193958 18.8665 -0.232751 18.7631 -0.284475 18.6726C-0.530164 18.1812 -0.685337 17.7157 -0.814647 17.3019L-0.840509 17.2114L-0.866371 17.1338C-1.20258 15.9053 -1.2931 14.8708 -1.13792 13.8493C-0.982751 12.8407 -0.59482 11.8967 0.0775941 10.9139L0.581905 10.0993C0.672422 9.95705 0.737077 9.78894 0.762939 9.62084C1.00863 8.22429 1.66811 7.24153 1.96553 6.78894L2.00432 6.73722L2.01725 6.71136C2.01725 6.69843 2.03018 6.6855 2.03018 6.67257C2.04311 6.60791 2.06897 6.55619 2.0819 6.50446C2.15949 5.9355 2.30173 5.36653 2.4957 4.82343L2.52156 4.74584L2.54742 4.66825C2.56035 4.64239 2.56035 4.61653 2.58621 4.53894C2.72846 4.11222 3.02587 3.21998 3.80173 2.26308L4.08621 1.92688L4.3707 1.66825C5.13363 0.969979 6.05173 0.452738 7.03449 0.168255C7.60346 0.000151482 8.17242 -0.103297 8.76725 -0.129159H8.81897H8.89656C9.00001 -0.129159 9.09053 -0.14209 9.18104 -0.14209C9.60777 -0.14209 10.0216 -0.258469 10.4354 -0.180883C10.7586 -0.116228 11.0819 -0.155021 11.3793 -0.284331C11.9354 -0.530021 12.6854 -0.620538 13.5388 -0.736917C13.6035 -0.749848 13.6552 -0.749848 13.694 -0.76278C13.8104 -0.775711 13.9914 -0.801573 14.1983 -0.814504C14.5733 -0.853297 15.1552 -0.89209 15.7888 -0.89209C16.9785 -0.89209 17.9871 -0.736917 18.8793 -0.439504L18.9569 -0.413642L19.0216 -0.38778C20.9871 0.36222 21.9569 1.34498 22.7198 2.31481C22.7586 2.36653 22.8104 2.41825 22.8233 2.44412L22.8362 2.45705L22.9785 2.58636L22.9914 2.61222C23.6509 3.11653 24.2069 3.73722 24.6336 4.4355L24.7629 4.64239L24.8664 4.86222C25.7974 6.76308 25.5129 8.50877 25.3836 9.24584L25.3707 9.28463C25.2802 9.82774 25.1379 10.345 24.944 10.8622C24.8793 11.3536 24.7629 11.845 24.6078 12.3105C24.3491 13.0864 23.9741 13.8234 23.4957 14.4958C23.1724 14.9614 22.7845 15.3881 22.3707 15.7631C22.1767 15.9441 22.0474 16.1769 22.0216 16.4484C21.9957 16.6424 21.9698 16.8234 21.944 17.0174C21.6595 18.5303 21.0129 19.5648 20.7026 20.0303L19.9526 21.1165C18.9569 22.3967 17.7802 23.2243 16.3578 23.6639L16.0345 23.7674L15.6854 23.832C15.2716 23.9096 14.8448 23.9484 14.431 23.9355C14.3664 23.9355 14.3017 23.9355 14.2371 23.9355H14.2241H14.1854C14.1854 23.9355 14.1724 23.9355 14.1466 23.9355H14.069H13.9914H13.8491C13.6552 23.9484 13.4612 23.9743 13.2672 24.0389C12.3233 24.3493 11.2241 24.4915 9.87932 24.4915Z" stroke="url(#paint2_linear_28_644)" stroke-width="1.0554" stroke-miterlimit="10"/>
<path opacity="0.8" d="M9.87931 23.4182C9.07759 23.4182 8.2888 23.3665 7.62931 23.3148L7.5 23.3018L7.37069 23.2889C7.25431 23.276 7.125 23.263 6.99569 23.2501C6.375 23.1855 5.43104 23.082 4.37069 22.5777L4.22845 22.513L4.09914 22.4355C2.06897 21.2975 1.31897 19.6165 0.827589 18.5044C0.788796 18.4139 0.737071 18.2975 0.698278 18.207C0.478451 17.7674 0.336209 17.3536 0.21983 16.9656L0.193968 16.901L0.181037 16.8363C-0.116377 15.776 -0.193963 14.8708 -0.0646527 14.0174C0.0646577 13.151 0.413796 12.3363 1.00862 11.4699L1.08621 11.3665L1.1638 11.263C1.21552 11.1984 1.25431 11.1337 1.30604 11.082L1.60345 10.526C1.7069 10.3449 1.77155 10.151 1.79742 9.94408C1.99138 8.7027 2.58621 7.81046 2.85776 7.39667C2.87069 7.37081 2.89655 7.34495 2.90949 7.33201L2.97414 7.2415C3 7.18977 3.02586 7.12512 3.05173 7.04753C3.07759 6.96994 3.11638 6.85357 3.14224 6.75012C3.2069 6.21995 3.33621 5.7027 3.51724 5.19839L3.54311 5.13374L3.56897 5.06908C3.5819 5.01736 3.60776 4.97857 3.63362 4.88805C3.76293 4.48719 4.00862 3.75012 4.66811 2.94839L4.88793 2.67684L5.12069 2.46995C5.76724 1.87512 6.54311 1.44839 7.38362 1.18977C7.875 1.04753 8.36638 0.957014 8.88362 0.931152H8.92242H8.98707C9.06466 0.931152 9.14224 0.931152 9.23276 0.931152C9.67242 0.931152 10.0991 0.982876 10.5259 1.09926C10.8879 1.18977 11.2759 1.15098 11.6121 0.982876C12.1552 0.724256 12.8793 0.439773 13.7198 0.336325C13.7716 0.323394 13.8233 0.323394 13.8621 0.310463C13.9655 0.297532 14.1336 0.27167 14.3405 0.258739C14.6897 0.219945 15.2457 0.181152 15.8276 0.181152C16.8879 0.181152 17.7802 0.310463 18.569 0.582014L18.6207 0.607876L18.6724 0.633739C20.4828 1.31908 21.2845 2.21132 21.9052 3.00012C22.0474 3.16822 22.0603 3.19408 22.1509 3.2846L22.2672 3.38805L22.306 3.43977C22.6035 3.67253 23.2112 4.15098 23.7414 5.01736L23.8448 5.18546L23.9353 5.35357C24.7241 6.94408 24.4784 8.39236 24.3621 9.09063L24.3491 9.12943C24.2716 9.63374 24.1293 10.138 23.9224 10.6165V10.6553C23.8707 11.1079 23.7672 11.5605 23.625 11.9872C23.4052 12.6725 23.0819 13.3062 22.6552 13.888C22.306 14.3924 21.8793 14.8449 21.4009 15.2329C21.2845 15.3234 21.194 15.4398 21.1293 15.5691C21.0647 15.6984 21.0259 15.8406 21.0129 15.9829C21 16.2674 20.9612 16.5518 20.9095 16.8363C20.6638 18.1424 20.0948 19.0475 19.8103 19.5001L19.2284 20.3536C18.3621 21.5174 17.3276 22.2674 16.0733 22.6553L15.8147 22.7329L15.5302 22.7846C15.181 22.8493 14.819 22.8751 14.4569 22.8751C14.4052 22.8751 14.3405 22.8751 14.2759 22.8751H14.2629H14.1983C14.1853 22.8751 14.1595 22.8751 14.0948 22.8751H14.0302H13.9785L13.681 22.888C13.4741 22.901 13.2672 22.9268 13.0733 23.0044C12.181 23.2889 11.1595 23.4182 9.87931 23.4182Z" stroke="url(#paint3_linear_28_644)" stroke-width="0.9894" stroke-miterlimit="10"/>
<path opacity="0.8" d="M9.87937 22.3449C9.11643 22.3449 8.3535 22.2932 7.71988 22.2415L7.62937 22.2286L7.53885 22.2156C7.40954 22.2027 7.2673 22.1768 7.13799 22.1639C6.55609 22.0992 5.75437 22.0087 4.84919 21.5949L4.74575 21.5432L4.6423 21.4915C2.92247 20.5217 2.28885 19.0992 1.82333 18.0648C1.77161 17.9613 1.71988 17.8449 1.68109 17.7415C1.48713 17.3406 1.35781 16.9656 1.25437 16.6423L1.24144 16.5906L1.20264 16.5518C0.698332 14.7674 0.892298 13.513 1.87506 12.0777L1.92678 12.0001L1.9785 11.9225C2.04316 11.8449 2.10781 11.7544 2.17247 11.6768C2.26299 11.5605 2.3535 11.4311 2.45695 11.3148C2.52161 11.2372 2.57333 11.1467 2.61213 11.0561L2.7285 10.7717C2.78023 10.6424 2.80609 10.513 2.81902 10.3837C2.92247 9.23287 3.4785 8.40528 3.75006 7.99149C3.77592 7.96563 3.80178 7.9139 3.81471 7.90097L3.87937 7.79752L3.90523 7.77166C3.94402 7.70701 4.00868 7.55183 4.0604 7.39666C4.08626 7.29321 4.13799 7.12511 4.18971 6.98287V6.96994C4.24144 6.49149 4.35781 6.01304 4.52592 5.56045L4.53885 5.52166L4.55178 5.48287C4.57764 5.40528 4.6035 5.34063 4.62937 5.25011C4.74575 4.90097 4.93971 4.30614 5.46988 3.64666L5.63799 3.43976L5.80609 3.28459C7.0604 2.14666 8.45695 2.05614 8.92247 2.01735H8.94833H9.00006C9.06471 2.01735 9.12937 2.01735 9.19402 2.01735C9.75006 2.01735 10.2932 2.13373 10.8104 2.35356C10.9009 2.39235 11.0044 2.40528 11.0949 2.40528C11.1983 2.40528 11.2888 2.37942 11.3794 2.3277C11.8578 2.05614 12.7242 1.55183 13.8363 1.42252C13.888 1.40959 13.9397 1.40959 13.9785 1.40959C14.082 1.39666 14.2371 1.38373 14.4182 1.35787C14.7544 1.33201 15.2587 1.29321 15.8018 1.29321C16.7457 1.29321 17.5216 1.40959 18.1811 1.62942L18.2199 1.64235L18.2587 1.65528C19.8104 2.23718 20.4699 2.97425 21.0259 3.67252C21.1682 3.86649 21.2457 3.94407 21.4009 4.09925L21.4914 4.17683L21.5561 4.25442L21.6078 4.29321C21.8664 4.50011 22.3578 4.87511 22.7975 5.58632L22.8751 5.71563L22.9397 5.84494C23.5733 7.13804 23.3664 8.30183 23.263 8.92252V8.96132C23.1854 9.4139 23.0561 9.86649 22.8751 10.2932L22.8621 10.332C22.8621 10.3449 22.8621 10.3449 22.8492 10.3708C22.8363 10.4096 22.8363 10.4484 22.8363 10.4872L22.8233 10.5389C22.7845 10.9268 22.694 11.3018 22.5647 11.6639C22.3707 12.2458 22.0992 12.7889 21.7371 13.2803C21.388 13.7846 20.9871 14.1984 20.5475 14.5217C20.3535 14.6639 20.1983 14.8449 20.082 15.0648C19.9656 15.2846 19.9138 15.5174 19.9138 15.763C19.9138 16.0605 19.8751 16.3708 19.8233 16.6682C19.6164 17.7803 19.1509 18.5303 18.8535 18.9829L18.4268 19.6165C17.6768 20.6639 16.7845 21.3363 15.7113 21.6725L15.6595 21.6855C15.569 21.7113 15.4785 21.7372 15.388 21.7501L15.3233 21.763C15.0259 21.8148 14.7285 21.8406 14.4311 21.8406C14.3794 21.8406 14.3276 21.8406 14.2759 21.8406H14.263C14.2371 21.8406 14.2113 21.8406 14.1854 21.8406C14.1595 21.8406 14.1078 21.8406 14.0044 21.8406H13.9656H13.9268C13.7845 21.8406 13.6035 21.8536 13.4483 21.8536C13.2285 21.8665 13.0216 21.9053 12.8147 21.9829C12.0388 22.2156 11.0949 22.3449 9.87937 22.3449Z" stroke="url(#paint4_linear_28_644)" stroke-width="0.9235" stroke-miterlimit="10"/>
<path opacity="0.8" d="M9.87936 21.2716C9.14229 21.2716 8.41815 21.2199 7.79746 21.1682H7.7328L7.66815 21.1552C7.52591 21.1294 7.37073 21.1164 7.22849 21.1035C6.68539 21.0389 6.01298 20.9742 5.28884 20.6251L5.21125 20.5863L5.1466 20.5475C3.73711 19.7587 3.20694 18.569 2.79315 17.6121C2.74142 17.4958 2.6897 17.3794 2.63798 17.2501C2.46987 16.9139 2.35349 16.5777 2.26298 16.2932L2.25005 16.2544L2.23711 16.2156C1.82332 14.7414 1.96556 13.8104 2.76729 12.6466L2.80608 12.5949L2.84487 12.5432C2.90953 12.4527 2.97418 12.3751 3.03884 12.2846C3.24574 12.013 3.45263 11.7414 3.75005 11.4182C3.8147 11.3535 3.85349 11.2501 3.86642 11.1596L3.87936 10.8621L3.86642 10.7458V10.6294C3.89229 9.67248 4.37073 8.96127 4.62936 8.57334C4.65522 8.53455 4.69401 8.48283 4.70694 8.45696L4.74574 8.39231L4.78453 8.34058C4.83625 8.263 4.95263 7.99145 5.05608 7.74576C5.09487 7.64231 5.1466 7.43541 5.21125 7.26731C5.22418 7.21558 5.22418 7.20265 5.23711 7.08627C5.27591 6.68541 5.37936 6.28455 5.50867 5.90955L5.5216 5.88369L5.53453 5.85783C5.57332 5.75438 5.59918 5.67679 5.63798 5.57334C5.74142 5.263 5.8966 4.81041 6.29746 4.3061L6.41384 4.16386L6.53022 4.06041C7.40953 3.27162 8.35349 3.11645 9.00004 3.07765H9.02591H9.05177C9.10349 3.07765 9.14229 3.07765 9.19401 3.07765C9.73711 3.07765 10.3966 3.33627 10.7457 3.50438C10.8233 3.54317 10.9138 3.56903 11.0044 3.56903C11.0949 3.56903 11.1854 3.5561 11.2759 3.53024C11.4957 3.45265 11.7026 3.36214 11.8966 3.25869C12.3363 3.00007 13.0604 2.58627 13.9656 2.48283C14.0173 2.46989 14.0561 2.46989 14.0949 2.46989C14.1854 2.45696 14.3276 2.44403 14.5087 2.41817C14.819 2.39231 15.2845 2.35352 15.7888 2.35352C16.6035 2.35352 17.2759 2.44403 17.819 2.638L17.8449 2.65093L17.8707 2.66386C19.1638 3.15524 19.6811 3.71127 20.1725 4.34489C20.3276 4.55179 20.444 4.69403 20.6768 4.90093L20.7285 4.95265L20.7802 5.00438C20.8319 5.0561 20.8837 5.09489 20.9354 5.13369C21.1552 5.30179 21.5302 5.59921 21.8535 6.14231L21.9052 6.21989L21.944 6.31041C22.4225 7.28024 22.2673 8.19834 22.1768 8.74145V8.78024C22.1121 9.15524 22.0087 9.51731 21.8535 9.86645C21.8147 9.95696 21.7888 10.0475 21.763 10.1509C21.75 10.2156 21.7371 10.2802 21.7371 10.332L21.7242 10.3837C21.6854 10.694 21.6207 11.0044 21.5173 11.3018C21.3621 11.7802 21.1294 12.2328 20.8449 12.6337C20.4052 13.2544 19.9009 13.694 19.2931 13.9785C19.1509 14.0432 19.0216 14.1466 18.9311 14.2889C18.8406 14.4182 18.7888 14.5863 18.7759 14.7414C18.7759 14.8061 18.7759 14.8578 18.7759 14.8966C18.8018 15.3621 18.8406 15.8923 18.7371 16.4483C18.569 17.3535 18.1811 17.9613 17.8966 18.4139C17.8966 18.4139 16.5776 20.2501 15.375 20.6251L15.2457 20.6639L15.1035 20.6897C14.8707 20.7285 14.638 20.7544 14.3923 20.7544C14.3535 20.7544 14.3018 20.7544 14.25 20.7544C14.2242 20.7544 14.1854 20.7544 14.1466 20.7544C14.0949 20.7544 14.0173 20.7544 13.9009 20.7673H13.875H13.8492C13.3837 20.7802 12.9569 20.7932 12.8276 20.819C12.763 20.832 12.6983 20.8449 12.6337 20.8708C12 21.1423 11.1078 21.2716 9.87936 21.2716Z" stroke="url(#paint5_linear_28_644)" stroke-width="0.8575" stroke-miterlimit="10"/>
<path opacity="0.8" d="M9.87927 20.2112C9.18099 20.2112 8.48272 20.1595 7.88789 20.1207H7.86203H7.83616C7.66806 20.0949 7.51289 20.0819 7.37065 20.069C6.86634 20.0173 6.33616 19.9526 5.7672 19.694L5.72841 19.6811L5.68961 19.6681C4.59048 19.0475 4.17668 18.1294 3.78875 17.2371C3.73703 17.1078 3.67237 16.9785 3.60772 16.8492C3.47841 16.5906 3.37496 16.3061 3.29737 16.0345V16.0216V16.0087C2.96116 14.8319 3.05168 14.2371 3.67237 13.3319L3.6853 13.3061L3.69823 13.2802C3.77582 13.1897 3.84048 13.0992 3.90513 13.0216C4.20254 12.6337 4.46116 12.2975 5.04306 11.7544C5.08185 11.7156 5.12065 11.6638 5.13358 11.5992C5.14651 11.5475 5.14651 11.4828 5.12065 11.4311L5.0172 11.1337C4.99134 11.0431 4.97841 10.9397 4.97841 10.8492V10.7716V10.7069C5.00427 10.0604 5.34048 9.55608 5.5603 9.21987C5.5991 9.16815 5.62496 9.11642 5.65082 9.07763L5.67668 9.03884L5.70254 9.00004C5.81892 8.84487 6.01289 8.39228 6.11634 8.12073C6.1422 8.03021 6.20685 7.81039 6.27151 7.64228C6.3103 7.51297 6.33616 7.38366 6.3491 7.25435C6.38789 6.93108 6.45254 6.6078 6.56892 6.31039V6.29746V6.28452C6.62065 6.15521 6.65944 6.05177 6.6853 5.94832C6.77582 5.67677 6.87927 5.36642 7.16375 5.01728L7.21547 4.95263L7.2672 4.9009C7.88789 4.33194 8.57323 4.22849 9.09048 4.1897H9.10341H9.11634C9.1422 4.1897 9.18099 4.1897 9.20685 4.1897C9.7241 4.1897 10.112 4.39659 10.3706 4.53883L10.4353 4.5647H10.4482C10.5258 4.60349 10.5775 4.64228 10.6422 4.66815C10.7974 4.74573 10.9913 4.77159 11.1594 4.71987C11.5215 4.62935 12.0775 4.40952 12.4396 4.20263H12.4525C12.8405 3.96987 13.4353 3.63366 14.1336 3.55608C14.1724 3.54315 14.2241 3.54315 14.2629 3.54315C14.3405 3.53021 14.4827 3.51728 14.6379 3.50435C14.9224 3.47849 15.362 3.4397 15.8146 3.4397C16.5129 3.4397 17.0689 3.51728 17.4956 3.65952H17.5086H17.5215C18.556 4.04746 18.9439 4.46125 19.3577 5.00435C19.5258 5.22418 19.6939 5.43108 20.0043 5.70263L20.0301 5.72849L20.056 5.75435C20.1336 5.83194 20.2241 5.90952 20.3275 5.98711C20.5086 6.12935 20.7672 6.32332 20.987 6.69832L21.0129 6.73711L21.0388 6.7759C21.362 7.44832 21.2586 8.08194 21.181 8.56039V8.59918C21.1293 8.89659 21.0517 9.18108 20.9224 9.46556C20.8577 9.62073 20.806 9.78884 20.7801 9.95694C20.7672 10.0604 20.7543 10.138 20.7413 10.2026L20.7284 10.2544C20.7025 10.5 20.6508 10.7328 20.5732 10.9656C20.4569 11.3406 20.2758 11.6897 20.0431 12.013C19.6551 12.5819 19.2155 12.9311 18.6336 13.1121C18.3491 13.2026 18.1163 13.3837 17.9612 13.6294L17.9094 13.694L17.8577 13.7587C17.7155 13.9268 17.7543 14.5733 17.7801 14.9612C17.806 15.388 17.8319 15.8276 17.7543 16.2414C17.625 16.9526 17.3146 17.4311 17.0431 17.8449C17.0431 17.8449 16.0344 19.3061 15.1163 19.5776L15.0517 19.6035L14.987 19.6164C14.8189 19.6423 14.6379 19.6681 14.4569 19.6681C14.4181 19.6681 14.3793 19.6681 14.3275 19.6681C14.2888 19.6681 14.25 19.6681 14.1982 19.6681C14.1336 19.6681 14.0431 19.6681 13.8879 19.6811H13.875H13.862C13.2543 19.7069 12.8793 19.7199 12.6724 19.7587C12.5301 19.7845 12.4008 19.8233 12.2715 19.875C11.7155 20.0949 10.9655 20.2112 9.87927 20.2112Z" stroke="url(#paint6_linear_28_644)" stroke-width="0.8575" stroke-miterlimit="10"/>
</g>
</g>
<defs>
<radialGradient id="paint0_radial_28_644" cx="0" cy="0" r="1" gradientUnits="userSpaceOnUse" gradientTransform="translate(12.0005 13.2537) rotate(90) scale(13.48)">
<stop offset="0.1667" stop-color="#073183"/>
<stop offset="1" stop-color="#0054F9"/>
</radialGradient>
<linearGradient id="paint1_linear_28_644" x1="-1.68053" y1="-2.69797" x2="25.8144" y2="26.1596" gradientUnits="userSpaceOnUse">
<stop offset="0.2057" stop-color="#89D0FF"/>
<stop offset="0.3984" stop-color="#EBBF9A"/>
<stop offset="0.6015" stop-color="#EB8280"/>
<stop offset="0.8411" stop-color="#A281FF"/>
</linearGradient>
<linearGradient id="paint2_linear_28_644" x1="-0.614346" y1="-1.45623" x2="24.733" y2="25.2561" gradientUnits="userSpaceOnUse">
<stop offset="0.2057" stop-color="#89D0FF"/>
<stop offset="0.3984" stop-color="#EBBF9A"/>
<stop offset="0.6015" stop-color="#EB80DA"/>
<stop offset="0.8411" stop-color="#A281FF"/>
</linearGradient>
<linearGradient id="paint3_linear_28_644" x1="0.462481" y1="-0.382693" x2="23.6617" y2="24.1839" gradientUnits="userSpaceOnUse">
<stop offset="0.2057" stop-color="#89D0FF"/>
<stop offset="0.3984" stop-color="#EBBF9A"/>
<stop offset="0.6015" stop-color="#EB8280"/>
<stop offset="0.8411" stop-color="#A281FF"/>
</linearGradient>
<linearGradient id="paint4_linear_28_644" x1="1.53789" y1="0.694597" x2="22.5843" y2="23.1088" gradientUnits="userSpaceOnUse">
<stop offset="0.2057" stop-color="#89D0FF"/>
<stop offset="0.3984" stop-color="#EBBF9A"/>
<stop offset="0.6015" stop-color="#EB80E7"/>
<stop offset="0.8411" stop-color="#A281FF"/>
</linearGradient>
<linearGradient id="paint5_linear_28_644" x1="2.60697" y1="1.77392" x2="21.5046" y2="22.034" gradientUnits="userSpaceOnUse">
<stop offset="0.2057" stop-color="#89D0FF"/>
<stop offset="0.3984" stop-color="#EBBF9A"/>
<stop offset="0.6015" stop-color="#EB80D3"/>
<stop offset="0.8411" stop-color="#A281FF"/>
</linearGradient>
<linearGradient id="paint6_linear_28_644" x1="3.68985" y1="2.84028" x2="20.4368" y2="20.9545" gradientUnits="userSpaceOnUse">
<stop offset="0.2057" stop-color="#89D0FF"/>
<stop offset="0.3984" stop-color="#EBBF9A"/>
<stop offset="0.6015" stop-color="#A280EB"/>
<stop offset="0.8411" stop-color="#A281FF"/>
</linearGradient>
<clipPath id="clip0_28_644">
<rect width="24" height="24" rx="12" fill="white"/>
</clipPath>
</defs>
</svg>
