<svg width="24" height="24" viewBox="0 0 24 24" fill="none" xmlns="http://www.w3.org/2000/svg">
<g clip-path="url(#clip0_28_640)">
<path d="M13.685 15.4116C13.4412 15.8324 13.3194 16.0427 13.3282 16.2153C13.34 16.404 13.4373 16.5778 13.5965 16.6811C13.7409 16.7753 13.9886 16.7753 14.4809 16.7753H17.8179C18.3102 16.7753 18.5579 16.7753 18.7054 16.6782C18.8645 16.575 18.9647 16.401 18.9736 16.2124C18.9821 16.0442 18.8639 15.8401 18.6322 15.4403C18.6242 15.4267 18.6162 15.4128 18.608 15.3988L16.9365 12.5392L16.9175 12.507C16.6826 12.1097 16.564 11.9092 16.4118 11.8317C16.2438 11.7462 16.0462 11.7462 15.8782 11.8317C15.725 11.9113 15.6012 12.1206 15.3565 12.5421L13.6909 15.4017L13.6852 15.4116H13.685Z" fill="white"/>
<path d="M5.39214 16.6812C5.53947 16.7754 5.78122 16.7754 6.27065 16.7754H8.59955C9.14793 16.7754 9.42197 16.7754 9.66676 16.7077C9.93505 16.628 10.1797 16.4865 10.3831 16.2919C10.5699 16.1139 10.7047 15.8779 10.9708 15.4125L10.9786 15.3987L13.9991 10.0594C14.2673 9.59078 14.4 9.35493 14.4589 9.10726C14.5238 8.83898 14.5238 8.55599 14.4589 8.28771C14.4005 8.04196 14.2664 7.80787 14.0021 7.34609L13.996 7.33554L12.8139 5.27205C12.5693 4.84159 12.4455 4.62651 12.2892 4.54678C12.1211 4.46129 11.9207 4.46129 11.7526 4.54678C11.5964 4.62635 11.4725 4.84159 11.2279 5.27205L5.47763 15.4077C5.23587 15.8322 5.11507 16.0444 5.12386 16.2183C5.13568 16.407 5.23299 16.5779 5.39214 16.6812Z" fill="white"/>
<path d="M12 0C5.37252 0 0 5.37252 0 12C0 18.6275 5.37252 24 12 24C18.6275 24 24 18.6275 24 12C24 5.37252 18.6275 0 12 0ZM5.47766 15.4076L11.2279 5.27201C11.4725 4.84154 11.5964 4.62647 11.7527 4.54674C11.9207 4.46125 12.1211 4.46125 12.2892 4.54674C12.4455 4.62631 12.5693 4.84154 12.814 5.27201L13.9961 7.3355L14.0021 7.34605C14.2664 7.80783 14.4005 8.04192 14.459 8.28767C14.5238 8.55595 14.5238 8.83894 14.459 9.10722C14.4 9.35489 14.2674 9.59073 13.9991 10.0594L10.9786 15.3987L10.9708 15.4124C10.7048 15.878 10.5701 16.1139 10.3831 16.2919C10.1797 16.4865 9.93507 16.6279 9.66679 16.7076C9.42216 16.7754 9.14796 16.7754 8.59957 16.7754H6.27068C5.78125 16.7754 5.53965 16.7754 5.39217 16.6811C5.23302 16.5779 5.13571 16.4069 5.12389 16.2182C5.1151 16.0444 5.2359 15.832 5.47766 15.4076ZM18.9734 16.2126C18.9645 16.4012 18.8643 16.5752 18.7051 16.6784C18.5577 16.7756 18.31 16.7756 17.8177 16.7756H14.4807C13.9884 16.7756 13.7407 16.7756 13.5963 16.6813C13.4371 16.5781 13.3398 16.4042 13.328 16.2155C13.3192 16.0429 13.4411 15.8327 13.6848 15.4118L13.6905 15.4019L15.3562 12.5423C15.6008 12.1208 15.7246 11.9115 15.8779 11.8319C16.0458 11.7464 16.2435 11.7464 16.4114 11.8319C16.5637 11.9094 16.6822 12.1101 16.9171 12.5072L16.9361 12.5394L18.6077 15.399C18.6158 15.413 18.6238 15.427 18.6318 15.4405C18.8635 15.8403 18.9817 16.0444 18.9733 16.2126H18.9734Z" fill="#E84142"/>
</g>
<defs>
<clipPath id="clip0_28_640">
<rect width="24" height="24" fill="white"/>
</clipPath>
</defs>
</svg>
