<svg width="24" height="24" viewBox="0 0 24 24" fill="none" xmlns="http://www.w3.org/2000/svg">
<g clip-path="url(#clip0_5357_40552)">
<circle cx="12" cy="12" r="12" fill="white"/>
<path d="M17.0005 11.6527C17.1394 11.5832 17.3477 11.7221 17.3477 11.861L17.6255 12.9027C17.6949 13.0415 17.556 13.2499 17.4171 13.2499C17.2783 13.3193 17.0699 13.1804 17.0699 13.0415L16.7921 11.9999C16.7227 11.861 16.7921 11.6527 17.0005 11.6527ZM9.01437 3.87488C8.94492 3.73599 8.94492 3.52766 9.08381 3.45821L9.98659 2.83321C10.1255 2.76377 10.3338 2.76377 10.4033 2.90266C10.4727 3.11099 10.4727 3.24988 10.3338 3.38877L9.43103 4.01377C9.29214 4.01377 9.08381 4.01377 9.01437 3.87488Z" fill="white"/>
<path fill-rule="evenodd" clip-rule="evenodd" d="M13.667 7.55563C12.6253 7.3473 11.5142 7.48619 10.542 8.11119C11.9309 7.62508 13.5281 7.9723 14.6392 9.08341C16.167 10.6806 16.167 13.2501 14.6392 14.7779C14.4309 14.9862 14.2225 15.1251 14.0142 15.264C14.5698 15.0556 15.1253 14.7779 15.542 14.2917C16.6531 13.1806 16.9309 11.5834 16.5142 10.1945C15.3337 9.77786 14.292 8.80563 13.667 7.55563Z" fill="#FFAE54"/>
<path d="M20.2644 16.5833C17.7644 21.2361 11.931 22.9722 7.34768 20.4027C2.69491 17.9027 1.02824 11.9999 3.52824 7.34717C5.19491 4.29161 8.25046 2.48606 11.5144 2.34717C11.931 2.34717 12.2782 2.5555 12.4866 2.97217C12.6949 3.38883 12.8338 3.94439 12.7644 4.49995C12.7644 4.70828 12.7644 4.91661 12.7644 5.12495C12.7644 6.09717 13.0421 7.06939 13.4588 7.90272C11.4449 7.13883 9.15324 7.97217 8.11157 9.91661C6.93102 12.0694 7.76435 14.7083 9.84769 15.8888C11.931 17.0694 14.6394 16.2361 15.7505 14.1527C16.3755 12.9722 16.4449 11.5833 15.9588 10.4027C16.7921 10.8194 17.6949 11.0277 18.6671 11.0277C19.2227 11.0277 19.7088 10.9583 20.2644 10.8194C20.5421 10.7499 20.8894 10.7499 21.0977 10.8888C21.306 11.0277 21.4449 11.1666 21.4449 11.3749C21.5144 13.1111 21.0977 14.9166 20.2644 16.5833Z" fill="url(#paint0_radial_5357_40552)" stroke="#AC562A" stroke-width="1.0716"/>
<path d="M17.7635 14.7083L18.1107 14.5694C18.3885 15.2638 18.0412 15.8888 17.8329 16.3749C17.8329 16.3749 17.8329 16.3749 17.8329 16.4444C17.694 16.7222 17.5551 16.9305 17.5551 17.1388C17.4857 17.4861 17.4857 17.8333 17.5551 18.0416C17.6246 18.2499 17.8329 18.4583 18.1107 18.5277C18.319 18.5972 18.6662 18.5277 19.0829 18.2499C20.7496 16.3055 21.5135 13.8055 21.3746 11.4444C21.3746 11.2361 21.2357 11.0277 21.0273 10.8888C20.819 10.7499 20.4718 10.7499 20.194 10.8194C19.7079 10.9583 19.1523 11.0277 18.6662 11.0277C17.694 11.0277 16.7912 10.8194 15.9579 10.3333C16.444 11.5138 16.3746 12.8333 15.819 14.0138C15.7496 14.2222 15.6107 14.3611 15.4718 14.5694C15.7496 14.4999 16.0273 14.3611 16.444 14.0833C16.9301 13.7361 17.5551 14.0833 17.7635 14.7083ZM17.7635 14.7083C17.9718 15.2638 17.694 15.7499 17.4857 16.2361C17.3468 16.5138 17.2079 16.7916 17.1385 17.0694L17.7635 14.7083ZM11.0968 7.62495C10.1246 7.90272 9.36068 7.76383 8.80512 7.48606C8.24957 7.13883 7.76346 6.65272 7.55512 6.09717C7.27734 5.47217 7.2079 4.84717 7.34679 4.29161C7.48568 3.73606 7.76345 3.31939 8.18012 3.11106C9.36068 2.62495 10.6107 2.34717 11.7912 2.34717C12.1385 2.34717 12.4162 2.5555 12.6246 2.90272C12.8329 3.24995 12.9023 3.73606 12.8329 4.15272C12.7635 4.4305 12.7635 4.77772 12.7635 5.12495C12.7635 6.09717 13.0412 7.06939 13.4579 7.90272C12.694 7.5555 11.8607 7.48606 11.0968 7.62495Z" fill="#AC562A"/>
<path d="M17.7635 14.7083L18.1107 14.5694C18.3885 15.2638 18.0412 15.8888 17.8329 16.3749C17.8329 16.3749 17.8329 16.3749 17.8329 16.4444C17.694 16.7222 17.5551 16.9305 17.5551 17.1388C17.4857 17.4861 17.4857 17.8333 17.5551 18.0416C17.6246 18.2499 17.8329 18.4583 18.1107 18.5277C18.319 18.5972 18.6662 18.5277 19.0829 18.2499C20.7496 16.3055 21.5135 13.8055 21.3746 11.4444C21.3746 11.2361 21.2357 11.0277 21.0273 10.8888C20.819 10.7499 20.4718 10.7499 20.194 10.8194C19.7079 10.9583 19.1523 11.0277 18.6662 11.0277C17.694 11.0277 16.7912 10.8194 15.9579 10.3333C16.444 11.5138 16.3746 12.8333 15.819 14.0138C15.7496 14.2222 15.6107 14.3611 15.4718 14.5694C15.7496 14.4999 16.0273 14.3611 16.444 14.0833C16.9301 13.7361 17.5551 14.0833 17.7635 14.7083ZM17.7635 14.7083C17.9718 15.2638 17.694 15.7499 17.4857 16.2361C17.3468 16.5138 17.2079 16.7916 17.1385 17.0694L17.7635 14.7083ZM11.0968 7.62495C10.1246 7.90272 9.36068 7.76383 8.80512 7.48606C8.24957 7.13883 7.76346 6.65272 7.55512 6.09717C7.27734 5.47217 7.2079 4.84717 7.34679 4.29161C7.48568 3.73606 7.76345 3.31939 8.18012 3.11106C9.36068 2.62495 10.6107 2.34717 11.7912 2.34717C12.1385 2.34717 12.4162 2.5555 12.6246 2.90272C12.8329 3.24995 12.9023 3.73606 12.8329 4.15272C12.7635 4.4305 12.7635 4.77772 12.7635 5.12495C12.7635 6.09717 13.0412 7.06939 13.4579 7.90272C12.694 7.5555 11.8607 7.48606 11.0968 7.62495Z" stroke="#AC562A" stroke-width="1.0716"/>
<path d="M4.63845 10.2637C4.90693 10.2637 5.12457 10.0461 5.12457 9.77761C5.12457 9.50914 4.90693 9.2915 4.63845 9.2915C4.36998 9.2915 4.15234 9.50914 4.15234 9.77761C4.15234 10.0461 4.36998 10.2637 4.63845 10.2637Z" fill="#AC562A"/>
<path d="M11.8611 18.9444C12.1296 18.9444 12.3472 18.7268 12.3472 18.4583C12.3472 18.1898 12.1296 17.9722 11.8611 17.9722C11.5926 17.9722 11.375 18.1898 11.375 18.4583C11.375 18.7268 11.5926 18.9444 11.8611 18.9444Z" fill="#AC562A"/>
<path d="M8.80599 19.7082C9.26623 19.7082 9.63932 19.3351 9.63932 18.8748C9.63932 18.4146 9.26623 18.0415 8.80599 18.0415C8.34575 18.0415 7.97266 18.4146 7.97266 18.8748C7.97266 19.3351 8.34575 19.7082 8.80599 19.7082Z" fill="#AC562A"/>
</g>
<defs>
<radialGradient id="paint0_radial_5357_40552" cx="0" cy="0" r="1" gradientUnits="userSpaceOnUse" gradientTransform="translate(11.8867 11.9859) rotate(90) scale(9.98467 9.88406)">
<stop offset="0.3335" stop-color="#F7B450"/>
<stop offset="0.6477" stop-color="#FFC977"/>
<stop offset="1" stop-color="#FF9900"/>
</radialGradient>
<clipPath id="clip0_5357_40552">
<rect width="24" height="24" fill="white"/>
</clipPath>
</defs>
</svg>
