<svg width="24" height="24" viewBox="0 0 24 24" fill="none" xmlns="http://www.w3.org/2000/svg">
<g clip-path="url(#clip0_5357_48229)">
<circle cx="12" cy="12" r="12" fill="#4520E6"/>
<path d="M17.9142 9.0783C17.9142 7.94023 17.3645 6.93286 16.5196 6.31441L18.8 4L17.4368 4.00638L15.6243 5.84579C15.2882 5.73102 14.9302 5.67045 14.5564 5.67045H8.31813V14.638L15.8285 7.01574C16.5039 7.4461 16.9562 8.2112 16.9562 9.08149C16.9562 10.4236 15.8788 11.517 14.5564 11.517H14.3585L6 20H7.35696L8.99661 18.3359H14.5564C16.4096 18.3359 17.9142 16.8057 17.9142 14.9281C17.9142 13.688 17.2577 12.6041 16.2808 12.008C17.2577 11.4055 17.9142 10.3184 17.9142 9.0783ZM9.27617 12.2853V6.64276H14.5564C14.6475 6.64276 14.7354 6.64913 14.8234 6.6587L9.27617 12.2853ZM16.9562 14.9217C16.9562 16.2638 15.8788 17.3572 14.5564 17.3572H9.95465L14.7354 12.5053C15.973 12.6009 16.9562 13.6434 16.9562 14.9217Z" fill="white"/>
</g>
<defs>
<clipPath id="clip0_5357_48229">
<rect width="24" height="24" fill="white"/>
</clipPath>
</defs>
</svg>
