<svg width="24" height="24" viewBox="0 0 24 24" fill="none" xmlns="http://www.w3.org/2000/svg">
<path d="M12 24C18.6274 24 24 18.6274 24 12C24 5.37258 18.6274 0 12 0C5.37258 0 0 5.37258 0 12C0 18.6274 5.37258 24 12 24Z" fill="white"/>
<path d="M12.0182 16.5712C12.0129 16.5712 12.0079 16.5712 12.0026 16.5712C11.3586 16.571 10.722 16.435 10.1342 16.1721C9.54634 15.9092 9.02056 15.5253 8.59114 15.0455C6.91114 13.1656 7.07485 10.27 8.95457 8.59065C9.79136 7.84189 10.8749 7.428 11.9978 7.4282C12.6417 7.42835 13.2784 7.56431 13.8662 7.82721C14.454 8.09011 14.9798 8.47403 15.4092 8.95391C16.5387 10.2182 16.8334 11.9419 16.3349 13.4462L18.3893 16.2062C20.2536 13.3793 20.0666 9.54774 17.7036 6.90345C16.1928 5.21231 14.0998 4.35054 11.9976 4.35071C10.118 4.34898 8.30407 5.04201 6.90445 6.2966C3.75463 9.11077 3.48291 13.9456 6.29657 17.0956C7.80737 18.7867 9.90034 19.6488 12.0029 19.6488C12.7181 19.6485 13.4297 19.548 14.117 19.3502C14.0378 19.2662 12.0182 16.5712 12.0182 16.5712Z" fill="black"/>
<path d="M19.5457 19.6329L16.9169 16.1003L15.5002 14.1974L15.4066 14.0714C15.3829 14.0423 15.3533 14.0078 15.3209 13.9715C15.2474 13.8892 15.1696 13.811 15.0877 13.7371C15.0514 13.7042 15.0125 13.6707 14.9712 13.6367C14.9502 13.6195 14.9286 13.6024 14.9064 13.5852C14.8841 13.5681 14.8618 13.551 14.8395 13.5338C14.7932 13.4995 14.7443 13.4652 14.6928 13.431C14.229 13.1224 13.5565 12.8402 12.6528 12.8402H10.6553L10.6625 12.85L10.6553 12.8555L13.2843 16.3884L14.7008 18.2923L14.7944 18.4182C14.8179 18.4473 14.8477 18.4818 14.8801 18.5183C14.9536 18.6005 15.0314 18.6787 15.1133 18.7526C15.1496 18.7854 15.1885 18.819 15.2298 18.8529C15.2508 18.87 15.2724 18.8872 15.2946 18.9043C15.3169 18.9215 15.3392 18.9386 15.3613 18.9558C15.4078 18.99 15.4568 19.0243 15.5082 19.0586C15.9711 19.3662 16.6443 19.6492 17.5482 19.6492H19.5457L19.5385 19.6394L19.5457 19.6329Z" fill="#00B2EC"/>
</svg>
