<svg width="24" height="24" viewBox="0 0 24 24" fill="none" xmlns="http://www.w3.org/2000/svg">
<g clip-path="url(#clip0_5357_40157)">
<path d="M12 24C18.6274 24 24 18.6274 24 12C24 5.37258 18.6274 0 12 0C5.37258 0 0 5.37258 0 12C0 18.6274 5.37258 24 12 24Z" fill="#E51B44"/>
<path d="M10.2512 7.08987C9.7908 7.08987 9.4159 6.72313 9.41235 6.26749L9.40041 4.67434C9.39719 4.21678 9.76983 3.84335 10.2331 3.83984C10.2354 3.83984 10.2373 3.83984 10.2396 3.83984C10.7 3.83984 11.0749 4.20659 11.0784 4.66223L11.0904 6.25538C11.0939 6.71293 10.7209 7.08668 10.2576 7.08987C10.2554 7.08987 10.2535 7.08987 10.2512 7.08987Z" fill="url(#paint0_linear_5357_40157)"/>
<path d="M14.1506 7.08987C13.6902 7.08987 13.3153 6.72313 13.3118 6.26749L13.2998 4.67434C13.2966 4.21678 13.6692 3.84335 14.1325 3.83984C14.1348 3.83984 14.1367 3.83984 14.139 3.83984C14.5994 3.83984 14.9743 4.20659 14.9778 4.66223L14.9898 6.25538C14.9933 6.71293 14.6204 7.08668 14.1571 7.08987C14.1548 7.08987 14.1529 7.08987 14.1506 7.08987Z" fill="url(#paint1_linear_5357_40157)"/>
<path d="M10.2514 19.96C9.79088 19.96 9.41591 19.5932 9.41236 19.1376L9.40042 17.5445C9.39687 17.0869 9.7699 16.7132 10.2333 16.71C10.698 16.7062 11.0752 17.0748 11.0784 17.5324L11.0904 19.1255C11.0939 19.5831 10.7209 19.9568 10.2575 19.96C10.2552 19.96 10.2533 19.96 10.251 19.96H10.2514Z" fill="url(#paint2_linear_5357_40157)"/>
<path d="M14.1508 19.96C13.6903 19.96 13.3153 19.5932 13.3118 19.1376L13.2998 17.5445C13.2963 17.0869 13.6693 16.7132 14.1327 16.71C14.5977 16.7062 14.9746 17.0748 14.9778 17.5324L14.9898 19.1255C14.9933 19.5831 14.6203 19.9568 14.1569 19.96C14.1546 19.96 14.1527 19.96 14.1505 19.96H14.1508Z" fill="url(#paint3_linear_5357_40157)"/>
<path d="M16.6659 11.6039C16.7412 11.519 16.8134 11.4309 16.8811 11.3388C17.3412 10.7142 17.5843 9.9779 17.5843 9.20961C17.5843 7.18055 15.8722 5.52979 13.7676 5.52979H6.44986C5.94419 5.52979 5.53454 5.93766 5.53454 6.44114C5.53454 6.94463 5.94419 7.3525 6.44986 7.3525H8.27775L8.28224 11.888C8.27809 11.9244 8.27567 11.9616 8.27602 11.9991C8.27602 12.0348 8.27844 12.0702 8.28258 12.1053L8.28707 16.6384H6.44986C5.92519 16.6384 5.5 17.0617 5.5 17.5841C5.5 18.1065 5.92519 18.5299 6.44986 18.5299H14.5969C16.7491 18.5299 18.5 16.8482 18.5 14.7813C18.5 13.4438 17.7667 12.2676 16.6659 11.6042V11.6039ZM13.768 7.3525C14.8632 7.3525 15.754 8.18545 15.754 9.20961C15.754 10.9807 14.1479 11.1145 14.1479 11.1145H10.1813L10.1775 7.3525H13.768ZM14.5969 16.638H10.1868L10.183 12.9376L13.7693 12.9238H14.5966C15.7012 12.9238 16.5999 13.7568 16.5999 14.7809C16.5999 15.8051 15.7012 16.638 14.5966 16.638H14.5969Z" fill="white"/>
</g>
<defs>
<linearGradient id="paint0_linear_5357_40157" x1="10.2454" y1="7.08987" x2="10.2454" y2="3.83984" gradientUnits="userSpaceOnUse">
<stop stop-color="white" stop-opacity="0"/>
<stop offset="0.91" stop-color="white"/>
</linearGradient>
<linearGradient id="paint1_linear_5357_40157" x1="14.1448" y1="7.08987" x2="14.1448" y2="3.83984" gradientUnits="userSpaceOnUse">
<stop stop-color="white" stop-opacity="0"/>
<stop offset="0.91" stop-color="white"/>
</linearGradient>
<linearGradient id="paint2_linear_5357_40157" x1="10.2454" y1="19.96" x2="10.2454" y2="16.71" gradientUnits="userSpaceOnUse">
<stop stop-color="white"/>
<stop offset="1" stop-color="white" stop-opacity="0"/>
</linearGradient>
<linearGradient id="paint3_linear_5357_40157" x1="14.1448" y1="19.96" x2="14.1448" y2="16.71" gradientUnits="userSpaceOnUse">
<stop stop-color="white"/>
<stop offset="1" stop-color="white" stop-opacity="0"/>
</linearGradient>
<clipPath id="clip0_5357_40157">
<rect width="24" height="24" fill="white"/>
</clipPath>
</defs>
</svg>
