<svg width="24" height="24" viewBox="0 0 24 24" fill="none" xmlns="http://www.w3.org/2000/svg">
<path d="M23.641 14.9029C22.0381 21.3315 15.5262 25.2438 9.09606 23.6407C2.66863 22.0381 -1.24415 15.5265 0.359423 9.09837C1.96159 2.66903 8.47349 -1.24361 14.9016 0.359081C21.3313 1.96177 25.2438 8.47405 23.6408 14.903L23.6409 14.9029H23.641Z" fill="#F7931A"/>
<path d="M17.292 10.2903C17.5308 8.6934 16.3149 7.83498 14.6522 7.26233L15.1916 5.09914L13.8746 4.77103L13.3496 6.87726C13.0033 6.79092 12.6478 6.70957 12.2944 6.62892L12.8233 4.50878L11.5072 4.18066L10.9675 6.34315C10.681 6.27793 10.3996 6.21347 10.1266 6.14554L10.1281 6.13874L8.312 5.68528L7.96168 7.09171C7.96168 7.09171 8.93874 7.31565 8.91815 7.32944C9.45144 7.46252 9.54788 7.81551 9.53187 8.09529L8.91745 10.5597C8.95417 10.569 9.0018 10.5825 9.05436 10.6036C9.01043 10.5927 8.96367 10.5808 8.91516 10.5692L8.05395 14.0214C7.98878 14.1834 7.82335 14.4266 7.4505 14.3342C7.4637 14.3534 6.49332 14.0954 6.49332 14.0954L5.83948 15.6027L7.55327 16.0299C7.8721 16.1098 8.18453 16.1935 8.49221 16.2721L7.94725 18.4601L9.26267 18.7883L9.80236 16.6235C10.1617 16.721 10.5105 16.811 10.8519 16.8958L10.314 19.0504L11.631 19.3785L12.1759 17.1946C14.4216 17.6196 16.1102 17.4482 16.8209 15.4172C17.3936 13.7821 16.7924 12.8389 15.611 12.2238C16.4715 12.0254 17.1196 11.4595 17.2924 10.2905L17.292 10.2902L17.292 10.2903ZM14.283 14.5091C13.876 16.1443 11.1226 15.2604 10.2299 15.0387L10.9531 12.14C11.8457 12.3628 14.7084 12.8038 14.2831 14.5091H14.283ZM14.6903 10.2666C14.3191 11.754 12.0273 10.9984 11.2839 10.8131L11.9396 8.1841C12.683 8.36939 15.0771 8.71522 14.6904 10.2666H14.6903Z" fill="white"/>
</svg>
