<?xml version="1.0" encoding="UTF-8"?>
<!DOCTYPE svg PUBLIC "-//W3C//DTD SVG 1.1//EN" "http://www.w3.org/Graphics/SVG/1.1/DTD/svg11.dtd">
<svg xmlns="http://www.w3.org/2000/svg" version="1.1" width="960px" height="960px" style="shape-rendering:geometricPrecision; text-rendering:geometricPrecision; image-rendering:optimizeQuality; fill-rule:evenodd; clip-rule:evenodd" xmlns:xlink="http://www.w3.org/1999/xlink">
<g><path style="opacity:0.997" fill="#23c9fe" d="M 448.5,-0.5 C 469.167,-0.5 489.833,-0.5 510.5,-0.5C 671.617,14.2721 796.783,88.6055 886,222.5C 928.85,291.882 953.35,367.215 959.5,448.5C 959.5,469.167 959.5,489.833 959.5,510.5C 944.728,671.617 870.395,796.783 736.5,886C 667.118,928.85 591.785,953.35 510.5,959.5C 489.833,959.5 469.167,959.5 448.5,959.5C 287.383,944.728 162.217,870.395 73,736.5C 30.1505,667.118 5.65045,591.785 -0.5,510.5C -0.5,489.833 -0.5,469.167 -0.5,448.5C 14.2721,287.383 88.6055,162.217 222.5,73C 291.882,30.1505 367.215,5.65045 448.5,-0.5 Z"/></g>
<g><path style="opacity:1" fill="#050505" d="M 150.5,160.5 C 218.269,231.438 286.269,302.271 354.5,373C 307.865,420.431 291.032,476.931 304,542.5C 314.093,584.053 335.76,618.053 369,644.5C 369.408,612.938 377.742,583.605 394,556.5C 404,540.5 414,524.5 424,508.5C 431.015,497.465 434.348,485.465 434,472.5C 430.697,462.379 425.53,453.379 418.5,445.5C 456.052,437.642 492.385,441.476 527.5,457C 552.361,469.694 571.027,488.527 583.5,513.5C 579.509,522.152 575.009,530.486 570,538.5C 546.559,523.598 521.059,517.765 493.5,521C 464.048,529.452 445.882,548.619 439,578.5C 436.017,617.503 451.851,646.003 486.5,664C 521.065,677.012 553.065,672.346 582.5,650C 640.56,605.558 665.394,546.724 657,473.5C 650.193,434.548 632.86,401.215 605,373.5C 604.333,372.833 604.333,372.167 605,371.5C 672.333,301.5 739.667,231.5 807,161.5C 797.75,178.654 788.416,195.987 779,213.5C 764.43,241.651 754.097,271.317 748,302.5C 747.333,313.167 747.333,323.833 748,334.5C 753.934,358.751 769.434,372.251 794.5,375C 808.227,375.652 821.894,375.318 835.5,374C 792.15,402.335 763.983,441.501 751,491.5C 744.658,533.605 751.825,573.272 772.5,610.5C 740.857,629.643 715.357,654.976 696,686.5C 678.439,716.751 670.939,749.418 673.5,784.5C 626.644,760.18 578.311,757.013 528.5,775C 510.953,781.77 494.62,790.604 479.5,801.5C 438.15,771.885 392.15,759.719 341.5,765C 320.875,767.874 301.709,774.707 284,785.5C 288.036,736.274 273.702,693.274 241,656.5C 224.536,638.679 206.369,623.179 186.5,610C 227.081,530.491 215.747,459.491 152.5,397C 143.379,388.611 133.713,380.945 123.5,374C 199.245,383.24 226.411,351.073 205,277.5C 191.644,236.129 173.478,197.129 150.5,160.5 Z"/></g>
</svg>
