<svg width="25" height="24" viewBox="0 0 25 24" fill="none" xmlns="http://www.w3.org/2000/svg">
<circle cx="12.75" cy="12" r="12" fill="black"/>
<g clip-path="url(#clip0_402_33616)">
<path d="M19.16 12.02C19.16 12.83 19.15 13.64 19.16 14.45C19.16 14.73 19.08 14.88 18.79 14.98C14.91 16.33 11.03 16.33 7.16 14.98C6.91 14.89 6.81 14.77 6.81 14.5C6.82 12.83 6.82 11.16 6.81 9.49C6.81 9.22 6.91 9.1 7.16 9.02C11.05 7.65 14.94 7.66 18.83 9.02C19.1 9.11 19.17 9.25 19.16 9.51C19.15 10.34 19.16 11.18 19.16 12.01V12.02ZM7.88 12C7.88 12.56 7.88 13.11 7.88 13.67C7.88 13.98 8.01 14.17 8.32 14.26C11.44 15.2 14.55 15.19 17.67 14.26C17.96 14.17 18.11 14 18.11 13.7C18.11 12.57 18.11 11.43 18.11 10.3C18.11 10 17.97 9.83 17.68 9.74C14.58 8.81 11.47 8.81 8.36 9.72C8.02 9.82 7.88 10.02 7.89 10.36C7.91 10.9 7.89 11.45 7.89 11.99L7.88 12Z" fill="#E62F29"/>
<path d="M21 11.99C21 12.05 21 12.11 21 12.16C21.01 12.92 21.04 12.86 20.17 12.84C20.1 12.84 19.97 12.71 19.97 12.64C19.95 12.21 19.95 11.79 19.97 11.36C19.97 11.28 20.1 11.16 20.19 11.14C20.33 11.1 20.5 11.14 20.65 11.13C20.89 11.13 21 11.24 21 11.47C21 11.64 21 11.82 21 11.99Z" fill="#E62F29"/>
<path d="M6.03002 12.01C6.03002 12.09 6.03002 12.17 6.03002 12.25C6.03002 12.86 5.84002 13.01 5.22002 12.84C5.13002 12.82 5.02002 12.67 5.01002 12.57C4.99002 12.19 5.00002 11.81 5.01002 11.43C5.01002 11.24 5.11002 11.15 5.32002 11.13C6.03002 11.08 6.03002 11.07 6.03002 11.76C6.03002 11.84 6.03002 11.92 6.03002 12V12.01Z" fill="#E62F29"/>
<path d="M15.99 12C15.99 11.5 15.6 11.12 15.08 11.12C14.56 11.12 14.13 11.52 14.13 12.01C14.13 12.49 14.55 12.89 15.05 12.9C15.56 12.91 15.99 12.5 15.99 12ZM10.93 11.12C10.42 11.12 10.01 11.51 10.01 12C10.01 12.5 10.44 12.91 10.95 12.91C11.46 12.91 11.87 12.49 11.86 11.99C11.85 11.49 11.45 11.13 10.93 11.13V11.12Z" fill="#E62F29"/>
</g>
<defs>
<clipPath id="clip0_402_33616">
<rect width="16" height="8" fill="white" transform="translate(5 8)"/>
</clipPath>
</defs>
</svg>
