<svg width="24" height="24" viewBox="0 0 24 24" fill="none" xmlns="http://www.w3.org/2000/svg">
<g clip-path="url(#clip0_5357_48258)">
<circle cx="12" cy="12" r="12" fill="#53DEE9"/>
<path fill-rule="evenodd" clip-rule="evenodd" d="M6.4164 4.99685C6.11672 3.43849 7.31546 2 8.87382 2C10.2524 2 11.3912 3.1388 11.3912 4.51735V7.63407C11.7508 7.63407 12.1104 7.57413 12.47 7.57413C12.8297 7.57413 13.1293 7.57413 13.489 7.63407V4.51735C13.489 3.1388 14.6278 2 16.0063 2C17.5647 2 18.7634 3.43849 18.5237 4.99685L17.8644 8.653C20.2019 9.67192 22 11.47 22 13.6877V15.0662C22 16.9243 20.8013 18.4826 19.0631 19.5016C17.3249 20.5804 15.0473 21.1798 12.47 21.1798C9.89274 21.1798 7.61514 20.5804 5.87697 19.5016C4.19874 18.4826 3 16.9243 3 15.0662V13.6877C3 11.47 4.73817 9.67192 7.07571 8.653L6.4164 4.99685ZM16.9653 9.13249L17.7445 4.81703C17.9243 3.73817 17.1451 2.71924 16.0063 2.71924C15.0473 2.71924 14.2681 3.49842 14.2681 4.45741V8.41325C14.0284 8.35331 13.7287 8.35331 13.489 8.35331C13.1293 8.35331 12.8297 8.29338 12.47 8.29338C12.1104 8.29338 11.7508 8.29338 11.3912 8.35331C11.1514 8.35331 10.8517 8.41325 10.612 8.41325V4.51735C10.612 3.55836 9.83281 2.77918 8.87382 2.77918C7.79495 2.77918 6.95584 3.79811 7.19558 4.87697L7.97476 9.19243C5.45741 10.1514 3.77918 11.8297 3.77918 13.7476V15.1262C3.77918 18.0631 7.67508 20.4606 12.47 20.4606C17.265 20.4606 21.1609 18.0631 21.1609 15.1262V13.7476C21.2208 11.7697 19.5426 10.0915 16.9653 9.13249Z" fill="#633001"/>
<path d="M21.2206 15.066C21.2206 18.003 17.3247 20.4004 12.5297 20.4004C7.73477 20.4004 3.83887 18.003 3.83887 15.066V13.6875H21.2805V15.066H21.2206Z" fill="#FEDC90"/>
<path fill-rule="evenodd" clip-rule="evenodd" d="M7.19533 4.87709C6.95559 3.79822 7.7947 2.7793 8.87357 2.7793C9.83256 2.7793 10.6117 3.55848 10.6117 4.51747V8.4733C11.2111 8.41337 11.8105 8.35343 12.4698 8.35343C13.0692 8.35343 13.6685 8.41337 14.2679 8.4733V4.51747C14.2679 3.55848 15.0471 2.7793 16.0061 2.7793C17.0849 2.7793 17.924 3.79822 17.7442 4.87709L16.965 9.19254C19.4824 10.1515 21.2206 11.8298 21.2206 13.7478C21.2206 16.6847 17.3247 19.0821 12.5297 19.0821C7.73477 19.0821 3.83887 16.6847 3.83887 13.7478C3.83887 11.8298 5.5171 10.1515 8.03445 9.19254L7.19533 4.87709Z" fill="#D1884F"/>
<path d="M10.0723 13.3281C10.0723 14.1073 9.65272 14.7666 9.11329 14.7666C8.57385 14.7666 8.1543 14.1073 8.1543 13.3281C8.1543 12.549 8.57385 11.8896 9.11329 11.8896C9.65272 11.8896 10.0723 12.549 10.0723 13.3281Z" fill="#633001"/>
<path d="M16.7256 13.3281C16.7256 14.1073 16.306 14.7666 15.7666 14.7666C15.2272 14.7666 14.8076 14.1073 14.8076 13.3281C14.8076 12.549 15.2272 11.8896 15.7666 11.8896C16.306 11.8896 16.7256 12.549 16.7256 13.3281Z" fill="#633001"/>
</g>
<defs>
<clipPath id="clip0_5357_48258">
<rect width="24" height="24" fill="white"/>
</clipPath>
</defs>
</svg>
