<svg width="24" height="24" viewBox="0 0 24 24" fill="none" xmlns="http://www.w3.org/2000/svg">
<path d="M12 0C18.628 0 24 5.37311 24 12C24 18.6269 18.628 24 12 24C5.372 24 0 18.6276 0 12C0 5.37244 5.37311 0 12 0Z" fill="#F5AC37"/>
<path d="M12.4422 12.8473H17.002C17.0991 12.8473 17.1451 12.8473 17.1522 12.7199C17.1895 12.2562 17.1895 11.7895 17.1522 11.325C17.1522 11.2348 17.1073 11.1977 17.0095 11.1977H7.93484C7.82262 11.1977 7.79218 11.235 7.79218 11.3404V12.6753C7.79218 12.7901 7.8521 12.8475 7.97196 12.8475H12.4422V12.8473ZM16.6428 9.63748C16.6557 9.60348 16.6557 9.56615 16.6428 9.53282C16.5666 9.36704 16.4766 9.20882 16.3717 9.06037C16.214 8.80659 16.0284 8.57282 15.8166 8.36259C15.7166 8.23571 15.6011 8.12171 15.4715 8.02504C14.8224 7.47259 14.0508 7.08171 13.2213 6.88504C12.8028 6.79104 12.3751 6.74615 11.9464 6.74993H7.91907C7.80684 6.74993 7.79173 6.79482 7.79173 6.89259V9.55482C7.79173 9.66704 7.79173 9.69748 7.9344 9.69748H16.5891C16.5891 9.69748 16.6642 9.68237 16.6793 9.63748H16.6431H16.6428ZM16.6428 14.4073C16.5155 14.3933 16.3868 14.3933 16.2595 14.4073H7.9424C7.83018 14.4073 7.79218 14.4073 7.79218 14.5575V17.1604C7.79218 17.2802 7.79218 17.3106 7.9424 17.3106H11.7824C11.966 17.3246 12.1495 17.3117 12.3295 17.2733C12.8868 17.2333 13.4348 17.1124 13.9577 16.913C14.1477 16.8473 14.3315 16.7613 14.5048 16.6582H14.5573C15.4575 16.1899 16.1886 15.4544 16.6497 14.5515C16.6497 14.5515 16.7022 14.4382 16.6433 14.4084V14.4073H16.6428ZM6.28507 18.6597V14.5124C6.28507 14.4146 6.28507 14.4002 6.16529 14.4002H4.53773C4.44751 14.4002 4.4104 14.4002 4.4104 14.2804V12.8553H6.1504C6.24751 12.8553 6.28551 12.8553 6.28551 12.7279V11.3179C6.28551 11.2277 6.28551 11.2057 6.16573 11.2057H4.53818C4.44796 11.2057 4.41084 11.2057 4.41084 11.0859V9.76615C4.41084 9.68348 4.41084 9.66148 4.53062 9.66148H6.14307C6.25529 9.66148 6.28573 9.66148 6.28573 9.51882V5.47615C6.28573 5.35637 6.28573 5.32593 6.43596 5.32593H12.0606C12.4688 5.34215 12.8744 5.38704 13.2757 5.46104C14.1024 5.61393 14.8968 5.90926 15.6231 6.33104C16.1048 6.61459 16.5482 6.95682 16.9428 7.35104C17.24 7.65948 17.5077 7.99304 17.7453 8.34837C17.9813 8.70859 18.1773 9.09348 18.3313 9.49593C18.3502 9.60059 18.4506 9.67148 18.5553 9.65371H19.8977C20.0126 9.65371 20.0725 9.70882 20.0775 9.81904V11.0493C20.0775 11.169 20.0326 11.1995 19.9122 11.1995H18.8771C18.7724 11.1995 18.742 11.1995 18.7497 11.3346C18.7908 11.7915 18.7908 12.2499 18.7497 12.7068C18.7497 12.8342 18.7497 12.8495 18.8928 12.8495H20.0771C20.1295 12.917 20.0771 12.9846 20.0771 13.0526C20.0846 13.1395 20.0846 13.2275 20.0771 13.3146V14.2224C20.0771 14.3497 20.0397 14.3877 19.9268 14.3877H18.5093C18.4104 14.3688 18.3144 14.4319 18.2917 14.5304C17.9542 15.4079 17.4142 16.1946 16.7166 16.8255C16.4617 17.055 16.194 17.271 15.9142 17.4701C15.614 17.643 15.3217 17.8228 15.014 17.9653C14.4475 18.2202 13.8535 18.4082 13.2437 18.5275C12.6648 18.6313 12.078 18.6782 11.4886 18.6701H6.28351V18.6626L6.28573 18.661L6.28507 18.6597Z" fill="#FEFEFD"/>
</svg>
