<svg width="24" height="24" viewBox="0 0 24 24" fill="none" xmlns="http://www.w3.org/2000/svg">
<g clip-path="url(#clip0_28_1019)">
<path d="M12 24C18.6274 24 24 18.6274 24 12C24 5.37258 18.6274 0 12 0C5.37258 0 0 5.37258 0 12C0 18.6274 5.37258 24 12 24Z" fill="#080E42"/>
<path d="M6.22514 17.6996C5.86915 17.6996 5.51505 17.5565 5.25512 17.2739C4.76163 16.739 4.79554 15.9046 5.33235 15.4111C7.21588 13.6764 9.66259 12.7214 12.2242 12.7214C14.7858 12.7214 17.2325 13.6764 19.1161 15.4111C19.651 15.9046 19.6868 16.739 19.1933 17.2739C18.6998 17.8089 17.8654 17.8447 17.3305 17.3512C15.9366 16.0666 14.1228 15.3584 12.2261 15.3584C10.3294 15.3584 8.51552 16.0666 7.1217 17.3512C6.86743 17.5847 6.54723 17.6996 6.22891 17.6996H6.22514Z" fill="url(#paint0_linear_28_1019)"/>
<path d="M18.2345 17.6997C17.7749 17.6997 17.3285 17.4586 17.0855 17.031L11.0319 6.34194C10.6721 5.70907 10.8962 4.9048 11.5291 4.54505C12.162 4.18529 12.9663 4.40943 13.326 5.0423L19.3797 15.7314C19.7394 16.3642 19.5153 17.1685 18.8824 17.5283C18.6771 17.645 18.4549 17.6997 18.2345 17.6997Z" fill="white"/>
<path d="M6.22332 17.6996C6.00294 17.6996 5.78069 17.645 5.57538 17.5282C4.94251 17.1684 4.71837 16.3642 5.07813 15.7313L8.18031 10.254C8.54006 9.6211 9.34433 9.39696 9.9772 9.75672C10.6101 10.1165 10.8342 10.9207 10.4745 11.5536L7.37227 17.0309C7.1293 17.4585 6.6829 17.6996 6.22332 17.6996Z" fill="white"/>
</g>
<defs>
<linearGradient id="paint0_linear_28_1019" x1="4.90667" y1="15.2115" x2="19.5398" y2="15.2115" gradientUnits="userSpaceOnUse">
<stop stop-color="white"/>
<stop offset="0.17" stop-color="#D0D2D3"/>
<stop offset="0.24" stop-color="#DCDEDE"/>
<stop offset="0.4" stop-color="#F5F6F6"/>
<stop offset="0.5" stop-color="white"/>
</linearGradient>
<clipPath id="clip0_28_1019">
<rect width="24" height="24" fill="white"/>
</clipPath>
</defs>
</svg>
