<svg width="24" height="24" viewBox="0 0 24 24" fill="none" xmlns="http://www.w3.org/2000/svg">
<g clip-path="url(#clip0_5357_40527)">
<circle cx="12" cy="12" r="12" fill="url(#paint0_linear_5357_40527)"/>
<path fill-rule="evenodd" clip-rule="evenodd" d="M8.0003 4.50641C8.0003 4.22664 8.20147 4.00017 8.44998 4.00017H15.5385C15.5985 3.99843 15.6582 4.01024 15.7141 4.0349C15.77 4.05955 15.8209 4.09655 15.8639 4.14371C15.9069 4.19088 15.941 4.24726 15.9644 4.30952C15.9877 4.37178 15.9997 4.43867 15.9997 4.50625C15.9997 4.57382 15.9877 4.64071 15.9644 4.70297C15.941 4.76523 15.9069 4.82161 15.8639 4.86878C15.8209 4.91594 15.77 4.95294 15.7141 4.9776C15.6582 5.00225 15.5985 5.01406 15.5385 5.01232H15.2897L14.9163 5.90758H9.12422L8.73457 5.01266H8.44998C8.20147 5.01232 8.0003 4.78618 8.0003 4.50641ZM8.0003 7.30908C8.0003 7.02931 8.20147 6.80283 8.44998 6.80283H15.5385C15.5975 6.80283 15.656 6.81593 15.7106 6.84137C15.7651 6.86681 15.8147 6.9041 15.8564 6.95111C15.8982 6.99812 15.9313 7.05393 15.954 7.11534C15.9765 7.17677 15.9882 7.24259 15.9882 7.30908C15.9882 7.37556 15.9765 7.44139 15.954 7.50281C15.9313 7.56423 15.8982 7.62004 15.8564 7.66705C15.8147 7.71405 15.7651 7.75135 15.7106 7.77679C15.656 7.80223 15.5975 7.81532 15.5385 7.81532H15.2897L14.9163 8.71056H9.12422L8.73457 7.81499H8.44998C8.20147 7.81499 8.0003 7.58851 8.0003 7.30908ZM8.0003 10.1117C8.0003 9.83229 8.20147 9.60583 8.44998 9.60583H15.5385C15.5985 9.60411 15.6582 9.61592 15.7141 9.64057C15.77 9.66523 15.8209 9.7022 15.8639 9.74936C15.9069 9.79656 15.941 9.8529 15.9644 9.91517C15.9877 9.97745 15.9997 10.0443 15.9997 10.1119C15.9997 10.1795 15.9877 10.2464 15.9644 10.3087C15.941 10.3709 15.9069 10.4273 15.8639 10.4744C15.8209 10.5216 15.77 10.5586 15.7141 10.5833C15.6582 10.6079 15.5985 10.6197 15.5385 10.618H15.2897L14.9163 11.5132H9.12422L8.73457 10.618H8.44998C8.20147 10.618 8.0003 10.3915 8.0003 10.1117ZM9.34877 12.4088H14.674V13.4207H9.34877V12.4088ZM8.0003 19.4939C8.0003 19.2142 8.20147 18.9877 8.44998 18.9877H8.68517C8.96389 18.6656 9.40054 17.6691 9.40054 15.6205V14.3162H11.5792V18.9877H12.4265V14.3162H14.6048V15.6205C14.6048 17.6691 15.0415 18.6656 15.3205 18.9877H15.5388C15.5988 18.9859 15.6585 18.9978 15.7144 19.0224C15.7703 19.0471 15.8212 19.0841 15.8642 19.1312C15.9072 19.1784 15.9413 19.2348 15.9647 19.297C15.988 19.3593 16 19.4262 16 19.4937C16 19.5613 15.988 19.6282 15.9647 19.6905C15.9413 19.7528 15.9072 19.8091 15.8642 19.8563C15.8212 19.9035 15.7703 19.9405 15.7144 19.9651C15.6585 19.9898 15.5988 20.0016 15.5388 19.9998H8.44939C8.20118 19.9998 8 19.7734 8 19.4936L8.0003 19.4939Z" fill="white"/>
</g>
<defs>
<linearGradient id="paint0_linear_5357_40527" x1="0.536466" y1="3.37733e-07" x2="9.5327" y2="29.6815" gradientUnits="userSpaceOnUse">
<stop stop-color="#D7BA4B"/>
<stop offset="0.197955" stop-color="#B7952D"/>
<stop offset="0.416795" stop-color="#BD9E31"/>
<stop offset="0.645361" stop-color="#CEB141"/>
<stop offset="0.828943" stop-color="#E2C856"/>
<stop offset="1" stop-color="#F0D965"/>
</linearGradient>
<clipPath id="clip0_5357_40527">
<rect width="24" height="24" fill="white"/>
</clipPath>
</defs>
</svg>
