<svg width="24" height="24" viewBox="0 0 24 24" fill="none" xmlns="http://www.w3.org/2000/svg">
<g clip-path="url(#clip0_28_888)">
<path d="M12 24C18.6274 24 24 18.6274 24 12C24 5.37258 18.6274 0 12 0C5.37258 0 0 5.37258 0 12C0 18.6274 5.37258 24 12 24Z" fill="#988430"/>
<path d="M12 23.6143C18.4144 23.6143 23.6143 18.4144 23.6143 12C23.6143 5.58564 18.4144 0.385742 12 0.385742C5.58564 0.385742 0.385742 5.58564 0.385742 12C0.385742 18.4144 5.58564 23.6143 12 23.6143Z" fill="#7A6A2A"/>
<path d="M12 23.3743C18.2819 23.3743 23.3743 18.2819 23.3743 12C23.3743 5.71817 18.2819 0.625732 12 0.625732C5.71817 0.625732 0.625732 5.71817 0.625732 12C0.625732 18.2819 5.71817 23.3743 12 23.3743Z" fill="#BA9F33"/>
<path fill-rule="evenodd" clip-rule="evenodd" d="M5.24574 10.7142C5.17717 10.6542 5.1086 10.5856 5.04003 10.5256C4.97146 10.4656 4.90288 10.397 4.83431 10.337L4.6286 10.1485C4.6286 10.1485 4.56003 10.0885 4.52574 10.0542C4.49146 10.0285 4.45717 9.99416 4.42288 9.95988C4.15717 9.70274 3.88288 9.45416 3.61717 9.19702C3.89146 9.44559 4.15717 9.69416 4.43146 9.95131L4.52574 10.0456C4.52574 10.0456 4.59431 10.1056 4.6286 10.1399L4.83431 10.3285C4.90288 10.3885 4.97146 10.457 5.04003 10.517C5.1086 10.577 5.17717 10.6456 5.24574 10.7056V10.7142ZM1.6886 10.6799C1.6886 10.6799 2.66574 10.7827 3.13717 10.8513C3.57431 10.9113 4.95431 11.1256 4.95431 11.1256L1.6886 10.6799ZM1.6886 10.6799C1.96288 10.7056 2.23717 10.7313 2.51146 10.7656C2.6486 10.7827 2.78574 10.7913 2.92288 10.8085L3.1286 10.8342C3.19717 10.8427 3.26574 10.8513 3.33431 10.8599L4.1486 10.9885L4.56003 11.057C4.69717 11.0827 4.82574 11.1085 4.97146 11.1256C4.83431 11.1085 4.69717 11.0913 4.56003 11.0742L4.1486 11.0142L3.33431 10.8942C3.26574 10.8856 3.19717 10.8685 3.1286 10.8599L2.92288 10.8342C2.78574 10.817 2.6486 10.7999 2.51146 10.7827C2.23717 10.7485 1.96288 10.7142 1.6886 10.6713V10.6799ZM4.86003 11.3742C4.86003 11.3742 3.82288 11.6399 3.47146 11.7427C3.1286 11.837 2.08288 12.1542 2.08288 12.1542L4.8686 11.3742H4.86003Z" fill="#CFB66C"/>
<path fill-rule="evenodd" clip-rule="evenodd" d="M4.86003 11.3743C4.6286 11.4428 4.39717 11.5114 4.16574 11.5714L3.47146 11.76C3.24003 11.8286 3.0086 11.8971 2.77717 11.9657L2.43431 12.06C2.32289 12.0943 2.20289 12.12 2.08289 12.1543C2.19431 12.12 2.31431 12.0771 2.42574 12.0428L2.7686 11.9314C3.00003 11.8628 3.23146 11.7943 3.46289 11.7171C3.69431 11.6571 3.92574 11.5971 4.16574 11.5371C4.3886 11.4771 4.62003 11.4257 4.86003 11.3743ZM2.22003 12.7971C2.33146 12.7543 3.65146 12.1371 3.96003 11.9914C4.11431 11.9228 4.56003 11.76 4.56003 11.76L2.22003 12.7886V12.7971Z" fill="#CFB66C"/>
<path fill-rule="evenodd" clip-rule="evenodd" d="M2.21997 12.7971C2.32283 12.7628 2.41711 12.7114 2.5114 12.6685L2.80283 12.5314L3.37711 12.2571C3.56569 12.1628 3.75426 12.0685 3.9514 11.9828C4.05426 11.94 4.15711 11.9057 4.2514 11.8714L4.40568 11.82C4.45711 11.8028 4.50854 11.7942 4.55997 11.7771C4.3714 11.8714 4.16568 11.9485 3.97711 12.0342C3.78854 12.1285 3.5914 12.2057 3.39426 12.2914L2.8114 12.5485C2.61426 12.6257 2.42568 12.7114 2.22854 12.7971H2.21997ZM2.34854 13.3371C2.34854 13.3371 3.54854 12.6342 3.95997 12.4114C4.17426 12.2914 4.86854 11.9485 4.86854 11.9485L2.34854 13.3371Z" fill="#CFB66C"/>
<path fill-rule="evenodd" clip-rule="evenodd" d="M2.34851 13.3371C2.55423 13.2085 2.75994 13.0885 2.96565 12.9599L3.27422 12.7714C3.37708 12.7114 3.47994 12.6514 3.5828 12.5914C3.68565 12.5314 3.78851 12.4628 3.89137 12.4114C3.9428 12.3771 3.99422 12.3514 4.05422 12.3257L4.21708 12.2399C4.43137 12.1371 4.64565 12.0257 4.87708 11.9399C4.67137 12.0685 4.45708 12.1799 4.25137 12.2914C4.14851 12.3514 4.03708 12.4028 3.93423 12.4628C3.83137 12.5228 3.72851 12.5828 3.62565 12.6428C3.5228 12.7028 3.41994 12.7628 3.31708 12.8228L2.99994 12.9942L2.35708 13.3371H2.34851ZM4.85994 12.0942C4.85994 12.0942 4.11422 12.6685 3.87422 12.8485C3.63422 13.0285 2.9228 13.5428 2.9228 13.5428L4.85994 12.0942Z" fill="#CFB66C"/>
<path fill-rule="evenodd" clip-rule="evenodd" d="M9.12861 16.697L8.75146 15.977L8.97432 15.077L10.5515 14.4685L9.87432 13.0885L10.2086 11.6999L10.8343 10.4485L12.7629 10.1485L14.1772 8.79419L17.2286 9.02562L17.8286 12.2999L16.6715 16.4142L16.02 18.5399L13.3457 18.6428L12.1115 17.7856L10.6629 17.177L9.12861 16.697Z" fill="#E2CC85"/>
<path fill-rule="evenodd" clip-rule="evenodd" d="M13.8085 16.6715C13.8085 16.6715 13.4399 16.8429 12.8142 16.8001C12.6342 16.5515 11.3571 16.4401 11.3571 16.4401C11.3571 16.4401 11.1942 16.3886 10.9199 16.5086C10.6371 16.6201 10.3714 16.6115 10.1142 16.6715C9.85709 16.7315 9.61709 16.4058 9.41994 16.3372C9.23137 16.2686 8.97423 16.0886 8.97423 16.0886L8.43423 16.0372L7.35423 15.5829L5.63994 13.8772L5.17709 14.6058L5.03137 15.5058L5.54566 16.5772L6.9428 17.8458L9.66851 18.5401L11.2799 18.0686L13.3028 17.2115L13.8085 16.6715Z" fill="#F1D789"/>
<path fill-rule="evenodd" clip-rule="evenodd" d="M4.14005 10.6373L4.48291 9.59155L4.89434 8.91441L6.22291 8.80298L5.82005 9.96869L4.71434 11.9401L5.17719 13.6973L4.36291 14.1087L4.10577 13.723L3.90862 12.8401L3.89148 11.8544L4.14005 10.6373Z" fill="#F4ECB4"/>
<path fill-rule="evenodd" clip-rule="evenodd" d="M5.62284 16.6028L5.3657 16.2513C5.3657 16.2513 5.29713 16.0799 5.33999 15.9342C5.37427 15.7885 5.37427 15.7713 5.35713 15.7199C5.33999 15.6685 5.17713 15.4713 5.1857 15.2999C5.19427 15.1285 5.16856 15.0771 5.29713 14.9399C5.4257 14.8113 5.39142 14.5885 5.39142 14.5885L5.56284 14.6913L5.59713 14.6313C5.59713 14.6313 5.65713 14.6828 5.65713 14.7599C5.67427 14.6571 5.61427 14.1685 5.74284 14.0571C5.87142 13.9456 6.09427 14.5713 6.09427 14.5713L5.95713 13.6628L5.59713 12.7285L4.95427 11.8713L4.91999 10.9285V10.8428C4.91999 10.8428 4.62856 11.2971 4.54284 11.6485C4.48284 11.8971 4.62856 12.1885 4.59427 12.5399C4.56856 12.8913 4.54284 12.8656 4.62856 13.0028C4.71427 13.1399 4.91999 13.4228 4.84284 13.6285C4.77427 13.8085 4.5257 13.6799 4.5257 13.6799C4.5257 13.6799 4.47427 13.8256 4.41427 13.8771C4.38856 13.7913 4.36284 13.7399 4.31999 13.6885C4.31999 13.7228 4.30284 13.7656 4.30284 13.7656C4.30284 13.7656 4.25999 13.6285 4.21713 13.4656C4.15713 13.2428 4.09713 12.9428 4.03713 12.7799C4.01142 12.8742 3.95142 13.1485 3.95142 13.1485L3.9857 13.5771L4.14856 14.1599L4.30284 14.5456L4.44856 15.0171L4.57713 15.3342L4.67999 15.5742L4.77427 16.1142L5.21142 16.5771L5.44284 16.6799L5.61427 16.5942L5.62284 16.6028Z" fill="#F3E19D"/>
<path fill-rule="evenodd" clip-rule="evenodd" d="M4.37142 9.78007C4.37142 9.78007 4.05428 10.3201 3.95999 10.8601C3.8657 11.4001 3.78856 11.9744 3.84856 12.7115C3.90856 13.4572 4.01999 13.9115 4.1057 14.2372C4.25999 14.7772 4.65428 15.5315 4.65428 15.5315L4.67142 15.5058C4.60285 15.3772 4.55142 15.2486 4.50856 15.1115C4.45713 14.9058 4.43999 14.6572 4.38856 14.5544C4.3457 14.4429 4.27713 14.3486 4.24285 14.2115C4.20856 14.0829 4.20856 13.8772 4.1057 13.7229C4.06285 13.6629 4.01142 13.5001 3.99428 13.3372C3.97713 13.0886 4.00285 12.8229 3.97713 12.5915C3.93428 12.2144 3.90856 11.9658 3.94285 11.7686C3.97713 11.5715 4.18285 11.0144 4.31142 10.5686C4.39713 10.2858 4.3457 10.0458 4.49142 9.79721C4.63713 9.54864 4.73142 9.33436 4.7657 9.18864C4.79999 9.0515 4.37142 9.78864 4.37142 9.78864V9.78007Z" fill="#F2E8B0"/>
<path fill-rule="evenodd" clip-rule="evenodd" d="M5.87139 9.56567C5.87139 9.56567 5.70853 9.6171 5.63139 9.70282C5.55425 9.78853 5.51996 9.84853 5.4171 9.99425C5.31425 10.14 5.30568 10.2428 5.21996 10.4142C5.13425 10.5857 4.94568 10.8342 4.91996 10.9285C4.89425 11.0228 4.85996 11.4428 4.80853 11.6485C4.76568 11.8542 4.85996 12.1028 4.85996 12.1028L4.97139 12.0771C4.97139 12.0771 4.97139 12.2228 5.08282 12.3171C5.19425 12.4114 5.21139 11.9914 5.21139 11.9914L5.62282 10.5942L6.24853 10.1742L6.3171 9.83139L5.87139 9.56567Z" fill="#F5EEC0"/>
<path fill-rule="evenodd" clip-rule="evenodd" d="M6.17147 10.1999C6.17147 10.1999 5.88005 10.2171 5.73433 10.3285C5.67433 10.3714 5.64862 10.4057 5.58862 10.4571C5.47719 10.5514 5.35719 10.6371 5.29719 10.7657C5.23719 10.8857 5.16862 11.0742 5.11719 11.4342C5.10005 11.5799 5.10005 11.7257 5.0829 11.8457C5.06576 12.0085 5.03147 12.1371 5.04862 12.2314C5.06576 12.4199 5.2629 12.5142 5.28005 12.7285L5.67433 12.5228L6.05147 11.0485L6.84862 10.5514L6.39433 10.0457L6.15433 10.2085L6.17147 10.1999Z" fill="#E6DB9D"/>
<path fill-rule="evenodd" clip-rule="evenodd" d="M4.07141 20.1515C4.07141 20.1515 4.07141 20.1257 4.07141 20.1086C4.13141 19.6115 4.13998 19.2343 4.18284 18.9943C4.24284 18.66 4.2857 18.5315 4.27713 18.4115C4.25998 18.2057 4.25141 18.06 4.26855 17.9057C4.29427 17.7 4.49998 17.4515 4.49141 17.2886C4.49141 17.1515 4.42284 17.0657 4.36284 16.9886C4.30284 16.9115 4.25998 16.8429 4.25998 16.8429C4.25998 16.8429 4.65427 16.5686 4.65427 15.4629C4.65427 15.4629 4.67141 15.4629 4.67998 15.4715L4.87713 16.0286L5.01427 16.1915L5.52855 17.1515L6.18855 17.7943L7.1657 18.4543L7.78284 19.1229L7.84284 20.9057L7.03713 21.9429L6.90855 22.1829C5.86284 21.66 4.91141 20.9743 4.07141 20.16V20.1515Z" fill="#E5CB7A"/>
<path fill-rule="evenodd" clip-rule="evenodd" d="M6.52283 21.857C6.52283 21.857 6.53997 21.6342 6.71997 21.4885C6.74568 21.5399 6.7714 21.5828 6.76283 21.617C6.79711 21.557 7.02854 21.1885 7.5514 21.0856C8.07426 20.9913 8.20283 20.6142 8.20283 20.6142L9.30854 19.6028L10.5771 18.437L12.12 17.897L12.84 17.717C12.84 17.717 12.8571 17.7685 12.8228 17.8885C12.96 17.8799 13.2514 17.8113 13.56 17.6999C13.6885 17.6485 13.8 17.6313 13.86 17.6999C13.9543 17.7856 13.9628 17.9913 13.9714 18.1113C14.1171 18.077 14.2971 17.9313 14.4343 17.9485C14.6571 17.9742 14.8543 18.2313 15.0771 18.2313C15.3771 18.2313 15.5057 18.0513 15.72 17.9056C15.8485 17.8199 16.02 17.717 16.1228 17.6399C16.3628 17.4599 18.9085 16.6885 18.9085 16.6885L19.8 16.7485L19.9457 17.7085L19.8685 20.2199C19.8685 20.2199 19.8514 20.237 19.8428 20.2456L15.78 22.3628L10.1485 23.2285C8.88854 23.0228 7.6714 22.6028 6.54854 21.9942L6.52283 21.8656V21.857Z" fill="#D8C173"/>
<path fill-rule="evenodd" clip-rule="evenodd" d="M4.41431 20.4686C4.49145 20.2972 4.56859 20.1601 4.57716 20.1086C4.58574 20.2115 4.60288 20.4344 4.64574 20.6658C4.56859 20.5972 4.49145 20.5372 4.41431 20.4686Z" fill="#F1D789"/>
<path fill-rule="evenodd" clip-rule="evenodd" d="M8.52859 22.8258L9.25716 22.6201L9.31716 22.6372C9.31716 22.6372 9.35145 22.6544 9.35145 22.7229C9.44573 22.6715 9.52288 22.6801 9.57431 22.6458C9.60002 22.7058 9.63431 22.9115 9.76288 22.9372C9.90002 22.9629 10.0372 22.8772 10.1829 22.7658C10.3286 22.6544 10.4914 22.5086 10.6114 22.4486C10.6543 22.5344 10.6972 22.6201 10.7314 22.7058C10.8943 22.5772 11.1772 22.0458 11.58 22.0544C11.7 21.7801 11.8886 21.5401 12.1372 21.3772C12.5143 21.1201 12.7457 21.1029 13.0372 21.1286C13.1572 20.9744 13.2943 20.8458 13.4572 20.7515C13.5086 20.7686 13.6372 20.8544 13.8086 20.7772C13.98 20.7001 14.1686 20.4001 14.4172 20.3572C14.5543 20.3401 14.6914 20.3658 14.8029 20.4429C14.8029 20.4429 15.5314 19.7144 16.0372 19.4744C16.02 19.4144 15.9772 19.2001 16.5686 18.7115C16.6029 18.7372 16.5772 18.8229 16.6029 18.8229C16.6114 18.8229 16.7572 18.7629 16.9372 18.6172C17.16 18.4458 17.4343 18.2744 17.5972 18.2229C17.9057 18.1286 18.2314 18.3172 18.2314 18.3172C18.2572 18.3001 18.2914 18.2829 18.3257 18.2744C18.4029 18.2572 18.4629 18.2486 18.5057 18.2401C18.5057 18.3429 18.5572 18.5144 18.5057 18.6601C18.5657 18.6944 18.6343 18.7201 18.6943 18.7458C18.66 18.8144 18.5914 19.0029 18.4714 19.0886C18.5743 19.1401 18.5829 19.1915 18.7286 19.2429C18.6686 19.3286 18.5743 19.4658 18.5314 19.5515C18.4886 19.6458 18.3343 20.0229 18.2657 20.1686C18.1972 20.3144 18.0943 20.5801 18.0514 20.6315C18.0086 20.6829 17.8372 20.9058 17.7086 21.0172C17.82 20.9744 18.2914 20.8286 18.4972 20.7772C18.4372 20.8629 18.1372 21.3086 17.8457 21.7458C15.0343 23.4258 11.64 23.8201 8.52002 22.8258H8.52859Z" fill="#E0CD81"/>
<path fill-rule="evenodd" clip-rule="evenodd" d="M6.22285 10.1486C6.22285 10.1486 6.05142 10.1486 6.01713 10.1743C5.98285 10.2 6.18856 10.2429 6.24856 10.2686C6.30856 10.2943 6.4457 10.3972 6.47999 10.4829C6.51428 10.5686 7.69713 11.04 7.69713 11.04L8.52856 10.9972L8.81999 10.6029L8.27142 10.1229L8.65713 8.99146L8.15142 9.07717L6.9257 9.80574L6.30856 10.0372L6.22285 10.1486Z" fill="#DFC57C"/>
<path fill-rule="evenodd" clip-rule="evenodd" d="M8.05713 10.5256C8.05713 10.5256 8.1257 10.5856 8.16856 10.5856C8.33999 10.5856 8.50284 10.6285 8.56284 10.7142C8.67427 10.8513 8.98284 11.297 8.98284 11.297L9.71999 11.5627L9.77141 10.697L8.9657 10.1399L8.05713 10.4742V10.517V10.5256Z" fill="#E5CC7C"/>
<path fill-rule="evenodd" clip-rule="evenodd" d="M7.91144 10.8427C7.91144 10.8427 8.04858 10.8513 8.21144 10.7913C8.3743 10.7313 8.65715 10.5942 8.77715 10.6456C8.94858 10.7142 8.9143 10.9456 9.0943 11.1427C9.20572 11.2713 9.40287 11.2627 9.52287 11.3999C9.64287 11.537 10.0286 11.4684 10.0286 11.4684L10.1743 12.2742L9.5743 13.0456L9.37715 13.997H8.56287L7.82572 13.7056L7.45715 12.8227L7.63715 11.9313L7.8943 10.8427H7.91144Z" fill="#D2C281"/>
<path fill-rule="evenodd" clip-rule="evenodd" d="M9.47996 10.8857C9.47996 10.8857 9.52282 10.8943 9.53996 10.8943C9.51425 10.9114 9.47139 10.9543 9.48854 11.0657C9.50568 11.1771 9.57425 11.3143 9.51425 11.4C9.55711 11.4429 9.59139 11.5029 9.60854 11.5629C9.64282 11.6571 9.65139 11.7429 9.86568 11.76C9.83139 11.7771 9.80568 11.8029 9.77996 11.8286C9.77996 11.8286 9.92568 11.9571 10.0028 12.0771C10.08 12.0771 10.2857 12.0086 10.2857 12.0086L10.3285 12.0343L10.4228 12C10.4228 12 10.3371 11.9657 10.3971 11.76C10.4571 11.58 10.5085 11.5886 10.5085 11.5714C10.5085 11.5543 10.5514 11.3657 10.5514 11.2886C10.5771 11.1857 10.6028 10.8771 10.6028 10.8771L10.5428 10.2L10.1914 9.98571L9.90854 9.71143L9.64282 10.2171L9.46282 10.3971L9.44568 10.8343L9.46282 10.8857H9.47996Z" fill="#E2C270"/>
<path fill-rule="evenodd" clip-rule="evenodd" d="M10.32 10.3114C10.32 10.3114 10.38 10.4914 10.4057 10.6199C10.4057 10.5942 10.4143 10.5685 10.4229 10.5342C10.4229 10.5342 10.4743 10.7999 10.4829 10.9114C10.5 10.9114 10.5171 10.9028 10.5257 10.9199C10.5343 10.9371 10.5771 11.1514 10.56 11.2714C10.6371 11.1342 10.7486 11.0228 10.8857 10.9456C10.9629 10.8942 11.0571 10.8428 11.1514 10.8428C11.2971 10.8428 11.4086 10.9371 11.5886 10.9371C12.0171 10.9371 12.4114 10.6199 12.6943 10.5256C12.9086 10.4571 13.0886 10.3971 13.2171 10.2856C13.2771 10.2342 13.3886 10.1142 13.4914 9.94279C13.6286 9.71136 13.7657 9.51422 13.9029 9.4885C13.8429 9.49708 13.7743 9.50565 13.7143 9.50565C13.7143 9.50565 13.7571 9.46279 13.8257 9.40279C13.8943 9.34279 13.9886 9.27422 14.1086 9.27422C14.3314 9.27422 14.4429 9.3085 14.5629 9.3085C14.6914 9.3085 14.76 9.27422 14.76 9.27422C14.76 9.27422 14.8886 9.3685 15.18 9.3685C15.4714 9.3685 15.6686 9.39422 15.8229 9.41136C15.9771 9.4285 16.4914 9.3685 16.6371 9.37708C16.7314 9.37708 16.8257 9.40279 16.9114 9.44565L16.4314 8.06565L14.7257 6.57422L13.7057 7.29422L12.1371 8.86279L10.62 9.41993L10.3029 9.77136V10.3114H10.32Z" fill="#CCB360"/>
<path fill-rule="evenodd" clip-rule="evenodd" d="M13.7143 9.52296C13.7143 9.52296 13.7571 9.4801 13.8257 9.4201C13.8943 9.3601 13.9886 9.29153 14.1086 9.29153C14.3314 9.29153 14.4428 9.32581 14.5628 9.32581C14.6914 9.32581 14.76 9.29153 14.76 9.29153C14.76 9.29153 14.8886 9.38581 15.18 9.38581C15.4714 9.38581 15.6686 9.41153 15.8228 9.42867C15.9771 9.44581 16.4914 9.38581 16.6371 9.39438C16.7314 9.39438 16.8257 9.4201 16.9114 9.46296L16.6971 8.83724L16.4486 8.36581L15.7371 7.58581C15.7371 7.58581 14.88 7.0801 14.8714 7.0801L14.5714 6.99438L13.7914 7.46581L13.0886 9.29153L13.0714 9.67724L13.5257 9.89153C13.6371 9.70296 13.7657 9.54867 13.8857 9.52296C13.7828 9.53153 13.6971 9.53153 13.6971 9.53153L13.7143 9.52296Z" fill="#D5B457"/>
<path fill-rule="evenodd" clip-rule="evenodd" d="M13.7057 9.65148C13.6371 9.65148 13.5857 9.64291 13.5685 9.59148C13.5085 9.42863 13.4657 9.40291 13.4142 9.40291C13.3628 9.40291 13.3028 9.50577 13.26 9.51434C13.2171 9.52291 13.1742 9.39434 13.1742 9.39434L13.1314 9.3772C13.1314 9.3772 12.8828 9.54006 12.7028 9.72863C12.5228 9.9172 12.24 10.2429 12.1028 10.3029C11.9657 10.3629 11.5285 10.3801 11.3742 10.4143C11.22 10.4486 11.0485 10.5601 11.0314 10.5858C11.0142 10.6115 11.1 10.6372 11.1171 10.6629C11.1342 10.6886 10.9714 10.6801 10.9542 10.6972C10.9457 10.7143 10.9885 10.8258 11.0142 10.8858C11.0571 10.8686 11.1 10.8515 11.1514 10.8515C11.2971 10.8515 11.4085 10.9458 11.5885 10.9458C12.0171 10.9458 12.4114 10.6286 12.6942 10.5343C12.9085 10.4658 13.0885 10.4058 13.2171 10.2943C13.2771 10.2429 13.3885 10.1229 13.4914 9.95148C13.5685 9.83148 13.6371 9.72005 13.7057 9.64291V9.65148Z" fill="#D2B257"/>
<path fill-rule="evenodd" clip-rule="evenodd" d="M7.5257 19.2599C7.5257 19.2599 7.49141 19.1142 7.13141 18.7456C7.02856 18.6428 6.96856 18.557 6.89999 18.4885C6.72856 18.3256 6.63427 18.2828 6.51427 18.197C6.24856 17.9999 5.9657 17.9999 5.74284 17.7599C5.51999 17.5199 5.26284 17.057 5.08284 16.5856C4.90284 16.1142 4.85999 15.9685 4.85999 15.9513C4.85999 15.9342 4.91141 15.8485 4.97141 15.857C5.03141 15.8656 5.03141 15.9942 5.04856 16.0199C5.08284 16.0713 5.11713 16.1142 5.15141 16.157C5.2457 16.2599 5.37427 16.3885 5.44284 16.577C5.4257 16.4142 5.37427 16.2428 5.37427 16.2428C5.37427 16.2428 5.71713 16.457 6.00856 16.6799C6.29999 16.9028 6.41999 16.9799 6.5057 17.1256C6.59141 17.2713 6.79713 17.6485 6.89141 17.7599C6.9857 17.8713 8.31427 18.2913 8.31427 18.2913L8.93999 18.7628L9.24856 19.4485L8.99999 19.8342L8.52856 19.937L7.7657 19.5942L7.51713 19.2599H7.5257Z" fill="#D2B159"/>
<path fill-rule="evenodd" clip-rule="evenodd" d="M5.82856 16.9028C5.82856 16.9028 5.99142 17.16 6.37713 17.4C6.72856 17.6143 7.27713 17.8028 7.77428 17.9143C8.05713 17.9828 8.33999 18.0343 8.59713 18.0428C9.28285 18.0514 9.75428 17.8543 10.3371 17.7943C10.6543 17.76 11.04 17.7343 11.4428 17.64C11.9571 17.5114 12.2657 17.3743 12.6857 17.1771C12.9857 17.04 13.2686 16.9286 13.4914 16.8C13.8086 16.6114 14.04 16.4057 14.3057 16.3457C14.2714 16.44 14.2371 16.6028 13.9714 16.7657C14.1086 16.7657 14.3057 16.7486 14.3057 16.7486C14.3057 16.7486 14.1171 16.86 13.7914 17.1086C13.5857 17.2628 13.32 17.52 13.0457 17.6914C12.8657 17.8028 12.6771 17.88 12.5486 17.9486C12.24 18.12 12.12 18.2057 11.9143 18.4114C11.9828 18.4114 11.9914 18.4114 11.9914 18.4114C11.9914 18.4114 11.7343 18.4457 11.5543 18.54C11.52 18.54 11.4514 18.5228 11.3314 18.5571C11.2371 18.5828 11.1171 18.6514 10.9971 18.6857C10.8171 18.7371 10.7657 18.7114 10.7657 18.7114L10.7914 18.7714C10.7914 18.7714 10.56 18.7714 10.4828 18.7714C10.5 18.7714 10.4914 18.78 10.4914 18.78C10.4743 18.78 10.4657 18.78 10.4571 18.7971C10.4228 18.8228 10.38 18.84 10.3371 18.8486C10.3114 18.8486 10.2943 18.8486 10.2686 18.8571C10.2771 18.8828 10.3543 19.0114 10.3886 19.0886C10.3628 19.1057 9.9257 19.44 9.9257 19.44C9.94285 19.4571 9.95142 19.4828 9.95999 19.5086C9.97713 19.5514 9.97713 19.6114 9.99428 19.6457C10.0286 19.7057 10.0457 19.7143 10.0457 19.7143C10.0457 19.7143 9.99428 19.7228 9.89999 19.7486C9.82285 19.7657 9.72856 19.8 9.59142 19.8171C9.54856 19.8171 9.5057 19.8257 9.46285 19.8257C9.47999 19.8686 9.5657 20.0314 9.41142 20.22C9.25713 20.4086 9.20571 20.4343 9.15428 20.5543C9.12856 20.5371 9.10285 20.52 9.07713 20.5028C9.02571 20.4771 8.94856 20.4428 8.93142 20.4C8.91428 20.46 8.89713 20.52 8.87142 20.58C8.81999 20.7086 8.75142 20.8371 8.73428 20.9314C8.68285 20.8714 8.58856 20.76 8.45142 20.7857C8.31428 20.8114 8.21142 20.9914 8.1857 21.0428C8.1857 21.0086 8.15999 20.9828 8.15999 21.0257C8.15999 21.0686 8.08285 21.5143 7.67142 21.8743C7.67142 21.78 7.67142 21.5828 7.65428 21.5143C7.61999 21.5486 7.56856 21.6086 7.2857 21.7286C7.01142 21.8486 7.05428 21.9686 7.05428 21.9686C7.05428 21.9686 7.02856 21.78 7.18285 21.5743C7.32856 21.3686 7.42285 21.2743 7.42285 21.2657C7.42285 21.2486 7.41428 21.2314 7.4057 21.2228C7.38856 21.2057 7.3457 21.18 7.3457 21.1628C7.37142 21.1543 7.60285 21.0428 7.58571 20.8114C7.56856 20.6057 7.48285 20.5028 7.42285 20.4257C7.41428 20.4171 7.51713 20.34 7.49999 20.3228C7.49142 20.3057 7.36285 20.22 7.35428 20.1686C7.35428 20.1428 7.36285 20.1086 7.37142 20.0828C7.38856 20.04 7.39713 20.0143 7.38856 19.98C7.37999 19.9286 7.32856 19.8 7.31142 19.7828C7.32856 19.7828 7.42285 19.7828 7.42285 19.7828C7.42285 19.7828 7.3457 19.6543 7.32856 19.6028C7.31142 19.5514 7.2857 19.3886 7.26856 19.3628C7.30285 19.3628 7.37999 19.3714 7.37999 19.3628C7.37999 19.3371 7.31142 19.2857 7.3457 19.2514C7.37142 19.2514 7.41428 19.2771 7.45713 19.3286C7.43142 19.2686 7.39713 19.1486 7.31142 19.0971C7.3457 19.08 7.48285 19.0457 7.59428 19.1143C7.7057 19.1828 7.74856 19.2771 7.74856 19.2771C7.74856 19.2771 7.81713 19.3286 7.91999 19.4057C8.03999 19.5 8.19428 19.6371 8.43428 19.7314C8.4857 19.7571 8.62285 19.7571 8.71713 19.74C8.75999 19.7314 8.80285 19.7143 8.83713 19.6886C8.85428 19.6886 8.86285 19.6714 8.87999 19.6714C8.86285 19.6286 8.83713 19.5857 8.81142 19.5514C8.8457 19.5514 8.87999 19.5514 8.87999 19.5514C8.87999 19.5514 8.9057 19.5 8.79428 19.3971C8.81999 19.3714 8.8457 19.3628 8.8457 19.32C8.81142 19.32 8.75142 19.2686 8.74285 19.2514C8.75999 19.2343 8.79428 19.1914 8.82856 19.1828C8.80285 19.1571 8.72571 19.0628 8.69142 19.0543C8.72571 19.0457 8.75142 19.0286 8.7857 19.0114C8.7857 19.0114 8.62285 18.9686 8.57142 18.9343C8.51999 18.9 8.44285 18.8314 8.39142 18.8057C8.33999 18.7886 8.25428 18.78 8.21999 18.7371C8.25428 18.7457 8.3057 18.7371 8.34856 18.7371C8.37428 18.7371 8.39142 18.7371 8.39999 18.7371C8.39999 18.72 8.39999 18.6943 8.46856 18.6857C8.50285 18.6857 8.53713 18.6686 8.57142 18.6514C8.57142 18.6514 8.50285 18.6514 8.41713 18.5657C8.33142 18.48 8.27142 18.4286 8.21999 18.42C8.16856 18.4114 8.08285 18.4543 8.02285 18.4457C7.9457 18.4371 7.91142 18.3943 7.91142 18.3943C7.91142 18.3943 7.65428 18.42 7.07999 18.0686C6.58285 17.7686 6.36856 17.4943 6.36856 17.4943C6.3257 17.4771 6.27428 17.46 6.23142 17.4343C6.04285 17.34 5.7857 17.1343 5.79428 16.8686L5.82856 16.9028Z" fill="#C2A44D"/>
<path fill-rule="evenodd" clip-rule="evenodd" d="M12.9771 5.24567C13.02 5.26281 13.0629 5.28853 13.0886 5.32281C13.1829 5.42567 13.2343 5.62281 13.0286 5.8371C13.1143 5.86281 13.14 5.87138 13.2171 5.86281C13.1486 5.94853 12.9857 6.12853 12.9686 6.29138C12.96 6.41995 13.0371 6.46281 13.0371 6.46281C13.0371 6.46281 12.9086 6.60853 12.9086 6.84853C12.9686 6.77995 13.0286 6.71995 13.0971 6.66853C13.2429 6.5571 13.44 6.41995 13.5771 6.34281C13.5771 6.3771 13.5771 6.41138 13.5943 6.44567C13.5943 6.44567 13.8429 6.23995 14.0571 6.33424C14.1514 6.3771 14.1086 6.51424 14.1086 6.51424C14.1086 6.51424 14.2371 6.46281 14.3314 6.5571C14.4257 6.65138 14.5543 6.88281 14.6143 6.9771C14.64 7.01995 14.7171 7.10567 14.7943 7.22567C14.8971 7.40567 14.9914 7.58567 15.06 7.78281C15.06 7.67995 15.0857 7.52567 15.3771 7.61995C15.6686 7.72281 15.9943 7.92852 16.2686 8.34853C16.5429 8.76853 16.6114 9.23995 16.7486 9.41138C16.8857 9.58281 17.0314 9.87424 17.04 9.99424C17.0486 10.1142 16.9971 10.5 17.2886 11.5542C17.3743 11.2285 17.4943 10.5 17.4943 10.5L17.5629 9.8571L17.64 7.8771L15.5743 6.16281L13.9629 4.98853L12.9086 5.09138L12.9771 5.2371V5.24567Z" fill="#CAA13E"/>
<path fill-rule="evenodd" clip-rule="evenodd" d="M16.8085 8.18579C16.8085 8.18579 16.7828 7.99722 16.2943 7.67151C15.8057 7.34579 15.4285 7.34579 15.0771 7.07151C14.8114 6.85722 14.5285 6.36008 14.3485 6.19722C14.1685 6.03437 14.1428 5.57151 14.1428 5.57151L14.7428 5.07437L15.6257 3.79722L16.3714 2.97437L16.7314 3.47151L17.2285 4.05437L17.5028 5.22865L17.6057 6.95151L16.8 8.18579H16.8085Z" fill="#B59544"/>
<path fill-rule="evenodd" clip-rule="evenodd" d="M17.4085 10.2513C17.4257 9.99419 17.3914 9.72848 17.3142 9.47991C17.1857 9.08562 16.9028 8.37419 16.7742 8.10848C16.7228 7.81705 16.7571 7.79134 16.8171 7.75705C16.8771 7.72276 17.0828 7.60276 17.2028 7.18276C17.3228 6.76276 17.6828 6.74562 17.6828 6.74562L17.9057 6.58276L18.24 7.42276L18.5314 8.18562L18.6257 8.76848L18.6942 9.26562L18.5314 10.3113L17.7428 11.0228L17.4085 10.2599V10.2513Z" fill="#C89D3A"/>
<path fill-rule="evenodd" clip-rule="evenodd" d="M6.43713 21.9171V21.8913C6.43713 21.8913 6.47142 21.8656 6.47999 21.8571C6.49713 21.8399 6.5057 21.8142 6.51428 21.8056C6.53142 21.7971 6.6257 21.7713 6.67713 21.7799C6.72856 21.7885 6.85713 21.8399 6.9257 21.8399C7.06285 21.8399 7.2257 21.7285 7.48285 21.7799C7.86856 21.8485 7.96285 22.1142 8.18571 22.2685C8.33999 22.3713 8.49428 22.3285 8.51999 22.3285H8.57142C8.57142 22.3285 8.65713 22.2428 8.69142 22.2513C8.76856 22.2513 8.77713 22.3199 8.82856 22.3199C8.93999 22.3371 9.16285 22.2599 9.27428 22.2942C9.34285 22.3113 9.39428 22.3713 9.41142 22.4313C9.43713 22.4999 9.41142 22.5942 9.35999 22.6456C9.23999 22.7571 9.12856 22.8599 9.10285 22.9542C9.12856 22.9799 9.16285 22.9971 9.18856 23.0228C8.22856 22.7742 7.30285 22.4056 6.43713 21.9256V21.9171Z" fill="#CEB052"/>
<path fill-rule="evenodd" clip-rule="evenodd" d="M16.7743 18.0428C16.7743 18.0428 17.0743 17.64 17.1858 17.4428C17.2886 17.2371 16.8515 14.6228 16.8515 14.6228L17.7258 11.7514L17.7001 10.8171C17.7001 10.8171 17.7429 9.95139 17.8458 9.57424C17.9658 9.78853 18.3429 10.0542 18.4201 10.1914C18.4543 9.92567 18.5915 9.36853 18.5658 8.7771C18.6343 8.88853 18.8143 10.0028 18.8143 10.0028L18.9858 10.7485L19.2086 11.5457L19.4572 12.3857L19.6029 12.9685L19.6886 13.1057L19.7572 13.3542L19.8258 13.62L20.0229 14.2371L20.1343 14.7428L20.2286 15.6685C20.2458 15.7371 20.2629 15.8142 20.2715 15.8828C20.2715 15.9857 20.2543 16.0457 20.2543 16.0628C20.2543 16.08 20.2886 16.2857 20.2715 16.44C20.2543 16.5942 20.2543 16.7142 20.1343 16.8257C20.0143 16.9371 19.9372 17.5971 19.9372 17.5971L19.7229 17.4514C19.7229 17.4514 19.7658 17.2542 19.6629 17.0742C19.5601 16.8942 19.3629 16.86 19.2515 16.8857C19.1401 16.9114 18.9172 16.9457 18.8486 17.0057C18.7801 17.0657 18.6172 17.2628 18.4629 17.3485C18.2743 17.46 17.9572 17.4771 17.7943 17.5114C17.6229 17.5457 17.4429 17.6657 17.2458 17.8028C17.0915 17.9057 16.9286 17.9914 16.7572 18.06L16.7743 18.0428Z" fill="#CCA847"/>
<path fill-rule="evenodd" clip-rule="evenodd" d="M16.7743 22.2857C16.7743 22.2857 16.7829 22.2857 16.8086 22.3114C18.1886 21.6686 19.4229 20.7514 20.4429 19.62C20.4343 19.2257 20.4171 18.8229 20.4 18.6771C20.3657 18.36 20.3914 18.0343 20.3829 17.8543C20.3743 17.6743 20.2714 16.9114 20.22 16.7143C20.1686 16.5171 20.0657 16.4229 20.0486 16.4229C20.0314 16.4229 19.9543 16.7914 19.9543 16.8857C19.9543 16.98 19.9371 17.1943 19.9371 17.2543C19.92 17.2543 19.92 17.22 19.92 17.2029C19.9029 17.2543 19.8771 17.34 19.8686 17.3486C19.86 17.3571 19.8857 17.2629 19.8686 17.2457C19.8514 17.2286 19.8343 17.2371 19.8343 17.1857C19.8343 17.16 19.8343 17.1257 19.8514 17.1C19.8514 17.1 19.7914 17.1857 19.7486 17.4C19.7057 17.6143 19.7057 17.6229 19.6886 17.64C19.6714 17.6657 19.5943 17.7429 19.5943 17.7686C19.5943 17.82 19.6629 17.8714 19.6714 17.9057C19.6714 17.9571 19.6029 18.18 19.5771 18.2914C19.5514 18.4029 19.56 18.6171 19.5429 18.7286C19.5257 18.8314 19.5086 18.8914 19.44 18.9343C19.4914 18.9429 19.5343 18.96 19.5343 18.96C19.5343 18.96 19.6029 19.2514 19.4314 19.4914C19.3714 19.5771 19.3543 19.62 19.2857 19.6971C19.1571 19.8429 19.0543 20.0057 19.0457 20.1086C19.0457 20.0743 19.0372 20.0486 19.0286 20.0143C19.0286 20.0143 18.8229 20.2457 18.7371 20.3829C18.6257 20.5543 18.4714 20.5457 18.4286 20.5886C18.3857 20.6314 18.3771 20.7086 18.3943 20.7686C18.36 20.7771 18.2829 20.7943 18.2314 20.94C18.2057 21.0171 18.1457 21.0943 18.06 21.1457C17.9743 21.1971 17.8543 21.2143 17.8029 21.2314C17.8543 21.2486 17.8714 21.2486 17.8971 21.2571C17.8714 21.3086 17.7343 21.3857 17.5886 21.48C17.4429 21.5743 17.3657 21.7029 17.3314 21.7886C17.2971 21.8743 17.2371 21.9257 17.1429 21.9343C17.1771 21.96 17.2371 22.0114 17.2714 22.0286C17.2286 22.0371 17.16 22.0371 17.0229 22.1486C16.8857 22.26 16.8429 22.2943 16.7743 22.3029V22.2857Z" fill="#C39D3C"/>
<path fill-rule="evenodd" clip-rule="evenodd" d="M14.0743 23.1857C14.1515 23.1342 14.2286 23.0914 14.3143 23.0571C14.6143 22.9371 14.9401 22.9114 15.0601 22.8771C15.1801 22.8428 15.2743 22.7828 15.4286 22.7571C15.4286 22.7914 15.4286 22.8257 15.4201 22.8514C14.9829 22.9885 14.5286 23.0999 14.0743 23.1857Z" fill="#D2BA6B"/>
<path fill-rule="evenodd" clip-rule="evenodd" d="M19.6628 15.2143C19.6628 15.2143 19.6028 15.5486 19.4914 15.7629C19.38 15.9772 19.26 16.2686 19.26 16.2686C19.26 16.2 19.26 16.14 19.2857 16.0715C19.1485 16.1572 18.8057 16.3458 18.7114 16.44C18.6171 16.5258 18.4628 16.6629 18.4285 16.7315C18.5228 16.4658 18.6171 16.2257 18.6342 16.1143C18.4971 16.2172 17.8457 16.7572 17.5028 17.1086L16.4485 17.9657C16.3285 18.0343 16.2 18.0943 16.0714 18.1458C15.8914 18.2229 15.6771 18.2915 15.5142 18.3515C15.5571 18.24 15.6257 18.1372 15.72 18.0429C15.8228 17.9486 16.1228 17.6229 16.1742 17.4686C16.2171 17.3057 16.2257 17.2115 16.1742 17.0829C16.1228 17.1 16.0028 17.1 15.9171 17.1257C15.8314 17.1515 15.7457 17.2372 15.7457 17.2372C15.7457 17.2372 15.8057 16.8857 15.9428 16.5429C15.84 16.5429 15.6685 16.5772 15.6685 16.5772C15.6685 16.5772 15.9085 16.1743 16.32 15.8915C16.1914 15.9172 16.0714 15.96 15.9514 16.0029C15.7114 16.1058 15.4457 16.2515 15.2485 16.3372C15.36 16.1829 16.14 15.0772 16.5942 14.04C17.0571 13.0115 17.2285 12.7458 17.3314 12.1886C17.3828 11.9143 17.3657 11.5115 17.3828 11.1515C17.4 10.7915 17.4428 10.4658 17.4085 10.2515C17.5285 10.3972 17.9828 10.8258 17.9914 11.76C18.0085 12.7029 17.5628 13.9715 17.0914 14.6572C17.2028 14.6915 17.5028 14.7257 17.8114 14.1943C18.12 13.6629 18.1114 13.5086 18.2228 13.2943C18.24 13.4058 18.2314 13.44 18.2314 13.44C18.2314 13.44 18.6771 12.9 18.8914 12.2143C18.9342 12.5058 19.0628 12.7629 18.8657 13.3029C18.6857 13.7915 18.4542 13.9029 18.4542 13.9029C18.4542 13.9029 18.5657 13.8858 18.7371 13.7829C18.7628 13.8515 18.7628 13.9372 18.8057 13.9629C18.8485 13.9886 18.9171 14.04 18.9342 14.0915C18.9857 14.0143 19.0714 13.9115 19.0971 13.8429C19.08 13.9972 19.0628 14.6658 19.1314 15.0086C19.2771 14.9915 19.4314 14.9829 19.5428 14.7172C19.4742 14.9829 19.4742 15.1372 19.5171 15.3686C19.5942 15.3172 19.6714 15.2143 19.6714 15.2143H19.6628Z" fill="#C0993A"/>
<path fill-rule="evenodd" clip-rule="evenodd" d="M14.6143 4.50862C14.6143 4.50862 14.4686 4.56862 14.2115 4.56862C13.9886 4.56862 14.0486 4.48291 13.7058 4.48291C13.1743 4.48291 11.3143 4.79148 10.9886 4.78291C10.7743 4.78291 11.7 4.8772 11.7 4.8772L14.0658 4.91148L14.5372 4.8772L14.7172 4.5172H14.6058L14.6143 4.50862Z" fill="#A88F33"/>
<path fill-rule="evenodd" clip-rule="evenodd" d="M8.47712 9.13709C8.47712 9.13709 8.17712 9.36852 8.04855 9.54852C7.91997 9.72852 7.8514 9.83995 7.70569 9.98567C7.73997 9.98567 7.77426 9.98567 7.80855 9.96852C7.80855 9.96852 7.80855 10.0028 7.78283 10.02C7.82569 10.02 7.85997 10.0285 7.89426 10.0542C7.8514 10.08 7.7314 10.1914 7.82569 10.3285C7.89426 10.4314 8.03997 10.44 8.03997 10.44C8.03997 10.44 8.00569 10.5342 8.14283 10.5257C8.44283 10.5085 8.76855 10.38 8.92283 10.4142C9.07712 10.4485 9.16283 10.4657 9.27426 10.6542C9.38569 10.8428 9.48855 10.8685 9.48855 10.8685C9.48855 10.8685 9.55712 10.6971 9.53997 10.44C9.59997 10.3028 9.62569 10.1571 9.63426 10.0028L9.5314 9.25709L9.09426 8.69995L8.51997 9.01709L8.47712 9.12852V9.13709Z" fill="#E3C571"/>
<path fill-rule="evenodd" clip-rule="evenodd" d="M9.01717 9.02569C9.01717 9.02569 9.06003 9.12855 9.24003 9.13712C9.22288 9.17998 9.22288 9.18855 9.22288 9.22284C9.22288 9.25712 9.23146 9.30855 9.23146 9.30855C9.2486 9.29998 9.26574 9.28284 9.28288 9.27426C9.29146 9.31712 9.27431 9.38569 9.28288 9.43712C9.28288 9.46284 9.30003 9.49712 9.3086 9.52284C9.3086 9.52284 9.3086 9.50569 9.31717 9.50569C9.31717 9.49712 9.35146 9.60855 9.45431 9.69427C9.45431 9.67712 9.45431 9.66855 9.46288 9.65998C9.46288 9.68569 9.47145 9.71141 9.4886 9.72855C9.4886 9.72855 9.47146 9.72855 9.47146 9.71141C9.47146 9.71141 9.48003 10.02 9.53146 10.1743C9.54003 10.1657 9.5486 10.1571 9.55717 10.14C9.55717 10.1314 9.55717 10.2257 9.54003 10.2943C9.52288 10.3628 9.54003 10.4571 9.54003 10.4571C9.57431 10.4314 9.61717 10.4057 9.65146 10.3886C9.71146 10.3628 9.80574 10.2943 9.86574 10.1314C9.90003 10.0371 9.92574 9.95141 9.94288 9.85712C9.96003 9.89141 9.97717 9.93426 9.97717 9.96855C9.97717 10.02 10.0715 9.99426 10.0715 9.99426L10.0886 9.77998L10.2 9.29998L10.3029 8.99998L10.8086 8.21141L11.7172 7.50855L12.5143 7.68855L13.1829 6.77998L12.0257 6.08569L10.9286 6.19712L9.93431 7.57712L9.13717 8.82855L8.99146 9.03426L9.01717 9.02569Z" fill="#D8B65B"/>
<path fill-rule="evenodd" clip-rule="evenodd" d="M14.7514 7.03713C14.7514 7.03713 14.6829 7.05428 14.4857 7.14856C14.2886 7.24285 14.1514 7.28571 14.0743 7.43142C13.9972 7.57713 13.9886 7.69713 13.9886 7.69713C13.9886 7.69713 14.1257 7.63714 14.2029 7.61999C14.2886 7.60285 14.3743 7.60285 14.3657 7.63713C14.3572 7.66285 14.34 7.67999 14.3314 7.69713C14.3314 7.69713 14.4857 7.69713 14.4772 7.76571C14.4686 7.83428 14.4514 7.92856 14.4172 7.96285C14.3914 7.99713 14.2714 8.05713 14.2543 8.09999C14.22 8.19428 14.2714 8.19428 14.2543 8.27142C14.2372 8.33999 14.1772 8.48571 13.9629 8.72571C13.7486 8.97428 13.6543 9.14571 13.6543 9.14571C13.6543 9.14571 13.5514 8.94856 13.4914 8.77713C13.4572 8.79428 13.2429 8.91428 13.2429 8.91428L12.7629 7.25142V7.13999C12.7629 7.13999 12.8143 7.08856 12.8229 6.99428C12.7543 6.96856 12.7372 6.95142 12.6429 6.85713C12.5486 6.76285 12.4714 6.65142 12.3086 6.58285C12.2829 6.53999 12.2572 6.47999 12.1372 6.45428C12.0172 6.42856 11.9486 6.41142 11.9486 6.41142C11.9486 6.41142 12.0086 6.38571 12.0429 6.34285C11.9743 6.35142 11.9143 6.37713 11.7514 6.36856C11.5886 6.36856 11.5714 6.35999 11.4857 6.36856C11.4 6.37713 11.2972 6.41999 11.2543 6.28285C11.2114 6.24856 11.1172 6.28285 11.04 6.39428C10.9629 6.50571 10.9372 6.59999 10.7829 6.64285C10.7743 6.71142 10.7486 6.77142 10.7143 6.83142C10.6714 6.89999 10.6029 6.97713 10.5086 7.07999C10.3629 7.25142 10.3886 7.52571 10.1572 7.73999C9.92573 7.95428 10.1914 7.15714 10.1914 7.15714L10.56 6.27428L11.6143 5.24571L13.2429 5.13428L13.4057 5.98285L14.2029 6.25713L14.7086 7.01999L14.7514 7.03713Z" fill="#D3AE4D"/>
<path fill-rule="evenodd" clip-rule="evenodd" d="M15.0172 7.22563L14.3315 6.23991L13.8515 5.87134C13.8515 5.87134 13.5086 5.24563 13.4829 5.21991C13.4657 5.20277 13.14 5.16848 12.9343 5.15991L12.9686 5.2542C13.0115 5.27134 13.0543 5.29705 13.08 5.33134C13.1743 5.4342 13.2257 5.63134 13.02 5.84563C13.1057 5.87134 13.1315 5.87991 13.2086 5.87134C13.14 5.95705 12.9772 6.13705 12.96 6.29991C12.9515 6.42848 13.0286 6.47134 13.0286 6.47134C13.0286 6.47134 12.9 6.61705 12.9 6.85705C12.96 6.78848 13.02 6.72848 13.0886 6.67706C13.2343 6.56563 13.4315 6.42848 13.5686 6.35134C13.5686 6.38563 13.5686 6.41991 13.5857 6.4542C13.5857 6.4542 13.8343 6.24848 14.0486 6.34277C14.1429 6.38563 14.1 6.52277 14.1 6.52277C14.1 6.52277 14.2286 6.47134 14.3229 6.56563C14.4172 6.65991 14.5457 6.89134 14.6143 6.98563C14.64 7.02848 14.7172 7.1142 14.7943 7.2342C14.8972 7.4142 14.9915 7.5942 15.06 7.79134C15.06 7.7142 15.0772 7.60277 15.2143 7.60277L15.0086 7.2342L15.0172 7.22563Z" fill="#CAA13E"/>
<path fill-rule="evenodd" clip-rule="evenodd" d="M4.74002 10.0285C4.74002 10.0285 4.68859 9.90849 4.74002 9.67706C4.79145 9.44564 4.86859 9.33421 4.88573 8.98278C4.90288 8.63135 5.13431 8.20278 5.13431 8.20278L5.76002 7.91992L6.19716 8.03992L6.32573 8.63135L5.76859 8.93992C5.76859 8.93992 5.74288 9.06849 5.58002 9.17135C5.41716 9.27421 5.20288 9.35992 5.15145 9.46278C5.11716 9.53135 5.10002 9.59992 5.08288 9.66849C5.08288 9.66849 4.92002 9.63421 4.82573 9.73706C4.72288 9.83992 4.73145 9.94278 4.72288 10.0199L4.74002 10.0285Z" fill="#F4EFC8"/>
<path fill-rule="evenodd" clip-rule="evenodd" d="M5.99995 9.87436C5.99995 9.87436 5.94852 9.90865 5.90566 9.98579C5.87137 9.92579 5.77709 9.55722 5.76852 9.22293C5.75995 8.88865 5.7428 8.8115 5.81995 8.6915C5.89709 8.5715 6.19709 8.46008 6.15423 8.25436C6.11137 8.05722 5.93138 7.98008 5.71709 8.0315C5.5628 8.06579 5.45138 8.40007 5.28852 8.56293C5.16852 8.6915 5.0228 8.66579 4.98852 8.73436C4.93709 8.82865 4.98852 8.91436 4.97138 8.97436C4.97138 8.9915 4.91995 9.10293 4.83423 9.22293C4.65423 9.48008 4.3628 9.84008 4.31995 10.1572C4.33709 9.97722 4.31995 9.96865 4.37137 9.7715L4.34566 9.72008L4.53423 9.09436L4.6628 8.58008L4.93709 7.71436L5.42566 6.82293L5.90566 6.2915L6.4028 6.32579L6.4628 7.0715L6.74566 8.46865L7.34566 9.20579L6.39423 9.84865L6.01709 9.88293L5.99995 9.87436Z" fill="#EBCC73"/>
<path fill-rule="evenodd" clip-rule="evenodd" d="M6.29141 10.1399C6.29141 10.1399 6.20569 10.157 6.17998 10.1399C6.15426 10.1227 6.11998 10.1056 6.12855 10.0885C6.13712 10.0713 6.18855 10.037 6.18855 10.0199C6.18855 9.99417 6.17141 9.96845 6.13712 9.95988C6.09426 9.95988 6.07712 9.9856 6.07712 9.9856C6.07712 9.9856 6.03426 9.95131 5.99998 9.95131C6.01712 9.95131 6.04284 9.95131 6.05998 9.95131C6.00855 9.9256 5.94855 9.90845 5.88855 9.89988C5.93998 9.87417 6.03426 9.78845 6.09426 9.78845C6.15426 9.78845 6.19712 9.77988 6.18855 9.7456C6.17998 9.71131 6.12855 9.65988 6.07712 9.64274C6.09426 9.61703 6.11141 9.58274 6.05998 9.48845C6.00855 9.39417 6.03426 9.3256 6.04284 9.30845C6.05998 9.28274 6.10284 9.22274 6.12855 9.19702C6.15426 9.17131 6.17141 9.11988 6.21426 9.09417C6.23141 9.07702 6.29998 9.05988 6.35998 9.03417C6.42855 9.00845 6.48855 8.98274 6.52284 9.00845C6.56569 9.03417 6.54855 9.07703 6.54855 9.07703C6.54855 9.07703 6.68569 9.0256 6.80569 9.09417C6.92569 9.15417 7.21712 9.18845 7.21712 9.18845L7.31998 9.40274L6.62569 10.0027L6.33426 10.1485H6.27426V10.157L6.29141 10.1399Z" fill="#E5C66B"/>
<path fill-rule="evenodd" clip-rule="evenodd" d="M7.26005 9.16282C7.26005 9.16282 7.04576 9.30854 6.99433 9.35996C7.02005 9.35996 7.07148 9.38568 7.05433 9.41139C7.02862 9.43711 6.89148 9.53996 6.81433 9.63425C6.72862 9.72853 6.65148 9.84854 6.62576 9.90854C6.60005 9.95996 6.37719 10.1142 6.30005 10.1314C6.46291 10.1314 6.78005 9.93425 6.90005 9.93425C6.90005 9.99425 6.93433 10.0628 7.00291 10.0628C7.07148 10.0628 7.26862 10.1057 7.53433 9.94282C7.80005 9.77996 7.71433 9.66853 7.82576 9.59139C8.04005 9.45425 8.12576 9.32568 8.23719 9.24854C8.34862 9.17139 8.41719 9.15425 8.41719 9.15425C8.41719 9.15425 8.41719 9.09425 8.45148 9.10282C8.46862 9.10282 8.48576 9.11996 8.49433 9.13711C8.49433 9.13711 8.70005 8.99139 8.95719 8.95711C8.95719 8.95711 8.94862 8.95711 8.94005 8.93996C8.94005 8.93996 8.95719 8.93139 8.96576 8.92282C8.96576 8.92282 8.98291 8.90568 8.99148 8.91425C9.00005 8.92282 9.01719 8.99996 9.03433 9.02568C9.07719 9.00853 9.16291 8.81996 9.16291 8.81996L9.36005 8.26282V7.74854L9.20576 7.77425L8.05719 8.26282L7.35433 8.99139L7.26862 9.16282H7.26005Z" fill="#E6BD62"/>
<path fill-rule="evenodd" clip-rule="evenodd" d="M10.5771 6.65145C10.6371 6.6343 10.6971 6.60859 10.7571 6.58287C10.7314 6.64287 10.7314 6.71145 10.6285 6.85716C10.5257 7.00287 10.5257 7.02859 10.4399 7.18287C10.3542 7.34573 10.3457 7.56859 10.2685 7.67145C10.3028 7.6543 10.3371 7.64573 10.3799 7.63716C10.3799 7.63716 10.3028 7.70573 10.2685 7.7743C10.2342 7.84287 10.1742 7.99716 10.0371 8.08287C9.89995 8.16859 9.71138 8.22859 9.51423 8.45145C9.31709 8.66573 9.11995 8.93145 9.01709 9.02573C9.06852 8.93145 9.14566 8.75145 9.1628 8.63145C9.17995 8.51145 9.1628 8.36573 9.18852 8.21145C9.21423 8.05716 9.2228 7.93716 9.37709 7.66287C9.53137 7.38859 9.80566 6.42002 9.80566 6.42002L10.3885 6.23145L10.5685 6.65145H10.5771Z" fill="#B6933F"/>
<path fill-rule="evenodd" clip-rule="evenodd" d="M10.1485 6.29153C10.1485 6.29153 9.96854 6.54867 9.92568 6.77153C9.87425 6.99438 9.92568 6.97724 9.8914 7.08867C9.87425 7.15724 9.87425 7.22581 9.8914 7.29438C9.9514 7.2001 10.0371 7.11438 10.14 7.05438C10.3028 6.95153 10.44 6.88295 10.5257 6.79724C10.6114 6.70295 10.6714 6.55724 10.8514 6.44581C10.7828 6.43724 10.68 6.40295 10.6628 6.41153C10.7314 6.32581 10.9543 6.20581 11.1685 6.0601C11.3828 5.90581 11.3743 5.84581 11.7171 5.69153C11.6057 5.70867 11.5457 5.68295 11.4514 5.69153C11.4857 5.60581 11.6228 5.57153 11.76 5.43438C11.8971 5.29724 11.6743 5.1001 11.6743 5.1001L10.6543 5.71724L10.1571 6.3001L10.1485 6.29153Z" fill="#C49937"/>
<path fill-rule="evenodd" clip-rule="evenodd" d="M7.37146 5.82863L7.39717 5.64863L7.6886 5.1772L7.99717 4.34577V3.22292L7.97146 2.57149L8.02289 2.14292L8.05717 2.00577L8.10003 1.95435L8.3486 2.08292L8.69146 2.55435L8.72575 3.46292L8.39146 4.89435L7.43146 5.94006L7.37146 5.82863Z" fill="#DFC068"/>
<path fill-rule="evenodd" clip-rule="evenodd" d="M8.13428 1.90292C8.13428 1.90292 7.98 1.90292 7.94571 2.54577C7.91143 3.18863 7.89428 3.52292 7.87714 3.84006C7.86 4.1572 7.8 4.34577 7.77428 4.53435C7.74857 4.72292 7.73143 4.97149 7.64571 5.13434C7.61143 5.20292 7.52571 5.43435 7.33714 5.5972C7.12286 5.78577 6.79714 5.91434 6.75429 5.92292C6.66857 5.94006 6.24 5.98292 6.06 6.08577C6 6.12006 5.88857 6.15435 5.76857 6.26577C5.53714 6.48006 5.22 6.8572 4.99714 7.31149C4.65428 7.9972 4.30286 9.9172 4.30286 9.9172L4.38 9.78863C4.38 9.78863 4.38857 9.6172 4.56 9.30863C4.73143 9.00863 4.68 8.66577 4.91143 8.08292C5.00571 7.86006 5.11714 7.5772 5.25429 7.32863C5.47714 6.93435 5.74286 6.59149 6.01714 6.40292C6.45429 6.10292 6.94286 6.03434 6.94286 6.03434L7.46571 5.69149C7.46571 5.69149 7.56 5.51149 7.68 5.31434C7.85143 5.03149 8.06571 4.71435 8.10857 4.25149C8.17714 3.56577 8.00571 3.12006 8.01429 2.7172C8.02286 2.31435 8.03143 2.01434 8.10857 1.94577C8.18571 1.8772 8.13428 1.90292 8.13428 1.90292Z" fill="#A88F33"/>
<path fill-rule="evenodd" clip-rule="evenodd" d="M8.13423 4.94568C8.13423 4.94568 8.36566 4.37997 8.46851 3.87425C8.48566 3.7714 8.52851 3.66854 8.53709 3.5914C8.58851 3.1114 8.59709 2.92283 8.53709 2.65711C8.48566 2.46854 8.30566 2.28854 8.2028 2.15997C8.10851 2.02283 8.06566 1.9714 8.0828 1.93711C8.09994 1.90283 8.17709 1.85997 8.25423 1.86854C8.40851 1.86854 8.5628 1.94568 8.66566 2.05711C8.81137 2.22854 8.93137 2.81997 8.93137 2.81997L9.05994 3.5914L9.37709 4.56854L8.13423 4.94568Z" fill="#C99E3D"/>
<path fill-rule="evenodd" clip-rule="evenodd" d="M10.3029 4.36289C10.3029 4.36289 10.26 4.38003 10.1829 4.36289C10.1829 4.43146 10.1572 4.49146 10.1057 4.52575C10.02 4.49146 9.25717 4.56003 9.25717 4.56003C9.25717 4.56003 8.90574 4.50003 8.79432 4.0286C8.71717 3.72003 8.85432 3.28289 8.81146 3.00003C8.74289 2.58003 8.6486 2.50289 8.64003 2.37432C8.63146 2.24575 8.62289 2.21146 8.62289 2.12575C8.58003 2.11718 8.55432 2.10003 8.51146 2.10003C8.50289 2.06575 8.52003 2.03146 8.47717 1.96289C8.50289 1.97146 8.65717 1.9886 8.84574 2.1686C9.00003 2.31432 9.00003 2.36575 9.02574 2.39146C9.05146 2.41718 9.29146 2.62289 9.39432 2.82003C9.49717 3.01718 9.69432 3.66003 9.73717 3.76289C9.75432 3.80575 9.78003 3.8486 9.8486 3.94289C9.96003 4.08003 10.1229 4.31146 10.3115 4.35432L10.3029 4.36289Z" fill="#B58634"/>
<path fill-rule="evenodd" clip-rule="evenodd" d="M9.04285 2.3999C9.16285 2.58847 9.2657 2.78562 9.35999 2.99133C9.47142 3.24847 9.53999 3.46276 9.6857 3.63419C9.60856 3.41133 9.47142 2.96562 9.3857 2.81133C9.29142 2.64847 9.11142 2.46847 9.04285 2.3999Z" fill="#A88F33"/>
<path fill-rule="evenodd" clip-rule="evenodd" d="M7.72283 5.58862C7.72283 5.58862 7.52569 5.64005 7.16569 5.82862C7.04569 5.88862 6.93426 5.94005 6.82283 5.99148C6.5314 6.12005 6.22283 6.24005 5.98283 6.30862C5.99997 6.33434 6.00854 6.34291 6.00854 6.34291C6.00854 6.34291 6.00854 6.43719 6.05997 6.48862C6.03426 6.51434 5.63997 6.78005 5.75997 7.66291C5.83712 7.63719 5.9314 7.59434 5.93997 7.59434C5.96569 7.59434 5.96569 7.66291 5.99997 7.66291C6.03426 7.66291 6.12854 7.62862 6.22283 7.49148C6.22283 7.54291 6.16283 8.07434 6.4714 8.42577C6.5314 8.35719 6.67712 8.13434 6.67712 8.13434V8.06577C6.67712 8.06577 6.69426 7.81719 6.77997 7.58577C6.86569 7.35434 7.01997 7.19148 7.01997 7.19148L7.8514 6.00862L7.72283 5.58862Z" fill="#E6C367"/>
<path fill-rule="evenodd" clip-rule="evenodd" d="M6.94282 7.3372C6.94282 7.3372 6.86567 7.38863 6.81425 7.3972C6.7971 7.34577 6.77996 7.18292 6.89996 7.02006C7.0371 6.82292 7.32853 6.56577 7.40567 6.36863C7.4571 6.24006 7.43139 5.91434 7.90282 5.49434C8.37425 5.07434 8.55425 4.9372 8.55425 4.9372L9.30853 4.56006L10.2342 4.92863L9.77139 6.72863L9.41139 7.5772L7.98853 7.31149L6.93425 7.34577L6.94282 7.3372Z" fill="#DCBA5A"/>
<path fill-rule="evenodd" clip-rule="evenodd" d="M7.49146 6.8485L7.67146 6.62564V6.47136C7.67146 6.47136 7.8686 6.41993 8.08288 6.20564C8.29717 5.99136 8.5886 5.57993 8.84574 5.60564C9.10288 5.63136 9.1286 6.16279 9.13717 6.31707C9.14574 6.47136 9.18003 6.80564 9.23146 6.98564C9.29146 7.16564 8.60574 7.85993 8.60574 7.85993L8.14288 8.21136L7.50003 6.8485H7.49146Z" fill="#E9CE77"/>
<path fill-rule="evenodd" clip-rule="evenodd" d="M8.03137 8.69154C8.03137 8.69154 8.17709 8.46868 8.06566 8.41725C8.12566 8.28011 8.24566 8.12582 8.24566 8.12582C8.24566 8.12582 8.33137 7.92011 8.58852 7.67154C8.84566 7.42297 9.01709 7.26011 9.05994 7.08868C9.08566 6.97725 9.1028 6.86582 9.1028 6.75439C9.12851 6.78011 9.1628 6.79725 9.19709 6.81439C9.23994 6.83154 9.44566 7.00297 9.41137 7.33725C9.37709 7.67154 9.25709 7.81725 9.25709 7.81725C9.25709 7.81725 9.13709 7.93725 9.05137 7.99725C8.95709 8.05725 8.9228 8.13439 8.77709 8.13439C8.79423 8.12582 8.81137 8.10868 8.82852 8.10868C8.82852 8.10868 8.66566 8.09154 8.57994 8.16868C8.49423 8.24582 8.31423 8.48582 8.21994 8.55439C8.12566 8.61439 8.03137 8.68297 8.03137 8.68297V8.69154Z" fill="#CDAE50"/>
<path fill-rule="evenodd" clip-rule="evenodd" d="M14.4943 4.91154C14.2629 4.82582 14.0229 4.78297 13.7829 4.7744C13.3714 4.75725 12.78 4.78297 12.1972 4.79154C11.5714 4.79154 10.9972 4.57725 10.2086 4.5344C10.08 4.45725 9.74573 4.1144 8.71716 4.8344C8.77716 4.8344 9.46288 4.67154 9.70288 4.97154C9.94288 5.27154 9.87431 5.77725 9.84002 5.89725C9.78002 6.16297 9.57431 6.55725 9.49716 6.83154C9.42002 7.10582 9.43716 7.25154 9.37716 7.44011C9.31716 7.62868 9.18859 7.73154 9.26573 7.94582C9.36859 7.88582 9.42002 7.88582 9.59145 7.50868C9.76288 7.13154 9.72859 6.85725 10.0029 6.54011C10.2772 6.2144 10.7314 5.77725 10.9029 5.66582C11.0743 5.5544 12.4543 4.84297 13.8943 5.52011C14.2457 5.48582 14.5029 4.91154 14.5029 4.91154H14.4943Z" fill="#D2A83E"/>
<path fill-rule="evenodd" clip-rule="evenodd" d="M9.28282 4.64567C9.28282 4.64567 9.28282 4.61996 9.27425 4.60282C9.2571 4.5771 9.23996 4.55139 9.22282 4.52567C9.22282 4.52567 8.87996 4.46567 8.70853 4.48282C8.40853 4.5171 8.13425 4.89425 8.00568 5.08282C7.8771 5.27139 7.71425 5.57139 7.54282 5.72567C7.54282 5.70853 7.54282 5.69139 7.53425 5.68282C7.53425 5.68282 7.54282 5.69996 7.52568 5.7171C7.50853 5.73425 7.50853 5.74282 7.51711 5.75139L7.54282 5.7771C7.54282 5.7771 7.8171 5.6571 8.18568 5.31425C8.57139 4.96282 8.87139 4.77425 9.02568 4.71425C9.11139 4.67996 9.1971 4.65425 9.28282 4.6371V4.64567Z" fill="#C29637"/>
<path fill-rule="evenodd" clip-rule="evenodd" d="M15.9086 3.18848C15.9086 3.18848 15.8486 3.26562 15.7714 3.35133C15.6 3.53133 15.3771 3.73705 15.18 3.95133C15 4.15705 14.7943 4.31133 14.5629 4.57705C14.3314 4.84276 14.0657 5.13419 13.9971 5.21991C13.9371 5.30562 13.8857 5.44276 13.8857 5.51991C13.8514 5.49419 13.8171 5.46848 13.8171 5.46848C13.8343 5.50276 13.8514 5.52848 13.8771 5.55419C13.9286 5.62276 13.9971 5.70848 14.04 5.7599C14.0914 5.82848 14.1257 5.90562 14.1429 5.98276C14.1686 5.98276 14.3143 6.01705 14.5029 5.70848C14.6914 5.3999 14.9314 5.06562 14.9314 5.06562L15.3171 4.49133L15.5657 4.00276L15.8743 3.45419L15.9171 3.19705L15.9086 3.18848Z" fill="#AC8132"/>
<path fill-rule="evenodd" clip-rule="evenodd" d="M16.3114 2.79419C16.3114 2.79419 16.08 2.98276 15.9857 3.10276C15.8914 3.22276 15.6771 3.52276 15.6771 3.52276H15.7543L16.1486 3.16276L16.3028 2.88848V2.79419H16.3114Z" fill="#A88F33"/>
<path fill-rule="evenodd" clip-rule="evenodd" d="M16.2428 18.2229C16.2428 18.2229 16.2428 18.0601 16.3285 17.9658C16.4228 17.8715 16.6543 17.7344 16.8771 17.2029C17.1 16.6715 17.1257 16.5601 17.1257 16.5601C17.1257 16.5601 16.7228 16.9029 16.4743 16.9887C16.5343 16.8687 16.5685 16.7829 16.5943 16.7229C16.56 16.6972 16.4228 16.6629 16.4057 16.6458C16.4828 16.5687 16.5257 16.3801 16.68 16.2515C16.8857 16.0972 17.2543 15.8315 17.5371 15.6001C17.82 15.3687 18.3857 14.8201 18.4628 14.6572C18.5057 14.7172 18.5143 14.7601 18.5143 14.7601C18.5143 14.7601 18.2314 15.1287 18.0857 15.3601C17.9571 15.5658 17.9657 15.6772 17.9657 15.6772L18.2314 15.5658C18.2314 15.5658 18.3085 15.8572 17.9571 16.2944C18.1114 16.2344 18.1714 16.2687 18.2571 16.2258C18.1114 16.3201 17.9143 16.4401 17.7257 16.7829C17.5457 17.1258 17.2971 17.5201 16.8771 17.7687C16.4657 18.0344 16.2343 18.2229 16.2343 18.2229H16.2428Z" fill="#A67A2E"/>
<path fill-rule="evenodd" clip-rule="evenodd" d="M15.1886 5.10863C15.1886 5.10863 15.0258 5.44291 15.0086 5.70006C15.0086 5.76006 14.9915 5.81148 14.9915 5.88006C14.9915 6.11148 15.0086 6.36863 14.9572 6.48863C14.94 6.4372 14.9315 6.40291 14.9058 6.38577C14.88 6.47148 14.82 6.72006 14.7772 6.81434C14.76 6.75434 14.7172 6.54006 14.7172 6.28291C14.7172 6.02577 14.7258 5.98291 14.7258 5.93148C14.7172 6.00863 14.6658 6.11148 14.64 6.18006C14.6143 6.12863 14.58 6.06006 14.5372 6.00006C14.5115 6.03434 14.4858 6.09434 14.46 6.12863C14.46 6.10291 14.4429 6.04291 14.4429 5.9572C14.4429 5.85434 14.4343 5.72577 14.4429 5.70006C14.4515 5.64863 14.5372 5.44291 14.7086 5.25434C14.9143 5.03148 15.1286 4.59434 15.1886 4.46577C15.2486 4.3372 15.5143 3.77148 15.5143 3.77148H15.72L15.4286 4.44006C15.4286 4.44006 15.2486 4.80863 15.1629 4.9372C15.0772 5.06577 14.88 5.45148 14.7943 5.60577C14.8543 5.52006 14.9058 5.4772 14.9743 5.40006C15.0343 5.34863 15.1972 5.10863 15.1972 5.10863H15.1886Z" fill="#8C6228"/>
<path fill-rule="evenodd" clip-rule="evenodd" d="M16.3115 2.76855C16.2772 2.87141 16.2258 2.9657 16.1572 3.04284C16.0372 3.18855 15.78 3.37713 15.6515 3.53141C15.54 3.67713 15.3086 4.08855 15.4115 4.56855C15.4458 4.4657 15.5229 4.25998 15.7115 4.01998C15.9 3.77998 16.1058 3.51427 16.2086 3.30855C16.3115 3.09427 16.32 2.93141 16.32 2.93141L16.3543 2.87998L16.3286 2.76855H16.2943H16.3115Z" fill="#CBA94C"/>
<path fill-rule="evenodd" clip-rule="evenodd" d="M20.2458 15.6513C20.2458 15.6513 20.1686 15.437 20.1429 15.2485C20.1172 15.0599 20.1772 15.017 20.1086 14.7942C20.0658 14.657 19.9886 14.6828 19.9715 14.657C19.9543 14.6313 19.9372 14.4342 19.9458 14.3228C19.9543 14.2113 19.9458 14.0656 19.92 14.0056C19.8943 13.9799 19.8686 13.9628 19.8258 13.817C19.7743 13.6713 19.7572 13.6028 19.7315 13.5599C19.7058 13.517 19.6372 13.4742 19.6372 13.4313C19.6372 13.3456 19.7143 13.3028 19.7143 13.277C19.7143 13.2256 19.6543 13.2685 19.6372 13.2513C19.62 13.2256 19.6886 13.0885 19.6629 13.0713C19.6543 13.0628 19.5858 13.1399 19.5686 13.1228C19.5515 13.097 19.5258 12.8656 19.4915 12.7113C19.4572 12.5656 19.4229 12.4542 19.4229 12.4113C19.4229 12.3685 19.1572 11.6142 19.0886 11.4342C19.0372 11.2799 18.9943 11.1256 18.96 10.9628C18.9429 10.8685 18.9258 10.6885 18.9172 10.7056C18.9086 10.7228 18.9172 10.817 18.9 10.817C18.8829 10.817 18.84 10.4828 18.8229 10.4313C18.8058 10.3799 18.7286 10.1999 18.7115 10.0713C18.6943 9.94275 18.6515 9.5999 18.6172 9.36847C18.5829 9.13704 18.5743 9.04275 18.5743 8.98275C18.5743 8.83704 18.5743 8.6999 18.5486 8.56275C18.5143 8.31418 18.4372 8.02275 18.3686 7.85133C18.24 7.52561 17.8886 6.69418 17.8286 6.4799C17.8286 6.42847 17.8972 6.45418 17.8972 6.45418C17.8972 6.45418 18.0686 6.87418 18.1886 7.1999C18.3086 7.52561 18.42 7.81704 18.4543 7.84275C18.48 7.86847 18.66 8.19418 18.7458 8.71704C18.8315 9.2399 18.8572 9.72847 18.9086 10.0456C18.9343 10.1999 18.9515 10.3628 19.0029 10.5256C19.0543 10.7056 19.14 10.8856 19.2429 11.1685C19.3372 11.3999 19.4058 11.597 19.44 11.7685C19.4829 11.9828 19.4829 12.1456 19.5086 12.257C19.5343 12.3513 19.5686 12.5313 19.6458 12.797C19.7229 13.0628 19.8515 13.397 19.9286 13.6113C20.0915 14.0313 20.16 14.3913 20.1858 14.5799C20.2029 14.777 20.28 15.4456 20.2629 15.6513H20.2458Z" fill="#A88F33"/>
<path fill-rule="evenodd" clip-rule="evenodd" d="M16.3285 2.74292V2.76863C16.3285 2.76863 16.3457 2.77721 16.3457 2.82006C16.3457 2.87149 16.3457 2.92292 16.3371 2.98292C16.3285 3.05149 16.3114 3.10292 16.3028 3.14578C16.3028 3.24006 16.3199 3.34292 16.1914 3.60006C16.1571 3.66863 16.1314 3.73721 16.1057 3.78006C16.0542 3.88292 16.0457 3.90006 16.0028 3.95149C16.0714 3.91721 16.3114 3.76292 16.44 3.78006C16.3542 3.83149 16.2257 3.92578 16.14 4.04578C16.1571 4.04578 16.2428 4.06292 16.3714 4.04578C16.5857 4.01149 16.8257 3.93435 17.0399 3.95149C17.2714 3.96863 17.1771 3.67721 17.1771 3.67721L16.9114 3.09435L16.4057 2.74292L16.3285 2.76006V2.74292Z" fill="#BE9C44"/>
<path fill-rule="evenodd" clip-rule="evenodd" d="M17.64 7.14007C17.64 7.14007 17.4172 6.91721 17.3229 6.14578C17.2286 5.36578 17.2543 4.22578 17.2543 4.22578L17.0743 3.78007C17.0743 3.78007 17.04 3.48007 16.9372 3.36864C16.8343 3.25721 16.6543 3.06864 16.5686 2.98292C16.4829 2.89721 16.3886 2.76864 16.3286 2.7515C16.3543 2.70007 16.4915 2.42578 16.9886 2.42578C17.4858 2.42578 17.64 2.70007 17.6915 2.80292C17.7429 2.90578 17.9829 3.34292 18.0686 4.17435C18.1543 5.00578 18.1543 5.06578 18.1372 5.35721C18.1286 5.52007 18.0772 5.88864 17.9829 6.28292C17.8972 6.61721 17.8115 6.98578 17.64 7.15721V7.14007Z" fill="#A17C34"/>
<path fill-rule="evenodd" clip-rule="evenodd" d="M16.9371 7.79992C17.0143 7.79992 17.0914 7.79135 17.1514 7.74849C17.22 7.74849 17.4857 7.77421 17.6828 7.52563C17.7 7.58563 17.7343 7.73992 17.64 7.87706C17.6914 7.82563 17.76 7.80849 17.7685 7.79135C17.7685 7.85992 17.8371 8.08278 17.5543 8.62278C17.6314 8.53706 17.7257 8.53706 17.8028 8.52849C17.8028 8.63135 17.8628 8.96564 17.7171 9.15421C17.6228 9.28278 17.4685 9.23992 17.4685 9.23992C17.4685 9.21421 17.4685 9.18849 17.4685 9.15421C17.4685 9.10278 17.4428 9.05135 17.46 9.01706C17.3828 8.98278 17.3143 8.93135 17.2543 8.87992C17.0828 8.71706 16.8685 8.45135 16.8514 8.24563C16.8343 8.02278 17.0314 7.97135 17.0314 7.97135C17.0143 7.95421 16.9971 7.93706 16.9885 7.91992C16.98 7.88563 16.9714 7.83421 16.9285 7.79135L16.9371 7.79992Z" fill="#8C6228"/>
<path fill-rule="evenodd" clip-rule="evenodd" d="M15.4372 5.3572C15.4372 5.3572 15.4286 5.34006 15.3772 5.40863C15.3858 5.34863 15.3943 5.28863 15.4029 5.22863C15.4286 5.1772 15.4629 5.12577 15.4972 5.08291C15.4715 5.14291 15.4458 5.19434 15.4458 5.19434C15.4458 5.19434 15.5143 5.0572 15.6258 4.98006C15.6943 4.92006 15.7886 4.89434 15.8315 4.84291C15.8743 4.78291 15.8658 4.77434 15.8743 4.76577C15.8743 4.76577 15.9686 4.70577 16.1143 4.5172C16.1315 4.49148 16.1658 4.46577 16.1829 4.44863C16.2172 4.43148 16.2943 4.3972 16.3886 4.35434C16.4829 4.30291 16.5943 4.23434 16.6543 4.20006C16.7829 4.14006 16.9201 4.14863 16.9886 4.05434C17.0401 4.0372 17.0915 3.89148 17.0829 3.77148C17.1515 3.7972 17.5201 4.02863 17.6486 4.53434C17.7429 4.88577 17.5801 5.43434 17.5115 5.70006C17.4429 5.96577 17.4343 6.16291 17.3401 6.28291C17.2201 6.44577 16.8343 6.66863 16.7401 6.78006C16.6543 6.87434 16.4143 7.10577 16.4229 7.26863C16.4315 7.3972 16.5858 7.4572 16.6201 7.48291C16.6543 7.50863 16.6543 7.53434 16.7143 7.5172C16.7743 7.50006 16.8001 7.47434 16.8258 7.47434C16.8515 7.47434 16.8515 7.48291 16.8686 7.48291C16.8772 7.48291 16.8858 7.48291 16.8943 7.48291C16.8943 7.48291 16.8858 7.66291 16.4743 7.71434C16.4486 7.71434 16.4143 7.73148 16.3801 7.73148C16.4315 7.70577 16.4572 7.70577 16.5086 7.6372C16.4486 7.62863 16.2858 7.62006 16.2429 7.60291C16.2601 7.5772 16.3029 7.5172 16.3372 7.49148C16.3715 7.46577 16.3372 7.4572 16.3029 7.46577C16.2515 7.50006 16.2086 7.53434 16.1572 7.5772C16.1058 7.62006 16.0629 7.68006 15.9858 7.73148C15.9601 7.65434 15.9686 7.50863 16.0543 7.3972C16.0286 7.3972 15.9858 7.46577 15.9429 7.4572C15.9429 7.38863 15.9429 7.31148 15.9601 7.24291C15.9858 7.1572 16.1058 7.00291 16.1058 7.00291L16.7143 5.91434L16.8429 5.09148L15.4458 5.36577L15.4372 5.3572Z" fill="#92723A"/>
<path fill-rule="evenodd" clip-rule="evenodd" d="M15.4028 5.39992C15.4028 5.39992 15.3685 5.42563 15.4371 5.46849C15.4285 5.48563 15.4028 5.52849 15.3771 5.56277C15.3428 5.59706 15.3085 5.62277 15.2914 5.65706C15.2657 5.72563 15.24 5.76849 15.24 5.80277C15.24 5.83706 15.2314 6.01706 15.1457 6.13706C15.12 6.17992 15.0857 6.24849 15.06 6.29992C15.0085 6.38563 14.9657 6.4542 14.9571 6.48849C14.94 6.55706 14.9228 6.74563 14.9228 6.74563C14.9228 6.74563 14.9657 6.6942 14.9828 6.67706C14.9571 6.72849 14.9314 6.77992 14.8971 6.8142C14.9228 6.79706 14.9914 6.74563 15.1028 6.64277C15.2657 6.50563 15.5142 6.28277 15.8142 6.10277C15.72 6.13706 15.6428 6.13706 15.5828 6.14563C15.6342 6.0942 16.0714 5.58849 16.2942 5.53706C16.3114 5.51992 16.3114 5.4942 16.3114 5.47706L16.1142 5.45992L15.72 5.54563L15.66 5.23706L15.3942 5.39992H15.4028Z" fill="#B18E3E"/>
<path fill-rule="evenodd" clip-rule="evenodd" d="M16.0371 7.14855C16.0371 7.14855 15.9857 7.19998 15.9343 7.32855C15.9 7.28569 15.8657 7.24283 15.84 7.19997C15.7714 7.07997 15.66 6.92569 15.4028 7.0114C15.4028 6.92569 15.3943 6.88283 15.4028 6.8314C15.4457 6.82283 15.5743 6.71997 15.7028 6.56569C15.7971 6.46283 15.8828 6.34283 15.9343 6.18855C15.9685 6.16283 16.0371 6.1114 16.1228 6.0514C16.2514 5.96569 16.3971 5.84569 16.4228 5.71712C16.3628 5.74283 16.2428 5.80283 16.0543 5.78569C16.1228 5.7514 16.2343 5.71712 16.2257 5.5714C16.2514 5.55426 16.2771 5.53712 16.2771 5.53712C16.2514 5.53712 16.2343 5.52855 16.2085 5.52855C16.2085 5.5114 16.2 5.49426 16.1657 5.50283C16.1314 5.5114 16.1314 5.5114 16.1228 5.52855C16.1057 5.52855 16.0628 5.52855 16.0285 5.55426C15.9943 5.57998 15.9 5.65712 15.8657 5.66569C15.8828 5.63998 15.9 5.60569 15.9 5.60569C15.9 5.60569 15.8057 5.61426 15.7371 5.63998C15.6085 5.68283 15.4714 5.75998 15.3257 5.83712C15.3428 5.8114 15.3428 5.80283 15.3514 5.79426C15.36 5.78569 15.3857 5.78569 15.3857 5.77712C15.3857 5.76855 15.3771 5.74283 15.3857 5.72569C15.4285 5.6314 15.48 5.54569 15.54 5.45998C15.6085 5.36569 15.6257 5.23712 15.6257 5.23712L15.9257 5.0914L16.7571 4.90283L17.2971 4.93712L17.2285 5.31426L16.9114 5.96569L16.6371 6.56569L16.3285 6.93426L16.0371 7.13998V7.14855Z" fill="#543E26"/>
<path fill-rule="evenodd" clip-rule="evenodd" d="M17.3915 5.52847C17.3915 5.52847 17.0657 5.93132 16.9715 5.99132C17.0315 5.86275 17.3915 5.12561 17.52 4.91989C17.4943 4.89418 17.4515 4.89418 17.5457 4.53418C17.4686 4.71418 17.4429 4.80847 17.3743 4.85989C17.3057 4.91132 17.3057 4.89418 17.2629 4.89418C17.2629 4.87704 17.2715 4.85989 17.2715 4.84275C17.2715 4.84275 16.9972 4.80847 16.8086 4.80847C16.62 4.80847 16.2515 4.91132 16.0457 4.98847C15.8829 5.05704 15.7886 5.05704 15.7372 5.09989C15.6772 5.15132 15.6429 5.20275 15.6172 5.21132C15.5915 5.22847 15.48 5.26275 15.4543 5.29704C15.4286 5.33132 15.3943 5.38275 15.3943 5.39132C15.3943 5.39989 15.3857 5.41704 15.4115 5.40847C15.42 5.40847 15.4972 5.36561 15.5743 5.31418C15.6857 5.25418 15.8229 5.17704 15.9172 5.13418C16.1915 5.02275 16.2857 5.03989 16.4057 5.02275C16.5343 4.99704 16.7229 4.94561 16.8429 4.94561C16.9715 4.94561 17.2029 4.94561 17.2543 4.95418C17.2286 4.97132 17.2115 4.99704 17.22 5.08275C17.22 5.10847 17.2029 5.13418 17.1857 5.18561C17.1257 5.34847 17.0143 5.60561 16.9543 5.74275C16.8686 5.92275 16.7743 6.07704 16.7229 6.17132C16.6715 6.26561 16.5686 6.51418 16.4657 6.65132C16.3629 6.78847 16.3029 6.86561 16.2772 6.89989C16.2515 6.93418 16.0115 7.10561 16.0286 7.16561C16.0715 7.14846 16.3372 7.05418 16.5343 6.83132C16.7315 6.60847 16.7657 6.47989 16.92 6.35132C17.0743 6.22275 17.1943 6.02561 17.2629 5.86275C17.3229 5.70847 17.3057 5.65704 17.3829 5.51989L17.3915 5.52847Z" fill="#806031"/>
<path fill-rule="evenodd" clip-rule="evenodd" d="M10.3629 8.54579C10.3629 8.54579 10.32 8.72579 10.2257 8.8115C10.1314 8.89722 9.96001 8.97436 9.94287 9.1115C9.91715 9.25722 10.1143 9.32579 10.1143 9.32579C10.1143 9.32579 10.0114 9.49721 10.0114 9.62579C10.0114 9.75436 10.0114 9.78864 10.02 9.91722C10.0029 9.92579 9.99429 9.94293 9.98572 9.9515C9.98572 9.9515 9.99429 10.0801 10.0886 10.1572C10.1829 10.2344 10.2686 10.2858 10.3114 10.2601C10.3114 10.2772 10.3286 10.2944 10.3286 10.3115C10.3286 10.3115 10.3972 10.1315 10.4486 9.96864C10.5 9.80579 10.5429 9.8315 10.56 9.60864C10.5772 9.38579 10.7914 9.00864 10.7914 9.00864L10.9372 8.68293L10.7057 8.50293L10.3714 8.53722L10.3629 8.54579Z" fill="#B6903C"/>
<path fill-rule="evenodd" clip-rule="evenodd" d="M10.8 8.86279C10.7485 8.91422 10.7057 8.96565 10.6628 9.02565C10.6028 9.11136 10.5514 9.18851 10.4571 9.22279C10.3628 9.25708 10.3114 9.25708 10.3114 9.35136C10.3114 9.44565 10.4057 9.47994 10.4485 9.53136C10.5 9.58279 10.5428 9.65994 10.5171 9.75422C10.5428 9.73708 10.6028 9.72851 10.6457 9.61708C10.6885 9.50565 11.0314 8.87136 11.0314 8.87136H10.7828L10.8 8.86279Z" fill="#685026"/>
<path fill-rule="evenodd" clip-rule="evenodd" d="M12.1372 7.38848C12.1372 7.38848 12.1629 7.31134 12.1372 7.25134C12.1115 7.19134 11.9315 7.1742 11.8458 7.10563C11.7515 7.03706 11.64 6.9942 11.5543 7.01991C11.5715 6.98563 11.6229 6.91706 11.58 6.89991C11.5372 6.88277 11.3743 6.95991 11.3315 6.9942C11.2886 7.02848 11.1943 7.06277 11.1686 7.08849C11.1429 7.1142 11.1172 7.15706 11.1 7.13991C11.0829 7.12277 11.0743 7.08848 11.04 7.1142C11.0058 7.13991 10.8515 7.25991 10.8172 7.33706C10.7829 7.4142 10.7229 7.58563 10.5258 7.7742C10.3286 7.96277 10.2429 8.09134 10.3029 8.15991C10.3629 8.22849 10.3886 8.17706 10.3972 8.24563C10.3972 8.30563 10.3972 8.36563 10.3886 8.42563C10.3629 8.52848 10.3286 8.62277 10.38 8.63991C10.5172 8.68277 10.6458 8.60563 10.6715 8.62277C10.7315 8.6742 10.6372 8.86277 10.7743 8.89706C10.9115 8.93134 11.0486 8.86277 11.0486 8.86277L11.5543 8.58849L12.0429 8.33134L12.2915 7.8342L12.1543 7.42277L12.1286 7.37991L12.1372 7.38848Z" fill="#D4B968"/>
<path fill-rule="evenodd" clip-rule="evenodd" d="M11.6571 8.57132C11.6571 8.57132 11.5714 8.44274 11.6743 8.32274C11.7771 8.20274 11.9314 8.15989 11.9829 8.09132C11.9743 8.07417 11.9571 8.0656 11.94 8.0656C11.9829 7.99703 12.0343 7.93703 12.1114 7.90274C12.0857 7.87703 12.0429 7.85132 12 7.85132C11.9057 7.85132 11.8457 7.91132 11.76 7.91132C11.6743 7.91132 11.6657 7.86846 11.6657 7.86846C11.6657 7.86846 11.8114 7.85132 11.7943 7.79132C11.7771 7.72274 11.76 7.72274 11.76 7.72274C11.76 7.72274 12.0343 7.61132 12.0857 7.54274C12.1371 7.47417 12.1286 7.4056 12.1371 7.37989C12.1714 7.37989 12.36 7.27703 12.4371 7.31989C12.5143 7.36274 12.4629 7.48274 12.4629 7.48274C12.4629 7.48274 12.6943 7.30274 12.8143 7.13132C12.9171 7.13989 12.9686 7.06274 13.0457 7.06274C13.14 7.06274 13.2943 7.19132 13.32 7.47417C13.3371 7.63703 13.3714 7.72274 13.3371 8.0056C13.32 8.16846 13.3286 8.50274 13.3714 8.67417C13.4057 8.81132 13.4829 8.79417 13.4829 8.79417C13.4743 8.83703 13.4486 8.87132 13.4143 8.89703C13.3629 8.94846 13.3543 9.07703 13.3629 9.11989C13.3629 9.15417 13.38 9.18846 13.3886 9.22274C13.3886 9.22274 13.3286 9.29132 13.3114 9.34274C13.2943 9.39417 13.2343 9.42846 13.1829 9.42846C13.1314 9.42846 13.1571 9.42846 13.0971 9.42846C13.0371 9.42846 13.0114 9.4456 12.9771 9.42846C12.9429 9.41132 12.9086 9.40274 12.9257 9.27417C12.9429 9.1456 12.4457 8.86274 12.4457 8.86274L11.64 8.57132H11.6571Z" fill="#CCA849"/>
<path fill-rule="evenodd" clip-rule="evenodd" d="M10.7314 9.79704C10.7314 9.79704 10.9114 10.0285 11.6314 10.0285C11.9743 10.0285 12.0943 9.99418 12.1714 9.97704C12.2486 9.95989 12.54 9.83989 12.8314 9.49704C13.0972 9.18847 13.0372 9.05989 13.0372 9.05989L12.8829 9.03418L12.3857 9.10275L10.9114 9.72847L10.7314 9.78847V9.79704Z" fill="#585136"/>
<path fill-rule="evenodd" clip-rule="evenodd" d="M11.2715 9.85722C11.2715 9.85722 10.6458 9.99436 10.6458 9.60008C10.6458 9.20579 11.0315 8.80293 11.1343 8.73436C11.2372 8.66579 11.4772 8.58008 11.4772 8.58008H12.06L12.1715 8.87151L12.12 9.50579L11.28 9.85722H11.2715Z" fill="#252211"/>
<path fill-rule="evenodd" clip-rule="evenodd" d="M11.8543 8.69137C11.8543 8.69137 11.7343 8.57994 11.46 8.72566C11.1857 8.87137 10.9629 9.18852 10.9543 9.47137C10.9372 9.71994 11.16 9.90852 11.5029 9.91709C11.76 9.92566 11.9143 9.89994 11.9914 9.8828C11.9743 9.85709 11.8714 9.73709 11.8714 9.73709V8.69994H11.8629L11.8543 8.69137Z" fill="#C3B378"/>
<path fill-rule="evenodd" clip-rule="evenodd" d="M11.7343 8.75155C11.7343 8.75155 11.7086 8.72583 11.6229 8.77726C11.5543 8.81155 11.4429 8.9144 11.3658 8.99155C11.3143 9.0344 11.28 9.05155 11.2543 9.08583C11.1343 9.23155 11.0315 9.46297 11.0915 9.58297C11.1515 9.70297 11.34 9.83155 11.8286 9.74583L11.7429 8.76012L11.7343 8.75155Z" fill="#E6D89C"/>
<path fill-rule="evenodd" clip-rule="evenodd" d="M11.5714 9.00006C11.5714 9.00006 11.4942 9.12006 11.4942 9.30863C11.4942 9.4972 11.6057 9.81435 12.0085 9.84006C12.3171 9.8572 12.5314 9.38578 12.7542 9.20578C12.9257 9.06863 13.0285 9.06006 13.0285 9.06006C13.0285 9.06006 12.8485 8.87149 12.3771 8.62292C11.9142 8.37435 11.3914 8.34006 11.1085 8.72578C11.2457 8.7172 11.6742 8.60578 11.6742 8.60578L11.8885 8.67435L11.5628 9.00006H11.5714Z" fill="#252211"/>
<path fill-rule="evenodd" clip-rule="evenodd" d="M12.18 9.24854C12.18 9.24854 12.1542 9.17997 12.2142 9.1714C12.2742 9.16283 12.3 9.1714 12.3171 9.20568C12.3342 9.23997 12.3514 9.28283 12.3257 9.29997C12.3 9.31711 12.2228 9.29997 12.18 9.23997V9.24854ZM12.0857 8.97426C12.0857 8.97426 12.0685 8.9914 12.0771 8.95711C12.0771 8.92283 12.1028 8.86283 12.1714 8.87997C12.24 8.89711 12.2228 8.96568 12.2057 8.98283C12.1885 8.99997 12.1457 9.03426 12.1028 9.01711C12.0857 9.01711 12.0771 8.9914 12.0771 8.97426C12.0771 8.97426 12.0771 8.97426 12.0771 8.96568L12.0857 8.97426Z" fill="#6F674D"/>
<path fill-rule="evenodd" clip-rule="evenodd" d="M6.83145 9.10276C6.83145 9.10276 6.98573 9.21419 7.16573 9.21419C7.34573 9.21419 7.56859 9.02562 7.67145 8.91419C7.73145 8.84562 7.78288 8.77705 7.84288 8.71705C7.8943 8.66562 7.92859 8.64848 7.94573 8.61419C7.98002 8.57991 8.0143 8.50277 8.03145 8.47705C7.98859 8.51134 7.92859 8.57134 7.86002 8.60562C7.80002 8.63991 7.66288 8.71705 7.61145 8.73419C7.56002 8.75134 7.01145 9.04276 7.01145 9.04276L6.82288 9.10276H6.83145Z" fill="#AC924C"/>
<path fill-rule="evenodd" clip-rule="evenodd" d="M7.07141 7.66286C7.07141 7.66286 7.15713 7.60286 7.31998 7.56857C7.48284 7.53429 7.79998 7.5 7.79998 7.5L8.0657 7.61143L8.16855 8.00571L7.97998 8.41714L7.73141 8.57143L7.45713 8.12571L7.07141 7.65429V7.66286Z" fill="#9F8E57"/>
<path fill-rule="evenodd" clip-rule="evenodd" d="M6.72856 8.02295L6.63428 8.09152C6.63428 8.09152 6.65999 8.04866 6.67713 7.92009C6.69428 7.79152 6.79714 7.47438 6.94285 7.29438C7.08856 7.11438 7.08856 7.12295 7.08856 7.12295C7.06285 7.12295 7.02856 7.12295 7.01142 7.14009C7.02856 7.09723 7.15713 6.94295 7.27713 6.86581C7.39713 6.78866 7.44856 6.76295 7.57713 6.83152C7.70571 6.90009 7.73999 6.92581 7.83428 6.92581C7.92856 6.92581 8.01428 6.82295 8.01428 6.82295C8.01428 6.82295 8.03142 6.88295 7.96285 7.02866C7.89428 7.17438 7.61142 7.46581 7.61142 7.46581L7.01999 7.86866L6.72856 8.03152V8.02295Z" fill="#EAC970"/>
<path fill-rule="evenodd" clip-rule="evenodd" d="M7.15716 7.62004C7.15716 7.62004 7.58573 7.68004 7.7143 7.56004C7.7143 7.57719 7.73144 7.57719 7.73144 7.58576C7.73144 7.58576 7.73144 7.6029 7.72287 7.6029C7.74001 7.6029 7.74859 7.6029 7.76573 7.6029C7.78287 7.6029 7.80001 7.6029 7.81716 7.61147C7.8343 7.61147 7.84287 7.61147 7.86001 7.61147C7.86001 7.62861 7.84287 7.64576 7.8343 7.6629C7.85144 7.6629 7.86859 7.6629 7.86859 7.68004C7.86859 7.69719 7.86859 7.74004 7.85144 7.74861C7.8343 7.74861 7.80859 7.74861 7.79144 7.74861C7.79144 7.7829 7.80001 7.81719 7.81716 7.85147C7.85144 7.92004 7.93716 8.00576 8.04859 7.98004C8.04859 7.98004 8.10859 8.11719 7.86001 8.43433C7.82573 8.47719 7.79144 8.53719 7.74859 8.58004C7.73144 8.61433 7.72287 8.65719 7.7143 8.69147C7.7143 8.69147 8.12573 8.52861 8.24573 8.16861C8.36573 7.80004 8.39144 7.44861 8.36573 7.10576C8.36573 7.01147 8.34859 6.9429 8.32287 6.89147C8.26287 6.77147 8.10001 6.78861 8.03144 6.85719C7.93716 6.95147 7.7743 7.19147 7.55144 7.35433C7.32859 7.51719 7.32001 7.5429 7.14001 7.62004H7.15716Z" fill="#D7BC6B"/>
<path fill-rule="evenodd" clip-rule="evenodd" d="M6.65143 8.14293C6.65143 8.14293 6.56572 8.19436 6.52286 8.37436C6.48 8.56293 6.55715 8.78579 6.60857 8.86293C6.66 8.94007 6.76286 9.12864 6.98572 9.13721C7.03715 9.13721 7.09715 9.12864 7.14857 9.10293C7.22572 9.06864 7.29429 9.02579 7.36286 8.96579C7.45715 8.89721 7.53429 8.82864 7.52572 8.82864C7.5 8.82007 6.94286 8.34864 6.94286 8.34864L6.72857 8.10864L6.65143 8.13436V8.14293Z" fill="#585136"/>
<path fill-rule="evenodd" clip-rule="evenodd" d="M7.18291 8.91432C7.18291 8.91432 7.29434 8.90575 7.36291 8.86289C7.43149 8.82004 6.96863 8.35718 6.96863 8.35718L7.00291 8.85432L7.18291 8.91432Z" fill="#453A25"/>
<path fill-rule="evenodd" clip-rule="evenodd" d="M6.6857 8.10846C6.6857 8.10846 6.6257 8.21989 6.6257 8.2456C6.61713 8.33989 6.64285 8.63989 6.66856 8.73418C6.69428 8.83703 6.81428 8.99132 6.97713 8.99132C7.07999 8.99132 7.21713 8.93132 7.21713 8.91418C7.21713 8.89703 7.07142 8.87989 7.03713 8.80275C7.01142 8.76846 7.00285 8.6656 7.00285 8.57132C7.00285 8.51132 7.00285 8.44275 7.01999 8.41703C7.07142 8.35703 7.07999 8.19418 7.07999 8.19418L7.26856 7.85132H7.01999L6.72856 8.03132L6.6857 8.10846Z" fill="#84754B"/>
<path fill-rule="evenodd" clip-rule="evenodd" d="M6.61709 8.21147C6.61709 8.21147 6.80566 7.95432 6.98566 7.90289C7.16566 7.85147 7.23423 7.87718 7.23423 7.87718L7.13138 8.13432L6.98566 8.29718V8.38289C6.98566 8.38289 6.96852 8.59718 7.11423 8.75147C7.25995 8.90575 7.36281 8.89718 7.42281 8.89718C7.48281 8.89718 7.66281 8.84575 7.75709 8.63147C7.84281 8.42575 7.90281 8.16861 7.73995 7.91147C7.57709 7.65432 7.30281 7.64575 7.24281 7.64575C7.18281 7.64575 6.76281 7.6629 6.60852 8.22861L6.61709 8.21147Z" fill="#252211"/>
<path fill-rule="evenodd" clip-rule="evenodd" d="M11.5457 9.07706C11.4772 9.04278 11.5457 8.84563 11.6143 8.77706C11.6829 8.70849 11.7772 8.63992 11.94 8.63135C12 8.63135 12.0515 8.66563 12.0429 8.69992C12.0257 8.76849 11.9315 8.87135 11.8372 8.94849C11.7086 9.05135 11.6315 9.11135 11.5457 9.07706Z" fill="#F7F7E7"/>
<path fill-rule="evenodd" clip-rule="evenodd" d="M7.66287 7.97998C7.7143 7.97998 7.78287 8.01427 7.80002 8.07427C7.81716 8.13427 7.76573 8.26284 7.66287 8.26284C7.57716 8.26284 7.5343 8.15998 7.5343 8.13427C7.5343 8.10855 7.5343 8.08284 7.55145 8.06569C7.55145 8.06569 7.56859 7.98855 7.6543 7.97998H7.66287Z" fill="#F8F6DE"/>
<path fill-rule="evenodd" clip-rule="evenodd" d="M6.9 8.02295C6.9 8.02295 6.76286 8.08295 6.70286 8.21152C6.66 8.30581 6.64286 8.41723 6.66858 8.52009C6.67715 8.57152 6.72858 8.69152 6.76286 8.73438C6.79715 8.77723 6.84 8.80295 6.87429 8.80295C6.90858 8.80295 6.97715 8.70866 6.97715 8.65724C6.97715 8.60581 6.97715 8.38295 7.04572 8.26295C7.10572 8.14295 6.90858 8.02295 6.90858 8.02295H6.9Z" fill="#D4C38B"/>
<path fill-rule="evenodd" clip-rule="evenodd" d="M6.92568 8.01422C6.92568 8.01422 6.86568 8.0485 6.87425 8.07422C6.88282 8.09993 6.96854 8.1085 6.99425 8.1685C7.02854 8.2285 7.02854 8.2885 7.01996 8.31422C7.04568 8.30564 7.07139 8.2885 7.08854 8.26279C7.13139 8.21136 7.18282 8.15136 7.22568 8.15136C7.25139 8.15136 7.28568 8.1685 7.31139 8.1685C7.35425 8.1685 7.39711 8.15136 7.40568 8.1085C7.41425 8.0485 7.31996 7.99707 7.26854 8.00564C7.27711 7.97136 7.29425 7.91136 7.25139 7.8685C7.20854 7.82564 7.07139 7.89422 7.04568 7.91993C7.01997 7.94564 6.92568 8.01422 6.92568 8.01422Z" fill="#E2D59D"/>
<path fill-rule="evenodd" clip-rule="evenodd" d="M10.0114 12.0943L10.3028 12.0085L10.3885 12.0685C10.3885 12.0685 10.4485 12.1971 10.5342 12.2057C10.5085 12.2657 10.4314 12.3171 10.4314 12.3685C10.4314 12.42 10.4742 12.4457 10.4742 12.4457C10.4742 12.4457 10.2171 12.8743 10.7228 13.3028C10.6028 13.3543 10.4485 13.4143 10.3714 13.4571C10.4314 13.4743 10.5514 13.4914 10.6028 13.5428C10.6542 13.5943 10.6542 13.6028 10.7057 13.6371C10.7571 13.6714 10.7828 13.7057 10.7742 13.7228C10.7399 13.7057 10.6285 13.6457 10.6114 13.6971C10.5942 13.7485 10.1314 13.7314 10.1314 13.7314L9.35137 13.8771C9.35137 13.8771 9.37708 13.8 9.29994 13.7314C9.20566 13.6457 9.08566 13.7314 8.96566 13.6371C8.8028 13.5085 8.79423 13.3714 8.7428 13.3114C8.79423 13.2771 8.90566 13.2257 9.15423 13.2C9.14566 13.1828 9.11137 13.1228 9.12851 13.0714C9.15423 13.0028 9.24851 12.96 9.2228 12.8828C9.26566 12.8743 9.2828 12.8743 9.39423 12.7371C9.49708 12.6 9.55708 12.5743 9.63423 12.5657C9.71137 12.5571 9.7628 12.5657 9.89994 12.4285C10.0028 12.3343 9.96851 12.2485 9.96851 12.2485C9.96851 12.2485 10.0371 12.2314 10.0114 12.0943Z" fill="#CBAC5A"/>
<path fill-rule="evenodd" clip-rule="evenodd" d="M9.16284 12.1372C9.16284 12.1372 9.17999 12.1115 9.29141 12.12C9.40284 12.1286 10.0628 12.06 10.2428 12.0515C10.4228 12.0343 11.0657 12.0515 11.3828 12.1115C11.7 12.1715 12.0086 12.2572 12.1628 12.2915C12.3171 12.3343 12.3686 12.3515 12.36 12.3686C12.36 12.3858 12.3257 12.4029 12.3 12.4029C12.2828 12.4029 11.7686 12.24 11.6143 12.2143C11.46 12.1886 10.9114 12.0943 10.62 12.1029C10.3457 12.1029 10.2343 12.1029 9.99427 12.1286C9.76284 12.1543 9.36856 12.1972 9.25713 12.18C9.1457 12.1629 9.16284 12.1629 9.17141 12.1458L9.16284 12.1372Z" fill="#D6BC6F"/>
<path fill-rule="evenodd" clip-rule="evenodd" d="M10.7228 13.6544C10.7228 13.6544 11.1171 13.8687 11.2628 14.1344C11.3657 14.3315 11.2028 14.4258 11.2028 14.4258C11.2028 14.4258 11.4257 14.4258 11.3999 14.5544C11.3828 14.6315 11.0142 14.8458 10.7571 14.9487C10.4999 15.0601 10.5085 15.0515 10.3885 15.0773C10.2685 15.0944 9.93423 15.043 9.87423 15.1373C9.81423 15.2315 9.83994 15.3344 9.85708 15.3515C9.87423 15.3687 10.0371 15.3858 10.0371 15.3858C10.0371 15.3858 10.0028 15.4801 9.67708 15.4887C9.35137 15.4973 9.26566 15.523 9.24851 15.5573C9.23137 15.5915 9.30851 15.5744 9.4628 15.5915C9.60851 15.6173 9.8228 15.6258 9.8228 15.6258C9.8228 15.6258 9.75423 15.6858 9.57423 15.7287C9.36851 15.7801 9.05994 15.8315 8.95708 15.8915C9.00851 15.9258 9.07708 15.9773 9.11137 15.9773C9.02566 15.9944 8.91423 16.0373 8.89708 16.0544C8.9228 16.0715 8.96566 16.0973 8.96566 16.0973C8.96566 16.0973 8.8028 16.2944 8.70851 16.3458C8.61423 16.3973 8.06565 16.6458 7.87708 16.603C7.40565 16.4744 7.34565 15.9601 7.23423 15.9258C7.0628 15.8658 6.97708 15.9858 6.8228 15.9001C6.89137 15.8487 6.92566 15.823 7.0028 15.7887C6.92566 15.7544 6.5228 15.4973 6.5228 15.4973C6.47994 15.403 6.43708 15.3173 6.38565 15.2315C6.30851 15.0944 6.19708 14.923 6.11137 14.7601C5.9228 14.4173 5.91423 14.2544 5.7428 14.0573C5.76851 14.023 5.87137 14.023 5.87137 14.023L7.28566 14.4858L9.79708 14.5544L10.4485 13.6201L10.7228 13.6544Z" fill="#DFC677"/>
<path fill-rule="evenodd" clip-rule="evenodd" d="M7.00281 15.0772C7.00281 15.0772 7.03709 15.1115 7.05424 15.1201C7.10566 15.1544 7.17424 15.1887 7.22566 15.2487C7.24281 15.2229 7.29424 15.1629 7.37995 15.2487C7.46566 15.3344 7.56852 15.2744 7.63709 15.2915C7.70566 15.3172 7.70566 15.3258 7.70566 15.3258C7.70566 15.3258 7.73995 15.2915 7.83424 15.2572C7.88566 15.2401 7.94567 15.2229 8.01424 15.2058C8.07424 15.1887 8.14281 15.1715 8.19424 15.1715C8.23709 15.1972 8.39138 15.3601 9.00852 15.1201C9.59138 14.8972 9.71995 14.8715 9.82281 14.9058C9.83138 14.8801 9.83995 14.8372 9.99424 14.8458C9.99424 14.7858 9.86566 14.5715 9.86566 14.5715L9.17995 14.3401H8.80281L7.67995 14.5458L7.05424 14.8972L7.00281 15.0772Z" fill="#C4A859"/>
<path fill-rule="evenodd" clip-rule="evenodd" d="M6.62573 14.683C6.62573 14.683 6.64288 14.7858 6.79716 14.8972C6.95145 15.0087 7.00288 15.0772 7.00288 15.0772C7.00288 15.0772 7.02859 15.043 7.0543 15.0001C7.08002 14.9572 7.09716 14.9058 7.14002 14.8972C7.21716 14.863 7.39716 14.923 7.43145 14.9144C7.46573 14.9058 7.45716 14.8372 7.49145 14.8372C7.57716 14.8372 7.62859 14.8887 7.6543 14.8887C7.68002 14.8887 7.75716 14.8887 7.76573 14.8715C7.7743 14.8544 7.78288 14.6915 7.8943 14.6144C8.0143 14.5287 8.16002 14.563 8.20288 14.5887C8.20288 14.6144 8.20288 14.6915 8.28859 14.6915C8.3743 14.6915 8.3743 14.683 8.44288 14.7087C8.51145 14.7344 8.58859 14.7087 8.63145 14.8201C8.66573 14.8115 8.74288 14.803 8.72573 14.6915C8.76002 14.6658 8.7943 14.6401 8.88002 14.5287C8.89716 14.503 8.93145 14.4687 8.95716 14.4258C9.02573 14.4258 9.10288 14.4087 9.2143 14.5115C9.18002 14.5372 9.16288 14.5458 9.1543 14.5715C9.18002 14.5972 9.20573 14.6315 9.23145 14.6658C9.25716 14.7001 9.28288 14.7515 9.31716 14.7601C9.40288 14.7858 9.53145 14.7515 9.68573 14.7601C9.83145 14.7687 9.95145 14.8201 10.0029 14.8544C10.02 14.8458 10.02 14.8372 10.0714 14.8544C10.1229 14.8715 10.1572 14.8715 10.1057 14.803C10.1314 14.8201 10.1657 14.8458 10.2 14.8201C10.2343 14.7944 10.2514 14.7515 10.3372 14.7344C10.4229 14.7172 10.4486 14.7344 10.4829 14.6487C10.5257 14.5458 10.38 14.5458 10.38 14.5458C10.38 14.5458 10.4486 14.4858 10.5257 14.4001C10.62 14.3144 10.7229 14.203 10.7486 14.0658C10.7914 13.8172 10.5429 13.783 10.5429 13.783L9.36002 14.1515L7.91145 14.083L6.67716 14.7001L6.62573 14.683Z" fill="#927D49"/>
<path fill-rule="evenodd" clip-rule="evenodd" d="M5.56284 11.2542C5.56284 11.2542 5.52855 11.3056 5.50284 11.4171C5.47712 11.5285 5.4857 11.5199 5.46855 11.5971C5.45141 11.6742 5.21141 12.4885 5.29712 12.7628C5.38284 13.0371 5.5457 13.1399 5.63998 13.3628C5.65712 13.4142 5.67427 13.4399 5.69141 13.4828C5.7257 13.6285 5.69141 13.7399 5.73427 13.8771C5.75141 13.9285 5.7857 13.9799 5.83712 14.0399C5.94855 14.1599 6.13712 14.2713 6.22284 14.3571C6.33427 14.4771 6.49712 14.7256 6.71141 14.7428C6.82284 14.7599 6.97712 14.7085 7.1057 14.6313C7.21712 14.5628 7.29427 14.4599 7.41427 14.3999C7.49998 14.3571 7.59427 14.3399 7.67141 14.3228C7.84284 14.2885 7.99712 14.2885 8.08284 14.3056C8.21998 14.3313 8.55427 14.4342 8.73427 14.4342C8.87998 14.4342 9.01712 14.4085 9.15427 14.3742C9.42855 14.2885 9.77141 14.1513 9.9857 14.0913C10.1143 14.0571 10.2171 14.0399 10.3286 14.0228C10.5086 13.9799 10.6628 13.9199 10.7486 13.8085C10.6886 13.7399 10.62 13.6371 10.2343 13.6371C9.79712 13.6456 9.28284 13.8942 9.03427 13.9285C8.7857 13.9628 8.67427 13.9971 8.39141 13.9028C8.11712 13.7999 8.10855 13.7313 8.10855 13.7313C8.10855 13.7313 7.81712 13.5342 7.69712 13.0199C7.57712 12.5056 7.69712 12.1285 8.0057 11.7771C8.09141 11.6828 8.0657 11.6056 8.0657 11.6056C8.0657 11.6056 8.27141 11.3313 8.21141 11.0656C8.15141 10.8085 7.74855 10.8599 7.74855 10.8599L5.53712 11.2456L5.56284 11.2542Z" fill="#6E6342"/>
<path fill-rule="evenodd" clip-rule="evenodd" d="M5.89717 12.1201C5.89717 12.1201 5.87146 12.1887 5.87146 12.223C5.87146 12.2744 5.8886 12.343 6.05146 12.4973C6.1886 12.6344 6.15432 12.7801 6.15432 12.7801C6.15432 12.7801 6.22289 12.7973 6.40289 12.7115C6.5486 12.643 6.59146 12.763 6.59146 12.763C6.63432 12.7373 6.67717 12.7287 6.7286 12.7201C6.77146 12.7201 6.81432 12.703 6.8486 12.6858C6.8486 12.6858 7.02003 12.8573 7.16575 12.943C7.30289 13.0115 7.38003 13.063 7.44003 13.0115C7.50003 12.9687 7.50003 12.883 7.50003 12.8401C7.48289 12.8058 7.46575 12.7715 7.44003 12.7373C7.39717 12.6773 7.3286 12.6001 7.3286 12.5487C7.32003 12.4115 7.43146 12.2573 7.40575 12.2144C7.38003 12.1715 7.29432 12.163 7.08003 12.2401C6.85717 12.3173 5.89717 12.1201 5.89717 12.1201Z" fill="#39331F"/>
<path fill-rule="evenodd" clip-rule="evenodd" d="M6.40285 12.9858C6.40285 12.9858 6.29142 12.8829 6.33427 12.3687C6.37713 12.3687 6.42856 12.3687 6.47142 12.3858C6.47142 12.3858 6.53142 12.7801 6.40285 12.9858Z" fill="#292311"/>
<path fill-rule="evenodd" clip-rule="evenodd" d="M5.61433 10.8686C5.61433 10.8686 5.64004 10.8429 5.65718 10.8343C5.6229 10.9029 5.4429 11.1943 5.58861 11.6486C5.73433 12.1029 6.09433 12.4372 6.54004 12.4543C6.98575 12.4715 7.21718 12.2486 7.4829 11.9229C7.58575 11.7943 7.70575 11.6315 7.81718 11.52C7.98004 11.3486 8.10004 11.2972 8.10004 11.1343C8.10004 10.7915 7.74861 10.6372 7.23433 10.4829C6.72004 10.3286 6.25718 10.3457 6.01718 10.4572C5.78575 10.5686 5.6829 10.6886 5.6229 10.8772L5.61433 10.8686Z" fill="#252211"/>
<path fill-rule="evenodd" clip-rule="evenodd" d="M7.26858 13.14L7.30287 13.1229C7.30287 13.1229 7.31144 12.9686 7.37144 12.9772C7.43144 12.9857 7.46572 13.0714 7.45715 13.0972C7.45715 13.1229 7.44001 13.1743 7.37144 13.1657C7.28572 13.1657 7.26001 13.14 7.26001 13.14H7.26858Z" fill="#3F3824"/>
<path fill-rule="evenodd" clip-rule="evenodd" d="M7.09717 12.4886C7.09717 12.4886 7.13145 12.4714 7.18288 12.5229C7.21717 12.5229 7.3886 12.5057 7.44003 12.54C7.49145 12.5743 7.5086 12.6 7.5086 12.6C7.5086 12.6 7.31145 12.6429 7.2086 12.6C7.09717 12.5657 7.09717 12.4886 7.09717 12.4886Z" fill="#2D2815"/>
<path fill-rule="evenodd" clip-rule="evenodd" d="M7.9629 12.5143C7.9629 12.5143 7.86004 12.4286 7.74861 12.4115C7.73147 12.4115 7.7229 12.42 7.71433 12.42C7.70575 12.42 7.69718 12.3857 7.69718 12.3857L7.63718 12.42C7.63718 12.42 7.62861 12.4372 7.6629 12.4543C7.68861 12.48 7.74004 12.4972 7.75718 12.54C7.77433 12.5829 7.77433 12.5915 7.77433 12.6C7.77433 12.6 7.8429 12.6 7.87718 12.5829C7.91147 12.5657 7.97147 12.5315 7.97147 12.5229L7.9629 12.5143Z" fill="#82764F"/>
<path fill-rule="evenodd" clip-rule="evenodd" d="M6.97717 12.9085C6.97717 12.9085 6.99432 12.7714 7.12289 12.7714C7.26003 12.7628 7.28574 12.8914 7.28574 12.8914L7.2086 12.9685C7.2086 12.9685 7.1486 12.8828 6.97717 12.9085Z" fill="#2D2816"/>
<path fill-rule="evenodd" clip-rule="evenodd" d="M7.82568 12.3344C7.82568 12.3344 7.75711 12.4115 7.59425 12.4372C7.57711 12.4201 7.5514 12.3772 7.59425 12.3172C7.63711 12.2572 7.68854 12.2315 7.7314 12.2572C7.77426 12.2572 7.80854 12.3001 7.82568 12.343V12.3344Z" fill="#574F35"/>
<path fill-rule="evenodd" clip-rule="evenodd" d="M8.11717 12.4285C8.11717 12.4285 8.1086 12.4027 8.11717 12.3942C8.12574 12.3856 8.17717 12.3685 8.18574 12.377C8.18574 12.377 8.18574 12.3942 8.18574 12.4113C8.18574 12.4285 8.18574 12.4456 8.17717 12.4627C8.16003 12.4799 8.12574 12.4885 8.1086 12.4885C8.09146 12.4885 8.08289 12.4542 8.08289 12.4542C8.09146 12.4542 8.11717 12.437 8.11717 12.4285ZM8.45146 12.2227C8.45146 12.2227 8.48574 12.197 8.50289 12.197C8.5286 12.197 8.5286 12.2227 8.53717 12.2227C8.54574 12.2227 8.54574 12.2227 8.55431 12.2399C8.56289 12.257 8.58003 12.2913 8.57146 12.3085C8.56289 12.3256 8.52003 12.3427 8.51146 12.3342C8.49431 12.3256 8.45146 12.2399 8.45146 12.2227Z" fill="#82764F"/>
<path fill-rule="evenodd" clip-rule="evenodd" d="M7.78284 12.48C7.78284 12.48 7.82569 12.4886 7.88569 12.54C7.86855 12.5571 7.83427 12.5657 7.83427 12.5657C7.83427 12.5657 7.83427 12.5228 7.78284 12.48Z" fill="#6E6342"/>
<path fill-rule="evenodd" clip-rule="evenodd" d="M7.6886 12.0514C7.6886 12.0514 7.71431 12.0171 7.74003 12.0256C7.76574 12.0342 7.77431 12.0428 7.80003 12.0514C7.82574 12.0599 7.82574 12.0428 7.83431 12.0342C7.84288 12.0256 7.87717 12.0342 7.88574 12.0342C7.88574 12.0342 7.88574 12.0428 7.89431 12.0514C7.89431 12.0342 7.89431 12.0256 7.91146 12.0171C7.9286 12.0085 7.94574 11.9999 7.96288 12.0085C7.96288 12.0256 7.9886 12.0685 7.98003 12.0771C7.97146 12.0856 7.92003 12.1028 7.91146 12.0942C7.92003 12.1199 7.96288 12.1628 7.97146 12.1799C7.98003 12.1971 7.9286 12.2142 7.91146 12.2056C7.88574 12.2056 7.71431 12.1028 7.6886 12.0685V12.0514ZM7.94574 11.7256C7.94574 11.7256 7.93717 11.7085 7.9286 11.6999C7.91146 11.6999 7.8686 11.6999 7.8686 11.7256C7.8686 11.7514 7.90288 11.8799 7.95431 11.9485C8.00574 12.0171 8.04003 12.0685 8.06574 12.0856C8.09146 12.0942 8.1086 12.0856 8.12574 12.0685C8.12574 12.0599 8.14288 11.9828 8.13431 11.8199C8.12574 11.6571 8.12574 11.4856 8.11717 11.4771C8.1086 11.4685 8.06574 11.4685 8.05717 11.4856C8.0486 11.5028 7.95431 11.6999 7.95431 11.7256H7.94574Z" fill="#585136"/>
<path fill-rule="evenodd" clip-rule="evenodd" d="M7.76575 12.7199C7.76575 12.7199 7.69717 12.6771 7.6286 12.7028C7.5686 12.7285 7.5686 12.8485 7.5686 12.8485C7.59432 12.8571 7.6286 12.8485 7.65432 12.8399C7.69718 12.8142 7.7486 12.7628 7.75718 12.7199H7.76575Z" fill="#574F35"/>
<path fill-rule="evenodd" clip-rule="evenodd" d="M7.89427 12.8742C7.89427 12.8742 7.85999 12.8399 7.85999 12.8142C7.85999 12.7971 7.8857 12.7799 7.90284 12.7799C7.91999 12.7799 7.93713 12.8056 7.96284 12.8142C7.98856 12.8313 8.02284 12.8485 8.02284 12.8828C8.02284 12.9171 7.98856 12.9942 7.93713 12.9942C7.8857 12.9942 7.90284 12.9085 7.89427 12.8656V12.8742ZM8.27141 12.8228C8.27141 12.8228 8.19427 12.8485 8.20284 12.8228C8.21141 12.7971 8.22856 12.7971 8.25427 12.7971C8.26284 12.7799 8.28856 12.7713 8.3057 12.7713C8.31427 12.7713 8.32284 12.7713 8.33141 12.7799C8.33141 12.7799 8.38284 12.7542 8.39999 12.7713C8.41713 12.7885 8.39999 12.7885 8.41713 12.7971C8.4257 12.8142 8.43427 12.8313 8.44284 12.8571C8.44284 12.8742 8.38284 12.9085 8.33998 12.8999C8.28856 12.8913 8.29713 12.8313 8.28856 12.8228H8.27141ZM8.7257 12.7371C8.7257 12.7371 8.75141 12.7542 8.7257 12.7628C8.70856 12.7799 8.63999 12.7971 8.58856 12.8056C8.52856 12.8056 8.47713 12.8142 8.47713 12.7971C8.47713 12.7799 8.52856 12.7371 8.55427 12.7285C8.56284 12.7113 8.57999 12.7028 8.6057 12.7028C8.63141 12.7028 8.71713 12.6942 8.74284 12.6856C8.76856 12.6856 8.7857 12.6942 8.76856 12.7113C8.76856 12.7285 8.71713 12.7285 8.71713 12.7285L8.7257 12.7371ZM8.86284 12.1371C8.86284 12.1371 8.83713 12.1971 8.80284 12.1971C8.76856 12.1971 8.76856 12.1799 8.76856 12.1713C8.76856 12.1542 8.80284 12.1199 8.79427 12.1113C8.7857 12.1113 8.75998 12.1113 8.76856 12.0856C8.76856 12.0685 8.80284 12.0428 8.82856 12.0513C8.85427 12.0342 8.87999 12.0256 8.9057 12.0256C8.93999 12.0256 8.9657 12.0342 8.9657 12.0513C8.9657 12.0685 8.93141 12.1113 8.91427 12.1199C8.89713 12.1371 8.87999 12.1456 8.86284 12.1285V12.1371ZM8.41713 13.2856C8.41713 13.2856 8.38284 13.2856 8.38284 13.3113C8.38284 13.3199 8.39141 13.3199 8.40856 13.3113C8.40856 13.3113 8.4257 13.3113 8.43427 13.3113C8.43427 13.3113 8.43427 13.3371 8.46856 13.3371C8.49427 13.3371 8.51141 13.3285 8.53713 13.3113C8.56284 13.3028 8.57999 13.2942 8.57999 13.2771C8.57141 13.2428 8.55427 13.2256 8.51998 13.2256C8.50284 13.2256 8.49427 13.2256 8.47713 13.2342C8.47713 13.2342 8.46856 13.2171 8.43427 13.2342C8.39999 13.2513 8.40856 13.2513 8.41713 13.2599C8.43427 13.2771 8.4257 13.2856 8.4257 13.2856H8.41713ZM8.19427 13.4828C8.19427 13.4828 8.2457 13.4571 8.25427 13.4571C8.27141 13.4571 8.3057 13.5342 8.3057 13.5428C8.3057 13.5513 8.25427 13.5771 8.23713 13.5771C8.21998 13.5771 8.1857 13.5428 8.1857 13.5428C8.1857 13.5428 8.21141 13.5342 8.21141 13.5256C8.21141 13.5171 8.19427 13.4913 8.19427 13.4828ZM8.03999 13.1999C8.03999 13.1999 8.04856 13.1828 8.0657 13.1742C8.07427 13.1742 8.08284 13.1742 8.09141 13.1742C8.09141 13.1656 8.10856 13.1571 8.1257 13.1485C8.15141 13.1485 8.16856 13.1485 8.15999 13.1571C8.15999 13.1828 8.17713 13.2085 8.17713 13.2256C8.17713 13.2428 8.15999 13.2771 8.11713 13.2942C8.0657 13.3113 8.0057 13.3113 7.98856 13.3028C7.97141 13.2942 7.97141 13.2599 7.97999 13.2428C7.98856 13.2256 8.01427 13.1999 8.03141 13.1913L8.03999 13.1999Z" fill="#82764F"/>
<path fill-rule="evenodd" clip-rule="evenodd" d="M8.09996 13.2171C8.09996 13.2171 8.06567 13.2342 8.06567 13.2428C8.06567 13.2514 8.06567 13.2599 8.06567 13.2685C8.06567 13.2685 8.10853 13.2685 8.1171 13.2599C8.1171 13.2599 8.10853 13.2256 8.10853 13.2085L8.09996 13.2171Z" fill="#6E6342"/>
<path fill-rule="evenodd" clip-rule="evenodd" d="M7.81716 13.1229C7.81716 13.1229 7.86859 13.1229 7.8943 13.1315C7.91144 13.14 7.92859 13.1572 7.91144 13.1829C7.8943 13.2086 7.87716 13.2429 7.82573 13.2343C7.7743 13.2343 7.73145 13.2086 7.73145 13.1829C7.73145 13.1572 7.73145 13.1315 7.75716 13.1143C7.7743 13.0972 7.78287 13.1143 7.81716 13.1143V13.1229Z" fill="#585136"/>
<path fill-rule="evenodd" clip-rule="evenodd" d="M7.79141 13.1399C7.79141 13.1399 7.73141 13.1914 7.71427 13.2085C7.69713 13.2342 7.60284 13.3542 7.56856 13.3799C7.57713 13.3628 7.5857 13.3457 7.60284 13.3285C7.56856 13.3542 7.53427 13.3885 7.51713 13.4314C7.49141 13.4999 7.6457 13.5428 7.74856 13.5685C7.85141 13.5942 7.8857 13.6028 7.8857 13.6028C7.85141 13.5428 7.81713 13.4914 7.79141 13.4228C7.75713 13.3285 7.73141 13.3199 7.75713 13.2771C7.77427 13.2342 7.80856 13.2085 7.80856 13.1742C7.79998 13.1399 7.79141 13.1228 7.79141 13.1228V13.1399Z" fill="#574F35"/>
<path fill-rule="evenodd" clip-rule="evenodd" d="M5.57996 13.2943C5.57996 13.2943 5.60567 13.2943 5.62281 13.2943C5.64853 13.2943 5.9571 13.1829 6.27424 13.2C6.51424 13.2172 6.74567 13.2515 6.9771 13.3115C7.37138 13.4143 7.86853 13.62 8.19424 13.74C8.27996 13.7743 8.36567 13.8343 8.42567 13.8515C8.67424 13.9457 8.68281 13.9457 8.81996 13.9715C8.99138 13.9972 9.16281 13.9372 9.34281 13.9029C9.56567 13.8515 9.94281 13.8343 10.2771 13.7829C10.3885 13.7657 10.4914 13.74 10.5942 13.7143C10.5942 13.7143 10.3285 13.98 9.69424 14.0743C9.4371 14.1172 9.17996 14.1172 8.92281 14.0829C8.7171 14.0658 8.58853 14.0315 8.48567 14.0057C8.37424 13.9715 8.13424 13.8858 7.84281 13.8172C7.6371 13.7658 7.41424 13.7229 7.1571 13.68C6.52281 13.56 5.82853 13.4315 5.57996 13.3029V13.2943Z" fill="#252211"/>
<path fill-rule="evenodd" clip-rule="evenodd" d="M4.85999 12.0942C4.70571 12.2228 4.54285 12.3514 4.38857 12.4714L3.90857 12.84C3.74571 12.96 3.58285 13.0885 3.41999 13.2085C3.25714 13.3285 3.09428 13.44 2.92285 13.5514C3.07714 13.4228 3.23999 13.3028 3.40285 13.1828C3.56571 13.0628 3.73714 12.9514 3.89142 12.8314L4.37142 12.4628C4.53428 12.3428 4.69714 12.2142 4.85999 12.1028V12.0942ZM4.01142 13.4571C4.01142 13.4571 4.18285 13.3114 4.39714 13.1142C4.66285 12.8657 4.99714 12.54 5.09999 12.4885L4.01142 13.4657V13.4571Z" fill="#CFB66C"/>
<path fill-rule="evenodd" clip-rule="evenodd" d="M4.01147 13.4571C4.09719 13.3714 4.19147 13.2857 4.27719 13.2086L4.41433 13.0886C4.41433 13.0886 4.50862 13.0029 4.55147 12.96C4.63719 12.8743 4.7229 12.78 4.80862 12.6943C4.85147 12.6514 4.89433 12.6086 4.94576 12.5657C4.97147 12.5486 4.99719 12.5314 5.0229 12.5143C5.04862 12.4971 5.07433 12.48 5.10862 12.4714C5.09147 12.4971 5.06576 12.5143 5.04862 12.54C5.0229 12.5571 5.00576 12.5829 4.98862 12.6C4.94576 12.6429 4.89433 12.6857 4.85147 12.72C4.75719 12.7971 4.6629 12.8743 4.57719 12.9514C4.49147 13.0286 4.39719 13.1229 4.31147 13.2C4.20862 13.2857 4.1229 13.3629 4.02862 13.44L4.01147 13.4571ZM5.16862 12.6771C5.16862 12.6771 4.53433 13.2943 4.40576 13.3971L5.16862 12.6771Z" fill="#CFB66C"/>
<path fill-rule="evenodd" clip-rule="evenodd" d="M5.17716 12.6772C5.11716 12.7458 5.05716 12.8058 4.99716 12.8658L4.80859 13.0458C4.74859 13.1058 4.68859 13.1744 4.62002 13.2344C4.55145 13.2944 4.49145 13.3458 4.41431 13.4058L4.60288 13.2258C4.66288 13.1658 4.73145 13.1144 4.80002 13.0458L4.98859 12.8658C5.04859 12.8058 5.11716 12.7372 5.18574 12.6858L5.17716 12.6772ZM5.20288 13.0115C5.14288 13.1744 5.07431 13.3372 4.99716 13.4915C4.83431 13.8172 4.58574 14.2287 4.48288 14.4344L5.20288 13.0201V13.0115Z" fill="#CFB66C"/>
<path fill-rule="evenodd" clip-rule="evenodd" d="M5.20291 13.0115C5.20291 13.08 5.18577 13.1486 5.16005 13.2086C5.13434 13.2686 5.10862 13.3286 5.08291 13.3886C5.0572 13.4486 5.02291 13.5086 4.98862 13.5686C4.95434 13.6286 4.92005 13.68 4.88577 13.74L4.68862 14.0829C4.62005 14.1943 4.55148 14.3143 4.48291 14.4258C4.53434 14.2972 4.59434 14.1858 4.66291 14.0743C4.73148 13.9629 4.79148 13.8429 4.85148 13.7229C4.88577 13.6629 4.91148 13.6029 4.9372 13.5429C4.96291 13.4829 4.9972 13.4229 5.02291 13.3629C5.04862 13.3029 5.07434 13.2429 5.10862 13.1829C5.14291 13.1229 5.16862 13.0629 5.21148 13.0115H5.20291Z" fill="#CFB66C"/>
<path fill-rule="evenodd" clip-rule="evenodd" d="M5.89714 14.6057C5.89714 14.6057 5.70857 14.8629 5.72571 15.18C5.77714 15.0086 5.84571 14.7514 5.89714 14.6057ZM6.07714 14.8629C6.07714 14.8629 6.00857 15.5571 5.94857 15.8914C6.02571 15.4971 6.04285 15.5314 6.07714 14.8629ZM7.34571 15.9343C7.34571 15.9343 7.05428 16.7829 7.05428 17.0143C7.11428 16.7743 7.23428 16.2771 7.34571 15.9343Z" fill="#DEC270"/>
<path fill-rule="evenodd" clip-rule="evenodd" d="M8.02283 14.5542C8.02283 14.5542 8.48568 15.3256 8.83711 15.9771C8.74283 15.6428 8.52854 15.0428 8.02283 14.5542Z" fill="#CBAF59"/>
<path fill-rule="evenodd" clip-rule="evenodd" d="M9.27429 15.6858C9.53143 16.1401 9.76286 16.6029 9.96858 17.0829C9.92572 16.7486 9.82286 16.1915 9.27429 15.6858Z" fill="#E3C677"/>
<path fill-rule="evenodd" clip-rule="evenodd" d="M12.9515 16.8171C13.0286 16.7657 13.1829 16.5086 13.32 16.44C13.4572 16.3714 13.5515 16.3543 13.6715 16.2257C13.7915 16.0886 13.8257 16.0028 14.0915 15.8914C14.46 15.7286 14.2029 15.5228 14.2029 15.5228C14.2457 15.48 14.2886 15.4457 14.3315 15.4114C14.4257 15.3428 14.5372 15.2486 14.5286 15.1028C14.5115 14.8457 14.4686 14.4686 14.2543 14.2543C14.46 14.2114 14.8543 14.1857 15.1029 14.1171C15.3857 14.0486 15.5143 13.9457 15.5143 13.9457C15.5143 13.9457 15.3515 13.6714 15.6172 13.3886C15.8829 13.1057 16.0972 12.9428 16.26 12.6257C16.08 12.6 15.7972 12.5057 15.0857 12.7714C15.12 12.7886 15.1629 12.8143 15.1972 12.8314C15.1972 12.8314 14.76 12.9514 14.5972 13.0886C14.3229 13.32 14.2886 13.5171 13.98 13.6628C13.6715 13.8086 13.38 13.7657 13.1229 13.8857C12.8657 14.0057 12.8315 14.1 12.7457 14.1428C12.7629 14.1686 12.7457 14.2028 12.78 14.2371C12.7543 14.2714 12.6172 14.4943 12.48 14.4943C12.4972 14.5457 12.6086 14.5886 12.6086 14.5886C12.6086 14.5886 12.5229 14.6486 12.3086 14.6657C12.42 14.7771 12.5229 14.9057 12.8143 15.0857C12.7886 15.1371 12.6943 15.2057 12.7286 15.3C12.7715 15.3943 12.8829 15.5143 13.3286 15.6171C13.1057 15.6257 12.84 15.6771 12.48 15.6343C12.1286 15.5914 12.0686 15.5657 11.8457 15.6171C11.8715 15.6428 11.9315 15.6428 11.9829 15.7028C11.9229 15.7028 11.5629 15.66 11.4343 15.8228C11.3057 15.9943 11.2457 16.2686 11.2543 16.4571C11.1857 16.4914 11.1172 16.5514 11.1515 16.6714C11.1857 16.7914 11.3572 16.8343 11.4686 16.9028C11.58 16.9886 11.5886 17.0143 11.6915 16.9971C11.8029 16.9714 11.9657 16.86 12.06 16.86C12.1543 16.86 12.2229 16.9286 12.2229 16.9286C12.2229 16.9286 12.48 16.8 12.5057 16.8257C12.5315 16.8514 12.5057 16.9971 12.5315 17.0228C12.5572 17.04 12.8486 16.8686 12.9257 16.8171H12.9515Z" fill="#ECD592"/>
<path fill-rule="evenodd" clip-rule="evenodd" d="M18.6 9.05152C17.3829 5.91437 14.3829 5.34009 14.3829 5.34009H5.82861L5.8629 8.52866H7.56861V15.6601H5.82861V18.8487H14.1515C16.1572 18.8487 17.7686 16.8344 17.7686 16.8344C20.34 13.1829 18.6086 9.06009 18.6086 9.06009L18.6 9.05152ZM14.1943 14.6829C14.1943 14.6829 13.5429 15.6258 12.8315 15.6258H11.4086L11.3743 8.53723H13.2C13.2 8.53723 14.0486 8.71723 14.6315 10.3887C14.6315 10.3887 15.4115 12.7801 14.1943 14.6829Z" fill="white" fill-opacity="0.71"/>
</g>
<defs>
<clipPath id="clip0_28_888">
<rect width="24" height="24" fill="white"/>
</clipPath>
</defs>
</svg>
