<svg width="24" height="24" viewBox="0 0 24 24" fill="none" xmlns="http://www.w3.org/2000/svg">
<g clip-path="url(#clip0_5357_49732)">
<path d="M12 24C18.6274 24 24 18.6274 24 12C24 5.37258 18.6274 0 12 0C5.37258 0 0 5.37258 0 12C0 18.6274 5.37258 24 12 24Z" fill="#180D71"/>
<path d="M12.2098 16.593C10.8487 16.5924 9.52144 16.1683 8.4121 15.3796C8.28425 15.285 8.18055 15.1616 8.10944 15.0194C8.03834 14.8771 8.00185 14.7201 8.00295 14.5611C8.00248 14.4281 8.02856 14.2964 8.07965 14.1737C8.13075 14.051 8.20584 13.9397 8.30051 13.8464C8.39519 13.7531 8.50754 13.6796 8.63099 13.6303C8.75444 13.5809 8.88649 13.5568 9.01941 13.5592C9.24266 13.5575 9.46067 13.6269 9.64186 13.7573C10.4815 14.3754 11.3359 14.6758 12.2533 14.6758C13.1877 14.6758 13.7455 14.3077 13.7455 13.6911V13.6621C13.7455 13.044 13.3015 12.7604 11.68 12.3446C9.78571 11.861 8.33672 11.3274 8.33672 9.26829V9.23933C8.33672 7.45402 9.7862 6.20718 11.8616 6.20718C12.9938 6.1905 14.1066 6.50126 15.0662 7.10208C15.2538 7.21715 15.3984 7.39053 15.478 7.59566C15.5576 7.8008 15.5677 8.02636 15.5068 8.2378C15.4459 8.44923 15.3174 8.63488 15.1409 8.76628C14.9644 8.89768 14.7497 8.96759 14.5297 8.96531C14.335 8.96582 14.144 8.91184 13.9784 8.80945C13.1945 8.34892 12.4927 8.12422 11.8333 8.12422C11.0237 8.12422 10.5002 8.48223 10.5002 9.03645V9.06554C10.5002 9.76119 10.9711 9.98067 12.7104 10.4264C14.6303 10.9266 15.909 11.6313 15.909 13.4449V13.4737C15.909 15.3978 14.4915 16.593 12.2098 16.593Z" fill="white"/>
<path d="M13.083 10.5288V12.7988C13.5799 13.0326 13.7453 13.285 13.7453 13.6623V13.6914C13.7453 14.0934 13.5071 14.3887 13.083 14.5464V16.5281C14.8471 16.2568 15.9089 15.1384 15.9089 13.4741V13.4452C15.9089 11.7515 14.7938 11.025 13.083 10.5288Z" fill="url(#paint0_linear_5357_49732)"/>
<path d="M12.1196 4.48486C11.8641 4.48486 11.6191 4.58636 11.4384 4.76703C11.2577 4.94769 11.1563 5.19273 11.1563 5.44823V17.3329C11.1562 17.4594 11.1812 17.5847 11.2296 17.7016C11.278 17.8185 11.349 17.9247 11.4384 18.0141C11.5279 18.1036 11.6341 18.1746 11.751 18.223C11.8679 18.2714 11.9932 18.2963 12.1197 18.2963C12.2463 18.2963 12.3716 18.2714 12.4885 18.223C12.6053 18.1746 12.7116 18.1036 12.801 18.0141C12.8905 17.9247 12.9615 17.8185 13.0099 17.7016C13.0583 17.5847 13.0832 17.4594 13.0832 17.3329V5.44823C13.0832 5.3217 13.0583 5.19641 13.0099 5.07951C12.9614 4.96261 12.8905 4.8564 12.801 4.76694C12.7115 4.67748 12.6053 4.60653 12.4884 4.55813C12.3714 4.50973 12.2462 4.48483 12.1196 4.48486V4.48486Z" fill="white"/>
<path d="M13.083 10.5288V12.7988C13.5799 13.0326 13.7453 13.285 13.7453 13.6623V13.6914C13.7453 14.0934 13.5071 14.3887 13.083 14.5464V16.5281C14.8471 16.2568 15.9089 15.1384 15.9089 13.4741V13.4452C15.9089 11.7515 14.7938 11.025 13.083 10.5288Z" fill="url(#paint1_linear_5357_49732)"/>
<path d="M11.1565 12.2054V9.94405C10.6653 9.72081 10.5003 9.47612 10.5003 9.06539V9.03631C10.5003 8.65806 10.7443 8.37144 11.1565 8.22734V6.25879C9.46547 6.50918 8.33691 7.66464 8.33691 9.24016V9.26924C8.33691 11.1333 9.52522 11.7469 11.1565 12.2054Z" fill="url(#paint2_linear_5357_49732)"/>
<path d="M11.1565 12.2054V9.94405C10.6653 9.72081 10.5003 9.47612 10.5003 9.06539V9.03631C10.5003 8.65806 10.7443 8.37144 11.1565 8.22734V6.25879C9.46547 6.50918 8.33691 7.66464 8.33691 9.24016V9.26924C8.33691 11.1333 9.52522 11.7469 11.1565 12.2054Z" fill="url(#paint3_linear_5357_49732)"/>
</g>
<defs>
<linearGradient id="paint0_linear_5357_49732" x1="11.156" y1="13.5285" x2="15.7751" y2="13.5285" gradientUnits="userSpaceOnUse">
<stop offset="0.513" stop-color="#180D71"/>
<stop offset="0.654" stop-color="#180D71" stop-opacity="0.629"/>
<stop offset="0.794" stop-color="#180D71" stop-opacity="0.291"/>
<stop offset="0.893" stop-color="#180D71" stop-opacity="0.081"/>
<stop offset="0.942" stop-color="#180D71" stop-opacity="0"/>
</linearGradient>
<linearGradient id="paint1_linear_5357_49732" x1="13.5425" y1="16.2717" x2="14.3301" y2="12.9156" gradientUnits="userSpaceOnUse">
<stop offset="0.254" stop-color="white"/>
<stop offset="0.318" stop-color="white" stop-opacity="0.975"/>
<stop offset="0.407" stop-color="white" stop-opacity="0.903"/>
<stop offset="0.511" stop-color="white" stop-opacity="0.786"/>
<stop offset="0.626" stop-color="white" stop-opacity="0.622"/>
<stop offset="0.751" stop-color="white" stop-opacity="0.412"/>
<stop offset="0.882" stop-color="white" stop-opacity="0.16"/>
<stop offset="0.958" stop-color="white" stop-opacity="0"/>
</linearGradient>
<linearGradient id="paint2_linear_5357_49732" x1="12.2606" y1="9.23216" x2="8.89234" y2="9.23216" gradientUnits="userSpaceOnUse">
<stop offset="0.384" stop-color="#180D71"/>
<stop offset="0.587" stop-color="#180D71" stop-opacity="0.629"/>
<stop offset="0.788" stop-color="#180D71" stop-opacity="0.291"/>
<stop offset="0.93" stop-color="#180D71" stop-opacity="0.081"/>
<stop offset="1" stop-color="#180D71" stop-opacity="0"/>
<stop offset="1" stop-color="#180D71" stop-opacity="0"/>
<stop offset="1" stop-color="#E51B44" stop-opacity="0"/>
</linearGradient>
<linearGradient id="paint3_linear_5357_49732" x1="11.0508" y1="6.09069" x2="9.48874" y2="11.3694" gradientUnits="userSpaceOnUse">
<stop offset="0.339" stop-color="white"/>
<stop offset="0.367" stop-color="white" stop-opacity="0.975"/>
<stop offset="0.406" stop-color="white" stop-opacity="0.903"/>
<stop offset="0.453" stop-color="white" stop-opacity="0.786"/>
<stop offset="0.504" stop-color="white" stop-opacity="0.622"/>
<stop offset="0.559" stop-color="white" stop-opacity="0.412"/>
<stop offset="0.617" stop-color="white" stop-opacity="0.16"/>
<stop offset="0.651" stop-color="white" stop-opacity="0"/>
</linearGradient>
<clipPath id="clip0_5357_49732">
<rect width="24" height="24" fill="white"/>
</clipPath>
</defs>
</svg>
