<svg width="24" height="24" viewBox="0 0 24 24" fill="none" xmlns="http://www.w3.org/2000/svg">
<g clip-path="url(#clip0_4787_61780)">
<path fill-rule="evenodd" clip-rule="evenodd" d="M0 12C0 9.62663 0.703787 7.30655 2.02236 5.33316C3.34094 3.35977 5.21508 1.8217 7.4078 0.913451C9.60051 0.00519943 12.0133 -0.232441 14.3411 0.230582C16.6689 0.693604 18.807 1.83649 20.4853 3.51472C22.1635 5.19295 23.3064 7.33115 23.7694 9.65892C24.2324 11.9867 23.9948 14.3995 23.0865 16.5922C22.1783 18.7849 20.6402 20.6591 18.6668 21.9776C16.6934 23.2962 14.3734 24 12 24C8.8174 24 5.76515 22.7357 3.51472 20.4853C1.26428 18.2348 0 15.1826 0 12Z" fill="#2EA9E2"/>
<path d="M12.0001 4.45996C12.0001 4.45996 7.04679 11.4466 7.04679 14.58C7.02235 15.2462 7.13247 15.9105 7.37056 16.5332C7.60865 17.1559 7.96983 17.7242 8.43251 18.2041C8.89519 18.6841 9.44987 19.0659 10.0634 19.3266C10.677 19.5874 11.3368 19.7218 12.0035 19.7218C12.6701 19.7218 13.3299 19.5874 13.9435 19.3266C14.557 19.0659 15.1117 18.6841 15.5744 18.2041C16.0371 17.7242 16.3983 17.1559 16.6364 16.5332C16.8744 15.9105 16.9846 15.2462 16.9601 14.58C16.9535 11.4266 12.0001 4.45996 12.0001 4.45996Z" fill="white"/>
</g>
<defs>
<clipPath id="clip0_4787_61780">
<rect width="24" height="24" fill="white"/>
</clipPath>
</defs>
</svg>
