<svg width="24" height="24" viewBox="0 0 24 24" fill="none" xmlns="http://www.w3.org/2000/svg">
<g clip-path="url(#clip0_5357_40587)">
<path d="M12.0085 24.0169C18.6406 24.0169 24.0169 18.6406 24.0169 12.0085C24.0169 5.37637 18.6406 0 12.0085 0C5.37637 0 0 5.37637 0 12.0085C0 18.6406 5.37637 24.0169 12.0085 24.0169Z" fill="#7866D5"/>
<path d="M16.8694 6.16489C17.2759 6.2157 17.6993 6.24957 18.1058 6.31732C18.9019 6.46976 19.1729 6.87625 19.0374 7.68923C19.0035 7.9941 18.7664 8.23122 18.4615 8.28204C18.2752 8.31591 18.0719 8.33285 17.8856 8.31591C15.2434 8.31591 12.6182 8.33285 9.97596 8.33285C9.58641 8.33285 9.17991 8.36672 8.79036 8.43447C7.48619 8.63772 6.97808 9.17971 6.87645 10.5008C6.82564 11.1105 6.82564 11.1105 7.45232 11.1105H17.9534C18.055 11.1105 18.1566 11.1105 18.2582 11.1105C18.4276 11.1105 18.5801 11.1614 18.7325 11.246C19.2067 11.5509 19.0882 12.0421 19.0712 12.4825C19.0543 12.8381 18.8341 13.0414 18.4615 13.1091C18.3091 13.143 18.1566 13.143 17.9873 13.143C14.3966 13.143 10.8059 13.143 7.2152 13.143C6.82564 13.143 6.82564 13.143 6.85952 13.5326C6.87645 13.8882 6.91033 14.2439 6.99501 14.5996C7.16439 15.2432 7.55394 15.6497 8.21449 15.836C8.92585 16.0393 9.67109 16.0731 10.3994 16.0901C12.9569 16.0901 15.5314 16.0901 18.1058 16.0901C18.4276 16.0901 18.7325 16.124 18.9357 16.4288C19.2575 16.9369 19.0882 17.5975 18.5801 17.9193C18.5123 17.9701 18.4446 18.004 18.3599 18.0209C17.8009 18.2072 17.2251 18.2411 16.6323 18.258C14.2103 18.3089 11.8052 18.3089 9.4001 18.258C8.65486 18.2411 7.90962 18.1564 7.18132 18.004C5.47067 17.6483 4.60687 16.7676 4.31894 15.04C4.25119 14.6504 4.21732 14.2439 4.1665 13.8374V10.6871C4.20038 10.3822 4.23425 10.0604 4.26813 9.75557C4.48831 7.80779 5.36904 6.84237 7.28295 6.40201C7.96043 6.24957 8.6718 6.2157 9.34928 6.14795L16.8694 6.16489Z" fill="white"/>
<path d="M13.0079 18.597C11.7884 18.597 10.5859 18.58 9.38334 18.5631C8.62117 18.5462 7.85899 18.4615 7.11376 18.2921C5.2676 17.9025 4.31912 16.9202 4.01425 15.091C3.96344 14.803 3.92957 14.5151 3.91263 14.2441C3.89569 14.1255 3.87875 14.007 3.86182 13.8715V13.8376V10.6534L3.89569 10.3486C3.91263 10.1284 3.9465 9.92513 3.96344 9.72188C4.20056 7.6386 5.18292 6.57156 7.23232 6.11426C7.77431 5.9957 8.29936 5.94488 8.82441 5.89407C8.99379 5.87714 9.16316 5.8602 9.33253 5.84326H9.3664H16.9035H16.9204C17.039 5.8602 17.1744 5.87714 17.293 5.87714C17.5809 5.91101 17.8689 5.92795 18.1737 5.9957C19.1392 6.18201 19.5118 6.724 19.3424 7.70635C19.2916 8.12978 18.9529 8.48546 18.4955 8.55321C18.2923 8.58709 18.0891 8.60402 17.8689 8.60402C15.2436 8.62096 12.6014 8.6379 9.97614 8.6379C9.60352 8.6379 9.21397 8.67177 8.84135 8.73952C7.67268 8.92583 7.28313 9.34926 7.18151 10.5349C7.18151 10.6365 7.16457 10.7381 7.16457 10.8228C7.23232 10.8228 7.35088 10.8228 7.4525 10.8228H18.2584C18.4786 10.8228 18.6988 10.8905 18.8851 10.9922C19.461 11.3648 19.4102 11.9237 19.3763 12.3302C19.3763 12.381 19.3593 12.4488 19.3593 12.4996C19.3255 12.9738 19.0375 13.2956 18.5125 13.3972C18.3262 13.4311 18.1568 13.4311 17.9874 13.4311H7.23232C7.21538 13.4311 7.18151 13.4311 7.16457 13.4311C7.16457 13.4481 7.16457 13.465 7.16457 13.4819V13.4989C7.18151 13.8546 7.21538 14.1933 7.30007 14.532C7.43556 15.0571 7.75737 15.3789 8.29936 15.5313C9.02766 15.7346 9.7729 15.7685 10.4165 15.7685C12.4151 15.7854 14.4476 15.7854 16.4292 15.7854H18.1229C18.377 15.7854 18.902 15.7854 19.2069 16.2766C19.4102 16.5984 19.461 16.971 19.3763 17.3267C19.2916 17.6824 19.0714 17.9872 18.7496 18.1905C18.6649 18.2413 18.5633 18.2921 18.4617 18.326C17.835 18.5292 17.1914 18.5631 16.6494 18.58C15.4469 18.58 14.2274 18.597 13.0079 18.597ZM4.47156 13.8207C4.48849 13.9392 4.50543 14.0578 4.50543 14.1764C4.5393 14.4474 4.57318 14.7184 4.60705 14.9893C4.87805 16.5814 5.64022 17.3606 7.23232 17.6993C7.94368 17.8517 8.67198 17.9364 9.40028 17.9534C11.7884 18.0042 14.2274 18.0042 16.6325 17.9534C17.1236 17.9364 17.7164 17.9025 18.2584 17.7332C18.3092 17.7162 18.3601 17.6824 18.4109 17.6654C18.5802 17.5469 18.7157 17.3775 18.7665 17.1742C18.8174 16.971 18.7835 16.7678 18.6649 16.5814C18.5633 16.429 18.4278 16.3782 18.106 16.3782H16.4123C14.4476 16.3782 12.3982 16.3782 10.3996 16.3613C9.72209 16.3613 8.92604 16.3274 8.12999 16.0903C7.36782 15.887 6.89357 15.3958 6.70726 14.6337C6.62258 14.261 6.57177 13.8715 6.57177 13.4989V13.4819C6.55483 13.2448 6.53789 13.0754 6.67339 12.923C6.80889 12.7706 6.9952 12.7706 7.23232 12.7706H18.0044C18.1399 12.7706 18.2923 12.7706 18.4278 12.7367C18.6988 12.6859 18.7665 12.5673 18.7835 12.398C18.7835 12.3302 18.8004 12.2794 18.8004 12.2116C18.8343 11.7882 18.8343 11.585 18.5972 11.4325C18.5125 11.3817 18.3939 11.3478 18.2923 11.3478H7.4525C7.07988 11.3478 6.8597 11.3478 6.69033 11.1785C6.52096 11.0091 6.55483 10.772 6.57177 10.4163C6.69033 8.9597 7.30007 8.29915 8.73973 8.07897C9.14622 8.01122 9.55271 7.97735 9.97614 7.96041C12.6183 7.96041 15.2436 7.94347 17.8858 7.94347C18.0721 7.94347 18.2415 7.94347 18.4109 7.9096C18.5802 7.89266 18.7157 7.75716 18.7327 7.58779C18.8512 6.9103 18.6819 6.69012 18.0382 6.55462C17.7673 6.50381 17.4963 6.46994 17.2253 6.453C17.1067 6.43606 16.9712 6.41913 16.8526 6.41913H9.3664C9.19703 6.43606 9.02766 6.453 8.85829 6.46994C8.33324 6.52075 7.84206 6.55462 7.33394 6.67318C5.55554 7.11355 4.77642 7.97735 4.57318 9.80656C4.55624 10.0098 4.52237 10.2131 4.50543 10.4332L4.47156 10.7212V13.8207Z" fill="white"/>
</g>
<defs>
<clipPath id="clip0_5357_40587">
<rect width="24" height="24" fill="white"/>
</clipPath>
</defs>
</svg>
