<svg width="25" height="24" viewBox="0 0 25 24" fill="none" xmlns="http://www.w3.org/2000/svg">
<circle cx="12.75" cy="12" r="12" fill="#F5F5F5"/>
<g clip-path="url(#clip0_403_33820)">
<path d="M12.9447 21H12.1671V20.1225H11.2895C11.2934 19.8584 11.2963 19.5923 11.3002 19.3272L11.3459 19.335L11.3896 19.3213C12.1652 19.3242 12.9408 19.3272 13.7164 19.3301C13.7125 19.5884 13.7086 19.8466 13.7047 20.1049C13.4588 20.1186 13.212 20.1323 12.9437 20.1479V21.001L12.9447 21Z" fill="#E8E8E8"/>
<path d="M8.08985 3.8863C8.08791 3.59087 8.08597 3.29543 8.08402 3H9.73727C9.73533 3.55663 9.73338 4.11228 9.73144 4.66891L9.74408 4.65717C9.48263 4.65424 9.22215 4.65033 8.9607 4.64739L8.88295 4.56424C8.87323 4.34707 8.86254 4.12989 8.85087 3.87457H8.07916L8.0918 3.8863H8.08985Z" fill="#101010"/>
<path d="M15.3813 4.66891C15.3794 4.11228 15.3774 3.55663 15.3755 3H17.0287L17.0229 3.8863L17.0355 3.87457C16.775 3.88141 16.5136 3.88924 16.2531 3.89609L16.1744 3.98022C16.1676 4.20717 16.1598 4.43511 16.153 4.66207C15.8925 4.66109 15.6321 4.65913 15.3706 4.65815L15.3832 4.66989L15.3813 4.66891Z" fill="#101010"/>
<path d="M14.5921 20.1147L14.597 21H13.7222C13.729 20.7388 13.7358 20.4786 13.7426 20.2174C13.7689 20.19 13.7942 20.1626 13.8204 20.1352C14.0809 20.1313 14.3423 20.1284 14.6028 20.1245L14.5921 20.1137V20.1147Z" fill="#101010"/>
<path d="M11.2885 20.1225H12.1671V21H11.3896C11.3643 20.9667 11.3391 20.9345 11.3128 20.9012C11.305 20.641 11.2963 20.3817 11.2885 20.1215V20.1225Z" fill="#C8C8C8"/>
<path d="M11.2885 20.1225C11.2963 20.3827 11.305 20.642 11.3128 20.9022C11.306 20.9354 11.2992 20.9677 11.2924 21.001H10.5149C10.5168 20.7056 10.5188 20.4111 10.5197 20.1157L10.509 20.1264C10.7695 20.1264 11.03 20.1254 11.2905 20.1245H11.2895L11.2885 20.1225Z" fill="#101010"/>
<path d="M13.7426 20.2174C13.7358 20.4786 13.729 20.7388 13.7222 21H12.9446V20.147C13.2129 20.1313 13.4598 20.1176 13.7057 20.1039L13.7319 20.1303C13.7212 20.1616 13.7241 20.191 13.7426 20.2184V20.2174Z" fill="#C8C8C8"/>
<path d="M4.09914 15.2126C4.06609 15.2175 4.03305 15.2234 4 15.2283C4 14.1522 4 13.0761 4 12C4.03305 12.0049 4.06609 12.0108 4.09914 12.0157C4.09914 13.081 4.09914 14.1463 4.09914 15.2116V15.2126Z" fill="#2C2C2C"/>
<path d="M11.2914 21C11.2982 20.9667 11.305 20.9344 11.3118 20.9012C11.3371 20.9344 11.3623 20.9667 11.3886 21H11.2914Z" fill="#B1B1B1"/>
<path d="M4.09912 15.2126C4.09912 14.1473 4.09912 13.0819 4.09912 12.0166H4.85917V10.3585C5.13034 10.3458 5.36554 10.335 5.63866 10.3223V6.33195H6.43466L6.423 6.32021C6.43175 7.36499 6.44147 8.41075 6.45022 9.45553C6.47646 9.48293 6.50173 9.51032 6.52797 9.53869H8.08792V8.7776H8.88101V7.99108C8.90725 7.96369 8.93252 7.9363 8.95876 7.90793C9.20952 7.89619 9.45931 7.88543 9.74117 7.87173V4.65717L9.72853 4.6689H10.4866V7.07445H14.5882V4.6689H15.3803L15.3677 4.65717V7.89325H16.1501C16.1569 8.15249 16.1646 8.41271 16.1714 8.67195C16.1977 8.70032 16.2239 8.72771 16.2502 8.75608C16.5077 8.76293 16.7643 8.76977 17.0219 8.77662V9.53086H18.5877V6.32021L18.575 6.33293H19.4303V10.3066H20.2195V12H20.9971V15.2175H20.2467V16.8698C19.9775 16.8825 19.7423 16.8933 19.475 16.905C19.4643 17.1466 19.4536 17.3834 19.441 17.6524C19.1834 17.6651 18.9317 17.6768 18.679 17.6886C18.6528 17.716 18.6275 17.7443 18.6013 17.7717V18.5426H17.8043V19.3516H16.2482C16.222 19.379 16.1967 19.4074 16.1705 19.4348V20.1137H14.5891L14.5998 20.1244C14.6008 19.8652 14.6028 19.606 14.6037 19.3458H15.3784V18.5583L15.3764 18.5602H16.1705V17.7717C16.1967 17.7443 16.222 17.7169 16.2482 17.6896C16.5 17.6768 16.7517 17.6651 17.0316 17.6514V16.8952L17.0297 16.8972H17.8091V15.2322L17.8072 15.2341H18.5546V13.6787H16.1471C15.8944 13.6669 15.6417 13.6542 15.3686 13.6415V12.7787H16.1316V10.3291H15.3647V9.54847H14.6066V8.80499H13.7445V9.56021C13.7377 10.1149 13.7319 10.6696 13.7251 11.2242H12.9582C12.9446 11.506 12.934 11.7427 12.9223 11.9736H12.1778C12.1661 11.7104 12.1554 11.4737 12.1438 11.2037H11.3866C11.3614 11.1763 11.3351 11.1479 11.3099 11.1205C11.2992 10.6001 11.2885 10.0787 11.2778 9.55825V8.8001H10.4993V9.54945H9.71298V10.3546H8.95682C8.93058 10.3819 8.90531 10.4093 8.87907 10.4367C8.87907 11.1861 8.87907 11.9354 8.87907 12.6848C8.90531 12.7122 8.93058 12.7396 8.95682 12.7679C9.2173 12.7718 9.47777 12.7758 9.73825 12.7797V13.6806H8.86254C8.08403 13.6806 7.30551 13.6806 6.527 13.6806C6.50076 13.708 6.47549 13.7354 6.44924 13.7628C6.44924 14.2187 6.44924 14.6746 6.44924 15.1304C6.47451 15.1578 6.50076 15.1852 6.52603 15.2126C6.78359 15.2204 7.04115 15.2273 7.29871 15.2351L7.29677 15.2331V16.8981H8.07625L8.07431 16.8962V17.6778H8.85477C8.86254 17.9361 8.87129 18.1963 8.87907 18.4565C8.90434 18.4839 8.93058 18.5113 8.95585 18.5387C9.21341 18.5465 9.47097 18.5534 9.72853 18.5612L9.72659 18.5592V19.3467H10.5012C10.5022 19.606 10.5041 19.8652 10.5051 20.1244L10.5158 20.1137L8.95585 20.1019C8.92961 20.0746 8.90434 20.0472 8.87809 20.0188V19.3477H7.3094V18.5367H6.52505C6.49881 18.5093 6.47354 18.4819 6.4473 18.4536V17.6905H5.66879V16.9089H4.89319V15.2478C4.60452 15.2341 4.35182 15.2224 4.10009 15.2097L4.09912 15.2126Z" fill="#101010"/>
<path d="M17.8004 4.66891H18.577V6.33195L18.5896 6.31923C18.3301 6.31923 18.0706 6.31923 17.8111 6.32021C17.8111 5.76554 17.8111 5.21086 17.8121 4.65619L17.8004 4.66891Z" fill="#101010"/>
<path d="M17.0219 3.88631H17.8004V4.66892L17.8121 4.6562C17.5526 4.6562 17.2931 4.6562 17.0336 4.65718C17.0336 4.39599 17.0336 4.13479 17.0345 3.8736L17.0219 3.88534V3.88631Z" fill="#101010"/>
<path d="M18.6042 17.7727C18.6304 17.7453 18.6557 17.717 18.6819 17.6896C18.6557 17.717 18.6304 17.7453 18.6042 17.7727Z" fill="#E1E1E1"/>
<path d="M16.1734 19.4358C16.1996 19.4084 16.2249 19.38 16.2512 19.3526C16.2249 19.38 16.1996 19.4084 16.1734 19.4358Z" fill="#E1E1E1"/>
<path d="M6.52898 4.67967C6.78946 4.67673 7.0509 4.67282 7.31138 4.66988L7.29972 4.65717C7.29972 5.21184 7.29972 5.76651 7.30069 6.32119C7.00814 6.32119 6.71656 6.32119 6.42401 6.32021L6.43567 6.33195L6.45123 4.76184C6.47747 4.73445 6.50274 4.70706 6.52898 4.67967Z" fill="#101010"/>
<path d="M7.31135 4.66892V3.88631H8.08986L8.07723 3.87457C8.07723 4.13577 8.07723 4.39696 8.0782 4.65816C7.81869 4.65816 7.55919 4.65816 7.29968 4.65718L7.31135 4.6699V4.66892Z" fill="#101010"/>
<path d="M6.52899 4.67969C6.50275 4.70708 6.47747 4.73447 6.45123 4.76186C6.47747 4.73447 6.50275 4.70708 6.52899 4.67969Z" fill="#2C2C2C"/>
<path d="M6.45123 18.4555C6.47747 18.4829 6.50275 18.5103 6.52899 18.5387C6.50275 18.5113 6.47747 18.4839 6.45123 18.4555Z" fill="#2C2C2C"/>
<path d="M8.88202 20.0208C8.90826 20.0481 8.93353 20.0755 8.95977 20.1039C8.93353 20.0765 8.90826 20.0491 8.88202 20.0208Z" fill="#2C2C2C"/>
<path d="M13.7174 19.3291C12.9418 19.3262 12.1662 19.3233 11.3906 19.3203C11.3643 19.292 11.339 19.2646 11.3128 19.2362C11.3041 19.0083 11.2953 18.7793 11.2866 18.5514C11.3206 18.5475 11.3556 18.5446 11.3896 18.5406C12.1681 18.5436 12.9456 18.5465 13.7242 18.5495C13.73 18.5837 13.7368 18.6189 13.7426 18.6531C13.7329 18.8791 13.7232 19.1061 13.7135 19.3321L13.7174 19.3281V19.3291Z" fill="#101010"/>
<path d="M14.6076 19.3467C14.6067 19.606 14.6047 19.8652 14.6038 20.1254C14.3433 20.1293 14.0818 20.1323 13.8214 20.1362C13.7932 20.1205 13.764 20.1186 13.7329 20.1303L13.7067 20.1039C13.7106 19.8456 13.7144 19.5874 13.7183 19.3291L13.7144 19.333C14.0031 19.3281 14.2918 19.3232 14.5804 19.3193L14.6086 19.3467H14.6076Z" fill="#C9C9C9"/>
<path d="M10.509 20.1254C10.508 19.8662 10.5061 19.6069 10.5051 19.3477L10.5333 19.3193C10.7899 19.3232 11.0475 19.3281 11.3041 19.3321L11.3011 19.3272C11.2972 19.5923 11.2943 19.8584 11.2904 20.1235C11.03 20.1235 10.7695 20.1244 10.509 20.1254Z" fill="#C8C8C8"/>
<path d="M11.3128 19.2362C11.3391 19.2646 11.3643 19.292 11.3906 19.3203L11.3468 19.334L11.3011 19.3262L11.3041 19.3311C11.307 19.2998 11.3099 19.2675 11.3138 19.2362H11.3128Z" fill="#2A2A2A"/>
<path d="M9.74213 4.65718V7.87175C9.46027 7.88446 9.20951 7.8962 8.95972 7.90794C8.92959 7.89327 8.89849 7.88936 8.86545 7.8962L8.85864 7.88936C8.85864 6.81523 8.85864 5.74012 8.85864 4.66599L8.86545 4.65914L8.91307 4.6611L8.95875 4.6474C9.2202 4.65033 9.48068 4.65425 9.74213 4.65718Z" fill="#E8E8E8"/>
<path d="M8.07818 4.65816C8.07818 4.39696 8.07818 4.13577 8.07721 3.87457H8.84892C8.86058 4.1299 8.87128 4.34707 8.88099 4.56425C8.87516 4.59555 8.8703 4.62686 8.86447 4.65914L8.85767 4.66599C8.60011 4.66599 8.34255 4.66599 8.08498 4.66599L8.07721 4.65816H8.07818Z" fill="#E8E8E8"/>
<path d="M8.86548 4.65913C8.87131 4.62783 8.87617 4.59652 8.882 4.56424L8.95976 4.64739L8.91407 4.66109L8.86645 4.65913H8.86548Z" fill="#2A2A2A"/>
<path d="M16.1511 7.89325H15.3687V4.65717C15.6291 4.65814 15.8896 4.6601 16.1511 4.66108L16.1559 4.66597C16.1559 5.7401 16.1559 6.81325 16.1559 7.88738L16.1511 7.89227V7.89325Z" fill="#E8E8E8"/>
<path d="M17.0345 3.87457C17.0345 4.13577 17.0346 4.39697 17.0336 4.65816L17.0258 4.66599C16.7362 4.66599 16.4465 4.66599 16.1569 4.66599L16.152 4.6611C16.1588 4.43414 16.1666 4.2062 16.1734 3.97925L16.2521 3.89512C16.5126 3.88827 16.7741 3.88044 17.0345 3.8736V3.87457Z" fill="#E8E8E8"/>
<path d="M16.2521 3.89609L16.1734 3.98022L16.2521 3.89609Z" fill="#C9C9C9"/>
<path d="M13.7329 20.1294C13.763 20.1186 13.7922 20.1206 13.8213 20.1352C13.7951 20.1626 13.7698 20.19 13.7436 20.2174C13.7251 20.19 13.7222 20.1607 13.7329 20.1294Z" fill="#262626"/>
<path d="M15.3706 12.7787V13.6415C15.6447 13.6542 15.8974 13.6669 16.1491 13.6787V14.4535H17.8091V15.2351L17.8111 15.2331H17.0316V16.8981L17.0335 16.8962H16.1734C16.1598 17.1838 16.1481 17.4205 16.1374 17.6573C15.8905 17.6719 15.6427 17.6866 15.3793 17.7023V18.5612L15.3813 18.5592C15.1208 18.5582 14.8593 18.5573 14.5989 18.5563L14.5921 18.5494C14.5921 17.9948 14.5921 17.4401 14.5911 16.8854H15.355V16.1419H14.6018V16.8972C14.3413 16.8903 14.0798 16.8835 13.8194 16.8766C13.7931 16.8482 13.7679 16.8199 13.7416 16.7925C13.7309 16.5734 13.7202 16.3542 13.7095 16.1253H11.3886C11.3623 16.1527 11.3371 16.1801 11.3108 16.2075C11.306 16.4374 11.3001 16.6673 11.2953 16.8962C11.0329 16.8962 10.7695 16.8962 10.507 16.8962V16.1273H9.76837V16.8844H10.5187C10.5187 17.4391 10.5187 17.9938 10.5177 18.5485L10.5109 18.5553C10.2504 18.5563 9.989 18.5573 9.72852 18.5582L9.73047 18.5602V17.6759H8.85767V16.8952H8.07527L8.07722 16.8972V15.2322H7.29773L7.29967 15.2341V14.4359H8.86253V13.6787H9.73824V12.7777L9.73144 12.7846C9.99483 12.7797 10.2573 12.7738 10.5206 12.7689H11.2817V12.0049C11.2856 11.7407 11.2894 11.4766 11.2933 11.2125L11.2856 11.2193C11.3196 11.2125 11.3536 11.2066 11.3876 11.1998H12.1447C12.1564 11.4698 12.1671 11.7065 12.1788 11.9697H12.9233C12.9339 11.7398 12.9456 11.503 12.9592 11.2203H13.7261L13.7193 11.2125L13.7397 11.3113C13.7397 11.5069 13.7397 11.7026 13.7397 11.8992C13.7377 11.9344 13.7358 11.9697 13.7338 12.0059C13.7193 12.0372 13.7222 12.0675 13.7416 12.0959C13.7416 12.2905 13.7416 12.4862 13.7416 12.6809C13.7679 12.7082 13.7931 12.7356 13.8194 12.764C14.076 12.765 14.3316 12.766 14.5882 12.7679C14.8516 12.7728 15.114 12.7787 15.3774 12.7836L15.3706 12.7767V12.7787ZM11.3118 13.7618V15.1294C11.338 15.1568 11.3633 15.1842 11.3895 15.2126H13.7105V13.6797C12.9252 13.6797 12.1574 13.6797 11.3905 13.6797C11.3643 13.7071 11.339 13.7344 11.3128 13.7618H11.3118Z" fill="#E8E8E8"/>
<path d="M11.2807 9.55632C11.2914 10.0768 11.3021 10.5982 11.3128 11.1186C11.3041 11.1528 11.2963 11.1871 11.2875 11.2213L11.2953 11.2145H9.73342V12.7856L9.74023 12.7787C9.47975 12.7748 9.21927 12.7709 8.9588 12.767L8.88104 12.6838V10.4358C8.90728 10.4084 8.93255 10.381 8.9588 10.3536H9.71496V9.54849H10.5012C10.7608 9.55143 11.0203 9.55436 11.2798 9.5573L11.2807 9.55632Z" fill="#E8E8E8"/>
<path d="M14.6096 9.54849H15.3677V10.3291H16.1346V12.7787H15.3716L15.3784 12.7856V11.2272C14.8156 11.2272 14.318 11.2272 13.8204 11.2272C13.7873 11.2233 13.7543 11.2194 13.7213 11.2154L13.7281 11.2233C13.7349 10.6686 13.7407 10.1139 13.7475 9.55925C14.0352 9.55534 14.3229 9.55241 14.6096 9.54849Z" fill="#E8E8E8"/>
<path d="M6.42401 6.32022C6.71656 6.32022 7.00814 6.32022 7.30069 6.3212L7.30847 6.32903V8.76881H8.08018L8.08795 8.77664V9.53772H6.52898C6.50274 9.51033 6.47747 9.48294 6.45123 9.45457C6.44248 8.40979 6.43276 7.36403 6.42401 6.31924V6.32022Z" fill="#E8E8E8"/>
<path d="M17.8111 6.3212C18.0706 6.3212 18.3301 6.3212 18.5896 6.32022V9.53185H17.0239V8.77761L17.0316 8.76979H17.8034V6.33L17.8111 6.32218V6.3212Z" fill="#E8E8E8"/>
<path d="M8.86447 13.6797V14.4369H7.30161V15.2351C7.04405 15.2273 6.78649 15.2204 6.52893 15.2126C6.50366 15.1852 6.47742 15.1578 6.45215 15.1304C6.45215 14.6746 6.45215 14.2187 6.45215 13.7628C6.47839 13.7354 6.50366 13.7081 6.5299 13.6807C7.30842 13.6807 8.08693 13.6807 8.86545 13.6807L8.86447 13.6797Z" fill="#C8C8C8"/>
<path d="M17.8101 15.2351V14.4535H16.1501V13.6787H18.5576V15.2341H17.8101V15.2351Z" fill="#C8C8C8"/>
<path d="M17.0326 16.8982V15.2332H17.8121V16.8982H17.0326Z" fill="#C8C8C8"/>
<path d="M7.29871 15.2332H8.07819V16.8982H7.29871V15.2332Z" fill="#C8C8C8"/>
<path d="M16.1734 8.67195C16.1666 8.41271 16.1588 8.1525 16.152 7.89326L16.1569 7.88837H17.0316V8.7688L17.0239 8.77663C16.7663 8.76978 16.5097 8.76293 16.2521 8.75608C16.2259 8.72771 16.1997 8.70032 16.1734 8.67195Z" fill="#E8E8E8"/>
<path d="M8.85773 17.6759H9.73149V18.5602C9.47393 18.5524 9.21637 18.5455 8.95881 18.5377C8.93354 18.5103 8.9073 18.4829 8.88203 18.4555C8.87425 18.1953 8.8655 17.9361 8.85773 17.6759Z" fill="#C8C8C8"/>
<path d="M8.88198 7.99011V8.77663H8.08889L8.08112 8.7688V7.88837H8.85963L8.86643 7.89521L8.88296 7.99011H8.88198Z" fill="#E8E8E8"/>
<path d="M14.6096 9.54847C14.3219 9.55239 14.0342 9.55532 13.7475 9.55923V8.80402H14.6096V9.54749V9.54847Z" fill="#C7C7C7"/>
<path d="M16.1375 17.6573C16.1491 17.4206 16.1598 17.1848 16.1734 16.8962H17.0336V17.6524C16.7537 17.6661 16.5019 17.6778 16.2502 17.6906C16.222 17.6759 16.1929 17.6729 16.1627 17.6847L16.1375 17.6573Z" fill="#C8C8C8"/>
<path d="M15.3793 18.5612V17.7023C15.6427 17.6866 15.8896 17.672 16.1374 17.6573L16.1627 17.6847C16.151 17.716 16.1549 17.7453 16.1734 17.7727V18.5612H15.3793Z" fill="#C8C8C8"/>
<path d="M9.72949 18.5592C9.98996 18.5583 10.2514 18.5573 10.5119 18.5563C10.5187 18.8107 10.5245 19.065 10.5313 19.3193L10.5031 19.3477H9.72852V18.5602L9.72949 18.5592Z" fill="#C8C8C8"/>
<path d="M14.5989 18.5553C14.8594 18.5563 15.1208 18.5573 15.3813 18.5583V19.3458H14.6067L14.5785 19.3184C14.5853 19.064 14.5921 18.8097 14.5989 18.5553Z" fill="#C8C8C8"/>
<path d="M11.2807 9.55631C11.0212 9.55337 10.7617 9.55044 10.5022 9.5475V8.79816H11.2807V9.55631Z" fill="#C8C8C8"/>
<path d="M8.07721 16.8962H8.85961V17.6778H8.07721V16.8962Z" fill="#C8C8C8"/>
<path d="M6.45123 15.1295C6.4765 15.1568 6.50275 15.1842 6.52802 15.2116C6.50275 15.1842 6.4765 15.1568 6.45123 15.1295Z" fill="#B1B1B1"/>
<path d="M6.52899 13.6797C6.50275 13.7071 6.47747 13.7345 6.45123 13.7619C6.47747 13.7345 6.50275 13.7071 6.52899 13.6797Z" fill="#B1B1B1"/>
<path d="M16.1734 17.7727C16.1549 17.7453 16.152 17.716 16.1627 17.6847C16.1928 17.6739 16.222 17.6759 16.2502 17.6906C16.2239 17.7179 16.1986 17.7453 16.1724 17.7727H16.1734Z" fill="#262626"/>
<path d="M8.88202 18.4555C8.90729 18.4829 8.93353 18.5103 8.9588 18.5377C8.93353 18.5103 8.90729 18.4829 8.88202 18.4555Z" fill="#B1B1B1"/>
<path d="M8.88202 12.6838C8.90826 12.7112 8.93353 12.7386 8.95977 12.767C8.93353 12.7396 8.90826 12.7122 8.88202 12.6838Z" fill="#CDCDCD"/>
<path d="M11.2875 11.2213C11.2963 11.1871 11.3041 11.1528 11.3128 11.1186C11.3381 11.146 11.3643 11.1744 11.3896 11.2017C11.3556 11.2086 11.3216 11.2145 11.2875 11.2213Z" fill="#292929"/>
<path d="M8.95977 10.3536C8.93353 10.381 8.90826 10.4084 8.88202 10.4358C8.90826 10.4084 8.93353 10.381 8.95977 10.3536Z" fill="#CDCDCD"/>
<path d="M6.45123 9.45554C6.47747 9.48293 6.50275 9.51032 6.52899 9.53869C6.50275 9.5113 6.47747 9.48391 6.45123 9.45554Z" fill="#CDCDCD"/>
<path d="M16.1734 8.67197C16.1996 8.70034 16.2259 8.72773 16.2521 8.7561C16.2259 8.72773 16.1996 8.70034 16.1734 8.67197Z" fill="#C9C9C9"/>
<path d="M8.882 7.9901L8.86548 7.89521C8.89852 7.88836 8.92963 7.89227 8.95976 7.90694C8.93351 7.93434 8.90824 7.96173 8.882 7.9901Z" fill="#2A2A2A"/>
<path d="M17.0326 4.65814C17.2921 4.65814 17.5516 4.65814 17.8111 4.65717C17.8111 5.21184 17.8111 5.76651 17.8102 6.32119L17.8024 6.32901H17.0248V4.66597L17.0326 4.65814Z" fill="#E8E8E8"/>
<path d="M7.29968 4.65717C7.55919 4.65717 7.81869 4.65717 8.0782 4.65814L8.08597 4.66597V6.32901H7.30843L7.30065 6.32119C7.30065 5.76651 7.30065 5.21184 7.29968 4.65717Z" fill="#E8E8E8"/>
<path d="M13.7242 18.5495C12.9456 18.5465 12.1681 18.5436 11.3896 18.5407L11.3128 18.4536C11.3128 17.9654 11.3128 17.4773 11.3128 16.9891C11.3381 16.9608 11.3643 16.9324 11.3896 16.904C12.1681 16.8982 12.9476 16.8913 13.7261 16.8854C13.7232 17.443 13.7212 18.0007 13.7183 18.5583L13.7242 18.5485V18.5495Z" fill="#DE9BAE"/>
<path d="M14.5989 18.5553C14.5921 18.8097 14.5853 19.064 14.5785 19.3184C14.2898 19.3233 14.0011 19.3282 13.7125 19.3321C13.7222 19.1061 13.7319 18.8791 13.7416 18.6532C13.7679 18.6248 13.7951 18.5964 13.8213 18.5681C14.0779 18.5622 14.3345 18.5553 14.5921 18.5495L14.5989 18.5563V18.5553Z" fill="#E8E8E8"/>
<path d="M10.5323 19.3184C10.5255 19.064 10.5197 18.8097 10.5129 18.5553L10.5197 18.5485C10.7772 18.5524 11.0358 18.5563 11.2933 18.5602L11.2865 18.5514C11.2953 18.7794 11.304 19.0083 11.3128 19.2362C11.3099 19.2675 11.3069 19.2998 11.3031 19.3311C11.0465 19.3272 10.7889 19.3223 10.5323 19.3184Z" fill="#E8E8E8"/>
<path d="M11.3128 18.4536L11.3896 18.5406C11.3556 18.5446 11.3206 18.5475 11.2866 18.5514L11.2934 18.5602L11.3128 18.4536Z" fill="#C58A9A"/>
<path d="M13.8223 18.5681C13.7961 18.5964 13.7689 18.6248 13.7426 18.6532C13.7368 18.6189 13.73 18.5837 13.7242 18.5495L13.7183 18.5593C13.7523 18.5622 13.7873 18.5651 13.8213 18.5681H13.8223Z" fill="#C9C9C9"/>
<path d="M7.30847 6.32903H8.08601V4.66599C8.34358 4.66599 8.60114 4.66599 8.8587 4.66599C8.8587 5.74012 8.8587 6.81522 8.8587 7.88935H8.08018V8.76979H7.30847V6.33001V6.32903Z" fill="#C8C8C8"/>
<path d="M17.0248 4.66599V6.32903H17.8023V8.76881H17.0306V7.88838H16.1559C16.1559 6.81425 16.1559 5.74109 16.1559 4.66696C16.4455 4.66696 16.7352 4.66696 17.0248 4.66696V4.66599Z" fill="#C9C9C9"/>
<path d="M11.3906 13.6797H13.7105V15.2126H11.3896C11.3633 15.1852 11.3381 15.1578 11.3118 15.1295C11.3118 14.6736 11.3118 14.2177 11.3118 13.7619C11.3381 13.7345 11.3633 13.7071 11.3896 13.6797H11.3906Z" fill="#101010"/>
<path d="M13.7271 16.8864C12.9486 16.8923 12.1691 16.8991 11.3906 16.905L11.2875 16.8874L11.2973 16.8962C11.3021 16.6663 11.3079 16.4364 11.3128 16.2075C11.339 16.1801 11.3643 16.1527 11.3906 16.1253H13.7115C13.7222 16.3552 13.7329 16.5734 13.7436 16.7925C13.7349 16.8267 13.7261 16.862 13.7174 16.8962L13.7271 16.8864Z" fill="#101010"/>
<path d="M13.8194 11.2272C14.317 11.2272 14.8156 11.2272 15.3774 11.2272V12.7855C15.114 12.7807 14.8516 12.7748 14.5882 12.7699V12.0176H13.8145L13.8204 11.9804C13.7931 11.954 13.7669 11.9276 13.7397 11.9022C13.7397 11.7065 13.7397 11.5109 13.7397 11.3142C13.7659 11.2849 13.7922 11.2555 13.8184 11.2272H13.8194Z" fill="#617A9D"/>
<path d="M9.7334 12.7855V11.2144H11.2953C11.2914 11.4786 11.2875 11.7427 11.2836 12.0068H10.5226V12.7709C10.2592 12.7758 9.99679 12.7816 9.7334 12.7865V12.7855Z" fill="#617A9D"/>
<path d="M13.8223 18.568C13.7883 18.5651 13.7533 18.5622 13.7193 18.5592C13.7222 18.0016 13.7241 17.444 13.7271 16.8864L13.7173 16.8962C13.7514 16.8893 13.7864 16.8835 13.8204 16.8766C14.0808 16.8835 14.3423 16.8903 14.6028 16.8972L14.5911 16.8854C14.5911 17.4401 14.5911 17.9948 14.5921 18.5494C14.3355 18.5553 14.0789 18.5622 13.8213 18.568H13.8223Z" fill="#101010"/>
<path d="M11.3128 18.4536L11.2934 18.5602C11.0358 18.5563 10.7773 18.5524 10.5197 18.5485C10.5197 17.9938 10.5197 17.4391 10.5207 16.8845L10.509 16.8962C10.7715 16.8962 11.0348 16.8962 11.2973 16.8962L11.2875 16.8874C11.2963 16.9216 11.3041 16.9559 11.3128 16.9901C11.3128 17.4783 11.3128 17.9664 11.3128 18.4546V18.4536Z" fill="#101010"/>
<path d="M13.8155 12.0186H14.5892V12.7709C14.3326 12.7699 14.077 12.7689 13.8204 12.767C13.7941 12.7396 13.7689 12.7122 13.7426 12.6838V12.0988C13.7669 12.0724 13.7902 12.045 13.8145 12.0186H13.8155Z" fill="#101010"/>
<path d="M10.5226 12.7699V12.0059H11.2836V12.7699H10.5226Z" fill="#101010"/>
<path d="M10.5197 16.8854H9.76935V16.1283H10.508V16.8972L10.5197 16.8854Z" fill="#101010"/>
<path d="M14.6028 16.8972V16.142H15.356V16.8854H14.5921L14.6038 16.8972H14.6028Z" fill="#101010"/>
<path d="M13.8204 16.8766C13.7864 16.8835 13.7514 16.8894 13.7173 16.8962C13.7261 16.862 13.7348 16.8268 13.7436 16.7925C13.7698 16.8209 13.7951 16.8493 13.8213 16.8766H13.8204Z" fill="#CDCDCD"/>
<path d="M11.3906 16.1253C11.3643 16.1527 11.339 16.1801 11.3128 16.2075C11.339 16.1801 11.3643 16.1527 11.3906 16.1253Z" fill="#2A2A2A"/>
<path d="M11.3128 15.1295C11.339 15.1568 11.3643 15.1842 11.3906 15.2126C11.3643 15.1852 11.339 15.1578 11.3128 15.1295Z" fill="#2A2A2A"/>
<path d="M11.3906 13.6797C11.3643 13.7071 11.339 13.7345 11.3128 13.7619C11.339 13.7345 11.3643 13.7071 11.3906 13.6797Z" fill="#2A2A2A"/>
<path d="M13.7426 12.6838C13.7689 12.7112 13.7941 12.7386 13.8204 12.767C13.7941 12.7396 13.7689 12.7122 13.7426 12.6838Z" fill="#2A2A2A"/>
<path d="M13.8155 12.0186C13.7912 12.045 13.7679 12.0724 13.7436 12.0988C13.7241 12.0704 13.7212 12.0401 13.7358 12.0088C13.7659 12.0029 13.7941 11.9941 13.8223 11.9814L13.8165 12.0186H13.8155Z" fill="#2A2A2A"/>
<path d="M13.8214 11.9804C13.7942 11.9931 13.765 12.0019 13.7349 12.0078C13.7368 11.9726 13.7388 11.9374 13.7407 11.9012C13.7679 11.9276 13.7942 11.954 13.8214 11.9794V11.9804Z" fill="#7186A6"/>
<path d="M13.8194 11.2272C13.7932 11.2565 13.7669 11.2859 13.7407 11.3142C13.7339 11.281 13.7271 11.2487 13.7203 11.2154C13.7533 11.2193 13.7864 11.2232 13.8194 11.2272Z" fill="#7186A6"/>
<path d="M11.3128 16.9901C11.3041 16.9559 11.2963 16.9216 11.2875 16.8874L11.3906 16.905C11.3653 16.9334 11.339 16.9617 11.3138 16.9901H11.3128Z" fill="#C58A9A"/>
</g>
<defs>
<clipPath id="clip0_403_33820">
<rect width="17" height="18" fill="white" transform="translate(4 3)"/>
</clipPath>
</defs>
</svg>
