<svg width="25" height="24" viewBox="0 0 25 24" fill="none" xmlns="http://www.w3.org/2000/svg">
<path d="M24.516 14.9029C22.9131 21.3315 16.4012 25.2438 9.97106 23.6407C3.54363 22.0381 -0.369149 15.5265 1.23442 9.09837C2.83659 2.66903 9.34849 -1.24361 15.7766 0.359081C22.2063 1.96177 26.1188 8.47405 24.5158 14.903L24.5159 14.9029H24.516Z" fill="url(#paint0_radial_401_33595)"/>
<path d="M17.6471 8.97065C17.498 7.36284 16.1124 6.81934 14.361 6.65996L14.3687 4.43054L13.0115 4.42613L13.0042 6.59682C12.6473 6.59558 12.2826 6.60141 11.9202 6.60741L11.928 4.42231L10.5716 4.4177L10.5634 6.6465C10.2697 6.65152 9.981 6.65606 9.69967 6.65524L9.69953 6.64827L7.82768 6.64123L7.82305 8.09063C7.82305 8.09063 8.82533 8.07497 8.80862 8.09327C9.35827 8.09527 9.53614 8.41505 9.58735 8.69057L9.57868 11.2304C9.61657 11.2307 9.66604 11.2324 9.72212 11.2404C9.67685 11.2403 9.62861 11.2399 9.57873 11.2402L9.5661 14.7982C9.54146 14.9711 9.43883 15.2466 9.05471 15.2459C9.0721 15.2614 8.06819 15.2424 8.06819 15.2424L7.79288 16.8622L9.55911 16.8681C9.8878 16.8697 10.2112 16.8763 10.5287 16.8793L10.5216 19.1342L11.8773 19.1389L11.8849 16.9079C12.2571 16.9169 12.6173 16.9211 12.969 16.922L12.9608 19.1426L14.3181 19.147L14.3261 16.8962C16.6084 16.7731 18.2073 16.2038 18.4129 14.0619C18.5789 12.3373 17.77 11.5648 16.4759 11.2494C17.2642 10.8514 17.7587 10.1472 17.6476 8.97071L17.6471 8.97052L17.6471 8.97065ZM15.7317 13.7855C15.7266 15.4706 12.8417 15.2692 11.9219 15.2669L11.9326 12.2794C12.8526 12.2828 15.7378 12.028 15.7317 13.7855L15.7317 13.7855ZM15.1149 9.56839C15.1092 11.1014 12.7034 10.9144 11.9373 10.9118L11.9467 8.20233C12.7129 8.20489 15.1203 7.9695 15.115 9.56836L15.1149 9.56839Z" fill="white"/>
<defs>
<radialGradient id="paint0_radial_401_33595" cx="0" cy="0" r="1" gradientUnits="userSpaceOnUse" gradientTransform="translate(12.875 12) rotate(90) scale(12)">
<stop stop-color="#3C03D0"/>
<stop offset="1" stop-color="#16004E"/>
</radialGradient>
</defs>
</svg>
