<svg width="24" height="24" viewBox="0 0 24 24" fill="none" xmlns="http://www.w3.org/2000/svg">
<circle cx="12" cy="12" r="12" fill="#D3D3D3"/>
<path d="M17.3334 6.66675H6.66671C5.92671 6.66675 5.34004 7.26008 5.34004 8.00008L5.33337 16.0001C5.33337 16.7401 5.92671 17.3334 6.66671 17.3334H17.3334C18.0734 17.3334 18.6667 16.7401 18.6667 16.0001V8.00008C18.6667 7.26008 18.0734 6.66675 17.3334 6.66675ZM16.6667 16.0001H7.33337C6.96671 16.0001 6.66671 15.7001 6.66671 15.3334V12.0001H17.3334V15.3334C17.3334 15.7001 17.0334 16.0001 16.6667 16.0001ZM17.3334 9.33341H6.66671V8.66675C6.66671 8.30008 6.96671 8.00008 7.33337 8.00008H16.6667C17.0334 8.00008 17.3334 8.30008 17.3334 8.66675V9.33341Z" fill="black"/>
</svg>
