<svg width="24" height="24" viewBox="0 0 24 24" fill="none" xmlns="http://www.w3.org/2000/svg">
<g clip-path="url(#clip0_5357_40453)">
<circle cx="12" cy="12" r="12" fill="#0C0434"/>
<path d="M24 12C24 18.6274 18.6274 24 12 24C5.37258 24 0 18.6274 0 12C0 5.37258 5.37258 0 12 0C18.6274 0 24 5.37258 24 12ZM0.95567 12C0.95567 18.0996 5.90039 23.0443 12 23.0443C18.0996 23.0443 23.0443 18.0996 23.0443 12C23.0443 5.90039 18.0996 0.95567 12 0.95567C5.90039 0.95567 0.95567 5.90039 0.95567 12Z" fill="#0C0434"/>
<path d="M24 12C24 18.6274 18.6274 24 12 24C5.37258 24 0 18.6274 0 12C0 5.37258 5.37258 0 12 0C18.6274 0 24 5.37258 24 12ZM0.95567 12C0.95567 18.0996 5.90039 23.0443 12 23.0443C18.0996 23.0443 23.0443 18.0996 23.0443 12C23.0443 5.90039 18.0996 0.95567 12 0.95567C5.90039 0.95567 0.95567 5.90039 0.95567 12Z" fill="url(#paint0_linear_5357_40453)"/>
<path d="M12.01 5.20216C11.913 7.99434 11.916 10.9999 12.01 13.8093C12.0932 11.0008 12.096 7.99444 12.01 5.20216ZM8.74277 19.9784L8.74934 20C8.77783 19.9868 8.80741 19.9752 8.83534 19.9605C9.41838 19.6558 10.038 19.4318 10.6693 19.2372C11.4734 18.9893 12.2895 18.962 13.105 19.1745C13.8092 19.3578 14.4901 19.6137 15.1356 19.9377C15.1758 19.9577 15.2097 19.9978 15.2684 19.9862C15.2627 19.9759 15.2556 19.9664 15.2472 19.958C14.2316 19.2184 13.216 18.4786 12.2005 17.7386C12.0574 17.6339 11.9418 17.6446 11.802 17.7477C10.7832 18.4938 9.76337 19.2373 8.74277 19.9784ZM8.13946 9.38835C8.07307 9.4692 8.10419 9.52968 8.16871 9.594C8.41302 9.83965 8.56014 10.1358 8.66137 10.4545C8.78626 10.8472 8.83403 11.2511 8.85364 11.6592C8.88387 12.2859 8.87445 12.9127 8.86229 13.5395C8.84588 14.3751 8.84135 15.2109 8.84871 16.0466C8.85692 16.9686 8.7225 17.8664 8.41203 18.7417C8.29086 19.083 8.16992 19.4243 8 19.7859C8.02739 19.7775 8.05401 19.767 8.07965 19.7546C8.96593 19.0783 9.84838 18.397 10.7718 17.7658C10.8907 17.6847 10.8917 17.5825 10.8192 17.4778C10.7464 17.3729 10.6673 17.2722 10.5822 17.176C10.3361 16.898 10.2388 16.5734 10.2329 16.2183C10.2252 15.7535 10.2156 15.2888 10.2097 14.8243C10.1884 13.1114 10.202 11.3988 10.1801 9.68482C10.1522 7.48641 10.1518 5.28768 10.1396 3.08937V3.00114H10.1064C10.0045 3.87392 9.90042 4.74452 9.72425 5.60628C9.44829 6.96018 9.03517 8.26493 8.13946 9.38835ZM13.8444 6.98616C13.8162 8.9543 13.8411 10.923 13.808 12.8911C13.7906 13.9142 13.794 14.9381 13.7973 15.9623C13.799 16.4816 13.6861 16.9567 13.2956 17.3465C13.2593 17.3856 13.2266 17.4276 13.1976 17.4719C13.1111 17.5934 13.1312 17.6894 13.2612 17.778C14.1482 18.3851 14.9986 19.0369 15.8493 19.6878C15.8885 19.7191 15.9227 19.7646 16 19.7555C15.7165 19.1526 15.5239 18.5332 15.3612 17.9034C15.2981 17.6602 15.2356 17.4161 15.2134 17.1656C15.1583 16.5511 15.1742 15.9343 15.1616 15.3185C15.1403 14.2643 15.151 13.2095 15.146 12.1533C15.142 11.7931 15.1652 11.433 15.2154 11.0759C15.2858 10.5962 15.4063 10.131 15.7224 9.73397C15.9289 9.47419 15.932 9.47523 15.7301 9.20131C15.0291 8.24883 14.648 7.17456 14.3863 6.05519C14.151 5.04722 14.0228 4.02501 13.9141 3H13.8717C13.8577 4.32969 13.8634 5.65782 13.8444 6.98616Z" fill="white"/>
</g>
<defs>
<linearGradient id="paint0_linear_5357_40453" x1="27" y1="15" x2="7.05322e-07" y2="10" gradientUnits="userSpaceOnUse">
<stop offset="0.015625" stop-color="#8DFB01"/>
<stop offset="0.317708" stop-color="#DEC800"/>
<stop offset="0.520833" stop-color="#7BFFEF"/>
<stop offset="0.734375" stop-color="#273CF7"/>
<stop offset="1" stop-color="#D700EA"/>
</linearGradient>
<clipPath id="clip0_5357_40453">
<rect width="24" height="24" fill="white"/>
</clipPath>
</defs>
</svg>
