<svg width="25" height="24" viewBox="0 0 25 24" fill="none" xmlns="http://www.w3.org/2000/svg">
<g clip-path="url(#clip0_5357_40166)">
<path d="M24.516 14.9029C22.9131 21.3315 16.4012 25.2438 9.97106 23.6407C3.54363 22.0381 -0.369147 15.5265 1.23442 9.09837C2.83659 2.66903 9.34849 -1.24361 15.7766 0.359082C22.2063 1.96177 26.119 8.47395 24.516 14.9029Z" fill="url(#paint0_radial_5357_40166)"/>
<path d="M17.6472 8.97043C17.4981 7.36262 16.1125 6.81912 14.3611 6.65974L14.3688 4.43032L13.0116 4.42591L13.0043 6.5966C12.6474 6.59536 12.2827 6.60119 11.9203 6.60719L11.9281 4.42209L10.5717 4.41748L10.5635 6.64628C10.2698 6.6513 9.98109 6.65584 9.69976 6.65502L9.69962 6.64805L7.82777 6.64101L7.82314 8.09041C7.82314 8.09041 8.82542 8.07475 8.80871 8.09305C9.35836 8.09505 9.53623 8.41483 9.58744 8.69035L9.57877 11.2302C9.61666 11.2305 9.66613 11.2322 9.72221 11.2402C9.67694 11.2401 9.6287 11.2397 9.57882 11.24L9.56619 14.798C9.54155 14.9709 9.43892 15.2464 9.0548 15.2457C9.07219 15.2612 8.06828 15.2422 8.06828 15.2422L7.79297 16.862L9.5592 16.8679C9.88789 16.8695 10.2113 16.8761 10.5288 16.8791L10.5217 19.134L11.8774 19.1387L11.885 16.9077C12.2572 16.9167 12.6174 16.9209 12.9691 16.9218L12.9609 19.1424L14.3182 19.1468L14.3262 16.896C16.6085 16.7729 18.2074 16.2036 18.413 14.0617C18.579 12.3371 17.7701 11.5646 16.476 11.2492C17.2643 10.8512 17.7583 10.1469 17.6472 8.97043ZM15.7318 13.7853C15.7267 15.4704 12.8418 15.269 11.922 15.2667L11.9327 12.2792C12.8527 12.2826 15.7379 12.0278 15.7318 13.7853ZM15.115 9.56817C15.1093 11.1012 12.7035 10.9142 11.9374 10.9116L11.9468 8.20211C12.713 8.20467 15.1203 7.96931 15.115 9.56817Z" fill="white"/>
</g>
<defs>
<radialGradient id="paint0_radial_5357_40166" cx="0" cy="0" r="1" gradientUnits="userSpaceOnUse" gradientTransform="translate(12.875 12) rotate(90) scale(12 12)">
<stop stop-color="#3C03D0"/>
<stop offset="1" stop-color="#16004E"/>
</radialGradient>
<clipPath id="clip0_5357_40166">
<rect width="25" height="24" fill="white"/>
</clipPath>
</defs>
</svg>
