<svg width="25" height="24" viewBox="0 0 25 24" fill="none" xmlns="http://www.w3.org/2000/svg">
<g clip-path="url(#clip0_5357_40169)">
<mask id="mask0_5357_40169" style="mask-type:luminance" maskUnits="userSpaceOnUse" x="0" y="0" width="25" height="24">
<path d="M24.875 0H0.875V24H24.875V0Z" fill="white"/>
</mask>
<g mask="url(#mask0_5357_40169)">
<path d="M12.875 24C19.525 24 24.875 18.65 24.875 12C24.875 5.34996 19.525 0 12.875 0C6.22496 0 0.875 5.34996 0.875 12C0.875 18.65 6.22496 24 12.875 24Z" fill="url(#paint0_radial_5357_40169)"/>
<path d="M17.125 13.7095C17.125 11.5311 15.8713 10.7843 13.3638 10.4731C11.5727 10.2241 11.2145 9.72622 11.2145 8.85476C11.2145 7.98329 11.8116 7.42327 13.0056 7.42327C14.0802 7.42327 14.6773 7.79672 14.9757 8.73032C15.0355 8.91705 15.2146 9.04148 15.3937 9.04148H16.3488C16.5877 9.04148 16.7668 8.85476 16.7668 8.60589V8.5436C16.5279 7.17426 15.4533 6.11623 14.0802 5.99179V4.49802C14.0802 4.24901 13.9011 4.06229 13.6026 4H12.7071C12.4683 4 12.2892 4.18672 12.2294 4.49802V5.9295C10.4383 6.17852 9.30411 7.42327 9.30411 8.97934C9.30411 11.0333 10.4981 11.8423 13.0056 12.1536C14.6773 12.4648 15.2146 12.8382 15.2146 13.8341C15.2146 14.83 14.3787 15.5146 13.2444 15.5146C11.6921 15.5146 11.1548 14.8298 10.9757 13.8962C10.9161 13.6474 10.7369 13.5228 10.5578 13.5228H9.54282C9.30411 13.5228 9.125 13.7095 9.125 13.9585V14.0208C9.36371 15.5767 10.319 16.6971 12.2892 17.0084V18.5021C12.2892 18.751 12.4683 18.9377 12.7667 19H13.6622C13.9011 19 14.0802 18.8133 14.14 18.5021V17.0084C15.931 16.6971 17.125 15.39 17.125 13.7095Z" fill="white"/>
</g>
</g>
<defs>
<radialGradient id="paint0_radial_5357_40169" cx="0" cy="0" r="1" gradientUnits="userSpaceOnUse" gradientTransform="translate(12.875 12) rotate(90) scale(12)">
<stop stop-color="#3C03D0"/>
<stop offset="1" stop-color="#16004E"/>
</radialGradient>
<clipPath id="clip0_5357_40169">
<rect width="25" height="24" fill="white"/>
</clipPath>
</defs>
</svg>
