<svg width="24" height="24" viewBox="0 0 24 24" fill="none" xmlns="http://www.w3.org/2000/svg">
<g clip-path="url(#clip0_5357_49745)">
<path d="M12 24C18.6274 24 24 18.6274 24 12C24 5.37258 18.6274 0 12 0C5.37258 0 0 5.37258 0 12C0 18.6274 5.37258 24 12 24Z" fill="#4B06B1"/>
<path d="M18.0302 17.2858C16.5667 18.9721 14.4079 20.0384 12.0004 20.0384C7.59255 20.0384 4.01953 16.4654 4.01953 12.0575C4.01953 9.85387 4.91293 7.85866 6.35695 6.41406L18.0302 17.2858Z" fill="url(#paint0_linear_5357_49745)"/>
<path d="M6.32812 6.44288C7.77214 4.99887 9.76736 4.10547 11.9716 4.10547C16.3794 4.10547 19.9524 7.67848 19.9524 12.0863C19.9524 14.0861 19.2169 15.9143 18.0014 17.3147L6.32812 6.44288Z" fill="url(#paint1_linear_5357_49745)"/>
<path d="M11.9999 2.46875C6.73593 2.46875 2.46875 6.73593 2.46875 11.9999C2.46875 17.2638 6.73593 21.531 11.9999 21.531C17.2638 21.531 21.531 17.2638 21.531 11.9999C21.531 6.73593 17.2638 2.46875 11.9999 2.46875ZM4.201 12.3937C5.80636 13.9187 7.41287 15.4443 9.05497 17.0043V15.4379C11.0169 16.8171 12.9587 16.8314 14.9183 15.3891V16.8469C14.9424 16.8624 14.9665 16.8779 14.9907 16.8934C16.5926 15.2858 18.1945 13.6781 19.8073 12.0596C19.7746 16.3445 16.2917 19.8079 11.9993 19.8079C7.70684 19.8079 4.40598 16.5225 4.20042 12.3932L4.201 12.3937ZM7.92272 13.9422C7.67353 13.8286 7.57076 13.6867 7.44846 13.5713C6.96789 13.1189 6.4942 12.6596 6.01478 12.2065C5.92349 12.1204 5.85172 12.0607 5.97861 11.9355C6.56712 11.3562 7.14818 10.7694 7.73267 10.1861C7.74358 10.1752 7.76655 10.1763 7.86243 10.1522C7.35545 11.4142 7.34856 12.6475 7.92272 13.9422ZM8.97516 12.0073C8.96253 10.3939 10.3101 9.03373 11.9769 9.04636C13.6144 9.05382 14.9889 10.3796 14.9849 12.0182C14.9809 13.7849 13.5495 14.9987 11.978 14.9924C10.2349 14.9849 8.98837 13.7229 8.97459 12.0073H8.97516ZM16.0391 10.1091C16.1585 10.0896 16.2079 10.1683 16.2688 10.2268C16.7775 10.7109 17.2821 11.2 17.7977 11.676C17.9688 11.8339 17.9723 11.9556 17.8087 12.1164C17.3585 12.5585 16.9176 13.0098 16.4714 13.4565C16.4111 13.5168 16.3359 13.6098 16.2538 13.5535C16.1706 13.4967 16.2291 13.4054 16.2584 13.3124C16.6052 12.2232 16.5174 11.1599 16.0397 10.1097L16.0391 10.1091ZM13.5122 4.34339C13.6443 4.36751 13.774 4.39564 13.9032 4.4255C17.2402 5.26148 19.7258 8.24483 19.8056 11.8219C19.7367 11.8385 19.7068 11.753 19.6643 11.7122C18.1744 10.2969 16.6862 8.87928 15.1974 7.46282C15.0888 7.35947 14.9792 7.25784 14.8167 7.10511V8.54167C13.9199 7.88425 12.9633 7.55353 11.8689 7.57191C10.7717 7.59028 9.84674 7.98473 8.95966 8.69325V7.25325C8.93382 7.24406 8.90856 7.23487 8.88272 7.22569C7.32961 8.77019 5.7765 10.3158 4.19239 11.8919C4.24636 7.9388 7.23832 4.69535 11.0835 4.24578C11.1989 4.25841 11.3132 4.23487 11.4291 4.21306C11.5842 4.20215 11.7403 4.19526 11.8976 4.19353C12.4368 4.22109 12.9719 4.24464 13.5122 4.34397V4.34339Z" fill="#FAF8FA"/>
</g>
<defs>
<linearGradient id="paint0_linear_5357_49745" x1="6.35695" y1="17.701" x2="12.4012" y2="11.6567" gradientUnits="userSpaceOnUse">
<stop stop-color="#3D0191"/>
<stop offset="0.95" stop-color="#4F05D4"/>
</linearGradient>
<linearGradient id="paint1_linear_5357_49745" x1="11.9647" y1="12.0794" x2="17.6076" y2="6.43599" gradientUnits="userSpaceOnUse">
<stop stop-color="#3D0191"/>
<stop offset="0.95" stop-color="#4D03B9"/>
</linearGradient>
<clipPath id="clip0_5357_49745">
<rect width="24" height="24" fill="white"/>
</clipPath>
</defs>
</svg>
