<svg width="24" height="24" viewBox="0 0 24 24" fill="none" xmlns="http://www.w3.org/2000/svg">
<g clip-path="url(#clip0_28_752)">
<path d="M12 24C18.6274 24 24 18.6274 24 12C24 5.37258 18.6274 0 12 0C5.37258 0 0 5.37258 0 12C0 18.6274 5.37258 24 12 24Z" fill="#E51B44"/>
<path d="M16.1743 15.3169C14.0486 15.3169 12.6343 13.8769 11.3829 12.5998C10.2257 11.4169 9.22285 10.3969 7.81714 10.3969V8.68262C9.94285 8.68262 11.3571 10.1226 12.6086 11.3998C13.7657 12.5826 14.7686 13.6026 16.1743 13.6026V15.3169Z" fill="url(#paint0_linear_28_752)"/>
<path d="M16.1743 15.3169V13.6026C17.2286 13.6026 18.0857 12.8826 18.0857 11.9998C18.0857 11.1169 17.2286 10.3969 16.1743 10.3969C14.7686 10.3969 13.7657 11.4169 12.6085 12.5998C11.3571 13.8683 9.94283 15.3169 7.81712 15.3169C5.81998 15.3169 4.19141 13.834 4.19141 11.9998C4.19141 9.98547 5.61426 8.68262 7.81712 8.68262V10.3969C6.54855 10.3969 5.90569 10.9369 5.90569 11.9998C5.90569 12.8826 6.76283 13.6026 7.81712 13.6026C9.22284 13.6026 10.2257 12.5826 11.3828 11.3998C12.6343 10.1312 14.0486 8.68262 16.1743 8.68262C18.1714 8.68262 19.8 10.1655 19.8 11.9998C19.8 13.834 18.1714 15.3169 16.1743 15.3169Z" fill="white"/>
</g>
<defs>
<linearGradient id="paint0_linear_28_752" x1="9.84" y1="10.0112" x2="15.2829" y2="15.0169" gradientUnits="userSpaceOnUse">
<stop stop-color="white"/>
<stop offset="0.03" stop-color="white" stop-opacity="0.98"/>
<stop offset="0.06" stop-color="white" stop-opacity="0.94"/>
<stop offset="0.08" stop-color="white" stop-opacity="0.86"/>
<stop offset="0.11" stop-color="white" stop-opacity="0.74"/>
<stop offset="0.14" stop-color="white" stop-opacity="0.6"/>
<stop offset="0.17" stop-color="white" stop-opacity="0.42"/>
<stop offset="0.2" stop-color="white" stop-opacity="0.21"/>
<stop offset="0.23" stop-color="white" stop-opacity="0"/>
<stop offset="0.34" stop-color="white" stop-opacity="0"/>
<stop offset="0.55" stop-color="white" stop-opacity="0"/>
<stop offset="0.67" stop-color="white" stop-opacity="0.67"/>
<stop offset="0.78" stop-color="white"/>
</linearGradient>
<clipPath id="clip0_28_752">
<rect width="24" height="24" fill="white"/>
</clipPath>
</defs>
</svg>
