<svg width="24" height="24" viewBox="0 0 24 24" fill="none" xmlns="http://www.w3.org/2000/svg">
<g clip-path="url(#clip0_28_1058)">
<path d="M23.5 12C23.5 18.3513 18.3513 23.5 12 23.5C5.64873 23.5 0.5 18.3513 0.5 12C0.5 5.64873 5.64873 0.5 12 0.5C18.3513 0.5 23.5 5.64873 23.5 12Z" fill="white" stroke="#EDEEF0"/>
<path d="M5.64859 5.94853C5.71716 5.88853 5.77716 5.81139 5.84573 5.75996C6.29144 5.50282 6.73716 5.24568 7.18287 4.98853C7.80001 4.62853 8.42573 4.26853 9.04287 3.9171C9.92573 3.40282 10.8086 2.90567 11.6914 2.38282C11.9229 2.24567 12.1114 2.22853 12.3514 2.38282C13.1229 2.85425 13.9114 3.29996 14.6914 3.75425C15.5657 4.25996 16.44 4.76567 17.3229 5.26282C17.6143 5.43425 17.9057 5.5971 18.1972 5.76853C18.2657 5.81139 18.3086 5.88853 18.36 5.93996C18.0857 6.0771 17.8029 6.21425 17.5286 6.35996C16.8857 6.71996 16.2514 7.0971 15.6086 7.46567C15.1972 7.70567 14.7772 7.9371 14.3657 8.1771C13.9114 8.43425 13.4657 8.69996 13.0114 8.9571C12.6686 9.15425 12.3343 9.35996 11.9914 9.56567C11.8372 9.47996 11.6829 9.39425 11.5286 9.29996C11.0314 9.0171 10.5257 8.73425 10.0372 8.45139C9.35144 8.04853 8.6743 7.64567 7.98859 7.24282C7.4743 6.94282 6.96001 6.63425 6.44573 6.34282C6.18001 6.1971 5.90573 6.06853 5.64001 5.93139L5.64859 5.94853Z" fill="#F1716A"/>
<path d="M5.64852 5.94849C5.91423 6.08563 6.19709 6.20563 6.45423 6.35991C6.97709 6.65134 7.4828 6.95992 7.99709 7.25991C8.6828 7.66277 9.35995 8.0742 10.0457 8.46849C10.5428 8.75991 11.0399 9.0342 11.5371 9.31706C11.6914 9.40277 11.8457 9.48849 11.9999 9.58277C11.9999 10.3885 11.9999 11.1942 11.9999 11.9999C11.8799 11.9399 11.7599 11.8799 11.6485 11.8199C11.1514 11.5371 10.6628 11.2456 10.1657 10.9628C9.86566 10.7913 9.56566 10.6371 9.26566 10.4742H9.23995C9.09423 10.3285 8.65709 10.0799 8.43423 10.0199C8.30566 9.92563 8.19423 9.83134 8.05709 9.7542C7.58566 9.47134 7.11423 9.18849 6.63423 8.9142C6.32566 8.74277 6.00852 8.59706 5.69137 8.4342C5.66566 8.41706 5.64852 8.39134 5.6228 8.3742C5.6228 7.56849 5.6228 6.76277 5.6228 5.94849H5.64852Z" fill="#A24741"/>
<path d="M12 16.2857C12.3 16.1229 12.6086 15.96 12.9086 15.7886C13.3114 15.5657 13.7057 15.3343 14.1 15.1029C14.5543 14.8457 15.0086 14.58 15.4543 14.3229C15.9257 14.0572 16.3971 13.7915 16.8686 13.5257C17.3914 13.2257 17.9143 12.9086 18.4371 12.6086C18.5657 12.5315 18.7114 12.4715 18.8657 12.3857V13.1743C18.7457 13.3372 18.6171 13.5172 18.48 13.7057C18.4543 13.7486 18.4457 13.8 18.4286 13.8515C18.4028 13.8686 18.3857 13.8943 18.36 13.9115C18.2743 14.0143 18.18 14.1257 18.0943 14.2286C18.0771 14.2457 18.06 14.2629 18.0428 14.28C18.0171 14.3229 17.9914 14.3657 17.9571 14.4172L17.5543 14.8457C17.4943 14.9143 17.3314 14.82 17.3228 14.9915C17.28 15.06 17.2457 15.12 17.2028 15.1886C17.1771 15.2229 17.16 15.2572 17.1343 15.2915C17.0914 15.36 17.0486 15.4286 17.0057 15.4972C17.0057 15.4972 16.9628 15.4886 16.9457 15.4972C16.8771 15.6 16.8171 15.7029 16.7486 15.7972C16.68 15.78 16.62 15.7543 16.5514 15.7372C16.5086 15.7286 16.4657 15.7372 16.4314 15.7372C16.26 15.9943 16.0971 16.2515 15.9257 16.5172C15.84 16.6457 15.7543 16.7743 15.6771 16.8943C15.6343 16.8943 15.5914 16.9115 15.5486 16.92C15.4457 16.8857 15.3428 16.8515 15.24 16.8257C15.1028 16.7486 14.9743 16.6372 14.7943 16.6629C14.7857 16.7057 14.7771 16.74 14.7686 16.7657C14.6828 16.7743 14.6571 16.8257 14.6657 16.9029C14.6228 16.9457 14.58 16.9886 14.5371 17.04C14.3657 17.0143 14.1943 16.9886 14.0228 16.9629C13.8514 16.8772 13.8343 16.8857 13.7657 17.0915C13.6628 17.0915 13.5514 17.0915 13.4486 17.0915C13.14 16.9886 12.8228 16.9543 12.4971 16.9543C12.48 16.9543 12.4628 16.9543 12.4457 16.9543C12.4286 16.9457 12.4114 16.9286 12.3943 16.92C12.3771 16.9372 12.3686 16.9457 12.3514 16.9629C12.2828 17.0057 12.2143 17.0486 12.1457 17.0915C12.1114 17.0915 12.0771 17.1086 12.0428 17.1086C12.0171 17.0486 11.9828 16.98 11.9828 16.9115C11.9743 16.7057 11.9743 16.4915 11.9657 16.2772L12 16.2857Z" fill="#D5D5D5"/>
<path d="M12.0171 11.9999C12.0171 11.1942 12.0171 10.3885 12.0171 9.58275C12.3599 9.37703 12.6942 9.17989 13.0371 8.97417C13.4828 8.70846 13.9371 8.45132 14.3914 8.19417C14.8028 7.95417 15.2228 7.72275 15.6342 7.48275C16.2771 7.11417 16.9114 6.73703 17.5542 6.37703C17.8285 6.22275 18.1114 6.09417 18.3857 5.95703C18.3857 6.76275 18.3857 7.56846 18.3857 8.37417L17.7514 8.75989C17.6571 8.71703 17.5628 8.68275 17.4685 8.63132C17.2457 8.50275 17.0228 8.3656 16.8171 8.2456C16.1314 8.49417 15.4799 8.74275 14.8885 9.11132C14.4342 9.39417 14.0057 9.71132 13.6199 10.0713C13.5685 10.1227 13.5428 10.2085 13.4999 10.277C13.4742 10.3285 13.4399 10.3799 13.4399 10.4399C13.4399 10.7056 13.4399 10.9713 13.4399 11.237C13.3971 11.2456 13.3542 11.2542 13.3199 11.2713C12.8914 11.5113 12.4628 11.7599 12.0342 12.0085L12.0171 11.9999Z" fill="#DA5B54"/>
<path d="M12.0171 12C12.4457 11.7514 12.8742 11.5114 13.3028 11.2629C13.3371 11.2457 13.3799 11.2372 13.4228 11.2286C13.6971 11.3914 13.9799 11.5629 14.2542 11.7257C13.9971 11.8714 13.7485 12.0172 13.5085 12.1543V14.1172C13.8257 13.9457 14.1342 13.8257 14.3828 13.5857C14.4257 13.5686 14.4685 13.5429 14.5028 13.5257C14.7514 13.3972 15.0171 13.3029 15.2057 13.1057V12.3086C15.3085 12.3343 15.4199 12.3514 15.5228 12.3772C15.5999 12.3257 15.6857 12.2914 15.7542 12.2314C15.8314 12.1714 15.8914 12.0943 16.0028 12.1114C16.0199 12.2829 16.0371 12.4457 16.0542 12.6429C16.3028 12.5057 16.5257 12.3857 16.7399 12.2572C16.7999 12.2229 16.8342 12.1543 16.8857 12.0943C16.9199 12.0857 16.9628 12.0686 16.9971 12.06C17.2285 11.9314 17.4599 11.7943 17.6914 11.6657C17.7085 11.5972 17.7428 11.5372 17.7428 11.4686C17.7342 11.28 17.7085 11.0914 17.6914 10.9114C17.9314 10.8257 18.1628 10.74 18.4028 10.6543V12.1114C18.1199 12.2743 17.8285 12.4457 17.5457 12.6172C16.9971 12.9343 16.4485 13.2429 15.9085 13.56C15.1542 13.9972 14.3999 14.4343 13.6457 14.8714C13.1571 15.1543 12.6599 15.4372 12.1628 15.72C12.1285 15.7372 12.0857 15.7372 12.0428 15.7543C12.0428 14.5029 12.0428 13.2514 12.0428 12H12.0171Z" fill="#BC957F"/>
<path d="M5.71713 8.43433C6.03427 8.58861 6.35142 8.7429 6.65999 8.91433C7.13999 9.18004 7.61142 9.47147 8.08285 9.75433C8.21142 9.83147 8.33142 9.93433 8.45999 10.02C8.34856 10.1058 8.2457 10.1915 8.13427 10.2858C8.11713 10.3458 8.07427 10.4143 8.07427 10.4743C8.07427 10.8772 8.05713 11.28 8.07427 11.6829C8.09142 12.1029 8.0057 12.5058 7.90285 12.9172C7.80856 13.3115 7.62856 13.6886 7.67999 14.1086C7.61999 14.1086 7.55999 14.1086 7.49142 14.1C7.4057 13.9543 7.26856 13.9115 7.1057 13.9115C7.1057 13.7143 6.94284 13.8086 6.84856 13.7829C6.81427 13.5515 6.63427 13.5429 6.46285 13.5258C6.46285 13.5258 6.41999 13.4829 6.40284 13.4658C6.33427 13.3372 6.21427 13.2943 6.0857 13.2772C6.0857 13.2772 6.04285 13.2343 6.0257 13.2172C5.9657 13.1743 5.91427 13.14 5.8457 13.0886H5.67427C5.6657 13.02 5.64856 12.9429 5.64856 12.8743C5.64856 11.76 5.64856 10.6458 5.64856 9.5229C5.67427 9.4629 5.70856 9.4029 5.70856 9.33433C5.70856 9.03433 5.70856 8.73433 5.70856 8.43433H5.71713Z" fill="#886B59"/>
<path d="M7.68861 14.1085C7.63718 13.6885 7.80861 13.3114 7.91146 12.9171C8.01432 12.5056 8.09147 12.1028 8.08289 11.6828C8.06575 11.2799 8.08289 10.8771 8.08289 10.4742C8.08289 10.4142 8.12575 10.3456 8.14289 10.2856C8.38289 10.4142 8.61432 10.5428 8.85432 10.6628V12.7114C9.29146 13.2428 9.72861 13.7828 10.1743 14.3142C10.5858 14.8199 11.0143 15.3171 11.4172 15.8399C11.58 16.0542 11.7858 16.1828 12.0172 16.2856C12.0172 16.4999 12.0172 16.7056 12.0343 16.9199C12.0343 16.9885 12.0772 17.0485 12.0943 17.1171C12.0686 17.1342 12.0515 17.1514 12.0258 17.1685C11.94 17.1256 11.8543 17.0828 11.7772 17.0399C11.7 16.9285 11.5886 16.9028 11.46 16.9114C11.46 16.9114 11.4172 16.8342 11.3915 16.7914C11.3315 16.7656 11.2629 16.7399 11.2029 16.7228C11.1343 16.6799 11.0743 16.6371 11.0058 16.5942C10.7915 16.3885 10.5343 16.2428 10.2429 16.1485C10.2429 16.1485 10.2 16.1056 10.1743 16.0885C10.0543 16.0114 9.96861 15.8742 9.79718 15.8914C9.72861 15.8485 9.66861 15.8056 9.60004 15.7628C9.51432 15.6171 9.37718 15.5399 9.21432 15.5056C9.21432 15.5056 9.17147 15.4628 9.14575 15.4456C9.08575 15.4199 9.01718 15.4028 8.95718 15.3771C8.89718 15.3342 8.82861 15.2914 8.76861 15.2571C8.64861 15.0685 8.44289 15.0256 8.25432 14.9399L8.07432 14.8714C7.94575 14.7685 7.81718 14.6656 7.68004 14.5542C7.68004 14.4685 7.68004 14.3828 7.68004 14.2971C7.68004 14.2371 7.68004 14.1771 7.68004 14.1171L7.68861 14.1085Z" fill="#898989"/>
<path d="M13.4828 10.277C13.5257 10.2085 13.5428 10.1227 13.6028 10.0713C13.9886 9.70275 14.4171 9.39418 14.8714 9.11132C15.4714 8.74275 16.1228 8.49418 16.8 8.24561C17.0057 8.36561 17.2286 8.50275 17.4514 8.63132C17.5371 8.68275 17.64 8.71703 17.7343 8.75989C17.9228 8.93132 18.1286 9.07703 18.3686 9.14561C18.5314 9.25703 18.6943 9.35989 18.8486 9.47132C18.8828 9.49703 18.9 9.54846 18.9257 9.59132C18.6514 9.55703 18.4286 9.68561 18.18 9.77132C17.4171 10.0456 16.74 10.457 16.1228 10.9713C15.9257 11.1342 15.7114 11.2799 15.4971 11.4342C14.82 11.0485 14.1428 10.6627 13.4657 10.2856L13.4828 10.277Z" fill="#F1716A"/>
<path d="M12.0086 11.9999C12.0086 13.2513 12.0086 14.5027 12.0086 15.7542C11.8371 15.5742 11.6571 15.3942 11.5029 15.197C10.7571 14.2885 10.0286 13.3713 9.27429 12.4456V10.457C9.57429 10.6199 9.87429 10.7742 10.1743 10.9456C10.6714 11.2285 11.16 11.5199 11.6571 11.8027C11.7686 11.8713 11.8886 11.9227 12.0086 11.9913V11.9999Z" fill="#886B59"/>
<path d="M18.4972 16.0113V17.6656C17.64 18.1628 16.7657 18.6599 15.8829 19.1742C15.8314 19.1399 15.7886 19.1056 15.7457 19.0799C15.7972 19.0371 15.8572 18.9942 15.8914 18.9599C15.8914 18.5228 15.8914 18.1199 15.8914 17.7085C15.8914 17.6056 15.8486 17.5113 15.8314 17.4085C16.1143 17.2456 16.3886 17.0828 16.6714 16.9199C17.0314 16.7142 17.3829 16.4828 17.7514 16.2942C17.9914 16.1742 18.2057 15.9771 18.4972 16.0028V16.0113Z" fill="#3E1C28"/>
<path d="M15.5057 18.9685C15.5057 19.097 15.4885 19.217 15.48 19.3799C15.2828 19.4999 15.0685 19.6285 14.8457 19.7485C14.2457 20.0999 13.6371 20.4428 13.0371 20.7856C12.9771 20.8199 12.9 20.837 12.84 20.8628V19.1828C13.0028 19.0799 13.1657 18.9685 13.3371 18.8656C13.7143 18.6428 14.0914 18.4199 14.4771 18.2142C14.7943 18.0428 15.12 17.8799 15.4457 17.717C15.4628 17.7685 15.5057 17.8199 15.5057 17.8799C15.5057 18.2399 15.5057 18.5999 15.5057 18.9599V18.9685Z" fill="#3E1C28"/>
<path d="M12.8399 19.1914C12.8399 19.7485 12.8399 20.3056 12.8399 20.8714C12.4799 20.6742 12.1199 20.4771 11.7599 20.2714C10.9114 19.7828 10.0628 19.2942 9.21423 18.7971C9.25709 18.7456 9.29138 18.6771 9.3428 18.6514C9.65138 18.4628 9.96852 18.2828 10.2857 18.1028C10.4571 18.1885 10.6285 18.2828 10.7999 18.3685C10.8428 18.3856 10.8771 18.4114 10.9199 18.4285C11.0914 18.5314 11.2628 18.6342 11.4342 18.7456C11.6057 18.8914 11.7857 19.0199 12.0085 19.0628C12.1371 19.0199 12.2571 18.9771 12.3857 18.9342L12.8399 19.1914Z" fill="#2B141C"/>
<path d="M15.5143 11.4342C15.72 11.2799 15.9343 11.1342 16.14 10.9714C16.7571 10.4571 17.4343 10.0371 18.1971 9.77137C18.4457 9.68566 18.6686 9.55709 18.9429 9.59137C18.9429 9.86566 18.9429 10.1399 18.9429 10.4142C18.9086 10.4399 18.8743 10.4657 18.8314 10.4914C18.6857 10.5514 18.5314 10.6114 18.3857 10.6714C18.1457 10.7571 17.9143 10.8428 17.6743 10.9285C17.6486 10.9628 17.6229 10.9971 17.6057 11.0314C17.3657 11.0742 17.1686 11.2114 16.98 11.3657C16.9371 11.3828 16.9029 11.3999 16.86 11.4257C16.5943 11.6142 16.3286 11.8028 16.0629 11.9914C16.0286 12.0171 16.0114 12.0857 15.9943 12.1285C15.8829 12.1114 15.8229 12.1799 15.7457 12.2485C15.6771 12.3085 15.5914 12.3428 15.5143 12.3942C15.5143 12.0771 15.5143 11.7599 15.5143 11.4428V11.4342Z" fill="#DA5B54"/>
<path d="M8.14287 19.2772C8.09144 19.2686 8.03144 19.2772 7.98859 19.2429C7.34573 18.8657 6.6943 18.4886 6.0343 18.1029V16.6543C6.0343 16.6543 6.07716 16.6543 6.0943 16.6543C6.22287 16.7743 6.36002 16.8514 6.54002 16.8429C6.54002 16.8429 6.54002 16.8857 6.54002 16.9029C6.62573 16.9457 6.71144 16.9886 6.79716 17.0314L7.04573 17.16C7.2343 17.2886 7.43144 17.4172 7.62002 17.5372C7.80859 17.6486 8.00573 17.7514 8.1943 17.8629C8.17716 18.3343 8.16002 18.8057 8.14287 19.2772Z" fill="#8A6D5B"/>
<path d="M8.14282 19.277C8.15997 18.8056 8.17711 18.3341 8.19425 17.8627C8.23711 17.8627 8.27996 17.8627 8.31425 17.8627C8.31425 17.957 8.34854 17.9998 8.44282 17.9913C8.55425 18.1456 8.69139 18.2313 8.92282 18.1284C8.83711 18.0256 8.87996 17.8713 8.69996 17.8541C8.69996 17.7684 8.69996 17.6913 8.69996 17.6056C8.71711 17.6056 8.74282 17.6056 8.75997 17.6056C8.82854 17.6484 8.88854 17.6913 8.95711 17.7341C8.97425 17.8713 9.02568 17.9827 9.15425 18.0598C9.20568 18.0084 9.23996 17.9656 9.28282 17.9313C9.55711 17.8113 9.82282 17.6913 10.0457 17.4856C10.1314 17.4598 10.2085 17.4427 10.2943 17.417C10.2943 17.477 10.2943 17.537 10.3028 17.597C10.3028 17.7684 10.3028 17.9313 10.2943 18.1027C9.97711 18.2827 9.66854 18.4627 9.35139 18.6513C9.29996 18.6856 9.26568 18.7541 9.22282 18.797C9.03425 18.797 8.89711 18.917 8.73425 18.9941C8.53711 19.0884 8.38282 19.2684 8.14282 19.2684V19.277Z" fill="#BC957F"/>
<path d="M18.4971 16.0115C18.2057 15.9857 17.9829 16.1829 17.7514 16.3029C17.3829 16.4915 17.0314 16.7229 16.6714 16.9286C16.3971 17.0915 16.1143 17.2543 15.8314 17.4172C15.6857 17.3743 15.5314 17.34 15.5143 17.1515C15.5829 17.0915 15.6429 17.0315 15.7114 16.98C15.8743 16.8943 16.0457 16.8172 16.2086 16.7229C16.6371 16.4743 17.0657 16.2086 17.4943 15.9515C17.5371 15.9343 17.58 15.9086 17.6229 15.8915C17.7257 15.8315 17.8371 15.7629 17.94 15.7029C17.9829 15.7029 18.0257 15.7029 18.0771 15.7029C18.2229 15.8143 18.4371 15.8315 18.5057 16.0286L18.4971 16.0115Z" fill="#431E2B"/>
<path d="M15.5142 17.1428C15.54 17.3314 15.6942 17.3657 15.8314 17.4086C15.8485 17.5114 15.8914 17.6057 15.8914 17.7086C15.8914 18.12 15.8914 18.5228 15.8914 18.96C15.8485 18.9943 15.7971 19.0371 15.7457 19.08C15.6685 19.0457 15.5828 19.0028 15.5057 18.9686C15.5057 18.6086 15.5057 18.2486 15.5057 17.8886C15.5057 17.8371 15.4628 17.7857 15.4457 17.7257C15.4114 17.6828 15.3942 17.6228 15.3514 17.5886C15.2571 17.5114 15.1542 17.4514 15.0514 17.3914C15.0771 17.3657 15.0942 17.3486 15.12 17.3228C15.2485 17.2628 15.3771 17.2028 15.5057 17.1343L15.5142 17.1428Z" fill="#2B141C"/>
<path d="M5.68291 13.0799H5.85434C5.92291 13.1227 5.98291 13.1656 6.03434 13.2084C6.05149 13.2256 6.0772 13.2513 6.09434 13.2684C6.18006 13.4141 6.26577 13.5684 6.35149 13.7141C6.35149 13.7313 6.35149 13.757 6.35149 13.7741C6.20577 13.8427 6.06863 13.937 5.88863 13.8941C5.82863 13.8513 5.7772 13.817 5.7172 13.7741C5.70006 13.7313 5.68291 13.6884 5.66577 13.6456C5.66577 13.457 5.66577 13.2684 5.67434 13.0713L5.68291 13.0799Z" fill="#A24741"/>
<path d="M8.84571 10.6629L8.13428 10.2857C8.24571 10.2 8.34856 10.1143 8.45999 10.02C8.68285 10.08 9.11999 10.3286 9.26571 10.4829C9.12856 10.5429 8.99142 10.6029 8.85428 10.6629H8.84571Z" fill="#F7F6F5"/>
<path d="M18.0685 15.6857C18.0257 15.6857 17.9828 15.6857 17.9314 15.6857C17.7943 15.5657 17.6485 15.4457 17.6143 15.2485C17.88 15.1457 18.1457 15.0343 18.4114 14.9314C18.4114 15.0771 18.42 15.2314 18.4285 15.3771C18.4114 15.4028 18.3943 15.42 18.3771 15.4457C18.2743 15.5228 18.1628 15.6085 18.06 15.6857H18.0685Z" fill="#C65063"/>
<path d="M18.3771 9.13715C18.1285 9.06858 17.9228 8.93144 17.7428 8.75144L18.3771 8.36572C18.3771 8.62287 18.3771 8.88001 18.3771 9.12858V9.13715Z" fill="#BC957F"/>
<path d="M5.67432 15.0514V14.9314C5.67432 14.9314 5.67432 14.8885 5.67432 14.8628C5.67432 14.7599 5.67432 14.6571 5.67432 14.5542C5.75146 14.5199 5.82003 14.4857 5.89717 14.4514C5.89717 14.3914 5.89717 14.3399 5.89717 14.2885C5.94003 14.2714 5.98289 14.2457 6.01717 14.2285C6.04289 14.2714 6.06003 14.3142 6.08575 14.3571C6.08575 14.3742 6.08575 14.3999 6.08575 14.4171C6.04289 14.4342 6.00003 14.4428 5.95717 14.4599C6.03432 14.5885 6.09432 14.6914 6.15432 14.7942C6.15432 14.8114 6.15432 14.8371 6.15432 14.8542C5.99146 14.9142 5.8286 14.9828 5.67432 15.0428V15.0514Z" fill="#9E4256"/>
<path d="M5.40857 15.7543C5.41714 15.6 5.43428 15.4543 5.44286 15.3C5.49428 15.3 5.53714 15.3 5.58857 15.3086C5.63143 15.3515 5.67428 15.3943 5.71714 15.4372C5.80286 15.4972 5.88857 15.5658 5.97428 15.6258C5.95714 15.84 5.93143 15.8829 5.71714 15.9429C5.67428 15.9172 5.63143 15.8829 5.58 15.8572C5.52 15.8229 5.46857 15.7886 5.40857 15.7543Z" fill="#9C3E63"/>
<path d="M6.02575 14.2284C6.02575 14.2284 5.94003 14.2713 5.90574 14.2884C5.8286 14.2884 5.75146 14.2884 5.67432 14.2884C5.67432 14.1427 5.67432 13.997 5.67432 13.8513L5.72574 13.7827C5.78574 13.8256 5.84575 13.8599 5.89717 13.9027C6.07717 13.9456 6.21432 13.8513 6.36003 13.7827C6.38575 13.8427 6.40289 13.9113 6.4286 13.9713C6.30003 14.057 6.17146 14.1427 6.04289 14.2284H6.02575Z" fill="#91324B"/>
<path d="M6.09426 16.6458C6.09426 16.6458 6.05141 16.6458 6.03426 16.6458C5.92283 16.5686 5.80283 16.4829 5.69141 16.4058C5.80283 16.3715 5.76855 16.2772 5.77712 16.2001C5.88855 16.1315 5.99141 16.0629 6.08569 16.0029C6.18855 16.1229 6.26569 16.2258 6.35141 16.3201C6.30855 16.3629 6.27426 16.4229 6.22284 16.4486C6.13712 16.4915 6.08569 16.5429 6.09426 16.6458Z" fill="#9C3E63"/>
<path d="M18.4114 14.9315C18.1457 15.0343 17.88 15.1458 17.6143 15.2486C17.5714 15.1886 17.5286 15.1201 17.4857 15.0601C17.5286 15.0515 17.5714 15.0515 17.6057 15.0343C17.8457 14.9401 18.0771 14.8372 18.3171 14.7429C18.3514 14.7858 18.3857 14.8286 18.42 14.8715C18.42 14.8886 18.42 14.9143 18.42 14.9315H18.4114Z" fill="#BB524C"/>
<path d="M5.77714 16.1999C5.77714 16.277 5.80285 16.3713 5.69143 16.4056C5.61428 16.3627 5.52857 16.3199 5.45143 16.277C5.43428 16.2513 5.41714 16.2256 5.40857 16.1913C5.40857 16.0456 5.40857 15.8999 5.40857 15.7456C5.46857 15.7799 5.52 15.8142 5.58 15.8485C5.62286 15.8742 5.67428 15.9085 5.71714 15.9342C5.74286 16.0199 5.65714 16.1313 5.77714 16.1913V16.1999Z" fill="#963652"/>
<path d="M5.71714 8.43424C5.71714 8.73424 5.71714 9.03424 5.71714 9.33424C5.71714 9.39424 5.67428 9.45424 5.65714 9.52281C5.64 9.47138 5.61428 9.41138 5.60571 9.35996C5.60571 9.08567 5.60571 8.81996 5.60571 8.54567C5.60571 8.48567 5.64 8.43424 5.65714 8.38281C5.68286 8.39996 5.7 8.42567 5.72571 8.44281L5.71714 8.43424Z" fill="#A87D76"/>
<path d="M18.4201 14.8713C18.3858 14.8285 18.3515 14.7856 18.3172 14.7428C18.3001 14.5799 18.1801 14.5028 18.0601 14.4256C18.0601 14.3828 18.0601 14.3313 18.0601 14.2885C18.0772 14.2713 18.0943 14.2542 18.1115 14.2371C18.1801 14.2371 18.2486 14.2371 18.3172 14.2371C18.3172 14.3142 18.3343 14.3656 18.4286 14.3571C18.4286 14.5285 18.4286 14.6999 18.4286 14.8713H18.4201Z" fill="#DA8472"/>
<path d="M18.3086 14.2285C18.24 14.2285 18.1715 14.2285 18.1029 14.2285C18.1886 14.1257 18.2829 14.0142 18.3686 13.9114C18.3858 13.9114 18.4029 13.9114 18.4115 13.9114C18.4115 14.0142 18.4115 14.1171 18.4029 14.2199C18.3686 14.2199 18.3343 14.2199 18.3 14.2199L18.3086 14.2285Z" fill="#AF3E55"/>
<path d="M5.67433 15.0514C5.83718 14.9914 6.00004 14.9228 6.15433 14.8628C6.18004 14.8885 6.19718 14.9142 6.24861 14.9656C6.02576 15.0428 5.83718 15.1114 5.64861 15.1799L5.63147 15.1628L5.66576 15.0428L5.67433 15.0514Z" fill="#C65063"/>
<path d="M5.67432 14.2886C5.75146 14.2886 5.8286 14.2886 5.90574 14.2886V14.4514C5.8286 14.4857 5.75146 14.52 5.68289 14.5543C5.68289 14.4686 5.68289 14.3743 5.68289 14.2886H5.67432Z" fill="#A87D76"/>
<path d="M18.3086 14.2285C18.3086 14.2285 18.3772 14.2285 18.4114 14.2285C18.4114 14.2714 18.4115 14.3142 18.42 14.3571C18.3257 14.3657 18.3086 14.3142 18.3086 14.2371V14.2285Z" fill="#C65063"/>
<path d="M5.7172 13.7829L5.66577 13.8514C5.66577 13.7829 5.66577 13.7229 5.66577 13.6543C5.68291 13.6972 5.70006 13.74 5.7172 13.7829Z" fill="#A87D76"/>
<path d="M18.8314 10.4829C18.8314 10.4829 18.9 10.4315 18.9429 10.4058C18.9086 10.4315 18.8743 10.4572 18.8314 10.4829Z" fill="#F1716A"/>
<path d="M5.58859 15.3086C5.53716 15.3086 5.4943 15.3086 5.44287 15.3C5.48573 15.2743 5.52859 15.2486 5.57144 15.2229L5.59716 15.2486C5.59716 15.2658 5.59716 15.2915 5.59716 15.3086H5.58859Z" fill="#C65063"/>
<path d="M5.40857 16.2C5.40857 16.2 5.44286 16.2514 5.45143 16.2857C5.43428 16.26 5.41714 16.2342 5.40857 16.2Z" fill="#C57173"/>
<path d="M18.3772 15.4372C18.3772 15.4372 18.4115 15.3944 18.4286 15.3687C18.4115 15.3944 18.3943 15.4115 18.3772 15.4372Z" fill="#DA8472"/>
<path d="M5.57144 15.2314C5.57144 15.2314 5.62287 15.1971 5.64001 15.1714L5.65715 15.1885C5.63144 15.2057 5.61429 15.2314 5.58858 15.2485L5.56287 15.2228L5.57144 15.2314Z" fill="#C65063"/>
<path d="M18.4201 13.9199C18.4201 13.9199 18.3858 13.9199 18.3772 13.9199L18.4458 13.8599C18.4458 13.8599 18.4372 13.9113 18.4286 13.9284L18.4201 13.9199Z" fill="#DA8472"/>
<path d="M12.48 16.9541C12.48 16.9541 12.5143 16.9541 12.5315 16.9541L12.72 17.3398C12.7629 17.3998 12.8058 17.4684 12.8486 17.5284C12.8743 17.6998 12.9515 17.8284 13.1058 17.9141C13.1058 18.0341 13.14 18.1798 12.9772 18.2313C12.8743 18.2741 12.7629 18.317 12.66 18.3598C12.4458 18.4456 12.24 18.5313 12.0258 18.617C12.0258 18.5484 12.0258 18.4884 12.0258 18.4198C12.0858 18.377 12.1543 18.3341 12.2143 18.2913C12.2743 18.2741 12.3429 18.2484 12.4029 18.2313C12.5315 18.1798 12.66 18.1284 12.7715 18.0856C12.8143 17.8713 12.6858 17.777 12.5915 17.657L12.4629 17.4684C12.4629 17.2713 12.3858 17.1341 12.1886 17.0741C12.2572 17.0313 12.3258 16.9884 12.3943 16.9456H12.4886L12.48 16.9541Z" fill="#A43A59"/>
<path d="M17.4857 15.9428C17.0572 16.1999 16.6372 16.4571 16.2 16.7142C16.0372 16.8085 15.8657 16.8856 15.7029 16.9713C15.7029 16.9456 15.7029 16.9199 15.7029 16.8942C15.7886 16.7656 15.8743 16.6371 15.9515 16.5171C16.2086 16.3885 16.5257 16.3799 16.7229 16.1485C16.6286 15.9942 16.5429 15.8656 16.4572 15.7371C16.5 15.7371 16.5429 15.7371 16.5772 15.7371C16.6457 15.7542 16.7057 15.7713 16.7743 15.7971C16.8257 15.8913 16.8772 15.9856 16.92 16.0713C17.1172 15.9942 17.2629 15.9342 17.4172 15.8742C17.4343 15.8913 17.46 15.9171 17.4772 15.9342L17.4857 15.9428Z" fill="#A43A59"/>
<path d="M14.0485 16.9628C14.22 16.9885 14.3914 17.0143 14.5628 17.04C14.6142 16.9885 14.6485 16.9457 14.6914 16.9028C14.7085 16.9885 14.7342 17.0657 14.7514 17.1514C14.4942 17.2628 14.2285 17.3743 13.98 17.4857C13.8428 17.3657 13.7914 17.2457 13.7914 17.0914C13.8771 17.0485 13.9628 17.0057 14.0485 16.9628Z" fill="#C65063"/>
<path d="M13.7915 17.0913C13.7915 17.2456 13.8429 17.3742 13.9801 17.4856C14.2372 17.3742 14.4943 17.2627 14.7515 17.1513C14.7772 17.2113 14.7943 17.2799 14.8201 17.3399C14.5629 17.4513 14.3143 17.5542 14.0572 17.6656C14.0143 17.537 13.9115 17.5285 13.8001 17.537C13.7829 17.537 13.7572 17.537 13.7401 17.537C13.6543 17.4085 13.5686 17.2799 13.4829 17.1513C13.4829 17.1342 13.4829 17.1085 13.4829 17.0913C13.5858 17.0913 13.6972 17.0913 13.8001 17.0913H13.7915Z" fill="#AF3E55"/>
<path d="M18.0599 14.417C18.1799 14.4942 18.2999 14.5713 18.3171 14.7342C18.0771 14.8284 17.8457 14.9313 17.6057 15.0256C17.5714 15.0427 17.5285 15.0427 17.4857 15.0513L17.3485 14.9827C17.3485 14.8113 17.5114 14.9056 17.5799 14.837L17.9828 14.4084C17.9828 14.4084 18.0428 14.4084 18.0685 14.4084L18.0599 14.417Z" fill="#C65063"/>
<path d="M16.4571 15.7456C16.5428 15.8742 16.62 16.0027 16.7228 16.157C16.5257 16.3885 16.2086 16.397 15.9514 16.5256C16.1228 16.2685 16.2857 16.0113 16.4571 15.7456Z" fill="#B84A6C"/>
<path d="M17.4257 15.8828C17.2714 15.9428 17.1171 16.0028 16.9286 16.0799C16.8857 15.9942 16.8343 15.8999 16.7828 15.8056C16.8514 15.7028 16.9114 15.5999 16.98 15.5056C16.9971 15.5228 17.0057 15.5314 17.0228 15.5485C17.0228 15.5314 17.0314 15.5142 17.04 15.4971C17.0828 15.4971 17.1343 15.4971 17.1771 15.4971C17.2628 15.6256 17.3486 15.7542 17.4343 15.8742L17.4257 15.8828Z" fill="#C65063"/>
<path d="M13.4828 17.0915C13.4828 17.0915 13.4828 17.1343 13.4828 17.1515C13.4228 17.1515 13.3542 17.1515 13.2942 17.1515C13.1999 17.1772 13.0971 17.2029 13.0028 17.2286C12.9085 17.2629 12.8142 17.3058 12.7199 17.3401C12.6599 17.2115 12.5914 17.0829 12.5314 16.9543C12.8571 16.9543 13.1742 16.9886 13.4828 17.0915Z" fill="#C65063"/>
<path d="M17.3485 14.9915L17.4857 15.0601C17.5285 15.1201 17.5714 15.1886 17.6142 15.2486C17.6485 15.4458 17.7942 15.5658 17.9314 15.6858C17.8285 15.7458 17.7171 15.8143 17.6142 15.8743C17.6228 15.5658 17.4514 15.3601 17.2285 15.1801C17.2714 15.1115 17.3057 15.0515 17.3485 14.9829V14.9915Z" fill="#AF3E55"/>
<path d="M12.1885 17.0828C12.3857 17.1342 12.4714 17.2799 12.4628 17.477C12.36 17.537 12.2485 17.6056 12.1457 17.6656C12.1028 17.597 12.0428 17.5456 12.0257 17.4685C12.0085 17.3913 12.0257 17.297 12.0257 17.2199C12.0257 17.2028 12.0257 17.177 12.0257 17.1599C12.0514 17.1428 12.0685 17.1256 12.0943 17.1085C12.1285 17.1085 12.1628 17.0913 12.1971 17.0913L12.1885 17.0828Z" fill="#B84A6C"/>
<path d="M17.2286 15.1799C17.4514 15.3599 17.6229 15.5656 17.6143 15.8742C17.5714 15.8914 17.5286 15.9171 17.4857 15.9342C17.4686 15.9171 17.4429 15.8914 17.4257 15.8742C17.34 15.7456 17.2543 15.6171 17.1686 15.4971C17.1686 15.4285 17.1686 15.3514 17.1686 15.2828C17.1943 15.2485 17.2114 15.2142 17.2372 15.1799H17.2286Z" fill="#C57173"/>
<path d="M14.82 17.3485C14.7942 17.2885 14.7771 17.2199 14.7514 17.1599C14.7342 17.0742 14.7085 16.997 14.6914 16.9113C14.6828 16.8342 14.7085 16.7827 14.7942 16.7742C14.8628 16.8427 14.94 16.9027 15.0085 16.9713C15.0257 17.0313 15.0514 17.0999 15.0685 17.1599C15.0685 17.177 15.0685 17.2027 15.0685 17.2199C15.0257 17.2627 14.9828 17.3056 14.94 17.3485C14.8971 17.3485 14.8542 17.3485 14.82 17.3485Z" fill="#C57173"/>
<path d="M15.0685 17.16C15.0514 17.1 15.0257 17.0314 15.0085 16.9714C15.1285 16.9714 15.2314 16.9714 15.2657 16.8257C15.3685 16.86 15.4714 16.8943 15.5743 16.92C15.4543 17.1 15.24 17.0914 15.0685 17.16Z" fill="#AF3E55"/>
<path d="M15.2657 16.8258C15.2315 16.9629 15.12 16.9801 15.0086 16.9715C14.94 16.9029 14.8629 16.8429 14.7943 16.7744C14.7943 16.7401 14.8115 16.7144 14.82 16.6715C14.9915 16.6458 15.12 16.7572 15.2657 16.8344V16.8258Z" fill="#C65063"/>
<path d="M15.0686 17.16C15.2401 17.0914 15.4543 17.1 15.5743 16.92C15.6172 16.92 15.6601 16.9029 15.7029 16.8943C15.7029 16.92 15.7029 16.9457 15.7029 16.9714C15.6343 17.0314 15.5743 17.0914 15.5058 17.1429C15.3772 17.2029 15.2486 17.2629 15.1201 17.3314C15.1029 17.2971 15.0772 17.2629 15.0601 17.22C15.0601 17.2029 15.0601 17.1771 15.0601 17.16H15.0686Z" fill="#BB524C"/>
<path d="M14.0485 16.9629C13.9628 17.0057 13.8771 17.0486 13.7914 17.0914C13.86 16.8857 13.8857 16.8771 14.0485 16.9629Z" fill="#BB524C"/>
<path d="M17.1685 15.2915C17.1685 15.3601 17.1685 15.4372 17.1685 15.5058C17.1257 15.5058 17.0742 15.5058 17.0314 15.5058C17.0742 15.4372 17.1171 15.3686 17.1599 15.3001L17.1685 15.2915Z" fill="#BB524C"/>
<path d="M18.06 14.4172C18.06 14.4172 18 14.4172 17.9742 14.4172C18 14.3743 18.0257 14.3315 18.06 14.28C18.06 14.3229 18.06 14.3743 18.06 14.4172Z" fill="#AF3E55"/>
<path d="M12.48 16.9542H12.3857C12.3857 16.9542 12.4115 16.9285 12.4286 16.9199C12.4457 16.9285 12.4629 16.9456 12.48 16.9542Z" fill="#C65063"/>
<path d="M17.0314 15.4971C17.0314 15.4971 17.0229 15.5314 17.0143 15.5485L16.9714 15.5056C16.9714 15.5056 17.0057 15.4885 17.0314 15.5056V15.4971Z" fill="#BB524C"/>
<path d="M15.5143 11.4343C15.5143 11.7514 15.5143 12.0686 15.5143 12.3857C15.4114 12.36 15.3 12.3428 15.1971 12.3171C15.1543 12.2914 15.1114 12.2743 15.0686 12.2486C15.0686 12.2228 15.0686 12.1714 15.0514 12.1628C14.7857 12.0171 14.52 11.8714 14.2543 11.7257C13.98 11.5628 13.6971 11.3914 13.4229 11.2286C13.4229 10.9628 13.4229 10.6971 13.4229 10.4314C13.4229 10.38 13.4657 10.3286 13.4829 10.2686C14.16 10.6543 14.8371 11.04 15.5143 11.4171V11.4343Z" fill="#A24741"/>
<path d="M14.2457 11.7256C14.5115 11.8713 14.7772 12.017 15.0429 12.1627C15.06 12.1713 15.06 12.2227 15.06 12.2484C14.8629 12.3684 14.6743 12.4799 14.4772 12.5999C14.4343 12.6256 14.3915 12.6513 14.3657 12.6684V13.5942C14.1257 13.8342 13.8172 13.9542 13.4915 14.1256V12.1627C13.7315 12.0256 13.9886 11.8799 14.2372 11.7342L14.2457 11.7256Z" fill="#FAF9F9"/>
<path d="M14.4857 12.6C14.6829 12.48 14.8714 12.3685 15.0686 12.2485C15.1114 12.2742 15.1543 12.2914 15.1971 12.3171V13.1142C15.0086 13.3028 14.7429 13.4057 14.4943 13.5342C14.4943 13.2257 14.4943 12.9171 14.4857 12.6Z" fill="#4A343A"/>
<path d="M15.9943 12.1198C16.02 12.077 16.0285 12.0084 16.0628 11.9827C16.3285 11.7856 16.5943 11.6056 16.86 11.417C16.86 11.6484 16.8685 11.8798 16.8771 12.1113C16.8257 12.1627 16.7914 12.2313 16.7314 12.2741C16.5171 12.4027 16.3028 12.5227 16.0457 12.6599C16.0285 12.4627 16.0114 12.2913 15.9943 12.1284V12.1198Z" fill="#FAF9F9"/>
<path d="M16.98 11.357C17.16 11.2027 17.3571 11.0656 17.6057 11.0227C17.6057 11.1856 17.6057 11.357 17.6228 11.5198C17.6228 11.5713 17.6657 11.6227 17.6828 11.6741C17.4514 11.8027 17.22 11.9398 16.9886 12.0684C16.9886 11.8284 16.9886 11.5884 16.98 11.357Z" fill="#4A343A"/>
<path d="M14.4857 12.5999C14.4857 12.9084 14.4857 13.217 14.4943 13.5341C14.4514 13.5513 14.4086 13.577 14.3743 13.5941V12.6684C14.3743 12.6684 14.4428 12.6256 14.4857 12.5999Z" fill="#431E2B"/>
<path d="M16.98 11.3572C16.98 11.5972 16.98 11.8372 16.9886 12.0686C16.9543 12.0772 16.9114 12.0943 16.8771 12.1029C16.8771 11.8715 16.8686 11.6401 16.86 11.4086C16.9028 11.3915 16.9371 11.3743 16.98 11.3486V11.3572Z" fill="#2B141C"/>
<path d="M17.6743 11.6828C17.6572 11.6313 17.6143 11.5799 17.6143 11.5285C17.6057 11.3656 17.6057 11.1942 17.5972 11.0313C17.6229 10.997 17.6486 10.9628 17.6657 10.9285C17.6829 11.117 17.7086 11.3056 17.7172 11.4856C17.7172 11.5542 17.6829 11.6142 17.6657 11.6828H17.6743Z" fill="#431E2B"/>
<path d="M7.68858 14.1085C7.68858 14.1685 7.68858 14.2285 7.68858 14.2885C7.56 14.3313 7.44 14.3742 7.31143 14.417C7.26858 14.3742 7.22572 14.3313 7.18286 14.2885C7.28572 14.2199 7.39715 14.1599 7.5 14.0913C7.56 14.0913 7.62 14.0913 7.68858 14.0999V14.1085Z" fill="#DA5B54"/>
<path d="M7.50004 14.0999C7.39718 14.1685 7.28575 14.2285 7.18289 14.2971C7.16575 14.2971 7.14004 14.2971 7.12289 14.2971C7.09718 14.1942 7.08004 14.0828 7.05432 13.9799C7.08004 13.9628 7.09718 13.9371 7.12289 13.9199C7.27718 13.9199 7.41432 13.9628 7.50861 14.1085L7.50004 14.0999Z" fill="#A24741"/>
<path d="M6.35138 13.7228L6.09424 13.2771C6.23138 13.2942 6.35138 13.3371 6.41138 13.4657L6.47138 13.5342C6.48852 13.5942 6.51424 13.6628 6.53138 13.7228C6.47138 13.7228 6.40281 13.7228 6.34281 13.7228H6.35138Z" fill="#B07564"/>
<path d="M6.53998 13.7228C6.52284 13.6628 6.49712 13.5942 6.47998 13.5342C6.65141 13.5513 6.83141 13.5599 6.86569 13.7913C6.86569 13.8085 6.86569 13.8342 6.86569 13.8513C6.82284 13.8513 6.77998 13.8513 6.73712 13.8599C6.69427 13.8599 6.65998 13.8599 6.61712 13.8599C6.59998 13.817 6.57427 13.7742 6.55712 13.7313L6.53998 13.7228Z" fill="#91324B"/>
<path d="M6.85708 13.8429C6.85708 13.8429 6.85708 13.8 6.85708 13.7829C6.95137 13.8086 7.10565 13.7057 7.11423 13.9114C7.08851 13.9286 7.07137 13.9543 7.04565 13.9714C7.0028 13.9714 6.95994 13.9714 6.91708 13.9714C6.89137 13.9286 6.87423 13.8857 6.84851 13.8429H6.85708Z" fill="#B07564"/>
<path d="M6.48004 13.5256L6.42004 13.457L6.48004 13.5256Z" fill="#91324B"/>
<path d="M6.0943 13.277C6.0943 13.277 6.05144 13.2342 6.0343 13.217C6.05144 13.2342 6.07716 13.2599 6.0943 13.277Z" fill="#B07564"/>
<path d="M9.59996 15.7542C9.66853 15.797 9.72853 15.8399 9.7971 15.8827C9.68567 15.9256 9.58281 15.977 9.47138 16.0199C9.41996 15.917 9.35138 15.8485 9.21424 15.9256C9.21424 15.9685 9.22281 16.0199 9.23138 16.0542C9.27424 16.0627 9.29138 16.0713 9.30853 16.0713C9.35996 16.0713 9.41138 16.0713 9.46281 16.0713C9.59138 16.2599 9.71996 16.457 9.84853 16.6456C9.84853 16.6627 9.84853 16.6885 9.84853 16.7056C9.78853 16.7227 9.71996 16.7485 9.65996 16.7656C9.52281 16.5427 9.42853 16.3027 9.23996 16.1313C8.98281 16.2427 8.74281 16.3456 8.51138 16.4485C8.46853 16.4056 8.42567 16.3627 8.38281 16.3199C8.63138 16.1827 8.87996 16.0542 9.12853 15.9085C9.05138 15.7456 8.96567 15.5827 8.88853 15.4199C8.91424 15.3942 8.93138 15.377 8.9571 15.3513C9.0171 15.377 9.08567 15.3942 9.14567 15.4199C9.17138 15.437 9.18853 15.4627 9.21424 15.4799C9.2571 15.5827 9.29996 15.6942 9.34281 15.797C9.45424 15.7713 9.52281 15.7456 9.59996 15.7285V15.7542Z" fill="#DA8472"/>
<path d="M8.96569 15.3686C8.96569 15.3686 8.92283 15.4114 8.89712 15.4371C8.79426 15.48 8.69141 15.5229 8.58855 15.5657C8.43426 15.6257 8.28855 15.6943 8.14283 15.7543C8.12569 15.7543 8.09998 15.7543 8.08283 15.7543C8.03998 15.6257 7.93712 15.6171 7.82569 15.6257C7.80855 15.6257 7.78283 15.6257 7.76569 15.6257C7.57712 15.3086 7.37998 14.9914 7.19141 14.6743C7.25141 14.6657 7.31998 14.6571 7.38855 14.64C7.35426 14.5714 7.33712 14.5286 7.31998 14.4771C7.31998 14.46 7.31998 14.4343 7.31998 14.4171C7.44855 14.3743 7.56855 14.3314 7.69712 14.2886C7.69712 14.3743 7.69712 14.46 7.69712 14.5457C7.56855 14.5457 7.44855 14.5543 7.43998 14.7514C7.49998 14.8286 7.55998 14.9143 7.62855 14.9914C7.67141 15.0514 7.71426 15.12 7.75712 15.18C7.78283 15.36 7.86855 15.4886 8.02283 15.5743C8.27998 15.4629 8.52855 15.3514 8.77712 15.2486C8.83712 15.2914 8.90569 15.3343 8.96569 15.3686Z" fill="#AF3E55"/>
<path d="M12.0171 17.16C12.0171 17.16 12.0171 17.2029 12.0171 17.22C11.9143 17.2629 11.8028 17.3058 11.7 17.3486C11.5714 17.4258 11.4343 17.4943 11.2886 17.58C11.3743 17.7172 11.4428 17.82 11.5114 17.9229C11.5543 17.9829 11.5971 18.0515 11.64 18.1115C11.6914 18.24 11.7428 18.3686 11.8028 18.5143C11.8971 18.48 11.9571 18.4543 12.0257 18.4286C12.0257 18.4972 12.0257 18.5572 12.0257 18.6258C12.0257 18.6686 12.0257 18.7115 12.0257 18.7543C11.9828 18.7286 11.9228 18.72 11.9057 18.6858C11.8543 18.5658 11.76 18.5572 11.6486 18.5658C11.5628 18.4629 11.4771 18.3515 11.3914 18.2486C11.3914 18.1543 11.3571 18.0858 11.2628 18.06C11.22 17.9315 11.1771 17.8029 11.1343 17.6743C11.1771 17.6315 11.2114 17.5972 11.2543 17.5543C11.2371 17.4858 11.22 17.4172 11.1943 17.3572C11.2971 17.2972 11.4086 17.2286 11.5114 17.1686C11.6228 17.1686 11.7257 17.1686 11.7686 17.04C11.8543 17.0829 11.94 17.1258 12.0171 17.1686V17.16Z" fill="#963652"/>
<path d="M9.8486 16.6458C9.72003 16.4572 9.59146 16.2601 9.46289 16.0715C9.46289 16.0544 9.46289 16.0286 9.46289 16.0115C9.57432 15.9686 9.67718 15.9172 9.78861 15.8744C9.96003 15.8572 10.0457 15.9858 10.1657 16.0715C10.1915 16.0972 10.2086 16.1144 10.2343 16.1401C10.2515 16.2258 10.2772 16.3115 10.2943 16.3972C10.1486 16.4829 9.99432 16.5686 9.8486 16.6544V16.6458Z" fill="#DA5B54"/>
<path d="M8.76853 15.2486C8.51996 15.36 8.27139 15.4629 8.01425 15.5743C7.85139 15.4971 7.76568 15.36 7.74854 15.18C7.91996 15.0943 8.09139 15.0086 8.25425 14.9229C8.43425 15.0086 8.63996 15.06 8.76853 15.24V15.2486Z" fill="#C65063"/>
<path d="M11.5029 17.1599C11.4001 17.2199 11.2886 17.2884 11.1858 17.3484C11.1086 17.2456 11.0229 17.1513 10.9286 17.0313H10.7486C10.7486 17.0313 10.7058 16.9884 10.6801 16.9627C10.6801 16.9456 10.6801 16.9199 10.6801 16.9027C10.8515 16.8341 11.0229 16.7741 11.1943 16.7056C11.2543 16.7313 11.3229 16.757 11.3829 16.7741C11.4086 16.817 11.4258 16.8513 11.4515 16.8941C11.4686 16.9799 11.4943 17.0656 11.5115 17.1513L11.5029 17.1599Z" fill="#9E4256"/>
<path d="M10.3028 16.397C10.2857 16.3113 10.2599 16.2256 10.2428 16.1399C10.5257 16.2342 10.7828 16.3799 11.0057 16.5856C10.8771 16.6542 10.7485 16.7142 10.6285 16.7827C10.6114 16.7827 10.5857 16.7827 10.5685 16.7827C10.5257 16.7227 10.4828 16.6542 10.4399 16.5942C10.3971 16.5342 10.3542 16.4656 10.3114 16.4056L10.3028 16.397Z" fill="#A43A59"/>
<path d="M7.62851 14.9914C7.55994 14.9057 7.49137 14.8199 7.43994 14.7514C7.43994 14.5542 7.55994 14.5457 7.69708 14.5457C7.82566 14.6485 7.95423 14.7514 8.09137 14.8628C7.93708 14.9057 7.79137 14.9485 7.63708 14.9999L7.62851 14.9914Z" fill="#C65063"/>
<path d="M7.62854 14.9914C7.78283 14.9485 7.92854 14.9057 8.08283 14.8542L8.26283 14.9228C8.0914 15.0085 7.91997 15.0942 7.75711 15.18C7.71425 15.12 7.6714 15.0514 7.62854 14.9914Z" fill="#BB524C"/>
<path d="M10.6115 16.7828C10.74 16.7143 10.8686 16.6543 10.9886 16.5857C11.0572 16.6286 11.1172 16.6714 11.1857 16.7143C11.0143 16.7828 10.8429 16.8428 10.6714 16.9114C10.6543 16.8685 10.6286 16.8257 10.6115 16.7914V16.7828Z" fill="#B07564"/>
<path d="M9.59995 15.7542C9.5228 15.7714 9.45423 15.7971 9.3428 15.8228C9.29995 15.7114 9.25709 15.6085 9.21423 15.4971C9.37709 15.5228 9.51423 15.5999 9.59995 15.7542Z" fill="#DA5B54"/>
<path d="M11.5029 17.16C11.4857 17.0743 11.46 16.9885 11.4429 16.9028C11.5714 16.9028 11.6829 16.92 11.76 17.0314C11.7172 17.16 11.6143 17.16 11.5029 17.16Z" fill="#A24741"/>
<path d="M11.4428 16.9027C11.4428 16.9027 11.4 16.8256 11.3743 16.7827C11.4 16.8256 11.4171 16.8599 11.4428 16.9027Z" fill="#A24741"/>
<path d="M9.21432 15.5056C9.21432 15.5056 9.17147 15.4627 9.14575 15.4456C9.17147 15.4627 9.18861 15.4884 9.21432 15.5056Z" fill="#DA5B54"/>
<path d="M10.2343 16.1399C10.2343 16.1399 10.1915 16.097 10.1658 16.0713C10.1915 16.097 10.2086 16.1141 10.2343 16.1399Z" fill="#A43A59"/>
<path d="M15.06 17.3999C15.1629 17.4685 15.2657 17.5285 15.36 17.597C15.4029 17.6313 15.42 17.6828 15.4543 17.7342C15.1286 17.897 14.8029 18.0599 14.4857 18.2313C14.1 18.4456 13.7229 18.6599 13.3457 18.8828C13.1743 18.9856 13.0114 19.0885 12.8486 19.1999L12.3943 18.9428C12.6257 18.797 12.8657 18.6428 13.0971 18.497C13.1657 18.4542 13.2257 18.4199 13.2943 18.377C13.44 18.2913 13.5943 18.2056 13.74 18.1199C13.8086 18.0856 13.8771 18.0428 13.9457 18.0085C14.0057 17.9656 14.0657 17.9228 14.1257 17.8799C14.4343 17.7856 14.6914 17.6056 14.9486 17.4256L15.0686 17.4085L15.06 17.3999Z" fill="#431E2B"/>
<path d="M13.0971 18.4886C12.8657 18.6343 12.6257 18.7886 12.3942 18.9343C12.2657 18.9772 12.1457 19.02 12.0171 19.0629C12.0171 18.96 12.0171 18.8486 12.0171 18.7457C12.0171 18.7029 12.0171 18.66 12.0171 18.6172C12.2314 18.5314 12.4371 18.4457 12.6514 18.36C12.7542 18.3172 12.8657 18.2743 12.9685 18.2314C13.0114 18.3172 13.0542 18.3943 13.0971 18.48V18.4886Z" fill="#C65063"/>
<path d="M10.2943 18.1029C10.2943 17.9315 10.2943 17.7686 10.3029 17.5972C10.3629 17.6229 10.4229 17.6486 10.4829 17.6657C10.5086 17.7257 10.5257 17.7943 10.5515 17.8543C10.6372 17.9829 10.7229 18.1115 10.8086 18.24V18.3686C10.6372 18.2829 10.4743 18.1886 10.3029 18.1029H10.2943Z" fill="#B07564"/>
<path d="M11.3828 18.24C11.4686 18.3429 11.5543 18.4543 11.64 18.5572L11.4514 18.7457C11.28 18.6429 11.1086 18.54 10.9371 18.4286C11.0914 18.36 11.2371 18.3 11.3914 18.2314L11.3828 18.24Z" fill="#9E4256"/>
<path d="M11.4429 18.7457L11.6315 18.5571C11.7429 18.5571 11.8372 18.5571 11.8886 18.6771C11.9058 18.7114 11.9658 18.72 12.0086 18.7457C12.0086 18.8486 12.0086 18.96 12.0086 19.0628C11.7858 19.02 11.6058 18.8914 11.4343 18.7457H11.4429Z" fill="#91324B"/>
<path d="M11.3829 18.2401C11.2286 18.3086 11.0829 18.3686 10.9286 18.4372C10.8857 18.4201 10.8515 18.3943 10.8086 18.3772V18.2486C10.9543 18.1886 11.1086 18.1201 11.2543 18.0601C11.3486 18.0943 11.3915 18.1543 11.3829 18.2486V18.2401Z" fill="#A24741"/>
<path d="M6.09424 16.6456C6.09424 16.5513 6.1371 16.4913 6.22281 16.4485C6.27424 16.4228 6.30852 16.3628 6.35138 16.3199C6.39424 16.3028 6.4371 16.2771 6.47995 16.2599C6.60852 16.2599 6.71995 16.2513 6.7971 16.1313C6.83995 16.1142 6.88281 16.0885 6.92567 16.0713C7.06281 16.0285 7.13995 16.1399 7.24281 16.1999C7.30281 16.2856 7.34567 16.3799 7.41424 16.4485C7.49138 16.5256 7.59424 16.5771 7.68852 16.6456C7.62852 16.6885 7.55995 16.7313 7.49995 16.7742C7.4571 16.7742 7.41424 16.7742 7.37138 16.7742C7.32852 16.7742 7.28567 16.7742 7.25138 16.7742C7.18281 16.6199 7.10567 16.4742 7.01995 16.2856C6.89138 16.3713 6.77995 16.4399 6.6771 16.5085C6.6171 16.5085 6.5571 16.5085 6.47995 16.5256C6.50567 16.6456 6.52281 16.7399 6.54852 16.8342C6.36852 16.8342 6.23138 16.7571 6.10281 16.6456H6.09424Z" fill="#963652"/>
<path d="M8.32287 17.8543C8.32287 17.8543 8.23715 17.8543 8.20287 17.8543C8.0143 17.7429 7.81715 17.64 7.62858 17.5286C7.56858 17.3571 7.51715 17.1857 7.45715 17.0057C7.48287 16.98 7.52572 16.9371 7.56858 16.8943H7.60287H7.63715C7.76572 17.1514 7.87715 17.4257 8.05715 17.6743C8.22858 17.5971 8.38287 17.5371 8.52858 17.4686C8.57144 17.5114 8.6143 17.5543 8.65715 17.5971C8.5543 17.6829 8.44287 17.7686 8.34001 17.8543H8.32287Z" fill="#91324B"/>
<path d="M7.55994 16.9027C7.55994 16.9027 7.4828 16.9799 7.44851 17.0142C7.50851 17.1942 7.56851 17.3656 7.61994 17.537C7.43137 17.4085 7.23423 17.2799 7.04565 17.1599C7.14851 17.117 7.2428 17.0742 7.3628 17.0227V16.7742C7.3628 16.7742 7.44851 16.7742 7.49137 16.7742C7.51708 16.817 7.53423 16.8599 7.55994 16.9027Z" fill="#9E4256"/>
<path d="M6.54001 16.8428C6.52286 16.7485 6.49715 16.6542 6.47144 16.5342C6.54858 16.5342 6.60858 16.5257 6.66858 16.5171C6.70286 16.6971 6.87429 16.8257 6.85715 17.0228C6.84001 17.0228 6.81429 17.0228 6.79715 17.0228C6.71144 16.9799 6.62572 16.9371 6.54001 16.8942C6.55715 16.8857 6.57429 16.8685 6.59144 16.8599C6.57429 16.8514 6.55715 16.8428 6.54001 16.8257V16.8428Z" fill="#A24741"/>
<path d="M6.79712 17.0313C6.79712 17.0313 6.83998 17.0313 6.85712 17.0313C6.98569 16.9456 7.11426 16.8684 7.24283 16.7827C7.28569 16.7827 7.32855 16.7827 7.36283 16.7827V17.0313C7.24283 17.0827 7.14855 17.1256 7.04569 17.1684L6.79712 17.0399V17.0313Z" fill="#B07564"/>
<path d="M6.54004 16.8428C6.54004 16.8428 6.57432 16.8599 6.59147 16.8771C6.57432 16.8856 6.55718 16.9028 6.54004 16.9113C6.54004 16.8942 6.54004 16.8685 6.54004 16.8513V16.8428Z" fill="#963652"/>
<path d="M10.6114 16.7827C10.6114 16.7827 10.6543 16.8685 10.6714 16.9027C10.6714 16.9199 10.6714 16.9456 10.6714 16.9627C10.5 17.0399 10.3286 17.1085 10.1229 17.2027C10.2 17.2713 10.2429 17.3142 10.2857 17.3485C10.2857 17.3656 10.2857 17.3913 10.2857 17.4085C10.2 17.4342 10.1229 17.4513 10.0371 17.477C9.99429 17.4256 9.94286 17.3827 9.88286 17.3142C9.62572 17.4342 9.38572 17.5456 9.13715 17.6656H9.07715C9.07715 17.597 9.07715 17.537 9.07715 17.477C9.33429 17.3485 9.58286 17.2199 9.84001 17.0913C9.89143 17.2027 9.96858 17.2542 10.0886 17.1856V17.0227C10.1914 16.8513 10.4057 16.8856 10.5343 16.7742C10.5514 16.7742 10.5771 16.7742 10.5943 16.7742L10.6114 16.7827Z" fill="#D17D6C"/>
<path d="M9.1543 17.6656C9.3943 17.5542 9.6343 17.4428 9.90001 17.3142C9.96001 17.3742 10.0029 17.4256 10.0543 17.4771C9.83144 17.6828 9.56573 17.8114 9.29144 17.9228C9.24858 17.8371 9.20572 17.7514 9.16287 17.6656H9.1543Z" fill="#BB524C"/>
<path d="M10.2943 17.417C10.2943 17.417 10.2943 17.3742 10.2943 17.357C10.4401 17.297 10.5943 17.2285 10.7401 17.1685C10.8772 17.2199 10.8858 17.3485 10.9458 17.4856C10.7743 17.5542 10.6286 17.6142 10.4743 17.6742C10.4143 17.6485 10.3543 17.6227 10.2943 17.6056C10.2943 17.5456 10.2943 17.4856 10.2858 17.4256L10.2943 17.417Z" fill="#A24741"/>
<path d="M8.70856 17.8542C8.88856 17.8628 8.8457 18.0257 8.93142 18.1285C8.69142 18.2228 8.55427 18.1457 8.45142 17.9914C8.53713 17.9485 8.62284 17.9057 8.70856 17.8628V17.8542Z" fill="#A24741"/>
<path d="M8.70856 17.8543C8.62285 17.8972 8.53713 17.94 8.45142 17.9829C8.35713 17.9829 8.31428 17.9486 8.32285 17.8543C8.42571 17.7686 8.53713 17.6829 8.63999 17.5972C8.66571 17.5972 8.68285 17.5972 8.70856 17.5972C8.70856 17.6829 8.70856 17.76 8.70856 17.8457V17.8543Z" fill="#B07564"/>
<path d="M9.1543 17.6658C9.19715 17.7515 9.24001 17.8372 9.28287 17.9229C9.24001 17.9658 9.20573 18.0087 9.1543 18.0515C9.02573 17.9658 8.9743 17.8544 8.95715 17.7258C9.00001 17.7001 9.04287 17.6829 9.08573 17.6572C9.10287 17.6572 9.12858 17.6572 9.14572 17.6572L9.1543 17.6658Z" fill="#A24741"/>
<path d="M9.08572 17.6656C9.08572 17.6656 9.00001 17.7085 8.95715 17.7342C8.88858 17.6913 8.82858 17.6485 8.76001 17.6056C8.76001 17.5799 8.76001 17.5628 8.76001 17.5371L9.01715 17.4771C9.01715 17.4771 9.06001 17.4771 9.07715 17.4771C9.07715 17.5371 9.07715 17.6056 9.07715 17.6656H9.08572Z" fill="#B07564"/>
<path d="M8.76862 17.537V17.6056C8.76862 17.6056 8.72576 17.6056 8.70862 17.6056C8.6829 17.6056 8.66576 17.6056 8.64005 17.6056C8.59719 17.5627 8.55433 17.5199 8.51147 17.477C8.51147 17.4513 8.51147 17.4342 8.51147 17.4084C8.58005 17.4084 8.64005 17.4084 8.70862 17.4084L8.76862 17.5284V17.537Z" fill="#9E4256"/>
<path d="M15.0599 17.4L14.9399 17.4171C14.9399 17.4171 14.9399 17.3743 14.9399 17.3485C14.9828 17.3057 15.0257 17.2628 15.0685 17.22C15.0857 17.2543 15.1114 17.2885 15.1285 17.3314C15.1028 17.3571 15.0857 17.3743 15.0599 17.4Z" fill="#D17D6C"/>
<path d="M6.54004 13.7229C6.55718 13.7658 6.5829 13.8086 6.60004 13.8515C6.57432 13.8943 6.55718 13.9286 6.53147 13.9715C6.48861 13.9715 6.45432 13.9715 6.41147 13.9715C6.38575 13.9115 6.36861 13.8429 6.3429 13.7829C6.3429 13.7658 6.3429 13.74 6.3429 13.7229C6.4029 13.7229 6.47147 13.7229 6.53147 13.7229H6.54004Z" fill="#8A6D5B"/>
<path d="M7.24291 16.1998C7.14005 16.1484 7.07148 16.0284 6.92577 16.0713C6.73719 15.7713 6.54862 15.4713 6.36862 15.1713C6.11148 15.1798 5.93148 15.3513 5.71719 15.4284C5.67434 15.3856 5.63148 15.3427 5.58862 15.2998C5.58862 15.2827 5.58862 15.257 5.58862 15.2398C5.61434 15.2227 5.63148 15.197 5.65719 15.1798C5.84577 15.1113 6.03434 15.0427 6.25719 14.9656C6.20577 14.9056 6.18862 14.8798 6.16291 14.8627C6.16291 14.8456 6.16291 14.8198 6.16291 14.8027C6.22291 14.777 6.29148 14.7598 6.35148 14.7341C6.39434 14.777 6.43719 14.8198 6.48005 14.8627C6.50577 14.9056 6.52291 14.9484 6.54862 14.9913C6.56577 15.1798 6.69434 15.2998 6.79719 15.437C6.82291 15.497 6.84005 15.5656 6.86577 15.6256C6.94291 15.7541 7.02862 15.8827 7.11434 16.0284C7.26862 15.9513 7.41434 15.8827 7.56005 15.8141C7.60291 15.857 7.64577 15.8998 7.68862 15.9427C7.54291 16.0284 7.38862 16.1141 7.24291 16.1998Z" fill="#A43A59"/>
<path d="M6.09424 14.4171C6.09424 14.4171 6.09424 14.3742 6.09424 14.3571C6.23995 14.2885 6.39424 14.2285 6.53995 14.1599C6.58281 14.1599 6.62567 14.1599 6.66852 14.1599C6.71138 14.2628 6.75424 14.3742 6.7971 14.4771C6.65138 14.5628 6.50567 14.6485 6.35138 14.7342C6.26567 14.6313 6.17995 14.5199 6.10281 14.4171H6.09424Z" fill="#A24741"/>
<path d="M6.54859 14.16C6.40287 14.2286 6.24859 14.2886 6.10287 14.3572C6.07716 14.3143 6.06002 14.2714 6.0343 14.2286C6.16287 14.1429 6.29144 14.0571 6.42002 13.9714C6.46287 13.9714 6.49716 13.9714 6.54002 13.9714C6.54002 14.0314 6.54002 14.1 6.54002 14.16H6.54859Z" fill="#B07564"/>
<path d="M6.0943 14.417C6.18001 14.5198 6.26572 14.6313 6.34287 14.7341C6.28287 14.7599 6.2143 14.777 6.1543 14.8027C6.0943 14.6998 6.0343 14.5884 5.95715 14.4684C6.00001 14.4513 6.04287 14.4427 6.08572 14.4256L6.0943 14.417Z" fill="#91324B"/>
<path d="M5.71719 15.4371C5.93148 15.3514 6.1029 15.1885 6.36862 15.1799C6.55719 15.4799 6.73719 15.7799 6.92576 16.0799C6.8829 16.0971 6.84005 16.1228 6.79719 16.1399C6.69433 15.9771 6.5229 15.9342 6.35148 15.8828C6.2229 15.7971 6.09433 15.7114 5.96576 15.6256C5.88005 15.5656 5.79433 15.4971 5.70862 15.4371H5.71719Z" fill="#B84A6C"/>
<path d="M5.97424 15.6257C6.10281 15.7114 6.23138 15.7972 6.35995 15.8829C6.37709 15.96 6.40281 16.0286 6.41995 16.1057C6.43709 16.1572 6.46281 16.2172 6.48852 16.2686C6.44566 16.2857 6.40281 16.3114 6.35995 16.3286C6.27424 16.2257 6.19709 16.1314 6.09424 16.0114C5.99995 16.0714 5.88852 16.14 5.78566 16.2086C5.66566 16.1486 5.75138 16.0372 5.72566 15.9514C5.93138 15.8914 5.96566 15.8486 5.98281 15.6343L5.97424 15.6257Z" fill="#9E4256"/>
<path d="M13.0971 17.9229C12.9428 17.8458 12.8657 17.7086 12.84 17.5372C12.9857 17.4772 13.14 17.4086 13.2857 17.3486C13.3714 17.4515 13.4571 17.5629 13.5343 17.6658C13.5343 17.6829 13.5343 17.7086 13.5343 17.7258C13.3885 17.7858 13.2343 17.8543 13.0885 17.9143L13.0971 17.9229Z" fill="#C65063"/>
<path d="M12.1457 17.6656C12.2485 17.6056 12.3599 17.5371 12.4628 17.4771C12.5057 17.5371 12.5485 17.6056 12.5914 17.6656C12.4799 17.7256 12.3771 17.7771 12.2571 17.8456C12.3085 17.9913 12.3514 18.1199 12.3942 18.2399C12.3342 18.2571 12.2657 18.2828 12.2057 18.2999C12.1542 18.2228 12.1542 18.0942 12.0171 18.1113C12.0171 18.0685 12.0171 18.0256 12.0171 17.9828C12.1285 17.9056 12.1457 17.7856 12.1457 17.6656Z" fill="#AF3E55"/>
<path d="M12.3942 18.2401C12.3514 18.1115 12.3085 17.9915 12.2571 17.8458C12.3685 17.7858 12.4799 17.7258 12.5914 17.6658C12.6857 17.7858 12.8142 17.8801 12.7714 18.0943C12.6599 18.1372 12.5314 18.1886 12.4028 18.2401H12.3942Z" fill="#B84A6C"/>
<path d="M13.0972 17.9227C13.2429 17.8627 13.3972 17.7941 13.5429 17.7341C13.5858 17.777 13.6286 17.8198 13.6715 17.8627C13.6715 17.8798 13.6715 17.9056 13.6715 17.9227C13.5001 17.9913 13.3286 18.0684 13.1401 18.1541C13.2001 18.2484 13.2515 18.3084 13.2943 18.377C13.2258 18.4198 13.1658 18.4541 13.0972 18.497C13.0543 18.4113 13.0115 18.3341 12.9686 18.2484C13.1315 18.1884 13.0886 18.0513 13.0972 17.9313V17.9227Z" fill="#AF3E55"/>
<path d="M13.2857 17.3485C13.14 17.4085 12.9857 17.4771 12.84 17.5371C12.7971 17.4771 12.7543 17.4085 12.7114 17.3485C12.8057 17.3142 12.9 17.2713 12.9943 17.2371C13.0886 17.2028 13.1914 17.1856 13.2857 17.1599C13.2857 17.2199 13.2857 17.2885 13.2857 17.3485Z" fill="#BB524C"/>
<path d="M12.0171 18.1113C12.1542 18.0942 12.1542 18.2313 12.2057 18.2999C12.1457 18.3428 12.0771 18.3856 12.0171 18.4285C12.0171 18.3256 12.0171 18.2142 12.0171 18.1113Z" fill="#B84A6C"/>
<path d="M14.94 17.3486C14.94 17.3486 14.94 17.3915 14.94 17.4172C14.6829 17.5972 14.4172 17.7772 14.1172 17.8715C14.0914 17.8286 14.0743 17.7772 14.0486 17.7343C14.0486 17.7172 14.0486 17.6915 14.0486 17.6743C14.3057 17.5629 14.5543 17.4601 14.8114 17.3486C14.8543 17.3486 14.8972 17.3486 14.9314 17.3486H14.94Z" fill="#DA5B54"/>
<path d="M13.2858 17.3485C13.2858 17.2885 13.2858 17.2199 13.2858 17.1599C13.3458 17.1599 13.4143 17.1599 13.4743 17.1599C13.5601 17.2885 13.6458 17.4171 13.7315 17.5456C13.7315 17.5885 13.7143 17.6228 13.7058 17.6742H13.5343C13.4486 17.5713 13.3629 17.4599 13.2858 17.3571V17.3485Z" fill="#C57173"/>
<path d="M14.0572 17.6742C14.0572 17.6742 14.0572 17.7171 14.0572 17.7342C14.0143 17.7599 13.9715 17.7771 13.9286 17.8028C13.8858 17.8028 13.8429 17.8028 13.8 17.7942C13.8 17.7085 13.8 17.6314 13.8 17.5457C13.9115 17.5457 14.0143 17.5457 14.0572 17.6742Z" fill="#963652"/>
<path d="M13.8 17.5371C13.8 17.6228 13.8 17.7 13.8 17.7857C13.7571 17.8114 13.7143 17.8285 13.6714 17.8543C13.6286 17.8114 13.5857 17.7685 13.5428 17.7257C13.5428 17.7085 13.5428 17.6828 13.5428 17.6657H13.7143C13.7228 17.6143 13.7314 17.58 13.74 17.5371C13.7571 17.5371 13.7828 17.5371 13.8 17.5371Z" fill="#B84A6C"/>
<path d="M12.1457 17.6657C12.1457 17.7942 12.1285 17.9057 12.0171 17.9828L11.6314 18.1114C11.5885 18.0514 11.5457 17.9828 11.5028 17.9228C11.6314 17.8714 11.76 17.8199 11.8885 17.7685C11.8114 17.6057 11.7514 17.4857 11.6914 17.3571C11.7942 17.3142 11.9057 17.2714 12.0085 17.2285C12.0085 17.3142 11.9914 17.3999 12.0085 17.4771C12.0257 17.5457 12.0857 17.6057 12.1285 17.6742L12.1457 17.6657Z" fill="#9E4256"/>
<path d="M7.31146 14.4257C7.31146 14.4257 7.31146 14.4685 7.31146 14.4857C7.24289 14.5114 7.18289 14.5285 7.11432 14.5543C7.09718 14.5543 7.07146 14.5543 7.05432 14.5543C7.05432 14.4943 7.05432 14.4343 7.05432 14.3743C7.08004 14.3485 7.09718 14.3228 7.12289 14.2971C7.14004 14.2971 7.16575 14.2971 7.18289 14.2971C7.22575 14.34 7.26861 14.3828 7.31146 14.4257Z" fill="#BB524C"/>
<path d="M7.11426 14.2886C7.11426 14.2886 7.07141 14.34 7.04569 14.3657C7.00283 14.3657 6.95998 14.3572 6.92569 14.3486C6.88283 14.22 6.83998 14.0914 6.79712 13.9714C6.83998 13.9714 6.88283 13.9714 6.92569 13.9714C6.96855 13.9714 7.0114 13.9714 7.05426 13.9714C7.07998 14.0743 7.09712 14.1857 7.12283 14.2886H7.11426Z" fill="#91324B"/>
<path d="M6.54858 14.1599C6.54858 14.0999 6.54858 14.0313 6.54858 13.9713C6.5743 13.9285 6.59144 13.8942 6.61716 13.8513C6.66001 13.8513 6.6943 13.8513 6.73716 13.8513C6.73716 13.8856 6.73716 13.9285 6.74573 13.9627C6.72001 14.0313 6.70287 14.0913 6.67716 14.1599C6.6343 14.1599 6.59144 14.1599 6.54858 14.1599Z" fill="#BC957F"/>
<path d="M6.73709 13.9713C6.73709 13.9713 6.73709 13.8942 6.72852 13.8599C6.77137 13.8599 6.81423 13.8599 6.85709 13.8513C6.8828 13.8942 6.89994 13.937 6.92566 13.9799C6.8828 13.9799 6.83994 13.9799 6.79709 13.9799C6.77994 13.9799 6.75423 13.9799 6.73709 13.9799V13.9713Z" fill="#8A6D5B"/>
<path d="M8.51147 16.457C8.75147 16.3542 8.9829 16.2513 9.24005 16.1399C9.42005 16.3113 9.5229 16.5599 9.66005 16.7742C9.5229 16.8685 9.32576 16.8942 9.2829 17.0913C9.20576 17.2028 9.08576 17.2199 8.96576 17.2199C8.94862 17.2199 8.9229 17.2199 8.90576 17.2199C8.77719 16.9885 8.64862 16.7485 8.52005 16.517C8.52005 16.4999 8.52005 16.4742 8.52005 16.457H8.51147Z" fill="#DA5B54"/>
<path d="M8.13428 15.7542C8.27999 15.6856 8.43428 15.6256 8.57999 15.5656C8.68285 15.5227 8.78571 15.4799 8.88856 15.437C8.96571 15.5999 9.05142 15.7627 9.12856 15.9256C8.87142 16.0627 8.63142 16.1999 8.38285 16.337C8.36571 16.337 8.33999 16.337 8.32285 16.337C8.28856 16.2427 8.24571 16.1484 8.21142 16.0542C8.17713 15.9599 8.15999 15.857 8.13428 15.7627V15.7542Z" fill="#DA5B54"/>
<path d="M10.3028 16.3972C10.3457 16.4572 10.3885 16.5258 10.4314 16.5858C10.2857 16.6629 10.1399 16.7315 9.96852 16.8172C10.0028 16.8944 10.0285 16.9544 10.0542 17.0144C9.98566 17.0401 9.92566 17.0658 9.85709 17.0915L9.72852 16.9029C9.90852 16.8686 9.93423 16.8258 9.85709 16.7144C9.85709 16.6972 9.85709 16.6715 9.85709 16.6544C10.0028 16.5686 10.1571 16.4829 10.3028 16.3972Z" fill="#BB524C"/>
<path d="M9.47147 16.0113C9.47147 16.0113 9.47147 16.0542 9.47147 16.0713C9.42004 16.0713 9.36861 16.0713 9.31719 16.0713C9.30004 16.0713 9.27433 16.0628 9.24004 16.0542C9.24004 16.0113 9.23147 15.9685 9.2229 15.9256C9.36004 15.8485 9.42861 15.9085 9.48004 16.0199L9.47147 16.0113Z" fill="#BC957F"/>
<path d="M9.84851 16.7144C9.92565 16.8258 9.89994 16.8686 9.71994 16.9029L9.65137 16.7744C9.71137 16.7572 9.77994 16.7315 9.83994 16.7144H9.84851Z" fill="#D17D6C"/>
<path d="M8.32282 16.3286C8.32282 16.3286 8.36567 16.3286 8.38282 16.3286C8.42567 16.3715 8.46853 16.4143 8.51139 16.4572C8.51139 16.4743 8.51139 16.5 8.51139 16.5172C8.45139 16.5172 8.38282 16.5172 8.32282 16.5172C8.30567 16.5172 8.27996 16.5172 8.26282 16.5172C8.26282 16.4743 8.26282 16.44 8.26282 16.3972C8.28853 16.3715 8.30567 16.3543 8.33139 16.3286H8.32282Z" fill="#B07564"/>
<path d="M7.05426 14.5457C7.05426 14.5457 7.09711 14.5457 7.11426 14.5457C7.13997 14.5885 7.15711 14.6314 7.18283 14.6743C7.3714 14.9914 7.56854 15.3085 7.75711 15.6257C7.75711 15.6685 7.73997 15.7028 7.7314 15.7543H7.55997C7.47426 15.6257 7.38854 15.4971 7.3114 15.3685C7.28569 15.3257 7.26854 15.2828 7.24283 15.24C7.15711 15.1114 7.0714 14.9828 6.98569 14.8543C6.95997 14.7857 6.94283 14.7257 6.91711 14.6571C6.91711 14.64 6.91711 14.6143 6.91711 14.5971C6.95997 14.58 7.00283 14.5543 7.04569 14.5371L7.05426 14.5457Z" fill="#C57173"/>
<path d="M8.32285 16.3284C8.32285 16.3284 8.27999 16.3713 8.25428 16.397C8.21142 16.397 8.17713 16.397 8.13428 16.3884C8.10856 16.3113 8.09142 16.2341 8.05713 16.1656C8.02285 16.0713 7.97142 15.977 7.93713 15.8913C7.97999 15.8484 8.02285 15.8056 8.0657 15.7627C8.08285 15.7627 8.10856 15.7627 8.1257 15.7627C8.15142 15.857 8.17713 15.9598 8.20285 16.0541C8.23713 16.1484 8.27999 16.2427 8.31428 16.337L8.32285 16.3284Z" fill="#BB524C"/>
<path d="M8.07425 15.7543C8.0314 15.7972 7.98854 15.84 7.94568 15.8829C7.90283 15.8829 7.86854 15.8829 7.82568 15.8743C7.82568 15.7886 7.82568 15.7114 7.82568 15.6257C7.93711 15.6257 8.03997 15.6257 8.08283 15.7543H8.07425Z" fill="#963652"/>
<path d="M7.8172 15.6343C7.8172 15.72 7.8172 15.7971 7.8172 15.8828C7.79149 15.9086 7.77434 15.9343 7.74863 15.9514C7.73149 15.9514 7.70577 15.9514 7.68863 15.9514C7.64577 15.9086 7.60292 15.8657 7.56006 15.8228C7.56006 15.8057 7.56006 15.78 7.56006 15.7628H7.73149C7.74006 15.7114 7.74863 15.6771 7.7572 15.6343C7.77434 15.6343 7.80006 15.6343 7.8172 15.6343Z" fill="#B84A6C"/>
<path d="M7.17428 14.6742C7.17428 14.6742 7.13143 14.5885 7.10571 14.5456C7.17428 14.5199 7.23428 14.5028 7.30286 14.4771C7.32 14.5199 7.34571 14.5628 7.37143 14.6399C7.29428 14.6485 7.23428 14.6656 7.17428 14.6742Z" fill="#963652"/>
<path d="M10.4829 17.6658C10.6286 17.6058 10.7829 17.5458 10.9543 17.4772C10.8858 17.3401 10.8858 17.2115 10.7486 17.1601C10.7486 17.1172 10.7486 17.0744 10.7486 17.0315H10.9286C11.0315 17.1515 11.1086 17.2544 11.1858 17.3486C11.2029 17.4172 11.2201 17.4772 11.2458 17.5458C11.2029 17.5801 11.1686 17.6229 11.1258 17.6658C11.0315 17.6915 10.9286 17.7172 10.8343 17.7429C10.7401 17.7772 10.6458 17.8201 10.5515 17.8544C10.5258 17.7944 10.5086 17.7258 10.4829 17.6658Z" fill="#91324B"/>
<path d="M10.5514 17.8629C10.6457 17.8286 10.74 17.7857 10.8342 17.7515C10.9285 17.7172 11.0314 17.7 11.1257 17.6743C11.1685 17.8029 11.2114 17.9315 11.2542 18.06C11.1085 18.12 10.9542 18.1886 10.8085 18.2486C10.7228 18.12 10.6371 17.9915 10.5514 17.8629Z" fill="#9E4256"/>
<path d="M11.7 17.3484C11.76 17.477 11.82 17.6056 11.8971 17.7598C11.7686 17.8113 11.64 17.8627 11.5114 17.9141C11.4429 17.8113 11.3829 17.7084 11.2886 17.5713C11.4343 17.4856 11.5714 17.417 11.7 17.3398V17.3484Z" fill="#9C3E63"/>
<path d="M11.6315 18.1115L12.0172 17.9829C12.0172 17.9829 12.0172 18.0686 12.0172 18.1115C12.0172 18.2143 12.0172 18.3258 12.0172 18.4286C11.9486 18.4543 11.8886 18.4801 11.7943 18.5143C11.7343 18.3686 11.6829 18.2401 11.6315 18.1115Z" fill="#9C3E63"/>
<path d="M10.74 17.0315C10.74 17.0315 10.74 17.1172 10.74 17.16C10.5943 17.22 10.44 17.2886 10.2943 17.3486C10.2515 17.3143 10.2086 17.2715 10.1315 17.2029C10.3372 17.1172 10.5086 17.04 10.68 16.9629C10.7058 16.9886 10.7229 17.0057 10.7486 17.0315H10.74Z" fill="#BB524C"/>
<path d="M10.0457 17.0228C10.02 16.9628 9.99425 16.8942 9.95996 16.8257C10.1314 16.74 10.2771 16.6628 10.4228 16.5942C10.4657 16.6542 10.5085 16.7228 10.5514 16.7828C10.4142 16.8942 10.2 16.86 10.1057 17.0314C10.0885 17.0314 10.0628 17.0314 10.0457 17.0314V17.0228Z" fill="#A24741"/>
<path d="M13.2943 18.3686C13.2514 18.3 13.2 18.24 13.14 18.1457C13.3372 18.06 13.5 17.9914 13.6714 17.9143C13.6972 17.9743 13.7143 18.0429 13.74 18.1029C13.5943 18.1886 13.44 18.2743 13.2943 18.36V18.3686Z" fill="#DA5B54"/>
<path d="M13.7314 18.1113C13.7057 18.0513 13.6886 17.9828 13.6628 17.9228C13.6628 17.9056 13.6628 17.8799 13.6628 17.8628C13.7057 17.837 13.7486 17.8199 13.7914 17.7942C13.8343 17.7942 13.8771 17.7942 13.92 17.8028C13.92 17.8713 13.9286 17.9399 13.9371 17.9999C13.8686 18.0342 13.8 18.077 13.7314 18.1113Z" fill="#D17D6C"/>
<path d="M13.9372 17.9998C13.9372 17.9313 13.9286 17.8627 13.92 17.8027C13.9629 17.777 14.0058 17.7598 14.0486 17.7341L14.1172 17.8713C14.0572 17.9141 13.9972 17.957 13.9372 17.9998Z" fill="#AF3E55"/>
<path d="M7.68854 15.9514C7.68854 15.9514 7.7314 15.9514 7.74854 15.9514C7.80854 16.1228 7.86854 16.2943 7.92854 16.4571C7.86854 16.5171 7.80854 16.5857 7.74854 16.6543C7.72282 16.6543 7.70568 16.6543 7.67997 16.6543C7.58568 16.5857 7.4914 16.5343 7.40568 16.4571C7.33711 16.3886 7.28568 16.2943 7.23425 16.2086C7.37997 16.1228 7.53425 16.0371 7.67997 15.9514H7.68854Z" fill="#DA5B54"/>
<path d="M7.24286 16.7827C7.11429 16.8684 6.98572 16.9456 6.85715 17.0313C6.87429 16.8342 6.70286 16.7056 6.66858 16.5256C6.77144 16.457 6.87429 16.3884 7.01144 16.3027C7.09715 16.4827 7.17429 16.637 7.24286 16.7913V16.7827Z" fill="#9E4256"/>
<path d="M6.48001 16.2685C6.4543 16.2171 6.43715 16.1657 6.41144 16.1057C6.38573 16.0285 6.36858 15.96 6.35144 15.8828C6.52287 15.9342 6.6943 15.9771 6.79715 16.14C6.72001 16.26 6.60001 16.2685 6.48001 16.2685Z" fill="#9C3E63"/>
<path d="M7.6886 16.6458C7.6886 16.6458 7.73146 16.6458 7.75717 16.6458C7.80003 16.6886 7.84288 16.7315 7.88574 16.7743C7.80003 16.8172 7.71431 16.86 7.6286 16.9029H7.59431H7.56003C7.56003 16.9029 7.51717 16.8172 7.49146 16.7743C7.55146 16.7315 7.62003 16.6886 7.68003 16.6458H7.6886Z" fill="#B07564"/>
<path d="M7.62854 16.9029C7.71425 16.8601 7.79997 16.8172 7.88568 16.7744C8.06568 16.7486 8.15997 16.9029 8.29711 16.9544C8.37425 17.1086 8.4514 17.2629 8.52854 17.4086C8.52854 17.4344 8.52854 17.4515 8.52854 17.4772C8.38283 17.5458 8.22854 17.6058 8.05711 17.6829C7.87711 17.4429 7.77425 17.1686 7.63711 16.9029H7.62854Z" fill="#A24741"/>
<path d="M9.72856 16.9028L9.85713 17.0914C9.59998 17.22 9.35141 17.3485 9.09427 17.4771C9.07713 17.4771 9.05141 17.4771 9.03427 17.4771C9.00856 17.3914 8.99141 17.3143 8.9657 17.2285C9.0857 17.2285 9.2057 17.2114 9.28284 17.1C9.4457 17.0743 9.59998 17.0143 9.72856 16.9114V16.9028Z" fill="#A24741"/>
<path d="M10.0457 17.0227C10.0457 17.0227 10.0886 17.0227 10.1057 17.0227V17.1856C9.97718 17.2542 9.90861 17.2027 9.85718 17.0913C9.92575 17.0656 9.98575 17.0399 10.0543 17.0142L10.0457 17.0227Z" fill="#BC957F"/>
<path d="M8.95712 17.2285C8.98283 17.3142 8.99998 17.3914 9.02569 17.4771C8.93998 17.4942 8.85426 17.5199 8.76855 17.5371L8.70855 17.4171C8.70855 17.3571 8.69998 17.2885 8.69141 17.2285C8.75998 17.2285 8.82855 17.2285 8.89712 17.2285C8.91426 17.2285 8.93998 17.2285 8.95712 17.2285Z" fill="#91324B"/>
<path d="M8.69142 17.22C8.69142 17.28 8.69999 17.3486 8.70856 17.4086C8.63999 17.4086 8.57999 17.4086 8.51142 17.4086C8.43428 17.2628 8.3657 17.1086 8.27999 16.9543C8.14285 16.9028 8.05713 16.74 7.86856 16.7743L7.73999 16.6457C7.79999 16.5771 7.85999 16.5171 7.91999 16.4486C7.85999 16.2857 7.79999 16.1143 7.73999 15.9428C7.7657 15.9171 7.78285 15.8914 7.80856 15.8743C7.85142 15.8743 7.8857 15.8743 7.92856 15.8828C7.97142 15.9771 8.01428 16.0628 8.04856 16.1571C8.07428 16.2343 8.09999 16.3114 8.1257 16.38C8.07428 16.4228 8.03142 16.4743 7.97999 16.5171C8.06571 16.62 8.1257 16.68 8.23713 16.6028C8.23713 16.5686 8.23713 16.5428 8.2457 16.5086C8.26285 16.5086 8.28856 16.5086 8.3057 16.5086C8.38285 16.7657 8.49428 17.0057 8.67428 17.2114L8.69142 17.22Z" fill="#D17D6C"/>
<path d="M7.56001 15.7543C7.56001 15.7543 7.56001 15.7972 7.56001 15.8143C7.41429 15.8829 7.26858 15.9515 7.11429 16.0286C7.02001 15.8829 6.94287 15.7543 6.86572 15.6258C6.96858 15.5829 7.08001 15.5486 7.18287 15.4972C7.23429 15.4715 7.26858 15.4115 7.31144 15.3772C7.39715 15.5058 7.48287 15.6343 7.56001 15.7629V15.7543Z" fill="#C65063"/>
<path d="M6.99427 14.8628C7.07999 14.9914 7.1657 15.1199 7.25141 15.2485C7.1057 15.3085 6.95141 15.3771 6.8057 15.4371C6.69427 15.2999 6.5657 15.1799 6.55713 14.9914C6.70284 14.9485 6.85713 14.9057 7.00284 14.8628H6.99427Z" fill="#C65063"/>
<path d="M6.99427 14.8629C6.84855 14.9058 6.69427 14.9486 6.54855 14.9915C6.52284 14.9486 6.50569 14.9058 6.47998 14.8629C6.60855 14.7515 6.74569 14.6743 6.92569 14.6658C6.95141 14.7343 6.96855 14.7943 6.99427 14.8629Z" fill="#AF3E55"/>
<path d="M6.79712 15.4371C6.94283 15.3771 7.09712 15.3085 7.24283 15.2485C7.26855 15.2914 7.28569 15.3342 7.3114 15.3771C7.26855 15.42 7.23426 15.4714 7.18283 15.4971C7.07998 15.5485 6.97712 15.5828 6.86569 15.6257C6.83998 15.5657 6.82283 15.4971 6.79712 15.4371Z" fill="#BB524C"/>
<path d="M6.92573 14.6742C6.74573 14.6742 6.60858 14.7513 6.48001 14.8713C6.43715 14.8285 6.3943 14.7856 6.35144 14.7427C6.49715 14.657 6.64287 14.5713 6.79715 14.4856C6.8143 14.5027 6.84001 14.5285 6.85715 14.5456C6.88287 14.5713 6.90001 14.5885 6.92573 14.6142C6.92573 14.6313 6.92573 14.657 6.92573 14.6742Z" fill="#DA5B54"/>
<path d="M6.85715 14.5457C6.85715 14.5457 6.81429 14.5029 6.79715 14.4857L6.66858 14.1686L6.73715 13.9714C6.73715 13.9714 6.78001 13.9714 6.79715 13.9714C6.84001 14.1 6.88286 14.2286 6.92572 14.3486C6.90001 14.4086 6.88286 14.4771 6.85715 14.5371V14.5457Z" fill="#B07564"/>
<path d="M6.85708 14.5457C6.8828 14.4857 6.89994 14.4172 6.92565 14.3572C6.96851 14.3572 7.01137 14.3657 7.04565 14.3743C7.04565 14.4343 7.04565 14.4943 7.04565 14.5543C7.0028 14.5715 6.95994 14.5972 6.91708 14.6143C6.89137 14.5886 6.87423 14.5715 6.84851 14.5457H6.85708Z" fill="#DA8472"/>
<path d="M8.69145 17.2199C8.50288 17.0228 8.40002 16.7742 8.32288 16.5171C8.38288 16.5171 8.45145 16.5171 8.51145 16.5171C8.64002 16.7485 8.76859 16.9885 8.89716 17.2199C8.82859 17.2199 8.76002 17.2199 8.69145 17.2199Z" fill="#BB524C"/>
<path d="M9.72855 16.9027C9.59998 17.0056 9.44569 17.0742 9.28284 17.0913C9.33427 16.8942 9.52284 16.8685 9.65998 16.7742L9.72855 16.9027Z" fill="#BB524C"/>
<path d="M8.26291 16.517C8.26291 16.517 8.26291 16.577 8.25434 16.6113C8.15148 16.6884 8.08291 16.6284 7.99719 16.5256C8.04862 16.4827 8.09148 16.4313 8.14291 16.3884C8.18576 16.3884 8.22005 16.3884 8.26291 16.397C8.26291 16.4399 8.26291 16.4741 8.26291 16.517Z" fill="#BC957F"/>
</g>
<defs>
<clipPath id="clip0_28_1058">
<rect width="24" height="24" fill="white"/>
</clipPath>
</defs>
</svg>
