<svg width="24" height="24" viewBox="0 0 24 24" fill="none" xmlns="http://www.w3.org/2000/svg">
<g clip-path="url(#clip0_28_883)">
<path d="M12 24C18.6274 24 24 18.6274 24 12C24 5.37258 18.6274 0 12 0C5.37258 0 0 5.37258 0 12C0 18.6274 5.37258 24 12 24Z" fill="#2A5ADA"/>
<path d="M12 3.92334L10.518 4.77545L6.47974 7.10951L4.9978 7.96162V16.0382L6.47974 16.8903L10.5551 19.2244L12.037 20.0765L13.519 19.2244L17.5202 16.8903L19.0021 16.0382V7.96162L17.5202 7.10951L13.4819 4.77545L12 3.92334ZM7.96168 14.334V9.66585L12 7.3318L16.0382 9.66585V14.334L12 16.668L7.96168 14.334Z" fill="white"/>
</g>
<defs>
<clipPath id="clip0_28_883">
<rect width="24" height="24" fill="white"/>
</clipPath>
</defs>
</svg>
