<svg width="24" height="24" viewBox="0 0 24 24" fill="none" xmlns="http://www.w3.org/2000/svg">
<g clip-path="url(#clip0_28_1014)">
<path d="M11.9993 23.9986C18.6263 23.9986 23.9986 18.6263 23.9986 11.9993C23.9986 5.37227 18.6263 0 11.9993 0C5.37227 0 0 5.37227 0 11.9993C0 18.6263 5.37227 23.9986 11.9993 23.9986Z" fill="#F7F7F7"/>
<path d="M13.661 18.8492C13.661 18.8492 13.6539 18.8378 13.6511 18.8364C13.6312 18.8364 13.6128 18.8364 13.5929 18.8364H10.2893V18.1572H8.92961V17.4965C8.92961 17.4965 8.91827 17.4852 8.91118 17.4781H8.25755C8.24904 17.4696 8.24337 17.4639 8.23486 17.4554V16.1042H7.57556C7.57556 16.1042 7.56422 16.0928 7.55713 16.0858V12.6957C7.55713 12.6957 7.56705 12.6857 7.57556 12.6772H8.23486V11.3218H8.90693C8.92678 11.2948 8.92819 11.2679 8.92819 11.2381C8.92819 10.8298 8.92819 10.4214 8.92819 10.0131V9.94787H9.60734V9.88974C9.60734 9.69549 9.60734 9.50125 9.60734 9.30558C9.60734 9.28715 9.60026 9.26588 9.63854 9.25312H10.2865V7.89482H10.9671V6.54077C10.9671 6.54077 10.9784 6.52943 10.9855 6.52234H11.6391C11.6476 6.51383 11.6533 6.50816 11.6561 6.50532C11.6561 6.06012 11.6561 5.61916 11.6561 5.17679C11.6561 5.17396 11.6505 5.17112 11.6476 5.16829C11.6675 5.15836 11.6859 5.14844 11.71 5.14844C11.9156 5.14844 12.1198 5.14844 12.3254 5.14844C12.3296 5.14844 12.3325 5.14986 12.3395 5.15269V6.51808H13.013C13.0201 6.52659 13.0258 6.53226 13.0343 6.5436V7.89198H13.7106V9.24603C13.729 9.25312 13.7517 9.2673 13.7588 9.26163C13.7758 9.25029 13.7914 9.25312 13.807 9.25312C13.9502 9.25312 14.0934 9.25312 14.2366 9.25312H14.3912V9.94503H15.0845V11.2991C15.0845 11.2991 15.0959 11.3104 15.1044 11.3189H15.2022C15.3539 11.3189 15.5056 11.3189 15.6573 11.3189C15.68 11.3189 15.7027 11.3246 15.724 11.3076C15.7311 11.3019 15.7495 11.3118 15.7637 11.3161V12.6772H16.4442V16.1028H15.7665V17.4738H15.0959C15.0959 17.4738 15.0902 17.4795 15.0888 17.4809C15.0888 17.4823 15.0859 17.4852 15.0859 17.4866C15.0859 17.7049 15.0859 17.9219 15.0859 18.1402C15.076 18.1459 15.0675 18.1544 15.059 18.1558C15.042 18.1587 15.025 18.1558 15.0079 18.1558H13.7163V18.8265C13.7049 18.835 13.6964 18.8421 13.6879 18.8492H13.6624H13.661ZM8.93386 14.0653C8.92536 14.1192 8.9211 15.9255 8.92961 16.1028H9.59884C9.60734 16.1113 9.61302 16.1169 9.61869 16.1226C9.61869 16.1411 9.62578 16.1609 9.60876 16.1737C9.61302 16.1836 9.61869 16.1935 9.61869 16.202C9.61869 16.3665 9.62152 16.531 9.61869 16.6954C9.61869 16.7266 9.62294 16.755 9.62294 16.7833C9.75764 16.7833 9.88808 16.7805 10.0185 16.7833C10.149 16.7862 10.2808 16.7692 10.4113 16.7961C10.5105 16.7904 10.6083 16.806 10.7076 16.7848C10.753 16.7748 10.8012 16.7833 10.848 16.7833C10.8678 16.7833 10.8862 16.7833 10.9061 16.7833C10.9274 16.7833 10.9472 16.7833 10.9656 16.7819V16.1042H10.2893V15.4449C10.2808 15.4364 10.2752 15.4307 10.2666 15.4222H9.60734C9.60734 14.9713 9.60734 14.5233 9.60734 14.0738C9.60734 14.0724 9.60734 14.0696 9.60593 14.0682C9.60593 14.0667 9.60309 14.0653 9.60167 14.0639H8.93386V14.0653Z" fill="url(#paint0_linear_28_1014)"/>
<path d="M8.93385 14.0654H9.60166C9.60166 14.0654 9.6045 14.0683 9.60591 14.0697C9.60591 14.0711 9.60733 14.0739 9.60733 14.0754C9.60733 14.5234 9.60733 14.9729 9.60733 15.4237H10.2666C10.2751 15.4322 10.2808 15.4379 10.2893 15.4464V16.1057H10.9656V16.7835C10.9472 16.7835 10.9274 16.7849 10.9061 16.7849C10.8862 16.7849 10.8678 16.7849 10.848 16.7849C10.8012 16.7849 10.7515 16.7764 10.7076 16.7863C10.6083 16.8076 10.5091 16.792 10.4113 16.7976C10.2808 16.7721 10.1504 16.7877 10.0185 16.7849C9.88807 16.782 9.75762 16.7849 9.62293 16.7849C9.62293 16.7551 9.61726 16.7267 9.61867 16.697C9.62293 16.5325 9.62009 16.368 9.61867 16.2036C9.61867 16.1936 9.613 16.1851 9.60875 16.1752C9.62576 16.1624 9.61726 16.1426 9.61867 16.1242C9.613 16.1185 9.60591 16.1114 9.59882 16.1043H8.9296C8.92109 15.9271 8.92393 14.1207 8.93385 14.0668V14.0654Z" fill="white"/>
</g>
<defs>
<linearGradient id="paint0_linear_28_1014" x1="8.26606" y1="16.7621" x2="14.2097" y2="10.8184" gradientUnits="userSpaceOnUse">
<stop offset="0.05" stop-color="#00C08F"/>
<stop offset="0.5" stop-color="#0092D2"/>
<stop offset="0.97" stop-color="#5F69B0"/>
</linearGradient>
<clipPath id="clip0_28_1014">
<rect width="24" height="24" fill="white"/>
</clipPath>
</defs>
</svg>
