<svg width="24" height="24" viewBox="0 0 24 24" fill="none" xmlns="http://www.w3.org/2000/svg">
<g clip-path="url(#clip0_5357_40430)">
<circle cx="12" cy="12" r="12" fill="white"/>
<mask id="mask0_5357_40430" style="mask-type:luminance" maskUnits="userSpaceOnUse" x="4" y="4" width="16" height="16">
<path d="M20 4H4V20H20V4Z" fill="white"/>
</mask>
<g mask="url(#mask0_5357_40430)">
<path d="M19.6796 14.2906C18.8348 17.2026 16.4092 19.3914 13.4268 19.929V17.6506C13.9644 17.4458 14.4508 17.1194 14.8476 16.697C15.0652 16.4602 15.2572 16.1978 15.4044 15.9162C15.686 15.3786 15.8396 14.7834 15.8396 14.1754C15.8396 14.169 15.8396 14.1626 15.8396 14.1562C15.8396 12.1466 14.3868 11.3402 13.0236 10.745L12.3324 10.4378C11.5964 10.105 11.0332 9.81061 11.0332 9.31141C11.0332 8.61381 11.6412 8.24261 12.2108 8.24261C12.8188 8.24261 13.1644 8.46661 13.5292 9.10021L13.8108 9.59301L15.6348 8.42181L15.398 7.98021C14.982 7.18661 14.2716 6.57221 13.4268 6.27781V4.19141C13.606 4.22341 13.7788 4.26181 13.958 4.30661C13.9772 4.31301 13.9964 4.31301 14.0156 4.31941C14.0348 4.32581 14.054 4.32581 14.0732 4.33221C14.0796 4.33221 14.086 4.33221 14.0924 4.33861C14.1372 4.35141 14.1884 4.36421 14.2396 4.37701C17.6572 5.36901 20.006 8.49861 20.006 12.057C20.006 12.8122 19.8972 13.5674 19.686 14.2906H19.6796Z" fill="#745DDF"/>
<path d="M13.6 14.2652C13.6 15.1804 12.7744 15.75 12.0064 15.75C11.0848 15.75 10.56 14.9884 10.4576 14.2844L10.368 13.67L8.16 14.2908L8.2624 14.7836C8.576 16.3388 9.6384 17.4588 11.0848 17.7916V19.9932C10.6944 19.9484 10.304 19.8716 9.9264 19.7692C9.8752 19.7564 9.8176 19.7436 9.7664 19.7244C6.3552 18.7324 4 15.6028 4 12.0444V4.35803C4 4.18523 4.1408 4.04443 4.3136 4.04443H11.0848V6.24603C10.2912 6.47643 9.6192 7.00123 9.1968 7.70523C8.928 8.17243 8.7872 8.69723 8.7872 9.23483C8.7872 9.24123 8.7872 9.24763 8.7872 9.25403V9.29883C8.8064 11.0908 10.1248 11.846 11.3728 12.4092L11.9936 12.678L12.0448 12.7036C13.0304 13.158 13.5872 13.4524 13.5872 14.2588L13.6 14.2652Z" fill="#2EB6EA"/>
<path d="M15.8333 14.1564C15.8333 14.1628 15.8333 14.1692 15.8333 14.1756C15.8333 14.7836 15.6861 15.3788 15.3981 15.9164C15.2509 16.198 15.0589 16.4668 14.8413 16.6972C14.4445 17.1196 13.9581 17.446 13.4205 17.6508V19.9356L12.7805 19.9932C12.7805 19.9932 11.4109 20.0316 11.0845 19.9932L11.0781 17.798C9.63812 17.4588 8.57572 16.3452 8.25572 14.79L8.15332 14.2972L10.3613 13.6764L10.4509 14.2908C10.5533 14.9948 11.0781 15.7564 11.9997 15.7564C12.7677 15.7564 13.5933 15.1868 13.5933 14.2716C13.5933 13.4652 13.0365 13.1708 12.0445 12.7164L11.9933 12.6908L11.3725 12.422C10.1245 11.8588 8.80612 11.11 8.78692 9.31159V9.26679C8.78692 9.26039 8.78692 9.25399 8.78692 9.24759C8.78692 8.70999 8.92772 8.18519 9.19652 7.71799C9.61892 7.00759 10.2909 6.48279 11.0845 6.25879V4.05719C12.5245 4.04439 12.6397 4.05079 13.4269 4.19159V6.28439C14.2781 6.57879 14.9821 7.18679 15.3981 7.98679L15.6349 8.42839L13.8109 9.59959L13.5293 9.10679C13.1645 8.47319 12.8189 8.24919 12.2109 8.24919C11.6349 8.24919 11.0333 8.62039 11.0333 9.31799C11.0333 9.82359 11.5965 10.118 12.3325 10.4444L13.0237 10.7516C14.3869 11.3468 15.8397 12.1532 15.8397 14.1628L15.8333 14.1564Z" fill="white"/>
</g>
</g>
<defs>
<clipPath id="clip0_5357_40430">
<rect width="24" height="24" fill="white"/>
</clipPath>
</defs>
</svg>
