<svg width="24" height="24" viewBox="0 0 24 24" fill="none" xmlns="http://www.w3.org/2000/svg">
<rect width="24" height="24" rx="12" fill="#7950DD"/>
<circle cx="12" cy="12" r="12" fill="#7950DD"/>
<path d="M15.4127 9.62894C15.1616 9.4743 14.8352 9.4743 14.559 9.62894L12.6004 10.8145L11.2696 11.5876L9.31105 12.7732C9.05996 12.9278 8.73353 12.9278 8.45732 12.7732L6.90051 11.8454C6.64941 11.6908 6.47364 11.4073 6.47364 11.098V9.26812C6.47364 8.95885 6.6243 8.67535 6.90051 8.52071L8.43221 7.61867C8.68331 7.46403 9.00972 7.46403 9.28595 7.61867L10.8176 8.52071C11.0687 8.67535 11.2445 8.95885 11.2445 9.26812V10.4537L12.5753 9.65471V8.46917C12.5753 8.15989 12.4247 7.8764 12.1485 7.72176L9.31105 6.02076C9.05996 5.86613 8.73353 5.86613 8.45732 6.02076L5.56969 7.72176C5.29348 7.8764 5.14282 8.15989 5.14282 8.46917V11.8969C5.14282 12.2062 5.29348 12.4897 5.56969 12.6443L8.45732 14.3453C8.70842 14.5 9.03486 14.5 9.31105 14.3453L11.2696 13.1855L12.6004 12.3866L14.559 11.2268C14.8101 11.0722 15.1365 11.0722 15.4127 11.2268L16.9444 12.1289C17.1955 12.2835 17.3713 12.567 17.3713 12.8763V14.7062C17.3713 15.0154 17.2207 15.2989 16.9444 15.4535L15.4127 16.3814C15.1616 16.536 14.8352 16.536 14.559 16.3814L13.0273 15.4793C12.7762 15.3247 12.6004 15.0412 12.6004 14.7319V13.5464L11.2696 14.3453V15.5309C11.2696 15.8401 11.4203 16.1236 11.6965 16.2783L14.5841 17.9793C14.8352 18.1339 15.1616 18.1339 15.4378 17.9793L18.3255 16.2783C18.5766 16.1236 18.7523 15.8401 18.7523 15.5309V12.1031C18.7523 11.7939 18.6017 11.5103 18.3255 11.3557L15.4127 9.62894Z" fill="white"/>
</svg>
