<svg width="26" height="24" viewBox="0 0 26 24" fill="none" xmlns="http://www.w3.org/2000/svg">
<circle cx="7.5" cy="11.5" r="7.5" fill="url(#paint0_linear_8787_31056)"/>
<path fill-rule="evenodd" clip-rule="evenodd" d="M10.8738 10.8714L9.95977 8.27779C9.9134 8.15517 9.8308 8.04957 9.72295 7.97504C9.6151 7.90052 9.48711 7.8606 9.35602 7.8606H9.3532C9.07945 7.8606 8.83805 8.02466 8.74898 8.27498L7.49695 11.8614L6.24398 8.27498C6.15023 8.02373 5.90883 7.85779 5.64023 7.86013H5.63695C5.50553 7.85896 5.37695 7.89847 5.26886 7.97325C5.16077 8.04802 5.07846 8.15439 5.0332 8.27779L4.12336 10.8723H3.2468C2.89336 10.8723 2.60742 11.147 2.60742 11.4854C2.60742 11.8239 2.89336 12.0981 3.24633 12.0981H3.69398L3.18023 13.5569C3.06914 13.877 3.2468 14.2244 3.58055 14.334C3.64617 14.3556 3.71508 14.3669 3.78398 14.3678C4.05117 14.3678 4.29914 14.2061 4.3882 13.9501L5.6468 10.3792L6.89273 13.9558C6.98648 14.207 7.22789 14.3729 7.49648 14.3701C7.76977 14.3701 8.01117 14.2056 8.10023 13.9553L9.34617 10.3787L10.6048 13.9529C10.7163 14.2731 11.0782 14.447 11.4157 14.3373C11.749 14.2304 11.9304 13.8826 11.816 13.5597L11.3051 12.1H11.7532C12.1062 12.1 12.3921 11.8258 12.3921 11.4873C12.3921 11.1489 12.1062 10.8742 11.7532 10.8742L10.8734 10.8714H10.8738Z" fill="white"/>
<path fill-rule="evenodd" clip-rule="evenodd" d="M8.72404 8.34619L7.87842 10.7659L8.57639 12.5879L9.34561 10.3792L8.73623 8.66494C8.70239 8.56195 8.69801 8.45154 8.72357 8.34619H8.72404Z" fill="url(#paint1_linear_8787_31056)"/>
<path fill-rule="evenodd" clip-rule="evenodd" d="M5.0148 8.33032L4.16309 10.7584L4.86715 12.5903L5.64668 10.3788L5.02699 8.65048C4.99676 8.55762 4.99031 8.45866 5.00824 8.36267L5.01434 8.33032H5.0148Z" fill="url(#paint2_linear_8787_31056)"/>
<path fill-rule="evenodd" clip-rule="evenodd" d="M9.39363 10.4773L9.37207 10.4304L9.39363 10.4773Z" fill="url(#paint3_linear_8787_31056)"/>
<g filter="url(#filter0_d_8787_31056)">
<path d="M17.5534 13.6322C17.401 13.8953 17.3249 14.0267 17.3304 14.1346C17.3377 14.2525 17.3986 14.3612 17.498 14.4257C17.5883 14.4846 17.7431 14.4846 18.0508 14.4846H20.1364C20.4441 14.4846 20.5989 14.4846 20.6911 14.4239C20.7905 14.3594 20.8532 14.2506 20.8588 14.1328C20.864 14.0276 20.7901 13.9001 20.6453 13.6502C20.6403 13.6417 20.6353 13.633 20.6303 13.6242L19.5855 11.837L19.5737 11.8168C19.4269 11.5686 19.3528 11.4432 19.2576 11.3948C19.1526 11.3414 19.0291 11.3414 18.9241 11.3948C18.8284 11.4445 18.751 11.5754 18.5981 11.8388L17.5571 13.626L17.5535 13.6322H17.5534Z" fill="white"/>
<path d="M12.3701 14.4257C12.4622 14.4846 12.6133 14.4846 12.9192 14.4846H14.3747C14.7175 14.4846 14.8887 14.4846 15.0417 14.4423C15.2094 14.3924 15.3623 14.3041 15.4894 14.1824C15.6062 14.0712 15.6905 13.9237 15.8568 13.6328L15.8616 13.6242L17.7494 10.2871C17.9171 9.9942 18 9.8468 18.0368 9.69201C18.0774 9.52433 18.0774 9.34747 18.0368 9.17979C18.0003 9.02619 17.9165 8.87989 17.7513 8.59127L17.7475 8.58468L17.0087 7.295C16.8558 7.02596 16.7784 6.89154 16.6808 6.84171C16.5757 6.78828 16.4505 6.78828 16.3454 6.84171C16.2477 6.89144 16.1703 7.02596 16.0174 7.295L12.4235 13.6298C12.2724 13.8951 12.1969 14.0277 12.2024 14.1364C12.2098 14.2543 12.2706 14.3612 12.3701 14.4257V14.4257Z" fill="white"/>
<path d="M16.5 4C12.3578 4 9 7.35782 9 11.5C9 15.6422 12.3578 19 16.5 19C20.6422 19 24 15.6422 24 11.5C24 7.35782 20.6422 4 16.5 4ZM12.4235 13.6298L16.0174 7.29501C16.1703 7.02597 16.2477 6.89154 16.3454 6.84171C16.4505 6.78828 16.5757 6.78828 16.6808 6.84171C16.7784 6.89144 16.8558 7.02597 17.0087 7.29501L17.7475 8.58469L17.7513 8.59128C17.9165 8.87989 18.0003 9.0262 18.0369 9.17979C18.0774 9.34747 18.0774 9.52433 18.0369 9.69201C18 9.8468 17.9171 9.99421 17.7494 10.2871L15.8617 13.6242L15.8568 13.6328C15.6905 13.9238 15.6063 14.0712 15.4894 14.1824C15.3623 14.3041 15.2094 14.3924 15.0417 14.4423C14.8888 14.4846 14.7175 14.4846 14.3747 14.4846H12.9192C12.6133 14.4846 12.4623 14.4846 12.3701 14.4257C12.2706 14.3612 12.2098 14.2543 12.2024 14.1364C12.1969 14.0277 12.2724 13.895 12.4235 13.6298V13.6298ZM20.8584 14.1329C20.8528 14.2507 20.7902 14.3595 20.6907 14.424C20.5985 14.4847 20.4437 14.4847 20.1361 14.4847H18.0504C17.7427 14.4847 17.5879 14.4847 17.4977 14.4258C17.3982 14.3613 17.3374 14.2526 17.33 14.1347C17.3245 14.0268 17.4007 13.8954 17.553 13.6324L17.5566 13.6262L18.5976 11.8389C18.7505 11.5755 18.8279 11.4447 18.9237 11.3949C19.0286 11.3415 19.1522 11.3415 19.2571 11.3949C19.3523 11.4434 19.4264 11.5688 19.5732 11.817L19.5851 11.8372L20.6298 13.6244C20.6349 13.6332 20.6399 13.6418 20.6449 13.6503C20.7897 13.9002 20.8636 14.0277 20.8583 14.1329H20.8584Z" fill="#E84142"/>
</g>
<defs>
<filter id="filter0_d_8787_31056" x="7" y="2" width="19" height="19" filterUnits="userSpaceOnUse" color-interpolation-filters="sRGB">
<feFlood flood-opacity="0" result="BackgroundImageFix"/>
<feColorMatrix in="SourceAlpha" type="matrix" values="0 0 0 0 0 0 0 0 0 0 0 0 0 0 0 0 0 0 127 0" result="hardAlpha"/>
<feOffset/>
<feGaussianBlur stdDeviation="1"/>
<feComposite in2="hardAlpha" operator="out"/>
<feColorMatrix type="matrix" values="0 0 0 0 0 0 0 0 0 0 0 0 0 0 0 0 0 0 0.4 0"/>
<feBlend mode="normal" in2="BackgroundImageFix" result="effect1_dropShadow_8787_31056"/>
<feBlend mode="normal" in="SourceGraphic" in2="effect1_dropShadow_8787_31056" result="shape"/>
</filter>
<linearGradient id="paint0_linear_8787_31056" x1="0.803571" y1="14.9821" x2="7.76786" y2="11.7679" gradientUnits="userSpaceOnUse">
<stop stop-color="#CE1C50"/>
<stop offset="1" stop-color="#E11C47"/>
</linearGradient>
<linearGradient id="paint1_linear_8787_31056" x1="8.52495" y1="10.7544" x2="8.89117" y2="10.6169" gradientUnits="userSpaceOnUse">
<stop stop-color="#E51B44" stop-opacity="0"/>
<stop offset="0.046" stop-color="#E51B44" stop-opacity="0.049"/>
<stop offset="0.234375" stop-color="#E51B44" stop-opacity="0.178"/>
<stop offset="0.447917" stop-color="#E51B44" stop-opacity="0.33"/>
<stop offset="0.776042" stop-color="#E51B44"/>
</linearGradient>
<linearGradient id="paint2_linear_8787_31056" x1="4.81573" y1="10.7499" x2="5.18646" y2="10.6107" gradientUnits="userSpaceOnUse">
<stop stop-color="#E51B44" stop-opacity="0"/>
<stop offset="0.046" stop-color="#E51B44" stop-opacity="0.049"/>
<stop offset="0.127" stop-color="#E51B44" stop-opacity="0.178"/>
<stop offset="0.206" stop-color="#E51B44" stop-opacity="0.33"/>
<stop offset="0.526" stop-color="#E51B44"/>
</linearGradient>
<linearGradient id="paint3_linear_8787_31056" x1="9.37481" y1="10.44" x2="9.39635" y2="10.4479" gradientUnits="userSpaceOnUse">
<stop stop-color="#D33651" stop-opacity="0"/>
<stop offset="0.29" stop-color="#D43650" stop-opacity="0.326"/>
<stop offset="0.654" stop-color="#D6364F"/>
</linearGradient>
</defs>
</svg>
