<svg width="26" height="24" viewBox="0 0 26 24" fill="none" xmlns="http://www.w3.org/2000/svg">
<circle cx="7.5" cy="11.5" r="7.5" fill="url(#paint0_linear_8787_31065)"/>
<path fill-rule="evenodd" clip-rule="evenodd" d="M10.8738 10.8714L9.95977 8.27779C9.9134 8.15517 9.8308 8.04957 9.72295 7.97504C9.6151 7.90052 9.48711 7.8606 9.35602 7.8606H9.3532C9.07945 7.8606 8.83805 8.02466 8.74898 8.27498L7.49695 11.8614L6.24398 8.27498C6.15023 8.02373 5.90883 7.85779 5.64023 7.86013H5.63695C5.50553 7.85896 5.37695 7.89847 5.26886 7.97325C5.16077 8.04802 5.07846 8.15439 5.0332 8.27779L4.12336 10.8723H3.2468C2.89336 10.8723 2.60742 11.147 2.60742 11.4854C2.60742 11.8239 2.89336 12.0981 3.24633 12.0981H3.69398L3.18023 13.5569C3.06914 13.877 3.2468 14.2244 3.58055 14.334C3.64617 14.3556 3.71508 14.3669 3.78398 14.3678C4.05117 14.3678 4.29914 14.2061 4.3882 13.9501L5.6468 10.3792L6.89273 13.9558C6.98648 14.207 7.22789 14.3729 7.49648 14.3701C7.76977 14.3701 8.01117 14.2056 8.10023 13.9553L9.34617 10.3787L10.6048 13.9529C10.7163 14.2731 11.0782 14.447 11.4157 14.3373C11.749 14.2304 11.9304 13.8826 11.816 13.5597L11.3051 12.1H11.7532C12.1062 12.1 12.3921 11.8258 12.3921 11.4873C12.3921 11.1489 12.1062 10.8742 11.7532 10.8742L10.8734 10.8714H10.8738Z" fill="white"/>
<path fill-rule="evenodd" clip-rule="evenodd" d="M8.72404 8.34619L7.87842 10.7659L8.57639 12.5879L9.34561 10.3792L8.73623 8.66494C8.70239 8.56195 8.69801 8.45154 8.72357 8.34619H8.72404Z" fill="url(#paint1_linear_8787_31065)"/>
<path fill-rule="evenodd" clip-rule="evenodd" d="M5.0148 8.33032L4.16309 10.7584L4.86715 12.5903L5.64668 10.3788L5.02699 8.65048C4.99676 8.55762 4.99031 8.45866 5.00824 8.36267L5.01434 8.33032H5.0148Z" fill="url(#paint2_linear_8787_31065)"/>
<path fill-rule="evenodd" clip-rule="evenodd" d="M9.39363 10.4773L9.37207 10.4304L9.39363 10.4773Z" fill="url(#paint3_linear_8787_31065)"/>
<g filter="url(#filter0_d_8787_31065)">
<path d="M23.7756 13.3143C22.7738 17.3322 18.7039 19.7774 14.685 18.7755C10.6679 17.7738 8.22241 13.704 9.22464 9.68648C10.226 5.66814 14.2959 3.22275 18.3135 4.22443C22.332 5.2261 24.7774 9.29628 23.7755 13.3144L23.7756 13.3143H23.7756Z" fill="#F7931A"/>
<path d="M19.8077 10.4315C19.957 9.43337 19.197 8.89686 18.1579 8.53896L18.495 7.18696L17.6719 6.98189L17.3437 8.29829C17.1273 8.24433 16.9051 8.19348 16.6842 8.14308L17.0148 6.81799L16.1922 6.61292L15.8549 7.96447C15.6758 7.92371 15.5 7.88342 15.3293 7.84097L15.3303 7.83671L14.1952 7.5533L13.9763 8.43232C13.9763 8.43232 14.5869 8.57228 14.5741 8.5809C14.9074 8.66408 14.9677 8.88469 14.9576 9.05956L14.5736 10.5998C14.5966 10.6056 14.6264 10.6141 14.6592 10.6273C14.6317 10.6204 14.6025 10.613 14.5722 10.6057L14.0339 12.7634C13.9932 12.8646 13.8898 13.0166 13.6568 12.9589C13.665 12.9709 13.0586 12.8096 13.0586 12.8096L12.6499 13.7517L13.721 14.0187C13.9203 14.0687 14.1156 14.1209 14.3079 14.1701L13.9673 15.5376L14.7894 15.7427L15.1267 14.3897C15.3513 14.4506 15.5693 14.5069 15.7826 14.5599L15.4465 15.9065L16.2696 16.1116L16.6102 14.7466C18.0137 15.0122 19.0691 14.9051 19.5133 13.6358C19.8712 12.6138 19.4955 12.0243 18.7571 11.6399C19.2949 11.5159 19.7 11.1622 19.808 10.4316L19.8077 10.4314L19.8077 10.4315ZM17.9271 13.0682C17.6728 14.0902 15.9518 13.5377 15.3939 13.3992L15.8459 11.5875C16.4038 11.7268 18.193 12.0024 17.9272 13.0682H17.9271ZM18.1817 10.4166C17.9496 11.3463 16.5173 10.874 16.0527 10.7582L16.4625 9.11506C16.9271 9.23087 18.4234 9.44701 18.1818 10.4166H18.1817Z" fill="white"/>
</g>
<defs>
<filter id="filter0_d_8787_31065" x="7" y="2" width="19" height="19" filterUnits="userSpaceOnUse" color-interpolation-filters="sRGB">
<feFlood flood-opacity="0" result="BackgroundImageFix"/>
<feColorMatrix in="SourceAlpha" type="matrix" values="0 0 0 0 0 0 0 0 0 0 0 0 0 0 0 0 0 0 127 0" result="hardAlpha"/>
<feOffset/>
<feGaussianBlur stdDeviation="1"/>
<feComposite in2="hardAlpha" operator="out"/>
<feColorMatrix type="matrix" values="0 0 0 0 0 0 0 0 0 0 0 0 0 0 0 0 0 0 0.4 0"/>
<feBlend mode="normal" in2="BackgroundImageFix" result="effect1_dropShadow_8787_31065"/>
<feBlend mode="normal" in="SourceGraphic" in2="effect1_dropShadow_8787_31065" result="shape"/>
</filter>
<linearGradient id="paint0_linear_8787_31065" x1="0.803571" y1="14.9821" x2="7.76786" y2="11.7679" gradientUnits="userSpaceOnUse">
<stop stop-color="#CE1C50"/>
<stop offset="1" stop-color="#E11C47"/>
</linearGradient>
<linearGradient id="paint1_linear_8787_31065" x1="8.52495" y1="10.7544" x2="8.89117" y2="10.6169" gradientUnits="userSpaceOnUse">
<stop stop-color="#E51B44" stop-opacity="0"/>
<stop offset="0.046" stop-color="#E51B44" stop-opacity="0.049"/>
<stop offset="0.234375" stop-color="#E51B44" stop-opacity="0.178"/>
<stop offset="0.447917" stop-color="#E51B44" stop-opacity="0.33"/>
<stop offset="0.776042" stop-color="#E51B44"/>
</linearGradient>
<linearGradient id="paint2_linear_8787_31065" x1="4.81573" y1="10.7499" x2="5.18646" y2="10.6107" gradientUnits="userSpaceOnUse">
<stop stop-color="#E51B44" stop-opacity="0"/>
<stop offset="0.046" stop-color="#E51B44" stop-opacity="0.049"/>
<stop offset="0.127" stop-color="#E51B44" stop-opacity="0.178"/>
<stop offset="0.206" stop-color="#E51B44" stop-opacity="0.33"/>
<stop offset="0.526" stop-color="#E51B44"/>
</linearGradient>
<linearGradient id="paint3_linear_8787_31065" x1="9.37481" y1="10.44" x2="9.39635" y2="10.4479" gradientUnits="userSpaceOnUse">
<stop stop-color="#D33651" stop-opacity="0"/>
<stop offset="0.29" stop-color="#D43650" stop-opacity="0.326"/>
<stop offset="0.654" stop-color="#D6364F"/>
</linearGradient>
</defs>
</svg>
