<svg width="26" height="24" viewBox="0 0 26 24" fill="none" xmlns="http://www.w3.org/2000/svg">
<circle cx="7.5" cy="11.5" r="7.5" fill="url(#paint0_linear_8787_31075)"/>
<path fill-rule="evenodd" clip-rule="evenodd" d="M10.8738 10.8714L9.95977 8.27785C9.9134 8.15523 9.8308 8.04963 9.72295 7.97511C9.6151 7.90058 9.48711 7.86066 9.35602 7.86066H9.3532C9.07945 7.86066 8.83805 8.02473 8.74898 8.27504L7.49695 11.8614L6.24398 8.27504C6.15023 8.02379 5.90883 7.85785 5.64023 7.86019H5.63695C5.50553 7.85902 5.37695 7.89853 5.26886 7.97331C5.16077 8.04808 5.07846 8.15446 5.0332 8.27785L4.12336 10.8724H3.2468C2.89336 10.8724 2.60742 11.1471 2.60742 11.4855C2.60742 11.8239 2.89336 12.0982 3.24633 12.0982H3.69398L3.18023 13.5569C3.06914 13.8771 3.2468 14.2244 3.58055 14.3341C3.64617 14.3557 3.71508 14.3669 3.78398 14.3679C4.05117 14.3679 4.29914 14.2061 4.3882 13.9502L5.6468 10.3793L6.89273 13.9558C6.98648 14.2071 7.22789 14.373 7.49648 14.3702C7.76977 14.3702 8.01117 14.2057 8.10023 13.9554L9.34617 10.3788L10.6048 13.953C10.7163 14.2732 11.0782 14.4471 11.4157 14.3374C11.749 14.2305 11.9304 13.8827 11.816 13.5597L11.3051 12.1H11.7532C12.1062 12.1 12.3921 11.8258 12.3921 11.4874C12.3921 11.1489 12.1062 10.8743 11.7532 10.8743L10.8734 10.8714H10.8738Z" fill="white"/>
<path fill-rule="evenodd" clip-rule="evenodd" d="M8.72404 8.34625L7.87842 10.7659L8.57639 12.588L9.34561 10.3792L8.73623 8.665C8.70239 8.56201 8.69801 8.45161 8.72357 8.34625H8.72404Z" fill="url(#paint1_linear_8787_31075)"/>
<path fill-rule="evenodd" clip-rule="evenodd" d="M5.0148 8.33032L4.16309 10.7584L4.86715 12.5903L5.64668 10.3788L5.02699 8.65048C4.99676 8.55762 4.99031 8.45866 5.00824 8.36267L5.01434 8.33032H5.0148Z" fill="url(#paint2_linear_8787_31075)"/>
<path fill-rule="evenodd" clip-rule="evenodd" d="M9.39363 10.4772L9.37207 10.4304L9.39363 10.4772Z" fill="url(#paint3_linear_8787_31075)"/>
<g filter="url(#filter0_d_8787_31075)">
<path d="M16.5 19C20.6563 19 24 15.6563 24 11.5C24 7.34373 20.6563 4 16.5 4C12.3437 4 9 7.34373 9 11.5C9 15.6563 12.3437 19 16.5 19Z" fill="#2775CA"/>
<path d="M18.5625 12.6874C18.5625 11.5937 17.9062 11.2187 16.5937 11.0624C15.6562 10.9374 15.4687 10.6874 15.4687 10.2499C15.4687 9.81233 15.7813 9.53115 16.4062 9.53115C16.9687 9.53115 17.2813 9.71865 17.4375 10.1874C17.4688 10.2812 17.5625 10.3436 17.6563 10.3436H18.1562C18.2812 10.3436 18.375 10.2499 18.375 10.1249V10.0937C18.25 9.40613 17.6875 8.8749 16.9687 8.81243V8.06243C16.9687 7.9374 16.875 7.84365 16.7188 7.81238H16.25C16.125 7.81238 16.0312 7.90613 16 8.06243V8.78115C15.0625 8.90618 14.4688 9.53115 14.4688 10.3124C14.4688 11.3437 15.0937 11.7499 16.4062 11.9062C17.2813 12.0624 17.5625 12.2499 17.5625 12.7499C17.5625 13.25 17.125 13.5937 16.5313 13.5937C15.7187 13.5937 15.4375 13.2499 15.3437 12.7811C15.3125 12.6562 15.2188 12.5936 15.125 12.5936H14.5937C14.4688 12.5936 14.375 12.6874 14.375 12.8124V12.8437C14.5 13.6249 15 14.1874 16.0312 14.3437V15.0937C16.0312 15.2186 16.125 15.3124 16.2812 15.3437H16.7499C16.875 15.3437 16.9687 15.2499 17 15.0937V14.3437C17.9375 14.1874 18.5625 13.5311 18.5625 12.6874V12.6874Z" fill="white"/>
<path d="M14.9064 15.9687C12.4689 15.0937 11.2188 12.375 12.1251 9.9687C12.5939 8.6562 13.6251 7.65622 14.9064 7.18747C15.0314 7.125 15.0939 7.03125 15.0939 6.87495V6.43747C15.0939 6.31245 15.0314 6.2187 14.9064 6.1875C14.8751 6.1875 14.8126 6.1875 14.7813 6.2187C11.8126 7.1562 10.1876 10.3125 11.1251 13.2812C11.6876 15.0312 13.0314 16.375 14.7813 16.9375C14.9064 16.9999 15.0314 16.9375 15.0626 16.8124C15.0939 16.7812 15.0939 16.75 15.0939 16.6875V16.2499C15.0939 16.1562 15.0001 16.0312 14.9064 15.9687ZM18.2189 6.2187C18.0939 6.15622 17.9688 6.2187 17.9376 6.34372C17.9064 6.375 17.9064 6.4062 17.9064 6.46875V6.90622C17.9064 7.03125 18.0001 7.1562 18.0939 7.21875C20.5314 8.0937 21.7814 10.8124 20.8751 13.2187C20.4063 14.5312 19.3751 15.5312 18.0939 16C17.9688 16.0624 17.9064 16.1562 17.9064 16.3125V16.75C17.9064 16.875 17.9688 16.9687 18.0939 16.9999C18.1251 16.9999 18.1876 16.9999 18.2189 16.9687C21.1876 16.0312 22.8126 12.8749 21.8751 9.90622C21.3126 8.12497 19.9376 6.7812 18.2189 6.2187V6.2187Z" fill="white"/>
</g>
<defs>
<filter id="filter0_d_8787_31075" x="7" y="2" width="19" height="19" filterUnits="userSpaceOnUse" color-interpolation-filters="sRGB">
<feFlood flood-opacity="0" result="BackgroundImageFix"/>
<feColorMatrix in="SourceAlpha" type="matrix" values="0 0 0 0 0 0 0 0 0 0 0 0 0 0 0 0 0 0 127 0" result="hardAlpha"/>
<feOffset/>
<feGaussianBlur stdDeviation="1"/>
<feComposite in2="hardAlpha" operator="out"/>
<feColorMatrix type="matrix" values="0 0 0 0 0 0 0 0 0 0 0 0 0 0 0 0 0 0 0.4 0"/>
<feBlend mode="normal" in2="BackgroundImageFix" result="effect1_dropShadow_8787_31075"/>
<feBlend mode="normal" in="SourceGraphic" in2="effect1_dropShadow_8787_31075" result="shape"/>
</filter>
<linearGradient id="paint0_linear_8787_31075" x1="0.803571" y1="14.9821" x2="7.76786" y2="11.7679" gradientUnits="userSpaceOnUse">
<stop stop-color="#CE1C50"/>
<stop offset="1" stop-color="#E11C47"/>
</linearGradient>
<linearGradient id="paint1_linear_8787_31075" x1="8.52495" y1="10.7544" x2="8.89117" y2="10.6169" gradientUnits="userSpaceOnUse">
<stop stop-color="#E51B44" stop-opacity="0"/>
<stop offset="0.046" stop-color="#E51B44" stop-opacity="0.049"/>
<stop offset="0.234375" stop-color="#E51B44" stop-opacity="0.178"/>
<stop offset="0.447917" stop-color="#E51B44" stop-opacity="0.33"/>
<stop offset="0.776042" stop-color="#E51B44"/>
</linearGradient>
<linearGradient id="paint2_linear_8787_31075" x1="4.81573" y1="10.7499" x2="5.18646" y2="10.6107" gradientUnits="userSpaceOnUse">
<stop stop-color="#E51B44" stop-opacity="0"/>
<stop offset="0.046" stop-color="#E51B44" stop-opacity="0.049"/>
<stop offset="0.127" stop-color="#E51B44" stop-opacity="0.178"/>
<stop offset="0.206" stop-color="#E51B44" stop-opacity="0.33"/>
<stop offset="0.526" stop-color="#E51B44"/>
</linearGradient>
<linearGradient id="paint3_linear_8787_31075" x1="9.37481" y1="10.44" x2="9.39635" y2="10.4478" gradientUnits="userSpaceOnUse">
<stop stop-color="#D33651" stop-opacity="0"/>
<stop offset="0.29" stop-color="#D43650" stop-opacity="0.326"/>
<stop offset="0.654" stop-color="#D6364F"/>
</linearGradient>
</defs>
</svg>
