<svg width="26" height="24" viewBox="0 0 26 24" fill="none" xmlns="http://www.w3.org/2000/svg">
<circle cx="7.5" cy="11.5" r="7.5" fill="url(#paint0_linear_8787_31074)"/>
<path fill-rule="evenodd" clip-rule="evenodd" d="M10.8738 10.8714L9.95977 8.27785C9.9134 8.15523 9.8308 8.04963 9.72295 7.97511C9.6151 7.90058 9.48711 7.86066 9.35602 7.86066H9.3532C9.07945 7.86066 8.83805 8.02473 8.74898 8.27504L7.49695 11.8614L6.24398 8.27504C6.15023 8.02379 5.90883 7.85785 5.64023 7.86019H5.63695C5.50553 7.85902 5.37695 7.89853 5.26886 7.97331C5.16077 8.04808 5.07846 8.15446 5.0332 8.27785L4.12336 10.8724H3.2468C2.89336 10.8724 2.60742 11.1471 2.60742 11.4855C2.60742 11.8239 2.89336 12.0982 3.24633 12.0982H3.69398L3.18023 13.5569C3.06914 13.8771 3.2468 14.2244 3.58055 14.3341C3.64617 14.3557 3.71508 14.3669 3.78398 14.3679C4.05117 14.3679 4.29914 14.2061 4.3882 13.9502L5.6468 10.3793L6.89273 13.9558C6.98648 14.2071 7.22789 14.373 7.49648 14.3702C7.76977 14.3702 8.01117 14.2057 8.10023 13.9554L9.34617 10.3788L10.6048 13.953C10.7163 14.2732 11.0782 14.4471 11.4157 14.3374C11.749 14.2305 11.9304 13.8827 11.816 13.5597L11.3051 12.1H11.7532C12.1062 12.1 12.3921 11.8258 12.3921 11.4874C12.3921 11.1489 12.1062 10.8743 11.7532 10.8743L10.8734 10.8714H10.8738Z" fill="white"/>
<path fill-rule="evenodd" clip-rule="evenodd" d="M8.72404 8.34625L7.87842 10.7659L8.57639 12.588L9.34561 10.3792L8.73623 8.665C8.70239 8.56201 8.69801 8.45161 8.72357 8.34625H8.72404Z" fill="url(#paint1_linear_8787_31074)"/>
<path fill-rule="evenodd" clip-rule="evenodd" d="M5.0148 8.33032L4.16309 10.7584L4.86715 12.5903L5.64668 10.3788L5.02699 8.65048C4.99676 8.55762 4.99031 8.45866 5.00824 8.36267L5.01434 8.33032H5.0148Z" fill="url(#paint2_linear_8787_31074)"/>
<path fill-rule="evenodd" clip-rule="evenodd" d="M9.39363 10.4772L9.37207 10.4304L9.39363 10.4772Z" fill="url(#paint3_linear_8787_31074)"/>
<g filter="url(#filter0_d_8787_31074)">
<path d="M16.4998 18.9996C20.6418 18.9996 23.9996 15.6418 23.9996 11.4998C23.9996 7.35776 20.6418 4 16.4998 4C12.3578 4 9 7.35776 9 11.4998C9 15.6418 12.3578 18.9996 16.4998 18.9996Z" fill="#0033AD"/>
<path d="M14.5634 11.4688C14.5453 11.8125 14.7896 12.1068 15.1073 12.1269H15.1415C15.4615 12.1269 15.7196 11.8476 15.7177 11.5013C15.7177 11.155 15.4596 10.8756 15.1396 10.8777C14.8334 10.8777 14.5796 11.1374 14.5634 11.4688V11.4688Z" fill="white"/>
<path d="M12.4107 11.308C12.3079 11.3008 12.2188 11.3873 12.2141 11.4987C12.2093 11.61 12.2874 11.7063 12.3903 11.7115C12.4931 11.7187 12.5798 11.6321 12.5869 11.5208C12.5936 11.4095 12.5136 11.3157 12.4107 11.308Z" fill="white"/>
<path d="M14.527 7.84274C14.6184 7.79327 14.655 7.66958 14.6093 7.57064C14.5636 7.47169 14.4493 7.43201 14.3579 7.48148C14.2665 7.53096 14.2298 7.65206 14.2755 7.75101C14.3212 7.85253 14.4331 7.89428 14.527 7.84274C14.527 7.84274 14.5246 7.84274 14.527 7.84274Z" fill="white"/>
<path d="M15.1119 8.94822C15.2538 8.87143 15.3109 8.68333 15.24 8.53027C15.169 8.37722 14.9952 8.31486 14.8538 8.39164C14.7124 8.46843 14.6547 8.65653 14.7257 8.80959C14.7966 8.96316 14.9705 9.02501 15.1119 8.94822Z" fill="white"/>
<path d="M13.1422 9.70788C13.2517 9.78467 13.3984 9.7522 13.4712 9.63367C13.5422 9.51514 13.5122 9.35641 13.4027 9.27757C13.2931 9.20078 13.1465 9.23325 13.0736 9.35178C13.0003 9.47031 13.0327 9.63109 13.1422 9.70788Z" fill="white"/>
<path d="M13.4918 11.1967C13.3318 11.1869 13.197 11.3178 13.188 11.4909C13.1789 11.6641 13.2999 11.8099 13.4599 11.8197C13.6199 11.8295 13.7546 11.6986 13.7637 11.5255C13.7727 11.3549 13.6518 11.2065 13.4918 11.1967Z" fill="white"/>
<path d="M13.1743 13.292C13.0576 13.3565 13.0095 13.5095 13.069 13.6383C13.1286 13.7646 13.27 13.8167 13.389 13.7522C13.5057 13.6878 13.5538 13.5348 13.4943 13.4059C13.4348 13.2797 13.291 13.2276 13.1743 13.292Z" fill="white"/>
<path d="M14.294 10.5515C14.4516 10.6628 14.6621 10.6159 14.7626 10.4453C14.8654 10.2747 14.8221 10.0469 14.6645 9.93821C14.5068 9.82689 14.2964 9.87379 14.1959 10.0444C14.093 10.2124 14.1364 10.4402 14.294 10.5515Z" fill="white"/>
<path d="M17.8478 8.92345C17.9802 9.01725 18.1611 8.97808 18.2478 8.8343C18.3345 8.69052 18.2983 8.4952 18.1654 8.40141C18.033 8.30761 17.8521 8.34678 17.7654 8.49056C17.6764 8.6364 17.713 8.82966 17.8478 8.92345Z" fill="white"/>
<path d="M18.4378 7.82319C18.5245 7.88503 18.6387 7.85772 18.6959 7.76392C18.753 7.67013 18.7278 7.54645 18.6411 7.48461C18.5545 7.42276 18.4402 7.45008 18.383 7.54129C18.3283 7.63509 18.3535 7.76135 18.4378 7.82319V7.82319Z" fill="white"/>
<path d="M17.8913 10.873C17.5736 10.8534 17.2994 11.1178 17.2832 11.4616C17.2651 11.8053 17.5094 12.1021 17.827 12.1197H17.8589C18.1765 12.1197 18.4351 11.8403 18.4351 11.494C18.4375 11.1652 18.1975 10.8906 17.8913 10.873V10.873Z" fill="white"/>
<path d="M15.3014 10.5067C15.3995 10.7169 15.5985 10.8504 15.818 10.8504C16.1357 10.8504 16.3942 10.5711 16.3942 10.2248C16.3942 10.1284 16.3738 10.032 16.3323 9.94287C16.1885 9.63366 15.8409 9.50998 15.5576 9.66561C15.2719 9.82382 15.1576 10.2 15.3014 10.5067V10.5067Z" fill="white"/>
<path d="M19.8254 9.70784C19.9421 9.64342 19.9878 9.48779 19.9283 9.36153C19.8688 9.23527 19.725 9.1858 19.6083 9.25021C19.4916 9.31463 19.4459 9.46769 19.5031 9.59395C19.565 9.72021 19.7064 9.77226 19.8254 9.70784Z" fill="white"/>
<path d="M18.3623 9.90572C18.1957 9.99745 18.1271 10.2175 18.2114 10.3979C18.2962 10.5782 18.4995 10.6525 18.6662 10.5612C18.8328 10.47 18.9014 10.2495 18.8171 10.0691C18.7328 9.88871 18.529 9.81656 18.3623 9.90572Z" fill="white"/>
<path d="M16.4766 7.7289C16.607 7.73611 16.7189 7.62737 16.728 7.48668C16.737 7.34599 16.6342 7.22437 16.5042 7.21458C16.3737 7.20737 16.2618 7.31353 16.2528 7.45473C16.2461 7.598 16.3466 7.71962 16.4766 7.72941V7.7289Z" fill="white"/>
<path d="M16.4747 9.34396C16.6623 9.35633 16.8223 9.20069 16.8314 8.99765C16.8428 8.7946 16.699 8.62144 16.5114 8.61165C16.3238 8.59928 16.1638 8.75492 16.1547 8.95796C16.1457 9.16101 16.2871 9.33417 16.4747 9.34396Z" fill="white"/>
<path d="M14.6373 13.0942C14.804 13.0025 14.8726 12.7825 14.7883 12.6021C14.7035 12.4217 14.5002 12.3475 14.3335 12.4387C14.1669 12.5299 14.0983 12.7505 14.1826 12.9309C14.2673 13.1113 14.4707 13.1855 14.6373 13.0942Z" fill="white"/>
<path d="M16.6933 9.88089C16.5194 10.1705 16.5928 10.556 16.8599 10.7441C17.1271 10.9322 17.4837 10.8528 17.6576 10.5637C17.8314 10.2741 17.758 9.88862 17.4909 9.70052C17.3971 9.63353 17.2876 9.599 17.1756 9.599C16.9814 9.599 16.8009 9.70516 16.6933 9.88089Z" fill="white"/>
<path d="M17.6971 12.4933C17.5533 12.1841 17.2056 12.0604 16.9223 12.216C16.6366 12.3717 16.5223 12.7479 16.6661 13.0545C16.8099 13.3637 17.1576 13.4874 17.4409 13.3318C17.7242 13.1782 17.8409 12.8071 17.699 12.4979C17.699 12.4979 17.6982 12.4962 17.6966 12.4928L17.6971 12.4933Z" fill="white"/>
<path d="M18.705 12.4485C18.5474 12.3371 18.3369 12.384 18.2364 12.5546C18.1336 12.7252 18.1769 12.953 18.3345 13.0617C18.4921 13.173 18.7026 13.1261 18.8031 12.9556C18.9059 12.7876 18.8626 12.5598 18.705 12.4485Z" fill="white"/>
<path d="M19.8115 11.5109C19.8206 11.3378 19.6996 11.1919 19.5396 11.1822C19.3796 11.1724 19.2449 11.3033 19.2358 11.4764C19.2268 11.6496 19.3477 11.7954 19.5077 11.8052C19.6654 11.815 19.8025 11.6815 19.8115 11.5109Z" fill="white"/>
<path d="M20.609 11.2884C20.5061 11.2812 20.4171 11.3678 20.4123 11.4791C20.4076 11.5904 20.4856 11.6868 20.5885 11.692C20.6914 11.6992 20.778 11.6126 20.7852 11.5013C20.7899 11.39 20.7118 11.2962 20.609 11.2884Z" fill="white"/>
<path d="M19.8567 13.292C19.7472 13.2152 19.6005 13.2477 19.5276 13.3662C19.4567 13.4848 19.4867 13.6435 19.5962 13.7223C19.7057 13.7991 19.8524 13.7667 19.9253 13.6481C19.9986 13.5296 19.9662 13.3688 19.8567 13.292Z" fill="white"/>
<path d="M14.5589 15.1767C14.4722 15.1149 14.3579 15.1422 14.3008 15.2334C14.2437 15.3272 14.2689 15.4509 14.3532 15.5128C14.4398 15.5746 14.5541 15.5473 14.6113 15.4561C14.6708 15.3643 14.6456 15.2386 14.5589 15.1767Z" fill="white"/>
<path d="M18.4726 15.1572C18.3812 15.2067 18.3446 15.3303 18.3903 15.4293C18.436 15.5282 18.5503 15.5679 18.6417 15.5184C18.7331 15.469 18.7698 15.3479 18.7241 15.2489C18.6784 15.1474 18.5665 15.1057 18.4726 15.1572C18.4726 15.1572 18.475 15.1572 18.4726 15.1572Z" fill="white"/>
<path d="M16.305 13.1189C16.4788 12.8293 16.4055 12.4438 16.1384 12.2531C15.8707 12.065 15.5145 12.1444 15.3384 12.4335C15.1622 12.7226 15.2379 13.1086 15.505 13.2993C15.5988 13.3663 15.7084 13.4008 15.8203 13.4008C16.0169 13.4034 16.1974 13.2967 16.305 13.1189Z" fill="white"/>
<path d="M15.1512 14.0759C15.0188 13.9821 14.8378 14.0213 14.7512 14.1651C14.6645 14.3083 14.7007 14.5042 14.8336 14.598C14.9664 14.6917 15.1469 14.6526 15.2336 14.5088C15.3226 14.3655 15.2859 14.1697 15.1512 14.0759Z" fill="white"/>
<path d="M16.4971 15.2709C16.3666 15.2637 16.2547 15.3724 16.2457 15.5131C16.2366 15.6538 16.3395 15.7754 16.4695 15.7852C16.6 15.7924 16.7119 15.6863 16.7209 15.5451C16.7276 15.4018 16.6271 15.2802 16.4971 15.2704V15.2709Z" fill="white"/>
<path d="M16.4994 13.6554C16.3118 13.643 16.1518 13.7986 16.1427 14.0017C16.1313 14.2047 16.2751 14.3779 16.4627 14.3877C16.6503 14.3975 16.8104 14.2444 16.8194 14.0413C16.8308 13.8409 16.687 13.6651 16.4994 13.6554Z" fill="white"/>
<path d="M17.8867 14.0512C17.7448 14.1306 17.6877 14.3182 17.761 14.4717C17.8343 14.6253 18.0077 14.6872 18.1496 14.6078C18.2915 14.531 18.3486 14.3429 18.2777 14.1898C18.2044 14.0363 18.031 13.9724 17.8867 14.0512Z" fill="white"/>
</g>
<defs>
<filter id="filter0_d_8787_31074" x="7" y="2" width="19" height="19" filterUnits="userSpaceOnUse" color-interpolation-filters="sRGB">
<feFlood flood-opacity="0" result="BackgroundImageFix"/>
<feColorMatrix in="SourceAlpha" type="matrix" values="0 0 0 0 0 0 0 0 0 0 0 0 0 0 0 0 0 0 127 0" result="hardAlpha"/>
<feOffset/>
<feGaussianBlur stdDeviation="1"/>
<feComposite in2="hardAlpha" operator="out"/>
<feColorMatrix type="matrix" values="0 0 0 0 0 0 0 0 0 0 0 0 0 0 0 0 0 0 0.4 0"/>
<feBlend mode="normal" in2="BackgroundImageFix" result="effect1_dropShadow_8787_31074"/>
<feBlend mode="normal" in="SourceGraphic" in2="effect1_dropShadow_8787_31074" result="shape"/>
</filter>
<linearGradient id="paint0_linear_8787_31074" x1="0.803571" y1="14.9821" x2="7.76786" y2="11.7679" gradientUnits="userSpaceOnUse">
<stop stop-color="#CE1C50"/>
<stop offset="1" stop-color="#E11C47"/>
</linearGradient>
<linearGradient id="paint1_linear_8787_31074" x1="8.52495" y1="10.7544" x2="8.89117" y2="10.6169" gradientUnits="userSpaceOnUse">
<stop stop-color="#E51B44" stop-opacity="0"/>
<stop offset="0.046" stop-color="#E51B44" stop-opacity="0.049"/>
<stop offset="0.234375" stop-color="#E51B44" stop-opacity="0.178"/>
<stop offset="0.447917" stop-color="#E51B44" stop-opacity="0.33"/>
<stop offset="0.776042" stop-color="#E51B44"/>
</linearGradient>
<linearGradient id="paint2_linear_8787_31074" x1="4.81573" y1="10.7499" x2="5.18646" y2="10.6107" gradientUnits="userSpaceOnUse">
<stop stop-color="#E51B44" stop-opacity="0"/>
<stop offset="0.046" stop-color="#E51B44" stop-opacity="0.049"/>
<stop offset="0.127" stop-color="#E51B44" stop-opacity="0.178"/>
<stop offset="0.206" stop-color="#E51B44" stop-opacity="0.33"/>
<stop offset="0.526" stop-color="#E51B44"/>
</linearGradient>
<linearGradient id="paint3_linear_8787_31074" x1="9.37481" y1="10.44" x2="9.39635" y2="10.4478" gradientUnits="userSpaceOnUse">
<stop stop-color="#D33651" stop-opacity="0"/>
<stop offset="0.29" stop-color="#D43650" stop-opacity="0.326"/>
<stop offset="0.654" stop-color="#D6364F"/>
</linearGradient>
</defs>
</svg>
