<svg width="24" height="24" viewBox="0 0 24 24" fill="none" xmlns="http://www.w3.org/2000/svg">
<g clip-path="url(#clip0_28_1234)">
<path d="M12 24C18.6274 24 24 18.6274 24 12C24 5.37258 18.6274 0 12 0C5.37258 0 0 5.37258 0 12C0 18.6274 5.37258 24 12 24Z" fill="#2F45C5"/>
<path fill-rule="evenodd" clip-rule="evenodd" d="M18.8228 12.3086C18.0085 9.72857 15.7543 7.96285 13.1571 7.61999C15.6514 7.05428 16.5085 7.97142 16.5085 7.97142C17.0828 5.46857 15.0943 4.42285 15.0943 4.42285C13.8857 5.17714 12.7371 6.80571 12.24 7.55999C9.33426 7.55999 7.32854 9.49714 7.32854 9.49714C7.92854 7.70571 10.5857 7.01142 10.5857 7.01142C10.4228 4.20857 8.16854 4.61999 8.16854 4.61999C8.16854 4.61999 2.35712 12.72 6.22283 17.1C9.27426 20.5543 14.28 19.9543 16.6114 18.4629C18.2828 17.3914 19.7314 15.1629 18.8314 12.3086H18.8228Z" fill="#FEFEFE"/>
<path opacity="0.1" fill-rule="evenodd" clip-rule="evenodd" d="M13.1915 8.60563C13.0715 8.54563 13.14 8.35705 13.2772 8.39134C15.1029 8.88848 18.8915 10.5171 17.8286 15.2571C17.4772 16.8171 16.0972 18.1628 14.3315 18.3856C12.1886 18.6599 10.6286 17.7942 10.7057 16.6028C10.9115 13.4056 16.5515 17.0828 16.1143 12.4028C15.9429 10.5771 15.2829 9.6942 13.1829 8.60563H13.1915Z" fill="#231F20"/>
<path fill-rule="evenodd" clip-rule="evenodd" d="M9.37718 12.6258C9.37718 12.6258 9.37718 12.6258 9.38575 12.6344L9.40289 12.6515C9.40289 12.6515 9.42004 12.6687 9.43718 12.6773C9.45432 12.6944 9.48004 12.7201 9.50575 12.7373C9.53146 12.7544 9.54861 12.7715 9.57432 12.7973L9.64289 12.8487C9.73718 12.9173 9.84861 12.9773 9.95146 13.0201C10.1658 13.1144 10.3886 13.1573 10.62 13.1487C10.6458 13.1487 10.68 13.1487 10.7058 13.1487H10.8C10.86 13.1315 10.92 13.1315 10.98 13.1144C11.1 13.0973 11.22 13.063 11.34 13.0287C11.46 12.9944 11.5715 12.9515 11.6829 12.9001C11.7429 12.8744 11.7943 12.8487 11.8458 12.8144C11.8715 12.7973 11.8972 12.7887 11.9229 12.7715C11.9315 12.7715 11.9486 12.7544 11.9572 12.7458H11.9743L11.9829 12.7287C12.0858 12.6344 12.2486 12.643 12.3429 12.7458C12.4372 12.8487 12.4286 13.0115 12.3258 13.1058L12.3 13.1315L12.2743 13.1487C12.2743 13.1487 12.24 13.1744 12.2315 13.1915C12.1972 13.2173 12.1715 13.243 12.1372 13.2601C12.0772 13.303 12.0086 13.3458 11.94 13.3887C11.8115 13.4658 11.6658 13.5344 11.5286 13.5858C11.2372 13.6887 10.9372 13.7487 10.6286 13.7487C10.3115 13.7487 9.98575 13.6801 9.70289 13.5258C9.56575 13.4487 9.42861 13.363 9.31718 13.2601C9.25718 13.2087 9.20575 13.1573 9.15432 13.0973C9.12861 13.0715 9.10289 13.0373 9.07718 13.003C9.06861 12.9858 9.05146 12.9687 9.04289 12.9515L9.02575 12.9258L9.00861 12.8915C8.94004 12.7887 8.96575 12.6515 9.06861 12.583C9.13718 12.5401 9.21432 12.5315 9.28289 12.5658L9.39432 12.6173L9.37718 12.6258Z" fill="#010202"/>
<path fill-rule="evenodd" clip-rule="evenodd" d="M15.5401 12.54L15.6001 12.5743C15.6001 12.5743 15.6429 12.6 15.6686 12.6086C15.7115 12.6343 15.7629 12.6515 15.8058 12.6686C15.9001 12.7115 15.9943 12.7457 16.0886 12.7715C16.1829 12.7972 16.2772 12.8143 16.3715 12.8229C16.4658 12.8315 16.5515 12.8229 16.6458 12.8057C16.7315 12.7886 16.8172 12.7629 16.9115 12.72C16.9972 12.6772 17.0829 12.6343 17.1686 12.5743C17.2543 12.5143 17.3315 12.4543 17.4172 12.3857C17.4601 12.3515 17.4943 12.3172 17.5372 12.2743C17.5543 12.2572 17.5715 12.24 17.5886 12.2143L17.6401 12.1629L17.6572 12.1457C17.7515 12.0429 17.9143 12.0429 18.0172 12.1457C18.1029 12.2315 18.1201 12.3686 18.0515 12.4715C18.0258 12.5057 18.0086 12.5315 17.9915 12.5572C17.9743 12.5829 17.9486 12.6086 17.9315 12.6343C17.8886 12.6857 17.8458 12.7372 17.8029 12.78C17.7172 12.8743 17.6143 12.9686 17.5115 13.0457C17.4086 13.1315 17.2886 13.2 17.1686 13.2686C17.1086 13.2943 17.0401 13.3286 16.9715 13.3543C16.9372 13.3629 16.9029 13.38 16.8686 13.3886L16.7658 13.4143C16.4829 13.4743 16.1915 13.44 15.9343 13.3629C15.8058 13.3286 15.6772 13.2772 15.5658 13.2172C15.5058 13.1829 15.4458 13.1572 15.3943 13.1229C15.3686 13.1057 15.3343 13.0886 15.3086 13.0715C15.2829 13.0543 15.2572 13.0372 15.2229 13.0029C15.1029 12.9086 15.0772 12.7372 15.1715 12.6086C15.2572 12.4972 15.4029 12.4629 15.5229 12.5315L15.5486 12.5486L15.5401 12.54Z" fill="#010202"/>
<path fill-rule="evenodd" clip-rule="evenodd" d="M14.7086 13.5857H13.6714C13.4743 13.5857 13.3114 13.7571 13.3114 13.9714C13.3114 14.0828 13.3543 14.1857 13.4228 14.2543L13.7143 14.4943C13.92 14.6571 13.9371 14.7943 13.9457 14.94L13.9628 15.6257C13.9628 15.6257 13.9114 15.6428 13.8857 15.6514C13.8686 15.6514 13.8428 15.66 13.8257 15.6686C13.8171 15.6686 13.8 15.6686 13.7914 15.6771C13.7743 15.6771 13.7486 15.6771 13.7314 15.6857C13.7143 15.6857 13.7057 15.6857 13.6886 15.6857C13.5514 15.7028 13.4143 15.7028 13.2943 15.6857C13.1657 15.66 13.0457 15.6171 12.9428 15.54C12.9 15.5143 12.8657 15.4886 12.8314 15.4543C12.8143 15.4371 12.8057 15.4286 12.7886 15.42L12.7714 15.4028L12.7543 15.3857L12.72 15.3514L12.6514 15.2743L12.6257 15.2486C12.5143 15.1286 12.3257 15.12 12.2057 15.2228C12.06 15.3514 12.0686 15.5657 12.2057 15.6857L12.3086 15.78L12.36 15.8314L12.3857 15.8571L12.4114 15.8743C12.4114 15.8743 12.4457 15.9 12.4628 15.9085C12.5228 15.9514 12.5828 15.9943 12.66 16.0286C12.8314 16.1228 13.0286 16.1828 13.2171 16.2C13.4143 16.2171 13.6028 16.2 13.7828 16.1571C13.8 16.1571 13.8086 16.1571 13.8257 16.1486C13.86 16.14 13.8857 16.1314 13.92 16.1228C13.9371 16.1228 13.9457 16.1143 13.9628 16.1057C13.9886 16.0971 14.0228 16.0886 14.0486 16.0714C14.1086 16.0457 14.1857 16.0457 14.2457 16.0714C14.2628 16.08 14.28 16.0886 14.2971 16.0971C14.4 16.14 14.5028 16.1657 14.6057 16.1743C14.7086 16.1828 14.8028 16.1743 14.8971 16.1743C14.94 16.1743 14.9914 16.1657 15.0343 16.1571C15.0771 16.1571 15.1286 16.14 15.1714 16.1228C15.36 16.0714 15.5486 15.9857 15.7028 15.8314C15.78 15.7543 15.8486 15.6686 15.9 15.5657C15.9257 15.5143 15.9514 15.4628 15.9686 15.4114C15.9686 15.4114 15.9857 15.36 15.9943 15.3257C15.9943 15.3085 15.9943 15.3 16.0028 15.2828C16.0028 15.2828 16.0028 15.2657 16.0028 15.2571C16.0028 15.2571 16.0028 15.24 16.0028 15.2228C16.0114 15.06 15.8914 14.9228 15.7286 14.9143C15.5657 14.9057 15.4286 15.0257 15.42 15.1885C15.42 15.1885 15.42 15.1885 15.42 15.1971C15.42 15.1971 15.42 15.2143 15.42 15.2228C15.42 15.2228 15.42 15.2228 15.42 15.2314C15.42 15.2571 15.4028 15.2828 15.3943 15.3C15.3771 15.3428 15.3514 15.3943 15.3086 15.4286C15.24 15.5143 15.1371 15.5743 15.0171 15.6171C14.8886 15.66 14.7514 15.6943 14.6314 15.6943C14.5714 15.6943 14.5114 15.6857 14.4686 15.6686H14.4514C14.4514 15.6686 14.4428 15.6686 14.4343 15.6686C14.4343 15.6686 14.4257 15.6686 14.4171 15.6686C14.4171 15.6686 14.4086 15.6686 14.4 15.6686L14.4171 14.9743C14.4171 14.8285 14.4857 14.6228 14.6743 14.4771L14.9314 14.2886C15.0086 14.2114 15.0514 14.1086 15.0514 13.9971V13.9714C15.0514 13.7571 14.8886 13.5857 14.6914 13.5857H14.7086Z" fill="#010202"/>
</g>
<defs>
<clipPath id="clip0_28_1234">
<rect width="24" height="24" fill="white"/>
</clipPath>
</defs>
</svg>
