<svg width="24" height="24" viewBox="0 0 24 24" fill="none" xmlns="http://www.w3.org/2000/svg">
<g clip-path="url(#clip0_5357_40288)">
<circle cx="12" cy="12" r="12" fill="#F2A52B"/>
<circle cx="12" cy="12" r="12" fill="url(#paint0_linear_5357_40288)"/>
<path d="M15.4556 8.47693C15.734 8.47693 15.9836 8.58253 16.1756 8.78413L17.27 9.87853C17.4236 10.0321 17.6156 10.1089 17.8268 10.1089C18.0092 10.1089 18.182 10.0513 18.3164 9.92653C18.4893 9.78253 18.5757 9.57133 18.5757 9.35053C18.5757 9.14893 18.4989 8.95693 18.3548 8.80333L17.2796 7.72813C16.79 7.23853 16.1372 6.96973 15.4556 6.96973C14.7644 6.96973 14.1116 7.23853 13.6316 7.72813L6.35485 15.0049C6.02845 15.3313 5.59645 15.5137 5.13565 15.5137C4.71325 15.5137 4.30045 15.3505 3.99325 15.0625C3.65725 14.7457 3.47485 14.3137 3.47485 13.8529C3.47485 13.4113 3.65725 12.9889 3.96445 12.6721L4.29085 12.3457L4.91485 12.9697V10.5985H2.53405L3.20605 11.2705L2.90845 11.5681C1.65085 12.8257 1.63165 14.8609 2.87005 16.1089C3.47485 16.7137 4.27165 17.0497 5.13565 17.0497C5.99005 17.0497 6.78685 16.7233 7.39165 16.1185L14.726 8.78413C14.9084 8.59213 15.158 8.48653 15.4364 8.48653L15.4556 8.47693Z" fill="white"/>
<path d="M21.0719 11.5586L20.5247 11.0114L21.1967 10.3394H18.8255V12.7106L19.4495 12.0866L20.0255 12.6626C20.3327 12.9698 20.5151 13.4018 20.5151 13.8434C20.5151 14.3042 20.3327 14.7362 19.9967 15.053C19.6895 15.3506 19.2863 15.5042 18.8543 15.5042C18.3935 15.5042 17.9615 15.3218 17.6351 14.9954L13.7471 11.1074L12.6719 12.1826L16.5887 16.0994C17.1935 16.7042 17.9903 17.0306 18.8447 17.0306C19.6991 17.0306 20.5055 16.6946 21.1103 16.0898C22.3199 14.8514 22.3007 12.8162 21.0527 11.549L21.0719 11.5586Z" fill="white"/>
<path d="M5.4436 10.1472C5.578 10.2624 5.7508 10.3296 5.9332 10.3296C6.1348 10.3296 6.346 10.2432 6.49 10.0992L7.8148 8.77436C8.0068 8.58236 8.2564 8.46716 8.5348 8.46716C8.8132 8.46716 9.0628 8.57276 9.2548 8.77436L10.234 9.75356L11.3092 8.66876L10.3588 7.71836C9.8692 7.22876 9.2164 6.95996 8.5348 6.95996C7.8436 6.95996 7.1908 7.22876 6.7108 7.71836L5.3956 9.02396C5.2516 9.16796 5.1748 9.35996 5.1748 9.57116C5.1748 9.79196 5.2708 9.99356 5.4436 10.1472Z" fill="white"/>
</g>
<defs>
<linearGradient id="paint0_linear_5357_40288" x1="0.336" y1="12" x2="23.9232" y2="12" gradientUnits="userSpaceOnUse">
<stop stop-color="#734CE2"/>
<stop offset="0.6196" stop-color="#604DF1"/>
<stop offset="1" stop-color="#524DFB"/>
</linearGradient>
<clipPath id="clip0_5357_40288">
<rect width="24" height="24" fill="white"/>
</clipPath>
</defs>
</svg>
