<svg width="24" height="24" viewBox="0 0 24 24" fill="none" xmlns="http://www.w3.org/2000/svg">
<g clip-path="url(#clip0_5357_49722)">
<path d="M12 0C5.37275 0 0 5.37275 0 12C0 18.6273 5.37275 24 12 24C18.6273 24 24 18.6273 24 12C24 5.37275 18.6273 0 12 0ZM22.5706 13.3993C22.5657 13.4205 22.5616 13.4424 22.5673 13.4644C22.5511 13.501 22.5673 13.5417 22.5543 13.5783C22.547 13.606 22.5445 13.6336 22.5486 13.6621C22.5364 13.6865 22.5462 13.715 22.5372 13.7402C22.5291 13.7679 22.5275 13.7963 22.5299 13.8248C22.5209 13.8435 22.525 13.8647 22.5193 13.8842C22.4778 14.1868 22.4241 14.487 22.3713 14.7873C22.3672 14.7921 22.3664 14.797 22.3688 14.8027C22.3542 14.819 22.3647 14.8409 22.355 14.858C22.294 15.098 22.2411 15.3405 22.1703 15.578C22.1215 15.7407 22.0727 15.9035 22.0239 16.0662C21.9669 16.2167 21.9108 16.368 21.853 16.5185C21.7513 16.7837 21.6374 17.0441 21.5138 17.3003C21.5032 17.3215 21.4967 17.3443 21.4877 17.3662C21.4365 17.4639 21.386 17.5615 21.334 17.6591C21.2201 17.8731 21.1005 18.0846 20.9744 18.2913C20.9573 18.3189 20.9426 18.3482 20.9272 18.3775C20.7921 18.5752 20.6571 18.7729 20.5228 18.9714C20.483 19.0308 20.4301 19.0804 20.4 19.1463C20.2682 19.309 20.1388 19.4734 20.0054 19.6336C19.8932 19.7695 19.776 19.9013 19.6605 20.0347C19.5995 20.0957 19.5384 20.1576 19.4782 20.2186C19.2993 20.3992 19.1195 20.579 18.9291 20.7474C18.9136 20.7612 18.9006 20.7775 18.8868 20.7929C18.8249 20.8442 18.7631 20.8955 18.7021 20.9475C18.4857 21.1314 18.2628 21.3071 18.0334 21.4739C18.0171 21.4861 18.0016 21.5007 17.9862 21.5138C17.917 21.5601 17.8471 21.6065 17.7787 21.6537C17.4329 21.8896 17.075 22.1068 16.7048 22.3021C16.6812 22.3143 16.6593 22.3298 16.6365 22.3436C16.5128 22.403 16.3892 22.464 16.2655 22.5226C15.9026 22.6942 15.5325 22.8456 15.1525 22.9765C15.1273 22.9855 15.0997 22.9879 15.0793 23.0083C14.9068 23.0595 14.7352 23.1124 14.5619 23.162C14.0502 23.3077 13.5303 23.4151 13.0031 23.4842C12.8843 23.4997 12.7639 23.5037 12.6476 23.5322C12.5101 23.5403 12.3718 23.5485 12.2343 23.5574C11.7755 23.5875 11.3158 23.5867 10.8569 23.5574C10.7162 23.5485 10.5755 23.5395 10.4347 23.5314C10.3159 23.5151 10.1972 23.4988 10.0792 23.4834C9.42834 23.3996 8.79214 23.254 8.16651 23.0555C7.95173 22.9871 7.74264 22.9049 7.52949 22.8342C7.36434 22.7634 7.19756 22.695 7.03322 22.621C5.73234 22.0385 4.58685 21.2347 3.59512 20.2113C2.63186 19.2171 1.88176 18.0805 1.34156 16.8057C1.33098 16.7813 1.32692 16.7536 1.30658 16.7333C1.25532 16.5958 1.20325 16.4591 1.15281 16.3208C0.920136 15.6862 0.746034 15.0354 0.63539 14.3683C0.631322 14.3447 0.624 14.3219 0.618305 14.2983C0.604475 14.2747 0.618305 14.2454 0.604475 14.221C0.602847 14.2047 0.60122 14.1885 0.599593 14.1722C0.586576 14.1486 0.600407 14.1201 0.586576 14.0965C0.584949 14.0795 0.583322 14.0632 0.581695 14.0461C0.569492 14.0217 0.581695 13.9932 0.568678 13.9688C0.567051 13.9525 0.565424 13.9363 0.56461 13.92C0.549153 13.8891 0.566237 13.8541 0.55078 13.824C0.549153 13.8085 0.548339 13.7923 0.546712 13.7768C0.532881 13.6011 0.518237 13.4254 0.506034 13.2488C0.484068 12.9201 0.473491 12.5915 0.484068 12.2612C0.493017 11.9797 0.517424 11.6998 0.532881 11.4191C0.547525 11.389 0.532068 11.3557 0.545085 11.3247C0.546712 11.302 0.549153 11.2784 0.55078 11.2556C0.566237 11.2263 0.549153 11.1921 0.563797 11.162C0.565424 11.1449 0.567051 11.1279 0.568678 11.1108C0.584949 11.0815 0.566237 11.0465 0.582508 11.0172C0.583322 11.005 0.584949 10.9936 0.585763 10.9814C0.619932 10.8602 0.630508 10.7341 0.651661 10.6104C0.729763 10.1638 0.83878 9.72447 0.968949 9.29085C0.974644 9.27132 0.978712 9.25017 0.98278 9.22983C0.994983 9.18834 0.999864 9.14522 1.01858 9.10617V9.10454C1.03241 9.0899 1.01695 9.06468 1.03647 9.05247V9.05085C1.05031 9.0362 1.03403 9.01098 1.05437 8.99878L1.05763 8.99797C1.10725 8.86698 1.15607 8.73519 1.20569 8.6042C1.33831 8.25356 1.49125 7.91186 1.65803 7.57586C1.66861 7.55471 1.68488 7.536 1.68407 7.50997C1.73614 7.41722 1.76705 7.31227 1.83702 7.22929C1.95417 7.02834 2.07132 6.82739 2.18847 6.62644C2.28773 6.45803 2.38942 6.29125 2.51634 6.14156C2.6701 5.94061 2.82305 5.73966 2.97681 5.5379C3.00285 5.4663 3.06224 5.41912 3.10861 5.3638C3.2339 5.21573 3.35837 5.06685 3.49912 4.93342C3.50807 4.92529 3.51295 4.9139 3.51702 4.90251C3.65451 4.75932 3.79444 4.6202 3.93681 4.4819C4.00271 4.4461 4.04339 4.38264 4.09871 4.33546C4.12231 4.31512 4.13695 4.28176 4.17519 4.28258C4.36475 4.12312 4.5543 3.96447 4.74305 3.80502C4.85044 3.69844 4.97492 3.61383 5.10102 3.53247C5.14902 3.48122 5.22224 3.46495 5.27186 3.41532C5.37356 3.32502 5.48827 3.25505 5.60624 3.18997C5.68027 3.15742 5.74454 3.10698 5.81451 3.0663C5.98861 2.96624 6.1619 2.86536 6.336 2.76447C6.51091 2.65383 6.69803 2.56759 6.88759 2.48542C7.09342 2.39837 7.29844 2.30969 7.50508 2.2259C7.65071 2.16651 7.79878 2.11281 7.94603 2.05586C8.12908 1.99973 8.31214 1.94278 8.49519 1.88827C8.84908 1.78332 9.20705 1.69953 9.57071 1.63363C9.5821 1.63119 9.59268 1.62468 9.60407 1.62061C9.61546 1.61898 9.62603 1.61817 9.63742 1.61654C9.65695 1.60597 9.68054 1.61247 9.70007 1.6019C9.80258 1.60353 9.90102 1.57668 10.0011 1.56122C10.2761 1.52054 10.5527 1.49695 10.8285 1.47092C10.9334 1.46603 11.0384 1.46034 11.1425 1.45627C11.4663 1.44488 11.7901 1.44732 12.1147 1.45953C12.1294 1.45953 12.1448 1.4579 12.1595 1.4579C12.2075 1.47661 12.2587 1.45546 12.3067 1.47092C12.3474 1.47254 12.3889 1.47417 12.4296 1.4758C12.4654 1.49288 12.5052 1.47417 12.541 1.48881C12.5703 1.49044 12.5996 1.49207 12.6281 1.49369C12.6574 1.51078 12.6915 1.49369 12.7208 1.50671H12.7395C12.9177 1.53275 13.0959 1.55878 13.274 1.58237C13.3595 1.59376 13.4424 1.62305 13.5303 1.6198C13.5474 1.63281 13.5694 1.62305 13.5864 1.63281C13.7793 1.67593 13.9721 1.71824 14.1649 1.76298C14.2739 1.7882 14.3813 1.81912 14.4895 1.84678C14.5066 1.85085 14.5245 1.85085 14.5424 1.85329C14.662 1.9021 14.7873 1.92976 14.9093 1.96881C15.8815 2.28203 16.7951 2.71566 17.6445 3.28515C17.6542 3.29166 17.6656 3.2941 17.677 3.29817C17.7429 3.34536 17.808 3.39254 17.8739 3.43892C18.9982 4.22888 19.9468 5.19214 20.7165 6.3303C20.736 6.35959 20.7515 6.39376 20.7807 6.41654C20.8133 6.50034 20.871 6.5703 20.9182 6.64515C21.3925 7.39525 21.766 8.19173 22.0442 9.03376C22.2443 9.63824 22.3916 10.2557 22.4819 10.8862C22.4843 10.9009 22.4908 10.9139 22.4957 10.9285C22.4974 10.9456 22.499 10.9627 22.5006 10.979C22.5128 11.0034 22.5006 11.0319 22.5136 11.0563C22.5291 11.2198 22.5462 11.3833 22.56 11.5477C22.5958 11.9715 22.6137 12.3962 22.5974 12.8217C22.5901 13.0129 22.5803 13.2041 22.5714 13.3953L22.5706 13.3993Z" fill="url(#paint0_linear_5357_49722)"/>
<path d="M10.4333 23.5312C10.3145 23.5149 10.1957 23.4987 10.0778 23.4832C9.42692 23.3994 8.79072 23.2538 8.16509 23.0553C7.95031 22.9869 7.74123 22.9048 7.52807 22.834C7.36292 22.7632 7.19614 22.6949 7.0318 22.6208C5.73092 22.0383 4.58543 21.2345 3.5937 20.2111C2.63045 19.2169 1.88034 18.0803 1.34014 16.8055C1.32956 16.7811 1.3255 16.7534 1.30516 16.7331C1.2539 16.5956 1.20184 16.4589 1.1514 16.3206C0.918717 15.686 0.744615 15.0352 0.633971 14.3681C0.629903 14.3445 0.622581 14.3217 0.616887 14.2981C0.603056 14.2745 0.616887 14.2452 0.603056 14.2208C0.601429 14.2046 0.599802 14.1883 0.598175 14.172C0.585158 14.1484 0.598988 14.1199 0.585158 14.0963C0.583531 14.0793 0.581903 14.063 0.580276 14.0459C0.568073 14.0215 0.580276 13.993 0.567259 13.9686C0.565632 13.9523 0.564005 13.9361 0.563192 13.9198C0.547734 13.8889 0.564819 13.8539 0.549361 13.8238C0.547734 13.8083 0.54692 13.7921 0.545293 13.7766C0.531463 13.6009 0.516819 13.4252 0.504615 13.2486C0.482649 12.9199 0.472073 12.5913 0.482649 12.261C0.491598 11.9795 0.516005 11.6996 0.531463 11.4189C0.546107 11.3888 0.530649 11.3555 0.543666 11.3246C0.545293 11.3018 0.547734 11.2782 0.549361 11.2554C0.564819 11.2261 0.547734 11.1919 0.562378 11.1618C0.564005 11.1448 0.565632 11.1277 0.567259 11.1106C0.583531 11.0813 0.564819 11.0471 0.58109 11.017C0.581903 11.0048 0.583531 10.9934 0.584344 10.9812C0.618514 10.86 0.62909 10.7339 0.650242 10.6102C0.728344 10.1636 0.837361 9.72428 0.967531 9.29065C0.973226 9.27113 0.977293 9.24998 0.981361 9.22964C0.993565 9.18815 0.998446 9.14503 1.01716 9.10598V9.10435C1.03099 9.08971 1.01553 9.06449 1.03506 9.05228V9.05065C1.04889 9.03601 1.03262 9.01079 1.05295 8.99859L1.05621 8.99777C1.10584 8.86679 1.15465 8.73499 1.20428 8.60401C1.33689 8.25337 1.48984 7.91167 1.65662 7.57567C1.66719 7.55452 1.68346 7.53581 1.68265 7.50977C1.73472 7.41703 1.76563 7.31208 1.8356 7.2291C1.95275 7.02815 2.0699 6.8272 2.18706 6.62625C2.28631 6.45784 2.38801 6.29106 2.51492 6.14137C2.66868 5.94042 2.82163 5.73947 2.9754 5.53771C3.00143 5.46611 3.06082 5.41893 3.10719 5.3636C3.23248 5.21554 3.35695 5.06665 3.4977 4.93323C3.50665 4.9251 3.51153 4.91371 3.5156 4.90232C3.65309 4.75913 3.79302 4.62001 3.9354 4.48171C4.00129 4.44591 4.04197 4.38245 4.09729 4.33527C4.12089 4.31493 4.13553 4.28157 4.17377 4.28238C4.36333 4.12293 4.55289 3.96428 4.74163 3.80482C4.84902 3.69825 4.9735 3.61364 5.0996 3.53228C5.1476 3.48103 5.22082 3.46476 5.27045 3.41513C5.37214 3.32482 5.48685 3.25486 5.60482 3.18977C5.67885 3.15723 5.74312 3.10679 5.81309 3.06611C5.98719 2.96604 6.16048 2.86516 6.33458 2.76428C6.5095 2.65364 6.69662 2.5674 6.88618 2.48523C7.09201 2.39818 7.29702 2.3095 7.50367 2.22571C7.64929 2.16632 7.79736 2.11262 7.94462 2.05567C8.12767 1.99954 8.31072 1.94259 8.49377 1.88808C8.84767 1.78313 9.20563 1.69933 9.56929 1.63343C9.58068 1.63099 9.59126 1.62449 9.60265 1.62042C9.61404 1.61879 9.62462 1.61798 9.63601 1.61635C9.65553 1.60577 9.67912 1.61228 9.69865 1.60171C9.80116 1.60333 9.8996 1.57649 9.99967 1.56103C10.2747 1.52035 10.5513 1.49676 10.8271 1.47072C10.932 1.46584 11.037 1.46015 11.1411 1.45608C11.4649 1.44469 11.7887 1.44713 12.1133 1.45933C12.1279 1.45933 12.1434 1.45771 12.158 1.45771C12.206 1.47642 12.2573 1.45527 12.3053 1.47072C12.346 1.47235 12.3875 1.47398 12.4281 1.4756C12.4639 1.49269 12.5038 1.47398 12.5396 1.48862C12.5689 1.49025 12.5982 1.49188 12.6266 1.4935C12.6559 1.51059 12.6901 1.4935 12.7194 1.50652C12.7259 1.50652 12.7316 1.50652 12.7381 1.50733C12.9163 1.53255 13.0944 1.55777 13.2726 1.58218C13.358 1.59357 13.441 1.62286 13.5289 1.6196C13.546 1.63262 13.5679 1.62286 13.585 1.63262C13.7778 1.67574 13.9706 1.71804 14.1635 1.76279C14.2725 1.78801 14.3799 1.81893 14.4881 1.84659C14.5052 1.85066 14.5231 1.85066 14.541 1.8531C14.6605 1.90191 14.7858 1.92957 14.9079 1.96862C15.8801 2.28184 16.7937 2.71547 17.6431 3.28496C17.6528 3.29147 17.6642 3.29391 17.6756 3.29798C17.7415 3.34516 17.8066 3.39235 17.8725 3.43872C18.9968 4.22869 19.9454 5.19194 20.7151 6.33011C20.7346 6.3594 20.75 6.39357 20.7793 6.41635C20.8119 6.50015 20.8696 6.57011 20.9168 6.64496C21.3911 7.39425 21.7645 8.19154 22.0428 9.03357C22.2429 9.63804 22.3902 10.2555 22.4805 10.886C22.4829 10.9007 22.4894 10.9137 22.4943 10.9283C22.4959 10.9454 22.4976 10.9625 22.4992 10.9788C22.5114 11.0032 22.4992 11.0317 22.5122 11.0561C22.5277 11.2196 22.5448 11.3831 22.5586 11.5475C22.5944 11.9713 22.6123 12.396 22.596 12.8215C22.5887 13.0127 22.5789 13.2039 22.57 13.3951C22.5651 13.4162 22.561 13.4382 22.5667 13.4601C22.5504 13.4968 22.5667 13.5374 22.5537 13.574C22.5464 13.6017 22.5439 13.6294 22.548 13.6578C22.5358 13.6822 22.5456 13.7107 22.5366 13.7359C22.5285 13.7636 22.5269 13.7921 22.5293 13.8206C22.5203 13.8393 22.5244 13.8604 22.5187 13.8799C22.4772 14.1826 22.4235 14.4828 22.3707 14.783C22.3666 14.7879 22.3658 14.7928 22.3682 14.7985C22.3536 14.8147 22.3641 14.8367 22.3544 14.8538C22.2934 15.0938 22.2405 15.3362 22.1697 15.5738C22.1209 15.7365 22.0721 15.8992 22.0233 16.0619C21.9663 16.2124 21.9102 16.3637 21.8524 16.5142C21.7507 16.7795 21.6368 17.0398 21.5132 17.2961C21.5026 17.3172 21.4961 17.34 21.4871 17.362C21.4359 17.4596 21.3854 17.5572 21.3334 17.6549C21.2195 17.8688 21.0999 18.0803 20.9738 18.287C20.9567 18.3147 20.942 18.3439 20.9266 18.3732C20.7915 18.5709 20.6565 18.7686 20.5222 18.9671C20.4824 19.0265 20.4295 19.0761 20.3994 19.142C20.2676 19.3048 20.1382 19.4691 20.0048 19.6294C19.8925 19.7652 19.7754 19.897 19.6599 20.0305C19.5989 20.0915 19.5378 20.1533 19.4776 20.2143C19.2987 20.3949 19.1189 20.5747 18.9285 20.7431C18.913 20.757 18.9 20.7732 18.8862 20.7887C18.8243 20.8399 18.7625 20.8912 18.7015 20.9433C18.4851 21.1271 18.2622 21.3029 18.0328 21.4696C18.0165 21.4818 18.001 21.4965 17.9856 21.5095C17.9164 21.5559 17.8464 21.6022 17.7781 21.6494C17.4323 21.8854 17.0744 22.1026 16.7042 22.2978C16.6806 22.31 16.6586 22.3255 16.6359 22.3393C16.5122 22.3987 16.3885 22.4597 16.2649 22.5183C15.902 22.69 15.5319 22.8421 15.1519 22.9723C15.1267 22.9812 15.0991 22.9837 15.0787 23.004C14.9062 23.0553 14.7346 23.1081 14.5613 23.1578C14.0496 23.3034 13.5297 23.4108 13.0025 23.4799C12.8837 23.4954 12.7633 23.4995 12.647 23.5279C12.5095 23.5361 12.3712 23.5442 12.2337 23.5532C11.7749 23.5833 11.3152 23.5825 10.8563 23.5532C10.7156 23.5442 10.5749 23.5353 10.4341 23.5271L10.4333 23.5312Z" fill="black"/>
<path d="M16.8574 10.5827C16.4953 11.2059 16.1325 11.8283 15.7705 12.4514C15.1269 13.5571 14.4834 14.6627 13.8423 15.7691C13.8098 15.8253 13.7764 15.8481 13.7097 15.8481C13.3103 15.8448 12.91 15.8448 12.5105 15.8481C12.452 15.8481 12.4202 15.8318 12.3901 15.7797C11.841 14.8311 11.2894 13.8841 10.737 12.938C10.7134 12.8981 10.7012 12.8582 10.7012 12.811C10.7012 11.5728 10.7012 10.3346 10.7012 9.09551C10.7012 9.07273 10.7012 9.05077 10.7012 9.02799C10.7069 9.02636 10.7126 9.02554 10.7183 9.02392C11.5139 10.3931 12.3088 11.7624 13.1052 13.1332C13.1386 13.1064 13.1516 13.0714 13.1695 13.0405C14.3313 11.0415 15.493 9.04263 16.6556 7.04453C16.7158 6.94121 16.6816 6.95748 16.8077 6.95748C17.4928 6.95748 18.1786 6.95748 18.8636 6.95748C18.98 6.95748 18.9629 6.94446 18.9629 7.05836C18.9629 10.6925 18.9629 14.3267 18.9629 17.9609C18.9629 18.0723 18.98 18.0601 18.8612 18.0601C18.2388 18.0601 17.6164 18.0601 16.9941 18.0601C16.8598 18.0601 16.8777 18.0756 16.8777 17.947C16.8777 15.5275 16.8777 13.108 16.8777 10.6876C16.8777 10.6527 16.8777 10.6185 16.8777 10.5835C16.8712 10.5835 16.8647 10.5835 16.8582 10.5827H16.8574Z" fill="white"/>
<path d="M10.6816 18.0281C9.31643 15.6826 7.95046 13.3379 6.58531 10.9924C6.55358 11.0022 6.5666 11.0274 6.5666 11.0445C6.5666 12.2559 6.5666 13.4665 6.5666 14.6779C6.5666 15.7811 6.5666 16.8834 6.5666 17.9866C6.5666 18.0582 6.56578 18.0598 6.49094 18.0598C5.84497 18.0598 5.19819 18.0598 4.55222 18.0598C4.47982 18.0598 4.47982 18.059 4.479 17.9858C4.479 17.9712 4.479 17.9557 4.479 17.9411C4.479 14.3199 4.479 10.6979 4.479 7.07679C4.479 6.99706 4.51833 6.95719 4.59697 6.95719C5.20144 6.95719 5.80511 6.95801 6.40958 6.95557C6.47466 6.95557 6.50965 6.97428 6.543 7.03123C7.9106 9.38241 9.28063 11.732 10.6515 14.0815C10.6865 14.1409 10.7019 14.1987 10.7011 14.2678C10.6995 15.4882 10.7003 16.7085 10.7003 17.928V18.024C10.6938 18.0257 10.6873 18.0273 10.6808 18.0289L10.6816 18.0281Z" fill="white"/>
</g>
<defs>
<linearGradient id="paint0_linear_5357_49722" x1="3.51458" y1="20.4854" x2="20.4854" y2="3.51458" gradientUnits="userSpaceOnUse">
<stop stop-color="#FFBE3B"/>
<stop offset="0.19" stop-color="#FE6839"/>
<stop offset="0.38" stop-color="#E73D8E"/>
<stop offset="0.57" stop-color="#8170ED"/>
<stop offset="0.78" stop-color="#5191EB"/>
<stop offset="0.95" stop-color="#42BA99"/>
</linearGradient>
<clipPath id="clip0_5357_49722">
<rect width="24" height="24" fill="white"/>
</clipPath>
</defs>
</svg>
