<svg width="24" height="24" viewBox="0 0 24 24" fill="none" xmlns="http://www.w3.org/2000/svg">
<g clip-path="url(#clip0_4787_61785)">
<path d="M12 24C18.6274 24 24 18.6274 24 12C24 5.37258 18.6274 0 12 0C5.37258 0 0 5.37258 0 12C0 18.6274 5.37258 24 12 24Z" fill="#F5F5F5"/>
<g clip-path="url(#clip1_4787_61785)">
<path d="M16.3883 13.1024C16.4319 13.1629 16.4227 13.2136 16.367 13.2643C16.2454 13.375 16.1266 13.4894 16.0068 13.6024C15.6968 13.415 15.4053 13.2001 15.1157 12.9833C15.1375 12.7717 15.3088 12.6907 15.4587 12.5917C15.7799 12.741 16.0876 12.9154 16.3883 13.1024Z" fill="#107DAC"/>
<path d="M14.6297 14.3569C14.445 14.5463 14.2612 14.736 14.0756 14.9244C14.0217 14.9788 13.9623 15.0281 13.9057 15.0798C13.7799 14.8905 13.6625 14.696 13.5669 14.4895C13.7122 14.3281 13.8542 14.1634 14.0004 14.003C14.0533 13.9448 14.1029 13.8606 14.2078 13.8923C14.3485 14.0472 14.4891 14.2021 14.6297 14.3569Z" fill="#2A94CC"/>
<path d="M9.62612 13.602C9.34951 13.5704 9.05851 13.6797 8.79443 13.5178C8.98194 13.2964 9.16712 13.0722 9.38061 12.8745C9.57229 12.9396 9.78764 12.854 9.97142 12.968C9.85632 13.1792 9.74122 13.3908 9.62612 13.602Z" fill="#0F5A97"/>
<path d="M15.4584 12.5917C15.3651 12.741 15.1989 12.8257 15.1154 12.9833C14.8225 12.781 14.5297 12.5787 14.2368 12.3759C14.3231 12.268 14.4276 12.1777 14.5306 12.0865C14.849 12.2382 15.1567 12.4089 15.4584 12.5912V12.5917Z" fill="#0D769E"/>
<path d="M8.41553 9.32829C8.5297 9.07572 8.64341 8.82268 8.75758 8.57011C8.78589 8.50731 8.80399 8.43754 8.87454 8.40405C9.02444 8.50871 9.15254 8.63523 9.26068 8.78268C9.14975 9.03665 9.04022 9.29154 8.92095 9.54179C8.74458 9.48969 8.57704 9.41667 8.41599 9.32782L8.41553 9.32829Z" fill="#009B95"/>
<path d="M15.3747 10.9475C15.3737 11.0652 15.3886 11.1805 15.4058 11.2973C15.4197 11.3884 15.487 11.5252 15.325 11.5773C15.0521 11.5294 14.7862 11.4554 14.5244 11.3656C14.6548 11.2 14.5235 11.0307 14.5323 10.8633C14.8131 10.8917 15.0939 10.92 15.3747 10.9479V10.9475Z" fill="#019793"/>
<path d="M7.91266 12.5964C7.84119 12.3545 7.76972 12.1126 7.69824 11.8708C7.90152 11.7787 8.11409 11.7149 8.33036 11.6628C8.42087 11.841 8.42783 12.0536 8.55778 12.2154C8.35496 12.3629 8.13451 12.4806 7.91313 12.5968L7.91266 12.5964Z" fill="#029B95"/>
<path d="M15.6184 9.24314C15.7195 9.44641 15.6541 9.66409 15.6713 9.87434C15.4323 9.91574 15.1932 9.9576 14.9542 9.999C14.9231 9.81154 14.9018 9.62456 14.9904 9.44455C15.1937 9.3585 15.4035 9.29245 15.6188 9.24268L15.6184 9.24314Z" fill="#2B95CD"/>
<path d="M14.2076 13.8922C14.0498 13.9871 13.9519 14.1387 13.834 14.2731C13.7598 14.3583 13.6967 14.4685 13.5667 14.4894C13.4841 14.3476 13.4019 14.2061 13.3193 14.0643C13.4716 13.8568 13.6266 13.6526 13.8554 13.521C14.0039 13.615 14.0972 13.7619 14.2076 13.8917V13.8922Z" fill="#268EC2"/>
<path d="M14.9907 9.44458C14.9824 9.62971 15.0339 9.81855 14.9545 9.99903C14.7011 10.0418 14.4477 10.0846 14.1943 10.1274C14.16 9.98833 14.1822 9.84739 14.1841 9.70738C14.4468 9.60133 14.716 9.51435 14.9903 9.44458H14.9907Z" fill="#248ABB"/>
<path d="M12.6057 8.44629C12.7769 8.52722 12.8234 8.71002 12.9236 8.84724C13.035 8.99888 13.1241 9.16726 13.2225 9.32866C13.1097 9.42495 12.9825 9.49472 12.8438 9.54495C12.725 9.29331 12.595 9.04911 12.3755 8.86724C12.4521 8.72677 12.5286 8.5863 12.6052 8.44629H12.6057Z" fill="#0E5A96"/>
<path d="M8.9209 9.54219C8.96592 9.25846 9.07498 9.00356 9.26063 8.78308C9.38037 8.88588 9.50707 8.98216 9.58597 9.12449C9.50475 9.3259 9.42585 9.5287 9.30101 9.70918C9.16688 9.67011 9.04064 9.61382 8.9209 9.54266V9.54219Z" fill="#018B8B"/>
<path d="M8.55701 12.2149C8.32681 12.0945 8.35512 11.8675 8.32959 11.6624C8.50688 11.587 8.68649 11.5177 8.87864 11.4907C8.97981 11.6154 9.00487 11.7721 9.05778 11.9168C8.90045 12.0321 8.73244 12.1298 8.55701 12.2145V12.2149Z" fill="#018C8C"/>
<path d="M13.8553 13.521C13.6822 13.708 13.523 13.908 13.3192 14.0643C13.2403 13.9266 13.1619 13.7889 13.083 13.6512C13.2097 13.461 13.3629 13.2977 13.5606 13.1801C13.6812 13.2745 13.7704 13.3963 13.8553 13.5215V13.521Z" fill="#2188B7"/>
<path d="M11.5857 6.79603C11.6312 6.67137 11.7032 6.66672 11.7983 6.74579C11.9106 6.83882 12.0192 6.93929 12.1705 6.9672C12.1348 7.18721 12.0833 7.40304 12.0062 7.61282C11.8637 7.49281 11.7333 7.3542 11.5444 7.30396C11.5584 7.13465 11.5723 6.96534 11.5862 6.7965L11.5857 6.79603Z" fill="#2992C9"/>
<path d="M14.5307 12.087C14.4783 12.2298 14.3822 12.3284 14.237 12.3763C13.9979 12.2428 13.7812 12.0763 13.5645 11.9103C13.5891 11.8051 13.6995 11.7558 13.7306 11.6549C14.0221 11.7531 14.2458 11.9768 14.5307 12.087Z" fill="#0A6D8C"/>
<path d="M13.7307 11.6545C13.7781 11.8066 13.637 11.8359 13.5646 11.9098C13.2685 11.7135 12.9719 11.5173 12.6758 11.321C12.6716 11.2377 12.693 11.1647 12.7579 11.1084C13.0824 11.2903 13.4063 11.4726 13.7307 11.6545Z" fill="#07657A"/>
<path d="M9.97119 12.968C9.83799 12.968 9.70479 12.9666 9.57159 12.9689C9.49037 12.9703 9.41611 12.9629 9.38037 12.8745C9.5015 12.6908 9.66302 12.5424 9.80782 12.3787C9.96005 12.4196 10.1192 12.3842 10.2724 12.4191C10.1907 12.6122 10.084 12.7917 9.97165 12.968H9.97119Z" fill="#0A5A87"/>
<path d="M13.5606 13.1796C13.4181 13.3536 13.2654 13.5178 13.083 13.6508C12.9884 13.5159 12.903 13.3759 12.8398 13.2224C12.9828 13.1005 13.0626 12.8977 13.2835 12.8763C13.3889 12.9652 13.4799 13.0675 13.5601 13.1791L13.5606 13.1796Z" fill="#1C80AA"/>
<path d="M14.1841 9.7074C14.2709 9.84554 14.2528 9.98602 14.1943 10.1274C13.9409 10.1702 13.688 10.2135 13.4346 10.2563C13.4462 10.1418 13.4504 10.026 13.5181 9.92601C13.7307 9.82508 13.9572 9.76647 14.1836 9.7074H14.1841Z" fill="#197BA0"/>
<path d="M14.5322 10.8623C14.677 10.9748 14.6027 11.1492 14.6482 11.2911C14.67 11.3595 14.5781 11.3576 14.5243 11.3651C14.3646 11.3479 14.2124 11.3032 14.0625 11.2483C13.9841 11.1046 13.9729 10.9613 14.0667 10.819C14.2249 10.8023 14.3772 10.845 14.5322 10.8627V10.8623Z" fill="#028A8A"/>
<path d="M13.2839 12.8768C13.1057 12.9526 13.0416 13.1764 12.8402 13.2229C12.7409 13.0912 12.6601 12.9494 12.5942 12.7987C12.6991 12.688 12.7896 12.5614 12.9326 12.4935C13.0681 12.6042 13.1809 12.7359 13.2839 12.8773V12.8768Z" fill="#15779A"/>
<path d="M12.7986 10.9339C12.7354 10.8484 12.8148 10.7656 12.8041 10.6809C13.0571 10.7042 13.3114 10.7149 13.5606 10.7693C13.6395 10.8837 13.6488 10.9981 13.5597 11.1121C13.3058 11.0526 13.0524 10.9935 12.7986 10.9339Z" fill="#036C74"/>
<path d="M11.5448 7.30353C11.7174 7.2719 11.9198 7.40726 12.0066 7.61238C11.9959 7.7403 11.9662 7.86356 11.9137 7.98078C11.7443 8.00403 11.658 7.82542 11.5044 7.811C11.5179 7.64169 11.5318 7.47284 11.5452 7.30353H11.5448Z" fill="#238ABA"/>
<path d="M10.355 8.48776C10.4399 8.31985 10.5856 8.41334 10.7012 8.41985C10.7833 8.4245 10.8608 8.45753 10.9379 8.40543C10.9606 8.5594 11.001 8.71103 10.988 8.86871C10.833 8.91755 10.678 8.84034 10.523 8.86965C10.4464 8.7515 10.393 8.62265 10.3545 8.48776H10.355Z" fill="#0E78A1"/>
<path d="M9.05854 11.9173C8.91235 11.8117 8.91652 11.6428 8.87939 11.4912C9.02513 11.4112 9.18339 11.3661 9.34397 11.3289C9.44004 11.4228 9.49295 11.5331 9.47532 11.6703C9.3449 11.767 9.20845 11.8531 9.05854 11.9173Z" fill="#02797E"/>
<path d="M12.3761 8.86731C12.3895 8.86266 12.4044 8.85196 12.4155 8.85522C12.5524 8.89104 12.8694 9.40269 12.8444 9.54503C12.7738 9.5841 12.7033 9.62317 12.6327 9.66224C12.4981 9.47386 12.3566 9.29059 12.2559 9.08035C12.2814 9.00081 12.3181 8.92778 12.3761 8.86685V8.86731Z" fill="#0A5A87"/>
<path d="M10.2722 12.4192C10.1125 12.4638 9.95103 12.5247 9.80762 12.3787C9.94824 12.2219 10.0889 12.0656 10.2295 11.9089C10.3441 11.9061 10.4193 11.9749 10.4894 12.0526C10.417 12.175 10.3441 12.2968 10.2717 12.4192H10.2722Z" fill="#065C74"/>
<path d="M9.30127 9.70871C9.35279 9.49242 9.43354 9.29101 9.58623 9.12402C9.67442 9.20496 9.78859 9.25984 9.83918 9.37846C9.80762 9.55707 9.74775 9.72034 9.59737 9.83569C9.49852 9.79336 9.40013 9.75103 9.30127 9.70871Z" fill="#02787D"/>
<path d="M9.10457 10.9047C8.99829 10.8898 9.00432 10.8098 9.00525 10.7326C9.00664 10.5739 9.00711 10.4153 9.00757 10.2567C9.1547 10.2646 9.29718 10.2944 9.43548 10.3437C9.38629 10.5153 9.38814 10.6865 9.43409 10.8581C9.3292 10.9084 9.21549 10.8963 9.10457 10.9047Z" fill="#0F5B96"/>
<path d="M13.5186 9.92639C13.5061 10.0404 13.5645 10.1725 13.435 10.2566C13.2188 10.2999 13.003 10.3432 12.7867 10.3864C12.7519 10.3166 12.7222 10.2455 12.7222 10.1655C12.9876 10.0859 13.2531 10.0059 13.5186 9.92639Z" fill="#0C687E"/>
<path d="M11.5037 7.81102C11.5932 7.74544 11.6573 7.80823 11.725 7.85428C11.7877 7.89661 11.8504 7.93847 11.913 7.9808C11.8921 8.14127 11.8545 8.29756 11.7933 8.4478C11.6452 8.50176 11.5775 8.34826 11.4614 8.31896C11.4753 8.14964 11.4897 7.98033 11.5037 7.81102Z" fill="#1B7FA7"/>
<path d="M12.9329 12.4935C12.8387 12.6163 12.7533 12.7484 12.5946 12.7986C12.5124 12.6577 12.4298 12.5163 12.3477 12.3753C12.4154 12.2795 12.5003 12.2009 12.5899 12.127C12.7357 12.2195 12.8322 12.3586 12.9329 12.4935Z" fill="#0D6C85"/>
<path d="M13.5596 11.1121C13.5596 10.9977 13.56 10.8837 13.5605 10.7693C13.6176 10.7725 13.6747 10.7763 13.7318 10.7795C13.8009 10.8107 13.8803 10.7711 13.9485 10.8098C13.9879 10.8125 14.0274 10.8158 14.0668 10.8186C14.0655 10.9619 14.0641 11.1047 14.0627 11.2479C13.8891 11.2247 13.7225 11.1763 13.5596 11.1116V11.1121Z" fill="#047D81"/>
<path d="M9.43448 10.8581C9.30174 10.7464 9.30267 10.4529 9.43587 10.3436C9.53009 10.3557 9.6243 10.3678 9.71852 10.3799C9.69206 10.5381 9.76493 10.7218 9.60017 10.8441C9.54494 10.8488 9.48971 10.8534 9.43448 10.8581Z" fill="#0A5C80"/>
<path d="M12.2558 9.08081C12.4201 9.24966 12.5672 9.42967 12.6327 9.6627C12.5737 9.67108 12.531 9.70084 12.5055 9.75527C12.3658 9.61758 12.2261 9.48037 12.0864 9.34269C12.143 9.2557 12.1997 9.16826 12.2558 9.08128V9.08081Z" fill="#055B76"/>
<path d="M10.5229 8.86967C10.5327 8.79525 10.5754 8.77199 10.6413 8.80176C10.7522 8.852 10.8826 8.79385 10.988 8.86874C11.0307 8.94781 11.0219 9.03619 11.033 9.12085C10.9096 9.15713 10.7949 9.23016 10.6585 9.20876C10.6135 9.09573 10.568 8.9827 10.5229 8.86921V8.86967Z" fill="#076882"/>
<path d="M9.47461 11.6703C9.43098 11.5563 9.38735 11.4423 9.34326 11.3289C9.48157 11.2823 9.62034 11.2354 9.75864 11.1888C9.8329 11.26 9.87189 11.3493 9.88859 11.4493C9.75029 11.5233 9.61245 11.5968 9.47414 11.6707L9.47461 11.6703Z" fill="#036670"/>
<path d="M9.59717 9.83577C9.67792 9.68321 9.75822 9.53111 9.83897 9.37854C9.91369 9.4511 9.98842 9.52413 10.0627 9.59669C10.0562 9.75856 9.92808 9.84926 9.84732 9.96787C9.76378 9.92369 9.68024 9.87996 9.59717 9.83577Z" fill="#046771"/>
<path d="M11.4616 8.31884C11.618 8.24396 11.6626 8.45699 11.7935 8.44769C11.7132 8.6077 11.7666 8.80166 11.6635 8.95562C11.5823 8.92353 11.5452 8.76817 11.4171 8.86771C11.398 8.68212 11.4528 8.50211 11.4612 8.31884H11.4616Z" fill="#106F8A"/>
<path d="M12.59 12.1266C12.5548 12.254 12.4712 12.334 12.3478 12.3749C12.2735 12.2484 12.1993 12.1224 12.125 11.9959C12.1779 11.9159 12.2327 11.8382 12.3385 11.8242C12.4545 11.8982 12.4916 12.0377 12.5896 12.1266H12.59Z" fill="#066070"/>
<path d="M11.5807 12.7531C11.3645 12.841 11.0781 12.8187 10.9839 12.7066C10.9895 12.6205 10.9755 12.5312 11.0252 12.4521C11.1811 12.5763 11.3696 12.5056 11.5408 12.5377C11.5891 12.6029 11.5766 12.6791 11.5807 12.7526V12.7531Z" fill="#0E7AA4"/>
<path d="M11.541 12.5382C11.4027 12.6378 11.2477 12.5764 11.1001 12.5806C11.024 12.5824 11.037 12.5038 11.0254 12.4527C11.0198 12.4392 11.0221 12.428 11.0333 12.4182C11.1706 12.3136 11.3628 12.4006 11.4974 12.2861C11.5442 12.3647 11.5373 12.4527 11.541 12.5387V12.5382Z" fill="#0A6F8E"/>
<path d="M11.4973 12.2856C11.4973 12.3759 11.462 12.4252 11.3618 12.4196C11.2527 12.4135 11.1427 12.4182 11.0332 12.4177C11.0332 12.3614 11.0332 12.3056 11.0332 12.2493C11.1901 12.2368 11.3469 12.2242 11.5038 12.2117C11.502 12.2363 11.4996 12.261 11.4978 12.2856H11.4973Z" fill="#066176"/>
<path d="M11.4168 8.86773C11.4651 8.85331 11.4307 8.75656 11.4985 8.7733C11.589 8.79516 11.653 8.85424 11.6633 8.95564C11.6057 9.01611 11.6252 9.0896 11.6289 9.1603C11.5449 9.17798 11.4739 9.12448 11.3945 9.11611C11.402 9.03332 11.4094 8.95052 11.4173 8.86773H11.4168Z" fill="#086374"/>
<path d="M13.9487 10.8098C13.8753 10.8065 13.7974 10.8368 13.7319 10.7795C13.8067 10.7735 13.8809 10.7675 13.9487 10.8098Z" fill="#028A8A"/>
<path d="M18.4359 16.923C18.2164 16.6486 17.9936 16.377 17.7736 16.103C17.4979 15.7606 17.1369 15.6337 16.7094 15.6834C16.5145 15.7062 16.3186 15.7323 16.1284 15.7783C15.9989 15.8095 15.9237 15.7713 15.8387 15.6769C15.4401 15.2327 15.0335 14.7959 14.6293 14.3568C14.5341 14.3261 14.4877 14.3978 14.4436 14.4555C14.3513 14.5778 14.2408 14.682 14.1368 14.7932C14.0528 14.8829 13.9405 14.9504 13.9048 15.0797C14.16 15.5318 14.413 15.9853 14.6734 16.4346C14.7249 16.523 14.7318 16.5956 14.6947 16.6886C14.5717 16.9951 14.4492 17.3017 14.3387 17.6124C14.2023 17.9961 14.2478 18.3645 14.4947 18.6906C14.7323 19.0041 14.9792 19.3111 15.2359 19.6092C15.4962 19.9116 15.8341 20.0427 16.2323 19.9879C16.5934 19.9381 16.9522 19.8716 17.3128 19.8204C17.7639 19.7562 18.0721 19.5129 18.2396 19.0925C18.3719 18.7599 18.4976 18.4245 18.6244 18.0896C18.7854 17.6645 18.7167 17.2756 18.4345 16.923H18.4359ZM17.8725 17.7994C17.775 18.7338 17.3671 19.1729 16.3989 19.2204C15.7441 19.2525 15.04 18.4901 15.1013 17.8631C15.1853 17.0007 15.5589 16.4812 16.5855 16.4602C17.2223 16.4067 17.9324 17.2207 17.872 17.7994H17.8725Z" fill="#2E99D5"/>
<path d="M8.60082 8.09336C8.27686 7.78543 8.01975 7.44123 7.85638 7.01562C7.67305 6.53792 7.45167 6.07418 7.23122 5.61183C6.97549 5.07598 6.47239 5.01598 6.11735 5.48949C5.59476 6.18628 5.08423 6.89283 4.5867 7.60821C4.25161 8.08964 4.45025 8.5385 5.02947 8.62083C5.52932 8.69199 6.03288 8.73711 6.53551 8.78316C6.99777 8.82549 7.45399 8.87433 7.87262 9.10504C8.04295 9.199 8.2337 9.25528 8.41517 9.32831C8.47458 9.3111 8.50892 9.26551 8.52888 9.21295C8.63284 8.93852 8.79482 8.6892 8.87371 8.40454C8.81988 8.26825 8.69921 8.18778 8.59989 8.09336H8.60082ZM7.0646 8.14778C6.58703 8.0994 6.14705 8.06452 5.70939 8.00684C5.37709 7.96312 5.28241 7.73938 5.47223 7.46681C5.72099 7.11005 5.97579 6.75747 6.23709 6.40954C6.43155 6.15092 6.67475 6.1686 6.8112 6.45606C7.00334 6.86073 7.18527 7.27099 7.35885 7.6845C7.47534 7.96219 7.32775 8.15662 7.0646 8.14778Z" fill="#00A59B"/>
<path d="M16.3662 6.60209C16.3508 5.9267 15.8273 5.40807 15.152 5.39737C14.7659 5.39133 14.3793 5.38761 13.9931 5.3997C13.393 5.41877 12.8937 5.88252 12.8412 6.48301C12.8124 6.8114 12.8022 7.14538 12.8268 7.4733C12.8537 7.82774 12.8171 8.15334 12.605 8.44638C12.7359 8.66825 12.8941 8.87245 13.0273 9.09246C13.0802 9.18037 13.1141 9.28549 13.2218 9.32829C13.2478 9.32363 13.2803 9.32689 13.2993 9.31247C13.7718 8.96222 14.3087 8.89477 14.8745 8.94454C14.965 8.95245 15.0569 8.94687 15.1483 8.94547C15.819 8.93571 16.3494 8.41521 16.3652 7.74122C16.374 7.3612 16.374 6.98072 16.3652 6.60116L16.3662 6.60209ZM15.8134 7.59098C15.7972 8.0338 15.4398 8.38312 14.9942 8.39568C14.7274 8.40312 14.46 8.40358 14.1927 8.39568C13.7732 8.38265 13.4214 8.06636 13.3879 7.64726C13.3633 7.33934 13.3624 7.02723 13.3838 6.71931C13.4144 6.27603 13.7671 5.95973 14.2094 5.94671C14.3431 5.94298 14.4767 5.94624 14.6099 5.94624V5.94717C14.7436 5.94717 14.8773 5.94205 15.0105 5.9481C15.4463 5.9681 15.7976 6.31277 15.8134 6.74628C15.8236 7.0277 15.8231 7.31004 15.8134 7.59145V7.59098Z" fill="#1259A2"/>
<path d="M20.5343 14.1262C20.0493 13.7061 19.3489 13.6196 18.8667 14.0104C18.5794 14.2429 18.3961 14.1876 18.1274 14.0331C17.557 13.7061 16.969 13.4103 16.3884 13.1019C16.3508 13.1829 16.3044 13.2564 16.2417 13.3229C16.1582 13.4108 16.0463 13.4764 16.0073 13.6024C16.6803 14.0727 17.3505 14.5471 18.0281 15.0104C18.1617 15.1016 18.2235 15.2025 18.2425 15.3625C18.3158 15.9812 18.8027 16.4584 19.4348 16.5505C20.0242 16.6361 20.6155 16.3054 20.8759 15.7439C21.1302 15.1965 20.9868 14.5178 20.5352 14.1262H20.5343ZM19.6139 15.9267C19.2023 15.9277 18.8653 15.5965 18.8579 15.1839C18.85 14.7606 19.1842 14.4099 19.5996 14.4053C20.0177 14.4006 20.3658 14.7416 20.37 15.1597C20.3742 15.5779 20.0316 15.9258 19.6139 15.9267Z" fill="#1182B4"/>
<path d="M12.8039 10.6809C12.7983 10.5827 12.7923 10.4846 12.7867 10.3865C12.8034 10.3018 12.7862 10.2269 12.7222 10.1655C12.6674 10.0195 12.5987 9.88038 12.505 9.75479C12.4238 9.55757 12.2766 9.4278 12.0859 9.34221C11.9337 9.28174 11.781 9.22081 11.6287 9.16034C11.5577 9.10639 11.4844 9.06592 11.3944 9.11615C11.2742 9.11755 11.1535 9.11941 11.0333 9.12081C10.8922 9.08034 10.7776 9.15336 10.6587 9.20872C10.4601 9.33803 10.2615 9.46734 10.0628 9.59618C9.98253 9.71479 9.86928 9.8148 9.84747 9.96736C9.7941 10.1013 9.72587 10.2306 9.71845 10.3795C9.61495 10.5181 9.67528 10.6981 9.6001 10.8437C9.78621 10.8967 9.68921 11.0809 9.75929 11.1879C9.76625 11.293 9.81405 11.3777 9.88924 11.4484C9.96164 11.6321 10.1334 11.7423 10.2299 11.9084C10.3014 11.9838 10.3872 12.0331 10.4898 12.0521C10.6592 12.1498 10.8527 12.1814 11.0328 12.2493C11.1971 12.3298 11.354 12.3177 11.5034 12.2117C11.7341 12.2075 11.9183 12.0693 12.1249 11.9958C12.2196 11.9679 12.2827 11.9005 12.3384 11.8242C12.4535 11.6582 12.5867 11.5047 12.6753 11.3209C12.7343 11.2623 12.7589 11.1902 12.7575 11.1084C12.7575 11.047 12.763 10.987 12.7983 10.9339C12.8354 10.8502 12.8633 10.7665 12.8039 10.6809ZM11.2315 11.4042C10.8277 11.4 10.5056 11.06 10.5181 10.6507C10.5297 10.2646 10.8583 9.94736 11.244 9.94922C11.6533 9.95108 11.9717 10.2804 11.9648 10.6944C11.9578 11.0958 11.6348 11.4084 11.2315 11.4042Z" fill="#1259A2"/>
<path d="M8.94384 14.8598C9.17404 14.4421 9.39913 14.0216 9.62608 13.602C9.58664 13.5555 9.53094 13.5448 9.47571 13.5458C9.24783 13.5485 9.02135 13.5262 8.79439 13.5183C8.55862 13.7783 8.32053 14.036 8.08894 14.2997C8.0235 14.3742 7.95388 14.4077 7.85503 14.4128C7.56774 14.4272 7.27999 14.4407 6.99503 14.4751C6.45016 14.5407 6.0914 14.9486 6.10486 15.4947C6.11275 15.8245 6.13827 16.1547 6.17772 16.4822C6.23435 16.9506 6.64137 17.3204 7.11523 17.3171C7.4791 17.3143 7.84482 17.286 8.20543 17.2371C8.63103 17.179 8.98097 16.8004 8.9986 16.3734C9.01531 15.9594 8.98422 15.5435 8.90764 15.1351C8.88768 15.0286 8.89371 14.9514 8.94384 14.8602V14.8598ZM7.78773 16.6966C7.62019 16.7096 7.45264 16.7301 7.2851 16.7273C7.01127 16.7222 6.76947 16.5082 6.73373 16.2394C6.70681 16.0384 6.69196 15.8343 6.68825 15.6314C6.68314 15.337 6.89896 15.0807 7.18531 15.043C7.38627 15.0165 7.58956 15.0012 7.79191 14.9998C8.10936 14.9975 8.34652 15.2231 8.37901 15.5417C8.39386 15.6882 8.40547 15.8352 8.41243 15.9147C8.43146 16.4371 8.2356 16.6608 7.78773 16.6966Z" fill="#1259A2"/>
<path d="M7.69748 11.8702C7.39023 11.9656 7.08067 12.0535 6.77714 12.1591C6.61841 12.2144 6.46386 12.22 6.30235 12.1986C5.74634 12.1265 5.18987 12.0535 4.6334 11.9856C4.13634 11.9247 3.87458 12.2451 4.05837 12.7108C4.31595 13.3629 4.5856 14.0108 4.86778 14.6523C5.06874 15.1086 5.4818 15.1481 5.7909 14.7546C5.98165 14.5118 6.17797 14.2713 6.34969 14.015C6.73862 13.435 7.19531 12.9354 7.84831 12.648C7.87245 12.6373 7.89055 12.6135 7.9119 12.5959C7.91236 12.3326 7.85481 12.0865 7.69748 11.8702ZM6.26801 13.1457C6.06055 13.428 5.84891 13.7075 5.62985 13.9811C5.46834 14.1829 5.27991 14.1615 5.17317 13.9266C5.02326 13.595 4.88031 13.2596 4.75129 12.9196C4.66496 12.6921 4.78702 12.5419 4.99866 12.5521C5.3783 12.601 5.73335 12.6373 6.08561 12.6945C6.36501 12.7401 6.43416 12.9191 6.26801 13.1457Z" fill="#00A59B"/>
<path d="M19.1003 10.3949C19.0265 10.4158 18.9559 10.4488 18.8854 10.48C18.4375 10.6805 17.9892 10.8805 17.5432 11.0851C17.4434 11.1307 17.3482 11.141 17.2387 11.1293C16.6177 11.0637 15.9958 11.0065 15.3744 10.947C15.3038 11.0233 15.314 11.1158 15.3321 11.2042C15.3581 11.3303 15.353 11.4531 15.3247 11.5768C15.6751 11.6735 16.0213 11.7949 16.3773 11.8629C17.1245 12.0047 17.7896 12.3024 18.3614 12.808C18.4714 12.9052 18.5972 12.9852 18.7188 13.069C19.117 13.3429 19.4553 13.1862 19.505 12.7062C19.5286 12.4754 19.5542 12.2447 19.576 12.0136C19.6131 11.6214 19.6623 11.2298 19.6795 10.8368C19.6957 10.4684 19.4539 10.2949 19.1003 10.3949ZM19.0297 12.1792C18.9912 12.4736 18.8427 12.5345 18.5985 12.3624C18.3581 12.1931 18.1191 12.0219 17.8857 11.8433C17.6884 11.6926 17.7014 11.5335 17.9237 11.4242C18.1994 11.2889 18.4807 11.1637 18.7642 11.0447C18.9963 10.947 19.1337 11.0507 19.1262 11.2079C19.0887 11.5935 19.0678 11.887 19.0302 12.1787L19.0297 12.1792Z" fill="#00A59B"/>
<path d="M19.5525 8.26772C19.3293 7.92305 19.0104 7.65606 18.6289 7.50209C18.3198 7.37697 17.4343 7.73559 17.251 8.01514C17.1419 8.18167 17.1354 8.37563 17.1117 8.56076C17.0927 8.70914 17.0338 8.77844 16.8931 8.82217C16.4662 8.95473 16.0433 9.10172 15.6187 9.24312C15.6164 9.45522 15.5792 9.67012 15.6716 9.87432C16.1069 9.80361 16.5478 9.75664 16.9758 9.65477C17.2579 9.58732 17.4566 9.65384 17.6459 9.85106C17.7884 9.9999 17.9597 10.139 18.1736 10.1241C18.5844 10.0953 18.9724 9.95432 19.3014 9.71338C19.5623 9.52267 19.7298 8.54168 19.552 8.26772H19.5525ZM18.324 9.50778C17.9727 9.51244 17.639 9.19149 17.6371 8.84635C17.6413 8.37284 17.8775 8.12399 18.3593 8.09608C18.6953 8.07654 19.0373 8.41703 19.0434 8.74077C19.0517 9.18312 18.7528 9.50174 18.324 9.50778Z" fill="#2E99D5"/>
<path d="M12.0616 13.4843C11.7664 13.2959 11.6147 13.0805 11.5803 12.7531C11.3826 12.7196 11.1793 12.7652 10.9835 12.7065C10.9412 12.761 10.9491 12.827 10.9422 12.8889C10.9189 13.1038 10.8595 13.2549 10.6247 13.3666C10.0933 13.6196 9.8487 14.2252 9.97773 14.8122C10.1012 15.3737 10.5959 15.7862 11.2011 15.8314C11.7372 15.8714 12.2862 15.5113 12.4895 14.9867C12.7007 14.4415 12.5526 13.7968 12.0611 13.4838L12.0616 13.4843ZM11.2772 15.2011C10.906 15.2118 10.5741 14.8857 10.5727 14.5094C10.5713 14.1406 10.8855 13.8238 11.2554 13.8201C11.6202 13.8164 11.9456 14.1336 11.9511 14.4992C11.9567 14.8648 11.6439 15.1909 11.2772 15.2011Z" fill="#1182B4"/>
<path d="M13.2768 3.48284C12.6234 2.90792 12.6327 2.90793 11.8019 3.16329C11.4176 3.28143 11.2301 3.50889 11.121 3.89961C10.9544 4.49778 11.0199 4.97734 11.5708 5.32666C11.6733 5.39178 11.6859 5.48155 11.6747 5.59877C11.6376 5.9974 11.6144 6.39695 11.5856 6.79604C11.684 6.75651 11.7615 6.78628 11.8474 6.84628C11.9411 6.9114 12.0233 7.03513 12.1699 6.96722C12.2771 6.56813 12.3932 6.17136 12.4878 5.76948C12.525 5.61086 12.5983 5.52109 12.7543 5.49318C13.2411 5.40481 13.5015 5.11316 13.5377 4.61872C13.5419 4.56336 13.5525 4.50662 13.5706 4.45359C13.7052 4.05822 13.5887 3.7582 13.2764 3.48331L13.2768 3.48284ZM12.2911 5.14293C11.9054 5.16944 11.4881 4.73454 11.4956 4.36196C11.5067 3.83914 11.8497 3.49261 12.356 3.49447C12.7626 3.49586 13.1474 3.87635 13.145 4.27451C13.1139 4.82803 12.8601 5.10386 12.2911 5.14293Z" fill="#2E99D5"/>
<path d="M11.4595 6.28203C11.355 5.64246 10.8227 5.18709 10.165 5.17081C9.54545 5.15499 8.98155 5.61223 8.85067 6.23691C8.72072 6.85555 9.04514 7.54257 9.64987 7.71327C10.0314 7.82119 10.1743 8.04445 10.2839 8.36122C10.2996 8.40633 10.3303 8.44587 10.3544 8.4882C10.4774 8.46634 10.5995 8.45424 10.7243 8.4789C10.8055 8.49471 10.8928 8.50634 10.9373 8.40587C10.9174 8.22446 10.9048 8.04213 10.8756 7.86212C10.8529 7.72118 10.87 7.6249 10.9967 7.52163C11.3847 7.20394 11.5411 6.78252 11.4595 6.2825V6.28203ZM10.1404 7.32255C9.68561 7.31511 9.33289 6.95277 9.33567 6.49507C9.33846 6.04481 9.70743 5.67921 10.1567 5.68107C10.6004 5.68293 10.9786 6.05923 10.98 6.50111C10.9814 6.9537 10.5971 7.33 10.14 7.32255H10.1404Z" fill="#1182B4"/>
<path d="M9.06756 10.6381C9.06291 10.5093 9.09494 10.373 9.00768 10.2567C8.55517 10.2325 8.2846 9.95252 8.0711 9.5911C8.05672 9.56691 8.03815 9.54552 8.01959 9.52459C7.77454 9.24504 7.37308 9.18643 7.06723 9.39574C6.87601 9.52645 6.68944 9.66552 6.51215 9.81437C6.20491 10.0716 6.15292 10.4674 6.37988 10.7981C6.50704 10.9837 6.64256 11.1637 6.78412 11.3382C7.01478 11.6224 7.42691 11.7191 7.7077 11.494C8.12448 11.1596 8.56817 10.9335 9.10468 10.9051C9.09169 10.8163 9.0708 10.7293 9.06756 10.6386V10.6381ZM7.37122 11.1275C7.11317 11.1275 6.71914 10.6842 6.721 10.3967C6.72286 10.1409 7.17119 9.74506 7.45383 9.74971C7.69703 9.7539 8.09153 10.1958 8.09617 10.4684C8.10034 10.7205 7.65247 11.1279 7.37169 11.1275H7.37122Z" fill="#1259A2"/>
<path d="M16.587 17.2324C16.7945 17.2343 17.1063 17.5673 17.1073 17.7887C17.1087 18.1832 16.8075 18.4543 16.38 18.4432C16.1735 18.4376 15.8704 18.0953 15.8751 17.8729C15.8834 17.4701 16.1517 17.2287 16.587 17.2329V17.2324Z" fill="#2E9AD5"/>
<path d="M6.55537 7.72911C6.43703 7.71701 6.26995 7.70352 6.10379 7.68259C5.91304 7.65841 5.86245 7.55607 5.96874 7.39327C6.07919 7.2235 6.19708 7.05744 6.32471 6.90069C6.42125 6.78208 6.53217 6.78673 6.6055 6.93046C6.6844 7.08582 6.75123 7.24722 6.82178 7.4063C6.9443 7.68399 6.90068 7.74864 6.55537 7.72911Z" fill="#01A69C"/>
<path d="M14.6066 6.66394C15.0253 6.66394 15.1149 6.75697 15.1144 7.19048C15.1144 7.5798 15.0021 7.68539 14.5881 7.68493C14.1783 7.68493 14.0854 7.58585 14.0854 7.15001C14.0854 6.74441 14.1718 6.66394 14.6062 6.66394H14.6066Z" fill="#1259A3"/>
<path d="M19.9344 15.176C19.9316 15.3509 19.7873 15.4946 19.6128 15.4965C19.4299 15.4988 19.2874 15.3481 19.2916 15.1574C19.2953 14.9792 19.4355 14.8383 19.6109 14.836C19.7919 14.8336 19.9376 14.9867 19.9344 15.1755V15.176Z" fill="#1483B5"/>
<path d="M7.99758 15.877C8.01011 16.2063 7.92054 16.2938 7.55621 16.3073C7.21323 16.3203 7.12041 16.2277 7.10788 15.8612C7.09627 15.5281 7.1891 15.4333 7.54136 15.4198C7.90012 15.4058 7.98273 15.4891 7.99758 15.877Z" fill="#1359A3"/>
<path d="M5.30795 12.8912C5.46761 12.9145 5.62726 12.9358 5.78645 12.9614C5.93636 12.9856 5.95632 13.0749 5.87974 13.187C5.7846 13.3261 5.6811 13.4596 5.57528 13.5908C5.47921 13.7103 5.3836 13.7015 5.3177 13.5619C5.24855 13.4163 5.18496 13.2675 5.12973 13.1163C5.0694 12.9507 5.12881 12.8805 5.30795 12.8912Z" fill="#02A69C"/>
<path d="M18.7826 11.5824C18.7738 11.6452 18.7673 11.7084 18.7552 11.7703C18.7344 11.8745 18.7924 12.0196 18.6606 12.0698C18.538 12.1164 18.4596 11.9908 18.3733 11.9275C18.2809 11.8596 18.1227 11.8205 18.1333 11.6856C18.1449 11.5354 18.3213 11.5447 18.4248 11.4833C18.4666 11.4582 18.512 11.4386 18.5575 11.4205C18.7311 11.3517 18.7933 11.3968 18.7822 11.5824H18.7826Z" fill="#03A69C"/>
<path d="M18.7075 8.77939C18.6959 9.03382 18.5335 9.19429 18.2982 9.18313C18.1506 9.17615 17.9524 8.97614 17.9561 8.838C17.9621 8.59194 18.1473 8.40216 18.371 8.41146C18.5233 8.41797 18.7145 8.62682 18.7075 8.77985V8.77939Z" fill="#2F9AD5"/>
<path d="M11.5843 14.5108C11.5843 14.6895 11.4446 14.8309 11.2668 14.8332C11.0779 14.8355 10.9355 14.6895 10.9406 14.4992C10.9457 14.3183 11.0849 14.1852 11.2678 14.188C11.4469 14.1908 11.5848 14.3313 11.5848 14.5108H11.5843Z" fill="#1282B5"/>
<path d="M12.7165 4.26749C12.7221 4.51913 12.5495 4.70565 12.2998 4.71774C12.1568 4.72472 11.934 4.51448 11.9303 4.36982C11.9243 4.11213 12.096 3.92933 12.3494 3.92375C12.5012 3.92049 12.7133 4.11911 12.7165 4.26749Z" fill="#2F9AD5"/>
<path d="M10.1496 6.83273C9.96999 6.82994 9.81961 6.66853 9.82797 6.48852C9.83632 6.31782 9.99273 6.16851 10.1593 6.17269C10.338 6.17734 10.4903 6.34107 10.4814 6.51876C10.4726 6.68993 10.319 6.83506 10.1496 6.83273Z" fill="#1483B5"/>
<path d="M7.42931 10.0757C7.55416 10.0776 7.77275 10.318 7.77368 10.4543C7.77461 10.5869 7.51842 10.8111 7.37547 10.8037C7.2432 10.7967 7.04085 10.5557 7.04549 10.4115C7.04967 10.278 7.28404 10.0734 7.42931 10.0757Z" fill="#145AA3"/>
</g>
</g>
<defs>
<clipPath id="clip0_4787_61785">
<rect width="24" height="24" fill="white"/>
</clipPath>
<clipPath id="clip1_4787_61785">
<rect width="17" height="17" fill="white" transform="translate(4 3)"/>
</clipPath>
</defs>
</svg>
