<svg width="24" height="24" viewBox="0 0 24 24" fill="none" xmlns="http://www.w3.org/2000/svg">
<g clip-path="url(#clip0_5357_40293)">
<circle cx="12" cy="12" r="12" fill="white"/>
<path d="M16.805 15.0315C16.7241 15.135 16.7216 15.2356 16.7527 15.3702C16.8202 15.6634 16.6958 15.919 16.5146 16.1471C16.4941 16.1731 16.4706 16.1971 16.4486 16.2222C16.2557 16.4446 16.2785 16.5655 16.5495 16.7078C16.8193 16.8499 17.0851 16.998 17.3215 17.192C17.4799 17.3218 17.6313 17.4581 17.7543 17.6245C17.8589 17.7657 17.9635 17.906 18.0858 18.0344C18.2133 18.1681 18.3219 18.321 18.3839 18.5003C18.4168 18.5954 18.4688 18.68 18.5283 18.7615C18.7358 19.0453 18.8575 19.3703 18.963 19.7013C19.0065 19.8379 18.9118 20.0251 18.7598 20.1263C18.4702 20.3187 18.1687 20.4847 17.8277 20.5736C17.4867 20.6625 17.1466 20.7557 16.7907 20.734C16.2182 20.6991 15.6417 20.7131 15.0749 20.6019C14.8554 20.5588 14.6651 20.4493 14.4856 20.325C14.2589 20.168 14.0362 20.0043 13.7959 19.8696C13.6615 19.7945 13.5746 19.6959 13.5309 19.5521C13.5069 19.4726 13.4583 19.4363 13.4091 19.5261C13.1928 19.9202 12.78 19.9682 12.4139 20.0957C12.2744 20.1443 12.1252 20.1435 11.9769 20.1489C11.3969 20.1703 10.8167 20.162 10.2371 20.1795C9.92638 20.1886 9.61511 20.2275 9.30471 20.2644C9.00288 20.3004 8.69533 20.2918 8.39264 20.2664C8.20371 20.2504 8.01421 20.2526 7.82499 20.2372C7.46543 20.2078 7.109 20.16 6.75544 20.0952C6.19351 19.992 5.6573 19.8139 5.14682 19.5507C4.83813 19.3915 4.52629 19.2468 4.28191 18.9904C3.87175 18.56 3.69883 18.0246 3.58079 17.4593C3.49047 17.0271 3.60479 16.6104 3.64395 16.1874C3.66225 15.9896 3.69026 15.7924 3.69826 15.594C3.71912 15.0806 3.85375 14.5845 3.91463 14.0777C3.9615 13.6861 4.02524 13.3008 4.13786 12.9215C4.35423 12.1933 4.68235 11.5156 5.04078 10.8499C5.24771 10.4654 5.44522 10.0756 5.6493 9.68971C5.91369 9.19038 6.18093 8.68876 6.54793 8.2583C6.75687 8.01335 6.95266 7.75668 7.17103 7.5203C7.25134 7.43341 7.2219 7.39854 7.14159 7.3551C7.10386 7.3348 7.0687 7.30994 7.0324 7.28764C6.85605 7.17932 6.76544 7.02211 6.81518 6.81861C6.92007 6.38987 6.95895 5.93941 7.15159 5.53897C7.32194 5.18512 7.54117 4.85985 7.8753 4.62176C8.07223 4.48142 8.26888 4.35737 8.50526 4.30278C8.56156 4.28963 8.59043 4.25762 8.60644 4.19845C8.63531 4.09041 8.69304 3.99151 8.78965 3.93406C9.1858 3.69854 9.59796 3.50933 10.0756 3.52362C10.2202 3.52791 10.3508 3.56278 10.45 3.66939C10.5049 3.72827 10.56 3.73027 10.6292 3.71484C11.4044 3.54048 12.1841 3.38385 12.9747 3.30696C13.7567 3.23065 14.5407 3.24608 15.2636 3.61194C15.6537 3.80944 15.9553 4.11385 16.2054 4.4817C16.4292 4.81069 16.4269 5.18054 16.4843 5.54211C16.5818 6.15321 16.5787 6.77402 16.6547 7.38768C16.667 7.48686 16.7093 7.52831 16.7959 7.55403C17.4333 7.74268 17.9841 8.09738 18.5366 8.45266C18.6926 8.55299 18.8415 8.64102 18.913 8.82081C18.945 8.90112 18.9676 8.98115 18.9696 9.0689C18.9759 9.35844 18.7581 9.43361 18.5428 9.34158C18.185 9.18838 17.8326 9.0246 17.4661 8.89026C17.0466 8.73649 16.7376 8.67589 16.3752 8.7182C16.4823 8.85796 16.5155 9.02631 16.6964 9.11635C16.8802 9.20781 17.0651 9.31728 17.2046 9.47935C17.3224 9.61626 17.3155 9.69486 17.1695 9.79976C17.1257 9.8312 17.1446 9.86407 17.142 9.89922C17.12 10.2116 17.1394 10.5237 17.1457 10.8362C17.1526 11.1826 16.9771 11.4541 16.7401 11.6868C16.6658 11.7597 16.6675 11.8062 16.7353 11.8737C16.9317 12.0695 17.1126 12.2744 17.1846 12.5551C17.1992 12.6117 17.2752 12.65 17.3127 12.7037C17.4418 12.8898 17.5945 13.0713 17.5445 13.3214C17.515 13.4695 17.4204 13.5866 17.3181 13.6944C17.2558 13.7599 17.186 13.819 17.1289 13.8888C17.0274 14.0122 16.9228 14.1263 17.0697 14.3035C17.1726 14.4278 17.1234 14.5899 17.0511 14.7228C16.9951 14.8257 16.9285 14.9266 16.8313 14.9998C16.8305 14.9503 16.8296 14.9012 16.8288 14.8517C16.8302 14.8437 16.8333 14.8366 16.8385 14.8303C16.9014 14.8346 16.9222 14.8008 16.9168 14.7434H16.9165C17.05 14.6731 17.0791 14.4676 16.9731 14.3447L16.974 14.3458C16.9665 14.3355 16.9591 14.3252 16.9517 14.3152C16.9402 14.2961 16.9288 14.2769 16.9174 14.2578C16.9099 14.2435 16.9045 14.2192 16.8945 14.2169C16.8648 14.2106 16.8645 14.2378 16.8602 14.258L16.8596 14.2586L16.8313 14.2866C16.8099 14.3052 16.7885 14.3235 16.767 14.3421C16.6741 14.3504 16.6916 14.2818 16.6876 14.228L16.687 14.2286C16.7662 14.2366 16.8056 14.2012 16.8047 14.1211C16.8248 14.1003 16.8448 14.0797 16.8645 14.0588C16.8728 14.0497 16.8808 14.0408 16.8891 14.0317L16.8905 14.03C16.8991 14.0197 16.9079 14.0097 16.9165 13.9994L16.9156 13.9999C16.9731 13.9982 16.9748 13.9574 16.9745 13.9153C16.9822 13.9051 16.99 13.8948 16.9977 13.8845C17.056 13.8865 17.0606 13.8462 17.0614 13.8033L17.0628 13.8013C17.0717 13.7924 17.0806 13.7836 17.0894 13.7747L17.0911 13.7733C17.2401 13.7367 17.3407 13.6241 17.3467 13.4877L17.3472 13.4866C17.3555 13.4737 17.3635 13.4609 17.3718 13.448C17.371 13.4409 17.373 13.4343 17.3775 13.4286C17.3855 13.4169 17.3933 13.4051 17.4013 13.3931C17.4013 13.3851 17.4041 13.3783 17.4093 13.3723C17.4458 13.3637 17.4733 13.352 17.431 13.314C17.433 13.2757 17.435 13.2371 17.4367 13.1988C17.4513 13.1213 17.5279 13.0227 17.3704 13.0038H17.3727C17.3647 12.9933 17.3567 12.9827 17.3487 12.9724C17.3444 12.9655 17.3427 12.9578 17.3432 12.9498C17.3461 12.8824 17.3584 12.8098 17.2583 12.8012C17.2286 12.7872 17.2075 12.7826 17.2009 12.8281C17.1483 13.1948 16.9562 13.4935 16.7284 13.7719C16.5675 13.9685 16.3591 14.0851 16.1099 14.1554C15.7872 14.2463 15.4588 14.2206 15.1335 14.2509C14.7823 14.2835 14.4318 14.2263 14.0814 14.2015C13.6458 14.1709 13.2085 14.1543 12.7743 14.1091C12.3216 14.062 11.8677 14.016 11.4215 13.9171C11.0508 13.8347 10.6804 13.7504 10.3071 13.6815C10.027 13.6298 9.74659 13.5841 9.47477 13.4946C9.11864 13.3771 8.76193 13.2614 8.39236 13.1893C8.25688 13.1631 8.18313 13.2182 8.13969 13.3351C8.07395 13.512 8.13569 13.6692 8.31461 13.8027C8.58986 14.0077 8.89598 14.1572 9.19438 14.3241C9.62683 14.5659 10.0761 14.7697 10.5169 14.992C10.7884 15.129 11.058 15.2722 11.3675 15.3096C11.5038 15.3262 11.6425 15.3327 11.7745 15.3773C11.9063 15.4056 12.0272 15.5162 12.1738 15.4291L12.231 15.4348C12.2424 15.4419 12.2541 15.4494 12.2656 15.4565C12.2739 15.4565 12.2816 15.4585 12.2884 15.4631C12.3039 15.4839 12.3259 15.4868 12.3493 15.4851H12.3613L12.3727 15.4882C12.3799 15.502 12.3888 15.5057 12.4002 15.4928C12.4288 15.496 12.4576 15.4991 12.4862 15.5022C12.4868 15.5571 12.5179 15.5737 12.5685 15.5731C12.7332 15.5717 12.8975 15.5723 13.0622 15.5728C13.1033 15.5728 13.1373 15.5651 13.1442 15.5162C13.1728 15.5168 13.2016 15.5174 13.2302 15.5182C13.3083 15.6171 13.3989 15.5768 13.4889 15.5414C13.717 15.5425 13.9451 15.5434 14.1732 15.5445C14.4052 15.6049 14.6479 15.5994 14.8726 15.5583C15.0766 15.5208 15.269 15.5097 15.4694 15.5408C15.5102 15.5471 15.5574 15.556 15.5734 15.4971C15.5926 15.4971 15.6114 15.4971 15.6306 15.4971C15.6506 15.5548 15.6803 15.556 15.7178 15.512C15.7363 15.5131 15.7552 15.5145 15.7738 15.5157C15.7826 15.5314 15.7881 15.5563 15.8009 15.5614C15.9124 15.606 16.1782 15.5082 16.2574 15.3962C16.2743 15.3876 16.2914 15.3791 16.3083 15.3702C16.3206 15.3616 16.3328 15.353 16.3451 15.3445C16.3637 15.3339 16.382 15.3233 16.4006 15.3125C16.4966 15.3579 16.4995 15.2833 16.5146 15.2244C16.5255 15.2167 16.5361 15.2093 16.5469 15.2016C16.5561 15.1924 16.5652 15.1833 16.5744 15.1741L16.5752 15.1733C16.6761 15.1738 16.6856 15.1041 16.687 15.0281H16.6861C16.7259 15.0289 16.7653 15.0298 16.805 15.0306V15.0315ZM15.9178 8.28517C15.9287 8.29432 15.9393 8.30375 15.9501 8.3129V8.31032C15.9456 8.37321 15.9887 8.37321 16.0324 8.37235L16.0319 8.37178C16.0422 8.38121 16.0522 8.39093 16.0625 8.40036L16.0613 8.39922C16.0713 8.40893 16.0816 8.41894 16.0916 8.42866L16.0902 8.42723C16.1002 8.43723 16.1102 8.44723 16.1205 8.45724L16.1191 8.45581C16.1293 8.4661 16.1393 8.4761 16.1496 8.48639C16.2102 8.57557 16.2765 8.60415 16.3974 8.58472C16.5878 8.55413 16.7907 8.54899 16.9771 8.61044C17.3281 8.7262 17.6854 8.82624 18.0235 8.97944C18.2179 9.06747 18.4137 9.15208 18.6109 9.23354C18.7426 9.28813 18.8235 9.23297 18.8347 9.0932C18.8504 8.89169 18.7569 8.74821 18.5992 8.63645C18.4171 8.50754 18.2299 8.38692 18.0318 8.28346L17.9915 8.26316C17.9766 8.25945 17.9618 8.25573 17.9469 8.2523C17.9269 8.17856 17.8686 8.20743 17.8217 8.206C17.806 8.20343 17.79 8.20085 17.7743 8.19799C17.7594 8.12025 17.6288 8.18056 17.6334 8.07966C17.6414 8.06366 17.6491 8.04765 17.6571 8.03136C17.6699 7.9236 17.5819 7.99706 17.5493 7.97105L17.5473 7.97019C17.5347 7.96248 17.5225 7.95476 17.5099 7.94704C17.2932 7.86987 17.076 7.79412 16.8599 7.71467C16.6833 7.64978 16.5066 7.58404 16.3469 7.48115C16.34 7.38368 16.4155 7.40569 16.4695 7.39683C16.5412 7.3954 16.5364 7.35538 16.5278 7.29993C16.436 6.69799 16.4503 6.08575 16.346 5.48495C16.2985 5.21084 16.3243 4.92187 16.1731 4.6692C15.8641 4.15272 15.4436 3.77257 14.8606 3.58965C14.8165 3.51762 14.7457 3.51819 14.6739 3.52133C14.6596 3.51847 14.6453 3.5159 14.6313 3.51304C14.5765 3.40529 14.4787 3.47932 14.403 3.45874H14.4021C14.3967 3.40815 14.3607 3.40615 14.3204 3.40043C14.1006 3.36927 13.8768 3.38814 13.6575 3.34669C13.6144 3.33841 13.5578 3.32954 13.5461 3.39957C13.5266 3.39957 13.5072 3.39957 13.4878 3.39957C13.3443 3.3647 13.2008 3.33983 13.0599 3.41043L12.9164 3.4233C12.9058 3.411 12.897 3.41301 12.8889 3.42615C12.8698 3.4273 12.8506 3.42873 12.8315 3.42987C12.7646 3.39414 12.6983 3.36213 12.6583 3.46388C12.6297 3.46874 12.6008 3.47389 12.5723 3.47875C12.4319 3.4413 12.2976 3.44902 12.1735 3.53305C12.1541 3.53477 12.1349 3.53648 12.1155 3.5382C12.0226 3.50161 11.934 3.49532 11.8591 3.57735C11.8543 3.58221 11.8494 3.58221 11.8443 3.57764C11.7359 3.56907 11.6273 3.56049 11.5447 3.65367C11.5259 3.65538 11.5073 3.65681 11.4884 3.65853C11.4398 3.61966 11.3975 3.60851 11.3735 3.6834C11.3641 3.68454 11.3544 3.68597 11.3449 3.68711C11.2477 3.69626 11.1397 3.65396 11.0594 3.74571C11.0454 3.74685 11.0314 3.74799 11.0177 3.74942C10.9033 3.75485 10.7756 3.7014 10.6872 3.82374C10.6687 3.82659 10.6504 3.82945 10.6318 3.83202C10.5912 3.77886 10.5472 3.81087 10.5112 3.83374C10.4489 3.87318 10.41 3.84203 10.3708 3.80001C10.3843 3.67053 10.2802 3.66625 10.2028 3.66082C9.72744 3.6268 9.28985 3.74656 8.88826 4.00095C8.82595 4.04039 8.78251 4.09613 8.74935 4.16044C8.73192 4.19445 8.73334 4.22532 8.77765 4.23904C8.77365 4.30049 8.73563 4.31793 8.68047 4.31593C8.63817 4.31421 8.60415 4.32564 8.6053 4.37795V4.37623C8.55785 4.37623 8.50068 4.35308 8.48696 4.42883L8.48582 4.4294C8.42923 4.44912 8.34119 4.38309 8.31718 4.49142C7.94618 4.67892 7.64435 4.94302 7.4257 5.2983C7.37854 5.37491 7.3168 5.4415 7.28507 5.52839C7.13101 5.94884 7.03326 6.38387 6.94808 6.82203C6.92865 6.92179 6.93008 7.02326 7.01125 7.10186C7.12844 7.21533 7.25563 7.32794 7.41684 7.35596C7.67179 7.40054 7.89559 7.53945 8.15055 7.57833C8.19371 7.5849 8.22915 7.61434 8.25459 7.6495C8.40608 7.85701 8.62559 7.97019 8.84653 8.08252C9.08862 8.20571 9.3533 8.27002 9.60197 8.37635C9.72316 8.46295 9.84892 8.52869 10.0021 8.45838C10.031 8.46067 10.0596 8.46295 10.0884 8.46495C10.1122 8.51497 10.1439 8.54727 10.2071 8.54499C10.3294 8.5407 10.4523 8.54327 10.5749 8.54384C10.6152 8.54384 10.6512 8.5387 10.6587 8.48925L10.8036 8.46553C10.8419 8.49554 10.8793 8.4964 10.9156 8.46181C10.9351 8.46124 10.9545 8.46067 10.9736 8.45981C11.1131 8.49725 11.252 8.52641 11.3741 8.41351C11.4124 8.41151 11.4507 8.40979 11.489 8.40779C11.6388 8.44009 11.7777 8.39693 11.9157 8.34662C11.9446 8.34634 11.9735 8.34577 12.0023 8.34548C12.0832 8.37521 12.1655 8.41837 12.2307 8.31804C12.2458 8.31547 12.2607 8.31318 12.2759 8.31061C12.3016 8.3149 12.3259 8.31461 12.3439 8.29174C12.3633 8.29032 12.3828 8.2886 12.4019 8.28717C12.5977 8.33176 12.7872 8.30604 12.9724 8.23487C12.9916 8.23315 13.0107 8.23144 13.0301 8.22944C13.1339 8.30032 13.2105 8.23858 13.2871 8.17656C13.3063 8.17484 13.3251 8.17313 13.3443 8.17141C13.4274 8.22658 13.5226 8.21286 13.6052 8.19171C13.9079 8.1131 14.214 8.1434 14.5196 8.14312C14.5719 8.14312 14.6299 8.15426 14.6322 8.07366C14.6708 8.07166 14.7094 8.06937 14.7477 8.06737C14.8611 8.09538 14.9746 8.10539 15.0872 8.06251C15.1064 8.06108 15.1258 8.05966 15.145 8.05823C15.203 8.10139 15.2604 8.10167 15.3176 8.0568C15.3939 8.0588 15.4699 8.06051 15.5463 8.06251C15.582 8.09939 15.6263 8.08509 15.6686 8.08309C15.6849 8.08509 15.7009 8.08681 15.7172 8.08881C15.7732 8.1454 15.8295 8.202 15.8855 8.25859L15.8887 8.26088C15.899 8.26916 15.9093 8.27745 15.9193 8.28603L15.9178 8.28489V8.28517ZM15.9819 17.6676C15.9924 17.6591 16.003 17.6505 16.0136 17.6419C16.1554 17.5307 16.2968 17.4187 16.4395 17.3087C16.4881 17.2709 16.5472 17.2192 16.6001 17.2861C16.6515 17.3512 16.5798 17.3884 16.5378 17.4207C16.2071 17.6754 15.897 17.964 15.5031 18.1204C15.2324 18.2279 15.0961 18.4511 14.9546 18.6763C14.9297 18.7161 14.918 18.7606 14.9292 18.8124C14.9869 19.0811 15.3925 19.3937 15.6663 19.3723C15.7295 19.3674 15.8049 19.3657 15.8304 19.2846C15.8973 19.071 16.0502 18.9081 16.1651 18.7238C16.2645 18.5643 16.4232 18.4597 16.5818 18.3616C16.6215 18.337 16.6638 18.3302 16.6967 18.3725C16.7284 18.4131 16.6973 18.4448 16.6733 18.4728C16.6553 18.494 16.6307 18.5103 16.6067 18.5254C16.2754 18.7321 16.099 19.057 15.9507 19.3989C15.8935 19.5307 15.9724 19.6887 16.0842 19.713C16.2291 19.7444 16.3763 19.7502 16.5235 19.7476C16.5907 19.7464 16.6567 19.7359 16.7013 19.6756C16.9111 19.392 17.1786 19.1605 17.4107 18.8973C17.4464 18.857 17.493 18.7947 17.5522 18.8507C17.6099 18.9056 17.5547 18.9524 17.515 18.9942C17.3215 19.1968 17.1506 19.42 16.9345 19.6021C16.8145 19.7033 16.8631 19.9511 17.0071 19.9917C17.16 20.0348 17.3135 20.0228 17.4338 19.9039C17.5385 19.8008 17.6365 19.6907 17.7254 19.5718C17.8188 19.4466 17.9286 19.3334 18.0338 19.2174C18.0638 19.1842 18.105 19.1628 18.1458 19.2025C18.1896 19.2451 18.1741 19.2846 18.1373 19.3263C17.9403 19.5498 17.7445 19.7742 17.5493 19.9991C17.3698 20.2061 16.8325 20.2429 16.757 19.9202C16.7424 19.8574 16.7113 19.8665 16.6641 19.8811C16.4558 19.9457 16.2497 19.8945 16.0459 19.8565C15.919 19.8328 15.8361 19.7427 15.8072 19.6173C15.7884 19.5344 15.7475 19.5129 15.6677 19.5178C15.486 19.5289 15.319 19.4832 15.1773 19.3629C14.9678 19.1845 14.756 19.0085 14.5493 18.827C14.3589 18.66 14.234 18.4608 14.254 18.1924C14.258 18.1381 14.23 18.0818 14.2195 18.0258C14.2009 17.9295 14.1546 17.8894 14.0463 17.8832C13.7604 17.8663 13.6087 17.714 13.5744 17.4298C13.5646 17.3504 13.5149 17.3015 13.468 17.2498C13.3457 17.114 13.1559 17.1106 12.9798 17.2369C12.8058 17.3618 12.7752 17.4796 12.8741 17.6602C12.9061 17.7182 12.9364 17.7814 12.983 17.8266C13.1571 17.9966 13.3048 18.1838 13.4412 18.3871C13.5644 18.5709 13.6149 18.7544 13.5855 18.9633C13.5644 19.1131 13.5792 19.2603 13.6118 19.4023C13.6512 19.5752 13.7264 19.7256 13.9099 19.8096C14.1217 19.9068 14.3021 20.06 14.493 20.1941C14.7005 20.3398 14.9209 20.449 15.1773 20.4956C15.7037 20.5908 16.2368 20.5808 16.7664 20.6022C17.4113 20.6282 18.0149 20.4519 18.5714 20.1217C18.7978 19.9874 18.8735 19.8742 18.8267 19.7127C18.7924 19.5944 18.7504 19.4783 18.7095 19.362C18.6106 19.081 18.4208 18.8507 18.297 18.5863C18.1964 18.3713 18.0649 18.185 17.9086 18.0112C17.8672 17.9652 17.8211 17.922 17.788 17.8706C17.5219 17.4593 17.1454 17.1775 16.7264 16.9391C16.5644 16.847 16.3623 16.8025 16.2688 16.6155C16.1799 16.4377 16.0122 16.3397 15.879 16.2065C15.7546 16.0822 15.6057 16.0556 15.4451 16.0982C15.2933 16.1385 15.1498 16.2074 15.0169 16.2888C14.7522 16.4506 14.5244 16.6593 14.3001 16.8731C14.2066 16.9622 14.2017 16.9914 14.3149 17.0663C14.5759 17.2392 14.5564 17.5122 14.2863 17.6622C14.2438 17.6859 14.2055 17.6931 14.1734 17.6494C14.1463 17.6122 14.1563 17.577 14.1889 17.5482C14.2137 17.5262 14.2418 17.5079 14.2669 17.4859C14.3787 17.3881 14.3781 17.3155 14.2661 17.2155C14.1137 17.0794 13.9559 17.0823 13.8059 17.2238C13.6661 17.3558 13.7007 17.6082 13.8788 17.6799C14.1237 17.7788 14.3729 17.7897 14.6016 17.6331C14.774 17.515 14.9409 17.3881 15.1038 17.2569C15.3788 17.0351 15.8298 17.042 16.0893 17.2775C16.1251 17.3098 16.1551 17.3487 16.1105 17.3841C16.033 17.4458 16.0233 17.5376 15.9873 17.6179C15.979 17.6279 15.9704 17.6382 15.9621 17.6482C15.9513 17.6582 15.9404 17.6696 15.9593 17.6805C15.963 17.6825 15.9741 17.6719 15.9816 17.6674L15.9819 17.6676ZM17.0929 9.53994C17.0834 9.52622 17.0737 9.51136 17.0566 9.52851C17.0543 9.53079 17.0657 9.54652 17.0708 9.55595C17.082 9.57338 17.0851 9.60482 17.1172 9.58281C17.1183 9.58196 17.1014 9.5548 17.0929 9.53994ZM4.79783 11.6299L4.7984 11.6285C4.76067 11.6573 4.74695 11.6982 4.7398 11.7428H4.74123C4.69379 11.7797 4.69121 11.8345 4.68293 11.8871L4.68435 11.8851C4.65834 11.8968 4.65377 11.9194 4.65406 11.9446L4.65577 11.9426C4.5806 12.0921 4.48942 12.2344 4.45455 12.4013L4.45569 12.3999C4.3851 12.5457 4.36537 12.7072 4.3125 12.8584L4.31335 12.8578C4.25733 12.945 4.24104 13.0456 4.21903 13.1442C4.1996 13.1593 4.19759 13.1802 4.19988 13.2022C4.15472 13.3123 4.13414 13.4263 4.13986 13.5452L4.14129 13.5426C4.06926 13.6672 4.10327 13.8122 4.06526 13.9434C3.99895 14.4981 3.87175 15.0441 3.83231 15.6034C3.80316 16.0184 3.75285 16.432 3.69226 16.8448C3.63481 17.2381 3.72684 17.6213 3.85032 17.9918C3.96808 18.3442 4.12642 18.6786 4.40653 18.9401C4.64262 19.1605 4.92645 19.2997 5.21141 19.4426C5.79793 19.7373 6.41731 19.9174 7.06442 20.0126C7.33652 20.0526 7.6092 20.0797 7.8833 20.1006C8.34291 20.1357 8.80223 20.1546 9.26298 20.1426C9.29985 20.1417 9.33615 20.1237 9.37273 20.1134C9.42247 20.1183 9.47163 20.118 9.5165 20.0909C9.53537 20.0897 9.55395 20.0886 9.57281 20.0874C9.63369 20.0866 9.69772 20.1112 9.75202 20.0626L9.76231 20.0631L9.77232 20.0606C9.88722 20.0509 10.0064 20.0952 10.1176 20.0337V20.0348C10.7801 20.0311 11.443 20.0274 12.1061 20.024C12.1492 20.024 12.1913 20.0223 12.2293 19.9985C12.5168 19.966 12.7723 19.8345 13.0379 19.7347C13.2422 19.6581 13.2962 19.4423 13.4283 19.2983C13.4383 19.2874 13.4332 19.2614 13.4332 19.2425C13.434 19.1093 13.4303 18.9759 13.4363 18.843C13.4426 18.7075 13.394 18.5969 13.3214 18.4845C13.1893 18.2799 13.039 18.0938 12.8672 17.9206C12.7546 17.8071 12.6686 17.6628 12.6643 17.4916C12.658 17.2443 12.8346 17.1266 13.0219 17.04C13.1999 16.9577 13.3831 16.9811 13.5455 17.1077C13.5761 17.1317 13.5938 17.2078 13.6564 17.1543C13.841 16.9974 14.0705 16.9042 14.2423 16.7273C14.5356 16.4252 14.8597 16.1605 15.2553 16.003C15.5468 15.8872 15.7475 15.8758 15.9553 16.0796C16.0162 16.1393 16.0848 16.1914 16.1508 16.2457C16.1845 16.2734 16.2162 16.2997 16.2602 16.2537C16.472 16.033 16.6561 15.7995 16.6353 15.4688C16.6327 15.4288 16.6544 15.3748 16.6064 15.3533C16.5669 15.3359 16.5386 15.3805 16.5106 15.4022C16.2222 15.6234 15.8987 15.6889 15.5414 15.6432C15.3819 15.6229 15.2176 15.6223 15.0569 15.6323C14.4778 15.6683 13.9005 15.7155 13.3188 15.6643C12.8809 15.626 12.4393 15.6766 12.0035 15.5497C11.7196 15.4671 11.4069 15.4917 11.1194 15.4088C10.6281 15.267 10.1996 14.9792 9.72944 14.786C9.50421 14.6934 9.317 14.5261 9.09348 14.4358C8.73963 14.2929 8.43523 14.0774 8.13483 13.8516C8.05651 13.7927 8.01307 13.7038 7.98391 13.6129C7.86987 13.2568 8.12168 12.9767 8.48296 13.0559C8.62216 13.0865 8.76221 13.1153 8.89884 13.1553C9.41332 13.306 9.92009 13.4797 10.4546 13.5609C10.8905 13.6272 11.3163 13.763 11.7525 13.8259C12.363 13.9139 12.9741 13.9965 13.5944 14.0185C14.2438 14.0414 14.8909 14.1414 15.5428 14.084C15.8884 14.0534 16.2448 14.0371 16.5161 13.7801C16.7584 13.5506 16.9251 13.2659 17.0217 12.9475C17.0803 12.7543 17.0903 12.5522 16.9802 12.3665C16.8999 12.231 16.7953 12.1144 16.6876 11.9997C16.6347 11.9434 16.6095 11.9337 16.5641 12.0063C16.3954 12.2761 16.1268 12.2761 15.8538 12.2593C15.8098 12.2564 15.7783 12.233 15.7806 12.1884C15.7826 12.1464 15.8124 12.1189 15.8564 12.1178C15.9278 12.1155 15.9999 12.1215 16.0705 12.1141C16.2122 12.0992 16.3529 12.0778 16.4212 11.9106C16.3068 11.9106 16.2022 11.9149 16.0982 11.9091C16.0242 11.9051 15.9018 11.9386 15.9067 11.8248C15.9115 11.7148 16.0347 11.7419 16.1062 11.7537C16.4698 11.8131 16.6958 11.6199 16.8691 11.3415C16.9451 11.2194 17.0194 11.0857 16.9917 10.901C16.9385 10.9648 16.9031 11.0082 16.8668 11.0511C16.6847 11.2652 16.4606 11.4049 16.1796 11.4524C15.7723 11.521 15.3645 11.4898 14.9563 11.4707C14.6668 11.4573 14.3772 11.4498 14.0991 11.3506C13.9319 11.2909 13.8888 11.2232 13.9122 11.0542C13.9265 10.9519 13.9645 10.8625 14.0214 10.7787C14.2066 10.5072 14.433 10.2677 14.6565 10.0301C14.8206 9.85578 15.0292 9.69543 15.2667 9.64798C15.64 9.57367 16.023 9.57338 16.4006 9.6557C16.5658 9.69171 16.7007 9.76603 16.7893 9.91837C16.845 10.0141 16.9156 10.1013 16.9885 10.2048C17.0611 9.78232 16.968 9.59911 16.6438 9.50307C16.6032 9.49106 16.5601 9.48678 16.5181 9.48049C16.1876 9.43133 15.8552 9.42018 15.5217 9.42247C15.2793 9.42418 15.0504 9.47191 14.8363 9.58967C14.6551 9.68943 14.4939 9.81262 14.3567 9.96725C14.3221 10.0061 14.2849 10.0341 14.2352 9.99269C14.194 9.95839 14.1966 9.9178 14.23 9.88036C14.5039 9.5731 14.8311 9.35101 15.245 9.29127C15.7349 9.22039 16.2214 9.28127 16.7058 9.35901C16.7327 9.3633 16.7647 9.38217 16.779 9.34672C16.7922 9.31414 16.761 9.29699 16.7384 9.28041C16.653 9.21839 16.5629 9.16179 16.4572 9.14693C15.9161 9.06947 15.3785 9.04804 14.86 9.26927C14.8108 9.29013 14.7525 9.31357 14.7242 9.24897C14.6965 9.1858 14.7525 9.15722 14.7991 9.13121C14.8157 9.12207 14.8328 9.11321 14.8503 9.10577C15.2936 8.9157 15.7592 8.93314 16.2254 8.96115C16.2708 8.964 16.3163 8.98716 16.3737 8.95C16.244 8.74249 16.0882 8.56299 15.9053 8.40207C15.7003 8.222 15.4739 8.1494 15.1993 8.1697C14.7725 8.20114 14.3427 8.18999 13.9171 8.23001C13.6261 8.25716 13.3263 8.24716 13.0333 8.36206C13.1116 8.49668 13.1925 8.63016 13.2677 8.76679C13.3608 8.93628 13.4786 9.10091 13.4043 9.313C13.3869 9.3633 13.428 9.38874 13.4517 9.42361C13.5624 9.58624 13.745 9.69429 13.7916 9.9078C13.8276 10.0733 13.8293 10.2376 13.833 10.404C13.8353 10.5003 13.8322 10.5858 13.6844 10.53C13.7427 10.6569 13.7696 10.7718 13.7733 10.8916C13.775 10.9428 13.785 11.0088 13.7107 11.0134C13.6415 11.0177 13.6344 10.9596 13.6292 10.9036C13.6055 10.6552 13.4883 10.4592 13.31 10.2854C13.1188 10.0993 12.9047 9.93695 12.7226 9.74545C12.5014 9.51222 12.2687 9.31786 11.958 9.21896C11.6831 9.1315 11.4227 9.01088 11.1183 9.02546C10.6721 9.04661 10.2248 9.05633 9.77746 9.05947C9.51507 9.06147 9.24497 9.13321 9.03803 9.32014C8.8654 9.4762 8.70705 9.64855 8.54784 9.81891C8.47439 9.89751 8.42208 9.99726 8.48325 10.1024C8.52041 10.1662 8.65074 10.1053 8.7362 9.98811C8.75307 9.96496 8.76936 9.94152 8.78565 9.91809C8.92771 9.71344 9.11006 9.56281 9.3453 9.4722C9.86893 9.27069 10.4177 9.2221 10.9699 9.21296C11.1803 9.20953 11.3967 9.23468 11.5919 9.34301C11.9817 9.55938 12.3585 9.79804 12.7663 9.98411C12.9693 10.0764 13.1245 10.2511 13.2134 10.4674C13.2911 10.6567 13.3717 10.8447 13.4392 11.0374C13.4629 11.1051 13.4975 11.1434 13.5555 11.182C13.733 11.3003 13.7476 11.491 13.5966 11.6408C13.5563 11.6805 13.5118 11.7208 13.4617 11.7451C13.1465 11.8989 12.9152 12.1458 12.6872 12.4039C12.5337 12.5774 12.3487 12.7249 12.1241 12.8075C11.8343 12.9141 11.5373 13.0016 11.2546 13.1273C11.156 13.1711 11.0534 13.1816 10.9476 13.1768C10.8965 13.1745 10.8307 13.1871 10.8344 13.1073C10.8376 13.037 10.8982 13.0316 10.9519 13.0344C11.06 13.0401 11.1571 13.0047 11.2549 12.9653C11.3915 12.9104 11.5253 12.8429 11.667 12.8072C12.1518 12.6846 12.536 12.4219 12.8284 12.0063C12.7263 11.9686 12.6223 11.9686 12.5199 11.9672C11.9534 11.9592 11.3929 11.884 10.8304 11.828C10.4046 11.7857 10.0276 11.653 9.73259 11.3238C9.63541 11.2152 9.51193 11.1291 9.39646 11.0379C9.35044 11.0016 9.28956 10.9756 9.32986 10.9056C9.37216 10.8319 9.43276 10.8699 9.47592 10.9042C9.57996 10.9871 9.68543 11.0702 9.77718 11.1657C10.0144 11.4121 10.2871 11.6036 10.6298 11.6465C11.2137 11.7194 11.7982 11.7968 12.3885 11.8045C12.4645 11.8054 12.5437 11.7968 12.6163 11.814C12.895 11.8803 13.1308 11.7805 13.3554 11.6353C13.4149 11.597 13.4697 11.5493 13.5189 11.4984C13.5598 11.4561 13.5569 11.4007 13.518 11.3558C13.4952 11.3292 13.466 11.2789 13.4277 11.3061C13.2902 11.4041 13.1136 11.3644 12.9698 11.4481C12.8824 11.499 12.78 11.5301 12.6746 11.5481C12.3253 11.6076 11.9837 11.5519 11.6399 11.5021C11.2795 11.4498 10.9473 11.3009 10.5992 11.2074C10.3237 11.1334 10.0676 11.0071 9.87236 10.7813C9.79404 10.6907 9.68114 10.6366 9.56652 10.6038C9.35959 10.5446 9.16437 10.46 8.96944 10.3703C8.83739 10.3094 8.71162 10.2196 8.54156 10.2779C8.43294 10.3151 8.34319 10.2339 8.3209 10.1256C8.29346 9.99269 8.30861 9.85835 8.4075 9.75059C8.52669 9.62112 8.64503 9.49078 8.76936 9.36645C8.89998 9.23554 9.02603 9.10034 9.20953 9.03432C9.52737 8.92027 9.84778 8.85253 10.1879 8.90913C10.2805 8.92456 10.3788 8.9197 10.4732 8.90913C10.875 8.86454 11.2786 8.87654 11.6813 8.86882C11.8563 8.86539 12.0309 8.8874 12.2075 8.87197C12.5934 8.83796 12.9633 8.86854 13.2257 9.21239C13.2322 9.22096 13.2502 9.22096 13.2611 9.22439C13.2968 9.19095 13.2737 9.15722 13.2642 9.12921C13.1768 8.86968 13.0176 8.64817 12.8824 8.41379C12.8532 8.3632 12.8032 8.36777 12.7552 8.37292C12.2553 8.42665 11.7545 8.4741 11.2557 8.53755C10.8302 8.59186 10.4074 8.62502 9.97783 8.57471C9.65684 8.53698 9.3593 8.42837 9.06319 8.3149C8.76993 8.20228 8.48839 8.06366 8.25945 7.83814C8.20943 7.78898 8.17284 7.71581 8.09824 7.70209C7.88587 7.66265 7.69237 7.56861 7.48972 7.50087C7.41512 7.476 7.36796 7.49315 7.3148 7.5486C7.08128 7.79155 6.87606 8.05966 6.66083 8.3169C6.27268 8.78022 5.99 9.31671 5.70875 9.85206C5.52782 10.1965 5.33718 10.5358 5.16854 10.8867C5.05936 11.1137 4.91759 11.3238 4.82612 11.5596C4.80697 11.5793 4.79468 11.6019 4.79697 11.6307L4.79783 11.6299ZM16.8974 9.39246C16.8679 9.37302 16.8308 9.32586 16.8053 9.36359C16.7842 9.39474 16.8419 9.40475 16.8693 9.41904C16.9228 9.45105 16.9671 9.50193 17.0437 9.51393C17.0105 9.43962 16.9525 9.41789 16.8974 9.39246ZM12.349 9.9561C12.0884 9.86635 11.892 9.67171 11.6559 9.54308C11.569 9.49564 11.4804 9.44991 11.3821 9.4239C11.0865 9.34587 10.789 9.36044 10.49 9.39188C10.1353 9.42933 9.78375 9.47392 9.4439 9.59653C9.18752 9.68914 9.00859 9.85949 8.85882 10.0747C8.82967 10.1164 8.83167 10.1456 8.87769 10.1642C8.95143 10.1939 9.02117 10.2305 9.10777 10.1825C9.17266 10.1467 9.2504 10.1299 9.32472 10.1162C9.65227 10.0553 9.98411 10.0258 10.316 10.007C10.9902 9.96868 11.667 10.0476 12.3487 9.9561H12.349ZM11.8474 11.3718C12.2453 11.443 12.6234 11.455 12.9884 11.2803C13.0562 11.248 13.131 11.2166 13.2042 11.2129C13.3117 11.2077 13.3254 11.1631 13.2917 11.0782C13.2131 10.8799 13.1476 10.6744 13.0504 10.4857C12.9467 10.2845 12.8038 10.1087 12.5405 10.1196C12.3296 10.1282 12.1189 10.1419 11.8983 10.1539C12.1755 10.4371 12.0849 11.0505 11.8477 11.3718H11.8474ZM11.9254 9.03117C11.9749 9.08748 12.0295 9.09177 12.0763 9.10978C12.2541 9.17809 12.4376 9.23868 12.5711 9.38302C12.9212 9.76145 13.3637 10.0459 13.6827 10.5006C13.6921 10.2159 13.7133 9.9561 13.5383 9.75259C13.3537 9.53765 13.1413 9.34615 12.9373 9.14779C12.8601 9.07262 12.7592 9.0346 12.6523 9.0326C12.4153 9.02803 12.1781 9.03117 11.9257 9.03117H11.9254ZM16.9971 10.5235C16.9971 10.4883 17.0028 10.4703 16.9962 10.4612C16.8556 10.2705 16.7156 10.0793 16.5709 9.89179C16.5392 9.85063 16.4829 9.83806 16.432 9.82405C16.0573 9.72087 15.6792 9.73402 15.3019 9.79833C15.157 9.82319 15.0529 9.93181 14.9389 10.0196C15.2121 10.0158 15.4768 10.0544 15.7429 10.0647C15.9621 10.0733 16.1794 10.1007 16.3691 10.2288C16.5592 10.3571 16.7733 10.4343 16.9977 10.5229L16.9971 10.5235ZM15.9613 11.3152C16.2005 11.3023 16.4054 11.2529 16.5841 11.1128C16.6938 11.0268 16.7739 10.9142 16.8699 10.8159C16.9668 10.7164 16.9608 10.6772 16.831 10.6252C16.6235 10.5423 16.422 10.4494 16.2322 10.3308C16.1485 10.2785 16.0533 10.2491 15.937 10.2351C16.1885 10.5918 16.2448 10.9451 15.9616 11.3152H15.9613ZM14.4273 18.4102C14.7022 18.2187 14.9197 17.9923 15.1412 17.7728C15.2787 17.6368 15.4374 17.5173 15.5345 17.3432C15.55 17.3158 15.5897 17.2918 15.5671 17.2566C15.5428 17.2189 15.4974 17.2323 15.4622 17.2381C15.3185 17.2615 15.2213 17.3641 15.1112 17.4467C14.888 17.6142 14.6845 17.8143 14.4021 17.8866C14.3732 17.894 14.3355 17.9026 14.3515 17.9375C14.4175 18.0824 14.3827 18.2453 14.4273 18.4108V18.4102ZM14.7457 18.7972C14.8686 18.4948 15.0038 18.2007 15.3016 18.0612C15.5626 17.9392 15.7006 17.7222 15.8598 17.5133C15.879 17.4881 15.8867 17.4527 15.8935 17.4207C15.9055 17.3624 15.8852 17.3218 15.8255 17.2978C15.7649 17.2735 15.74 17.3064 15.7115 17.3492C15.4442 17.75 15.0684 18.0472 14.7211 18.3699C14.477 18.5966 14.4673 18.5906 14.7382 18.7961C14.7414 18.7984 14.7471 18.7975 14.7457 18.7972ZM10.3071 10.1619C9.92752 10.1888 9.57738 10.2173 9.20553 10.2991C9.48306 10.4494 9.78146 10.4697 9.99898 10.6827C10.0404 10.476 10.1536 10.326 10.3074 10.1619H10.3071ZM11.425 10.9219C11.6082 10.921 11.7171 10.8184 11.7142 10.6495C11.7125 10.5435 11.617 10.462 11.4933 10.46C11.3441 10.4577 11.19 10.5903 11.1892 10.7218C11.1883 10.8404 11.2852 10.9228 11.4252 10.9222L11.425 10.9219ZM14.4987 10.4574C14.405 10.5555 14.3306 10.6204 14.2723 10.6972C14.1846 10.8127 14.0851 10.9228 14.0663 11.0785C14.0597 11.1323 14.0588 11.1811 14.114 11.1934C14.2157 11.216 14.3126 11.2669 14.4275 11.264C14.3901 11.1297 14.3747 11.0082 14.3967 10.8773C14.4181 10.7481 14.4773 10.6284 14.4987 10.4577V10.4574ZM15.8501 10.7847C15.8527 10.6398 15.7892 10.5789 15.6246 10.5801C15.4965 10.5809 15.4768 10.6844 15.4668 10.7778C15.4542 10.8967 15.5334 10.9713 15.656 10.9731C15.7869 10.9748 15.8481 10.9156 15.8504 10.7847H15.8501ZM10.7607 10.3794C10.7484 10.3097 10.6952 10.2708 10.6332 10.2714C10.5606 10.2719 10.508 10.3225 10.5115 10.4003C10.5146 10.4706 10.5603 10.5123 10.6338 10.508C10.7107 10.5035 10.753 10.4592 10.7607 10.3794ZM10.8076 10.8076C10.8113 10.7404 10.7859 10.6887 10.7144 10.6935C10.6504 10.6978 10.5932 10.7347 10.5889 10.807C10.5849 10.8725 10.6249 10.913 10.6924 10.9176C10.7701 10.923 10.8044 10.8807 10.8076 10.8076ZM14.9289 10.3966C14.8594 10.4126 14.8248 10.4606 14.8248 10.5289C14.8248 10.5875 14.8591 10.6321 14.92 10.6315C14.992 10.6309 15.0312 10.5809 15.0346 10.5123C15.0381 10.4443 14.992 10.4123 14.9289 10.3968V10.3966ZM15.0492 10.9934C15.0492 10.923 15.0172 10.8922 14.952 10.8933C14.8874 10.8945 14.8523 10.9285 14.8543 10.9902C14.8563 11.0488 14.8877 11.088 14.9535 11.0877C15.0201 11.0874 15.0446 11.0477 15.0492 10.9936V10.9934Z" fill="#070904"/>
<path d="M16.8283 14.8525C16.8292 14.902 16.83 14.9511 16.8309 15.0006C16.8223 15.0109 16.8137 15.0212 16.8051 15.0315C16.7657 15.0306 16.726 15.0298 16.6865 15.0292C16.7071 14.9489 16.7723 14.9043 16.8286 14.8528L16.8283 14.8525Z" fill="#100503"/>
<path d="M4.19988 13.2018C4.1976 13.1795 4.1996 13.1587 4.21904 13.1438C4.3165 13.0701 4.31822 12.9649 4.31336 12.8574L4.3125 12.858C4.44398 12.7314 4.44426 12.5639 4.4557 12.3995L4.45455 12.4009C4.55717 12.2637 4.65635 12.1245 4.65578 11.9422C4.65578 11.9422 4.65406 11.9442 4.65435 11.9442C4.68064 11.9328 4.68493 11.9099 4.68464 11.8847L4.68321 11.8867C4.75324 11.859 4.74381 11.7993 4.74152 11.7424H4.74009C4.81927 11.7347 4.79611 11.6749 4.79869 11.6281L4.79812 11.6295C4.82756 11.6141 4.82698 11.5861 4.82727 11.5586C4.91873 11.3228 5.06079 11.1127 5.16969 10.8858C5.33832 10.5351 5.52897 10.1955 5.7099 9.8511C5.99086 9.31575 6.27383 8.77954 6.66198 8.31593C6.87749 8.05869 7.08271 7.79059 7.31594 7.54764C7.36911 7.49219 7.41627 7.47504 7.49087 7.49991C7.69352 7.56736 7.88702 7.66168 8.09939 7.70113C8.1737 7.71485 8.21058 7.78802 8.26059 7.83718C8.48954 8.06269 8.77108 8.20132 9.06433 8.31393C9.36045 8.42769 9.65771 8.53602 9.97897 8.57375C10.4086 8.62405 10.8313 8.5909 11.2569 8.53659C11.7557 8.47314 12.2564 8.42569 12.7563 8.37196C12.8041 8.36681 12.8544 8.36224 12.8835 8.41283C13.0187 8.64721 13.1779 8.86901 13.2654 9.12825C13.2748 9.15626 13.2977 9.18999 13.2622 9.22343C13.2514 9.22 13.2334 9.22 13.2268 9.21142C12.9644 8.86758 12.5948 8.83699 12.2087 8.87101C12.0318 8.88644 11.8571 8.86472 11.6825 8.86786C11.2798 8.87529 10.8762 8.86357 10.4743 8.90816C10.3803 8.91845 10.2817 8.9236 10.1891 8.90816C9.84892 8.85157 9.52851 8.91902 9.21068 9.03335C9.02718 9.09909 8.90113 9.23458 8.77051 9.36548C8.64617 9.48982 8.52784 9.62015 8.40865 9.74963C8.30947 9.85739 8.29461 9.99201 8.32205 10.1246C8.34434 10.233 8.43438 10.3141 8.5427 10.277C8.71277 10.2187 8.83825 10.3087 8.97058 10.3693C9.16551 10.459 9.36073 10.5437 9.56767 10.6028C9.68229 10.6357 9.79519 10.6897 9.8735 10.7803C10.0687 11.0061 10.3245 11.1324 10.6004 11.2065C10.9485 11.2999 11.2806 11.4489 11.641 11.5012C11.9852 11.5512 12.3267 11.6069 12.6757 11.5472C12.7812 11.5292 12.8835 11.4983 12.971 11.4471C13.1148 11.3634 13.2914 11.4031 13.4289 11.3051C13.4672 11.2779 13.4963 11.3282 13.5192 11.3548C13.5581 11.4 13.5609 11.4551 13.5201 11.4974C13.4709 11.5483 13.416 11.5961 13.3566 11.6344C13.1316 11.7796 12.8961 11.8793 12.6174 11.813C12.5448 11.7958 12.4656 11.8044 12.3896 11.8036C11.7994 11.7958 11.2149 11.7184 10.6309 11.6455C10.2882 11.6029 10.0156 11.4114 9.77832 11.1647C9.68629 11.0693 9.5811 10.9858 9.47706 10.9032C9.43419 10.8689 9.37331 10.8309 9.33101 10.9046C9.29071 10.9747 9.35159 11.0007 9.3976 11.037C9.51308 11.1282 9.63655 11.2142 9.73373 11.3228C10.0287 11.6521 10.4057 11.7847 10.8316 11.827C11.3941 11.883 11.9546 11.9582 12.5211 11.9662C12.6234 11.9676 12.7275 11.9676 12.8295 12.0054C12.5368 12.4209 12.153 12.6836 11.6682 12.8062C11.5264 12.842 11.3927 12.9094 11.256 12.9643C11.1586 13.0035 11.0614 13.0392 10.9531 13.0335C10.899 13.0306 10.8387 13.036 10.8356 13.1064C10.8319 13.1861 10.8979 13.1735 10.9488 13.1758C11.0545 13.1807 11.1571 13.1704 11.2558 13.1264C11.5384 13.0006 11.8354 12.9131 12.1252 12.8065C12.3499 12.7239 12.5348 12.5764 12.6883 12.4029C12.9164 12.1448 13.1476 11.8979 13.4629 11.7441C13.5129 11.7195 13.5575 11.6795 13.5978 11.6398C13.749 11.49 13.7344 11.2991 13.5566 11.181C13.4986 11.1425 13.464 11.1042 13.4403 11.0364C13.3729 10.8438 13.2923 10.6554 13.2145 10.4665C13.1256 10.2501 12.9701 10.0758 12.7675 9.98315C12.3596 9.79708 11.9826 9.5587 11.593 9.34205C11.3978 9.23372 11.1817 9.20828 10.9711 9.21199C10.4189 9.22114 9.87007 9.26973 9.34644 9.47124C9.11092 9.56184 8.92857 9.71247 8.7868 9.91712C8.77051 9.94056 8.75421 9.964 8.73735 9.98715C8.65189 10.1046 8.52155 10.1655 8.4844 10.1015C8.42323 9.9963 8.47553 9.89654 8.54899 9.81794C8.7082 9.64759 8.86654 9.47524 9.03918 9.31918C9.24612 9.13225 9.51622 9.06051 9.77861 9.05851C10.2259 9.05536 10.6732 9.04564 11.1194 9.02449C11.4235 9.00992 11.6842 9.13053 11.9592 9.218C12.2699 9.31689 12.5022 9.51125 12.7237 9.74449C12.9055 9.93599 13.1199 10.0983 13.3111 10.2844C13.4895 10.4579 13.6067 10.6543 13.6304 10.9026C13.6358 10.9587 13.6427 11.0167 13.7118 11.0124C13.7862 11.0078 13.7762 10.9418 13.7744 10.8906C13.7707 10.7712 13.7439 10.656 13.6855 10.5291C13.8333 10.5848 13.8365 10.4993 13.8342 10.403C13.8302 10.2367 13.8287 10.0723 13.7927 9.90683C13.7461 9.69304 13.5635 9.58528 13.4529 9.42265C13.4292 9.38778 13.3877 9.36234 13.4054 9.31203C13.4795 9.09995 13.362 8.93532 13.2688 8.76582C13.1936 8.6292 13.1128 8.49572 13.0344 8.36109C13.3274 8.24619 13.6272 8.2562 13.9182 8.22904C14.3438 8.18903 14.774 8.20046 15.2004 8.16874C15.4754 8.14844 15.7018 8.22104 15.9064 8.40111C16.0893 8.56203 16.2448 8.74153 16.3749 8.94904C16.3174 8.98648 16.272 8.96304 16.2265 8.96018C15.7601 8.93217 15.2947 8.91474 14.8514 9.10481C14.834 9.11224 14.8168 9.1211 14.8003 9.13025C14.7537 9.15626 14.6976 9.18484 14.7254 9.24801C14.7537 9.3126 14.812 9.28945 14.8611 9.2683C15.3796 9.04679 15.9173 9.06851 16.4583 9.14597C16.5641 9.16112 16.6541 9.21743 16.7396 9.27945C16.7622 9.29603 16.7933 9.31318 16.7802 9.34576C16.7659 9.38149 16.7342 9.36262 16.707 9.35805C16.2225 9.28031 15.7361 9.21943 15.2461 9.29031C14.8323 9.35005 14.505 9.57213 14.2312 9.87939C14.1977 9.91684 14.1952 9.95742 14.2363 9.99172C14.2861 10.0332 14.3232 10.0052 14.3578 9.96629C14.495 9.81165 14.6562 9.68846 14.8374 9.58871C15.0515 9.47067 15.2804 9.42322 15.5228 9.4215C15.8564 9.41922 16.1888 9.43036 16.5192 9.47953C16.5615 9.48581 16.6044 9.4901 16.645 9.50211C16.9688 9.59814 17.0623 9.78136 16.9897 10.2038C16.9171 10.1003 16.8462 10.0132 16.7905 9.91741C16.7019 9.76507 16.5669 9.69075 16.4017 9.65474C16.0242 9.57271 15.6412 9.5727 15.2679 9.64702C15.0303 9.69447 14.8217 9.85481 14.6576 10.0292C14.4341 10.2667 14.2077 10.5059 14.0225 10.7777C13.9657 10.8612 13.9276 10.951 13.9133 11.0533C13.8896 11.2225 13.9331 11.2902 14.1003 11.3497C14.3784 11.4489 14.6679 11.4563 14.9575 11.4697C15.3656 11.4889 15.7735 11.52 16.1808 11.4514C16.4618 11.404 16.6858 11.2645 16.8679 11.0501C16.9042 11.0073 16.9399 10.9638 16.9928 10.9001C17.0205 11.0847 16.9459 11.2185 16.8702 11.3405C16.6973 11.6189 16.4709 11.8121 16.1073 11.7527C16.0356 11.741 15.9124 11.7138 15.9078 11.8239C15.903 11.9376 16.0253 11.9042 16.0993 11.9082C16.2034 11.9139 16.308 11.9096 16.4223 11.9096C16.3543 12.0768 16.2134 12.0985 16.0716 12.1131C16.001 12.1205 15.929 12.1145 15.8575 12.1168C15.8132 12.1183 15.7838 12.1457 15.7818 12.1874C15.7795 12.232 15.8112 12.2555 15.855 12.2583C16.1279 12.2752 16.3963 12.2752 16.5652 12.0054C16.6107 11.9328 16.6358 11.9425 16.6887 11.9988C16.7965 12.1137 16.9011 12.23 16.9814 12.3655C17.0914 12.5513 17.0817 12.7534 17.0228 12.9466C16.9262 13.265 16.7593 13.5497 16.5172 13.7792C16.246 14.0361 15.8895 14.0527 15.544 14.083C14.8917 14.1405 14.2449 14.0404 13.5955 14.0176C12.975 13.9958 12.3642 13.913 11.7537 13.8249C11.3172 13.762 10.8916 13.6263 10.4557 13.56C9.92124 13.4785 9.41447 13.3047 8.89998 13.1544C8.76336 13.1144 8.62331 13.0855 8.48411 13.0549C8.12283 12.9757 7.87102 13.2558 7.98506 13.612C8.01393 13.7026 8.05766 13.7915 8.13597 13.8506C8.43609 14.0764 8.74078 14.292 9.09463 14.4349C9.31815 14.5252 9.50507 14.6924 9.73059 14.785C10.2008 14.9779 10.6292 15.266 11.1206 15.4078C11.4081 15.4907 11.7208 15.4661 12.0046 15.5487C12.4405 15.6756 12.8821 15.6248 13.32 15.6633C13.9016 15.7145 14.479 15.6673 15.0581 15.6313C15.219 15.6213 15.3831 15.6219 15.5425 15.6422C15.8995 15.6879 16.2231 15.6225 16.5118 15.4012C16.5401 15.3795 16.5684 15.3346 16.6075 15.3524C16.6555 15.3738 16.6338 15.4278 16.6364 15.4678C16.6573 15.7988 16.4732 16.0321 16.2614 16.2527C16.2174 16.2984 16.1857 16.2721 16.1519 16.2447C16.0859 16.1904 16.0173 16.1381 15.9564 16.0786C15.7483 15.8749 15.5477 15.8863 15.2564 16.002C14.8609 16.1592 14.5367 16.4242 14.2435 16.7263C14.0717 16.9032 13.8422 16.9964 13.6575 17.1533C13.5949 17.2065 13.5772 17.1308 13.5466 17.1068C13.3843 16.9801 13.2014 16.9567 13.023 17.039C12.8358 17.1256 12.6591 17.2434 12.6654 17.4906C12.6697 17.6618 12.756 17.8062 12.8684 17.9196C13.0404 18.0931 13.1905 18.2789 13.3225 18.4836C13.3951 18.5959 13.4437 18.7062 13.4374 18.842C13.4312 18.9749 13.4352 19.1084 13.4343 19.2416C13.4343 19.2604 13.4394 19.2865 13.4294 19.2973C13.2974 19.4414 13.2431 19.6572 13.039 19.7338C12.7735 19.8335 12.518 19.965 12.2304 19.9976C12.1858 19.9567 12.1312 19.9753 12.0806 19.973C11.6356 19.9544 11.1923 20.0187 10.7473 20.0022C10.5815 19.9959 10.4154 20.0002 10.2496 20.0019C10.2045 20.0024 10.153 19.9859 10.1185 20.0336L10.1187 20.0325C10.0038 20.0419 9.88465 19.9984 9.77346 20.0593L9.76346 20.0619C9.76346 20.0619 9.75317 20.0613 9.75317 20.061C9.69286 20.0653 9.62798 20.0362 9.57396 20.0859C9.55509 20.087 9.53652 20.0882 9.51765 20.0893C9.46191 20.0465 9.40961 20.0276 9.37388 20.1119C9.3373 20.1219 9.301 20.1399 9.26412 20.1411C8.80366 20.1528 8.34406 20.1342 7.88445 20.0991C7.61034 20.0782 7.33738 20.051 7.06556 20.011C6.41846 19.9158 5.79936 19.7361 5.21256 19.4411C4.92788 19.2979 4.64377 19.159 4.40768 18.9386C4.12786 18.6771 3.96922 18.3429 3.85146 17.9902C3.72799 17.6198 3.63567 17.2365 3.6934 16.8432C3.75371 16.4308 3.8043 16.0169 3.83346 15.6019C3.8729 15.0422 4.00009 14.4966 4.0664 13.9418C4.14901 13.8192 4.14043 13.6791 4.14243 13.5411L4.14101 13.5437C4.17816 13.4325 4.23733 13.325 4.20103 13.2007L4.19988 13.2018ZM14.8426 12.0222C14.9166 12.0325 14.9537 12.0385 14.9909 12.0425C15.1481 12.0605 15.3036 12.0485 15.4545 12.0011C15.5005 11.9865 15.5448 11.9562 15.5254 11.8965C15.5094 11.8476 15.4688 11.8393 15.4208 11.8522C15.0315 11.9562 14.6708 11.8422 14.3135 11.7041C14.2503 11.6798 14.1717 11.6109 14.1311 11.7072C14.094 11.7953 14.1983 11.8141 14.2529 11.8522C14.2643 11.8602 14.2792 11.8627 14.2921 11.8687C14.5496 11.9874 14.7743 12.144 14.9492 12.3749C15.0658 12.529 15.221 12.6528 15.3087 12.8311C15.3276 12.8697 15.3645 12.9037 15.4134 12.8774C15.4682 12.848 15.4565 12.8011 15.4342 12.7539C15.3976 12.6762 15.3513 12.6047 15.2947 12.5401C15.1521 12.3766 15.0095 12.2132 14.8426 12.0219V12.0222ZM8.7162 12.7128C8.60387 12.7251 8.49011 12.7348 8.37692 12.7499C8.08052 12.7902 7.83329 12.9171 7.66265 13.1704C7.63178 13.2161 7.59405 13.2773 7.65865 13.3222C7.7321 13.373 7.75783 13.2999 7.78613 13.2547C7.90817 13.0606 8.08624 12.954 8.30918 12.9206C8.45467 12.8988 8.6033 12.8943 8.74621 12.8631C8.81166 12.8488 8.94314 12.9369 8.93743 12.7991C8.932 12.6625 8.79509 12.7385 8.71591 12.7125L8.7162 12.7128ZM8.73735 12.2869C8.73049 12.2157 8.68076 12.2037 8.62502 12.21C8.48897 12.2254 8.35034 12.2249 8.21886 12.2686C8.16541 12.2863 8.11368 12.3112 8.06452 12.3389C8.02679 12.3604 8.02022 12.4007 8.03565 12.439C8.05223 12.4807 8.08939 12.497 8.12854 12.4761C8.28832 12.3915 8.46153 12.3764 8.63703 12.3655C8.68476 12.3626 8.73192 12.3483 8.73764 12.2866L8.73735 12.2869Z" fill="#4F7E3B"/>
<path d="M13.4861 3.3999C13.5055 3.3999 13.525 3.3999 13.5444 3.3999C13.8279 3.44764 14.1178 3.40276 14.4005 3.45878H14.4013C14.4731 3.49451 14.5528 3.49823 14.6297 3.51309C14.644 3.51595 14.6583 3.51852 14.6726 3.52138C14.7266 3.56682 14.7903 3.58483 14.8592 3.58969C15.4423 3.77262 15.8627 4.15276 16.1717 4.66925C16.3229 4.92192 16.2972 5.21089 16.3446 5.48499C16.449 6.0858 16.4347 6.69832 16.5264 7.29998C16.535 7.35571 16.5399 7.39573 16.4681 7.39716C16.3212 7.30569 16.1486 7.31484 15.9888 7.27483C15.6015 7.17765 15.2128 7.08618 14.8095 7.08761C14.5145 7.08875 14.2198 7.09133 13.9248 7.08875C13.4724 7.08504 13.0234 7.11648 12.5735 7.17221C12.229 7.21509 11.8855 7.26568 11.5456 7.32713C10.9711 7.43117 10.4072 7.59123 9.82812 7.67698C9.49056 7.727 9.15529 7.73872 8.82631 7.62582C8.8083 7.61953 8.79086 7.61124 8.77229 7.60724C8.73513 7.59952 8.69197 7.58809 8.6691 7.62868C8.64338 7.67469 8.67425 7.70985 8.70769 7.73929C8.72541 7.75501 8.74513 7.76873 8.76485 7.78188C9.25847 8.11143 9.81497 8.21805 10.3935 8.21576C10.9025 8.21376 11.4033 8.10629 11.9086 8.05398C12.5214 7.99053 13.1248 7.85877 13.7439 7.8279C14.616 7.78474 15.4817 7.79388 16.3466 7.92879C16.8254 8.00368 17.2873 8.16288 17.7729 8.19718C17.7886 8.19975 17.8046 8.20233 17.8203 8.20518C17.8566 8.2352 17.8989 8.2492 17.9453 8.25149C17.9601 8.2552 17.975 8.25892 17.9898 8.26235C18.0033 8.26921 18.0167 8.27578 18.0299 8.28264C18.2279 8.38611 18.4151 8.50673 18.5972 8.63564C18.755 8.74739 18.8485 8.89088 18.8327 9.09238C18.8219 9.23215 18.7407 9.28703 18.6089 9.23272C18.4117 9.15126 18.2159 9.06666 18.0216 8.97863C17.6834 8.82542 17.3262 8.72539 16.9752 8.60963C16.7888 8.54817 16.5859 8.55332 16.3955 8.5839C16.2746 8.60334 16.2083 8.57476 16.1477 8.48558C16.1374 8.47529 16.1274 8.46528 16.1171 8.455L16.1185 8.45642C16.1085 8.44642 16.0985 8.43642 16.0882 8.42641L16.0897 8.42784C16.0797 8.41812 16.0694 8.40812 16.0594 8.3984L16.0605 8.39955C16.0502 8.39011 16.0402 8.38039 16.0302 8.37096L16.0308 8.37153C16.0134 8.33781 15.9879 8.31437 15.9485 8.30951V8.31208C15.9376 8.30294 15.927 8.2935 15.9162 8.28436L15.9176 8.2855C15.9073 8.27721 15.897 8.26892 15.887 8.26035L15.8839 8.25806C15.907 8.21405 15.9491 8.22634 15.9851 8.22605C16.1466 8.22576 16.3072 8.22862 16.4681 8.25549C16.8751 8.32323 17.2781 8.39497 17.6643 8.55418C17.8495 8.63049 18.0293 8.71138 18.2008 8.81342C18.2342 8.83343 18.2771 8.85143 18.3031 8.81142C18.3357 8.76083 18.2905 8.73768 18.2537 8.71338C18.0067 8.54989 17.7366 8.43727 17.4553 8.3501C16.8888 8.1746 16.3055 8.11 15.7155 8.08828C15.6992 8.08628 15.6832 8.08457 15.6669 8.08285C15.6301 8.05313 15.5872 8.05884 15.5446 8.06227C15.4683 8.06027 15.3923 8.05856 15.316 8.05656C15.2582 8.02626 15.2005 8.0294 15.1433 8.05798C15.1242 8.05941 15.1047 8.06084 15.0856 8.06227C14.9724 8.06399 14.8592 8.06542 14.746 8.06713C14.7074 8.06913 14.6688 8.07142 14.6305 8.07342C14.3816 8.07914 14.1318 8.07628 13.8837 8.09343C13.7025 8.106 13.523 8.14459 13.3426 8.17146C13.3235 8.17317 13.3046 8.17489 13.2855 8.1766C13.1963 8.17775 13.1111 8.19747 13.0285 8.22948C13.0093 8.23119 12.9902 8.23291 12.9708 8.23491C12.779 8.23491 12.5889 8.25292 12.4003 8.28722C12.3808 8.28865 12.3614 8.29036 12.3422 8.29179C12.3168 8.28807 12.2931 8.29065 12.2742 8.31065C12.2591 8.31323 12.2442 8.31551 12.229 8.31808C12.1533 8.33066 12.0738 8.31265 12.0007 8.34552C11.9718 8.34581 11.9429 8.34638 11.9141 8.34667C11.7674 8.33724 11.6262 8.36382 11.4873 8.40783C11.449 8.40983 11.4107 8.41155 11.3721 8.41355C11.2352 8.39926 11.1029 8.42527 10.9717 8.45985C10.9523 8.46043 10.9328 8.461 10.9137 8.46186C10.8762 8.463 10.8391 8.46443 10.8016 8.46557C10.7533 8.47357 10.705 8.48129 10.6567 8.48929C10.4667 8.47929 10.2754 8.4973 10.0862 8.46528C10.0574 8.463 10.0288 8.46071 9.9999 8.45871C9.86642 8.43127 9.73294 8.40383 9.59975 8.37668C9.35108 8.27035 9.08641 8.20633 8.84431 8.08285C8.62366 7.97052 8.40386 7.85705 8.25237 7.64983C8.22693 7.61496 8.19149 7.58523 8.14833 7.57866C7.89337 7.54007 7.66957 7.40116 7.41462 7.35629C7.2537 7.32799 7.12622 7.21566 7.00903 7.10219C6.92786 7.02359 6.92643 6.92212 6.94587 6.82237C7.03104 6.3842 7.12908 5.94917 7.28285 5.52872C7.31458 5.44183 7.3766 5.37495 7.42348 5.29863C7.64213 4.94335 7.94425 4.67925 8.31497 4.49175C8.3767 4.48604 8.43673 4.47575 8.4836 4.42973L8.48475 4.42916C8.53019 4.42544 8.57106 4.41115 8.60279 4.37656V4.37828C9.01981 4.27167 9.43911 4.17306 9.85327 4.05587C10.1122 3.9827 10.3798 3.93811 10.6293 3.83235C10.6479 3.8295 10.6662 3.82664 10.6847 3.82407C10.7956 3.80349 10.9125 3.80863 11.0152 3.74975C11.0292 3.74861 11.0432 3.74746 11.0569 3.74604C11.1566 3.74832 11.2515 3.72803 11.3424 3.68744C11.3519 3.6863 11.3616 3.68487 11.371 3.68373C11.4122 3.68859 11.4519 3.68716 11.4859 3.65886C11.5048 3.65714 11.5233 3.65572 11.5422 3.654C11.6494 3.65743 11.7451 3.61627 11.8418 3.57797C11.8469 3.58254 11.8518 3.58254 11.8566 3.57769C11.9441 3.57826 12.0301 3.56882 12.113 3.53853C12.1324 3.53681 12.1516 3.5351 12.171 3.53338C12.3039 3.51538 12.4368 3.49708 12.5697 3.47908C12.5983 3.47422 12.6272 3.46907 12.6558 3.46421C12.7161 3.46564 12.7761 3.46621 12.829 3.4302C12.8481 3.42906 12.8673 3.42763 12.8864 3.42648L12.9004 3.42848L12.9139 3.42363C12.9616 3.41934 13.0096 3.41505 13.0574 3.41076C13.2 3.40733 13.3426 3.40362 13.4852 3.3999H13.4861Z" fill="#B43933"/>
<path d="M15.9862 17.6182C16.0225 17.5379 16.0322 17.4462 16.1097 17.3844C16.154 17.349 16.1242 17.3104 16.0885 17.2778C15.829 17.0423 15.378 17.0354 15.103 17.2572C14.9404 17.3884 14.7734 17.5153 14.6008 17.6334C14.3721 17.79 14.1229 17.7791 13.878 17.6802C13.6999 17.6085 13.6653 17.3561 13.8051 17.2241C13.9548 17.0826 14.1129 17.0797 14.2652 17.2158C14.3773 17.3158 14.3776 17.3887 14.2661 17.4862C14.2409 17.5082 14.2129 17.5265 14.1881 17.5485C14.1555 17.5773 14.1455 17.6122 14.1726 17.6497C14.2046 17.6934 14.2429 17.6862 14.2855 17.6625C14.5556 17.5125 14.5751 17.2395 14.3141 17.0666C14.2009 16.9917 14.2058 16.9623 14.2993 16.8734C14.5236 16.6593 14.7514 16.4509 15.0161 16.2891C15.149 16.208 15.2925 16.1388 15.4443 16.0985C15.6049 16.0559 15.7538 16.0825 15.8782 16.2068C16.0113 16.34 16.1791 16.4381 16.268 16.6158C16.3615 16.8025 16.5636 16.8474 16.7256 16.9394C17.1446 17.1775 17.5211 17.4596 17.7872 17.8709C17.8203 17.9223 17.8663 17.9655 17.9078 18.0115C18.0641 18.185 18.1953 18.3717 18.2962 18.5866C18.4203 18.851 18.6101 19.0811 18.7087 19.3623C18.7495 19.4787 18.7916 19.5947 18.8259 19.713C18.8727 19.8745 18.797 19.9877 18.5706 20.122C18.0138 20.4522 17.4105 20.6285 16.7656 20.6025C16.2357 20.5811 15.7029 20.5911 15.1765 20.4959C14.9201 20.4496 14.6997 20.3401 14.4922 20.1944C14.3015 20.0603 14.1212 19.9071 13.9091 19.8099C13.7256 19.7259 13.6501 19.5753 13.611 19.4026C13.5787 19.2606 13.5635 19.1134 13.5847 18.9636C13.6144 18.7547 13.5638 18.5712 13.4404 18.3874C13.304 18.1842 13.1562 17.9969 12.9822 17.8269C12.9359 17.7817 12.9053 17.7185 12.8733 17.6605C12.7744 17.4802 12.805 17.3621 12.979 17.2372C13.1551 17.1109 13.3452 17.1143 13.4672 17.2501C13.5141 17.3021 13.5638 17.3507 13.5735 17.4302C13.6078 17.7143 13.7596 17.8666 14.0454 17.8835C14.1538 17.8898 14.2001 17.9298 14.2187 18.0261C14.2295 18.0821 14.2572 18.1384 14.2532 18.1927C14.2332 18.4611 14.3581 18.6603 14.5485 18.8273C14.7554 19.0088 14.9669 19.1848 15.1765 19.3632C15.3182 19.4838 15.4851 19.5292 15.6669 19.5181C15.747 19.5132 15.7875 19.5347 15.8064 19.6176C15.8353 19.743 15.9179 19.8331 16.0451 19.8568C16.2492 19.8951 16.4552 19.9463 16.6633 19.8814C16.7105 19.8668 16.7416 19.8577 16.7562 19.9205C16.8317 20.2432 17.369 20.2064 17.5485 19.9994C17.7437 19.7745 17.9395 19.5498 18.1365 19.3266C18.1733 19.2849 18.1888 19.2454 18.145 19.2028C18.1039 19.1628 18.063 19.1845 18.033 19.2177C17.9278 19.3337 17.8183 19.4469 17.7246 19.5721C17.6357 19.691 17.5376 19.8008 17.433 19.9042C17.3127 20.0229 17.1592 20.0352 17.0063 19.992C16.8622 19.9514 16.8137 19.7033 16.9337 19.6024C17.1501 19.4203 17.3207 19.1968 17.5142 18.9945C17.5539 18.953 17.6091 18.9059 17.5514 18.851C17.4919 18.7947 17.4456 18.857 17.4099 18.8976C17.1775 19.1608 16.9103 19.3923 16.7005 19.6759C16.6559 19.7362 16.5899 19.7468 16.5227 19.7479C16.3752 19.7505 16.2283 19.7448 16.0834 19.7133C15.9716 19.689 15.8927 19.5307 15.9499 19.3992C16.0985 19.0571 16.2746 18.7324 16.6059 18.5257C16.6299 18.5109 16.6542 18.4943 16.6725 18.4731C16.6965 18.4451 16.7276 18.4134 16.6959 18.3728C16.663 18.3305 16.6207 18.3374 16.581 18.3619C16.4224 18.46 16.2637 18.5646 16.1643 18.7241C16.0491 18.9087 15.8964 19.0714 15.8296 19.2849C15.8041 19.3663 15.7287 19.3678 15.6655 19.3726C15.3917 19.394 14.9861 19.0816 14.9284 18.8127C14.9172 18.7609 14.9289 18.7164 14.9538 18.6766C15.0953 18.4514 15.2316 18.2282 15.5023 18.1207C15.8962 17.9644 16.2066 17.6757 16.537 17.421C16.579 17.3887 16.6507 17.3515 16.5993 17.2864C16.5464 17.2195 16.4872 17.2712 16.4387 17.309C16.296 17.4193 16.1545 17.531 16.0128 17.6422C16.0039 17.6345 15.9953 17.6265 15.9865 17.6188L15.9862 17.6182Z" fill="#4F7D3C"/>
<path d="M16.8282 14.8523C16.7719 14.9037 16.7068 14.9483 16.6862 15.0286H16.687C16.6499 15.0769 16.6124 15.1255 16.5753 15.1738L16.5744 15.1747C16.5653 15.1838 16.5561 15.193 16.547 15.2021C16.5361 15.2098 16.5255 15.2173 16.5147 15.225C16.463 15.2364 16.4292 15.2716 16.4006 15.313C16.3821 15.3236 16.3638 15.3342 16.3452 15.345C16.3329 15.3536 16.3206 15.3622 16.3083 15.3707C16.2915 15.3793 16.2743 15.3879 16.2574 15.3968C16.0994 15.4491 15.9425 15.5071 15.7738 15.5159C15.7553 15.5148 15.7364 15.5134 15.7178 15.5122C15.6918 15.4899 15.6621 15.4888 15.6306 15.4974C15.6115 15.4974 15.5926 15.4974 15.5735 15.4974C15.3137 15.4651 15.0521 15.4611 14.794 15.4974C14.5871 15.5265 14.377 15.4902 14.1732 15.5448C13.9451 15.5437 13.717 15.5428 13.4889 15.5417C13.4061 15.4979 13.3169 15.5217 13.2303 15.5185C13.2017 15.5179 13.1728 15.5174 13.1442 15.5165C12.9256 15.4862 12.7061 15.4865 12.4866 15.5025C12.458 15.4994 12.4291 15.4962 12.4005 15.4931C12.392 15.4882 12.3828 15.4868 12.3731 15.4885L12.3617 15.4851H12.3497C12.3294 15.4776 12.3091 15.4705 12.2888 15.4631C12.2819 15.4585 12.2742 15.4565 12.2659 15.4565C12.2545 15.4493 12.2428 15.4419 12.2313 15.4348C12.2122 15.4328 12.193 15.4311 12.1742 15.4291C12.0452 15.3793 11.9112 15.3687 11.7749 15.3773C11.6428 15.3327 11.5045 15.3259 11.3678 15.3096C11.0583 15.2721 10.7885 15.1289 10.5172 14.992C10.0765 14.7697 9.62717 14.5659 9.19472 14.3241C8.89661 14.1574 8.5902 14.0079 8.31495 13.8027C8.13574 13.6692 8.074 13.512 8.14003 13.3351C8.18347 13.2185 8.2575 13.163 8.3927 13.1893C8.76227 13.2614 9.11898 13.3771 9.47511 13.4946C9.74693 13.5843 10.027 13.6298 10.3074 13.6815C10.6807 13.7504 11.0512 13.835 11.4219 13.917C11.868 14.0159 12.3219 14.062 12.7747 14.1091C13.2088 14.1543 13.6459 14.1709 14.0817 14.2014C14.4322 14.226 14.7826 14.2835 15.1339 14.2509C15.4589 14.2206 15.7876 14.2463 16.1102 14.1554C16.3595 14.0851 16.5679 13.9688 16.7288 13.7718C16.9566 13.4935 17.1486 13.1948 17.2012 12.8281C17.2078 12.7826 17.2287 12.7872 17.2587 12.8012C17.2721 12.8592 17.3093 12.9038 17.3436 12.9498C17.343 12.9578 17.3447 12.9655 17.349 12.9724C17.357 12.9827 17.365 12.993 17.373 13.0033L17.3707 13.0035C17.393 13.0684 17.415 13.1336 17.437 13.1985C17.435 13.2368 17.433 13.2754 17.4313 13.3137C17.4242 13.3331 17.4168 13.3525 17.4096 13.372C17.4042 13.378 17.4016 13.3848 17.4016 13.3928C17.3936 13.4046 17.3859 13.4163 17.3779 13.4283C17.3733 13.434 17.3716 13.4406 17.3722 13.448C17.3639 13.4609 17.3559 13.4737 17.3476 13.4863L17.347 13.4875C17.2618 13.5826 17.1767 13.6778 17.0915 13.773L17.0898 13.7744C17.0809 13.7833 17.072 13.7921 17.0632 13.801L17.0618 13.803C17.0255 13.8181 17.0083 13.8487 16.998 13.8842C16.9903 13.8945 16.9826 13.9048 16.9749 13.915C16.9406 13.9331 16.9217 13.9619 16.916 13.9996L16.9168 13.9991C16.9083 14.0094 16.8994 14.0194 16.8908 14.0297L16.8894 14.0314C16.8811 14.0405 16.8731 14.0494 16.8648 14.0585C16.8448 14.0794 16.8248 14.1 16.8051 14.1208C16.7565 14.1466 16.7202 14.1854 16.6873 14.2283L16.6879 14.2277C16.6053 14.2495 16.543 14.3109 16.4947 14.3686C16.302 14.5996 16.0468 14.6205 15.773 14.6325C15.3597 14.6505 14.9478 14.6779 14.5345 14.6359C14.2461 14.6065 13.9577 14.6805 13.6676 14.6322C13.3169 14.5739 12.9573 14.5836 12.6095 14.4933C12.2831 14.4084 11.9541 14.3355 11.6125 14.3398C11.4419 14.3418 11.2712 14.3566 11.1 14.3283C10.7336 14.2678 10.3689 14.1983 10.029 14.0454C9.61288 13.8579 9.11955 13.855 8.7657 13.518C8.73512 13.4889 8.68481 13.4723 8.65194 13.518C8.61936 13.5632 8.6548 13.6029 8.68567 13.6292C8.84516 13.7656 9.00808 13.899 9.21959 13.9465C9.54057 14.0182 9.84497 14.1417 10.1531 14.2517C10.573 14.4015 11 14.4956 11.447 14.4893C11.7523 14.485 12.0558 14.5047 12.3508 14.5879C12.8204 14.7199 13.3037 14.7765 13.7859 14.792C14.5451 14.816 15.3059 14.8363 16.0648 14.7677C16.2251 14.7531 16.3675 14.6916 16.489 14.5833C16.5804 14.5016 16.6745 14.4227 16.7674 14.3424C16.7888 14.3238 16.8102 14.3055 16.8317 14.2869C16.8411 14.2775 16.8505 14.2683 16.86 14.2589L16.8605 14.2583C16.8797 14.2583 16.8985 14.258 16.9177 14.2577C16.9291 14.2769 16.9406 14.296 16.952 14.3152C16.9594 14.3255 16.9669 14.3358 16.9743 14.3458L16.9734 14.3446C16.9972 14.4838 16.9794 14.617 16.9168 14.7436L16.9171 14.7434C16.8805 14.7631 16.8517 14.7894 16.8388 14.8303C16.8337 14.8365 16.8302 14.8437 16.8291 14.8517L16.8282 14.8523Z" fill="#89412A"/>
<path d="M16.346 7.48158C16.5057 7.58419 16.6824 7.65022 16.859 7.7151C17.0748 7.79427 17.292 7.87002 17.509 7.94747C17.5215 7.95519 17.5338 7.96291 17.5464 7.97063L17.5484 7.97148C17.575 8.00807 17.6176 8.01664 17.6562 8.03179C17.6482 8.0478 17.6405 8.06381 17.6324 8.0801C17.2612 7.99921 16.8913 7.91289 16.5186 7.83886C16.127 7.76083 15.7297 7.70853 15.3316 7.69595C14.4375 7.66794 13.5432 7.67708 12.6594 7.83686C12.1723 7.92489 11.6776 7.94147 11.1902 8.02722C10.7487 8.10496 10.2999 8.14012 9.85545 8.05723C9.59992 8.0095 9.33325 7.98034 9.07715 7.81771C9.41728 7.83715 9.72711 7.85029 10.0301 7.78341C10.6137 7.65479 11.1963 7.52074 11.7845 7.4127C12.3181 7.31466 12.8543 7.24263 13.3965 7.22205C13.8573 7.20462 14.3183 7.23606 14.7796 7.2089C15.3207 7.17689 15.8249 7.38326 16.3457 7.48187L16.346 7.48158Z" fill="#B13932"/>
<path d="M16.3458 7.48141C15.825 7.3828 15.3208 7.17644 14.7797 7.20845C14.3184 7.2356 13.8574 7.20416 13.3966 7.2216C12.8544 7.24218 12.3182 7.3142 11.7846 7.41224C11.1963 7.52028 10.6138 7.65434 10.0302 7.78296C9.7272 7.84984 9.41708 7.83669 9.07724 7.81726C9.33334 7.97989 9.60001 8.00904 9.85554 8.05678C10.3003 8.13967 10.749 8.10451 11.1903 8.02676C11.6777 7.94102 12.1724 7.92444 12.6595 7.83641C13.5432 7.67663 14.4376 7.66748 15.3316 7.69549C15.7301 7.70807 16.1271 7.76038 16.5187 7.83841C16.8911 7.91272 17.2613 7.99875 17.6325 8.07964C17.6282 8.18025 17.7589 8.12023 17.7734 8.19797C17.2878 8.16367 16.8259 8.00447 16.3472 7.92958C15.4823 7.79439 14.6168 7.78524 13.7445 7.82869C13.1254 7.85927 12.522 7.99132 11.9092 8.05478C11.4038 8.10708 10.9031 8.21484 10.394 8.21655C9.81524 8.21855 9.25874 8.11194 8.7654 7.78267C8.74568 7.76952 8.72596 7.7558 8.70824 7.74008C8.67508 7.71064 8.64393 7.67549 8.66965 7.62947C8.69223 7.58888 8.73568 7.60031 8.77283 7.60803C8.79141 7.61175 8.80885 7.62032 8.82685 7.62661C9.15584 7.73923 9.49111 7.72779 9.82867 7.67777C10.4077 7.59174 10.9717 7.43196 11.5462 7.32792C11.886 7.26647 12.2296 7.21559 12.574 7.17301C13.0239 7.11699 13.4729 7.08554 13.9254 7.08955C14.2204 7.09212 14.515 7.08955 14.81 7.0884C15.2133 7.08669 15.602 7.17844 15.9893 7.27562C16.1494 7.31563 16.322 7.30649 16.4687 7.39795C16.4146 7.40681 16.3392 7.3848 16.346 7.48227L16.3458 7.48141Z" fill="#1A0303"/>
<path d="M12.348 9.95584C11.6663 10.0476 10.9894 9.96841 10.3152 10.0067C9.98334 10.0256 9.6515 10.055 9.32395 10.1159C9.24963 10.1296 9.17189 10.1465 9.10701 10.1822C9.0204 10.2302 8.95066 10.1936 8.87692 10.1639C8.8309 10.1453 8.82918 10.1162 8.85805 10.0745C9.00782 9.85923 9.18675 9.68888 9.44314 9.59627C9.78298 9.47337 10.1345 9.42878 10.4893 9.39162C10.7882 9.36018 11.0858 9.34532 11.3813 9.42363C11.4796 9.44964 11.5682 9.49537 11.6551 9.54282C11.8909 9.67144 12.0873 9.8658 12.3483 9.95584H12.348Z" fill="#4F7D3C"/>
<path d="M11.847 11.3718C12.0842 11.0505 12.1748 10.4371 11.8976 10.1539C12.1182 10.1419 12.3289 10.1282 12.5398 10.1196C12.803 10.109 12.946 10.2845 13.0497 10.4857C13.1472 10.6747 13.2123 10.8799 13.291 11.0783C13.3247 11.1631 13.311 11.2077 13.2035 11.2129C13.1303 11.2163 13.0554 11.2477 12.9877 11.2803C12.6227 11.455 12.2445 11.443 11.8467 11.3718H11.847Z" fill="#F6F8F8"/>
<path d="M16.7661 14.3424C16.6732 14.4227 16.5794 14.5016 16.4877 14.5833C16.3662 14.6917 16.2236 14.7534 16.0635 14.7677C15.3047 14.8363 14.5438 14.816 13.7846 14.792C13.3025 14.7768 12.8191 14.7202 12.3495 14.5879C12.0545 14.5047 11.751 14.485 11.4457 14.4893C10.9987 14.4956 10.5717 14.4016 10.1518 14.2518C9.84369 14.142 9.53929 14.0185 9.21831 13.9465C9.00651 13.8991 8.84388 13.7656 8.68439 13.6293C8.65352 13.603 8.61808 13.5629 8.65066 13.5181C8.68353 13.4723 8.73384 13.4892 8.76442 13.5181C9.11856 13.8551 9.6116 13.8579 10.0278 14.0454C10.3676 14.1983 10.7323 14.2678 11.0987 14.3284C11.27 14.3567 11.4409 14.3421 11.6112 14.3398C11.9528 14.3355 12.2818 14.4087 12.6082 14.4933C12.956 14.5836 13.3153 14.5739 13.6663 14.6322C13.9567 14.6805 14.2448 14.6065 14.5332 14.6359C14.9465 14.6779 15.3584 14.6505 15.7717 14.6325C16.0455 14.6205 16.3008 14.5996 16.4934 14.3687C16.5414 14.3109 16.604 14.2495 16.6866 14.2278C16.6906 14.2815 16.6732 14.3501 16.7661 14.3418V14.3424Z" fill="#100503"/>
<path d="M11.9251 9.03084C12.1775 9.03084 12.4147 9.02769 12.6517 9.03227C12.7586 9.03427 12.8592 9.07257 12.9366 9.14746C13.1404 9.34553 13.3531 9.53703 13.5377 9.75226C13.7126 9.95577 13.6915 10.2159 13.6821 10.5003C13.3634 10.0455 12.9209 9.76112 12.5705 9.38269C12.437 9.23835 12.2535 9.17775 12.0757 9.10944C12.0288 9.09143 11.9743 9.08715 11.9248 9.03084H11.9251Z" fill="#4F7D3C"/>
<path d="M16.9963 10.5234C16.7719 10.4345 16.5578 10.3576 16.3678 10.2292C16.178 10.1012 15.9608 10.0737 15.7415 10.0652C15.4754 10.0549 15.211 10.0163 14.9375 10.02C15.0518 9.93227 15.1556 9.82337 15.3005 9.79879C15.6778 9.73419 16.0559 9.72104 16.4306 9.82451C16.4818 9.83852 16.5378 9.85109 16.5696 9.89225C16.7145 10.0798 16.8545 10.2707 16.9949 10.4616C17.0014 10.4705 16.9957 10.4888 16.9957 10.5239L16.9963 10.5234Z" fill="#4F7D3C"/>
<path d="M15.9601 11.315C16.2434 10.9449 16.1871 10.5916 15.9355 10.2349C16.0519 10.2489 16.1471 10.2783 16.2308 10.3306C16.4209 10.4492 16.6224 10.5421 16.8296 10.625C16.9597 10.677 16.9654 10.7162 16.8685 10.8157C16.7727 10.914 16.6924 11.0266 16.5827 11.1126C16.404 11.2527 16.1991 11.3021 15.9598 11.315H15.9601Z" fill="#F6F8F8"/>
<path d="M14.4262 18.4103C14.3817 18.2448 14.4165 18.0819 14.3505 17.9369C14.3345 17.9021 14.3722 17.8935 14.4011 17.8861C14.6835 17.8138 14.887 17.6137 15.1102 17.4462C15.2203 17.3636 15.3174 17.261 15.4612 17.2375C15.4964 17.2318 15.5418 17.2184 15.5661 17.2561C15.5887 17.2916 15.549 17.3153 15.5335 17.3427C15.4366 17.5168 15.2777 17.6363 15.1402 17.7723C14.9184 17.9918 14.7009 18.2182 14.4262 18.4097V18.4103Z" fill="#4F7D3C"/>
<path d="M8.77599 4.23966C8.73169 4.22594 8.73026 4.19507 8.7477 4.16106C8.78056 4.09675 8.8243 4.04101 8.88661 4.00157C9.28819 3.7469 9.72579 3.62743 10.2011 3.66144C10.2786 3.66687 10.3826 3.67116 10.3692 3.80064C10.1408 3.85894 9.91129 3.91354 9.68434 3.97642C9.38051 4.06074 9.07868 4.15163 8.77599 4.23966Z" fill="#B13932"/>
<path d="M14.7453 18.7973C14.7453 18.7973 14.741 18.7984 14.7379 18.7961C14.4669 18.5906 14.4766 18.5966 14.7207 18.3699C15.068 18.0473 15.4436 17.75 15.7111 17.3493C15.7397 17.3064 15.7645 17.2735 15.8251 17.2978C15.8849 17.3218 15.9052 17.3624 15.8932 17.4207C15.8866 17.4527 15.8786 17.4882 15.8594 17.5133C15.7002 17.7223 15.5622 17.9395 15.3012 18.0613C15.0034 18.2005 14.8679 18.4949 14.7453 18.7973Z" fill="#5E914A"/>
<path d="M15.7168 8.08887C16.3065 8.11059 16.8901 8.17519 17.4566 8.35068C17.7379 8.43786 18.008 8.55047 18.2549 8.71397C18.2918 8.73826 18.337 8.76141 18.3044 8.812C18.2784 8.8523 18.2358 8.83401 18.202 8.814C18.0305 8.71196 17.8508 8.63108 17.6655 8.55476C17.2794 8.39584 16.8761 8.3241 16.4694 8.25607C16.3085 8.22921 16.1478 8.22635 15.9863 8.22663C15.9503 8.22663 15.9083 8.21463 15.8851 8.25865C15.8291 8.20205 15.7728 8.14546 15.7168 8.08887Z" fill="#1A0303"/>
<path d="M10.3069 10.1616C10.1532 10.3257 10.04 10.4757 9.99853 10.6824C9.78101 10.4695 9.4829 10.4494 9.20508 10.2988C9.57722 10.2171 9.92736 10.1885 10.3066 10.1616H10.3069Z" fill="#F0F4F1"/>
<path d="M8.7759 4.23932C9.07858 4.15129 9.38041 4.06039 9.68425 3.97607C9.91119 3.91319 10.1407 3.8586 10.3691 3.80029C10.4085 3.84231 10.4474 3.87346 10.5094 3.83402C10.5451 3.81115 10.5892 3.77914 10.63 3.83231C10.3805 3.93806 10.113 3.98236 9.85403 4.05582C9.43987 4.17301 9.02056 4.2719 8.60354 4.37823C8.6024 4.32592 8.63641 4.31449 8.67872 4.31621C8.73388 4.31821 8.77189 4.30106 8.7759 4.23932Z" fill="#1A0303"/>
<path d="M11.4246 10.9217C11.2845 10.9222 11.1876 10.8402 11.1885 10.7213C11.1893 10.5901 11.3437 10.4575 11.4926 10.4595C11.6164 10.4612 11.7118 10.543 11.7135 10.649C11.7164 10.8179 11.6075 10.9205 11.4243 10.9214L11.4246 10.9217Z" fill="#F6F8F8"/>
<path d="M14.4981 10.4573C14.4769 10.628 14.4178 10.7477 14.396 10.8769C14.3743 11.0078 14.3898 11.1293 14.4269 11.2636C14.3123 11.2665 14.2151 11.2156 14.1134 11.193C14.0579 11.1807 14.0591 11.1321 14.0656 11.0781C14.0845 10.9224 14.184 10.8123 14.2717 10.6968C14.33 10.62 14.4043 10.5551 14.4981 10.457V10.4573Z" fill="#F0F4F1"/>
<path d="M15.8497 10.7843C15.8474 10.9154 15.7866 10.9743 15.6554 10.9726C15.533 10.9709 15.4536 10.8963 15.4661 10.7774C15.4762 10.6839 15.4959 10.5805 15.6239 10.5796C15.7888 10.5785 15.852 10.6393 15.8494 10.7843H15.8497Z" fill="#F0F4F1"/>
<path d="M10.1162 20.0347C10.1508 19.987 10.202 20.0033 10.2474 20.003C10.4132 20.0013 10.5795 19.997 10.745 20.0033C11.1903 20.0198 11.6334 19.9555 12.0784 19.9741C12.129 19.9761 12.1836 19.9578 12.2282 19.9987C12.1902 20.0221 12.1481 20.0238 12.105 20.0241C11.4422 20.0273 10.7793 20.0313 10.1162 20.035V20.0347Z" fill="#4F7D3C"/>
<path d="M14.1729 15.5449C14.3766 15.4903 14.587 15.5266 14.7937 15.4974C15.0518 15.4611 15.3133 15.4651 15.5731 15.4974C15.5571 15.556 15.5099 15.5474 15.4691 15.5412C15.2687 15.51 15.0763 15.5214 14.8723 15.5586C14.6476 15.5998 14.4049 15.6052 14.1729 15.5449Z" fill="#100503"/>
<path d="M13.3438 8.17177C13.5241 8.1449 13.7036 8.10631 13.8848 8.09374C14.1332 8.07659 14.3827 8.07945 14.6317 8.07373C14.6294 8.15433 14.5714 8.1429 14.5191 8.14319C14.2135 8.14376 13.9074 8.11317 13.6047 8.19178C13.5221 8.21321 13.4266 8.22665 13.3438 8.17148V8.17177Z" fill="#1A0303"/>
<path d="M10.7601 10.379C10.7524 10.4588 10.7101 10.5031 10.6332 10.5077C10.5598 10.5122 10.5138 10.4705 10.5109 10.3999C10.5075 10.3222 10.5601 10.2716 10.6327 10.271C10.6947 10.2704 10.7478 10.3093 10.7601 10.379Z" fill="#F0F4F1"/>
<path d="M12.4866 15.5024C12.7064 15.4864 12.9256 15.4862 13.1443 15.5165C13.1374 15.565 13.1034 15.573 13.0623 15.573C12.8976 15.5725 12.7333 15.5722 12.5686 15.5733C12.5181 15.5736 12.4869 15.5573 12.4863 15.5024H12.4866Z" fill="#100503"/>
<path d="M14.401 3.45867C14.118 3.40264 13.8282 3.44752 13.5449 3.39979C13.5569 3.32947 13.6132 3.33862 13.6564 3.34691C13.8756 3.38835 14.0994 3.36949 14.3192 3.40064C14.3595 3.40636 14.3955 3.40836 14.401 3.45867Z" fill="#1A0303"/>
<path d="M10.8068 10.8072C10.8037 10.8804 10.7694 10.923 10.6916 10.9173C10.6242 10.9124 10.5842 10.8721 10.5882 10.8067C10.5925 10.7343 10.6496 10.6975 10.7136 10.6932C10.7851 10.6883 10.8105 10.7401 10.8068 10.8072Z" fill="#F0F4F1"/>
<path d="M14.9283 10.3963C14.9911 10.4117 15.0374 10.444 15.034 10.5118C15.0303 10.5804 14.9911 10.6304 14.9194 10.6309C14.8585 10.6315 14.8242 10.5869 14.8242 10.5283C14.8242 10.4603 14.8591 10.4123 14.9283 10.396V10.3963Z" fill="#F0F4F1"/>
<path d="M15.0486 10.9934C15.0443 11.0474 15.0197 11.0872 14.9528 11.0875C14.8871 11.0877 14.8556 11.0486 14.8536 10.99C14.8513 10.9283 14.8865 10.8942 14.9514 10.8931C15.0165 10.892 15.0483 10.9231 15.0486 10.9931V10.9934Z" fill="#F9D9D7"/>
<path d="M10.0879 8.46513C10.2771 8.49714 10.4683 8.47942 10.6584 8.48914C10.651 8.53887 10.615 8.54402 10.5746 8.54373C10.452 8.54345 10.3294 8.54059 10.2068 8.54487C10.1433 8.54716 10.1119 8.51515 10.0882 8.46484L10.0879 8.46513Z" fill="#1A0303"/>
<path d="M15.7734 15.5162C15.9424 15.5073 16.099 15.4493 16.2571 15.397C16.1779 15.5087 15.9121 15.6065 15.8006 15.5622C15.7874 15.557 15.7823 15.5322 15.7734 15.5164V15.5162Z" fill="#100503"/>
<path d="M12.4014 8.28766C12.59 8.25364 12.7801 8.23564 12.9719 8.23535C12.7867 8.30652 12.5972 8.33225 12.4014 8.28766Z" fill="#1A0303"/>
<path d="M10.9727 8.45984C11.1038 8.42554 11.2362 8.39953 11.3731 8.41354C11.2508 8.52615 11.1121 8.49728 10.9727 8.45984Z" fill="#1A0303"/>
<path d="M4.65532 11.9424C4.65589 12.125 4.557 12.2639 4.4541 12.4011C4.48897 12.2339 4.58015 12.0919 4.65532 11.9424Z" fill="#5E914A"/>
<path d="M16.916 14.7442C16.9786 14.6173 16.9963 14.4841 16.9726 14.3452C17.0787 14.4681 17.0498 14.6736 16.916 14.7442Z" fill="#100503"/>
<path d="M9.60059 8.37646C9.73407 8.4039 9.86755 8.43134 10.0007 8.4585C9.84725 8.52852 9.72178 8.46307 9.60059 8.37646Z" fill="#1A0303"/>
<path d="M17.0908 13.7743C17.176 13.6791 17.2612 13.5839 17.3463 13.4888C17.3406 13.6251 17.2397 13.7377 17.0908 13.7743Z" fill="#100503"/>
<path d="M4.4557 12.3999C4.44427 12.564 4.44398 12.7317 4.3125 12.8584C4.36538 12.7072 4.3851 12.5457 4.4557 12.3999Z" fill="#5E914A"/>
<path d="M11.7744 15.3777C11.9108 15.3691 12.0448 15.3797 12.1737 15.4294C12.0271 15.5166 11.9062 15.406 11.7744 15.3777Z" fill="#100503"/>
<path d="M11.4883 8.40829C11.6272 8.36399 11.7684 8.33769 11.915 8.34713C11.7773 8.39772 11.6381 8.44088 11.4883 8.40829Z" fill="#1A0303"/>
<path d="M11.016 3.74973C10.9136 3.80861 10.7967 3.80347 10.6855 3.82404C10.7736 3.70171 10.9013 3.75516 11.016 3.74973Z" fill="#1A0303"/>
<path d="M13.4865 3.39953C13.3438 3.40324 13.2012 3.40667 13.0586 3.41039C13.1995 3.33979 13.343 3.36466 13.4865 3.39953Z" fill="#1A0303"/>
<path d="M4.14048 13.5425C4.13848 13.6805 4.14706 13.8206 4.06445 13.9432C4.10247 13.812 4.06845 13.6674 4.14048 13.5425Z" fill="#5E914A"/>
<path d="M13.2305 15.5187C13.3171 15.5218 13.4063 15.4984 13.4891 15.5418C13.3991 15.577 13.3085 15.6176 13.2305 15.5187Z" fill="#100503"/>
<path d="M12.5706 3.47896C12.4377 3.49696 12.3048 3.51526 12.1719 3.53326C12.2959 3.44923 12.43 3.44151 12.5706 3.47896Z" fill="#1A0303"/>
<path d="M11.8425 3.57822C11.7459 3.61652 11.6502 3.65797 11.543 3.65425C11.6256 3.56107 11.7339 3.56965 11.8425 3.57822Z" fill="#1A0303"/>
<path d="M13.0293 8.22964C13.1119 8.19762 13.1974 8.1779 13.2863 8.17676C13.2097 8.23878 13.1331 8.30052 13.0293 8.22964Z" fill="#1A0303"/>
<path d="M4.19963 13.2021C4.23593 13.3262 4.17676 13.4337 4.13961 13.5451C4.13389 13.4262 4.15447 13.3122 4.19963 13.2021Z" fill="#5E914A"/>
<path d="M12.002 8.3458C12.0751 8.31321 12.1546 8.33094 12.2303 8.31836C12.1652 8.41868 12.0828 8.37552 12.002 8.3458Z" fill="#1A0303"/>
<path d="M4.31307 12.8574C4.31793 12.9649 4.31622 13.0701 4.21875 13.1438C4.24047 13.0452 4.25705 12.9449 4.31307 12.8574Z" fill="#5E914A"/>
<path d="M17.4364 13.1998C17.4144 13.1349 17.3921 13.0698 17.3701 13.0049C17.5276 13.0237 17.451 13.1224 17.4364 13.1998Z" fill="#100503"/>
<path d="M11.3432 3.68707C11.2523 3.72765 11.1574 3.74795 11.0576 3.74566C11.1379 3.65391 11.246 3.69621 11.3432 3.68707Z" fill="#1A0303"/>
<path d="M12.1138 3.53847C12.0312 3.56906 11.9452 3.5782 11.8574 3.57763C11.9323 3.4956 12.0206 3.50189 12.1138 3.53847Z" fill="#1A0303"/>
<path d="M12.8295 3.43006C12.7766 3.46579 12.7166 3.4655 12.6562 3.46407C12.6963 3.36232 12.7626 3.39433 12.8295 3.43006Z" fill="#1A0303"/>
<path d="M15.1445 8.05847C15.202 8.02989 15.2594 8.02675 15.3172 8.05704C15.26 8.10192 15.2023 8.10163 15.1445 8.05847Z" fill="#1A0303"/>
<path d="M14.7471 8.06785C14.8603 8.06613 14.9734 8.0647 15.0866 8.06299C14.974 8.10586 14.8608 8.09586 14.7471 8.06785Z" fill="#1A0303"/>
<path d="M9.77148 20.0605C9.88238 19.9996 10.0016 20.0431 10.1168 20.0336C10.0059 20.0951 9.88667 20.0508 9.77148 20.0605Z" fill="#4F7D3C"/>
<path d="M16.8962 9.39209C16.9511 9.41753 17.0091 9.43925 17.0425 9.51357C16.9656 9.50127 16.9216 9.45068 16.8682 9.41867C16.8776 9.40981 16.887 9.40095 16.8965 9.39209H16.8962Z" fill="#5E914A"/>
<path d="M14.6297 3.51335C14.5529 3.49848 14.4734 3.49506 14.4014 3.45904C14.4768 3.47962 14.5749 3.40559 14.6297 3.51335Z" fill="#1A0303"/>
<path d="M14.8595 3.58986C14.7909 3.585 14.7269 3.56699 14.6729 3.52155C14.7443 3.5184 14.8152 3.51783 14.8595 3.58986Z" fill="#1A0303"/>
<path d="M16.5752 15.174C16.6124 15.1257 16.6498 15.0771 16.687 15.0288C16.6855 15.1048 16.6761 15.1746 16.5752 15.174Z" fill="#100503"/>
<path d="M8.48504 4.42948C8.43817 4.4755 8.37814 4.48579 8.31641 4.4915C8.34042 4.38317 8.42845 4.4492 8.48504 4.42948Z" fill="#1A0303"/>
<path d="M16.4004 15.3136C16.429 15.2719 16.4627 15.237 16.5144 15.2256C16.4993 15.2845 16.4964 15.3594 16.4004 15.3136Z" fill="#100503"/>
<path d="M16.6865 14.2291C16.7194 14.1865 16.756 14.1473 16.8043 14.1216C16.8051 14.2013 16.7654 14.2368 16.6865 14.2291Z" fill="#100503"/>
<path d="M17.3427 12.9509C17.3084 12.9049 17.2712 12.8603 17.2578 12.8022C17.3579 12.8108 17.3456 12.8837 17.3427 12.9509Z" fill="#100503"/>
<path d="M9.37207 20.1132C9.40808 20.0289 9.4601 20.0477 9.51584 20.0906C9.47097 20.1178 9.4218 20.1178 9.37207 20.1132Z" fill="#4F7D3C"/>
<path d="M11.487 3.65869C11.453 3.68698 11.4132 3.68841 11.3721 3.68355C11.3961 3.60867 11.4384 3.6201 11.487 3.65869Z" fill="#1A0303"/>
<path d="M17.6556 8.03131C17.6167 8.01616 17.5744 8.00787 17.5479 7.971C17.5807 7.99672 17.6688 7.92355 17.6556 8.03131Z" fill="#1A0303"/>
<path d="M4.74093 11.7427C4.74321 11.7996 4.75264 11.8593 4.68262 11.887C4.69091 11.8344 4.69348 11.7795 4.74093 11.7427Z" fill="#5E914A"/>
<path d="M4.79785 11.6284C4.79528 11.6753 4.81843 11.735 4.73926 11.7427C4.74612 11.6982 4.76012 11.6573 4.79785 11.6284Z" fill="#5E914A"/>
<path d="M16.8379 14.831C16.8508 14.7902 16.8796 14.7636 16.9162 14.7441C16.9219 14.8016 16.9011 14.8353 16.8379 14.831Z" fill="#100503"/>
<path d="M8.60437 4.37679C8.57265 4.41138 8.53177 4.42567 8.48633 4.42938C8.49976 4.35393 8.55721 4.37679 8.60437 4.37679Z" fill="#1A0303"/>
<path d="M17.9462 8.25236C17.8996 8.25007 17.8576 8.23607 17.8213 8.20606C17.8682 8.20748 17.9262 8.17862 17.9462 8.25236Z" fill="#1A0303"/>
<path d="M9.57227 20.0872C9.62629 20.0375 9.69117 20.0664 9.75148 20.0624C9.69746 20.111 9.63315 20.0864 9.57227 20.0872Z" fill="#4F7D3C"/>
<path d="M15.6309 15.4976C15.6623 15.4891 15.692 15.4902 15.718 15.5125C15.6806 15.5565 15.6509 15.5556 15.6309 15.4976Z" fill="#100503"/>
<path d="M15.9496 8.31006C15.989 8.31492 16.0144 8.33836 16.0319 8.37208C15.9881 8.37294 15.945 8.37294 15.9496 8.31006Z" fill="#1A0303"/>
<path d="M16.915 14.0011C16.9208 13.9634 16.9396 13.9345 16.9739 13.9165C16.9742 13.9585 16.9725 13.9994 16.915 14.0011Z" fill="#100503"/>
<path d="M16.9971 13.8859C17.0074 13.8501 17.0242 13.8198 17.0608 13.8047C17.06 13.8478 17.0554 13.8879 16.9971 13.8859Z" fill="#100503"/>
<path d="M16.8684 9.41874C16.841 9.40445 16.7832 9.39473 16.8044 9.36329C16.8298 9.32556 16.8672 9.37301 16.8964 9.39216C16.887 9.40102 16.8775 9.40988 16.8681 9.41874H16.8684Z" fill="#5E914A"/>
<path d="M16.9165 14.2584C16.8974 14.2584 16.8785 14.2587 16.8594 14.2589C16.8637 14.2387 16.8642 14.2112 16.8937 14.2178C16.9037 14.2201 16.9091 14.2444 16.9165 14.2587V14.2584Z" fill="#100503"/>
<path d="M17.4082 13.3737C17.4153 13.3543 17.4228 13.3349 17.4299 13.3154C17.4722 13.3534 17.4448 13.3652 17.4082 13.3737Z" fill="#100503"/>
<path d="M15.5459 8.06282C15.5885 8.05939 15.6311 8.05396 15.6682 8.0834C15.6259 8.0854 15.5816 8.09941 15.5459 8.06282Z" fill="#1A0303"/>
<path d="M10.8027 8.46563C10.8402 8.46449 10.8773 8.46306 10.9148 8.46191C10.8785 8.49678 10.8413 8.49593 10.8027 8.46563Z" fill="#1A0303"/>
<path d="M12.2754 8.31083C12.2943 8.29082 12.318 8.28825 12.3434 8.29196C12.3254 8.31483 12.3008 8.31511 12.2754 8.31083Z" fill="#1A0303"/>
<path d="M4.68366 11.8848C4.68395 11.9099 4.67995 11.9325 4.65336 11.9442C4.65279 11.9191 4.65765 11.8965 4.68366 11.8848Z" fill="#5E914A"/>
<path d="M17.0923 9.53955C17.1009 9.55441 17.1178 9.58157 17.1166 9.58242C17.0846 9.60443 17.0815 9.57299 17.0703 9.55556C17.0789 9.55184 17.086 9.54641 17.0923 9.53955Z" fill="#5E914A"/>
<path d="M12.2881 15.4634C12.3084 15.4708 12.3287 15.4782 12.349 15.4854C12.3252 15.4871 12.3035 15.484 12.2881 15.4634Z" fill="#100503"/>
<path d="M4.8263 11.5586C4.82602 11.586 4.82659 11.614 4.79715 11.6295C4.79486 11.6009 4.80715 11.5783 4.8263 11.5586Z" fill="#5E914A"/>
<path d="M16.9735 14.346C16.966 14.3357 16.9586 14.3254 16.9512 14.3154C16.9586 14.3257 16.966 14.336 16.9735 14.346Z" fill="#100503"/>
<path d="M17.377 13.43C17.385 13.4183 17.3927 13.4065 17.4007 13.3945C17.3927 13.4063 17.385 13.418 17.377 13.43Z" fill="#100503"/>
<path d="M12.373 15.4885C12.3828 15.4868 12.3919 15.4882 12.4005 15.4931C12.3891 15.5059 12.3802 15.5022 12.373 15.4885Z" fill="#100503"/>
<path d="M17.0703 9.55566C17.0651 9.54623 17.0537 9.53051 17.056 9.52822C17.0731 9.51107 17.0831 9.52594 17.0923 9.53966C17.0863 9.54652 17.0788 9.55195 17.0703 9.55566Z" fill="#5E914A"/>
<path d="M12.9151 3.42324L12.9017 3.4281L12.8877 3.42609C12.8954 3.41295 12.9046 3.41095 12.9151 3.42324Z" fill="#1A0303"/>
<path d="M16.0124 17.6414C16.0018 17.65 15.9912 17.6585 15.9807 17.6671C15.9744 17.6606 15.9678 17.6543 15.9609 17.648C15.9692 17.638 15.9778 17.6277 15.9861 17.6177C15.9947 17.6254 16.0035 17.6334 16.0124 17.6411V17.6414Z" fill="#4F7D3C"/>
<path d="M15.9818 17.6676C15.9741 17.6724 15.9632 17.683 15.9595 17.6807C15.9406 17.6699 15.9515 17.6584 15.9623 17.6484C15.9692 17.6544 15.9758 17.661 15.9821 17.6676H15.9818Z" fill="#4F7D3C"/>
<path d="M16.0889 8.42725C16.0989 8.43725 16.1089 8.44725 16.1192 8.45726C16.1092 8.44725 16.0992 8.43725 16.0889 8.42725Z" fill="#1A0303"/>
<path d="M15.8877 8.26074C15.898 8.26903 15.9083 8.27732 15.9183 8.28589C15.908 8.27761 15.8977 8.26932 15.8877 8.26074Z" fill="#1A0303"/>
<path d="M18.0302 8.28348C18.0168 8.27662 18.0037 8.27004 17.9902 8.26318C18.0037 8.27004 18.0171 8.27662 18.0302 8.28348Z" fill="#1A0303"/>
<path d="M15.917 8.28516C15.9279 8.2943 15.9384 8.30373 15.9493 8.31288C15.9387 8.30373 15.9279 8.2943 15.917 8.28516Z" fill="#1A0303"/>
<path d="M14.8423 12.0227C15.0092 12.2139 15.1518 12.3774 15.2945 12.5409C15.3511 12.6057 15.3974 12.6769 15.4339 12.7547C15.456 12.8015 15.468 12.8487 15.4131 12.8781C15.3642 12.9044 15.3273 12.8701 15.3085 12.8318C15.2207 12.6535 15.0652 12.5297 14.9489 12.3757C14.774 12.1444 14.5493 11.9881 14.2918 11.8695C14.2789 11.8635 14.2638 11.8609 14.2526 11.8529C14.198 11.8146 14.0937 11.7957 14.1309 11.708C14.1717 11.6116 14.2503 11.6805 14.3132 11.7048C14.6702 11.8429 15.0309 11.9569 15.4205 11.8529C15.4685 11.84 15.5091 11.8483 15.5251 11.8972C15.5446 11.9566 15.5003 11.9872 15.4542 12.0018C15.3033 12.0492 15.1481 12.0612 14.9906 12.0432C14.9535 12.0389 14.9163 12.0329 14.8423 12.0229V12.0227Z" fill="#040A03"/>
<path d="M8.7157 12.7129C8.79487 12.7386 8.93178 12.6629 8.93721 12.7995C8.94264 12.937 8.81145 12.8492 8.746 12.8635C8.60308 12.8947 8.45417 12.8992 8.30897 12.921C8.08603 12.9544 7.90796 13.061 7.78591 13.2551C7.75733 13.3003 7.73189 13.3737 7.65843 13.3226C7.59384 13.2777 7.63157 13.2165 7.66244 13.1708C7.83307 12.9178 8.08031 12.7906 8.37671 12.7503C8.48961 12.7349 8.60337 12.7252 8.71599 12.7132L8.7157 12.7129Z" fill="#040A03"/>
<path d="M8.73696 12.287C8.73153 12.3485 8.68409 12.3631 8.63635 12.3659C8.46086 12.3768 8.28736 12.3917 8.12787 12.4765C8.08871 12.4971 8.05156 12.4808 8.03498 12.4394C8.01983 12.4011 8.02612 12.3605 8.06385 12.3393C8.11301 12.3116 8.16474 12.287 8.21819 12.269C8.34967 12.2253 8.4883 12.2259 8.62435 12.2104C8.68008 12.2042 8.72982 12.2162 8.73668 12.2873L8.73696 12.287Z" fill="#040A03"/>
<path d="M14.258 5.90337C14.1816 5.9068 14.1053 5.91023 14.0293 5.91366C14.1019 5.82706 14.1785 5.8342 14.258 5.90337Z" fill="#B13932"/>
<path d="M14.1178 5.48516C14.1195 5.49431 14.1221 5.50345 14.1252 5.51231C14.1124 5.50403 14.0998 5.49574 14.0869 5.48745L14.0921 5.48145C14.1006 5.48259 14.1092 5.48373 14.1175 5.48516H14.1178Z" fill="#B13932"/>
<path d="M13.8545 5.51358C13.8648 5.50329 13.8751 5.49271 13.8856 5.48242C13.8754 5.49271 13.8651 5.50329 13.8545 5.51358Z" fill="#B13932"/>
<path d="M9.10406 5.3085C9.04147 5.32536 8.99259 5.33022 8.93457 5.30421C8.95801 5.24305 8.98087 5.18331 9.00774 5.11328C9.06948 5.17102 9.07234 5.2439 9.10406 5.3085Z" fill="#B13932"/>
<path d="M9.92555 6.05022C9.92326 5.99048 9.92069 5.93675 10.0093 5.93904C10.0845 5.94104 10.1288 5.97105 10.1305 6.0445C10.1325 6.12711 10.0785 6.15683 10.0024 6.16312C9.9064 6.17084 9.92841 6.1031 9.92555 6.05022Z" fill="#B13932"/>
<path d="M11.1151 6.02934C11.196 6.05964 11.1877 6.14339 11.2189 6.20341C11.2292 6.22342 11.2203 6.24428 11.1991 6.24686C11.1617 6.25086 11.1225 6.25343 11.0862 6.24657C11.0531 6.24 11.0679 6.21227 11.0742 6.18969C11.0891 6.13567 11.1288 6.08822 11.1174 6.02734L11.1151 6.02934Z" fill="#B13932"/>
<path d="M12.4773 6.05713C12.5225 6.11744 12.5771 6.17203 12.547 6.24234C12.5402 6.25806 12.4459 6.26378 12.4304 6.24406C12.3773 6.17517 12.4619 6.12258 12.4773 6.05741V6.05713Z" fill="#B13932"/>
<path d="M13.628 6.08941C13.6628 6.10799 13.6546 6.00338 13.6931 6.06197C13.7254 6.11113 13.7669 6.17287 13.7489 6.23118C13.7354 6.27405 13.672 6.2529 13.6331 6.24662C13.5811 6.23833 13.6051 6.19888 13.6131 6.1683C13.62 6.14143 13.6248 6.11399 13.6308 6.08655L13.6283 6.08941H13.628Z" fill="#B13932"/>
<path d="M13.6221 5.47063C13.6921 5.45006 13.7633 5.45892 13.8344 5.46263C13.7664 5.53809 13.6958 5.54295 13.6221 5.47063Z" fill="#B13932"/>
<path d="M13.8346 5.46325C13.8357 5.41552 13.8075 5.35263 13.8938 5.34863C13.8855 5.39265 13.8755 5.43581 13.8346 5.46325Z" fill="#B13932"/>
<path d="M13.5957 5.43408C13.6131 5.43837 13.6226 5.44894 13.6209 5.46752C13.6126 5.45638 13.604 5.44523 13.5957 5.43408Z" fill="#B13932"/>
</g>
<defs>
<clipPath id="clip0_5357_40293">
<rect width="24" height="24" fill="white"/>
</clipPath>
</defs>
</svg>
