<svg width="24" height="24" viewBox="0 0 24 24" fill="none" xmlns="http://www.w3.org/2000/svg">
<g clip-path="url(#clip0_5357_40517)">
<path d="M12 24C18.6274 24 24 18.6274 24 12C24 5.37258 18.6274 0 12 0C5.37258 0 0 5.37258 0 12C0 18.6274 5.37258 24 12 24Z" fill="white"/>
<path d="M12.0182 16.571C12.0129 16.571 12.0079 16.571 12.0026 16.571C11.3586 16.5708 10.722 16.4349 10.1342 16.172C9.54634 15.9091 9.02056 15.5252 8.59114 15.0453C6.91114 13.1654 7.07485 10.2698 8.95457 8.59053C9.79136 7.84177 10.8749 7.42788 11.9978 7.42808C12.6417 7.42823 13.2784 7.56419 13.8662 7.82709C14.454 8.08999 14.9798 8.47391 15.4092 8.95379C16.5387 10.2181 16.8334 11.9418 16.3349 13.4461L18.3893 16.2061C20.2536 13.3792 20.0666 9.54762 17.7036 6.90333C16.1928 5.21219 14.0998 4.35042 11.9976 4.35059C10.118 4.34886 8.30407 5.04189 6.90445 6.29648C3.75463 9.11065 3.48291 13.9454 6.29657 17.0954C7.80737 18.7866 9.90034 19.6487 12.0029 19.6487C12.7181 19.6484 13.4297 19.5478 14.117 19.3501C14.0378 19.2661 12.0182 16.571 12.0182 16.571Z" fill="black"/>
<path d="M19.5457 19.633L16.9169 16.1004L15.5002 14.1975L15.4066 14.0715C15.3829 14.0424 15.3533 14.0079 15.3209 13.9716C15.2474 13.8893 15.1696 13.8111 15.0877 13.7372C15.0514 13.7043 15.0125 13.6708 14.9712 13.6368C14.9502 13.6196 14.9286 13.6025 14.9064 13.5854C14.8841 13.5682 14.8618 13.5511 14.8395 13.5339C14.7932 13.4996 14.7443 13.4654 14.6928 13.4311C14.229 13.1225 13.5565 12.8403 12.6528 12.8403H10.6553L10.6625 12.8501L10.6553 12.8556L13.2843 16.3886L14.7008 18.2924L14.7944 18.4183C14.8179 18.4474 14.8477 18.4819 14.8801 18.5184C14.9536 18.6006 15.0314 18.6788 15.1133 18.7527C15.1496 18.7855 15.1885 18.8191 15.2298 18.853C15.2508 18.8702 15.2724 18.8873 15.2946 18.9044C15.3169 18.9216 15.3392 18.9387 15.3613 18.9559C15.4078 18.9902 15.4568 19.0244 15.5082 19.0587C15.9711 19.3663 16.6443 19.6493 17.5482 19.6493H19.5457L19.5385 19.6395L19.5457 19.633Z" fill="#00B2EC"/>
</g>
<defs>
<clipPath id="clip0_5357_40517">
<rect width="24" height="24" fill="white"/>
</clipPath>
</defs>
</svg>
