<svg width="24" height="24" viewBox="0 0 24 24" fill="none" xmlns="http://www.w3.org/2000/svg">
<g clip-path="url(#clip0_5357_48272)">
<path d="M11.3172 0.0372859C17.2233 -0.303623 22.4944 3.70547 23.7337 9.48047C24.0717 11.0657 24.0853 12.7055 23.7747 14.2975C22.9997 18.2248 20.3163 21.5043 16.619 23.0486C14.0995 24.1055 11.2182 24.2521 8.59969 23.4748C5.01164 22.4077 2.12344 19.7316 0.792006 16.2373C-0.163897 13.7316 -0.239004 10.9055 0.580342 8.35206C2.0893 3.62706 6.36014 0.32024 11.3172 0.0372859Z" fill="white"/>
<path d="M4.62937 11.1238C4.67717 11.342 4.70448 11.5636 4.75228 11.7852C4.783 11.9182 4.82397 11.8875 4.89225 11.8295C5.02539 11.7204 5.15171 11.6011 5.29851 11.5125C5.33947 11.5193 5.36337 11.5534 5.38385 11.5841C5.77304 12.092 6.28855 12.4023 6.89964 12.5693C7.17959 12.6477 7.46977 12.6988 7.75996 12.7295C7.66778 12.6273 7.59267 12.5148 7.53464 12.3886C7.43563 12.1704 7.46977 11.9761 7.63705 11.8023C7.83848 11.5909 8.10135 11.5023 8.37105 11.4341C8.93435 11.2875 9.50789 11.2738 10.0848 11.3148C10.5491 11.3454 11.0066 11.4238 11.4573 11.55C11.8328 11.6557 12.1981 11.7784 12.5292 11.9898C12.577 12.0273 12.6078 12.0784 12.6521 12.1159C13.0789 12.5727 13.3281 13.1113 13.3452 13.7352C13.3554 14.1648 13.2359 14.5773 13.0208 14.9557C12.6316 15.6375 12.0615 16.1352 11.3821 16.5136C10.6925 16.8988 9.93122 17.1375 9.1426 17.2193C7.73606 17.3727 6.42852 17.0659 5.23023 16.3193C4.23336 15.6988 3.46522 14.85 2.84047 13.8682C2.55028 13.4011 2.29424 12.9136 2.07233 12.4091C2.04502 12.3477 2.03819 12.2795 2.01088 12.2284C2.02795 12.2898 2.06209 12.3545 1.99722 12.4193C1.97674 12.1636 2.00064 11.9113 2.01429 11.6591C2.04843 10.9602 2.15768 10.2682 2.33862 9.59657C3.16138 6.55907 5.36678 4.08748 8.29594 2.92157C9.17674 2.57043 10.1019 2.35225 11.0442 2.26703C12.5326 2.13066 13.9733 2.32498 15.3799 2.82271C15.1648 3.22839 13.946 4.31248 12.9969 4.94316C12.9696 4.67044 12.9082 4.40112 12.8126 4.14203C12.8092 4.07384 12.8706 4.05339 12.9082 4.0193C13.1062 3.84884 13.3042 3.6818 13.5022 3.51475C13.5227 3.49771 13.5432 3.48066 13.5602 3.46362C13.5841 3.43975 13.6217 3.4193 13.6114 3.3818C13.6046 3.3443 13.5602 3.3443 13.5261 3.33748C13.4339 3.31703 13.3417 3.3068 13.2462 3.30339C13.1164 3.28975 12.9867 3.25907 12.857 3.25566C12.7545 3.24884 12.6555 3.22498 12.5565 3.2318C12.5053 3.2318 12.4541 3.22839 12.4029 3.22157C12.3176 3.1943 12.2288 3.20793 12.1435 3.20793C12.0922 3.20793 12.041 3.20453 11.9864 3.20793C11.8362 3.21475 11.6894 3.19089 11.5392 3.21816C11.5016 3.22498 11.4675 3.22839 11.4299 3.22839C11.3856 3.22839 11.3446 3.2318 11.3002 3.22839C11.2456 3.22157 11.1876 3.22839 11.1329 3.24543C10.9759 3.25907 10.8188 3.27271 10.6652 3.29998C10.4775 3.34089 10.2863 3.34771 10.1019 3.39543C9.93122 3.43975 9.75711 3.46362 9.58983 3.52157C9.36792 3.58294 9.14602 3.65112 8.92752 3.72612C8.61003 3.85225 8.2857 3.96816 7.98186 4.1318C7.29566 4.46589 6.65384 4.88862 6.0803 5.38975C5.54772 5.84998 5.06977 6.36816 4.65668 6.93748C4.45185 7.22384 4.26067 7.52043 4.09338 7.83066C3.98414 8.0318 3.88172 8.23634 3.78613 8.4443C3.71785 8.60453 3.63592 8.76134 3.58129 8.92839C3.51301 9.09543 3.45839 9.26589 3.40377 9.43975C3.3389 9.61362 3.30135 9.7943 3.25355 9.96816C3.23307 10.0363 3.21942 10.1079 3.20235 10.1795C3.18186 10.2648 3.16821 10.35 3.15114 10.4352C3.12383 10.5784 3.09993 10.725 3.07944 10.8716C3.05213 11.0216 3.03506 11.1716 3.02482 11.325C3.00092 11.4238 3.01799 11.5295 3.00092 11.6318C2.97361 11.7579 2.99068 11.8875 2.98385 12.0136C2.98044 12.1023 2.97703 12.1909 2.98044 12.2795C2.98044 12.317 2.96337 12.3682 3.00092 12.3852C3.0453 12.4057 3.07603 12.3579 3.11017 12.3341C3.21942 12.2454 3.32525 12.1534 3.43108 12.0613C3.78954 11.7545 4.15142 11.4511 4.50989 11.1443C4.54061 11.1238 4.57475 11.0557 4.62937 11.1238Z" fill="#4189C9"/>
<path d="M12.5257 12.017C12.1023 11.7647 11.6414 11.6215 11.1669 11.509C10.5456 11.3624 9.90375 11.301 9.26534 11.3351C8.8147 11.359 8.36748 11.4204 7.95098 11.6181C7.89977 11.642 7.85197 11.6692 7.80759 11.6999C7.46961 11.9249 7.4184 12.2249 7.6642 12.5488C7.71541 12.617 7.77004 12.6783 7.83832 12.7601C7.61982 12.7601 7.42523 12.7192 7.23405 12.6817C6.71854 12.5795 6.23376 12.4022 5.81726 12.0681C5.61584 11.9079 5.4349 11.7306 5.30176 11.5056C5.35638 11.417 5.44856 11.376 5.53391 11.3249C5.69778 11.2567 5.84799 11.1579 6.01186 11.0829C6.73903 10.7488 7.51741 10.5442 8.31285 10.4692C8.63035 10.4385 8.94785 10.4079 9.26876 10.4215C10.211 10.459 11.1464 10.6226 12.0443 10.9056C12.2764 10.9772 12.5052 11.059 12.7476 11.1374C12.7476 11.0692 12.71 11.0283 12.6827 10.984C12.5871 10.8204 12.4744 10.6635 12.3515 10.517C12.3072 10.4624 12.2423 10.4181 12.2457 10.3363C12.372 10.367 12.5018 10.3942 12.6281 10.4249C12.6622 10.4317 12.7032 10.4522 12.7237 10.4249C12.7544 10.3874 12.71 10.3567 12.6895 10.3295C12.5018 10.0499 12.2696 9.81127 12.017 9.58968C12.1501 9.51127 12.2867 9.57604 12.4164 9.59309C13.7444 9.76354 14.953 10.234 16.0079 11.059C17.4042 12.1533 18.3055 13.5647 18.6878 15.3033C18.8107 15.8829 18.8483 16.4795 18.8039 17.0692C18.7288 18.0954 18.4045 19.0431 17.7968 19.8851C17.7558 19.9397 17.7012 19.984 17.6739 20.0488C17.5373 20.2533 17.3325 20.3931 17.1481 20.5431C16.141 21.3613 14.9632 21.7874 13.6966 21.9851C12.71 22.142 11.7063 22.159 10.7163 22.0363C9.1561 21.8454 7.6642 21.2829 6.36691 20.3965C6.04941 20.1817 5.73874 19.9601 5.46221 19.6942C5.45197 19.6874 5.45197 19.6738 5.4588 19.6635L5.46221 19.6601C5.52025 19.6363 5.5578 19.6806 5.59877 19.7079C6.26108 20.2056 7.01556 20.5704 7.81783 20.7851C8.08753 20.8533 8.35723 20.9079 8.63376 20.9488C8.69521 20.9726 8.76349 20.959 8.82494 20.9726C8.8386 20.9726 8.85226 20.976 8.8625 20.9795C9.48384 21.0545 10.1052 21.0101 10.7197 20.901C12.0682 20.6624 13.2699 20.0999 14.2941 19.1897C14.9939 18.5726 15.547 17.8431 15.8406 16.9431C16.1342 16.0431 16.0932 15.167 15.6801 14.301C15.5948 14.6897 15.3934 15.0101 15.1373 15.3033C14.8813 15.5897 14.5808 15.8351 14.2463 16.026C14.2087 16.0499 14.1643 16.0908 14.12 16.0567C14.0824 16.026 14.1029 15.9749 14.1166 15.9374C14.1985 15.6681 14.2531 15.392 14.2838 15.1124C14.4033 13.9363 13.9493 13.0192 13.0104 12.3272C12.8534 12.2113 12.6929 12.109 12.5257 12.017Z" fill="#262F71"/>
<path d="M8.63377 20.9727C8.28896 20.9386 7.94757 20.867 7.613 20.7648C6.98484 20.5738 6.39081 20.2977 5.84117 19.9363C5.71144 19.8511 5.59878 19.7352 5.45881 19.667C5.37687 19.6568 5.34273 19.575 5.27787 19.5409C3.89864 18.317 2.95639 16.8136 2.41699 15.0579C2.15411 14.2057 2.01073 13.3193 1.99707 12.4261C2.00048 12.3579 2.0039 12.2932 2.01073 12.1875C2.079 12.3375 2.13021 12.4534 2.18484 12.5727C2.67986 13.6602 3.31485 14.6488 4.18882 15.4738C5.11741 16.35 6.19963 16.9363 7.47303 17.1409C8.96492 17.3829 10.3612 17.1239 11.6449 16.3193C12.2867 15.917 12.809 15.4023 13.1129 14.6966C13.4782 13.8409 13.3416 13.0466 12.7817 12.3136C12.7339 12.2488 12.6793 12.1875 12.6315 12.1261C12.6964 12.0682 12.7339 12.1363 12.7715 12.167C13.1026 12.4432 13.3655 12.7909 13.543 13.1863C13.7137 13.5648 13.8059 13.9704 13.8093 14.3863C13.8161 14.8091 13.7205 15.2284 13.5362 15.6102C13.5772 15.6102 13.6147 15.5966 13.6454 15.5693C13.823 15.467 13.9902 15.3477 14.1473 15.2148C14.1951 15.1738 14.2395 15.1091 14.318 15.1193C14.277 15.4398 14.2053 15.7568 14.1097 16.067C14.3146 15.9511 14.5126 15.8216 14.7003 15.675C14.8471 15.5591 14.9666 15.4159 15.1134 15.2966C15.1749 15.3239 15.1749 15.3852 15.1885 15.4363C15.4241 16.2886 15.2534 17.0829 14.8335 17.8329C14.3214 18.7432 13.5703 19.4216 12.6964 19.9704C11.9897 20.4136 11.2147 20.7307 10.3988 20.9079C9.88669 21.0238 9.36094 21.0545 8.83861 21C8.77033 20.9625 8.69863 21.0034 8.63377 20.9727Z" fill="#161F42"/>
<path d="M21.5384 14.6524C21.4941 13.6774 21.2517 12.7228 20.8283 11.8433C20.5518 11.2706 20.2036 10.7353 19.7905 10.2512C19.4184 9.81147 18.9916 9.43647 18.541 9.07852C18.582 9.03761 18.6366 9.04442 18.6844 9.05124C19.3125 9.12283 19.9271 9.26942 20.5211 9.48761C20.6679 9.54215 20.8113 9.60693 20.9478 9.68533C20.9956 9.7092 21.0434 9.73647 21.0912 9.76715C21.1015 9.77397 21.1083 9.79102 21.1254 9.78761C21.1151 9.77397 21.1117 9.75693 21.1185 9.73988C20.7157 9.21488 20.2241 8.77511 19.712 8.3592C19.1009 7.86488 18.4352 7.44215 17.7251 7.10124C16.7419 6.61715 15.6869 6.30011 14.5979 6.16715C14.5023 6.15352 14.3999 6.16715 14.3077 6.13306C14.3009 6.06829 14.3555 6.04783 14.3931 6.01715C15.0315 5.48533 15.5436 4.85806 15.9054 4.11147C16.0147 3.88647 16.1069 3.65124 16.182 3.41261C16.2024 3.34442 16.2161 3.26942 16.2844 3.22852C17.4281 3.77738 18.4522 4.54102 19.3057 5.47852C21.5726 7.96715 22.4261 11.4274 21.5794 14.6831C21.5555 14.6933 21.5521 14.6694 21.5384 14.6524Z" fill="#4189C9"/>
<path d="M17.6704 20.0488C17.6704 19.9499 17.7489 19.8919 17.8001 19.8203C18.2678 19.1556 18.5512 18.4192 18.698 17.6215C18.7902 17.1272 18.797 16.6294 18.7663 16.1351C18.7151 15.3749 18.5205 14.6419 18.2132 13.9397C17.9879 13.4249 17.7045 12.9374 17.37 12.4874C17.0115 12.0135 16.595 11.5806 16.1341 11.2056C15.424 10.6192 14.6047 10.1794 13.7239 9.90671C13.2562 9.75671 12.7714 9.65784 12.2832 9.61012C12.1944 9.6033 12.1091 9.57944 12.0169 9.58625C11.7062 9.35784 11.3887 9.13625 11.0337 8.97603L11.0371 8.94193C11.1634 8.94193 11.2932 8.94534 11.4195 8.94193C13.2084 8.91125 14.8607 9.34762 16.3014 10.4351C17.7933 11.5635 18.7287 13.0533 19.0769 14.8942C19.3739 16.4624 19.1452 17.9453 18.2712 19.3056C18.1005 19.5817 17.9128 19.8374 17.6704 20.0488Z" fill="#161F42"/>
<path d="M16.2916 3.22829C16.1141 3.77716 15.8888 4.30216 15.5645 4.78284C15.2401 5.26693 14.8441 5.69988 14.3901 6.06807C14.3628 6.08852 14.3389 6.11238 14.315 6.13625C14.1579 6.21466 14.0282 6.33738 13.8848 6.43284C13.3556 6.78057 12.7889 7.07375 12.1983 7.30216C12.1847 7.30557 12.1676 7.30898 12.1539 7.31238C12.1266 7.27488 12.1573 7.26125 12.1744 7.2442C12.509 6.92375 12.7172 6.5317 12.8572 6.09534C12.8709 6.03738 12.9118 5.98966 12.9665 5.97261C14.0077 5.56011 14.8407 4.87829 15.5201 3.99875C15.5815 3.92034 15.643 3.83852 15.7181 3.73625C15.5064 3.73284 15.346 3.83852 15.1684 3.86579C15.1343 3.8692 15.0899 3.89648 15.0831 3.8317C15.7283 3.07829 16.2165 2.19875 16.5101 1.25443C16.5272 1.19307 16.5101 1.11125 16.5955 1.08057C16.6023 1.08398 16.6057 1.09079 16.6023 1.09761C16.6023 1.10443 16.5989 1.10784 16.5989 1.10784C16.5886 1.78284 16.4931 2.45443 16.3155 3.10557C16.3053 3.14307 16.2985 3.18398 16.2916 3.22829Z" fill="#161F42"/>
<path d="M12.2426 10.3399C12.4542 10.5717 12.6386 10.8308 12.7922 11.1069C12.8059 11.1342 12.8434 11.1649 12.8093 11.1956C12.782 11.2194 12.7547 11.1887 12.7273 11.1785C12.0343 10.9194 11.3208 10.7251 10.5902 10.599C10.2215 10.5342 9.84939 10.5069 9.47727 10.4796C9.14271 10.4592 8.80473 10.4626 8.47016 10.4933C7.70544 10.5546 6.9612 10.7183 6.2511 11.0251C6.03261 11.1206 5.8107 11.2058 5.60587 11.3319C5.58197 11.3456 5.55466 11.3694 5.52734 11.3353C6.14185 10.9024 6.82464 10.5751 7.5484 10.3671C8.54527 10.0706 9.55921 9.99896 10.5936 10.0774C11.1194 10.1183 11.6417 10.2001 12.1538 10.316C12.1879 10.3194 12.2153 10.3296 12.2426 10.3399Z" fill="#161F42"/>
<path d="M11.9864 3.17383H12.1401C12.222 3.20792 12.3142 3.1636 12.3961 3.19769H12.5497C12.5634 3.27269 12.5019 3.30337 12.461 3.33746C11.7509 3.93746 11.0476 4.54087 10.3375 5.13746C10.1019 5.33519 9.86979 5.53292 9.63764 5.73065C9.60009 5.75451 9.57278 5.7886 9.55571 5.8261C9.24845 5.94201 8.96168 6.08519 8.73636 6.33406C8.63053 6.45337 8.55884 6.58974 8.48373 6.7261C8.27207 6.86246 8.09454 7.04315 7.90336 7.20337C7.3981 7.6261 6.89966 8.05906 6.3944 8.47837C6.35343 8.51246 6.32271 8.5636 6.27491 8.59087C6.18956 8.46133 6.20663 8.31815 6.22712 8.17837C6.29198 8.07269 6.39099 8.00792 6.47975 7.92951C6.97136 7.5136 7.45955 7.09769 7.94774 6.68178C8.42569 6.2761 8.90023 5.87042 9.37818 5.46815C9.92783 5.00451 10.4741 4.53746 11.0237 4.07042C11.3275 3.81133 11.6314 3.54883 11.9421 3.29656C11.9898 3.26587 12.0206 3.23519 11.9864 3.17383Z" fill="#5C94CE"/>
<path d="M20.9719 9.72245C20.371 9.43267 19.7326 9.25199 19.0771 9.14631C18.8996 9.11904 18.7255 9.08154 18.548 9.08154C18.3192 8.93836 18.0939 8.78495 17.8584 8.64858C17.097 8.20881 16.264 7.90881 15.3935 7.76904C15.373 7.76222 15.3559 7.7554 15.3389 7.74858C15.5983 7.70086 16.4894 7.83381 17.1039 8.00427C17.6774 8.16108 18.2305 8.37586 18.7596 8.65199C18.705 8.48495 18.6026 8.37586 18.5411 8.2429C18.5343 8.20881 18.4865 8.17813 18.5172 8.14063C18.548 8.10313 18.5889 8.14404 18.6197 8.15767C18.7084 8.19858 18.7938 8.24631 18.8825 8.28722C19.6268 8.67245 20.33 9.13608 20.9787 9.6679C21.0128 9.71222 21.0128 9.71222 20.9719 9.72245Z" fill="#161F42"/>
<path d="M11.9864 3.17394C12.0034 3.21144 12.0512 3.18417 12.0751 3.22508C11.9317 3.34781 11.7884 3.47394 11.645 3.59667C11.3821 3.81826 11.1192 4.03985 10.8564 4.26144C10.4842 4.57508 10.1121 4.89213 9.73658 5.20576C9.47712 5.42394 9.22449 5.64894 8.96503 5.87053C8.65095 6.13644 8.33345 6.39894 8.02278 6.66485C7.77357 6.87622 7.52776 7.09099 7.27854 7.30235C7.01567 7.52394 6.7528 7.74554 6.48992 7.96713L6.22705 8.18872L6.30216 7.85463C6.26119 7.74553 6.34995 7.69781 6.40799 7.64667C6.64697 7.44894 6.88253 7.2444 7.11809 7.04326C7.67115 6.57622 8.22079 6.10576 8.77385 5.63872C9.24839 5.23644 9.72293 4.83417 10.1975 4.4319C10.6379 4.0569 11.0817 3.68531 11.5187 3.30349C11.5528 3.27281 11.6177 3.23872 11.5221 3.20122C11.6757 3.14667 11.8327 3.18758 11.9864 3.17394Z" fill="#6497D0"/>
<path d="M11.5257 3.20115C11.5598 3.20797 11.6008 3.18752 11.6383 3.2182C11.5496 3.35115 11.4164 3.43638 11.2969 3.53865C10.9624 3.83183 10.621 4.1182 10.283 4.40456C9.97233 4.66706 9.65825 4.92615 9.34758 5.18865C9.03691 5.45115 8.72624 5.72388 8.41216 5.98979C8.09808 6.2557 7.78741 6.51138 7.47674 6.77388C7.16607 7.03638 6.8554 7.3057 6.54132 7.57502C6.44914 7.65683 6.32283 7.71138 6.29893 7.85115C6.13506 7.87161 6.0463 8.00797 5.92681 8.09661C5.73563 8.23297 5.58883 8.42047 5.41472 8.57388C5.23719 8.70002 5.08015 8.85002 4.91628 8.98979C4.42468 9.4057 3.93648 9.82502 3.44488 10.2375C3.3766 10.2955 3.31515 10.3637 3.24004 10.4114C3.2059 10.4318 3.17518 10.4727 3.12738 10.4387C3.12397 10.35 3.14104 10.2614 3.17859 10.183C3.42439 10.0262 3.62923 9.8182 3.85114 9.63411C4.46223 9.12274 5.0665 8.60456 5.67418 8.08979C6.28186 7.57502 6.8793 7.06365 7.48357 6.55229C8.07418 6.05115 8.66479 5.55002 9.2554 5.04888C9.85967 4.53752 10.4639 4.02615 11.0648 3.51138C11.1843 3.40911 11.3106 3.31365 11.4233 3.20456L11.5257 3.20115Z" fill="#689AD1"/>
<path d="M12.857 3.22483C12.9969 3.22142 13.1301 3.25892 13.2666 3.27596C13.3042 3.35778 13.2325 3.38846 13.1915 3.42596C13.0208 3.57596 12.8433 3.71574 12.676 3.86915C12.659 3.84528 12.6385 3.82142 12.6214 3.79755C12.5838 3.74301 12.5565 3.75665 12.5326 3.80778C12.3312 4.24074 11.9864 4.54074 11.6075 4.80665C11.1841 5.10324 10.7267 5.3521 10.2453 5.54983C10.218 5.5021 10.218 5.49869 10.2624 5.45437C10.3545 5.35892 10.4604 5.28051 10.5594 5.19528C11.2865 4.57824 12.0137 3.9646 12.7375 3.34074C12.7784 3.30665 12.816 3.26574 12.857 3.22483Z" fill="#4E8FCC"/>
<path d="M12.857 3.22494C12.8536 3.26585 12.8297 3.30676 12.7955 3.33062C12.3278 3.72608 11.8601 4.12494 11.3924 4.5204C11.0339 4.8238 10.6789 5.13062 10.3204 5.43744C10.2897 5.46471 10.2283 5.48517 10.2453 5.54994C10.02 5.65562 9.78786 5.75108 9.5523 5.82949C9.47378 5.80903 9.53864 5.77835 9.5523 5.76471C9.69227 5.64199 9.83224 5.51926 9.97563 5.39994C10.2351 5.17835 10.498 4.95676 10.7608 4.73517C11.0203 4.51699 11.2797 4.2988 11.5358 4.08062C11.7918 3.86244 12.0513 3.64085 12.3073 3.41926C12.3893 3.34767 12.4917 3.29312 12.5463 3.19426C12.6522 3.18744 12.7546 3.22153 12.857 3.22494Z" fill="#5591CD"/>
<path d="M11.0407 6.2999C11.3104 6.16694 11.5937 6.05444 11.8293 5.86012C11.8771 5.85671 11.8737 5.8874 11.86 5.91808C11.6415 6.81808 10.9587 7.41126 10.0335 7.49649C9.85602 7.51353 9.6785 7.53399 9.49756 7.51694C9.52146 7.45217 9.58291 7.45558 9.63412 7.44194C9.83554 7.3874 10.0335 7.32944 10.2213 7.23399C10.5695 7.05331 10.8256 6.7874 10.9724 6.42262C10.9826 6.3749 11.0065 6.33058 11.0407 6.2999Z" fill="#161F42"/>
<path d="M11.0408 6.2998C10.9282 6.72935 10.6551 7.02594 10.2761 7.24071C10.0337 7.37708 9.76401 7.44185 9.49773 7.51685C9.43286 7.32594 9.50455 7.16571 9.61721 7.01912C9.75036 6.84867 9.93471 6.74299 10.1293 6.65435C10.4263 6.51799 10.7302 6.40208 11.0408 6.2998Z" fill="#418AC9"/>
<path d="M3.12735 10.4351C3.27757 10.3805 3.37657 10.251 3.49606 10.1521C3.88183 9.83508 4.26078 9.51122 4.63973 9.19077C4.84115 9.02031 5.03575 8.84986 5.23375 8.67599C5.28838 8.62827 5.33617 8.57713 5.41469 8.57031C5.20986 8.82599 5.01526 9.08849 4.86846 9.38508C4.47586 9.71577 4.08326 10.0499 3.69407 10.3839C3.51313 10.5374 3.32878 10.6874 3.15125 10.8476C3.12394 10.8714 3.09321 10.9021 3.05225 10.868C3.05907 10.7249 3.08297 10.5783 3.12735 10.4351Z" fill="#6497D0"/>
<path d="M4.62913 11.124C4.50964 11.1342 4.45502 11.2399 4.37309 11.3047C4.03511 11.5774 3.71078 11.8569 3.38304 12.1399C3.2738 12.2353 3.16797 12.3308 3.05189 12.4194C2.97679 12.4774 2.94606 12.4535 2.94947 12.3649C2.94947 12.2592 2.94947 12.1535 2.94947 12.0444C3.06896 11.9149 3.20893 11.816 3.34208 11.7035C3.72444 11.3797 4.09997 11.0524 4.48916 10.7353C4.5233 10.7081 4.55061 10.6569 4.60865 10.691L4.62913 11.124Z" fill="#468CCA"/>
<path d="M6.2749 8.5974C6.27832 8.55308 6.30221 8.51558 6.33977 8.49172C6.64702 8.23263 6.95428 7.97353 7.26153 7.71444C7.51416 7.50308 7.76338 7.2849 8.01601 7.07012C8.14916 6.95762 8.27889 6.84172 8.40862 6.72922C8.43251 6.70876 8.45641 6.69172 8.48031 6.72922C8.453 6.84512 8.41886 6.96103 8.42227 7.08376C8.28571 7.23376 8.11843 7.35308 7.9648 7.48603C7.48685 7.89513 7.0089 8.30081 6.53095 8.70649C6.51046 8.72353 6.49681 8.74399 6.47974 8.76444C6.38756 8.7474 6.30904 8.68603 6.2749 8.5974Z" fill="#5591CD"/>
<path d="M3.04878 10.8716C3.15803 10.8375 3.22289 10.7421 3.30824 10.6739C3.75888 10.3023 4.19928 9.9239 4.6465 9.54549C4.7182 9.48754 4.76599 9.3989 4.87182 9.38867C4.78989 9.58981 4.72161 9.79435 4.66699 10.0023C4.58847 9.99549 4.5475 10.0569 4.49629 10.1012C4.032 10.5 3.56429 10.8921 3.09999 11.2875C3.07268 11.3114 3.04537 11.3455 3.00098 11.3319C2.99416 11.175 3.01123 11.0216 3.04878 10.8716Z" fill="#5C94CE"/>
<path d="M6.47969 8.76468C6.44896 8.70672 6.50017 8.68968 6.5309 8.66581C6.9235 8.33172 7.3161 7.99763 7.70871 7.66695C7.93061 7.47945 8.15252 7.29195 8.37784 7.10445C8.3915 7.09763 8.40857 7.09081 8.42564 7.0874C8.42564 7.19308 8.44271 7.29536 8.47343 7.39422C8.34029 7.55104 8.16959 7.66695 8.01596 7.7999C7.67115 8.09649 7.32635 8.38968 6.97471 8.68286C6.95081 8.6999 6.93033 8.72377 6.9235 8.75104C6.7767 8.80558 6.6299 8.82604 6.47969 8.76468Z" fill="#4E8FCC"/>
<path d="M4.60184 10.694C4.45846 10.7759 4.34239 10.8952 4.21607 11.0009C3.8815 11.2736 3.55377 11.5531 3.22944 11.8361C3.14068 11.9145 3.05874 11.9997 2.94608 12.0509C2.95974 11.9145 2.91877 11.7747 2.96998 11.6418C3.47524 11.2122 3.98051 10.7827 4.48919 10.3531C4.52332 10.3224 4.56088 10.2884 4.61209 10.3122L4.60184 10.694Z" fill="#4E8FCC"/>
<path d="M4.61586 10.309C4.45199 10.3942 4.32909 10.5306 4.18912 10.6465C3.85797 10.9192 3.53706 11.1988 3.20932 11.4715C3.13763 11.5329 3.08642 11.6283 2.97717 11.6386C2.99083 11.5363 2.94986 11.4306 3.00448 11.3317C3.32198 11.059 3.64289 10.7863 3.9638 10.517C4.17888 10.3329 4.39737 10.1522 4.61586 9.96811C4.68414 9.91015 4.66707 9.97492 4.67048 10.0056C4.64659 10.1045 4.63293 10.2067 4.61586 10.309Z" fill="#5591CD"/>
<path d="M6.92349 8.75427C6.87569 8.72018 6.90983 8.69632 6.93373 8.67245C7.23415 8.42018 7.538 8.16791 7.83842 7.91563C8.02619 7.75882 8.21054 7.59859 8.39831 7.43836C8.41879 7.4145 8.44269 7.40086 8.47342 7.39404L8.54852 7.54745C8.49048 7.6395 8.39489 7.69404 8.32662 7.77927C7.95791 8.18836 7.54141 8.53268 7.01908 8.73041C6.98835 8.74063 6.95763 8.74745 6.92349 8.75427Z" fill="#488DCA"/>
<path d="M12.6763 3.87247C12.7241 3.72929 12.8743 3.68497 12.963 3.5827C13.0586 3.47361 13.2123 3.42588 13.2703 3.27588C13.383 3.27588 13.4888 3.30656 13.5946 3.32361C13.6868 3.34065 13.6936 3.38156 13.6288 3.43952C13.4888 3.56224 13.3488 3.68838 13.2088 3.8077C13.0757 3.9202 12.9426 4.0327 12.8094 4.1452C12.7616 4.05315 12.7172 3.96111 12.6763 3.87247Z" fill="#468CCA"/>
<path d="M6.35357 9.70271C6.37746 9.76074 6.30918 9.78805 6.31601 9.83926C6.28187 9.68222 6.19652 9.62419 6.03948 9.65491C5.8722 9.69246 5.72199 9.77781 5.60933 9.90754C5.5786 9.94168 5.54105 9.97241 5.50691 10.0031C5.4796 9.96899 5.50691 9.93827 5.51715 9.90754C5.58543 9.68564 5.73564 9.52859 5.92341 9.40228C5.96438 9.37155 6.01217 9.35107 6.06338 9.33741C6.28187 9.28621 6.40136 9.39204 6.37063 9.61394C6.37405 9.64467 6.36722 9.67539 6.35357 9.70271Z" fill="#428AC9"/>
<path d="M6.35329 9.70203C6.35329 9.66794 6.3567 9.63385 6.3567 9.59976C6.36012 9.37817 6.2338 9.29294 6.02555 9.3884C5.78658 9.49749 5.63636 9.69181 5.53053 9.92703C5.50663 9.93044 5.49298 9.92362 5.4998 9.89635C5.57491 9.61681 5.72171 9.3884 5.9641 9.22476C6.02555 9.18385 6.09383 9.15999 6.16211 9.14635C6.27477 9.12249 6.38743 9.19067 6.41474 9.30317C6.45229 9.43612 6.43181 9.58272 6.35329 9.70203Z" fill="#182144"/>
<path d="M8.3265 7.78C8.28212 7.74586 8.32309 7.7322 8.34357 7.71513C8.41526 7.66393 8.45623 7.57516 8.54499 7.54785C8.66107 7.7322 8.84542 7.81414 9.04001 7.88242C9.07757 7.89607 9.11853 7.90632 9.1834 7.92338C8.88639 8.00191 8.63034 7.97118 8.39478 7.81073C8.37771 7.79024 8.35381 7.78 8.3265 7.78Z" fill="#458CCA"/>
<path d="M18.8794 8.28441C18.7838 8.27417 18.7155 8.2093 18.6301 8.17858C18.596 8.16492 18.5653 8.12395 18.5311 8.15127C18.5038 8.17516 18.5482 8.2093 18.538 8.24344C18.4868 8.19906 18.4663 8.13078 18.439 8.06592C18.5926 8.12737 18.7428 8.18882 18.8794 8.28441Z" fill="#63657D"/>
<path d="M20.9717 9.72259C20.999 9.70552 20.9717 9.68503 20.9751 9.66455L21.1219 9.74649L21.2004 9.8489C21.1048 9.82159 21.04 9.76697 20.9717 9.72259Z" fill="#263154"/>
<path d="M15.0898 7.70452C15.1581 7.69428 15.2298 7.70111 15.2947 7.71817C15.2127 7.76597 15.1581 7.75914 15.0898 7.70452Z" fill="#A09AA9"/>
<path d="M5.27783 19.5376C5.35635 19.5513 5.39391 19.6298 5.45877 19.6639L5.45536 19.6946C5.38366 19.6605 5.32221 19.6059 5.27783 19.5376Z" fill="#424A7F"/>
<path d="M21.5386 14.6523L21.583 14.6797C21.5898 14.7309 21.5659 14.7752 21.5386 14.8367V14.6523Z" fill="#8CB7DE"/>
<path d="M15.0829 3.83838C15.0999 3.87593 15.1409 3.86228 15.1682 3.87252L15.0316 3.92714C15.0214 3.8691 15.0555 3.85545 15.0829 3.83838Z" fill="#5A5D76"/>
<path d="M5.50336 9.89648L5.53409 9.92721C5.52726 9.95111 5.51702 9.97842 5.51019 10.0023L5.45557 10.074C5.46922 9.98866 5.47264 9.93745 5.50336 9.89648Z" fill="#4F668A"/>
<path d="M11.8603 5.91471C11.8535 5.89423 11.8569 5.86691 11.8296 5.85667C11.8364 5.83619 11.8603 5.80888 11.8706 5.81912C11.9013 5.84984 11.8876 5.88398 11.8603 5.91471Z" fill="#555A73"/>
<path d="M3.22949 9.97468C3.26363 9.79059 3.30118 9.60649 3.38312 9.43604C3.68355 9.22468 3.94983 8.9724 4.22978 8.73718C4.71456 8.32808 5.19934 7.91899 5.6807 7.50649C6.1211 7.13149 6.5615 6.75649 7.00531 6.38149C7.48326 5.97581 7.96121 5.57013 8.43917 5.16445C8.87274 4.79627 9.30972 4.42808 9.74329 4.05649C10.0471 3.7974 10.3578 3.54172 10.6548 3.27581C10.8153 3.23831 10.9757 3.21786 11.1396 3.22468C11.1532 3.21104 11.1737 3.21104 11.1908 3.21786C11.2284 3.27922 11.1806 3.31331 11.143 3.3474C10.7299 3.69513 10.3202 4.04627 9.90716 4.3974C9.46676 4.76899 9.02978 5.14058 8.58938 5.51558C8.18312 5.8599 7.78027 6.20422 7.37402 6.54854C6.88241 6.96786 6.38739 7.38377 5.89237 7.80308C5.27786 8.32127 4.66676 8.84627 4.05225 9.36445C3.81328 9.56559 3.58113 9.77013 3.33874 9.96445C3.31825 9.98831 3.27729 10.0667 3.22949 9.97468Z" fill="#6D9CD2"/>
<path d="M10.655 3.27588C10.6106 3.41906 10.4741 3.47361 10.375 3.56224C10.0507 3.84861 9.71616 4.12474 9.38842 4.40429C9.01971 4.71452 8.64759 5.02474 8.27889 5.33838C7.95798 5.61111 7.64389 5.88724 7.32298 6.15997C7.01232 6.42247 6.69823 6.68156 6.38756 6.94747C6.0769 7.21338 5.76964 7.47929 5.45897 7.74179C5.1483 8.00429 4.83764 8.26679 4.52355 8.52929C4.26751 8.74747 4.01488 8.96565 3.75883 9.18383C3.65641 9.27247 3.55058 9.3577 3.44475 9.44292C3.42085 9.45997 3.40037 9.4702 3.37988 9.44292C3.41744 9.26565 3.47547 9.09179 3.55741 8.93156C3.79297 8.78156 3.99098 8.58724 4.20264 8.40997C4.68742 8.00088 5.1722 7.59179 5.65357 7.17929C6.152 6.75315 6.65385 6.32701 7.15229 5.90429C7.56537 5.55315 7.97846 5.20542 8.38813 4.85429C8.92412 4.40088 9.4567 3.94065 9.9961 3.49065C10.0371 3.46338 10.0678 3.42588 10.0849 3.38497C10.2726 3.30997 10.4672 3.31338 10.655 3.27588Z" fill="#729FD4"/>
<path d="M10.0919 3.37842C10.1704 3.39887 10.1056 3.42955 10.0919 3.44319C9.94852 3.57274 9.80172 3.70228 9.6515 3.82842C9.39205 4.0466 9.13259 4.26478 8.87313 4.48296C8.49418 4.80001 8.11523 5.12046 7.73628 5.44092C7.42562 5.70342 7.11836 5.97274 6.80769 6.23524C6.48678 6.50796 6.16587 6.77728 5.84496 7.0466C5.53429 7.3091 5.22704 7.57501 4.91637 7.84092C4.6057 8.10342 4.29503 8.36592 3.98436 8.62842C3.8717 8.72387 3.75904 8.81933 3.64297 8.91478C3.61907 8.93183 3.59517 8.97614 3.56104 8.92842C3.59517 8.75455 3.68735 8.60115 3.76587 8.44433C4.18579 8.08637 4.60911 7.72842 5.03244 7.36705C5.46601 6.99546 5.903 6.62728 6.33657 6.2591C6.75307 5.90455 7.16616 5.55342 7.58266 5.20228C8.01964 4.83069 8.46004 4.45569 8.89702 4.0841C9.12234 3.89319 9.34425 3.69205 9.57981 3.50455C9.74027 3.42955 9.91779 3.4091 10.0919 3.37842Z" fill="#78A2D5"/>
<path d="M9.57957 3.50439C9.4157 3.71576 9.1972 3.86235 8.9992 4.03621C8.73974 4.26121 8.47686 4.4828 8.21399 4.70439C7.95794 4.91917 7.7019 5.13394 7.44585 5.35212C7.18981 5.5703 6.93718 5.78849 6.68113 6.00326C6.42508 6.22144 6.16221 6.43962 5.90275 6.6578C5.65012 6.87258 5.4009 7.08735 5.14827 7.30212C4.82736 7.57485 4.50645 7.84417 4.18554 8.11348C4.07288 8.20894 3.95681 8.30439 3.84415 8.39985C3.82366 8.4203 3.79635 8.43394 3.76562 8.43735C3.84756 8.22258 3.94998 8.01803 4.07288 7.82371C4.65666 7.34985 5.22679 6.85553 5.80033 6.36803C6.46605 5.80212 7.13177 5.24303 7.79407 4.67371C8.16619 4.35326 8.55538 4.04644 8.91726 3.70894C9.12893 3.62371 9.35083 3.55553 9.57957 3.50439Z" fill="#7DA5D6"/>
<path d="M8.91372 3.7124C8.94103 3.75672 8.89324 3.77036 8.87275 3.79081C8.5894 4.03967 8.30263 4.28513 8.01585 4.53058C7.76322 4.74536 7.51059 4.95672 7.25796 5.17149C6.94388 5.4374 6.6298 5.70331 6.31571 5.96581C6.05967 6.18399 5.80704 6.40218 5.55099 6.61695C5.23008 6.88968 4.90917 7.15899 4.59167 7.42831C4.45853 7.54081 4.32539 7.65672 4.19566 7.76922C4.16152 7.80331 4.11714 7.82377 4.07275 7.83058C4.2298 7.51354 4.42098 7.21354 4.63605 6.9374C4.83406 6.79081 5.015 6.62377 5.20277 6.46695C5.69096 6.05445 6.17574 5.64195 6.66052 5.22945C7.03605 4.90899 7.41159 4.58854 7.78712 4.27149C7.84516 4.22377 7.91685 4.18968 7.96123 4.1249C8.26166 3.9374 8.5894 3.82831 8.91372 3.7124Z" fill="#81A7D8"/>
<path d="M14.3148 15.1156C14.0587 15.327 13.8027 15.5417 13.4613 15.6883C13.5603 15.4906 13.6354 15.2826 13.6866 15.0679C13.888 14.1815 13.7003 13.3735 13.1779 12.6406C13.0482 12.4599 12.8741 12.3201 12.7205 12.1599C12.6966 12.1326 12.6693 12.102 12.6249 12.1224C12.5771 12.0985 12.5566 12.0542 12.5225 12.0201C12.5429 11.9929 12.5668 12.0065 12.5907 12.0201C13.2087 12.3713 13.7242 12.8247 14.0417 13.4758C14.1953 13.7963 14.2909 14.144 14.3216 14.4985C14.3421 14.7031 14.3387 14.911 14.3148 15.1156Z" fill="#0E1F66"/>
<path d="M3.22943 9.97504C3.33185 10.0125 3.36599 9.91026 3.4172 9.86935C3.93612 9.43981 4.44821 9.00345 4.9603 8.56367C5.44508 8.15117 5.92303 7.73526 6.40781 7.32276C6.94721 6.86594 7.49003 6.41254 8.03285 5.95572C8.51763 5.54322 8.99899 5.12731 9.48377 4.71481C10.0061 4.27163 10.5284 3.82504 11.0542 3.37844C11.1088 3.33413 11.1839 3.31026 11.1942 3.22504C11.2249 3.19776 11.2658 3.22844 11.2966 3.20117H11.4263C11.3887 3.33754 11.2556 3.38526 11.1634 3.46708C10.8971 3.70572 10.6206 3.93072 10.3509 4.15913C10.0402 4.42163 9.72616 4.68413 9.41549 4.94663C9.16286 5.1614 8.91364 5.37617 8.66101 5.59094C8.28889 5.90458 7.91336 6.21822 7.54465 6.53526C7.29202 6.75004 7.0428 6.96481 6.79017 7.17958C6.46926 7.45231 6.14835 7.72163 5.82744 7.99094C5.57481 8.20572 5.32559 8.42049 5.07296 8.63526C4.8135 8.85344 4.55404 9.07163 4.29458 9.28981C4.03512 9.50799 3.77908 9.73299 3.51962 9.95117C3.43085 10.0262 3.33526 10.1012 3.24309 10.1762C3.2226 10.1932 3.20212 10.2069 3.17822 10.1762C3.17822 10.1114 3.19529 10.0398 3.22943 9.97504Z" fill="#699AD1"/>
<path d="M7.96482 4.11816C7.94434 4.24089 7.82485 4.27157 7.74974 4.33975C7.48687 4.57498 7.21717 4.79657 6.94747 5.02498C6.63339 5.29089 6.3193 5.55339 6.00522 5.8193C5.75259 6.03407 5.50337 6.24885 5.25074 6.46362C5.06639 6.62044 4.88545 6.77725 4.7011 6.93407C4.68061 6.95112 4.66013 6.96475 4.63623 6.93407C4.76937 6.72953 4.91959 6.53521 5.08346 6.35112C5.68431 5.65226 6.37051 5.04544 7.15572 4.55794C7.41859 4.39771 7.67805 4.23066 7.96482 4.11816Z" fill="#88ABD9"/>
<path d="M12.3962 3.20102C12.3108 3.19078 12.2221 3.22833 12.1401 3.17712C12.2255 3.18736 12.3142 3.14981 12.3962 3.20102Z" fill="#5591CD"/>
<path d="M11.2933 3.20089C11.266 3.23845 11.225 3.22138 11.1909 3.22479H11.1396C11.1874 3.18041 11.2421 3.20772 11.2933 3.20089Z" fill="#689AD1"/>
<path d="M8.83545 20.9964C9.67186 21.0339 10.5049 20.901 11.2867 20.6112C12.048 20.3351 12.7581 19.9362 13.3896 19.4282C14.0076 18.9271 14.5401 18.3544 14.8952 17.6351C15.0864 17.2498 15.2059 16.8339 15.2434 16.4078C15.2776 16.0226 15.2127 15.6578 15.1069 15.2964C15.1171 15.2078 15.199 15.1669 15.2468 15.1055C15.4312 14.8635 15.5643 14.6044 15.6224 14.3044C15.6326 14.2635 15.6463 14.226 15.6633 14.1885C15.7794 14.4203 15.8716 14.6623 15.9364 14.9112C16.0252 15.2623 16.0764 15.6203 16.0491 15.9817C16.0013 16.6089 15.8135 17.2192 15.4995 17.7646C15.1854 18.3169 14.7825 18.7873 14.3182 19.2101C13.9086 19.5748 13.4579 19.8919 12.9731 20.1476C12.3894 20.4646 11.768 20.6998 11.1194 20.8532C10.7165 20.9487 10.3034 21.0067 9.89036 21.0305C9.68894 21.0407 9.49093 21.0578 9.29292 21.0476C9.14612 21.0339 8.98908 21.0442 8.83545 20.9964Z" fill="#0E1F66"/>
</g>
<defs>
<clipPath id="clip0_5357_48272">
<rect width="24" height="24" fill="white"/>
</clipPath>
</defs>
</svg>
