<svg width="24" height="24" viewBox="0 0 24 24" fill="none" xmlns="http://www.w3.org/2000/svg">
<g clip-path="url(#clip0_5357_40448)">
<path d="M11.9964 23.9927C18.6218 23.9927 23.9927 18.6218 23.9927 11.9964C23.9927 5.37096 18.6218 0 11.9964 0C5.37096 0 0 5.37096 0 11.9964C0 18.6218 5.37096 23.9927 11.9964 23.9927Z" fill="black"/>
<path fill-rule="evenodd" clip-rule="evenodd" d="M17.4127 15.1333C17.4127 18.6886 14.5446 19.794 12.3936 19.794C11.7314 19.794 11.0533 19.6749 10.3962 19.5596C9.7785 19.4511 9.17931 19.3459 8.62919 19.3459C7.70305 19.3459 7.16527 19.5251 6.74702 19.7641V13.7889H6.77689C7.70302 15.9699 9.37609 19.4952 12.6027 19.4952C14.2459 19.4952 15.3812 18.599 15.3812 16.8363C15.3812 15.7053 14.4562 15.0002 12.9563 14.34V10.4956C15.6618 11.4662 17.4127 12.6644 17.4127 15.1333ZM11.4568 9.92907C9.44042 9.12956 8.44995 8.5162 8.44995 7.18634C8.44995 5.42364 9.79436 4.52737 11.318 4.52737C13.3795 4.52737 14.9928 6.29007 16.6658 9.51666H16.6957L16.4268 4.40787C16.1579 4.46763 15.7994 4.52737 15.4708 4.52737C14.9018 4.52737 14.4187 4.45978 13.8908 4.3859C13.2545 4.2969 12.553 4.19873 11.557 4.19873C9.31635 4.19873 6.44824 5.48341 6.44824 8.8594C6.44824 10.9208 7.34454 12.3549 10.7504 13.4902C10.9928 13.5771 11.2285 13.6622 11.4568 13.7462V9.92907Z" fill="white"/>
<path d="M12.896 2.09912H11.3965V4.4984H12.896V2.09912Z" fill="white"/>
<path d="M12.896 19.4941H11.3965V21.8934H12.896V19.4941Z" fill="white"/>
</g>
<defs>
<clipPath id="clip0_5357_40448">
<rect width="24" height="24" fill="white"/>
</clipPath>
</defs>
</svg>
