<svg width="24" height="24" viewBox="0 0 24 24" fill="none" xmlns="http://www.w3.org/2000/svg">
<g clip-path="url(#clip0_28_606)">
<path d="M17.5728 2.11144C16.9482 2.729 16.3759 3.39834 15.8673 4.11205L15.7065 4.06028C14.7789 3.76074 13.8177 3.57584 12.8491 3.51298C12.5573 3.49079 11.469 3.49079 11.1137 3.51298C10.0403 3.58324 9.21745 3.74225 8.28243 4.06398C8.24503 4.07877 8.21137 4.08986 8.17771 4.10096C7.65036 3.39094 7.06317 2.7253 6.41614 2.11513C9.52039 0.543486 13.152 0.354888 16.4021 1.59372C16.7499 1.72315 17.0903 1.87476 17.4231 2.03748L17.5728 2.11144Z" fill="#F00500"/>
<path d="M23.3624 16.1378C22.8911 17.4654 22.1842 18.6969 21.2679 19.7693C20.7705 20.3462 20.2207 20.875 19.6298 21.3557C18.2459 22.4577 16.6302 23.2454 14.9061 23.6596C12.9986 24.1144 11.0089 24.1144 9.10148 23.6596C7.37357 23.2454 5.76161 22.4577 4.37778 21.3557C3.78685 20.875 3.23706 20.3462 2.73963 19.7693C0.102888 16.6888 -0.697486 12.4583 0.645197 8.6457C0.899522 7.93939 1.21743 7.25895 1.59891 6.61181C1.7747 6.31597 1.99162 5.98315 2.09634 5.84632C2.45539 7.37359 2.89672 8.71597 3.06128 9.2004C3.05006 9.22629 3.0351 9.25587 3.02014 9.28176C2.1487 11.0272 1.67746 12.7098 1.56525 14.4996C1.56525 14.5218 1.56151 14.5477 1.56151 14.5699C1.53159 15.1061 1.54655 15.3613 1.63631 15.6978C1.91682 16.7517 2.78078 17.9129 4.13468 19.0519C6.35254 20.9157 9.35955 22.2617 11.6372 22.417C14.0122 22.5761 17.5166 21.2041 19.8504 19.1998C20.217 18.8781 20.561 18.5378 20.8827 18.1754C21.1146 17.9092 21.4587 17.4506 21.4325 17.4506C21.425 17.4506 21.4325 17.4432 21.4474 17.4358C21.4587 17.4284 21.4699 17.4174 21.4624 17.41C21.4587 17.4063 21.4661 17.3952 21.4774 17.3915C21.4886 17.3878 21.4961 17.3804 21.4923 17.373C21.4886 17.3656 21.4923 17.3582 21.5073 17.3545C21.5185 17.3508 21.5222 17.3397 21.5185 17.3323C21.5148 17.3249 21.5185 17.3175 21.526 17.3175C21.5335 17.3175 21.5409 17.3064 21.5409 17.299C21.5409 17.2916 21.5484 17.2805 21.5559 17.2805C21.5634 17.2805 21.5709 17.2731 21.5709 17.2657C21.5821 17.2362 21.6008 17.2066 21.6195 17.1807C21.6756 17.0956 21.9 16.6999 21.9299 16.6334C22.1431 16.1563 22.2777 15.7311 22.3413 15.3058C22.3712 15.1024 22.3899 14.7289 22.375 14.6402C22.3712 14.6254 22.3712 14.5995 22.3675 14.5588C22.36 14.4848 22.3563 14.3739 22.3488 14.263C22.3413 14.0966 22.3264 13.8636 22.3151 13.7489C22.1543 12.07 21.7205 10.6981 20.8976 9.24478C20.864 9.18931 20.8341 9.13384 20.8154 9.08946C20.8079 9.07837 20.8041 9.06728 20.8004 9.05988C20.9164 8.71597 21.3913 7.27744 21.7691 5.63184L21.7766 5.63923L21.8327 5.71319C21.9299 5.84262 22.188 6.22721 22.3039 6.41211C22.8313 7.26265 23.2427 8.17606 23.5344 9.13014C24.2113 11.4266 24.1552 13.8747 23.3624 16.1378Z" fill="#F00500"/>
<path d="M18.5078 11.7189C18.4965 11.778 18.3208 11.9555 18.145 12.085C17.6288 12.4585 16.705 12.8061 15.7663 12.9725C15.2315 13.0686 14.6966 13.0834 14.5358 13.0058C14.4311 12.954 14.4161 12.9133 14.4535 12.7802C14.5321 12.5029 14.7864 12.1996 15.1828 11.9149C15.3848 11.7706 16.2039 11.2788 16.5854 11.0717C17.2137 10.7315 17.7223 10.5281 18.0664 10.48C18.1749 10.4653 18.3058 10.4616 18.3469 10.48C18.4143 10.5059 18.4891 10.7019 18.519 10.9386C18.5339 11.0643 18.5265 11.619 18.5078 11.7189Z" fill="black"/>
<path d="M9.69616 12.9428C9.67372 12.9872 9.56152 13.0353 9.43435 13.0538C9.30719 13.0723 8.91823 13.0612 8.69756 13.0353C7.90467 12.9317 7.06316 12.6914 6.44979 12.3955C6.1057 12.2291 5.85885 12.0627 5.67559 11.8815L5.57087 11.7743L5.55965 11.6337C5.54095 11.3897 5.54469 11.0051 5.57461 10.8683C5.59331 10.7536 5.63445 10.6427 5.69055 10.5428C5.72047 10.5059 5.72047 10.5059 5.85511 10.5059C6.01968 10.5059 6.15806 10.5317 6.38246 10.602C6.84249 10.7425 7.52692 11.0827 8.36096 11.5783C9.04913 11.9851 9.30719 12.1848 9.50542 12.4584C9.64006 12.6285 9.72982 12.8689 9.69616 12.9428Z" fill="black"/>
<path d="M14.9921 18.0906C14.9921 18.1017 14.9472 18.2792 14.8911 18.49C14.835 18.7008 14.7902 18.8709 14.7902 18.8783C14.749 18.882 14.7116 18.8857 14.6705 18.882H14.5508L14.3862 19.2665C14.2965 19.4773 14.2142 19.6733 14.203 19.7029L14.1805 19.7547L14.102 19.629L14.0234 19.5032V18.4789L13.9935 18.4863C13.9299 18.5011 13.4774 18.5602 13.2792 18.5787C12.4601 18.6601 11.6373 18.6416 10.8219 18.5269C10.691 18.5085 10.5788 18.4937 10.5751 18.4974C10.5714 18.5011 10.5751 18.7377 10.5826 19.0299L10.5938 19.555L10.5302 19.6511C10.4966 19.7029 10.4629 19.7473 10.4629 19.751C10.4517 19.7621 10.4143 19.7029 10.3283 19.5328C10.2348 19.3553 10.1674 19.1667 10.1188 18.9707L10.0926 18.8635L9.97668 18.8709L9.86074 18.882L9.83082 18.7451C9.81586 18.6712 9.79716 18.5565 9.78968 18.4937L9.77846 18.3753L9.68122 18.2903C9.62512 18.2422 9.56902 18.1941 9.5578 18.1867C9.5391 18.1719 9.53162 18.1461 9.53162 18.1239V18.0795L9.99912 18.0832L10.4666 18.0869L10.4816 18.135L10.4966 18.183L10.6574 18.1904C10.7471 18.1941 11.0314 18.2015 11.2857 18.2089L11.7532 18.22L11.8729 18.0351L11.9963 17.8502H12.1534L12.1497 17.4656L12.1459 17.081L11.9402 16.9923C11.2782 16.7038 10.8893 16.3747 10.7434 15.9753C10.7135 15.894 10.7135 15.8644 10.706 15.4946C10.7023 15.1285 10.7023 15.0952 10.7284 15.0139C10.7808 14.829 10.9267 14.6847 11.1137 14.6367C11.1772 14.6182 11.3456 14.6182 12.2282 14.6182L13.2679 14.6219L13.3839 14.6773C13.5223 14.7439 13.5858 14.792 13.6644 14.8955C13.7542 15.0138 13.7803 15.1063 13.7803 15.3319C13.7803 15.6536 13.7579 15.931 13.7242 16.0419C13.6756 16.1935 13.6008 16.3377 13.5073 16.4672C13.3203 16.7038 12.98 16.9405 12.6695 17.0477L12.5798 17.081L12.5835 17.4693L12.5873 17.8576L12.6695 17.865L12.7518 17.8724L12.864 18.0388L12.9725 18.2052H13.4736C13.7504 18.2052 13.9935 18.2089 14.016 18.2126C14.0534 18.22 14.0608 18.2163 14.0982 18.1535L14.1431 18.0869H14.5732C14.8949 18.0721 14.9921 18.0795 14.9921 18.0906Z" fill="black"/>
<path d="M13.0174 19.1517C12.9463 19.1924 12.8977 19.2109 12.8865 19.2035C12.8753 19.1998 12.8229 19.1554 12.7668 19.1148L12.6658 19.0334L12.5611 19.1443C12.333 19.3884 12.3255 19.3995 12.2582 19.4032C12.1534 19.4143 12.131 19.3958 12.0038 19.2072C11.9365 19.1111 11.8842 19.0297 11.8842 19.0297C11.8842 19.0297 11.8355 19.0223 11.7794 19.0186L11.6747 19.0075L11.6261 19.1074L11.5775 19.2072L11.4915 19.1813C11.4241 19.1591 11.3568 19.1332 11.2932 19.1037L11.181 19.0482V18.8374L12.1759 18.8411L13.1707 18.8448L13.1745 18.9446C13.1782 19.063 13.182 19.0593 13.0174 19.1517Z" fill="black"/>
<path d="M22.3676 14.6402C22.3639 14.6254 22.3639 14.5996 22.3601 14.5589C21.4625 14.4627 18.9006 14.4036 16.5219 16.345C16.5219 16.345 15.7552 12.8689 12.1647 12.8689C8.57423 12.8689 7.24277 16.345 7.24277 16.345C5.23062 14.2039 2.53777 14.3592 1.56535 14.4997C1.56535 14.5219 1.56161 14.5478 1.56161 14.57C1.53169 15.1062 1.54665 15.3613 1.63641 15.6979C1.91692 16.7518 2.78087 17.913 4.13478 19.0519C6.35264 20.9157 9.35965 22.2618 11.6373 22.4171C14.0123 22.5761 17.5167 21.2042 19.8505 19.1999C20.2171 18.8781 20.5611 18.5379 20.8828 18.1755C21.1147 17.9093 21.4588 17.4507 21.4326 17.4507C21.4251 17.4507 21.4326 17.4433 21.4475 17.4359C21.4588 17.4285 21.47 17.4174 21.4625 17.41C21.4588 17.4063 21.4662 17.3952 21.4775 17.3915C21.4887 17.3878 21.4962 17.3805 21.4924 17.3731C21.4887 17.3657 21.4924 17.3583 21.5074 17.3546C21.5186 17.3509 21.5223 17.3398 21.5186 17.3324C21.5149 17.325 21.5186 17.3176 21.5261 17.3176C21.5336 17.3176 21.541 17.3065 21.541 17.2991C21.541 17.2917 21.5485 17.2806 21.556 17.2806C21.5635 17.2806 21.571 17.2732 21.571 17.2658C21.5822 17.2362 21.6009 17.2066 21.6196 17.1808C21.6757 17.0957 21.9001 16.7 21.93 16.6335C22.1432 16.1564 22.2778 15.7311 22.3414 15.3059C22.3639 15.1025 22.3826 14.729 22.3676 14.6402ZM13.0174 19.1518C12.9464 19.1925 12.8978 19.211 12.8865 19.2036C12.8753 19.1999 12.8229 19.1555 12.7668 19.1148L12.6659 19.0335L12.5611 19.1444C12.333 19.3885 12.3255 19.3996 12.2582 19.4033C12.1535 19.4144 12.131 19.3959 12.0039 19.2073C11.9366 19.1111 11.8842 19.0298 11.8842 19.0298C11.8842 19.0298 11.8356 19.0224 11.7795 19.0187L11.6747 19.0076L11.6261 19.1074L11.5775 19.2073L11.4915 19.1814C11.4242 19.1592 11.3568 19.1333 11.2933 19.1037L11.1811 19.0482V18.8375L12.1759 18.8412L13.1708 18.8449L13.1745 18.9447C13.1783 19.063 13.182 19.0593 13.0174 19.1518ZM14.8875 18.4862C14.8314 18.6969 14.7865 18.867 14.7865 18.8744C14.7453 18.8781 14.7079 18.8818 14.6668 18.8781H14.5471L14.3863 19.2664C14.2965 19.4772 14.2143 19.6732 14.203 19.7028L14.1806 19.7546L14.1021 19.6288L14.0235 19.5031V18.4788L13.9936 18.4862C13.93 18.5009 13.4775 18.5601 13.2792 18.5786C12.4602 18.66 11.6373 18.6415 10.822 18.5268C10.6911 18.5083 10.5789 18.4936 10.5752 18.4972C10.5714 18.5009 10.5752 18.7376 10.5827 19.0298L10.5939 19.5549L10.5303 19.651C10.4966 19.7028 10.463 19.7472 10.463 19.7509C10.4517 19.762 10.4143 19.7028 10.3283 19.5327C10.2348 19.3552 10.1675 19.1666 10.1189 18.9706L10.0927 18.8633L9.97676 18.8707L9.86082 18.8818L9.8309 18.745C9.81594 18.6711 9.79724 18.5564 9.78976 18.4935L9.77854 18.3752L9.68129 18.2902C9.62519 18.2421 9.56909 18.194 9.55787 18.1866C9.53917 18.1718 9.53169 18.1459 9.53169 18.1237V18.0794L9.9992 18.0831L10.4667 18.0868L10.4817 18.1348L10.4966 18.1829L10.6575 18.1903C10.7472 18.194 11.0315 18.2014 11.2858 18.2088L11.7533 18.2199L11.873 18.035L11.9964 17.8501H12.1535L12.1497 17.4655L12.146 17.0809L11.9403 16.9922C11.2783 16.7037 10.8893 16.3746 10.7435 15.9752C10.7136 15.8939 10.7136 15.8643 10.7061 15.4945C10.7023 15.1284 10.7023 15.0951 10.7285 15.0137C10.7809 14.8288 10.9267 14.6846 11.1137 14.6365C11.1773 14.618 11.3456 14.618 12.2283 14.618L13.268 14.6217L13.384 14.6772C13.5223 14.7438 13.5859 14.7919 13.6645 14.8954C13.7542 15.0137 13.7804 15.1062 13.7804 15.3318C13.7804 15.6535 13.758 15.9308 13.7243 16.0418C13.6757 16.1934 13.6009 16.3376 13.5074 16.467C13.3204 16.7037 12.98 16.9404 12.6696 17.0476L12.5798 17.0809L12.5836 17.4692L12.5873 17.8575L12.6696 17.8649L12.7519 17.8723L12.8641 18.0387L12.9726 18.2051H13.4737C13.7505 18.2051 13.9936 18.2088 14.016 18.2125C14.0534 18.2199 14.0609 18.2162 14.0983 18.1533L14.1432 18.0868H14.5733C14.9062 18.0868 15.0034 18.0905 15.0034 18.1016C14.9922 18.0979 14.9436 18.2791 14.8875 18.4862Z" fill="white"/>
<path d="M22.3377 14.2631C22.3302 14.0967 22.3152 13.8637 22.304 13.7491C22.1432 12.0702 21.7093 10.6982 20.8865 9.24491C20.8529 9.18944 20.8229 9.13397 20.8042 9.08959C20.7968 9.0785 20.793 9.06741 20.7893 9.06001C20.9052 8.7161 21.3802 7.27758 21.758 5.63197C22.2703 3.39838 22.5957 0.787592 21.6009 0.0036171C21.6009 0.0036171 19.8804 -0.122115 17.5766 2.11148C16.952 2.72904 16.3797 3.39838 15.8711 4.11209L15.7103 4.06032C14.7827 3.76078 13.8215 3.57588 12.8529 3.51302C12.5611 3.49083 11.4728 3.49083 11.1175 3.51302C10.0441 3.58328 9.22126 3.74229 8.28624 4.06402C8.24884 4.07881 8.21518 4.0899 8.18152 4.101C7.65417 3.39098 7.06698 2.72534 6.41995 2.11517C4.02256 -0.129511 2.23855 -8.11202e-05 2.23855 -8.11202e-05C1.18386 0.80978 1.5429 3.5389 2.08895 5.84645C2.448 7.37372 2.88932 8.7161 3.05389 9.20053C3.04267 9.22642 3.02771 9.256 3.01275 9.28189C2.14131 11.0273 1.67006 12.7099 1.55786 14.4998C2.53402 14.3592 5.22313 14.2002 7.23902 16.3451C7.23902 16.3451 8.57048 12.8689 12.1609 12.8689C15.7514 12.8689 16.5181 16.3451 16.5181 16.3451C18.8968 14.4036 21.4587 14.4665 22.3564 14.5589C22.3526 14.485 22.3451 14.374 22.3377 14.2631ZM3.76076 7.80639C3.76076 7.80639 2.36197 4.34876 2.72102 2.37403C2.78086 2.04121 2.89307 1.74907 3.06885 1.52719C3.06885 1.52719 4.65463 1.68251 7.21284 4.49298C7.21284 4.49298 6.72663 4.72596 6.07586 5.22149C6.07586 5.22149 6.07212 5.22519 6.06838 5.22519C5.36151 5.7614 4.45641 6.61194 3.76076 7.80639ZM9.69624 12.9429C9.6738 12.9873 9.5616 13.0354 9.43444 13.0538C9.30728 13.0723 8.91831 13.0612 8.69765 13.0354C7.90475 12.9318 7.06324 12.6914 6.44987 12.3956C6.10578 12.2292 5.85894 12.0628 5.67567 11.8816L5.57095 11.7743L5.55973 11.6338C5.54103 11.3897 5.54477 11.0052 5.57469 10.8683C5.59339 10.7537 5.63453 10.6428 5.69063 10.5429C5.72055 10.5059 5.72055 10.5059 5.8552 10.5059C6.01976 10.5059 6.15814 10.5318 6.38255 10.6021C6.84257 10.7426 7.52701 11.0828 8.36104 11.5783C9.04921 11.9851 9.30728 12.1848 9.5055 12.4585C9.64014 12.6286 9.7299 12.8689 9.69624 12.9429ZM18.5078 11.7189C18.4966 11.778 18.3208 11.9555 18.1451 12.085C17.6289 12.4585 16.7051 12.8061 15.7664 12.9725C15.2315 13.0686 14.6967 13.0834 14.5359 13.0058C14.4312 12.954 14.4162 12.9133 14.4536 12.7802C14.5321 12.5028 14.7865 12.1996 15.1829 11.9149C15.3849 11.7706 16.204 11.2788 16.5854 11.0717C17.2138 10.7315 17.7224 10.5281 18.0665 10.48C18.175 10.4653 18.3059 10.4616 18.347 10.48C18.4143 10.5059 18.4891 10.7019 18.5191 10.9386C18.534 11.0643 18.5265 11.619 18.5078 11.7189ZM17.887 5.22149L17.8795 5.21779C17.2512 4.72226 16.7799 4.48929 16.7799 4.48929C19.2521 1.67881 20.7818 1.52349 20.7818 1.52349C20.9501 1.74907 21.0586 2.03752 21.1184 2.37033C21.4662 4.34507 20.1161 7.80639 20.1161 7.80639C19.5513 6.81163 18.7921 5.93151 17.887 5.22149Z" fill="#FFA409"/>
<path d="M21.1221 2.37028C20.8304 2.3333 19.4503 2.3259 17.887 5.22143L17.8795 5.21774C17.2512 4.7222 16.7799 4.48923 16.7799 4.48923C19.2521 1.67875 20.7818 1.52344 20.7818 1.52344C20.9538 1.74902 21.0623 2.03746 21.1221 2.37028Z" fill="#FF9300"/>
<path d="M20.1198 7.80644C19.5513 6.80798 18.7958 5.93155 17.887 5.22154C19.4503 2.32601 20.8267 2.3334 21.1221 2.37038C21.4699 4.34881 20.1198 7.80644 20.1198 7.80644Z" fill="#FF8300"/>
<path d="M21.1774 2.38145C21.159 2.37776 21.1405 2.37406 21.1221 2.37036L21.1774 2.38145Z" fill="#FF8300"/>
<path d="M7.21284 4.48923C7.21284 4.48923 6.72664 4.7222 6.07587 5.21774C6.07587 5.21774 6.07212 5.22143 6.06838 5.22143C4.44893 2.3222 3.02397 2.3333 2.71729 2.37028C2.77713 2.03746 2.88933 1.74532 3.06511 1.52344C3.06885 1.52344 4.65464 1.67875 7.21284 4.48923Z" fill="#FF9300"/>
<path d="M6.07202 5.22154C5.36141 5.76145 4.45632 6.60829 3.76066 7.80644C3.76066 7.80644 2.36188 4.34881 2.72092 2.37038C3.02387 2.3334 4.45257 2.32601 6.07202 5.22154Z" fill="#FF8300"/>
<path d="M2.72019 2.37036C2.70173 2.37406 2.67959 2.37776 2.66113 2.38145L2.72019 2.37036Z" fill="#FF8300"/>
<path d="M16.3348 9.7256C16.3348 9.7256 15.138 9.79956 15.2876 8.87506C15.4372 7.95056 16.3722 7.83962 16.634 7.8766C16.8958 7.91358 17.943 8.28338 17.756 9.05996C17.569 9.83654 17.3072 9.68862 17.1576 9.7256C17.008 9.76258 16.3348 9.7256 16.3348 9.7256Z" fill="white"/>
<path d="M7.50828 9.7256C7.50828 9.7256 6.31146 9.79956 6.46106 8.87506C6.61066 7.95056 7.54568 7.83962 7.80748 7.8766C8.06929 7.91358 9.11651 8.28338 8.9295 9.05996C8.7425 9.83654 8.4807 9.68862 8.33109 9.7256C8.18149 9.76258 7.50828 9.7256 7.50828 9.7256Z" fill="white"/>
</g>
<defs>
<clipPath id="clip0_28_606">
<rect width="24" height="24" fill="white"/>
</clipPath>
</defs>
</svg>
