<?xml version="1.0" encoding="UTF-8"?>
<!DOCTYPE svg PUBLIC "-//W3C//DTD SVG 1.1//EN" "http://www.w3.org/Graphics/SVG/1.1/DTD/svg11.dtd">
<svg xmlns="http://www.w3.org/2000/svg" version="1.1" width="304px" height="304px" style="shape-rendering:geometricPrecision; text-rendering:geometricPrecision; image-rendering:optimizeQuality; fill-rule:evenodd; clip-rule:evenodd" xmlns:xlink="http://www.w3.org/1999/xlink">
<g><path style="opacity:0.976" fill="#c4c0fc" d="M 134.5,-0.5 C 144.833,-0.5 155.167,-0.5 165.5,-0.5C 163.392,3.19494 160.559,5.19494 157,5.5C 155.324,6.0611 153.991,7.0611 153,8.5C 152.667,8.16667 152.333,7.83333 152,7.5C 149.886,10.1208 147.386,12.1208 144.5,13.5C 82.6466,20.04 40.98,52.3734 19.5,110.5C 19.631,109.761 19.4643,109.094 19,108.5C 17.2794,110.711 15.2794,112.711 13,114.5C 12.6667,113.833 12.3333,113.167 12,112.5C 11.5348,113.931 10.7014,115.097 9.5,116C 7.59754,116.199 6.09754,117.033 5,118.5C 4.32924,117.748 3.4959,117.414 2.5,117.5C 21.7108,50.2824 65.7108,10.949 134.5,-0.5 Z"/></g>
<g><path style="opacity:0.98" fill="#c9c5fc" d="M 165.5,-0.5 C 166.5,-0.5 167.5,-0.5 168.5,-0.5C 185.063,1.90607 201.063,6.57274 216.5,13.5C 216.291,14.9217 215.791,16.255 215,17.5C 214,17.5 213,17.5 212,17.5C 211.333,19.5 210,20.8333 208,21.5C 207.667,20.8333 207.333,20.1667 207,19.5C 206.535,20.9308 205.701,22.0975 204.5,23C 205.056,23.3826 205.389,23.8826 205.5,24.5C 185.955,16.659 165.622,12.9923 144.5,13.5C 147.386,12.1208 149.886,10.1208 152,7.5C 152.333,7.83333 152.667,8.16667 153,8.5C 153.991,7.0611 155.324,6.0611 157,5.5C 160.559,5.19494 163.392,3.19494 165.5,-0.5 Z"/></g>
<g><path style="opacity:1" fill="#322d57" d="M 144.5,13.5 C 165.622,12.9923 185.955,16.659 205.5,24.5C 216.827,29.826 227.494,36.1593 237.5,43.5C 249.995,53.9876 260.661,65.9876 269.5,79.5C 274.126,88.4166 278.459,97.4166 282.5,106.5C 284.973,115.392 286.973,124.392 288.5,133.5C 289.879,146.872 289.546,160.205 287.5,173.5C 283.975,192.417 277.308,210.083 267.5,226.5C 238.778,267.7 199.111,288.7 148.5,289.5C 134.526,288.838 120.86,286.505 107.5,282.5C 92.8492,277.008 79.1826,269.675 66.5,260.5C 59.5264,253.861 52.5264,247.194 45.5,240.5C 33.0899,224.681 24.0899,207.015 18.5,187.5C 15.9371,176.671 14.2704,165.671 13.5,154.5C 13.3288,139.529 15.3288,124.862 19.5,110.5C 40.98,52.3734 82.6466,20.04 144.5,13.5 Z"/></g>
<g><path style="opacity:1" fill="#2d2959" d="M 138.5,17.5 C 136.49,18.9481 134.323,20.2815 132,21.5C 130.421,25.2399 128.254,28.5733 125.5,31.5C 123.887,32.4274 122.221,33.2607 120.5,34C 120.833,34.3333 121.167,34.6667 121.5,35C 120.354,35.6449 119.354,36.4783 118.5,37.5C 115.833,36.1667 115.167,36.8333 116.5,39.5C 105.624,50.8654 95.2903,61.3654 85.5,71C 87.8776,71.9745 87.5443,72.6411 84.5,73C 76.4058,80.6351 68.0724,89.4685 59.5,99.5C 57.0642,98.1091 56.3975,98.6091 57.5,101C 53.0986,104.398 49.4319,108.398 46.5,113C 45.2068,113.49 43.8734,113.657 42.5,113.5C 42.5086,115.308 42.0086,116.975 41,118.5C 40.586,118.043 40.086,117.709 39.5,117.5C 36.3079,122.513 32.6412,126.347 28.5,129C 29.8331,130.84 29.6665,131.34 28,130.5C 26.1555,131.711 25.3222,133.044 25.5,134.5C 24.914,134.291 24.414,133.957 24,133.5C 23.145,135.948 21.9783,138.114 20.5,140C 19.5509,140.617 18.7175,140.451 18,139.5C 17.5003,146.826 17.3337,154.159 17.5,161.5C 15.1685,110.663 34.5018,70.1628 75.5,40C 94.5087,27.0517 115.509,19.5517 138.5,17.5 Z"/></g>
<g><path style="opacity:1" fill="#312d60" d="M 164.5,17.5 C 162.712,17.2148 161.045,17.5481 159.5,18.5C 156.855,22.2793 153.855,25.7793 150.5,29C 148.337,29.2453 146.67,30.2453 145.5,32C 147.929,32.4512 148.096,33.2845 146,34.5C 145.667,34.1667 145.333,33.8333 145,33.5C 144.167,35 143,36.1667 141.5,37C 141.833,37.3333 142.167,37.6667 142.5,38C 139.533,39.6386 136.866,41.6386 134.5,44C 134.833,44.3333 135.167,44.6667 135.5,45C 134.333,45.5 133.5,46.3333 133,47.5C 132.667,46.8333 132.333,46.1667 132,45.5C 130.285,47.9354 129.118,50.6021 128.5,53.5C 126.516,53.3832 124.85,54.0499 123.5,55.5C 122.289,56.2739 122.289,57.1072 123.5,58C 122.377,59.0437 121.044,59.7104 119.5,60C 118.167,60.6667 118.167,61.3333 119.5,62C 118.333,62.5 117.5,63.3333 117,64.5C 116.086,63.3463 115.253,63.513 114.5,65C 114.833,65.3333 115.167,65.6667 115.5,66C 113.667,66.5 112.5,67.6667 112,69.5C 111.667,69.1667 111.333,68.8333 111,68.5C 110.028,70.3049 108.861,71.9716 107.5,73.5C 106.914,73.2907 106.414,72.9574 106,72.5C 104.242,77.5213 101.408,80.8546 97.5,82.5C 95.7026,84.1311 94.5359,86.1311 94,88.5C 92.8831,88.6651 91.7164,88.9984 90.5,89.5C 90.0851,92.0792 88.7518,93.9126 86.5,95C 86.8333,95.3333 87.1667,95.6667 87.5,96C 84.8793,97.5945 82.2126,99.0945 79.5,100.5C 79.7493,103.592 78.0827,105.259 74.5,105.5C 73.3596,108.143 72.0263,110.809 70.5,113.5C 69.7261,114.711 68.8928,114.711 68,113.5C 64.9498,116.567 62.1165,119.901 59.5,123.5C 57.8983,122.45 57.065,123.117 57,125.5C 55.3237,125.295 53.8237,126.128 52.5,128C 52.8333,128.333 53.1667,128.667 53.5,129C 50.7546,131.745 48.4213,134.079 46.5,136C 43.0545,141.246 38.3878,145.912 32.5,150C 33.1667,150.333 33.8333,150.667 34.5,151C 31.8392,152.658 29.1725,154.324 26.5,156C 27.1667,156.333 27.8333,156.667 28.5,157C 27.1509,157.772 26.3176,158.939 26,160.5C 24.2213,157.724 23.2213,158.057 23,161.5C 22.3333,162.833 21.6667,162.833 21,161.5C 20.9428,163.91 19.7761,165.244 17.5,165.5C 17.5,164.167 17.5,162.833 17.5,161.5C 17.3337,154.159 17.5003,146.826 18,139.5C 18.7175,140.451 19.5509,140.617 20.5,140C 21.9783,138.114 23.145,135.948 24,133.5C 24.414,133.957 24.914,134.291 25.5,134.5C 25.3222,133.044 26.1555,131.711 28,130.5C 29.6665,131.34 29.8331,130.84 28.5,129C 32.6412,126.347 36.3079,122.513 39.5,117.5C 40.086,117.709 40.586,118.043 41,118.5C 42.0086,116.975 42.5086,115.308 42.5,113.5C 43.8734,113.657 45.2068,113.49 46.5,113C 49.4319,108.398 53.0986,104.398 57.5,101C 56.3975,98.6091 57.0642,98.1091 59.5,99.5C 68.0724,89.4685 76.4058,80.6351 84.5,73C 87.5443,72.6411 87.8776,71.9745 85.5,71C 95.2903,61.3654 105.624,50.8654 116.5,39.5C 115.167,36.8333 115.833,36.1667 118.5,37.5C 119.354,36.4783 120.354,35.6449 121.5,35C 121.167,34.6667 120.833,34.3333 120.5,34C 122.221,33.2607 123.887,32.4274 125.5,31.5C 128.254,28.5733 130.421,25.2399 132,21.5C 134.323,20.2815 136.49,18.9481 138.5,17.5C 147.167,16.1667 155.833,16.1667 164.5,17.5 Z"/></g>
<g><path style="opacity:1" fill="#343066" d="M 164.5,17.5 C 168.891,18.0234 173.224,18.6901 177.5,19.5C 178.303,20.4232 178.47,21.4232 178,22.5C 176.636,21.7417 175.469,22.2417 174.5,24C 174.957,24.414 175.291,24.914 175.5,25.5C 173.954,26.684 172.287,27.684 170.5,28.5C 171.836,30.3746 171.336,31.7079 169,32.5C 168.667,32.1667 168.333,31.8333 168,31.5C 166.718,35.2832 164.218,37.9499 160.5,39.5C 161.55,41.1017 160.883,41.935 158.5,42C 156.875,42.8525 156.542,43.8525 157.5,45C 156.167,46 154.833,47 153.5,48C 154.167,48.3333 154.833,48.6667 155.5,49C 153.899,49.2734 152.399,49.7734 151,50.5C 150.667,49.8333 150.333,49.1667 150,48.5C 149.405,49.8989 149.572,51.2322 150.5,52.5C 149.15,53.9501 147.484,54.6168 145.5,54.5C 145.898,58.7589 143.898,60.5922 139.5,60C 138.619,60.7083 137.953,61.5416 137.5,62.5C 135.585,62.2155 133.919,62.5489 132.5,63.5C 127.024,68.3076 122.69,73.9742 119.5,80.5C 117.043,82.0009 117.043,83.6676 119.5,85.5C 116.234,85.4326 114.734,87.0992 115,90.5C 114.667,89.1667 114.333,87.8333 114,86.5C 112.312,87.3247 112.145,88.3247 113.5,89.5C 112.478,90.354 111.645,91.354 111,92.5C 110.333,91.1667 109.667,91.1667 109,92.5C 108.641,95.5443 107.974,95.8776 107,93.5C 105.066,95.4188 105.233,96.9188 107.5,98C 106.007,99.3681 104.507,99.5348 103,98.5C 102.086,100.664 100.919,102.664 99.5,104.5C 93.8556,109.655 88.6889,114.655 84,119.5C 82.7025,118.216 81.5358,118.383 80.5,120C 83.3673,122.6 83.2007,123.766 80,123.5C 79.6667,124.5 79.3333,125.5 79,126.5C 77.1598,125.167 76.6598,125.334 77.5,127C 76.3278,129.696 74.3278,131.363 71.5,132C 64.8114,140.67 57.6447,148.504 50,155.5C 46.2431,154.018 45.7431,154.684 48.5,157.5C 46.644,160.19 44.3106,162.356 41.5,164C 42.1667,164.333 42.8333,164.667 43.5,165C 41.6969,165.637 40.3636,166.803 39.5,168.5C 38.8076,167.975 38.3076,167.308 38,166.5C 37.6905,167.766 37.1905,168.933 36.5,170C 34.7215,169.021 33.0548,169.354 31.5,171C 34.2926,173.734 33.9593,174.734 30.5,174C 30.273,175.135 29.9396,176.302 29.5,177.5C 28.8076,176.975 28.3076,176.308 28,175.5C 28.0058,177.298 28.3391,178.965 29,180.5C 25.6019,179.658 23.1019,180.991 21.5,184.5C 20.7784,184.082 20.2784,183.416 20,182.5C 19.0835,176.832 18.2501,171.165 17.5,165.5C 19.7761,165.244 20.9428,163.91 21,161.5C 21.6667,162.833 22.3333,162.833 23,161.5C 23.2213,158.057 24.2213,157.724 26,160.5C 26.3176,158.939 27.1509,157.772 28.5,157C 27.8333,156.667 27.1667,156.333 26.5,156C 29.1725,154.324 31.8392,152.658 34.5,151C 33.8333,150.667 33.1667,150.333 32.5,150C 38.3878,145.912 43.0545,141.246 46.5,136C 48.4213,134.079 50.7546,131.745 53.5,129C 53.1667,128.667 52.8333,128.333 52.5,128C 53.8237,126.128 55.3237,125.295 57,125.5C 57.065,123.117 57.8983,122.45 59.5,123.5C 62.1165,119.901 64.9498,116.567 68,113.5C 68.8928,114.711 69.7261,114.711 70.5,113.5C 72.0263,110.809 73.3596,108.143 74.5,105.5C 78.0827,105.259 79.7493,103.592 79.5,100.5C 82.2126,99.0945 84.8793,97.5945 87.5,96C 87.1667,95.6667 86.8333,95.3333 86.5,95C 88.7518,93.9126 90.0851,92.0792 90.5,89.5C 91.7164,88.9984 92.8831,88.6651 94,88.5C 94.5359,86.1311 95.7026,84.1311 97.5,82.5C 101.408,80.8546 104.242,77.5213 106,72.5C 106.414,72.9574 106.914,73.2907 107.5,73.5C 108.861,71.9716 110.028,70.3049 111,68.5C 111.333,68.8333 111.667,69.1667 112,69.5C 112.5,67.6667 113.667,66.5 115.5,66C 115.167,65.6667 114.833,65.3333 114.5,65C 115.253,63.513 116.086,63.3463 117,64.5C 117.5,63.3333 118.333,62.5 119.5,62C 118.167,61.3333 118.167,60.6667 119.5,60C 121.044,59.7104 122.377,59.0437 123.5,58C 122.289,57.1072 122.289,56.2739 123.5,55.5C 124.85,54.0499 126.516,53.3832 128.5,53.5C 129.118,50.6021 130.285,47.9354 132,45.5C 132.333,46.1667 132.667,46.8333 133,47.5C 133.5,46.3333 134.333,45.5 135.5,45C 135.167,44.6667 134.833,44.3333 134.5,44C 136.866,41.6386 139.533,39.6386 142.5,38C 142.167,37.6667 141.833,37.3333 141.5,37C 143,36.1667 144.167,35 145,33.5C 145.333,33.8333 145.667,34.1667 146,34.5C 148.096,33.2845 147.929,32.4512 145.5,32C 146.67,30.2453 148.337,29.2453 150.5,29C 153.855,25.7793 156.855,22.2793 159.5,18.5C 161.045,17.5481 162.712,17.2148 164.5,17.5 Z"/></g>
<g><path style="opacity:1" fill="#38336d" d="M 177.5,19.5 C 186.569,21.192 195.236,23.8586 203.5,27.5C 196.912,32.5907 191.078,38.5907 186,45.5C 185.667,44.8333 185.333,44.1667 185,43.5C 184.598,44.8721 184.098,46.2054 183.5,47.5C 180.927,48.6536 178.761,50.3202 177,52.5C 174.708,55.9632 172.208,59.2966 169.5,62.5C 158.833,62.5 148.167,62.5 137.5,62.5C 137.953,61.5416 138.619,60.7083 139.5,60C 143.898,60.5922 145.898,58.7589 145.5,54.5C 147.484,54.6168 149.15,53.9501 150.5,52.5C 149.572,51.2322 149.405,49.8989 150,48.5C 150.333,49.1667 150.667,49.8333 151,50.5C 152.399,49.7734 153.899,49.2734 155.5,49C 154.833,48.6667 154.167,48.3333 153.5,48C 154.833,47 156.167,46 157.5,45C 156.542,43.8525 156.875,42.8525 158.5,42C 160.883,41.935 161.55,41.1017 160.5,39.5C 164.218,37.9499 166.718,35.2832 168,31.5C 168.333,31.8333 168.667,32.1667 169,32.5C 171.336,31.7079 171.836,30.3746 170.5,28.5C 172.287,27.684 173.954,26.684 175.5,25.5C 175.291,24.914 174.957,24.414 174.5,24C 175.469,22.2417 176.636,21.7417 178,22.5C 178.47,21.4232 178.303,20.4232 177.5,19.5 Z"/></g>
<g><path style="opacity:0.964" fill="#d0cdfc" d="M 216.5,13.5 C 228.272,18.9611 238.939,25.9611 248.5,34.5C 244.859,38.2013 241.193,41.2013 237.5,43.5C 227.494,36.1593 216.827,29.826 205.5,24.5C 205.389,23.8826 205.056,23.3826 204.5,23C 205.701,22.0975 206.535,20.9308 207,19.5C 207.333,20.1667 207.667,20.8333 208,21.5C 210,20.8333 211.333,19.5 212,17.5C 213,17.5 214,17.5 215,17.5C 215.791,16.255 216.291,14.9217 216.5,13.5 Z"/></g>
<g><path style="opacity:1" fill="#3f3a78" d="M 203.5,27.5 C 214.293,31.3912 223.96,37.0579 232.5,44.5C 229.906,47.2753 227.406,50.2753 225,53.5C 224.667,52.8333 224.333,52.1667 224,51.5C 223.506,53.1341 223.34,54.8008 223.5,56.5C 220.137,56.5127 217.97,58.1794 217,61.5C 216.667,61.1667 216.333,60.8333 216,60.5C 214.272,62.8418 212.605,65.1751 211,67.5C 210.086,66.3463 209.253,66.513 208.5,68C 208.833,68.3333 209.167,68.6667 209.5,69C 207.208,70.2899 205.208,71.9565 203.5,74C 203.833,74.3333 204.167,74.6667 204.5,75C 201.426,78.397 197.759,81.0637 193.5,83C 193.833,83.3333 194.167,83.6667 194.5,84C 193.128,85.2419 192.128,86.7419 191.5,88.5C 190.675,89.3857 189.675,89.719 188.5,89.5C 188.649,90.552 188.483,91.552 188,92.5C 186.307,93.1845 184.807,94.1845 183.5,95.5C 182.914,95.2907 182.414,94.9574 182,94.5C 181.801,96.4025 180.967,97.9025 179.5,99C 180.34,100.666 179.84,100.833 178,99.5C 175.687,105.271 172.187,109.271 167.5,111.5C 166.571,112.689 166.238,114.022 166.5,115.5C 164.692,115.491 163.025,115.991 161.5,117C 161.833,117.333 162.167,117.667 162.5,118C 160.622,119.543 159.122,121.376 158,123.5C 157.014,122.829 155.847,122.829 154.5,123.5C 163.819,108.877 173.653,94.5436 184,80.5C 184.692,79.5632 184.525,78.8966 183.5,78.5C 179.499,73.6611 175.666,68.6611 172,63.5C 171.329,62.7476 170.496,62.4142 169.5,62.5C 172.208,59.2966 174.708,55.9632 177,52.5C 178.761,50.3202 180.927,48.6536 183.5,47.5C 184.098,46.2054 184.598,44.8721 185,43.5C 185.333,44.1667 185.667,44.8333 186,45.5C 191.078,38.5907 196.912,32.5907 203.5,27.5 Z"/></g>
<g><path style="opacity:1" fill="#433d7f" d="M 232.5,44.5 C 238.727,48.0549 244.06,52.7216 248.5,58.5C 247.5,58.5 246.5,58.5 245.5,58.5C 245.649,59.552 245.483,60.552 245,61.5C 241.567,62.5999 239.567,64.9333 239,68.5C 238.667,67.8333 238.333,67.1667 238,66.5C 235.331,71.6678 231.498,75.6678 226.5,78.5C 227.855,79.6753 227.688,80.6753 226,81.5C 225.667,80.8333 225.333,80.1667 225,79.5C 224.464,81.8689 223.297,83.8689 221.5,85.5C 215.51,91.1771 209.843,96.5104 204.5,101.5C 202.951,104.344 200.285,106.844 196.5,109C 197.167,109.333 197.833,109.667 198.5,110C 197,110.833 195.833,112 195,113.5C 194.667,113.167 194.333,112.833 194,112.5C 192.796,113.859 191.296,114.859 189.5,115.5C 188.174,116.642 187.174,117.976 186.5,119.5C 174.703,125.232 163.037,131.232 151.5,137.5C 149.64,136.74 147.973,135.74 146.5,134.5C 146.821,132.952 147.821,132.285 149.5,132.5C 149.433,131.041 149.766,129.708 150.5,128.5C 151.338,128.158 151.672,127.492 151.5,126.5C 152.272,125.306 153.272,124.306 154.5,123.5C 155.847,122.829 157.014,122.829 158,123.5C 159.122,121.376 160.622,119.543 162.5,118C 162.167,117.667 161.833,117.333 161.5,117C 163.025,115.991 164.692,115.491 166.5,115.5C 166.238,114.022 166.571,112.689 167.5,111.5C 172.187,109.271 175.687,105.271 178,99.5C 179.84,100.833 180.34,100.666 179.5,99C 180.967,97.9025 181.801,96.4025 182,94.5C 182.414,94.9574 182.914,95.2907 183.5,95.5C 184.807,94.1845 186.307,93.1845 188,92.5C 188.483,91.552 188.649,90.552 188.5,89.5C 189.675,89.719 190.675,89.3857 191.5,88.5C 192.128,86.7419 193.128,85.2419 194.5,84C 194.167,83.6667 193.833,83.3333 193.5,83C 197.759,81.0637 201.426,78.397 204.5,75C 204.167,74.6667 203.833,74.3333 203.5,74C 205.208,71.9565 207.208,70.2899 209.5,69C 209.167,68.6667 208.833,68.3333 208.5,68C 209.253,66.513 210.086,66.3463 211,67.5C 212.605,65.1751 214.272,62.8418 216,60.5C 216.333,60.8333 216.667,61.1667 217,61.5C 217.97,58.1794 220.137,56.5127 223.5,56.5C 223.34,54.8008 223.506,53.1341 224,51.5C 224.333,52.1667 224.667,52.8333 225,53.5C 227.406,50.2753 229.906,47.2753 232.5,44.5 Z"/></g>
<g><path style="opacity:0.979" fill="#d7d4fc" d="M 248.5,34.5 C 262.311,44.8344 273.311,57.501 281.5,72.5C 279.408,72.2605 277.408,73.0938 275.5,75C 273.833,75.3333 272.167,75.6667 270.5,76C 270.833,76.3333 271.167,76.6667 271.5,77C 270.244,77.4169 269.577,78.2502 269.5,79.5C 260.661,65.9876 249.995,53.9876 237.5,43.5C 241.193,41.2013 244.859,38.2013 248.5,34.5 Z"/></g>
<g><path style="opacity:1" fill="#464186" d="M 248.5,58.5 C 252.513,62.5149 256.179,66.8482 259.5,71.5C 254.796,74.204 251.129,77.8707 248.5,82.5C 247.127,82.3433 245.793,82.51 244.5,83C 244.833,83.3333 245.167,83.6667 245.5,84C 243.548,86.0739 241.715,88.2406 240,90.5C 239.667,90.1667 239.333,89.8333 239,89.5C 236.748,92.3376 234.748,95.3376 233,98.5C 230.024,99.8429 227.191,101.843 224.5,104.5C 224.649,105.552 224.483,106.552 224,107.5C 223.333,108.833 222.667,108.833 222,107.5C 217.929,110.843 214.929,114.509 213,118.5C 212.667,118.167 212.333,117.833 212,117.5C 210.807,122.027 207.973,124.86 203.5,126C 204.167,126.333 204.833,126.667 205.5,127C 201.694,130.14 198.194,133.64 195,137.5C 194.667,137.167 194.333,136.833 194,136.5C 192.887,139.524 190.72,141.357 187.5,142C 187.833,142.333 188.167,142.667 188.5,143C 186.787,144.378 185.453,146.045 184.5,148C 182.066,148.333 181.066,147.166 181.5,144.5C 183.502,136.494 185.502,128.494 187.5,120.5C 187.5,119.833 187.167,119.5 186.5,119.5C 187.174,117.976 188.174,116.642 189.5,115.5C 191.296,114.859 192.796,113.859 194,112.5C 194.333,112.833 194.667,113.167 195,113.5C 195.833,112 197,110.833 198.5,110C 197.833,109.667 197.167,109.333 196.5,109C 200.285,106.844 202.951,104.344 204.5,101.5C 209.843,96.5104 215.51,91.1771 221.5,85.5C 223.297,83.8689 224.464,81.8689 225,79.5C 225.333,80.1667 225.667,80.8333 226,81.5C 227.688,80.6753 227.855,79.6753 226.5,78.5C 231.498,75.6678 235.331,71.6678 238,66.5C 238.333,67.1667 238.667,67.8333 239,68.5C 239.567,64.9333 241.567,62.5999 245,61.5C 245.483,60.552 245.649,59.552 245.5,58.5C 246.5,58.5 247.5,58.5 248.5,58.5 Z"/></g>
<g><path style="opacity:1" fill="#e6e4fe" d="M 133.5,63.5 C 145.505,63.3335 157.505,63.5001 169.5,64C 161.099,70.1876 152.766,76.3543 144.5,82.5C 144.5,83.1667 144.5,83.8333 144.5,84.5C 143.662,84.1583 143.328,83.4916 143.5,82.5C 139.899,76.2978 136.566,69.9644 133.5,63.5 Z"/></g>
<g><path style="opacity:1" fill="#d9d7fb" d="M 132.5,63.5 C 133.919,62.5489 135.585,62.2155 137.5,62.5C 148.167,62.5 158.833,62.5 169.5,62.5C 170.496,62.4142 171.329,62.7476 172,63.5C 175.666,68.6611 179.499,73.6611 183.5,78.5C 170.703,80.447 157.703,81.7803 144.5,82.5C 152.766,76.3543 161.099,70.1876 169.5,64C 157.505,63.5001 145.505,63.3335 133.5,63.5C 133.167,63.5 132.833,63.5 132.5,63.5 Z"/></g>
<g><path style="opacity:1" fill="#f0f0fc" d="M 132.5,63.5 C 132.833,63.5 133.167,63.5 133.5,63.5C 136.566,69.9644 139.899,76.2978 143.5,82.5C 136.089,81.9905 128.756,80.9905 121.5,79.5C 120.702,79.9569 120.369,80.6236 120.5,81.5C 119.833,81.5 119.5,81.1667 119.5,80.5C 122.69,73.9742 127.024,68.3076 132.5,63.5 Z"/></g>
<g><path style="opacity:1" fill="#4a448c" d="M 259.5,71.5 C 263.281,75.6243 266.281,80.2909 268.5,85.5C 267.883,85.3893 267.383,85.056 267,84.5C 266.333,85.8333 265.667,87.1667 265,88.5C 264.667,88.1667 264.333,87.8333 264,87.5C 261.716,91.742 258.549,95.242 254.5,98C 254.833,98.3333 255.167,98.6667 255.5,99C 249.068,103.941 243.068,110.107 237.5,117.5C 236.914,117.291 236.414,116.957 236,116.5C 235.991,120.178 234.157,122.345 230.5,123C 229.924,125.384 228.424,127.551 226,129.5C 225.667,128.833 225.333,128.167 225,127.5C 216.916,138.481 207.416,148.981 196.5,159C 196.833,159.333 197.167,159.667 197.5,160C 195.074,161.145 192.741,162.478 190.5,164C 191.34,165.666 190.84,165.833 189,164.5C 188.544,165.744 189.044,166.577 190.5,167C 189.333,167.5 188.5,168.333 188,169.5C 187.667,168.833 187.333,168.167 187,167.5C 185.385,170.45 183.385,173.116 181,175.5C 180.667,175.167 180.333,174.833 180,174.5C 179.317,177.424 177.817,179.758 175.5,181.5C 174.914,181.291 174.414,180.957 174,180.5C 173.529,182.246 172.862,183.913 172,185.5C 171.617,184.944 171.117,184.611 170.5,184.5C 173.565,170.899 177.231,157.565 181.5,144.5C 181.066,147.166 182.066,148.333 184.5,148C 185.453,146.045 186.787,144.378 188.5,143C 188.167,142.667 187.833,142.333 187.5,142C 190.72,141.357 192.887,139.524 194,136.5C 194.333,136.833 194.667,137.167 195,137.5C 198.194,133.64 201.694,130.14 205.5,127C 204.833,126.667 204.167,126.333 203.5,126C 207.973,124.86 210.807,122.027 212,117.5C 212.333,117.833 212.667,118.167 213,118.5C 214.929,114.509 217.929,110.843 222,107.5C 222.667,108.833 223.333,108.833 224,107.5C 224.483,106.552 224.649,105.552 224.5,104.5C 227.191,101.843 230.024,99.8429 233,98.5C 234.748,95.3376 236.748,92.3376 239,89.5C 239.333,89.8333 239.667,90.1667 240,90.5C 241.715,88.2406 243.548,86.0739 245.5,84C 245.167,83.6667 244.833,83.3333 244.5,83C 245.793,82.51 247.127,82.3433 248.5,82.5C 251.129,77.8707 254.796,74.204 259.5,71.5 Z"/></g>
<g><path style="opacity:0.967" fill="#dedbfd" d="M 281.5,72.5 C 287.144,80.7898 291.477,89.7898 294.5,99.5C 290.746,101.439 286.746,103.773 282.5,106.5C 278.459,97.4166 274.126,88.4166 269.5,79.5C 269.577,78.2502 270.244,77.4169 271.5,77C 271.167,76.6667 270.833,76.3333 270.5,76C 272.167,75.6667 273.833,75.3333 275.5,75C 277.408,73.0938 279.408,72.2605 281.5,72.5 Z"/></g>
<g><path style="opacity:1" fill="#fbfbfc" d="M 143.5,82.5 C 143.328,83.4916 143.662,84.1583 144.5,84.5C 146.616,97.198 148.95,109.865 151.5,122.5C 151.457,123.416 151.124,124.083 150.5,124.5C 140.5,110.167 130.5,95.8333 120.5,81.5C 120.369,80.6236 120.702,79.9569 121.5,79.5C 128.756,80.9905 136.089,81.9905 143.5,82.5 Z"/></g>
<g><path style="opacity:1" fill="#cfcbfc" d="M 183.5,78.5 C 184.525,78.8966 184.692,79.5632 184,80.5C 173.653,94.5436 163.819,108.877 154.5,123.5C 153.272,124.306 152.272,125.306 151.5,126.5C 151.167,125.833 150.833,125.167 150.5,124.5C 151.124,124.083 151.457,123.416 151.5,122.5C 148.95,109.865 146.616,97.198 144.5,84.5C 144.5,83.8333 144.5,83.1667 144.5,82.5C 157.703,81.7803 170.703,80.447 183.5,78.5 Z"/></g>
<g><path style="opacity:1" fill="#312c55" d="M 119.5,80.5 C 119.5,81.1667 119.833,81.5 120.5,81.5C 130.5,95.8333 140.5,110.167 150.5,124.5C 150.833,125.167 151.167,125.833 151.5,126.5C 151.672,127.492 151.338,128.158 150.5,128.5C 142.167,117.167 133.833,105.833 125.5,94.5C 123.748,91.328 121.748,88.328 119.5,85.5C 117.043,83.6676 117.043,82.0009 119.5,80.5 Z"/></g>
<g><path style="opacity:1" fill="#4d4792" d="M 268.5,85.5 C 272.202,90.2363 274.868,95.5696 276.5,101.5C 274.745,102.072 273.078,102.906 271.5,104C 272.654,104.914 272.487,105.747 271,106.5C 270.086,105.346 269.253,105.513 268.5,107C 269.098,109.598 267.931,111.431 265,112.5C 264.667,112.167 264.333,111.833 264,111.5C 263.529,113.246 262.862,114.913 262,116.5C 259,118.167 256.667,120.5 255,123.5C 254.667,122.833 254.333,122.167 254,121.5C 251.618,125.566 248.784,129.399 245.5,133C 244.552,133.483 243.552,133.649 242.5,133.5C 242.649,134.552 242.483,135.552 242,136.5C 239.476,137.676 237.976,139.176 237.5,141C 237.833,141.333 238.167,141.667 238.5,142C 234.032,145.587 229.366,148.92 224.5,152C 225.731,153.183 225.731,154.349 224.5,155.5C 223.914,155.291 223.414,154.957 223,154.5C 222.667,155.833 222.333,157.167 222,158.5C 220.16,157.167 219.66,157.334 220.5,159C 213.741,165.594 207.075,172.427 200.5,179.5C 198.833,180.333 197.167,181.167 195.5,182C 195.833,182.333 196.167,182.667 196.5,183C 195.107,184.171 194.273,185.671 194,187.5C 193.586,187.043 193.086,186.709 192.5,186.5C 187.193,194.302 181.193,201.468 174.5,208C 173.552,208.483 172.552,208.649 171.5,208.5C 170.255,211.745 167.922,214.078 164.5,215.5C 163.784,217.482 162.617,219.149 161,220.5C 160.601,220.272 160.435,219.938 160.5,219.5C 163.077,207.511 166.41,195.844 170.5,184.5C 171.117,184.611 171.617,184.944 172,185.5C 172.862,183.913 173.529,182.246 174,180.5C 174.414,180.957 174.914,181.291 175.5,181.5C 177.817,179.758 179.317,177.424 180,174.5C 180.333,174.833 180.667,175.167 181,175.5C 183.385,173.116 185.385,170.45 187,167.5C 187.333,168.167 187.667,168.833 188,169.5C 188.5,168.333 189.333,167.5 190.5,167C 189.044,166.577 188.544,165.744 189,164.5C 190.84,165.833 191.34,165.666 190.5,164C 192.741,162.478 195.074,161.145 197.5,160C 197.167,159.667 196.833,159.333 196.5,159C 207.416,148.981 216.916,138.481 225,127.5C 225.333,128.167 225.667,128.833 226,129.5C 228.424,127.551 229.924,125.384 230.5,123C 234.157,122.345 235.991,120.178 236,116.5C 236.414,116.957 236.914,117.291 237.5,117.5C 243.068,110.107 249.068,103.941 255.5,99C 255.167,98.6667 254.833,98.3333 254.5,98C 258.549,95.242 261.716,91.742 264,87.5C 264.333,87.8333 264.667,88.1667 265,88.5C 265.667,87.1667 266.333,85.8333 267,84.5C 267.383,85.056 267.883,85.3893 268.5,85.5 Z"/></g>
<g><path style="opacity:1" fill="#37326b" d="M 119.5,85.5 C 121.748,88.328 123.748,91.328 125.5,94.5C 121.581,95.9969 118.748,98.6636 117,102.5C 114.997,97.303 114.497,97.303 115.5,102.5C 114.975,103.192 114.308,103.692 113.5,104C 113.833,104.333 114.167,104.667 114.5,105C 112.22,105.233 110.22,106.066 108.5,107.5C 109.025,108.192 109.692,108.692 110.5,109C 109.333,110.5 108.167,112 107,113.5C 105.456,110.736 104.289,110.903 103.5,114C 103.833,114.333 104.167,114.667 104.5,115C 101.211,116.391 99.5445,118.558 99.5,121.5C 98.2638,120.754 96.9305,120.421 95.5,120.5C 95.33,121.822 95.6634,122.989 96.5,124C 93.3333,125.167 91.1667,127.333 90,130.5C 89.3333,129.167 88.6667,129.167 88,130.5C 87.6592,133.187 86.3258,135.187 84,136.5C 83.6667,136.167 83.3333,135.833 83,135.5C 82.2261,137.939 80.7261,139.773 78.5,141C 78.8333,141.333 79.1667,141.667 79.5,142C 77.5318,143.544 75.3651,144.711 73,145.5C 73.9791,147.279 73.6458,148.945 72,150.5C 71.5774,149.044 70.7441,148.544 69.5,149C 69.8333,149.333 70.1667,149.667 70.5,150C 69.8095,151.067 69.3095,152.234 69,153.5C 68.6667,153.167 68.3333,152.833 68,152.5C 67.082,154.632 65.7487,155.299 64,154.5C 62.7068,157.627 60.5401,159.961 57.5,161.5C 56.2889,162.72 56.2889,163.887 57.5,165C 56.1667,165.333 54.8333,165.667 53.5,166C 53.8333,166.333 54.1667,166.667 54.5,167C 51.7007,167.439 50.7007,168.772 51.5,171C 48.9041,172.588 46.5708,174.588 44.5,177C 44.8333,177.333 45.1667,177.667 45.5,178C 43.6969,178.637 42.3636,179.803 41.5,181.5C 39.7859,180.391 39.1192,181.058 39.5,183.5C 38.325,183.281 37.325,183.614 36.5,184.5C 34.3299,187.496 31.8299,190.163 29,192.5C 28.228,192.355 27.5613,192.022 27,191.5C 26.4954,193.518 25.9954,195.518 25.5,197.5C 23.3424,193.493 22.0091,189.16 21.5,184.5C 23.1019,180.991 25.6019,179.658 29,180.5C 28.3391,178.965 28.0058,177.298 28,175.5C 28.3076,176.308 28.8076,176.975 29.5,177.5C 29.9396,176.302 30.273,175.135 30.5,174C 33.9593,174.734 34.2926,173.734 31.5,171C 33.0548,169.354 34.7215,169.021 36.5,170C 37.1905,168.933 37.6905,167.766 38,166.5C 38.3076,167.308 38.8076,167.975 39.5,168.5C 40.3636,166.803 41.6969,165.637 43.5,165C 42.8333,164.667 42.1667,164.333 41.5,164C 44.3106,162.356 46.644,160.19 48.5,157.5C 45.7431,154.684 46.2431,154.018 50,155.5C 57.6447,148.504 64.8114,140.67 71.5,132C 74.3278,131.363 76.3278,129.696 77.5,127C 76.6598,125.334 77.1598,125.167 79,126.5C 79.3333,125.5 79.6667,124.5 80,123.5C 83.2007,123.766 83.3673,122.6 80.5,120C 81.5358,118.383 82.7025,118.216 84,119.5C 88.6889,114.655 93.8556,109.655 99.5,104.5C 100.919,102.664 102.086,100.664 103,98.5C 104.507,99.5348 106.007,99.3681 107.5,98C 105.233,96.9188 105.066,95.4188 107,93.5C 107.974,95.8776 108.641,95.5443 109,92.5C 109.667,91.1667 110.333,91.1667 111,92.5C 111.645,91.354 112.478,90.354 113.5,89.5C 112.145,88.3247 112.312,87.3247 114,86.5C 114.333,87.8333 114.667,89.1667 115,90.5C 114.734,87.0992 116.234,85.4326 119.5,85.5 Z"/></g>
<g><path style="opacity:0.98" fill="#e4e2fe" d="M 294.5,99.5 C 298.06,107.73 300.393,116.397 301.5,125.5C 299.137,126.466 297.137,127.966 295.5,130C 293.5,130.667 291.5,131.333 289.5,132C 291.932,133.087 291.598,133.587 288.5,133.5C 286.973,124.392 284.973,115.392 282.5,106.5C 286.746,103.773 290.746,101.439 294.5,99.5 Z"/></g>
<g><path style="opacity:1" fill="#504a98" d="M 276.5,101.5 C 279.818,108.793 282.151,116.459 283.5,124.5C 280.769,123.626 278.602,124.626 277,127.5C 276.138,129.087 275.471,130.754 275,132.5C 274.275,130.842 273.108,130.342 271.5,131C 272.167,131.333 272.833,131.667 273.5,132C 268.286,136.854 263.786,141.688 260,146.5C 259.667,146.167 259.333,145.833 259,145.5C 258.5,147.333 257.333,148.5 255.5,149C 255.833,149.333 256.167,149.667 256.5,150C 255.076,152.218 253.076,153.718 250.5,154.5C 251.55,156.102 250.883,156.935 248.5,157C 247.5,159.333 245.833,161 243.5,162C 244.458,163.147 244.125,164.147 242.5,165C 240.774,166.53 238.774,167.53 236.5,168C 237.956,168.423 238.456,169.256 238,170.5C 237.667,170.167 237.333,169.833 237,169.5C 233.676,172.994 230.509,176.661 227.5,180.5C 226.914,180.291 226.414,179.957 226,179.5C 223.102,183.357 220.268,186.524 217.5,189C 217.833,189.333 218.167,189.667 218.5,190C 213.506,193.994 208.84,198.327 204.5,203C 204.833,203.333 205.167,203.667 205.5,204C 204.284,205.74 202.618,206.74 200.5,207C 198.743,209.846 196.743,212.512 194.5,215C 193.552,215.483 192.552,215.649 191.5,215.5C 191.649,216.552 191.483,217.552 191,218.5C 187.637,221.038 184.47,223.705 181.5,226.5C 180.614,227.325 180.281,228.325 180.5,229.5C 178.058,229.119 177.391,229.786 178.5,231.5C 177.088,232.806 175.421,233.64 173.5,234C 173.833,234.333 174.167,234.667 174.5,235C 172.667,236.167 171.167,237.667 170,239.5C 169.086,238.346 168.253,238.513 167.5,240C 168.641,240.741 168.641,241.575 167.5,242.5C 161.439,247.392 156.272,253.059 152,259.5C 149.775,260.939 147.775,262.606 146,264.5C 144.334,263.66 144.167,264.16 145.5,266C 144.551,266.617 143.718,266.451 143,265.5C 141.121,267.527 139.954,269.86 139.5,272.5C 135.107,272.457 134.774,272.957 138.5,274C 132.817,275.257 129.817,278.757 129.5,284.5C 115.687,282.34 102.687,278.007 90.5,271.5C 90.5106,269.983 91.1772,268.816 92.5,268C 91.6598,266.334 92.1598,266.167 94,267.5C 95.487,266.747 95.6537,265.914 94.5,265C 96.0009,263.748 97.6675,262.748 99.5,262C 99.1667,261.667 98.8333,261.333 98.5,261C 100.5,259.333 102.5,257.667 104.5,256C 104.167,255.667 103.833,255.333 103.5,255C 107.027,251.555 110.694,248.222 114.5,245C 113.359,244.259 113.359,243.425 114.5,242.5C 115.274,241.289 116.107,241.289 117,242.5C 118.555,239.945 120.722,238.112 123.5,237C 123.5,236 123.5,235 123.5,234C 124.5,233.667 125.5,233.333 126.5,233C 128.877,229.773 131.544,226.773 134.5,224C 134.167,223.667 133.833,223.333 133.5,223C 134.5,222.667 135.5,222.333 136.5,222C 137.833,221.333 137.833,220.667 136.5,220C 137.736,218.915 139.069,218.082 140.5,217.5C 143.97,228.71 147.137,240.043 150,251.5C 150.232,250.263 150.732,249.263 151.5,248.5C 152.434,247.432 152.768,246.099 152.5,244.5C 155.167,236.167 157.833,227.833 160.5,219.5C 160.435,219.938 160.601,220.272 161,220.5C 162.617,219.149 163.784,217.482 164.5,215.5C 167.922,214.078 170.255,211.745 171.5,208.5C 172.552,208.649 173.552,208.483 174.5,208C 181.193,201.468 187.193,194.302 192.5,186.5C 193.086,186.709 193.586,187.043 194,187.5C 194.273,185.671 195.107,184.171 196.5,183C 196.167,182.667 195.833,182.333 195.5,182C 197.167,181.167 198.833,180.333 200.5,179.5C 207.075,172.427 213.741,165.594 220.5,159C 219.66,157.334 220.16,157.167 222,158.5C 222.333,157.167 222.667,155.833 223,154.5C 223.414,154.957 223.914,155.291 224.5,155.5C 225.731,154.349 225.731,153.183 224.5,152C 229.366,148.92 234.032,145.587 238.5,142C 238.167,141.667 237.833,141.333 237.5,141C 237.976,139.176 239.476,137.676 242,136.5C 242.483,135.552 242.649,134.552 242.5,133.5C 243.552,133.649 244.552,133.483 245.5,133C 248.784,129.399 251.618,125.566 254,121.5C 254.333,122.167 254.667,122.833 255,123.5C 256.667,120.5 259,118.167 262,116.5C 262.862,114.913 263.529,113.246 264,111.5C 264.333,111.833 264.667,112.167 265,112.5C 267.931,111.431 269.098,109.598 268.5,107C 269.253,105.513 270.086,105.346 271,106.5C 272.487,105.747 272.654,104.914 271.5,104C 273.078,102.906 274.745,102.072 276.5,101.5 Z"/></g>
<g><path style="opacity:1" fill="#3b3672" d="M 125.5,94.5 C 133.833,105.833 142.167,117.167 150.5,128.5C 149.766,129.708 149.433,131.041 149.5,132.5C 147.821,132.285 146.821,132.952 146.5,134.5C 136.092,129.547 125.925,124.214 116,118.5C 115.517,119.448 115.351,120.448 115.5,121.5C 114.624,121.369 113.957,121.702 113.5,122.5C 115.571,127.713 117.238,133.046 118.5,138.5C 117.448,138.351 116.448,138.517 115.5,139C 115.833,139.333 116.167,139.667 116.5,140C 114.889,142.042 113.389,144.209 112,146.5C 111.667,146.167 111.333,145.833 111,145.5C 110.667,146.5 110.333,147.5 110,148.5C 109.667,148.167 109.333,147.833 109,147.5C 107.398,149.307 106.064,151.307 105,153.5C 104.333,154.833 103.667,154.833 103,153.5C 102.333,154.833 101.667,156.167 101,157.5C 99.2434,157.133 97.7434,157.966 96.5,160C 97.3363,161.243 97.003,162.41 95.5,163.5C 93.3179,163.593 91.3179,164.759 89.5,167C 89.8333,167.333 90.1667,167.667 90.5,168C 87.8336,170.145 85.8336,172.645 84.5,175.5C 83.448,175.351 82.448,175.517 81.5,176C 79.0805,180.257 76.0805,184.09 72.5,187.5C 71.5,186.167 70.5,186.167 69.5,187.5C 68.7189,188.729 68.2189,190.062 68,191.5C 67.0862,190.346 66.2529,190.513 65.5,192C 65.9574,192.414 66.2907,192.914 66.5,193.5C 63.8021,194.698 61.9688,196.698 61,199.5C 59.984,198.366 59.3173,198.699 59,200.5C 58.3333,199.167 57.6667,199.167 57,200.5C 56.6667,201.833 56.3333,203.167 56,204.5C 55.195,202.099 54.3617,202.266 53.5,205C 52.8075,208.367 50.4742,210.701 46.5,212C 47.1667,212.333 47.8333,212.667 48.5,213C 45.4181,214.872 42.7514,217.205 40.5,220C 38.9419,220.21 37.6085,220.71 36.5,221.5C 31.7528,214.005 28.0862,206.005 25.5,197.5C 25.9954,195.518 26.4954,193.518 27,191.5C 27.5613,192.022 28.228,192.355 29,192.5C 31.8299,190.163 34.3299,187.496 36.5,184.5C 37.325,183.614 38.325,183.281 39.5,183.5C 39.1192,181.058 39.7859,180.391 41.5,181.5C 42.3636,179.803 43.6969,178.637 45.5,178C 45.1667,177.667 44.8333,177.333 44.5,177C 46.5708,174.588 48.9041,172.588 51.5,171C 50.7007,168.772 51.7007,167.439 54.5,167C 54.1667,166.667 53.8333,166.333 53.5,166C 54.8333,165.667 56.1667,165.333 57.5,165C 56.2889,163.887 56.2889,162.72 57.5,161.5C 60.5401,159.961 62.7068,157.627 64,154.5C 65.7487,155.299 67.082,154.632 68,152.5C 68.3333,152.833 68.6667,153.167 69,153.5C 69.3095,152.234 69.8095,151.067 70.5,150C 70.1667,149.667 69.8333,149.333 69.5,149C 70.7441,148.544 71.5774,149.044 72,150.5C 73.6458,148.945 73.9791,147.279 73,145.5C 75.3651,144.711 77.5318,143.544 79.5,142C 79.1667,141.667 78.8333,141.333 78.5,141C 80.7261,139.773 82.2261,137.939 83,135.5C 83.3333,135.833 83.6667,136.167 84,136.5C 86.3258,135.187 87.6592,133.187 88,130.5C 88.6667,129.167 89.3333,129.167 90,130.5C 91.1667,127.333 93.3333,125.167 96.5,124C 95.6634,122.989 95.33,121.822 95.5,120.5C 96.9305,120.421 98.2638,120.754 99.5,121.5C 99.5445,118.558 101.211,116.391 104.5,115C 104.167,114.667 103.833,114.333 103.5,114C 104.289,110.903 105.456,110.736 107,113.5C 108.167,112 109.333,110.5 110.5,109C 109.692,108.692 109.025,108.192 108.5,107.5C 110.22,106.066 112.22,105.233 114.5,105C 114.167,104.667 113.833,104.333 113.5,104C 114.308,103.692 114.975,103.192 115.5,102.5C 114.497,97.303 114.997,97.303 117,102.5C 118.748,98.6636 121.581,95.9969 125.5,94.5 Z"/></g>
<g><path style="opacity:1" fill="#e6e5fc" d="M 146.5,134.5 C 147.973,135.74 149.64,136.74 151.5,137.5C 163.037,131.232 174.703,125.232 186.5,119.5C 187.167,119.5 187.5,119.833 187.5,120.5C 175.864,134.311 164.364,148.311 153,162.5C 152.5,189.831 152.333,217.165 152.5,244.5C 152.768,246.099 152.434,247.432 151.5,248.5C 151.5,247.5 151.5,246.5 151.5,245.5C 151.667,218.165 151.5,190.831 151,163.5C 139.667,149.5 128.333,135.5 117,121.5C 116.601,121.728 116.435,122.062 116.5,122.5C 115.833,122.5 115.5,122.167 115.5,121.5C 115.351,120.448 115.517,119.448 116,118.5C 125.925,124.214 136.092,129.547 146.5,134.5 Z"/></g>
<g><path style="opacity:1" fill="#fdfdfd" d="M 151.5,245.5 C 139.392,204.75 127.725,163.75 116.5,122.5C 116.435,122.062 116.601,121.728 117,121.5C 128.333,135.5 139.667,149.5 151,163.5C 151.5,190.831 151.667,218.165 151.5,245.5 Z"/></g>
<g><path style="opacity:1" fill="#3a355d" d="M 115.5,121.5 C 115.5,122.167 115.833,122.5 116.5,122.5C 127.725,163.75 139.392,204.75 151.5,245.5C 151.5,246.5 151.5,247.5 151.5,248.5C 150.732,249.263 150.232,250.263 150,251.5C 147.137,240.043 143.97,228.71 140.5,217.5C 139.142,211.399 137.475,205.399 135.5,199.5C 133.831,193.488 132.164,187.488 130.5,181.5C 128.5,174.167 126.5,166.833 124.5,159.5C 122.5,152.5 120.5,145.5 118.5,138.5C 117.238,133.046 115.571,127.713 113.5,122.5C 113.957,121.702 114.624,121.369 115.5,121.5 Z"/></g>
<g><path style="opacity:1" fill="#cfcbfd" d="M 187.5,120.5 C 185.502,128.494 183.502,136.494 181.5,144.5C 177.231,157.565 173.565,170.899 170.5,184.5C 166.41,195.844 163.077,207.511 160.5,219.5C 157.833,227.833 155.167,236.167 152.5,244.5C 152.333,217.165 152.5,189.831 153,162.5C 164.364,148.311 175.864,134.311 187.5,120.5 Z"/></g>
<g><path style="opacity:1" fill="#534d9e" d="M 283.5,124.5 C 292.476,180.412 274.81,225.912 230.5,261C 202.734,279.942 172.068,288.275 138.5,286C 135.413,285.741 132.413,285.241 129.5,284.5C 129.817,278.757 132.817,275.257 138.5,274C 134.774,272.957 135.107,272.457 139.5,272.5C 139.954,269.86 141.121,267.527 143,265.5C 143.718,266.451 144.551,266.617 145.5,266C 144.167,264.16 144.334,263.66 146,264.5C 147.775,262.606 149.775,260.939 152,259.5C 156.272,253.059 161.439,247.392 167.5,242.5C 168.641,241.575 168.641,240.741 167.5,240C 168.253,238.513 169.086,238.346 170,239.5C 171.167,237.667 172.667,236.167 174.5,235C 174.167,234.667 173.833,234.333 173.5,234C 175.421,233.64 177.088,232.806 178.5,231.5C 177.391,229.786 178.058,229.119 180.5,229.5C 180.281,228.325 180.614,227.325 181.5,226.5C 184.47,223.705 187.637,221.038 191,218.5C 191.483,217.552 191.649,216.552 191.5,215.5C 192.552,215.649 193.552,215.483 194.5,215C 196.743,212.512 198.743,209.846 200.5,207C 202.618,206.74 204.284,205.74 205.5,204C 205.167,203.667 204.833,203.333 204.5,203C 208.84,198.327 213.506,193.994 218.5,190C 218.167,189.667 217.833,189.333 217.5,189C 220.268,186.524 223.102,183.357 226,179.5C 226.414,179.957 226.914,180.291 227.5,180.5C 230.509,176.661 233.676,172.994 237,169.5C 237.333,169.833 237.667,170.167 238,170.5C 238.456,169.256 237.956,168.423 236.5,168C 238.774,167.53 240.774,166.53 242.5,165C 244.125,164.147 244.458,163.147 243.5,162C 245.833,161 247.5,159.333 248.5,157C 250.883,156.935 251.55,156.102 250.5,154.5C 253.076,153.718 255.076,152.218 256.5,150C 256.167,149.667 255.833,149.333 255.5,149C 257.333,148.5 258.5,147.333 259,145.5C 259.333,145.833 259.667,146.167 260,146.5C 263.786,141.688 268.286,136.854 273.5,132C 272.833,131.667 272.167,131.333 271.5,131C 273.108,130.342 274.275,130.842 275,132.5C 275.471,130.754 276.138,129.087 277,127.5C 278.602,124.626 280.769,123.626 283.5,124.5 Z"/></g>
<g><path style="opacity:0.996" fill="#cecbfd" d="M 19.5,110.5 C 15.3288,124.862 13.3288,139.529 13.5,154.5C 12.2058,155.29 11.0391,156.29 10,157.5C 9.66667,156.833 9.33333,156.167 9,155.5C 7.07982,157.5 5.07982,159.5 3,161.5C 2.33333,160.167 1.66667,160.167 1,161.5C 0.78997,159.942 0.28997,158.609 -0.5,157.5C -0.5,149.833 -0.5,142.167 -0.5,134.5C 0.600635,128.982 1.60064,123.315 2.5,117.5C 3.4959,117.414 4.32924,117.748 5,118.5C 6.09754,117.033 7.59754,116.199 9.5,116C 10.7014,115.097 11.5348,113.931 12,112.5C 12.3333,113.167 12.6667,113.833 13,114.5C 15.2794,112.711 17.2794,110.711 19,108.5C 19.4643,109.094 19.631,109.761 19.5,110.5 Z"/></g>
<g><path style="opacity:0.986" fill="#e9e7fd" d="M 301.5,125.5 C 302.088,128.61 302.755,131.61 303.5,134.5C 303.5,144.833 303.5,155.167 303.5,165.5C 302.778,165.082 302.278,164.416 302,163.5C 300.157,164.274 298.324,165.774 296.5,168C 295.551,168.617 294.718,168.451 294,167.5C 293.082,169.632 291.749,170.299 290,169.5C 289.066,170.858 288.232,172.192 287.5,173.5C 289.546,160.205 289.879,146.872 288.5,133.5C 291.598,133.587 291.932,133.087 289.5,132C 291.5,131.333 293.5,130.667 295.5,130C 297.137,127.966 299.137,126.466 301.5,125.5 Z"/></g>
<g><path style="opacity:1" fill="#3f3a79" d="M 118.5,138.5 C 120.5,145.5 122.5,152.5 124.5,159.5C 123.883,159.389 123.383,159.056 123,158.5C 120.562,161.069 118.062,163.569 115.5,166C 115.833,166.333 116.167,166.667 116.5,167C 112.729,168.526 110.062,171.193 108.5,175C 106.754,175.471 105.087,176.138 103.5,177C 104.167,177.333 104.833,177.667 105.5,178C 103.833,179 102.167,180 100.5,181C 100.833,181.333 101.167,181.667 101.5,182C 100.552,182.483 99.552,182.649 98.5,182.5C 98.6495,183.552 98.4828,184.552 98,185.5C 92.738,190.217 87.5713,195.051 82.5,200C 82.8333,200.333 83.1667,200.667 83.5,201C 82.1667,201.333 80.8333,201.667 79.5,202C 80.1667,202.333 80.8333,202.667 81.5,203C 78.2038,203.907 76.7038,205.74 77,208.5C 76.6667,208.167 76.3333,207.833 76,207.5C 73.09,210.287 70.4234,213.287 68,216.5C 67.6667,216.167 67.3333,215.833 67,215.5C 63.8405,219.659 60.3405,223.492 56.5,227C 56.8333,227.333 57.1667,227.667 57.5,228C 56.5,228.333 55.5,228.667 54.5,229C 53.1667,229.667 53.1667,230.333 54.5,231C 53.7471,232.487 52.9138,232.654 52,231.5C 50.9563,232.623 50.2896,233.956 50,235.5C 49.3292,236.252 48.4959,236.586 47.5,236.5C 43.1125,232.071 39.4458,227.071 36.5,221.5C 37.6085,220.71 38.9419,220.21 40.5,220C 42.7514,217.205 45.4181,214.872 48.5,213C 47.8333,212.667 47.1667,212.333 46.5,212C 50.4742,210.701 52.8075,208.367 53.5,205C 54.3617,202.266 55.195,202.099 56,204.5C 56.3333,203.167 56.6667,201.833 57,200.5C 57.6667,199.167 58.3333,199.167 59,200.5C 59.3173,198.699 59.984,198.366 61,199.5C 61.9688,196.698 63.8021,194.698 66.5,193.5C 66.2907,192.914 65.9574,192.414 65.5,192C 66.2529,190.513 67.0862,190.346 68,191.5C 68.2189,190.062 68.7189,188.729 69.5,187.5C 70.5,186.167 71.5,186.167 72.5,187.5C 76.0805,184.09 79.0805,180.257 81.5,176C 82.448,175.517 83.448,175.351 84.5,175.5C 85.8336,172.645 87.8336,170.145 90.5,168C 90.1667,167.667 89.8333,167.333 89.5,167C 91.3179,164.759 93.3179,163.593 95.5,163.5C 97.003,162.41 97.3363,161.243 96.5,160C 97.7434,157.966 99.2434,157.133 101,157.5C 101.667,156.167 102.333,154.833 103,153.5C 103.667,154.833 104.333,154.833 105,153.5C 106.064,151.307 107.398,149.307 109,147.5C 109.333,147.833 109.667,148.167 110,148.5C 110.333,147.5 110.667,146.5 111,145.5C 111.333,145.833 111.667,146.167 112,146.5C 113.389,144.209 114.889,142.042 116.5,140C 116.167,139.667 115.833,139.333 115.5,139C 116.448,138.517 117.448,138.351 118.5,138.5 Z"/></g>
<g><path style="opacity:1" fill="#423d7f" d="M 124.5,159.5 C 126.5,166.833 128.5,174.167 130.5,181.5C 129.883,181.389 129.383,181.056 129,180.5C 124.534,184.764 120.534,189.431 117,194.5C 116.586,194.043 116.086,193.709 115.5,193.5C 114.571,194.689 114.238,196.022 114.5,197.5C 113.448,197.351 112.448,197.517 111.5,198C 112.654,198.914 112.487,199.747 111,200.5C 107.858,202.6 104.691,205.433 101.5,209C 101.833,209.333 102.167,209.667 102.5,210C 100.899,210.273 99.3988,210.773 98,211.5C 95.4433,214.928 93.11,218.595 91,222.5C 90.0255,220.122 89.3589,220.456 89,223.5C 81.833,228.972 76.1663,234.972 72,241.5C 71.3333,240.833 70.6667,240.167 70,239.5C 69.8347,243.175 68.168,245.842 65,247.5C 63.9055,249.078 63.0722,250.745 62.5,252.5C 56.7949,247.796 51.7949,242.463 47.5,236.5C 48.4959,236.586 49.3292,236.252 50,235.5C 50.2896,233.956 50.9563,232.623 52,231.5C 52.9138,232.654 53.7471,232.487 54.5,231C 53.1667,230.333 53.1667,229.667 54.5,229C 55.5,228.667 56.5,228.333 57.5,228C 57.1667,227.667 56.8333,227.333 56.5,227C 60.3405,223.492 63.8405,219.659 67,215.5C 67.3333,215.833 67.6667,216.167 68,216.5C 70.4234,213.287 73.09,210.287 76,207.5C 76.3333,207.833 76.6667,208.167 77,208.5C 76.7038,205.74 78.2038,203.907 81.5,203C 80.8333,202.667 80.1667,202.333 79.5,202C 80.8333,201.667 82.1667,201.333 83.5,201C 83.1667,200.667 82.8333,200.333 82.5,200C 87.5713,195.051 92.738,190.217 98,185.5C 98.4828,184.552 98.6495,183.552 98.5,182.5C 99.552,182.649 100.552,182.483 101.5,182C 101.167,181.667 100.833,181.333 100.5,181C 102.167,180 103.833,179 105.5,178C 104.833,177.667 104.167,177.333 103.5,177C 105.087,176.138 106.754,175.471 108.5,175C 110.062,171.193 112.729,168.526 116.5,167C 116.167,166.667 115.833,166.333 115.5,166C 118.062,163.569 120.562,161.069 123,158.5C 123.383,159.056 123.883,159.389 124.5,159.5 Z"/></g>
<g><path style="opacity:0.984" fill="#d3d0fc" d="M 13.5,154.5 C 14.2704,165.671 15.9371,176.671 18.5,187.5C 14.4447,188.696 10.778,190.696 7.5,193.5C 6.57131,194.689 6.23798,196.022 6.5,197.5C 3.2741,188.034 0.94077,178.368 -0.5,168.5C -0.5,164.833 -0.5,161.167 -0.5,157.5C 0.28997,158.609 0.78997,159.942 1,161.5C 1.66667,160.167 2.33333,160.167 3,161.5C 5.07982,159.5 7.07982,157.5 9,155.5C 9.33333,156.167 9.66667,156.833 10,157.5C 11.0391,156.29 12.2058,155.29 13.5,154.5 Z"/></g>
<g><path style="opacity:0.97" fill="#eeedfc" d="M 303.5,165.5 C 303.5,166.5 303.5,167.5 303.5,168.5C 301.264,184.875 296.598,200.542 289.5,215.5C 288.458,214.209 287.292,214.209 286,215.5C 285.667,214.833 285.333,214.167 285,213.5C 284.751,214.624 284.251,215.624 283.5,216.5C 278.139,219.844 272.805,223.178 267.5,226.5C 277.308,210.083 283.975,192.417 287.5,173.5C 288.232,172.192 289.066,170.858 290,169.5C 291.749,170.299 293.082,169.632 294,167.5C 294.718,168.451 295.551,168.617 296.5,168C 298.324,165.774 300.157,164.274 302,163.5C 302.278,164.416 302.778,165.082 303.5,165.5 Z"/></g>
<g><path style="opacity:1" fill="#464086" d="M 130.5,181.5 C 132.164,187.488 133.831,193.488 135.5,199.5C 134.069,199.881 133.236,200.881 133,202.5C 131.16,201.167 130.66,201.334 131.5,203C 128.456,203.359 128.122,204.026 130.5,205C 128.376,205.958 126.376,207.125 124.5,208.5C 122.407,212.664 119.907,215.997 117,218.5C 116.107,217.289 115.274,217.289 114.5,218.5C 114.709,219.086 115.043,219.586 115.5,220C 112.808,222.362 110.141,224.696 107.5,227C 107.833,227.333 108.167,227.667 108.5,228C 106.079,230.094 103.412,231.76 100.5,233C 101.167,233.333 101.833,233.667 102.5,234C 101.377,235.044 100.044,235.71 98.5,236C 99.3402,237.666 98.8402,237.833 97,236.5C 95.3117,237.325 95.1451,238.325 96.5,239.5C 92.9368,242.961 89.6035,246.628 86.5,250.5C 84.6675,251.248 83.0009,252.248 81.5,253.5C 79.8158,256.825 77.8158,259.825 75.5,262.5C 70.5869,259.882 66.2535,256.548 62.5,252.5C 63.0722,250.745 63.9055,249.078 65,247.5C 68.168,245.842 69.8347,243.175 70,239.5C 70.6667,240.167 71.3333,240.833 72,241.5C 76.1663,234.972 81.833,228.972 89,223.5C 89.3589,220.456 90.0255,220.122 91,222.5C 93.11,218.595 95.4433,214.928 98,211.5C 99.3988,210.773 100.899,210.273 102.5,210C 102.167,209.667 101.833,209.333 101.5,209C 104.691,205.433 107.858,202.6 111,200.5C 112.487,199.747 112.654,198.914 111.5,198C 112.448,197.517 113.448,197.351 114.5,197.5C 114.238,196.022 114.571,194.689 115.5,193.5C 116.086,193.709 116.586,194.043 117,194.5C 120.534,189.431 124.534,184.764 129,180.5C 129.383,181.056 129.883,181.389 130.5,181.5 Z"/></g>
<g><path style="opacity:1" fill="#49438b" d="M 135.5,199.5 C 137.475,205.399 139.142,211.399 140.5,217.5C 139.069,218.082 137.736,218.915 136.5,220C 137.833,220.667 137.833,221.333 136.5,222C 135.5,222.333 134.5,222.667 133.5,223C 133.833,223.333 134.167,223.667 134.5,224C 131.544,226.773 128.877,229.773 126.5,233C 125.5,233.333 124.5,233.667 123.5,234C 123.5,235 123.5,236 123.5,237C 120.722,238.112 118.555,239.945 117,242.5C 116.107,241.289 115.274,241.289 114.5,242.5C 113.359,243.425 113.359,244.259 114.5,245C 110.694,248.222 107.027,251.555 103.5,255C 103.833,255.333 104.167,255.667 104.5,256C 102.5,257.667 100.5,259.333 98.5,261C 98.8333,261.333 99.1667,261.667 99.5,262C 97.6675,262.748 96.0009,263.748 94.5,265C 95.6537,265.914 95.487,266.747 94,267.5C 92.1598,266.167 91.6598,266.334 92.5,268C 91.1772,268.816 90.5106,269.983 90.5,271.5C 85.2156,268.863 80.2156,265.863 75.5,262.5C 77.8158,259.825 79.8158,256.825 81.5,253.5C 83.0009,252.248 84.6675,251.248 86.5,250.5C 89.6035,246.628 92.9368,242.961 96.5,239.5C 95.1451,238.325 95.3117,237.325 97,236.5C 98.8402,237.833 99.3402,237.666 98.5,236C 100.044,235.71 101.377,235.044 102.5,234C 101.833,233.667 101.167,233.333 100.5,233C 103.412,231.76 106.079,230.094 108.5,228C 108.167,227.667 107.833,227.333 107.5,227C 110.141,224.696 112.808,222.362 115.5,220C 115.043,219.586 114.709,219.086 114.5,218.5C 115.274,217.289 116.107,217.289 117,218.5C 119.907,215.997 122.407,212.664 124.5,208.5C 126.376,207.125 128.376,205.958 130.5,205C 128.122,204.026 128.456,203.359 131.5,203C 130.66,201.334 131.16,201.167 133,202.5C 133.236,200.881 134.069,199.881 135.5,199.5 Z"/></g>
<g><path style="opacity:0.975" fill="#f5f4fd" d="M 289.5,215.5 C 264.704,266.076 224.371,295.409 168.5,303.5C 157.167,303.5 145.833,303.5 134.5,303.5C 132.393,302.532 130.059,302.198 127.5,302.5C 127.119,300.058 127.786,299.391 129.5,300.5C 130.912,299.194 132.579,298.36 134.5,298C 134.167,297.667 133.833,297.333 133.5,297C 136.22,296.277 138.387,294.777 140,292.5C 140.333,293.167 140.667,293.833 141,294.5C 141.442,292.321 142.442,291.655 144,292.5C 145.31,291.103 146.81,290.103 148.5,289.5C 199.111,288.7 238.778,267.7 267.5,226.5C 272.805,223.178 278.139,219.844 283.5,216.5C 284.251,215.624 284.751,214.624 285,213.5C 285.333,214.167 285.667,214.833 286,215.5C 287.292,214.209 288.458,214.209 289.5,215.5 Z"/></g>
<g><path style="opacity:0.965" fill="#dcd9fc" d="M 18.5,187.5 C 24.0899,207.015 33.0899,224.681 45.5,240.5C 44.1696,241.832 42.5029,242.665 40.5,243C 40.8333,243.333 41.1667,243.667 41.5,244C 39.7215,243.021 38.0548,243.354 36.5,245C 37.8333,245.333 39.1667,245.667 40.5,246C 38.5,246.333 36.5,246.667 34.5,247C 37.0972,247.779 37.0972,248.279 34.5,248.5C 21.2998,233.778 11.9665,216.778 6.5,197.5C 6.23798,196.022 6.57131,194.689 7.5,193.5C 10.778,190.696 14.4447,188.696 18.5,187.5 Z"/></g>
<g><path style="opacity:0.979" fill="#e2e0fc" d="M 45.5,240.5 C 52.5264,247.194 59.5264,253.861 66.5,260.5C 65.1529,261.171 63.9862,261.171 63,260.5C 59.3908,264.555 55.5575,266.555 51.5,266.5C 45.1295,261.131 39.4629,255.131 34.5,248.5C 37.0972,248.279 37.0972,247.779 34.5,247C 36.5,246.667 38.5,246.333 40.5,246C 39.1667,245.667 37.8333,245.333 36.5,245C 38.0548,243.354 39.7215,243.021 41.5,244C 41.1667,243.667 40.8333,243.333 40.5,243C 42.5029,242.665 44.1696,241.832 45.5,240.5 Z"/></g>
<g><path style="opacity:0.99" fill="#e9e7fd" d="M 66.5,260.5 C 79.1826,269.675 92.8492,277.008 107.5,282.5C 105.054,283.806 102.888,285.473 101,287.5C 100.667,286.833 100.333,286.167 100,285.5C 97.8436,288.602 95.0103,290.602 91.5,291.5C 76.5655,285.533 63.2322,277.2 51.5,266.5C 55.5575,266.555 59.3908,264.555 63,260.5C 63.9862,261.171 65.1529,261.171 66.5,260.5 Z"/></g>
<g><path style="opacity:0.97" fill="#f0effe" d="M 107.5,282.5 C 120.86,286.505 134.526,288.838 148.5,289.5C 146.81,290.103 145.31,291.103 144,292.5C 142.442,291.655 141.442,292.321 141,294.5C 140.667,293.833 140.333,293.167 140,292.5C 138.387,294.777 136.22,296.277 133.5,297C 133.833,297.333 134.167,297.667 134.5,298C 132.579,298.36 130.912,299.194 129.5,300.5C 127.786,299.391 127.119,300.058 127.5,302.5C 115.117,300.071 103.117,296.405 91.5,291.5C 95.0103,290.602 97.8436,288.602 100,285.5C 100.333,286.167 100.667,286.833 101,287.5C 102.888,285.473 105.054,283.806 107.5,282.5 Z"/></g>
</svg>
