<svg width="25" height="24" viewBox="0 0 25 24" fill="none" xmlns="http://www.w3.org/2000/svg">
<g clip-path="url(#clip0_5357_40426)">
<circle cx="12" cy="12" r="12" fill="black"/>
<path d="M14.3794 0.969072L15.018 2.47423C16.2747 5.40206 18.6026 7.75258 21.5485 9.01031L23.0524 9.64948C23.4438 9.81443 23.7528 10.0619 24 10.3505C23.2584 5.01031 19.0352 0.783505 13.6996 0.0412365C13.9674 0.268041 14.2146 0.577319 14.3794 0.969072ZM0.968241 9.62887L2.4721 8.98969C5.39742 7.73196 7.74592 5.40206 9.00258 2.45361L9.6412 0.948452C9.78541 0.577318 10.0326 0.247423 10.3416 0C5.00601 0.742268 0.782833 4.96907 0.0412027 10.3093C0.267812 10.0412 0.576825 9.79381 0.968241 9.62887ZM23.0318 14.3918L21.5279 15.0309C18.6026 16.2887 16.2541 18.6186 14.9974 21.567L14.3588 23.0515C14.2146 23.4227 13.9674 23.7526 13.6584 24C18.994 23.2577 23.2172 19.0309 23.9588 13.6907C23.7322 14 23.4026 14.2474 23.0318 14.3918ZM9.6206 23.0515L8.98197 21.567C7.72532 18.6392 5.39742 16.2887 2.4515 15.0309L0.947639 14.3918C0.576824 14.2474 0.24721 14 0 13.6907C0.741631 19.0309 4.96481 23.2577 10.3004 24C10.012 23.7526 9.78541 23.4227 9.6206 23.0515Z" fill="#999999"/>
<path d="M6.76923 11.0154L7.50769 10.7077C8.94359 10.0923 10.0923 8.94359 10.7077 7.50769L11.0154 6.76923C11.4462 5.74359 12.9026 5.74359 13.3538 6.76923L13.6615 7.50769C14.2769 8.94359 15.4256 10.0923 16.8615 10.7077L17.6 11.0154C18.6256 11.4462 18.6256 12.9026 17.6 13.3538L16.8615 13.6615C15.4256 14.2769 14.2769 15.4256 13.6615 16.8615L13.3538 17.6C12.9231 18.6256 11.4667 18.6256 11.0154 17.6L10.7077 16.8615C10.0923 15.4256 8.94359 14.2769 7.50769 13.6615L6.76923 13.3538C5.74359 12.9026 5.74359 11.4462 6.76923 11.0154Z" fill="white"/>
</g>
<defs>
<clipPath id="clip0_5357_40426">
<rect width="24.2051" height="24" fill="white"/>
</clipPath>
</defs>
</svg>
