<svg width="24" height="24" viewBox="0 0 24 24" fill="none" xmlns="http://www.w3.org/2000/svg">
<mask id="mask0_28_763" style="mask-type:alpha" maskUnits="userSpaceOnUse" x="0" y="0" width="24" height="24">
<circle cx="11.9191" cy="11.9191" r="11.9191" fill="#D9D9D9"/>
</mask>
<g mask="url(#mask0_28_763)">
<path d="M10.3186 0H13.8007C14.0391 0.0936502 14.303 0.110678 14.5499 0.161759C15.9035 0.44271 17.1551 0.962043 18.3384 1.66868C18.9089 2.00922 19.4197 2.44342 19.939 2.86059C20.5861 3.37141 21.1224 3.99291 21.6162 4.63994C22.1696 5.37212 22.6719 6.15537 23.0295 7.02377C23.2849 7.62824 23.5233 8.24122 23.7021 8.87123C23.7957 9.21178 23.9064 9.56084 23.9149 9.91841C23.9149 10.0206 23.9404 10.1142 24 10.1994V13.9794C23.8808 14.1752 23.9319 14.4051 23.8808 14.6179C23.5829 15.9546 23.072 17.2061 22.3569 18.381C21.2161 20.2455 19.6581 21.6843 17.751 22.7315C17.2317 23.0124 16.6868 23.2423 16.1249 23.4126C15.6907 23.4892 15.2735 23.6169 14.8649 23.7701C14.8308 23.7786 14.8053 23.7872 14.7712 23.7872C14.3115 23.8978 13.8432 23.9319 13.3835 24H10.5655C10.3016 23.9064 10.0206 23.9319 9.73965 23.9063C8.24976 23.6509 6.87907 23.0805 5.58499 22.3058C4.55484 21.6843 3.70347 20.867 2.87765 20.0156C2.784 19.922 2.69886 19.8283 2.5967 19.7517C2.18804 19.2409 1.7879 18.73 1.48992 18.1511C1.43884 17.9638 1.33668 17.8021 1.24303 17.6488C0.740719 16.6357 0.357605 15.5885 0.127736 14.4817C0.110709 14.4136 0.110709 14.3455 0.102195 14.2774C0.0681405 13.9624 0.102195 13.6389 0.00854492 13.3239V10.625C0.0851678 10.1057 0.153277 9.58638 0.272468 9.07556C0.587474 7.76446 1.14937 6.56403 1.86452 5.4232C2.23061 4.84427 2.69886 4.35899 3.09049 3.8056C3.35441 3.43952 3.72901 3.18411 4.06956 2.88613C4.5293 2.48599 4.99755 2.10287 5.51688 1.78787C5.93405 1.53246 6.36825 1.30259 6.80244 1.08975C7.773 0.612983 8.80315 0.315005 9.85885 0.0936502C10.0121 0.0595956 10.1824 0.102164 10.3271 0.00851366L10.3186 0Z" fill="#FEBFA8"/>
<path d="M0 7.02377V3.2437C0.553388 2.34977 1.28556 1.61759 2.06031 0.910961C2.42639 0.570415 2.80951 0.25541 3.2437 0H7.08336C7.1089 0.229869 6.9216 0.280951 6.77687 0.34906C5.99361 0.689606 5.28698 1.15786 4.57183 1.60908C3.95885 2.00071 3.46506 2.52856 2.95424 3.02235C2.18801 3.75452 1.54097 4.59737 1.00461 5.50834C0.766229 5.90848 0.578929 6.34267 0.357574 6.75984C0.280951 6.89606 0.221355 7.05782 0.00851366 7.01525L0 7.02377Z" fill="#FEBAAB"/>
<path d="M0 18.9598V16.2609C0.178787 16.2354 0.221355 16.3716 0.263923 16.4908C0.783256 17.7764 1.46435 18.9683 2.34977 20.041C2.84356 20.637 3.37992 21.1818 3.98439 21.6671C5.04008 22.5014 6.16389 23.2166 7.43242 23.6934C7.56013 23.7444 7.7304 23.7955 7.68783 23.9998H5.0486C4.22277 23.5656 3.4906 23.0037 2.78397 22.4078C2.22206 21.9395 1.73679 21.4032 1.28556 20.8243C0.979071 20.4326 0.672579 20.041 0.391628 19.6238C0.246896 19.411 0.127705 19.1811 0.00851366 18.9598H0Z" fill="#FEBBAA"/>
<path d="M24 5.33806V7.79851C23.8127 7.81554 23.7787 7.64526 23.7191 7.53459C23.5488 7.21958 23.4381 6.87052 23.2763 6.547C22.5612 5.07414 21.5736 3.81412 20.3732 2.69883C19.2664 1.66868 17.9809 0.936502 16.6102 0.340546C16.4569 0.272437 16.2441 0.246896 16.2611 0H18.6619C19.5899 0.357574 20.3391 0.996098 21.0628 1.64314C22.1015 2.57112 23.0465 3.58425 23.7531 4.79319C23.8553 4.97198 23.8893 5.16779 24 5.33806Z" fill="#FEBBAA"/>
<path d="M9.08049e-05 7.02377C0.136309 6.94714 0.204419 6.82795 0.264014 6.68322C0.638615 5.90848 1.04727 5.15076 1.5666 4.45264C1.89864 4.00142 2.27324 3.60128 2.64784 3.19262C3.1246 2.6818 3.62691 2.20504 4.15476 1.76233C4.39314 1.56651 4.65706 1.40475 4.91247 1.24299C5.4914 0.88542 6.07033 0.510819 6.71737 0.263923C6.85358 0.212841 6.9898 0.136219 7.06643 0H9.82485C9.82485 0.153246 9.70566 0.161759 9.6035 0.178787C8.19874 0.459738 6.88764 0.996098 5.66167 1.72827C4.72517 2.29017 3.88232 2.97978 3.15014 3.78006C2.0604 4.97198 1.20903 6.32565 0.664156 7.85811C0.485369 8.36893 0.340637 8.87974 0.221446 9.39908C0.195905 9.50976 0.238473 9.73111 -0.00842285 9.71408V7.01525L9.08049e-05 7.02377Z" fill="#FEBEA8"/>
<path d="M20.9351 24.0001H18.5343C18.4917 23.7872 18.662 23.7191 18.7897 23.651C19.5474 23.2168 20.22 22.6805 20.8925 22.1271C21.4034 21.7099 21.8546 21.2246 22.2632 20.7138C22.74 20.1264 23.1997 19.5219 23.5743 18.8578C23.6595 18.7046 23.7361 18.5003 23.983 18.5428V21.0033C23.3615 21.7695 22.757 22.5528 21.9738 23.1657C21.6247 23.4382 21.3352 23.8043 20.9266 24.0001H20.9351Z" fill="#FEB9AB"/>
<path d="M24.0001 5.33806C23.7787 5.18482 23.7106 4.92089 23.5744 4.70805C23.2764 4.24832 22.9614 3.8056 22.6209 3.37992C22.1441 2.78397 21.5737 2.28166 21.0458 1.75381C20.6712 1.37921 20.2285 1.09826 19.8114 0.774743C19.4964 0.527847 19.1558 0.332033 18.8068 0.153246C18.7472 0.119191 18.6961 0.0681093 18.6705 0H21.0714C22.2378 0.79177 23.2083 1.77935 24.0086 2.93721V5.33806H24.0001Z" fill="#FEB8AC"/>
<path d="M16.0823 23.336C16.4314 23.2168 16.7634 23.0635 17.104 22.9358C17.4275 22.8166 17.7255 22.6293 18.0149 22.442C18.5683 22.11 19.1217 21.778 19.607 21.3523C19.939 21.0628 20.2966 20.7904 20.5861 20.4413C20.7223 20.2711 20.8926 20.1348 21.0288 19.9731C21.7269 19.1898 22.2973 18.3299 22.7656 17.3849C23.2594 16.4059 23.6084 15.3757 23.8127 14.303C23.8383 14.1838 23.8383 14.0391 23.983 13.9709V15.9546C23.7021 17.0699 23.1742 18.0745 22.5527 19.0281C21.8972 20.0327 21.1054 20.9096 20.1859 21.6758C19.2835 22.442 18.2959 23.072 17.2147 23.5573C16.823 23.7361 16.4144 23.8553 16.0057 23.983H14.1497C14.1327 23.8127 14.286 23.8127 14.3796 23.7787C14.5158 23.7276 14.6691 23.7361 14.8053 23.685C15.231 23.5829 15.6481 23.4552 16.0653 23.3275L16.0823 23.336Z" fill="#FEBEA8"/>
<path d="M7.67935 24C7.62827 23.8978 7.53462 23.8467 7.43245 23.8042C7.08339 23.6679 6.73433 23.5147 6.39379 23.3529C5.55945 22.9613 4.82727 22.4249 4.08659 21.8801C3.4736 21.4374 2.94576 20.901 2.46048 20.3391C1.93263 19.7346 1.45587 19.0791 1.06424 18.3724C0.706665 17.7254 0.383146 17.0699 0.127736 16.3802C0.102195 16.3207 0.0681405 16.2781 0.00854492 16.2525V14.3966C0.187332 14.3285 0.170304 14.4817 0.187332 14.5754C0.315037 15.1032 0.468282 15.631 0.647069 16.1504C0.817342 16.6527 1.05572 17.1209 1.26857 17.6062C1.38776 17.768 1.43033 17.9723 1.56654 18.1256C1.89006 18.6704 2.28169 19.1642 2.64778 19.6835C3.37144 20.4498 4.08659 21.2245 4.95498 21.829C6.14689 22.6633 7.44097 23.2763 8.82869 23.685C9.00748 23.736 9.21181 23.702 9.38208 23.7956C9.46722 23.8382 9.58641 23.8552 9.54384 24H7.68786H7.67935Z" fill="#FEBEA8"/>
<path d="M16.2611 0C16.3463 0.161759 16.5166 0.195814 16.6528 0.246896C17.3849 0.53636 18.0831 0.893934 18.7471 1.3111C19.258 1.63462 19.7688 1.94963 20.1945 2.39234C20.4584 2.66477 20.7564 2.90316 21.0288 3.16708C21.4034 3.53317 21.7525 3.94182 22.0675 4.35899C22.4421 4.85278 22.7826 5.38063 23.0891 5.92551C23.3786 6.43633 23.5744 6.98971 23.8213 7.51756C23.8638 7.61121 23.8979 7.7304 23.9915 7.79851V9.65449C23.8128 9.65449 23.7957 9.49273 23.7787 9.38205C23.6084 8.5392 23.3019 7.74743 22.9529 6.96417C22.6719 6.33416 22.3058 5.75523 21.9398 5.1763C21.5737 4.60589 21.131 4.08656 20.6712 3.60128C20.1178 3.01383 19.4878 2.51153 18.8238 2.04328C18.2108 1.60908 17.5467 1.26854 16.8656 0.962043C16.1675 0.647038 15.4353 0.408656 14.6946 0.229869C14.5499 0.195814 14.3115 0.263923 14.2775 0H16.2611V0Z" fill="#FEBEA8"/>
<path d="M16.0227 24C16.0653 23.8893 16.1674 23.8638 16.2526 23.8298C16.9677 23.5829 17.6744 23.3104 18.3044 22.9018C18.7641 22.6038 19.2494 22.3313 19.6836 21.9653C20.2199 21.514 20.7478 21.0713 21.2245 20.5605C21.7865 19.9646 22.2717 19.3175 22.6974 18.6194C23.1827 17.8276 23.5573 16.9848 23.8723 16.1164C23.8978 16.0483 23.9234 15.9887 24 15.9631V17.5211C23.3445 19.0025 22.4335 20.3221 21.2671 21.4459C20.2029 22.4761 19.0195 23.353 17.6488 23.9489C17.6233 23.9575 17.5977 23.983 17.5807 24.0085H16.0227V24Z" fill="#FEBCAA"/>
<path d="M3.2437 0C3.2437 0.127705 3.15005 0.1873 3.0564 0.246896C2.61369 0.53636 2.22206 0.893934 1.83895 1.26002C1.25151 1.81341 0.689606 2.39234 0.238382 3.07343C0.178787 3.16708 0.0851366 3.20114 0 3.2437C0 2.20504 0 1.17488 0 0.136219C0 0.025541 0.025541 0 0.136219 0C1.17488 0 2.20504 0 3.2437 0Z" fill="#FEB3AE"/>
<path d="M0 18.96C0.0936502 18.96 0.144732 19.011 0.1873 19.0877C0.44271 19.5389 0.723661 19.9646 1.04718 20.3732C1.54097 20.9947 2.01774 21.6418 2.63072 22.1441C3.14154 22.5612 3.6183 23.0295 4.20575 23.353C4.45264 23.4892 4.63994 23.7191 4.92941 23.8127C5.00603 23.8383 5.0486 23.9149 5.0486 24.0086H3.72898C2.69032 23.3785 1.81341 22.5612 1.03015 21.6418C0.851366 21.4374 0.681093 21.2331 0.502306 21.0288C0.297978 20.8074 0.136219 20.5605 0.00851366 20.2881V18.9685L0 18.96Z" fill="#FEB8AC"/>
<path d="M20.9352 24C21.1991 23.6424 21.5482 23.3785 21.8887 23.106C22.3399 22.7485 22.7486 22.3483 23.0976 21.8971C23.302 21.6332 23.5829 21.4289 23.7702 21.1394C23.8213 21.0628 23.915 21.0372 24.0001 21.0032C24.0001 21.9652 24.0001 22.9187 24.0001 23.8808C24.0001 23.983 23.9831 24.0085 23.8809 24C22.9018 24 21.9228 24 20.9437 24H20.9352Z" fill="#FEB3AE"/>
<path d="M24.0001 2.94573C23.8979 2.94573 23.8298 2.88613 23.7872 2.80951C23.2679 1.9922 22.5017 1.39624 21.8461 0.706634C21.6588 0.510819 21.4119 0.357574 21.1906 0.195814C21.1225 0.144732 21.0629 0.102164 21.0629 0.00851366C21.9994 0 22.9359 0 23.8809 0C23.9831 0 24.0086 0.0170273 24.0001 0.119191C24.0001 1.05569 24.0001 2.00071 24.0001 2.93721V2.94573Z" fill="#FEB3AE"/>
<path d="M17.5808 23.9999C17.5808 23.8722 17.6659 23.8296 17.7596 23.787C18.3385 23.5231 18.8749 23.1655 19.4112 22.8335C19.6411 22.6888 19.8454 22.5185 20.0498 22.3397C20.3052 22.1098 20.5946 21.9055 20.8501 21.6756C21.1821 21.3777 21.5141 21.0712 21.7951 20.7221C22.1186 20.322 22.4591 19.9303 22.7571 19.5046C22.8933 19.3088 23.0381 19.1215 23.1487 18.9087C23.3446 18.5171 23.6255 18.168 23.7873 17.7593C23.8298 17.6572 23.8894 17.5635 24.0001 17.5125V18.5341C23.8213 18.6277 23.7277 18.798 23.6425 18.9598C23.4808 19.2663 23.2935 19.5642 23.0806 19.8367C22.7741 20.2368 22.4762 20.6455 22.1441 21.0286C21.9057 21.3095 21.6503 21.5735 21.3949 21.8289C21.131 22.1013 20.833 22.3312 20.5265 22.5525C20.3988 22.6462 20.2796 22.7569 20.1604 22.8505C19.7263 23.2081 19.2325 23.489 18.7557 23.787C18.6706 23.8381 18.5854 23.8892 18.5429 23.9828H17.5808V23.9999Z" fill="#FEBBAA"/>
<path d="M2.63929 24C1.79644 24 0.9621 24 0.119248 24C0.0170841 24 -0.00845688 23.983 5.6778e-05 23.8808C5.6778e-05 23.038 5.6778e-05 22.2037 5.6778e-05 21.3608C0.17033 21.2586 0.26398 21.3863 0.349117 21.4885C1.00467 22.2718 1.71982 23.0039 2.51159 23.651C2.61375 23.7361 2.74145 23.8298 2.63929 24Z" fill="#FEB3AE"/>
<path d="M2.63923 24C2.63923 23.8638 2.52856 23.7871 2.44342 23.719C1.94963 23.3359 1.4984 22.9017 1.06421 22.4505C0.808797 22.1781 0.553388 21.8971 0.323519 21.5991C0.238382 21.497 0.161759 21.3607 0 21.3522V20.271C0.0936502 20.3136 0.161759 20.3902 0.212841 20.4753C0.527847 20.9606 0.95353 21.3522 1.3111 21.8035C1.62611 22.2036 1.98368 22.5612 2.37531 22.8677C2.77545 23.1827 3.116 23.5913 3.59276 23.8127C3.66939 23.8467 3.72047 23.9063 3.72047 24H2.63923Z" fill="#FEB7AC"/>
<path d="M5.95413e-05 9.72266C0.136278 9.67158 0.144792 9.52684 0.170333 9.42468C0.238442 9.11819 0.306551 8.80318 0.400201 8.50521C0.587502 7.90925 0.800343 7.33032 1.08129 6.76842C1.37076 6.18098 1.69428 5.61056 2.06036 5.0742C2.60524 4.29946 3.24376 3.60134 3.94188 2.96282C4.74217 2.23064 5.64461 1.65171 6.59814 1.16643C7.38991 0.766292 8.22425 0.434259 9.10967 0.246959C9.35657 0.195877 9.62901 0.195877 9.83333 0.0170898H10.3101C10.2846 0.0766854 10.242 0.119254 10.1824 0.127767C9.52684 0.246959 8.88832 0.417232 8.24979 0.613046C7.83262 0.740751 7.43248 0.90251 7.03234 1.08981C6.62369 1.28562 6.22354 1.47293 5.84043 1.70279C5.41475 1.9582 4.99758 2.22213 4.61446 2.54565C4.23135 2.86916 3.83972 3.19268 3.46512 3.53323C3.31187 3.66945 3.15011 3.81418 3.04795 4.00148C2.92024 4.23986 2.7074 4.41014 2.53713 4.62298C2.15401 5.09123 1.82198 5.60205 1.524 6.1299C0.962103 7.15153 0.493852 8.21574 0.289524 9.3736C0.229928 9.70563 0.0851961 10.0206 0.0937098 10.3612C0.0937098 10.4463 0.0681688 10.557 -0.0169678 10.6251V9.72266H5.95413e-05Z" fill="#FEBFA8"/>
<path d="M14.2775 -3.12654e-05C14.4563 0.178756 14.6947 0.178756 14.9075 0.229837C15.5375 0.383083 16.1505 0.587411 16.738 0.842821C17.2318 1.05566 17.7085 1.29404 18.1768 1.54945C18.3726 1.66013 18.5343 1.80486 18.7216 1.91554C19.3261 2.28163 19.8454 2.75839 20.3648 3.23516C20.7905 3.62679 21.1651 4.06098 21.5226 4.51221C21.9739 5.08262 22.3485 5.68709 22.6975 6.32562C23.0466 6.95563 23.302 7.61969 23.5319 8.29227C23.6425 8.61579 23.7702 8.94782 23.8128 9.29688C23.8298 9.44161 23.8894 9.56081 23.9916 9.66297V10.1993C23.8724 10.1397 23.8298 10.0291 23.8128 9.90987C23.7447 9.31391 23.5574 8.75201 23.3786 8.19011C23.2254 7.70483 23.0125 7.24509 22.8082 6.78535C22.5613 6.24899 22.2804 5.71263 21.8972 5.2529C21.8462 5.1933 21.8121 5.11668 21.778 5.04857C21.6759 4.82721 21.5311 4.64843 21.3609 4.46964C21.0459 4.13761 20.7905 3.76301 20.4584 3.43949C20.1264 3.11597 19.7688 2.84353 19.4112 2.54555C18.9345 2.14541 18.4152 1.79635 17.8532 1.50689C17.2999 1.21742 16.7465 0.927957 16.1505 0.72363C15.495 0.493761 14.8309 0.30646 14.1498 0.170242C14.0221 0.144701 13.8689 0.144701 13.7922 -0.00854492H14.269L14.2775 -3.12654e-05Z" fill="#FEBFA8"/>
<path d="M9.54385 24C9.45871 23.8467 9.29695 23.7786 9.14371 23.7701C8.75208 23.7701 8.41153 23.5828 8.05396 23.4807C7.50909 23.3274 6.98975 23.0975 6.49596 22.8251C5.49135 22.2717 4.51228 21.6672 3.69497 20.8329C3.37996 20.5179 3.08198 20.1859 2.75847 19.8794C2.69887 19.8283 2.63927 19.7687 2.64779 19.675C3.02239 19.9901 3.35442 20.3476 3.69497 20.6967C4.06957 21.0798 4.48674 21.4203 4.92093 21.7354C6.15542 22.6208 7.50057 23.2678 8.97344 23.6424C9.22033 23.7105 9.47574 23.7531 9.72264 23.8042C9.85034 23.8978 10.0802 23.7361 10.1398 23.983H9.54385V24Z" fill="#FEBFA8"/>
<path d="M1.26002 17.6402C1.01313 17.2911 0.876907 16.8825 0.715147 16.4909C0.459737 15.8694 0.289464 15.2138 0.127705 14.5668C0.110678 14.4901 0.110678 14.405 0 14.405V13.8687C0.204328 13.9453 0.0936502 14.1581 0.178787 14.2858C0.34906 15.2394 0.647038 16.1588 1.04718 17.0442C1.14083 17.2401 1.22597 17.4444 1.31962 17.6402C1.30259 17.6572 1.27705 17.6572 1.26002 17.6402Z" fill="#FEBFA8"/>
<path d="M14.8223 23.6935C14.7202 23.7786 14.601 23.8042 14.4733 23.8127C14.3456 23.8212 14.2264 23.8638 14.1583 23.9915H13.375C13.4772 23.9063 13.5964 23.8723 13.7241 23.8723C13.9369 23.8723 14.1327 23.8212 14.32 23.7616C14.4818 23.7105 14.6435 23.685 14.8138 23.6935H14.8223Z" fill="#FEBFA8"/>
<path d="M0.187332 14.2773C0.0681405 14.1581 0.13625 13.9708 0.00854492 13.8601V13.3237C0.0936815 13.3833 0.110709 13.4855 0.110709 13.5536C0.110709 13.8005 0.195845 14.0389 0.187332 14.2773Z" fill="#FEBFA8"/>
<path d="M10.1398 24.0001C10.0462 23.8383 9.83333 23.932 9.72266 23.8213C10.0121 23.8298 10.3101 23.8213 10.5655 24.0001H10.1483H10.1398Z" fill="#FEBFA8"/>
<path d="M4.07806 20.1006C3.75454 20.3561 3.73751 20.3731 3.46507 20.0496C3.20115 19.726 2.8606 19.4706 2.68182 19.079C2.61371 18.9343 2.44343 18.8321 2.34978 18.6959C1.82194 17.8871 1.3622 17.0528 1.03017 16.1333C0.817325 15.5458 0.655566 14.9414 0.527861 14.3284C0.383129 13.6558 0.272451 12.9832 0.297992 12.2936C0.297992 12.0808 0.297992 11.8765 0.297992 11.6636C0.297992 10.9655 0.383129 10.2844 0.536375 9.6033C0.766243 8.54761 1.10679 7.53449 1.6091 6.58096C2.00072 5.84027 2.46046 5.15066 3.01385 4.52065C3.28629 4.21416 3.53318 3.89064 3.82265 3.60118C4.12062 3.29468 4.49522 3.07333 4.80172 2.77535C5.4147 2.20494 6.17242 1.86439 6.89608 1.46425C7.43244 1.16627 8.01988 0.970456 8.61584 0.800183C9.07557 0.663965 9.53531 0.544774 10.0036 0.476664C10.2505 0.44261 10.4974 0.408555 10.7357 0.3745C11.1103 0.314905 11.4935 0.323418 11.8681 0.323418C12.4385 0.323418 13.0174 0.323418 13.5878 0.417069C14.0646 0.502205 14.5413 0.578828 15.0181 0.698019C15.6226 0.851265 16.2015 1.08113 16.7719 1.32803C17.2317 1.52384 17.6914 1.72817 18.0915 2.00912C18.5342 2.31561 19.011 2.59657 19.4197 2.96265C19.6836 3.20103 19.9731 3.41388 20.2285 3.66929C20.569 4.00132 20.8755 4.36741 21.1735 4.74201C21.6077 5.28688 21.9397 5.89135 22.3313 6.46177C22.4676 6.65758 22.5272 6.91299 22.6208 7.14286C22.8081 7.56854 23.038 7.9772 23.1572 8.43693C23.2678 8.87113 23.3785 9.29681 23.4551 9.73952C23.5232 10.1056 23.5828 10.4802 23.651 10.8463C23.668 10.9655 23.685 11.0847 23.685 11.2039C23.685 11.5955 23.685 11.9871 23.685 12.3702C23.702 13.0769 23.5658 13.7665 23.4381 14.4646C23.3274 15.0946 23.0976 15.6906 22.9018 16.2865C22.7826 16.6441 22.6038 16.9761 22.4335 17.3082C22.2462 17.6657 22.0504 18.0318 21.829 18.3724C21.6673 18.6278 21.4544 18.8406 21.3097 19.096C21.0798 19.5132 20.7137 19.8197 20.3987 20.1517C20.0412 20.5434 19.658 20.9265 19.2153 21.233C18.6194 21.6501 18.0319 22.0673 17.3849 22.4164C17.0358 22.6037 16.6612 22.7484 16.2952 22.8931C15.7503 23.106 15.1969 23.3103 14.618 23.421C14.1412 23.5061 13.6729 23.6168 13.1877 23.6594C12.6002 23.7104 12.0128 23.6849 11.4253 23.7019C10.9826 23.7189 10.5569 23.6338 10.1228 23.5742C9.53531 23.4891 8.95638 23.3443 8.38597 23.1656C7.70487 22.9442 7.04081 22.6718 6.41931 22.3227C6.12133 22.1609 5.85741 21.9396 5.5424 21.8204C5.44024 21.7778 5.34659 21.6842 5.26145 21.599C4.96348 21.3096 4.55482 21.1563 4.27387 20.8328C4.16319 20.7051 4.11211 20.654 4.25684 20.5434C4.29941 20.5093 4.33347 20.4497 4.36752 20.4071C4.39306 20.339 4.44414 20.305 4.51225 20.305C4.63144 20.3135 4.70807 20.3901 4.7932 20.4667C6.21498 21.7012 7.85812 22.4845 9.68856 22.8676C12.2937 23.421 14.7627 23.0549 17.1295 21.8289C18.6364 21.0457 19.8879 19.9729 20.901 18.6108C22.1015 17.0017 22.7911 15.1968 23.0209 13.2131C23.1486 12.1233 23.0891 11.0421 22.8847 9.96939C22.4335 7.56003 21.3012 5.51675 19.5133 3.85659C18.0319 2.47737 16.2866 1.58344 14.3115 1.15776C12.8301 0.834238 11.3317 0.825724 9.85032 1.11519C7.95177 1.48979 6.25755 2.29859 4.78469 3.56712C3.41399 4.75052 2.3583 6.15527 1.69423 7.84949C1.3622 8.69234 1.13233 9.56074 0.996112 10.4462C0.740702 12.1915 0.902462 13.9112 1.47288 15.5884C1.68572 16.2269 1.95816 16.8314 2.28167 17.4188C2.36681 17.5721 2.45195 17.7424 2.65628 17.7764C2.77547 17.819 2.85209 17.9126 2.9202 18.0148C3.2948 18.5682 3.73751 19.0705 4.18022 19.5728C4.41009 19.8367 4.37603 19.9644 4.06103 20.1092L4.07806 20.1006Z" fill="#FEC1A7"/>
<path d="M4.50374 20.3391C4.50374 20.3391 4.42711 20.3817 4.38454 20.3987C4.30792 20.2796 4.20576 20.1774 4.08657 20.1008C4.30792 19.8198 4.29941 19.8283 4.05251 19.5559C3.56723 19.0025 3.08195 18.4576 2.70735 17.8191C2.78398 17.4956 2.62222 17.2317 2.47749 16.9592C1.49841 15.1288 1.13233 13.1536 1.28557 11.1018C1.41328 9.43315 1.9241 7.84961 2.81803 6.41932C3.40547 5.48281 4.05251 4.60591 4.91239 3.89076C6.34269 2.69885 7.94325 1.84748 9.77369 1.4814C10.9741 1.24301 12.1745 1.19193 13.409 1.34518C15.5119 1.6091 17.3423 2.44344 18.9514 3.7886C20.2029 4.82726 21.1309 6.11283 21.812 7.58569C22.5527 9.20328 22.8422 10.8975 22.74 12.6598C22.6378 14.4903 22.0759 16.193 21.0969 17.7425C20.0412 19.4197 18.6024 20.6967 16.8315 21.5907C15.1203 22.459 13.2983 22.8336 11.3828 22.7145C9.04151 22.5612 6.94715 21.7609 5.14226 20.2455C5.01455 20.1348 4.90388 20.0667 4.75915 20.2114C4.69104 20.2796 4.59739 20.2966 4.51225 20.3221L4.50374 20.3391Z" fill="#FEC4A6"/>
<path d="M16.0824 23.3358C15.8355 23.5146 15.529 23.5316 15.2566 23.6338C15.1204 23.6849 14.9756 23.7189 14.8224 23.7019C15.1119 23.5572 15.4269 23.4805 15.7333 23.4124C15.844 23.3869 15.9547 23.2847 16.0824 23.3443V23.3358Z" fill="#FEBFA8"/>
<path d="M1.26013 17.6404H1.31973C1.43892 17.7766 1.51554 17.9469 1.55811 18.1171C1.34527 18.032 1.32824 17.8192 1.26013 17.6404Z" fill="#FEBEA8"/>
<path d="M4.50379 20.339C4.58041 20.2028 4.70811 20.1176 4.80176 20.007C4.8869 19.9048 4.96352 19.9303 5.04866 20.007C5.61908 20.5944 6.30868 21.0201 7.01532 21.3947C7.54316 21.6756 8.11358 21.8885 8.68399 22.0928C9.27143 22.2971 9.88442 22.3652 10.4719 22.5355C10.4974 22.5355 10.5315 22.5525 10.557 22.5525C11.2892 22.6292 12.0299 22.6462 12.7705 22.6036C13.1622 22.5781 13.5538 22.5355 13.9454 22.4504C14.5499 22.3227 15.1373 22.1694 15.7163 21.9566C16.3463 21.7182 16.9508 21.4202 17.5297 21.0712C18.4151 20.5433 19.1984 19.8878 19.8965 19.1215C20.1774 18.815 20.4328 18.483 20.6712 18.1425C20.9862 17.6912 21.2672 17.223 21.5141 16.7377C21.8631 16.0396 22.1441 15.3244 22.3144 14.5667C22.3825 14.2687 22.4421 13.9623 22.5017 13.6643C22.5783 13.2556 22.6123 12.8385 22.6208 12.4213C22.6208 12.2255 22.6208 12.0211 22.6208 11.8253C22.6038 11.0591 22.5357 10.3014 22.3399 9.56069C22.2037 9.03285 22.0589 8.505 21.8461 8.00269C21.4885 7.15133 21.0373 6.35105 20.4669 5.61036C20.0582 5.074 19.6155 4.5802 19.1302 4.12898C18.5598 3.59262 17.9128 3.1414 17.2232 2.74977C16.7464 2.48584 16.2441 2.25598 15.7333 2.06016C15.1118 1.81327 14.4733 1.62597 13.8177 1.5238C12.9323 1.38758 12.0384 1.35353 11.1359 1.3961C10.8465 1.41312 10.574 1.49826 10.2846 1.5238C9.78225 1.57488 9.28846 1.69407 8.8117 1.85583C8.25831 2.04313 7.69641 2.22192 7.18559 2.50287C6.64071 2.80936 6.0703 3.07329 5.61056 3.516C5.38069 3.73735 5.09974 3.8906 4.85285 4.08641C4.49527 4.37588 4.19729 4.72494 3.89932 5.074C3.68648 5.32089 3.50769 5.59333 3.30336 5.84874C3.08201 6.12118 2.92025 6.42767 2.74997 6.73416C2.26469 7.60255 1.88158 8.52203 1.66023 9.5011C1.49847 10.2503 1.33671 10.991 1.37076 11.7657C1.38779 12.2766 1.35373 12.7789 1.43887 13.2897C1.51549 13.7409 1.59212 14.1836 1.69428 14.6263C1.83901 15.2478 2.06037 15.8438 2.32429 16.4227C2.44348 16.6866 2.57119 16.942 2.71592 17.1889C2.91173 17.5295 2.92025 17.5295 2.69038 17.8104C2.49456 17.9296 2.49456 17.9296 2.37537 17.7593C2.09442 17.3337 1.88158 16.8739 1.67725 16.4142C1.4559 15.9034 1.29414 15.3755 1.13238 14.8392C1.01319 14.4475 0.953592 14.0474 0.893996 13.6473C0.800346 12.9662 0.732237 12.2851 0.774805 11.5955C0.817373 10.8037 0.893996 10.0119 1.13238 9.2542C1.16643 9.15204 1.16643 9.04136 1.20049 8.93068C1.47292 7.99418 1.82198 7.09173 2.3328 6.24888C2.8266 5.44008 3.42255 4.70791 4.06959 4.0183C4.3846 3.67776 4.78474 3.41383 5.1338 3.11586C5.4488 2.85193 5.78935 2.62206 6.12989 2.40922C6.51301 2.17084 6.92167 1.96651 7.33883 1.77921C7.61127 1.66002 7.89222 1.55786 8.16466 1.43867C8.57331 1.25988 9.01603 1.18326 9.45022 1.07258C10.0121 0.927846 10.574 0.851223 11.153 0.817168C11.4765 0.800141 11.8085 0.749059 12.132 0.7746C12.8983 0.825682 13.673 0.842709 14.4307 1.03001C15.4864 1.29393 16.508 1.66002 17.4616 2.19638C18.0916 2.55395 18.6875 2.96261 19.2494 3.43086C19.5559 3.68627 19.8369 3.96722 20.1178 4.25669C20.5776 4.73345 20.9777 5.26981 21.3523 5.81468C21.795 6.46172 22.1356 7.15984 22.425 7.87499C22.706 8.5646 22.8933 9.27974 23.0295 10.0204C23.1998 10.9484 23.2423 11.8764 23.1913 12.8129C23.1657 13.3322 23.0465 13.8516 22.9444 14.3624C22.7826 15.1882 22.5102 15.963 22.1356 16.7207C21.9227 17.1464 21.7184 17.5806 21.48 17.9892C21.2587 18.3638 21.0033 18.7299 20.7138 19.0449C20.4073 19.3769 20.1434 19.743 19.8028 20.0325C19.3857 20.3901 19.0025 20.7732 18.5428 21.0797C18.2023 21.301 17.8702 21.5479 17.5212 21.7352C16.6528 22.195 15.7588 22.6036 14.7968 22.8335C14.1668 22.9867 13.5368 23.0804 12.8983 23.1825C12.5832 23.2336 12.2597 23.1825 11.9362 23.1911C11.3488 23.2081 10.7698 23.1144 10.1909 23.0293C9.6886 22.9527 9.19481 22.842 8.70953 22.6973C7.90074 22.4674 7.15153 22.1098 6.41085 21.7097C5.91705 21.4458 5.49137 21.0882 5.03163 20.7817C4.82731 20.6455 4.70811 20.4326 4.49527 20.3049L4.50379 20.339Z" fill="#FEC3A7"/>
<path d="M1.73679 12.0469C1.78787 10.1909 2.1795 8.45413 3.12451 6.87059C4.06101 5.29556 5.30401 4.02703 6.90457 3.10755C8.50514 2.18808 10.2249 1.73686 12.0468 1.75388C14.635 1.77091 16.9422 2.6393 18.8577 4.39312C21.1394 6.47896 22.2888 9.12671 22.2377 12.2087C22.1866 15.0096 21.1309 17.4275 19.0961 19.3772C17.0614 21.3268 14.5924 22.3059 11.7744 22.2463C8.94785 22.1867 6.51295 21.0969 4.55481 19.0451C2.69883 17.087 1.80489 14.7117 1.72827 12.0554L1.73679 12.0469Z" fill="#FEC6A5"/>
<path d="M11.6808 2.63062C14.6181 2.64764 16.8827 3.60117 18.7302 5.47418C20.5095 7.27907 21.3779 9.51816 21.3694 12.0467C21.3694 14.7711 20.3052 17.0698 18.3045 18.9172C16.3974 20.6796 14.1157 21.4543 11.5446 21.3521C9.06715 21.25 6.92171 20.2709 5.22749 18.483C3.363 16.5164 2.47758 14.1326 2.65637 11.4082C2.82664 8.8541 3.88233 6.70014 5.79791 4.99741C7.55172 3.43941 9.62905 2.67318 11.6894 2.63913L11.6808 2.63062Z" fill="#FECAA3"/>
<path d="M20.7053 11.4763C20.8585 14.0814 19.9901 16.312 18.1852 18.1595C16.5761 19.8026 14.5584 20.6455 12.2682 20.7476C11.0167 20.7987 9.79927 20.5603 8.62439 20.0751C7.61126 19.6579 6.71733 19.0449 5.93407 18.3042C5.09122 17.5039 4.45269 16.5419 3.98444 15.4777C3.53322 14.4475 3.2693 13.3578 3.26078 12.251C3.24375 9.91826 3.99296 7.84944 5.58501 6.11266C7.29626 4.24817 9.45021 3.30315 11.9532 3.27761C14.2519 3.26058 16.2782 4.06087 17.9724 5.65292C19.6581 7.23646 20.5435 9.1946 20.7053 11.4848V11.4763Z" fill="#FECAA3"/>
<path d="M4.86131 7.262C4.9805 7.08321 5.0997 6.90442 5.21889 6.72564C5.69565 6.19779 6.19796 5.704 6.71729 5.22723C6.81945 5.16764 6.9131 5.10804 7.01527 5.04845C7.2196 4.91223 7.4069 4.75047 7.61122 4.63128L8.20718 4.3333C8.70097 4.07789 9.22031 3.89059 9.76518 3.74586C10.8038 3.47342 11.851 3.3968 12.9237 3.49896C13.9454 3.59261 14.8989 3.93316 15.8269 4.3333C16.176 4.57168 16.5676 4.74196 16.9081 4.99737C17.4019 5.32088 17.8532 5.68697 18.2448 6.12968C18.679 6.60645 19.0536 7.12578 19.3941 7.67917C19.7176 8.1985 19.939 8.7604 20.1348 9.33082C20.271 9.73096 20.3732 10.1396 20.4498 10.5653C20.569 11.2208 20.586 11.8764 20.552 12.5234C20.5179 13.2641 20.3902 13.9963 20.1178 14.7029C20.0412 14.9073 20.0071 15.1286 19.9135 15.3244C19.641 15.9544 19.3005 16.5419 18.8748 17.0953C18.6109 17.4443 18.3555 17.7934 18.0405 18.0999C17.7765 18.3553 17.4956 18.5937 17.1891 18.798C17.0103 18.9427 16.823 19.0704 16.6527 19.2152C16.6102 19.2322 16.5761 19.2577 16.5335 19.2748C16.2866 19.4365 16.0312 19.5898 15.7503 19.6919C15.58 19.7515 15.4438 19.8878 15.2735 19.9303C13.9454 20.4837 12.5491 20.6625 11.1274 20.5518C10.1142 20.4667 9.14368 20.1687 8.22421 19.7175C8.11353 19.6664 8.01137 19.6238 7.90069 19.5727C7.62825 19.3769 7.33027 19.2237 7.05784 19.0364C6.87905 18.8917 6.70026 18.7554 6.52148 18.6192C6.38526 18.5341 6.30012 18.3979 6.1639 18.3212C6.14688 18.3042 6.12134 18.2787 6.10431 18.2616C5.94255 18.1425 5.79782 18.0062 5.68714 17.8445C5.62754 17.8189 5.58497 17.7849 5.56795 17.7253C5.44876 17.5635 5.33808 17.4018 5.21037 17.2485C4.93794 16.9591 4.71658 16.644 4.54631 16.2865C3.87373 15.0179 3.44805 13.6813 3.43102 12.2255C3.41399 11.1187 3.57575 10.046 3.97589 9.01581C4.20576 8.41134 4.48671 7.83241 4.8528 7.28754L4.86131 7.262Z" fill="#FECAA3"/>
<path d="M4.86141 7.26221C4.86141 7.35586 4.7933 7.39843 4.75925 7.47505C4.42722 8.12209 4.06964 8.7521 3.8568 9.45873C3.71207 9.94401 3.6099 10.4378 3.54179 10.9401C3.44814 11.6127 3.46517 12.2853 3.53328 12.9664C3.60139 13.6134 3.76315 14.2349 3.95896 14.8479C4.1037 15.2906 4.34208 15.6992 4.52087 16.1334C4.53789 16.176 4.54641 16.2271 4.56343 16.2782C4.50384 16.2526 4.46978 16.2101 4.44424 16.1505C4.22289 15.6311 3.94194 15.1288 3.78869 14.584C3.57585 13.8347 3.39706 13.0855 3.4226 12.3023C3.4226 12.0724 3.4226 11.8426 3.4226 11.6127C3.4226 10.5825 3.69504 9.61198 4.07816 8.66696C4.23991 8.25831 4.46127 7.8837 4.6656 7.49208C4.71668 7.39843 4.76776 7.3218 4.86141 7.27923V7.26221Z" fill="#FECAA3"/>
<path d="M15.8354 4.32494C15.546 4.32494 15.3161 4.13764 15.0522 4.05251C14.3285 3.80561 13.6134 3.57574 12.8301 3.53317C12.43 3.51614 12.0383 3.47358 11.6382 3.4906C10.7868 3.53317 9.94397 3.66088 9.14369 3.97588C8.88828 4.07805 8.61584 4.15467 8.38597 4.2994C8.3434 4.32494 8.27529 4.32494 8.2157 4.33346C8.63287 4.00994 9.14369 3.89075 9.63748 3.7375C10.3271 3.52466 11.0337 3.47358 11.7489 3.42249C12.9323 3.33736 14.0476 3.60128 15.1458 3.99291C15.3842 4.07805 15.6311 4.1717 15.8354 4.32494Z" fill="#FECAA3"/>
<path d="M7.91772 19.5559C8.00286 19.5559 8.088 19.5559 8.17313 19.607C8.90531 20.0071 9.68857 20.2285 10.4974 20.3987C11.2551 20.5605 12.0298 20.5605 12.7875 20.4924C13.5112 20.4243 14.2349 20.2881 14.9245 20.0071C15.0437 19.956 15.1628 19.9049 15.2991 19.9135C15.282 19.9305 15.2565 19.9645 15.2395 19.973C14.7031 20.1774 14.1497 20.3391 13.5878 20.4583C12.7875 20.6286 11.9873 20.552 11.1785 20.569C10.9656 20.569 10.7698 20.5094 10.5655 20.4754C9.67154 20.3306 8.82017 20.0412 8.01137 19.624C7.97732 19.607 7.95178 19.5729 7.91772 19.5474V19.5559Z" fill="#FECAA3"/>
<path d="M6.72582 5.21883C6.24906 5.74668 5.74675 6.24047 5.22742 6.71724C5.22742 6.62359 5.2785 6.5725 5.33809 6.51291C5.72972 6.12128 6.12986 5.72114 6.52149 5.32951C6.58109 5.26992 6.63217 5.21032 6.72582 5.21883Z" fill="#FECAA3"/>
<path d="M16.9167 4.98047C16.5421 4.78466 16.1505 4.61438 15.8354 4.31641C16.2101 4.51222 16.6187 4.65695 16.9167 4.98047Z" fill="#FECAA3"/>
<path d="M7.08337 19.0195C7.38987 19.1557 7.69636 19.3005 7.92623 19.5559C7.61974 19.4197 7.32176 19.2664 7.08337 19.0195Z" fill="#FECAA3"/>
<path d="M15.7759 19.675C16.0228 19.5132 16.2782 19.36 16.5591 19.2578C16.3463 19.4792 16.0909 19.6324 15.7759 19.675Z" fill="#FECAA3"/>
<path d="M7.61976 4.6228C7.44097 4.79308 7.26219 4.96335 7.0238 5.03997C7.18556 4.84416 7.37286 4.6824 7.61976 4.6228Z" fill="#FECAA3"/>
<path d="M16.6783 19.1982C16.8146 19.0024 17.0019 18.8747 17.2147 18.781C17.0785 18.9768 16.8912 19.1045 16.6783 19.1982Z" fill="#FECAA3"/>
<path d="M6.53857 18.6023C6.75142 18.6959 6.94723 18.8236 7.07494 19.0195C6.86209 18.9258 6.66628 18.7981 6.53857 18.6023Z" fill="#FECAA3"/>
<path d="M5.70422 17.8191C5.86598 17.9383 6.01072 18.0745 6.12139 18.2363C5.90855 18.1682 5.77233 18.0234 5.70422 17.8191Z" fill="#FECAA3"/>
<path d="M5.21887 17.2231C5.39766 17.3338 5.51685 17.5041 5.57645 17.6999C5.40617 17.5722 5.29549 17.4104 5.21887 17.2231Z" fill="#FECAA3"/>
<path d="M6.18103 18.2959C6.35982 18.3214 6.44495 18.4662 6.5386 18.5939C6.35982 18.5683 6.27468 18.4236 6.18103 18.2959Z" fill="#FECAA3"/>
<path d="M11.3998 20.2285C9.55234 20.1945 7.50906 19.3005 5.88296 17.5297C4.43563 15.9632 3.729 14.0391 3.74603 11.9277C3.76306 9.81633 4.51226 7.9263 5.97661 6.3683C7.60271 4.63151 9.65451 3.74609 11.9958 3.74609C14.2263 3.74609 16.21 4.55489 17.8106 6.15546C19.5644 7.90927 20.3732 10.0547 20.22 12.5322C20.0922 14.618 19.2664 16.4229 17.7765 17.8788C16.176 19.4538 14.2263 20.2285 11.4083 20.2285H11.3998Z" fill="#FECCA2"/>
<path d="M19.6837 12.8983V13.1452C19.6411 13.5538 19.4112 13.8092 19.0622 14.005C17.8021 14.7202 16.5592 15.4694 15.2991 16.1675C14.4222 16.6528 13.5028 16.6954 12.6003 16.2356C11.451 15.6397 10.3272 14.9841 9.18633 14.3541C7.78157 13.5709 6.36831 12.7961 4.97207 12.0129C4.83585 11.9362 4.69963 11.8511 4.58044 11.7404C4.41868 11.5872 4.29949 11.4084 4.32503 11.17C4.308 10.9061 4.308 10.6336 4.43571 10.3867C4.42719 10.1228 4.59747 9.97809 4.77625 9.84187C4.99761 9.71417 5.21045 9.57795 5.43181 9.45875C5.551 9.39065 5.6787 9.32254 5.80641 9.45024C5.9256 9.71417 5.866 10.0036 5.90857 10.2761C5.90857 10.3101 5.90006 10.3357 5.89154 10.3697C5.80641 10.557 5.61059 10.6081 5.46586 10.7188C5.27856 10.8635 5.27005 10.9572 5.46586 11.0764C5.72127 11.2296 5.96817 11.3914 6.2406 11.5191C7.46657 12.2002 8.69254 12.8727 9.9185 13.5538C10.0888 13.656 10.2505 13.7837 10.4378 13.8518C11.2466 14.286 12.0554 14.7287 12.8472 15.1884C13.5368 15.5886 14.2094 15.5716 14.8905 15.1884C15.7504 14.6947 16.6102 14.2094 17.4616 13.6986C17.8277 13.5198 18.1767 13.3069 18.5173 13.0941C18.7301 12.9664 18.7216 12.8557 18.5088 12.7195C18.3215 12.5918 18.1172 12.4896 17.9213 12.3704C17.8192 12.3108 17.7255 12.2342 17.6744 12.115C17.6063 11.7745 17.4701 11.451 17.5297 11.0934C17.6404 10.9742 17.7511 11.0423 17.8447 11.0934C18.1257 11.2466 18.4151 11.3999 18.6876 11.5787C19.0111 11.766 19.3516 11.9277 19.5815 12.2342C19.7347 12.4385 19.7688 12.6684 19.6837 12.9153V12.8983Z" fill="#EAEFF0"/>
<path d="M4.32495 11.1613C4.49522 11.6466 4.92091 11.8594 5.32956 12.0808C6.69175 12.83 8.05393 13.5792 9.4076 14.3369C10.4888 14.9329 11.5701 15.5373 12.6513 16.1333C13.0344 16.3461 13.4601 16.4313 13.8858 16.4313C14.3711 16.4313 14.8308 16.3121 15.2565 16.0652C16.525 15.333 17.785 14.5923 19.0621 13.8687C19.3686 13.6984 19.5389 13.4345 19.6751 13.1365C19.6751 13.2131 19.6751 13.2982 19.6751 13.3749C19.7176 13.741 19.607 14.056 19.3686 14.3284C19.2324 14.6434 18.9174 14.7285 18.6705 14.8988C18.2192 15.0776 17.8446 15.3756 17.4275 15.6054C16.6698 16.0226 15.9291 16.4909 15.1628 16.891C14.2859 17.3422 13.4005 17.3337 12.5491 16.8655C10.1568 15.5544 7.77298 14.2347 5.39767 12.8981C5.33808 12.864 5.27848 12.8385 5.20186 12.8215C4.88685 12.6853 4.62293 12.4894 4.40157 12.2255C4.13765 11.902 4.26536 11.5529 4.31644 11.2039C4.31644 11.1869 4.31644 11.1613 4.31644 11.1443L4.32495 11.1613Z" fill="#B6B6C7"/>
<path d="M4.31648 11.2209C4.31648 11.3146 4.32499 11.4167 4.31648 11.5104C4.29094 11.7743 4.35905 12.0127 4.50378 12.234C4.56338 12.8811 4.64851 13.5196 4.83581 14.1411C5.18487 15.2819 5.7638 16.2951 6.60665 17.1634C7.72194 18.3128 9.05859 19.0365 10.6166 19.3429C11.3232 19.4792 12.0299 19.5898 12.7535 19.4196C13.375 19.4706 13.8858 19.1982 14.3967 18.8832C14.8479 18.5937 15.3161 18.3213 15.8014 18.0829C16.193 17.8871 16.3378 17.6147 16.2782 17.206C16.2697 16.9932 15.9887 16.9591 15.9802 16.7378C16.0057 16.6015 16.1249 16.5505 16.2271 16.4909C16.4229 16.3717 16.6187 16.261 16.823 16.1503C17.3764 15.8438 17.8958 15.5033 18.347 15.0606C18.4406 14.9669 18.5598 14.8818 18.6875 14.8307C18.8833 14.6264 19.1643 14.5327 19.3771 14.3454C19.4197 14.4731 19.3857 14.5923 19.3431 14.72C19.0962 15.4352 18.7301 16.0737 18.2789 16.6697C18.049 16.9676 17.8362 17.2826 17.5637 17.5381C17.3935 17.6998 17.2232 17.8701 17.0359 18.0148C16.2356 18.6533 15.3587 19.1556 14.3796 19.4707C13.9625 19.6069 13.5368 19.7005 13.1026 19.7431C12.728 19.7857 12.3619 19.8623 11.9788 19.8623C11.5275 19.8623 11.0934 19.7771 10.6506 19.7175C9.85887 19.6154 9.10967 19.3259 8.39452 18.9769C8.06249 18.8151 7.73046 18.6278 7.44099 18.3724C7.10896 18.0914 6.73436 17.8701 6.41935 17.5551C6.11286 17.2571 5.91705 16.891 5.65312 16.5675C5.32961 16.1674 5.09122 15.7246 4.87838 15.2649C4.54635 14.5583 4.32499 13.8261 4.25688 13.0428C4.23134 12.7193 4.11215 12.3958 4.14621 12.0723C4.18026 11.7828 4.12067 11.4763 4.31648 11.2124V11.2209Z" fill="#FECDA1"/>
<path d="M8.34344 5.27851C8.71804 4.63999 9.29697 4.38458 9.96103 4.55485C10.1058 4.45269 10.2335 4.51228 10.3612 4.59742C10.7188 4.76769 10.9231 5.07419 11.0763 5.42324C11.187 5.68717 11.17 5.96812 11.1615 6.24907C10.8635 7.05787 10.3867 7.44098 9.67157 7.4495C8.85426 7.45801 8.26682 6.98124 8.11357 6.17245C8.08803 5.98515 8.07952 5.79785 8.1306 5.61906C8.17317 5.49135 8.19019 5.34662 8.33493 5.28703L8.34344 5.27851Z" fill="#FA3A2F"/>
<path d="M10.3186 4.67391C10.1994 4.63985 10.0888 4.55472 9.96106 4.5462C9.96106 4.45255 10.0121 4.40147 10.1058 4.37593C10.4974 4.29931 10.8805 4.20566 11.2807 4.19714C11.7234 4.18863 12.1576 4.19714 12.6003 4.19714C13.1452 4.19714 13.6815 4.30782 14.2094 4.46107C15.0182 4.69945 15.7759 5.05702 16.457 5.53379C17.0019 5.9169 17.5042 6.3511 17.9213 6.88746C18.049 7.04922 18.2363 7.17692 18.347 7.3472C18.6961 7.93464 19.0962 8.48803 19.3005 9.15209C19.3942 9.45007 19.5389 9.73953 19.607 10.0545C19.7007 10.4802 19.7858 10.9059 19.8028 11.3401C19.8199 11.7402 19.8028 12.1404 19.8028 12.5405C19.8028 12.6767 19.8028 12.8045 19.6837 12.8981C19.6922 12.6597 19.607 12.4469 19.4964 12.2425C19.5389 10.5824 19.0962 9.04993 18.1427 7.70477C17.3594 6.598 16.3378 5.72109 15.0693 5.15919C14.1668 4.75904 13.2303 4.5462 12.2597 4.52066C11.6127 4.50363 10.9657 4.56323 10.3271 4.68242L10.3186 4.67391Z" fill="#FECDA1"/>
<path d="M8.34341 5.27836C8.31787 5.38904 8.29233 5.4912 8.22422 5.58485C7.42394 6.07013 6.73433 6.69163 6.14689 7.41529C5.6531 8.03678 5.26998 8.71788 4.99755 9.46708C4.94646 9.62032 4.9039 9.77357 4.79322 9.89276C4.69957 10.0715 4.47821 10.1567 4.42713 10.3695C4.30794 10.1822 4.42713 10.0034 4.4697 9.83317C4.69106 8.9818 5.07417 8.19854 5.5935 7.4834C5.98513 6.93852 6.43635 6.47027 6.93866 6.01905C7.30475 5.68702 7.73043 5.45715 8.12206 5.16768C8.2753 5.057 8.29233 5.07403 8.3349 5.26133L8.34341 5.27836Z" fill="#FECDA1"/>
<path d="M17.5807 11.0422C17.6488 11.3998 17.7425 11.7574 17.768 12.1235C17.8191 12.2341 17.8787 12.3363 17.8276 12.464C17.6914 12.7194 17.4786 12.7194 17.2317 12.6683C16.9082 12.6002 16.84 12.6343 16.7038 12.9408C16.6698 13.0259 16.6442 13.111 16.6102 13.1877C16.3888 13.7155 15.9546 13.8858 15.4438 13.6304C14.8819 13.3494 14.7542 13.3409 14.32 13.7836C13.5623 14.5413 12.2682 14.2434 11.7318 13.4516C11.6297 13.3069 11.5445 13.1451 11.4594 12.9919C11.3572 12.796 11.204 12.7535 11.0082 12.8301C10.9145 12.8642 10.8294 12.9152 10.7357 12.9578C10.3782 13.1196 10.242 13.077 9.99506 12.762C9.91844 12.1745 9.90992 11.5871 10.1483 11.0337C10.1653 10.8124 10.2845 10.6165 10.3867 10.4292C10.7868 9.70559 11.3402 9.13517 12.0809 8.76057C12.2086 8.70097 12.3278 8.62435 12.481 8.67543C12.6088 8.74354 12.6343 8.87125 12.6854 8.99044C12.9152 9.51828 13.3154 9.80775 13.8858 9.81626C14.4477 9.81626 14.8478 9.55234 15.0947 9.04152C15.1458 8.92233 15.1714 8.79462 15.265 8.70097C15.4183 8.60732 15.5545 8.70097 15.6822 8.76057C16.2271 9.01598 16.6357 9.43315 17.0273 9.87586C17.2232 10.1228 17.3934 10.3952 17.5211 10.6847C17.5722 10.8038 17.6148 10.923 17.5722 11.0593L17.5807 11.0422Z" fill="#835300"/>
<path d="M12.4726 8.70091C11.8085 8.92227 11.3062 9.35646 10.872 9.88431C10.5996 10.2163 10.3867 10.5824 10.259 10.9911C10.1228 11.1018 10.0632 11.2635 9.9355 11.3827C9.2544 11.9787 8.06249 11.7999 7.47505 10.9996C7.35586 10.8378 7.27072 10.6591 7.16856 10.4888C7.05788 10.3015 6.92166 10.2504 6.71733 10.344C6.5726 10.4122 6.43638 10.4973 6.27462 10.5313C6.07881 10.5739 5.89151 10.5739 5.8234 10.3185C5.73826 10.029 5.78083 9.73107 5.7638 9.43309C5.65313 9.33944 5.67015 9.22025 5.69569 9.10105C5.97664 7.78995 6.70031 6.82791 7.90924 6.23195C8.00289 6.18087 8.11357 6.1383 8.21574 6.21493C8.36047 6.75129 8.67547 7.1344 9.22035 7.30467C9.9355 7.52603 10.7102 7.1344 10.9656 6.43628C10.9912 6.35966 10.9912 6.27452 11.0763 6.23195C11.1615 6.17236 11.2551 6.18938 11.3317 6.23195C11.9107 6.52142 12.43 6.87899 12.7876 7.43238C12.8216 7.48346 12.8387 7.54306 12.8472 7.60265C12.7109 7.96874 12.6599 8.36888 12.4726 8.71794V8.70091Z" fill="#583800"/>
<path d="M12.7875 7.57722C12.3448 6.95572 11.7829 6.49599 11.0763 6.21504C11.0082 5.95111 11.0678 5.67868 10.9741 5.41475C10.9741 5.16786 11.187 5.16786 11.3317 5.14232C11.7489 5.06569 12.1745 5.06569 12.5832 5.12529C13.673 5.27002 14.7116 5.55097 15.6481 6.16395C17.2572 7.22816 18.3214 8.684 18.7386 10.5825C18.7897 10.8294 18.8237 11.0763 18.8237 11.3232C18.8237 11.4424 18.8663 11.6212 18.6534 11.6467C18.2788 11.4765 17.9383 11.2381 17.5722 11.0508C17.4104 10.6507 17.2061 10.2761 16.9592 9.91848C16.9592 9.7482 16.8315 9.62901 16.7549 9.49279C16.3207 8.70954 15.8099 7.99439 15.0011 7.54317C14.9159 7.5006 14.8393 7.46654 14.7542 7.45803C14.669 7.441 14.5839 7.40695 14.4988 7.36438C14.005 7.11748 13.5367 7.17708 13.094 7.48357C13.0004 7.55168 12.9152 7.66236 12.779 7.58573L12.7875 7.57722Z" fill="#FDD29F"/>
<path d="M18.662 11.638C18.7301 11.5955 18.7216 11.5188 18.7216 11.4507C18.7386 11.1783 18.6705 10.9144 18.6365 10.6504C18.5513 10.0119 18.2874 9.43299 18.0065 8.86258C17.8192 8.48798 17.5808 8.12189 17.3083 7.79837C16.8656 7.27052 16.3804 6.79376 15.8099 6.40213C14.9756 5.84023 14.0646 5.49117 13.0685 5.3209C12.5662 5.23576 12.081 5.22725 11.5872 5.22725C11.3743 5.22725 11.153 5.24427 10.9827 5.41455C10.8209 5.11657 10.6251 4.85264 10.3271 4.68237C10.4634 4.46102 10.7188 4.46953 10.9146 4.46102C11.3318 4.46102 11.7489 4.36737 12.1661 4.38439C12.9408 4.41845 13.7156 4.5121 14.4478 4.77602C15.214 5.04846 15.9376 5.43157 16.6017 5.90834C16.7294 6.00199 16.8316 6.12969 16.9508 6.24037C17.3083 6.54686 17.6063 6.90444 17.9384 7.22795C18.1171 7.40674 18.2619 7.60256 18.3811 7.82391C18.5088 8.06229 18.6535 8.28365 18.7727 8.52203C19.1303 9.22015 19.3601 9.95232 19.5049 10.7186C19.5815 11.1528 19.6496 11.5784 19.6241 12.0211C19.6241 12.1148 19.6581 12.234 19.5049 12.251C19.2665 11.9956 18.943 11.8509 18.662 11.6551V11.638Z" fill="#FECDA1"/>
<path d="M10.0888 12.7618C10.2931 12.9917 10.3697 13.0087 10.6337 12.881C10.7614 12.8214 10.8806 12.7448 11.0083 12.6852C11.2381 12.5916 11.3914 12.6341 11.5191 12.8385C11.5957 12.9577 11.6468 13.0854 11.7149 13.2046C12.1235 13.9197 12.7961 14.1751 13.5709 14.0815C13.8263 14.0474 14.0221 13.8857 14.2094 13.7069C14.3456 13.5706 14.4818 13.4429 14.6606 13.3578C14.9075 13.2471 15.1374 13.2301 15.3587 13.4174C15.529 13.5536 15.7078 13.6388 15.9377 13.6217C16.2016 13.6132 16.3719 13.494 16.4655 13.2556C16.5251 13.1024 16.5762 12.9321 16.6443 12.7789C16.789 12.4639 16.9082 12.4128 17.2317 12.5235C17.419 12.5916 17.5978 12.6086 17.7681 12.4724C17.8362 12.515 17.8703 12.5831 17.8618 12.6512C17.8277 13.0343 17.8362 13.4344 17.5212 13.7239C17.3765 13.9112 17.1466 13.9793 16.9508 14.0985C16.3208 14.4731 15.6737 14.8392 15.0437 15.2053C14.7287 15.3841 14.4052 15.5288 14.0391 15.5714C13.6475 15.6139 13.2814 15.5032 12.9494 15.3245C12.0895 14.8562 11.2466 14.3709 10.3953 13.8942C10.3187 13.792 10.2165 13.7154 10.1909 13.5792C10.1143 13.4089 10.0547 13.2301 10.0292 13.0428C10.0207 12.9321 9.99513 12.8214 10.1058 12.7448L10.0888 12.7618Z" fill="#FCE594"/>
<path d="M10.0887 12.7619C10.0887 13.0514 10.2079 13.3153 10.259 13.5963C10.1568 13.741 10.0291 13.6559 9.90995 13.6303C9.72265 13.6048 9.59494 13.4771 9.43318 13.3919C8.40303 12.83 7.37288 12.2681 6.35124 11.6977C6.29164 11.6637 6.24056 11.6211 6.18096 11.5785C5.92555 11.3487 5.84042 11.0422 5.77231 10.7186C5.74677 10.5995 5.74677 10.4888 5.81488 10.3781C5.81488 10.3526 5.82339 10.3355 5.8319 10.31C5.97664 10.4888 6.15542 10.4888 6.34272 10.3866C6.47894 10.3185 6.60665 10.2419 6.74287 10.1823C6.95571 10.0886 7.0749 10.1227 7.21112 10.3015C7.29625 10.4122 7.34733 10.5399 7.41544 10.6676C7.78153 11.3487 8.47114 11.6977 9.23737 11.5956C9.5098 11.5615 9.71413 11.4168 9.90995 11.238C10.0206 11.1443 10.0887 10.9911 10.2675 10.9826C10.0887 11.5615 10.0206 12.1575 10.0972 12.7619H10.0887Z" fill="#FEB3AE"/>
<path d="M8.2157 6.19798C7.28771 6.57258 6.61514 7.21111 6.1554 8.09653C5.93404 8.5137 5.82337 8.95641 5.76377 9.42466C5.54241 9.45871 5.38917 9.62047 5.19335 9.72264C5.06565 9.79075 4.94646 9.87588 4.79321 9.90994C4.79321 9.64601 4.88686 9.39912 4.98903 9.16925C5.23592 8.59032 5.52539 8.03693 5.89999 7.53463C6.24905 7.0834 6.64068 6.65772 7.08339 6.29163C7.36434 6.05325 7.64529 5.82338 7.96029 5.63608C8.0284 5.59351 8.10503 5.47432 8.2157 5.59351C8.2157 5.79784 8.2157 6.00217 8.2157 6.2065V6.19798Z" fill="#FECEA1"/>
<path d="M17.5042 13.7411C17.5808 13.4261 17.6915 13.1111 17.734 12.7876C17.7425 12.6854 17.7596 12.5918 17.7596 12.4896L17.7766 12.1235C18.0235 12.2683 18.2704 12.413 18.5173 12.5577C18.5939 12.6003 18.6705 12.6429 18.7386 12.7025C18.8834 12.8302 18.8919 12.9664 18.7301 13.0686C18.3385 13.3154 17.9554 13.5794 17.5127 13.7411H17.5042Z" fill="#B7B6C7"/>
<path d="M5.81493 10.3782C5.87453 10.7953 6.03629 11.187 6.18102 11.5786C5.91709 11.4339 5.65317 11.3062 5.39776 11.1529C5.09127 10.9741 5.09127 10.8039 5.40627 10.6166C5.54249 10.5314 5.67871 10.4548 5.81493 10.3782Z" fill="#B7B7C7"/>
<path d="M9.90991 13.6302C10.0291 13.6217 10.1398 13.6132 10.259 13.5962C10.3271 13.6898 10.3696 13.792 10.3782 13.9112C10.2164 13.8261 10.0461 13.7494 9.90991 13.6302Z" fill="#757E9D"/>
<path d="M18.6875 14.8222C18.1427 15.5033 17.4105 15.9545 16.6528 16.3632C16.4314 16.4824 16.2271 16.6186 16.0142 16.7463C15.9717 16.9081 15.8269 16.9762 15.6992 17.0443C15.3332 17.2486 14.9756 17.4615 14.6095 17.6743C14.005 18.0234 13.392 18.0404 12.7791 17.7339C11.9617 17.3167 11.17 16.8485 10.3697 16.4058C9.72265 16.0482 9.07562 15.6991 8.43709 15.333C7.73046 14.9159 7.0068 14.5328 6.29165 14.1326C5.77232 13.8431 5.36366 13.4515 5.16785 12.8641C5.16785 12.83 5.18487 12.8045 5.21041 12.7875C5.24447 12.7279 5.28704 12.7364 5.33812 12.7619C5.86597 13.0599 6.40233 13.3494 6.93869 13.6473C7.60275 14.0134 8.2583 14.388 8.92237 14.7541C9.96104 15.333 10.9912 15.912 12.0384 16.4824C12.4811 16.7293 12.9153 16.9932 13.4346 17.0698C13.9625 17.1464 14.4733 17.1039 14.9586 16.8825C15.5715 16.6016 16.1249 16.227 16.7039 15.9035C17.2743 15.5799 17.8447 15.2479 18.4151 14.9159C18.5002 14.8648 18.5854 14.8052 18.696 14.8222H18.6875Z" fill="#697497"/>
<path d="M5.21899 12.7791C5.21899 12.7791 5.21899 12.8216 5.2275 12.8387C5.4744 14.8053 6.4109 16.3548 8.01147 17.5212C8.87986 18.1512 9.85042 18.5598 10.9061 18.7557C11.1275 18.7982 11.3573 18.8578 11.5787 18.7471C12.0299 18.8323 12.379 19.1047 12.7451 19.3431C12.7961 19.3772 12.8132 19.4367 12.7961 19.5049C12.3705 19.6155 11.9448 19.6751 11.5021 19.59C11.17 19.5304 10.838 19.5219 10.506 19.4538C9.73123 19.292 9.00757 19.0196 8.31796 18.6365C7.79863 18.3385 7.27929 18.0235 6.86212 17.6063C6.49604 17.2402 6.10441 16.8827 5.83197 16.4229C5.65318 16.1164 5.43183 15.8355 5.27007 15.512C4.90398 14.7713 4.64857 13.9965 4.50384 13.1792C4.46127 12.9323 4.45276 12.6854 4.45276 12.4385C4.45276 12.3704 4.45276 12.2938 4.52087 12.2512C4.71668 12.4811 5.00615 12.5918 5.2275 12.7961L5.21899 12.7791Z" fill="#FECDA1"/>
<path d="M8.46264 15.2393C8.7521 15.35 9.00751 15.5203 9.27995 15.665C10.4719 16.3205 11.6638 16.9931 12.8557 17.6402C13.3665 17.9211 13.9114 17.9041 14.4307 17.6402C14.7117 17.4954 14.9841 17.3166 15.2565 17.1634C15.5034 17.0187 15.7588 16.8824 16.0057 16.7377C16.0483 16.8399 16.1505 16.8654 16.2356 16.908C16.3548 16.9676 16.3889 17.0527 16.3633 17.1719C16.3037 17.3337 16.1845 17.4273 16.0398 17.5039C15.3842 17.87 14.7372 18.2361 14.0987 18.6277C13.4857 19.0023 12.9238 18.9853 12.3023 18.6277C10.8635 17.8019 9.41617 17.0101 7.96033 16.2099C7.8156 16.1247 7.66235 16.0481 7.5687 15.8949C7.53465 15.7927 7.54316 15.682 7.6283 15.6224C7.87519 15.4181 8.10506 15.1967 8.46264 15.2308V15.2393Z" fill="#B6B6C7"/>
<path d="M7.62836 15.9036C9.01608 16.6783 10.4123 17.453 11.8086 18.2278C12.0895 18.381 12.3705 18.5343 12.6514 18.679C13.0175 18.8748 13.4006 18.8833 13.7667 18.679C14.4137 18.3214 15.0523 17.9554 15.6908 17.5808C15.9207 17.4445 16.1505 17.3083 16.3804 17.1636C16.4031 17.612 16.2215 17.9497 15.8355 18.1767C15.2225 18.5258 14.6096 18.8833 14.0051 19.2409C13.7497 19.3857 13.4858 19.4878 13.1963 19.5304C13.0601 19.5474 12.9324 19.4452 12.7961 19.4963C12.7621 19.3942 12.6684 19.3771 12.5918 19.3431C12.2598 19.1558 11.9192 18.977 11.5872 18.7982C11.451 18.8663 11.3318 18.8152 11.2211 18.7471C10.1143 18.0831 8.98203 17.4871 7.86674 16.8401C7.55173 16.6613 7.45808 16.4144 7.53471 16.0824C7.55173 16.0142 7.56876 15.9461 7.63687 15.9121L7.62836 15.9036Z" fill="#697497"/>
<path d="M9.13524 4.92087C9.42471 4.92087 9.62903 5.15925 9.62052 5.44872C9.61201 5.72115 9.38214 5.934 9.11822 5.92548C8.83726 5.92548 8.62442 5.67859 8.63294 5.38912C8.64145 5.11668 8.86281 4.90384 9.13524 4.91236V4.92087Z" fill="#EAEEEF"/>
<path d="M12.7876 7.57708C12.7876 7.57708 12.8727 7.53451 12.9068 7.50046C13.358 7.04924 14.0731 6.93004 14.7031 7.3387C14.7372 7.36424 14.7712 7.38127 14.8053 7.3983C15.3246 7.67073 15.546 8.24115 15.3076 8.70089C15.214 9.30536 14.8649 9.71401 14.2945 9.87577C13.7241 10.0375 13.2133 9.87577 12.8046 9.42455C12.6173 9.22022 12.5492 8.9563 12.464 8.70089C12.4385 8.29223 12.5662 7.92614 12.7791 7.57708H12.7876Z" fill="#FA3A2F"/>
<path d="M15.3161 8.69245C15.3672 8.17312 15.1799 7.74744 14.8138 7.38986C14.8394 7.33878 14.882 7.31324 14.933 7.34729C15.3247 7.63676 15.7503 7.87514 16.0824 8.24123C16.2867 8.46258 16.3804 8.76056 16.5847 8.9734C16.7805 9.17773 16.8656 9.45017 17.0019 9.69706C17.0444 9.77369 17.07 9.85031 16.9678 9.90139C16.5251 9.4076 16.0313 8.9734 15.4013 8.71799C15.3757 8.70948 15.3417 8.70096 15.3161 8.69245Z" fill="#FDD49C"/>
<path d="M7.62825 15.9035C7.62825 16.7464 7.50906 16.4995 8.20718 16.8996C8.94787 17.3338 9.7141 17.7255 10.4548 18.1511C10.8294 18.364 11.187 18.6024 11.5871 18.7812C11.5786 18.8322 11.553 18.8833 11.4935 18.8833C11.3062 18.8833 11.1103 18.9089 10.923 18.8833C10.2079 18.7386 9.50977 18.5343 8.87125 18.1937C8.28381 17.8787 7.73042 17.5126 7.23663 17.0529C6.73432 16.5846 6.32566 16.0483 5.9766 15.4693C5.58498 14.8138 5.32957 14.1072 5.19335 13.3494C5.15929 13.1792 5.10821 13.0004 5.23592 12.8386C5.29551 12.9408 5.36362 13.043 5.42322 13.1366C5.63606 13.5027 5.92552 13.7922 6.30012 13.9965C6.93865 14.3455 7.56866 14.6946 8.20718 15.0522C8.30083 15.1033 8.403 15.1458 8.47111 15.231C8.24975 15.3502 8.03691 15.4693 7.81555 15.5885C7.69636 15.6566 7.60271 15.7418 7.63677 15.895L7.62825 15.9035Z" fill="#FDD19F"/>
<path d="M13.4091 8.51361C13.1452 8.51361 12.9068 8.29226 12.8983 8.02833C12.8898 7.74738 13.1112 7.509 13.3921 7.50049C13.6645 7.50049 13.9114 7.73887 13.9029 8.01131C13.9029 8.27523 13.6645 8.5051 13.4006 8.51361H13.4091Z" fill="#EAEEEF"/>
</g>
</svg>
