<svg width="24" height="24" viewBox="0 0 24 24" fill="none" xmlns="http://www.w3.org/2000/svg">
<g clip-path="url(#clip0_5357_40284)">
<path d="M12 24C18.6274 24 24 18.6274 24 12C24 5.37258 18.6274 0 12 0C5.37258 0 0 5.37258 0 12C0 18.6274 5.37258 24 12 24Z" fill="white"/>
<path d="M12.9684 20.9999H10.889C10.8055 20.9697 10.7234 20.9243 10.637 20.9106C9.73632 20.7659 8.8428 20.555 8.06232 20.0862C7.3416 19.6535 6.6036 19.4966 5.78856 19.5707C5.63016 19.5851 5.46744 19.5592 5.30616 19.5513V18.5051C5.42064 18.4792 5.51784 18.4569 5.66328 18.423C5.43936 18.1818 5.24784 17.9752 5.02968 17.7405H3.4716V16.6389C3.7272 16.6266 3.95688 16.6158 4.21392 16.6043C4.18368 16.5208 4.17432 16.4754 4.152 16.4358C3.5724 15.3918 3.1944 14.283 3.05976 13.0936C3.05472 13.0504 3.02088 13.0101 3 12.969C3 12.3714 3 11.7738 3 11.1762C3.02232 11.097 3.05616 11.0193 3.06624 10.9379C3.19656 9.90904 3.48528 8.92912 3.95976 8.00536C4.00008 7.9276 4.02384 7.8412 4.05768 7.75552C3.91728 7.72384 3.8064 7.69936 3.69696 7.67488V6.5992H4.83312C5.84976 5.29744 7.10256 4.32544 8.6232 3.71848C10.1496 3.10792 11.7242 2.91712 13.3586 3.18424C13.3738 3.45208 13.3867 3.67384 13.4004 3.91576C13.5444 3.92296 13.6618 3.93376 13.7784 3.93376C14.2925 3.93592 14.8087 3.96544 15.3192 3.92656C15.9938 3.87544 16.4359 4.30168 16.9536 4.57744C16.9471 4.61128 16.9406 4.64584 16.9342 4.67968H15.3394V5.78848H18.3562C21.265 8.626 21.5854 13.2268 19.9092 16.0737H18.8566V17.1443C18.984 17.1717 19.0942 17.1947 19.1986 17.217C19.1986 17.2638 19.2072 17.2919 19.1971 17.3092C19.1611 17.3711 19.123 17.4316 19.079 17.4878C17.5865 19.3857 15.649 20.5283 13.2636 20.9128C13.1628 20.9294 13.0663 20.9697 12.9677 20.9992L12.9684 20.9999ZM11.334 10.655C11.3988 10.1157 11.1432 9.5512 10.6759 9.17176C9.74496 8.41648 8.04576 8.36392 7.03416 9.05152C6.36888 9.50368 6.07584 10.1272 6.15432 10.9235C6.23136 11.7026 6.744 12.1396 7.41576 12.3815C8.0076 12.5946 8.6304 12.7257 9.24312 12.8783C9.58512 12.964 10.0243 13.2498 9.97248 13.7596C9.9552 13.9331 9.83856 14.1045 9.71544 14.2154C8.97672 14.8792 7.6476 14.4846 7.37472 13.5335C7.36968 13.5148 7.34304 13.5026 7.3488 13.5076H5.97864C5.97216 13.6048 5.9592 13.6646 5.96568 13.7214C6.0708 14.5948 6.52368 15.2154 7.35024 15.5193C8.25312 15.8512 9.1812 15.8642 10.0898 15.5502C10.9193 15.2637 11.411 14.6834 11.4766 13.7776C11.4866 13.6336 11.3909 12.8906 11.2188 12.6933C10.951 12.3866 10.8149 12.1706 10.3282 11.9438C9.85008 11.7645 9.35184 11.6385 8.86512 11.4815C8.57136 11.3865 8.26032 11.3145 7.99752 11.1618C7.53096 10.8904 7.53888 10.3187 7.98168 10.0113C8.38992 9.72832 9.22008 9.73912 9.61176 10.0509C9.72768 10.143 9.80904 10.2834 9.894 10.4102C9.9444 10.4858 9.97032 10.5786 10.0042 10.6557H11.334V10.655ZM16.0766 13.2174C16.266 13.1966 16.4057 13.1814 16.59 13.1606V11.6925C16.7736 11.6702 16.9111 11.6529 17.0933 11.6306V10.1639C17.2862 10.1344 17.4346 10.1121 17.5829 10.0898V8.58496H16.559V10.0782C16.3646 10.1063 16.2271 10.1265 16.0507 10.1517V11.6298C15.87 11.6529 15.7325 11.6702 15.5539 11.6932V13.1613C15.366 13.185 15.2184 13.2045 15.0348 13.2275V14.175H14.5243V13.2167C14.3486 13.1987 14.2104 13.185 14.0318 13.167V11.6946C13.8439 11.668 13.6956 11.6471 13.5048 11.6205V10.1452C13.3219 10.1178 13.1851 10.0977 13.0058 10.071V8.5864H12.005V10.097C12.1714 10.1193 12.3096 10.138 12.4896 10.1625V11.632C12.679 11.6572 12.8258 11.6766 13.0174 11.7026V13.1663C13.2024 13.1901 13.3392 13.2074 13.5156 13.2297V14.7071C13.705 14.7338 13.8526 14.7546 14.0354 14.7798V15.7353H15.5647V14.7669C15.7584 14.741 15.9067 14.7208 16.0752 14.6978V13.2182L16.0766 13.2174Z" fill="#03EFFC"/>
<path d="M16.076 13.2177V14.6973C15.9068 14.7203 15.7592 14.7398 15.5655 14.7664V15.7348H14.0363V14.7794C13.8534 14.7534 13.7058 14.7326 13.5164 14.7066V13.2292C13.3407 13.2069 13.2032 13.1896 13.0182 13.1658V11.7021C12.8267 11.6769 12.6798 11.6567 12.4904 11.6315V10.162C12.3104 10.1375 12.1715 10.1188 12.0059 10.0965V8.58591H13.0067V10.0706C13.1852 10.0972 13.3227 10.1174 13.5056 10.1447V11.62C13.6964 11.6466 13.8447 11.6675 14.0327 11.6942V13.1666C14.2105 13.1846 14.3487 13.1982 14.5251 13.2162V14.1746H15.0356V13.227C15.2185 13.204 15.3668 13.1846 15.5547 13.1608V11.6927C15.7326 11.6697 15.8708 11.6524 16.0515 11.6294V10.1512C16.2287 10.1253 16.3655 10.1058 16.5599 10.0778V8.58447H17.5837V10.0893C17.4347 10.1116 17.2871 10.1346 17.0941 10.1634V11.6301C16.9119 11.6524 16.7744 11.6697 16.5908 11.692V13.1601C16.4058 13.1802 16.2668 13.1961 16.0775 13.217L16.076 13.2177Z" fill="#FBFEFE"/>
</g>
<defs>
<clipPath id="clip0_5357_40284">
<rect width="24" height="24" fill="white"/>
</clipPath>
</defs>
</svg>
