<svg width="24" height="24" viewBox="0 0 24 24" fill="none" xmlns="http://www.w3.org/2000/svg">
<g clip-path="url(#clip0_5357_40566)">
<circle cx="12.2051" cy="12" r="12" fill="white"/>
<mask id="mask0_5357_40566" style="mask-type:luminance" maskUnits="userSpaceOnUse" x="3" y="3" width="18" height="18">
<path d="M21 3H3V21H21V3Z" fill="white"/>
</mask>
<g mask="url(#mask0_5357_40566)">
<path d="M6.7498 4.7251L20.6998 14.2501L17.2498 19.3501L3.2998 9.7501L6.7498 4.7251Z" fill="url(#paint0_linear_5357_40566)"/>
<path d="M20.7006 14.2499C19.5006 15.9749 15.4506 15.2999 11.6256 12.5999C7.72561 9.97492 5.62561 6.44992 6.75061 4.72492C7.95061 2.99992 12.0006 3.67492 15.8256 6.37492C19.7256 8.92492 21.8256 12.5249 20.7006 14.2499Z" fill="url(#paint1_linear_5357_40566)"/>
<path d="M17.2503 19.2751C16.0503 21.0001 12.0003 20.3251 8.17534 17.6251C4.35034 14.9251 2.17534 11.4751 3.37534 9.67512C4.57534 7.95012 8.62534 8.62512 12.4503 11.3251C16.2753 14.0251 18.3753 17.5501 17.2503 19.2751Z" fill="url(#paint2_linear_5357_40566)"/>
<path d="M20.7002 14.2502L17.2502 19.3502C16.0502 21.0752 12.0002 20.3252 8.1752 17.7002C7.4252 17.1752 6.7502 16.6502 6.0752 16.0502C6.6002 15.9752 7.2752 15.6752 7.9502 14.9252C9.1502 13.6502 9.7502 13.3502 10.2752 13.4252C10.8002 13.4252 11.4002 13.9502 12.3752 15.2252C13.3502 16.5002 14.7002 16.8752 15.5252 16.2002C15.6002 16.1252 15.6752 16.1252 15.7502 16.0502C16.4252 15.5252 16.6502 15.3002 17.9252 12.9002C18.2252 12.3002 19.2752 11.3252 20.7002 11.7752C21.0752 12.7502 21.0752 13.5752 20.7002 14.2502Z" fill="#0E0F23"/>
<path fill-rule="evenodd" clip-rule="evenodd" d="M20.1756 13.9498C19.1256 15.4498 15.4506 14.6998 11.9256 12.2248C8.32557 9.74978 6.22557 6.59978 7.27557 5.09978C8.32557 3.59978 12.0006 4.34978 15.5256 6.82478C19.0506 9.29978 21.1506 12.4498 20.1756 13.9498ZM16.8756 11.6998C16.3506 12.4498 14.5506 12.0748 12.7506 10.8748C11.0256 9.67478 9.97557 8.09978 10.5006 7.34978C11.0256 6.59978 12.8256 6.97478 14.6256 8.17478C16.3506 9.37478 17.4006 10.9498 16.8756 11.6998Z" fill="white"/>
<path d="M6.45039 6.44982C6.45039 6.37482 6.37539 6.29982 6.30039 6.37482C6.22539 6.44982 6.15039 6.44982 6.15039 6.52482C6.22539 6.74982 6.30039 6.89982 6.30039 7.04982C6.30039 7.12482 6.37539 7.19982 6.45039 7.12482C6.52539 7.12482 6.60039 7.04982 6.52539 6.97482C6.52539 6.82482 6.52539 6.67482 6.45039 6.44982Z" fill="white"/>
<path d="M6.82559 7.65001C6.82559 7.57501 6.75059 7.50001 6.67559 7.57501C6.60059 7.65001 6.60059 7.65001 6.60059 7.72501C7.42559 9.60001 9.15059 11.625 11.4006 13.125C11.4756 13.2 11.5506 13.125 11.6256 13.125C11.7006 13.05 11.6256 12.975 11.6256 12.9C9.30059 11.4 7.65059 9.45001 6.82559 7.65001Z" fill="white"/>
<path d="M15.9 15C15.825 15 15.75 15 15.75 15.075C15.75 15.15 15.75 15.225 15.825 15.225C16.05 15.3 16.35 15.375 16.575 15.45C16.65 15.45 16.725 15.45 16.725 15.375C16.725 15.3 16.725 15.225 16.65 15.225C16.425 15.15 16.125 15.075 15.9 15Z" fill="white"/>
<path d="M17.2506 15.2998C17.1756 15.2998 17.1006 15.3748 17.1006 15.4498C17.1006 15.5248 17.1756 15.5998 17.2506 15.5998C17.8506 15.6748 18.5256 15.7498 19.0506 15.6748C19.1256 15.6748 19.2006 15.5998 19.2006 15.5248C19.2006 15.4498 19.1256 15.3748 19.0506 15.3748C18.4506 15.4498 17.8506 15.3748 17.2506 15.2998Z" fill="white"/>
</g>
</g>
<defs>
<linearGradient id="paint0_linear_5357_40566" x1="9.48296" y1="3.37082" x2="12.2494" y2="12.8705" gradientUnits="userSpaceOnUse">
<stop stop-color="#03B8FF"/>
<stop offset="1" stop-color="#FA52A0"/>
</linearGradient>
<linearGradient id="paint1_linear_5357_40566" x1="11.762" y1="2.70712" x2="14.5285" y2="12.2068" gradientUnits="userSpaceOnUse">
<stop stop-color="#03B8FF"/>
<stop offset="1" stop-color="#FA52A0"/>
</linearGradient>
<linearGradient id="paint2_linear_5357_40566" x1="7.21234" y1="4.03219" x2="9.97887" y2="13.5319" gradientUnits="userSpaceOnUse">
<stop stop-color="#03B8FF"/>
<stop offset="1" stop-color="#FA52A0"/>
</linearGradient>
<clipPath id="clip0_5357_40566">
<rect width="24" height="24" fill="white"/>
</clipPath>
</defs>
</svg>
