<svg width="24" height="24" viewBox="0 0 24 24" fill="none" xmlns="http://www.w3.org/2000/svg">
<circle cx="12" cy="12" r="12" fill="#50AF95"/>
<g clip-path="url(#clip0_28_876)">
<path fill-rule="evenodd" clip-rule="evenodd" d="M13.2208 12.847C13.1526 12.8522 12.8003 12.8734 12.0145 12.8734C11.3895 12.8734 10.9457 12.8545 10.79 12.847C8.37454 12.7399 6.57162 12.316 6.57162 11.8085C6.57162 11.301 8.37454 10.8777 10.79 10.7689V12.4249C10.948 12.4363 11.4003 12.4633 12.0253 12.4633C12.7753 12.4633 13.1509 12.4318 13.2185 12.4255V10.77C15.6289 10.8783 17.4278 11.3022 17.4278 11.8085C17.4278 12.3149 15.6294 12.7388 13.2185 12.8465H13.2208V12.847ZM13.2208 10.5993V9.11748H16.5846V6.85718H7.4262V9.11691H10.7894V10.5982C8.05578 10.7248 6 11.2707 6 11.9248C6 12.579 8.05578 13.1243 10.7894 13.2514V18H13.2202V13.2497C15.9476 13.1231 18 12.5778 18 11.9242C18 11.2707 15.9493 10.7254 13.2202 10.5982H13.2208V10.5993Z" fill="white"/>
</g>
<defs>
<clipPath id="clip0_28_876">
<rect width="12" height="11.1429" fill="white" transform="translate(6 6.85718)"/>
</clipPath>
</defs>
</svg>
