<svg width="256" height="256" viewBox="0 0 256 256" fill="none" xmlns="http://www.w3.org/2000/svg">
<rect x="0.717285" y="0.722412" width="255" height="255" fill="black"/>
<circle cx="128.217" cy="128.222" r="127.5" fill="black"/>
<path d="M131.074 183.763C136.964 183.763 141.451 183.483 147.061 181.239L112.283 216.578C71.3349 208.164 40.4837 174.228 41.0446 129.353C41.3251 110.281 46.9344 92.612 57.3117 77.7473L46.093 66.5287L70.774 41.8477L82.5536 53.9077L109.478 80.8324C90.9676 88.6855 75.5419 107.757 75.5419 130.475C75.5419 159.643 101.906 183.763 131.074 183.763ZM135.281 132.158L143.134 124.585L147.061 128.512L115.088 160.485L86.1996 131.877L79.7489 138.328L75.8224 134.682L106.674 103.55L135.281 132.158ZM147.061 181.239V66.5287L172.864 40.7258L207.922 75.784L201.471 82.2348V185.166L207.641 191.616L182.68 216.578L147.061 181.239Z" fill="url(#paint0_linear_166_18)"/>
<path d="M158.39 77.8466L152.673 72.3874L152.672 176.241L158.39 170.481V77.8466Z" fill="#F900E0"/>
<defs>
<linearGradient id="paint0_linear_166_18" x1="124.479" y1="40.7258" x2="124.479" y2="216.578" gradientUnits="userSpaceOnUse">
<stop stop-color="#BDFF00"/>
<stop offset="0.494792" stop-color="#00B78B"/>
<stop offset="1" stop-color="#00B5C0"/>
</linearGradient>
</defs>
</svg>
