<svg width="24" height="24" viewBox="0 0 24 24" fill="none" xmlns="http://www.w3.org/2000/svg">
<mask id="mask0_28_739" style="mask-type:alpha" maskUnits="userSpaceOnUse" x="0" y="0" width="24" height="24">
<circle cx="12" cy="12" r="12" fill="#FF007A"/>
</mask>
<g mask="url(#mask0_28_739)">
<circle cx="12" cy="12" r="12" fill="#FF007A"/>
<path d="M8.24363 2.74083C7.99066 2.70469 7.97861 2.69264 8.09907 2.6806C8.32795 2.64446 8.85799 2.69264 9.23143 2.77697C10.0988 2.98176 10.8818 3.51179 11.713 4.43936L11.9298 4.69233L12.243 4.64415C13.5801 4.42731 14.9534 4.59596 16.0978 5.126C16.411 5.27056 16.9049 5.55967 16.9652 5.63194C16.9893 5.65604 17.0254 5.81264 17.0495 5.96924C17.1338 6.53542 17.0977 6.95704 16.917 7.28229C16.8206 7.46299 16.8206 7.51117 16.8808 7.66777C16.929 7.78824 17.0736 7.87256 17.2061 7.87256C17.4952 7.87256 17.7964 7.4148 17.9409 6.77634L18.0011 6.52337L18.1096 6.64384C18.7239 7.33048 19.2058 8.28213 19.2781 8.95673L19.3021 9.13742L19.1937 8.98082C19.013 8.70376 18.8444 8.52306 18.6155 8.36646C18.2059 8.08939 17.7723 8.00507 16.6279 7.94484C15.5919 7.88461 15.0016 7.80028 14.4234 7.60754C13.4356 7.28229 12.9296 6.86067 11.7612 5.30669C11.2432 4.62005 10.9179 4.24662 10.5927 3.93341C9.88193 3.24677 9.17119 2.88538 8.24363 2.74083Z" fill="white"/>
<path d="M17.2183 4.2708C17.2424 3.81304 17.3026 3.51188 17.4351 3.23482C17.4833 3.1264 17.5315 3.03003 17.5435 3.03003C17.5556 3.03003 17.5315 3.11435 17.4953 3.21072C17.399 3.47574 17.3869 3.84918 17.4471 4.2708C17.5315 4.81288 17.5676 4.88516 18.1458 5.47543C18.4108 5.7525 18.7241 6.10184 18.8445 6.2464L19.0493 6.51142L18.8445 6.31867C18.5915 6.07775 18.0133 5.61999 17.8808 5.55976C17.7965 5.51157 17.7844 5.51157 17.7242 5.5718C17.676 5.61999 17.664 5.69227 17.664 6.04161C17.6519 6.58369 17.5797 6.92099 17.399 7.27033C17.3026 7.45103 17.2905 7.41489 17.3749 7.2101C17.4351 7.0535 17.4471 6.98122 17.4471 6.46323C17.4471 5.4152 17.3267 5.16223 16.5919 4.74061C16.4112 4.63219 16.098 4.47559 15.9173 4.39126C15.7245 4.30694 15.58 4.23466 15.592 4.23466C15.6161 4.21057 16.3268 4.41536 16.6039 4.53582C17.0255 4.70447 17.0978 4.71651 17.146 4.70447C17.1821 4.66833 17.2062 4.57196 17.2183 4.2708Z" fill="white"/>
<path d="M8.73757 6.06559C8.23163 5.3669 7.90638 4.28273 7.97865 3.47563L8.00275 3.22266L8.12321 3.24675C8.34004 3.28289 8.71348 3.42744 8.89417 3.53586C9.37603 3.82497 9.59286 4.2225 9.79765 5.2103C9.85788 5.49941 9.9422 5.83671 9.97834 5.94512C10.0386 6.12582 10.2675 6.54744 10.4602 6.81246C10.5927 7.0052 10.5084 7.10157 10.2072 7.07748C9.74946 7.02929 9.1351 6.60767 8.73757 6.06559Z" fill="white"/>
<path d="M16.6038 11.3058C14.2186 10.3421 13.3754 9.51088 13.3754 8.10146C13.3754 7.89668 13.3874 7.72803 13.3874 7.72803C13.3995 7.72803 13.4838 7.80031 13.5922 7.88463C14.0741 8.27011 14.6161 8.43876 16.1219 8.65559C17.0013 8.7881 17.5073 8.88447 17.965 9.04108C19.4226 9.52293 20.3261 10.5107 20.5429 11.8479C20.6032 12.2333 20.567 12.9682 20.4706 13.3537C20.3863 13.6548 20.1454 14.2089 20.0852 14.221C20.0731 14.221 20.049 14.1608 20.049 14.0644C20.0249 13.5584 19.772 13.0766 19.3503 12.7032C18.8444 12.2695 18.1939 11.9442 16.6038 11.3058Z" fill="white"/>
<path d="M14.9174 11.7035C14.8933 11.5228 14.8331 11.2939 14.797 11.1975L14.7367 11.0168L14.8451 11.1494C15.0017 11.33 15.1222 11.5469 15.2306 11.848C15.315 12.0769 15.315 12.1492 15.315 12.5226C15.315 12.884 15.3029 12.9683 15.2306 13.1731C15.1102 13.4984 14.9656 13.7273 14.7247 13.9802C14.291 14.426 13.7248 14.6669 12.9177 14.7753C12.7732 14.7873 12.3636 14.8235 12.0022 14.8476C11.0987 14.8958 10.4964 14.9921 9.95434 15.1849C9.88206 15.209 9.80979 15.2331 9.79774 15.221C9.77365 15.1969 10.1471 14.9801 10.4482 14.8355C10.8699 14.6307 11.3035 14.5223 12.2552 14.3537C12.725 14.2814 13.2068 14.185 13.3273 14.1368C14.5199 13.7634 15.1102 12.8358 14.9174 11.7035Z" fill="white"/>
<path d="M16.0136 13.6428C15.7004 12.9561 15.6281 12.3056 15.7968 11.6913C15.8209 11.631 15.845 11.5708 15.8691 11.5708C15.8932 11.5708 15.9654 11.6069 16.0377 11.6551C16.1823 11.7515 16.4834 11.9201 17.2544 12.3418C18.2301 12.8718 18.7843 13.2814 19.1698 13.7512C19.5071 14.1608 19.7118 14.6306 19.8082 15.2088C19.8684 15.534 19.8323 16.317 19.748 16.6423C19.483 17.6662 18.8806 18.4854 18.0013 18.9552C17.8688 19.0275 17.7603 19.0757 17.7483 19.0757C17.7362 19.0757 17.7844 18.9552 17.8567 18.8106C18.1458 18.1963 18.182 17.606 17.9651 16.9435C17.8326 16.5339 17.5556 16.04 17.0014 15.2088C16.3389 14.2451 16.1823 13.9921 16.0136 13.6428Z" fill="white"/>
<path d="M7.03911 17.3289C7.93053 16.582 9.02675 16.052 10.0386 15.8834C10.4723 15.8111 11.1951 15.8352 11.5926 15.9436C12.2311 16.1122 12.8093 16.4736 13.1104 16.9193C13.3996 17.353 13.5321 17.7264 13.6646 18.5576C13.7128 18.8829 13.773 19.2202 13.785 19.2925C13.8814 19.7261 14.0742 20.0634 14.3151 20.2441C14.6885 20.5212 15.339 20.5332 15.9775 20.2923C16.0859 20.2562 16.1823 20.22 16.1823 20.2321C16.2064 20.2562 15.8811 20.473 15.6643 20.5814C15.3631 20.738 15.1222 20.7862 14.7969 20.7862C14.2187 20.7862 13.7248 20.485 13.3273 19.8827C13.243 19.7623 13.0743 19.4129 12.9298 19.0877C12.5081 18.1119 12.2913 17.8228 11.7974 17.4976C11.3637 17.2205 10.8096 17.1603 10.388 17.3651C9.83385 17.6301 9.68929 18.3408 10.0748 18.7745C10.2314 18.9552 10.5205 19.0997 10.7614 19.1359C11.2071 19.1961 11.5926 18.8468 11.5926 18.401C11.5926 18.1119 11.4842 17.9433 11.1951 17.8108C10.8096 17.6421 10.388 17.8349 10.4 18.2083C10.4 18.3649 10.4723 18.4613 10.6289 18.5335C10.7253 18.5817 10.7253 18.5817 10.653 18.5697C10.3037 18.4974 10.2193 18.0637 10.4964 17.7867C10.8337 17.4494 11.5444 17.5939 11.7854 18.0637C11.8817 18.2565 11.8938 18.642 11.8094 18.8829C11.6047 19.4129 11.0264 19.69 10.4362 19.5334C10.0386 19.425 9.86999 19.3166 9.38814 18.8227C8.5449 17.9553 8.21964 17.7867 7.01501 17.606L6.78613 17.5698L7.03911 17.3289Z" fill="white"/>
<path fill-rule="evenodd" clip-rule="evenodd" d="M0.702591 -2.05354C3.50938 1.35557 7.83401 6.65595 8.05084 6.94506C8.23154 7.18598 8.15926 7.41486 7.8581 7.58351C7.68946 7.67988 7.34011 7.77625 7.17146 7.77625C6.97872 7.77625 6.74984 7.67988 6.59324 7.52328C6.48482 7.41486 6.01502 6.72822 4.95494 5.07788C4.14784 3.81301 3.4612 2.76499 3.44915 2.75294C3.40097 2.72885 3.40097 2.72885 4.87062 5.35494C5.79818 7.00529 6.09934 7.59556 6.09934 7.66784C6.09934 7.82444 6.05116 7.90876 5.85841 8.1256C5.53316 8.48699 5.38861 8.89656 5.28019 9.75185C5.15973 10.7035 4.83448 11.3781 3.90691 12.5225C3.36483 13.1971 3.2805 13.3176 3.14799 13.5946C2.97935 13.9319 2.93116 14.1247 2.90707 14.5583C2.88297 15.0161 2.93116 15.3052 3.06367 15.7389C3.18413 16.1244 3.31664 16.3773 3.64189 16.8712C3.91896 17.3049 4.08761 17.6301 4.08761 17.7506C4.08761 17.847 4.1117 17.847 4.54537 17.7506C5.58135 17.5097 6.43664 17.1001 6.90644 16.5942C7.19556 16.281 7.26783 16.1123 7.26783 15.6786C7.26783 15.4016 7.25579 15.3413 7.18351 15.1727C7.06305 14.9077 6.83417 14.6908 6.34027 14.3535C5.68977 13.9078 5.4127 13.5464 5.34042 13.0646C5.28019 12.655 5.35247 12.3779 5.71386 11.619C6.08729 10.836 6.18367 10.5108 6.2439 9.71571C6.28004 9.20977 6.34027 9.00498 6.48482 8.84838C6.64143 8.67973 6.77393 8.6195 7.14737 8.57131C7.76173 8.48699 8.15926 8.33038 8.47247 8.02923C8.74953 7.77625 8.86999 7.52328 8.88204 7.14985L8.89409 6.87278L8.73748 6.70413C8.17131 6.05363 0.329155 -2.57153 0.293016 -2.57153C0.28097 -2.57153 0.473711 -2.34265 0.702591 -2.05354ZM4.40081 15.0763C4.53332 14.8474 4.46104 14.5583 4.24421 14.4138C4.03942 14.2813 3.72622 14.3415 3.72622 14.5222C3.72622 14.5704 3.75031 14.6186 3.82259 14.6427C3.931 14.7029 3.94305 14.7631 3.85873 14.8956C3.7744 15.0281 3.7744 15.1486 3.88282 15.2329C4.05147 15.3654 4.28035 15.2932 4.40081 15.0763Z" fill="white"/>
<path fill-rule="evenodd" clip-rule="evenodd" d="M9.2798 8.7399C8.99068 8.82422 8.71362 9.13742 8.62929 9.45063C8.58111 9.64337 8.6052 9.99271 8.68953 10.1011C8.82204 10.2698 8.9425 10.318 9.2798 10.318C9.94234 10.318 10.5085 10.0289 10.5688 9.67951C10.629 9.3904 10.376 8.99287 10.0267 8.81217C9.84597 8.7158 9.47254 8.67966 9.2798 8.7399ZM10.0508 9.34221C10.1471 9.19766 10.111 9.04105 9.9303 8.93264C9.60505 8.72785 9.11115 8.8965 9.11115 9.2097C9.11115 9.3663 9.36412 9.53495 9.60505 9.53495C9.76165 9.53495 9.97848 9.43858 10.0508 9.34221Z" fill="white"/>
</g>
</svg>
