<svg width="24" height="24" viewBox="0 0 24 24" fill="none" xmlns="http://www.w3.org/2000/svg">
<circle cx="12" cy="12" r="12" fill="#50AF95"/>
<g clip-path="url(#clip0_5357_39761)">
<path fill-rule="evenodd" clip-rule="evenodd" d="M13.2208 12.8473C13.1526 12.8524 12.8003 12.8736 12.0145 12.8736C11.3895 12.8736 10.9457 12.8547 10.79 12.8473C8.37454 12.7402 6.57162 12.3163 6.57162 11.8088C6.57162 11.3013 8.37454 10.878 10.79 10.7691V12.4251C10.948 12.4366 11.4003 12.4635 12.0253 12.4635C12.7753 12.4635 13.1509 12.432 13.2185 12.4257V10.7703C15.6289 10.8785 17.4278 11.3024 17.4278 11.8088C17.4278 12.3151 15.6294 12.739 13.2185 12.8467H13.2208V12.8473ZM13.2208 10.5996V9.11773H16.5846V6.85742H7.4262V9.11715H10.7894V10.5984C8.05578 10.725 6 11.2709 6 11.9251C6 12.5792 8.05578 13.1245 10.7894 13.2517V18.0003H13.2202V13.25C15.9476 13.1234 18 12.5781 18 11.9245C18 11.2709 15.9493 10.7256 13.2202 10.5984H13.2208V10.5996Z" fill="white"/>
</g>
<defs>
<clipPath id="clip0_5357_39761">
<rect width="12" height="11.1429" fill="white" transform="translate(6 6.85742)"/>
</clipPath>
</defs>
</svg>
