<?xml version="1.0" encoding="UTF-8"?>
<svg xmlns="http://www.w3.org/2000/svg" xmlns:xlink="http://www.w3.org/1999/xlink" width="px" height="24px" viewBox="0 0 24 24" version="1.1">
<g id="surface1">
<path style=" stroke:none;fill-rule:nonzero;fill:rgb(98.823529%,98.823529%,98.823529%);fill-opacity:1;" d="M 10.664062 0 C 11.003906 0 11.34375 -0.00390625 11.683594 -0.00390625 C 11.839844 -0.00390625 12 -0.00390625 12.15625 -0.00390625 C 12.292969 -0.0078125 12.429688 -0.0078125 12.570312 -0.0078125 C 12.640625 -0.0078125 12.714844 -0.0078125 12.789062 -0.0078125 C 12.855469 -0.0078125 12.925781 -0.0078125 12.992188 -0.0078125 C 13.019531 -0.0078125 13.042969 -0.0078125 13.070312 -0.0078125 C 13.101562 -0.0078125 13.136719 -0.0078125 13.171875 -0.0078125 C 13.191406 -0.0078125 13.210938 -0.0078125 13.230469 -0.0078125 C 13.277344 0 13.277344 0 13.304688 0.0390625 C 13.308594 0.0507812 13.316406 0.0625 13.320312 0.0742188 C 13.363281 0.0976562 13.402344 0.09375 13.453125 0.09375 C 13.460938 0.09375 13.472656 0.09375 13.484375 0.09375 C 13.515625 0.0976562 13.546875 0.0976562 13.582031 0.0976562 C 13.621094 0.0976562 13.664062 0.0976562 13.707031 0.101562 C 13.726562 0.101562 13.746094 0.101562 13.765625 0.101562 C 13.808594 0.105469 13.847656 0.109375 13.890625 0.121094 C 13.945312 0.125 13.996094 0.125 14.050781 0.128906 C 14.105469 0.136719 14.117188 0.148438 14.160156 0.179688 C 14.277344 0.21875 14.402344 0.222656 14.523438 0.234375 C 14.625 0.242188 14.699219 0.265625 14.789062 0.3125 C 14.832031 0.335938 14.871094 0.335938 14.917969 0.335938 C 15.019531 0.339844 15.101562 0.367188 15.199219 0.398438 C 15.292969 0.433594 15.386719 0.457031 15.488281 0.480469 C 15.53125 0.492188 15.5625 0.503906 15.601562 0.523438 C 15.664062 0.558594 15.726562 0.574219 15.796875 0.59375 C 15.867188 0.609375 15.929688 0.628906 15.992188 0.660156 C 16.0625 0.695312 16.128906 0.710938 16.207031 0.726562 C 16.277344 0.742188 16.324219 0.769531 16.382812 0.808594 C 16.417969 0.828125 16.453125 0.84375 16.488281 0.855469 C 16.589844 0.898438 16.589844 0.898438 16.625 0.917969 C 16.660156 0.933594 16.695312 0.941406 16.738281 0.949219 C 16.8125 0.96875 16.878906 0.992188 16.945312 1.03125 C 17.011719 1.066406 17.078125 1.09375 17.148438 1.121094 C 17.324219 1.199219 17.5 1.289062 17.667969 1.386719 C 17.71875 1.417969 17.769531 1.445312 17.824219 1.46875 C 17.84375 1.480469 17.863281 1.488281 17.882812 1.5 L 17.882812 1.53125 C 17.890625 1.535156 17.898438 1.539062 17.910156 1.542969 C 17.941406 1.558594 17.96875 1.574219 17.996094 1.59375 C 18.054688 1.632812 18.117188 1.664062 18.183594 1.699219 C 18.246094 1.734375 18.304688 1.769531 18.367188 1.804688 C 18.40625 1.828125 18.441406 1.84375 18.484375 1.859375 C 18.503906 1.878906 18.523438 1.898438 18.542969 1.917969 C 18.574219 1.941406 18.601562 1.960938 18.632812 1.980469 C 18.648438 1.992188 18.664062 2 18.679688 2.011719 C 18.707031 2.027344 18.734375 2.046875 18.761719 2.0625 C 18.804688 2.089844 18.847656 2.117188 18.890625 2.148438 C 18.949219 2.191406 19.011719 2.230469 19.078125 2.269531 C 19.203125 2.347656 19.308594 2.457031 19.40625 2.5625 C 19.460938 2.613281 19.519531 2.648438 19.582031 2.6875 C 19.636719 2.722656 19.6875 2.757812 19.742188 2.796875 C 19.773438 2.820312 19.773438 2.820312 19.804688 2.832031 C 19.835938 2.851562 19.851562 2.867188 19.875 2.898438 C 19.960938 3 20.058594 3.089844 20.148438 3.183594 C 20.171875 3.203125 20.191406 3.222656 20.210938 3.242188 C 20.265625 3.296875 20.320312 3.351562 20.375 3.402344 C 20.429688 3.457031 20.484375 3.511719 20.535156 3.566406 C 20.625 3.65625 20.714844 3.742188 20.800781 3.832031 C 21.179688 4.207031 21.179688 4.207031 21.238281 4.34375 C 21.277344 4.417969 21.324219 4.46875 21.382812 4.523438 C 21.402344 4.546875 21.421875 4.566406 21.441406 4.585938 C 21.453125 4.597656 21.460938 4.609375 21.472656 4.617188 C 21.738281 4.902344 21.738281 4.902344 21.738281 5.007812 C 21.753906 5.011719 21.769531 5.019531 21.785156 5.023438 C 21.8125 5.0625 21.8125 5.0625 21.84375 5.113281 C 21.851562 5.121094 21.855469 5.128906 21.863281 5.140625 C 21.875 5.160156 21.886719 5.179688 21.898438 5.199219 C 21.929688 5.25 21.960938 5.296875 21.992188 5.34375 C 22.003906 5.371094 22.019531 5.394531 22.035156 5.417969 C 22.070312 5.472656 22.105469 5.523438 22.140625 5.574219 C 22.171875 5.617188 22.195312 5.660156 22.21875 5.707031 C 22.28125 5.835938 22.355469 5.957031 22.4375 6.074219 C 22.496094 6.15625 22.546875 6.234375 22.585938 6.324219 C 22.613281 6.382812 22.644531 6.441406 22.675781 6.496094 C 22.734375 6.609375 22.792969 6.722656 22.847656 6.835938 C 22.859375 6.859375 22.871094 6.878906 22.882812 6.902344 C 22.949219 7.035156 23.007812 7.160156 23.035156 7.304688 C 23.046875 7.359375 23.070312 7.398438 23.101562 7.445312 C 23.175781 7.578125 23.226562 7.726562 23.269531 7.871094 C 23.277344 7.894531 23.285156 7.921875 23.292969 7.945312 C 23.296875 7.953125 23.300781 7.964844 23.304688 7.972656 C 23.3125 8 23.324219 8.027344 23.339844 8.054688 C 23.367188 8.121094 23.382812 8.191406 23.398438 8.261719 C 23.410156 8.316406 23.421875 8.359375 23.453125 8.40625 C 23.484375 8.460938 23.492188 8.503906 23.503906 8.566406 C 23.515625 8.632812 23.527344 8.691406 23.554688 8.75 C 23.617188 8.871094 23.636719 9.019531 23.636719 9.15625 C 23.644531 9.195312 23.644531 9.195312 23.683594 9.238281 C 23.742188 9.3125 23.730469 9.398438 23.730469 9.492188 C 23.726562 9.664062 23.726562 9.664062 23.78125 9.820312 C 23.796875 9.828125 23.808594 9.832031 23.824219 9.835938 C 23.890625 9.992188 23.878906 10.175781 23.882812 10.34375 C 23.882812 10.371094 23.882812 10.398438 23.882812 10.429688 C 23.882812 10.496094 23.886719 10.5625 23.886719 10.632812 C 23.925781 10.648438 23.964844 10.660156 24.007812 10.675781 L 24.007812 13.273438 C 23.964844 13.292969 23.925781 13.3125 23.886719 13.332031 C 23.886719 13.347656 23.886719 13.363281 23.882812 13.378906 C 23.882812 13.433594 23.882812 13.492188 23.878906 13.546875 C 23.878906 13.570312 23.878906 13.597656 23.878906 13.621094 C 23.878906 13.65625 23.875 13.691406 23.875 13.726562 C 23.875 13.738281 23.875 13.746094 23.875 13.757812 C 23.875 13.804688 23.871094 13.84375 23.855469 13.886719 C 23.855469 13.9375 23.851562 13.988281 23.851562 14.035156 C 23.851562 14.097656 23.84375 14.121094 23.804688 14.167969 C 23.792969 14.179688 23.777344 14.191406 23.765625 14.203125 C 23.734375 14.261719 23.730469 14.308594 23.730469 14.375 L 23.730469 14.433594 C 23.730469 14.472656 23.730469 14.511719 23.730469 14.550781 C 23.730469 14.671875 23.71875 14.726562 23.644531 14.816406 C 23.636719 14.875 23.636719 14.875 23.636719 14.933594 C 23.632812 15.050781 23.625 15.164062 23.554688 15.261719 C 23.511719 15.332031 23.507812 15.394531 23.5 15.472656 C 23.488281 15.546875 23.46875 15.582031 23.421875 15.640625 C 23.40625 15.683594 23.398438 15.730469 23.390625 15.773438 C 23.375 15.863281 23.355469 15.929688 23.300781 16.003906 C 23.28125 16.039062 23.277344 16.066406 23.273438 16.105469 C 23.25 16.261719 23.167969 16.417969 23.085938 16.554688 C 23.050781 16.613281 23.035156 16.664062 23.023438 16.730469 C 23.003906 16.851562 22.953125 16.945312 22.898438 17.050781 C 22.871094 17.101562 22.84375 17.152344 22.820312 17.199219 C 22.816406 17.210938 22.8125 17.21875 22.804688 17.230469 C 22.773438 17.292969 22.746094 17.351562 22.71875 17.414062 C 22.667969 17.523438 22.613281 17.628906 22.558594 17.734375 C 22.550781 17.746094 22.542969 17.757812 22.539062 17.773438 C 22.492188 17.855469 22.441406 17.929688 22.371094 17.996094 L 22.339844 17.996094 L 22.335938 18.03125 C 22.3125 18.128906 22.289062 18.199219 22.230469 18.277344 C 22.203125 18.316406 22.1875 18.351562 22.167969 18.390625 C 22.140625 18.445312 22.113281 18.492188 22.070312 18.539062 L 22.039062 18.539062 C 22.035156 18.550781 22.035156 18.550781 22.027344 18.5625 C 22.011719 18.597656 22.011719 18.597656 21.988281 18.625 C 21.964844 18.660156 21.953125 18.691406 21.9375 18.730469 C 21.914062 18.792969 21.890625 18.835938 21.847656 18.882812 C 21.832031 18.898438 21.820312 18.910156 21.808594 18.925781 C 21.769531 18.957031 21.769531 18.957031 21.742188 18.957031 C 21.738281 18.976562 21.734375 18.996094 21.734375 19.015625 C 21.714844 19.109375 21.65625 19.1875 21.589844 19.257812 L 21.5625 19.257812 C 21.558594 19.265625 21.554688 19.273438 21.550781 19.285156 C 21.527344 19.328125 21.492188 19.359375 21.457031 19.394531 C 21.445312 19.40625 21.429688 19.417969 21.417969 19.429688 C 21.40625 19.441406 21.394531 19.457031 21.382812 19.46875 L 21.34375 19.507812 C 21.304688 19.542969 21.304688 19.542969 21.261719 19.558594 C 21.257812 19.578125 21.253906 19.597656 21.25 19.617188 C 21.226562 19.742188 21.128906 19.851562 21.035156 19.933594 C 21.027344 19.9375 21.015625 19.945312 21.003906 19.949219 C 20.96875 19.96875 20.964844 19.988281 20.945312 20.023438 C 20.929688 20.027344 20.917969 20.03125 20.902344 20.039062 C 20.894531 20.050781 20.894531 20.050781 20.890625 20.0625 C 20.867188 20.105469 20.839844 20.125 20.804688 20.152344 C 20.78125 20.175781 20.761719 20.195312 20.738281 20.222656 C 20.730469 20.234375 20.71875 20.25 20.707031 20.261719 L 20.675781 20.261719 C 20.671875 20.273438 20.671875 20.28125 20.667969 20.289062 C 20.644531 20.328125 20.617188 20.347656 20.582031 20.375 C 20.554688 20.402344 20.53125 20.425781 20.503906 20.457031 C 20.46875 20.5 20.433594 20.535156 20.390625 20.570312 C 20.351562 20.605469 20.3125 20.640625 20.277344 20.683594 C 20.234375 20.734375 20.1875 20.777344 20.136719 20.820312 C 20.097656 20.859375 20.0625 20.898438 20.027344 20.9375 C 19.992188 20.980469 19.949219 21.015625 19.910156 21.046875 C 19.878906 21.074219 19.859375 21.101562 19.835938 21.132812 C 19.816406 21.144531 19.796875 21.152344 19.777344 21.164062 C 19.769531 21.171875 19.765625 21.183594 19.761719 21.191406 C 19.742188 21.195312 19.726562 21.203125 19.707031 21.207031 C 19.601562 21.230469 19.535156 21.296875 19.460938 21.375 L 19.3125 21.523438 C 19.292969 21.542969 19.292969 21.542969 19.273438 21.5625 C 19.207031 21.625 19.140625 21.671875 19.054688 21.710938 C 18.992188 21.742188 18.941406 21.777344 18.890625 21.824219 C 18.832031 21.875 18.769531 21.914062 18.699219 21.949219 C 18.640625 21.976562 18.589844 22.007812 18.539062 22.050781 C 18.394531 22.160156 18.234375 22.25 18.070312 22.328125 C 18.023438 22.351562 17.984375 22.378906 17.941406 22.414062 C 17.820312 22.511719 17.671875 22.574219 17.53125 22.644531 C 17.492188 22.664062 17.449219 22.6875 17.410156 22.710938 C 17.355469 22.742188 17.300781 22.765625 17.238281 22.785156 C 17.207031 22.800781 17.183594 22.816406 17.152344 22.832031 C 17.089844 22.875 17.023438 22.902344 16.953125 22.929688 C 16.910156 22.949219 16.910156 22.949219 16.863281 22.972656 C 16.820312 22.992188 16.78125 23.003906 16.734375 23.011719 C 16.660156 23.035156 16.589844 23.066406 16.519531 23.097656 C 16.296875 23.191406 16.070312 23.28125 15.839844 23.355469 C 15.785156 23.371094 15.730469 23.390625 15.675781 23.414062 C 15.589844 23.445312 15.503906 23.46875 15.414062 23.488281 C 15.347656 23.507812 15.289062 23.53125 15.230469 23.5625 C 15.152344 23.585938 15.078125 23.597656 15 23.605469 C 14.972656 23.605469 14.972656 23.605469 14.960938 23.621094 C 14.9375 23.628906 14.910156 23.632812 14.886719 23.636719 C 14.832031 23.648438 14.785156 23.660156 14.734375 23.683594 C 14.660156 23.707031 14.589844 23.71875 14.511719 23.722656 C 14.480469 23.726562 14.480469 23.726562 14.449219 23.742188 C 14.402344 23.746094 14.355469 23.75 14.304688 23.75 C 14.253906 23.753906 14.253906 23.753906 14.207031 23.78125 C 14.152344 23.804688 14.101562 23.8125 14.042969 23.816406 C 14.027344 23.816406 14.027344 23.816406 14.011719 23.820312 C 13.980469 23.820312 13.949219 23.824219 13.921875 23.828125 C 13.890625 23.828125 13.859375 23.832031 13.828125 23.835938 C 13.796875 23.835938 13.769531 23.839844 13.742188 23.84375 C 13.699219 23.84375 13.699219 23.84375 13.667969 23.863281 C 13.648438 23.863281 13.625 23.863281 13.605469 23.863281 C 13.589844 23.863281 13.578125 23.867188 13.5625 23.867188 C 13.535156 23.867188 13.507812 23.867188 13.480469 23.867188 C 13.414062 23.867188 13.378906 23.871094 13.324219 23.914062 C 13.292969 23.953125 13.292969 23.953125 13.28125 23.996094 L 10.671875 23.996094 C 10.660156 23.957031 10.648438 23.917969 10.640625 23.878906 C 10.625 23.878906 10.625 23.878906 10.609375 23.875 C 10.566406 23.875 10.519531 23.871094 10.476562 23.871094 C 10.460938 23.871094 10.445312 23.871094 10.429688 23.871094 C 10.414062 23.867188 10.398438 23.867188 10.386719 23.867188 C 10.371094 23.867188 10.359375 23.867188 10.34375 23.867188 C 10.308594 23.863281 10.308594 23.863281 10.28125 23.847656 C 10.238281 23.84375 10.195312 23.835938 10.152344 23.832031 C 10.140625 23.832031 10.128906 23.828125 10.113281 23.828125 C 10.054688 23.820312 9.992188 23.816406 9.925781 23.8125 C 9.859375 23.804688 9.796875 23.785156 9.734375 23.769531 C 9.699219 23.757812 9.664062 23.753906 9.628906 23.75 C 9.554688 23.742188 9.488281 23.726562 9.417969 23.710938 C 9.363281 23.699219 9.3125 23.6875 9.257812 23.675781 C 9.160156 23.65625 9.0625 23.632812 8.964844 23.605469 C 8.910156 23.589844 8.855469 23.574219 8.800781 23.5625 C 8.75 23.550781 8.703125 23.539062 8.652344 23.519531 C 8.601562 23.5 8.550781 23.480469 8.496094 23.464844 C 8.433594 23.449219 8.375 23.425781 8.3125 23.402344 C 8.257812 23.382812 8.203125 23.363281 8.144531 23.351562 C 8.101562 23.339844 8.070312 23.328125 8.03125 23.308594 C 7.957031 23.273438 7.878906 23.257812 7.800781 23.242188 C 7.726562 23.222656 7.671875 23.195312 7.609375 23.15625 C 7.570312 23.140625 7.527344 23.128906 7.484375 23.113281 C 7.445312 23.097656 7.445312 23.097656 7.402344 23.066406 C 7.351562 23.035156 7.308594 23.023438 7.25 23.007812 C 7.136719 22.980469 7.035156 22.941406 6.933594 22.886719 C 6.914062 22.878906 6.894531 22.867188 6.878906 22.859375 C 6.828125 22.835938 6.777344 22.808594 6.726562 22.785156 C 6.675781 22.757812 6.621094 22.730469 6.570312 22.707031 C 6.550781 22.695312 6.53125 22.6875 6.511719 22.675781 C 6.476562 22.65625 6.441406 22.640625 6.40625 22.621094 C 6.375 22.609375 6.34375 22.59375 6.316406 22.578125 C 6.289062 22.566406 6.265625 22.554688 6.242188 22.539062 C 6.164062 22.503906 6.109375 22.457031 6.050781 22.398438 C 5.976562 22.328125 5.925781 22.296875 5.824219 22.289062 L 5.796875 22.273438 L 5.796875 22.242188 C 5.78125 22.238281 5.769531 22.234375 5.757812 22.230469 C 5.636719 22.1875 5.527344 22.132812 5.441406 22.039062 C 5.378906 21.972656 5.320312 21.945312 5.238281 21.917969 C 5.171875 21.886719 5.125 21.84375 5.074219 21.792969 C 5.011719 21.734375 4.960938 21.710938 4.878906 21.6875 C 4.839844 21.664062 4.808594 21.640625 4.773438 21.613281 L 4.773438 21.582031 L 4.75 21.574219 C 4.699219 21.546875 4.664062 21.507812 4.628906 21.46875 L 4.605469 21.449219 C 4.546875 21.390625 4.546875 21.390625 4.546875 21.359375 C 4.535156 21.351562 4.519531 21.347656 4.503906 21.34375 L 4.503906 21.3125 L 4.476562 21.300781 C 4.445312 21.28125 4.445312 21.28125 4.414062 21.261719 C 4.382812 21.234375 4.382812 21.234375 4.339844 21.222656 C 4.199219 21.175781 4.085938 21.054688 3.992188 20.9375 C 3.976562 20.917969 3.953125 20.902344 3.933594 20.882812 C 3.886719 20.84375 3.84375 20.800781 3.796875 20.757812 C 3.773438 20.730469 3.75 20.707031 3.722656 20.683594 C 3.703125 20.664062 3.683594 20.640625 3.664062 20.621094 L 3.628906 20.589844 C 3.597656 20.554688 3.5625 20.519531 3.527344 20.488281 C 3.519531 20.476562 3.507812 20.464844 3.496094 20.457031 C 3.480469 20.4375 3.460938 20.421875 3.445312 20.402344 C 3.414062 20.371094 3.382812 20.34375 3.351562 20.3125 C 3.320312 20.277344 3.320312 20.277344 3.320312 20.246094 C 3.304688 20.242188 3.289062 20.238281 3.273438 20.230469 L 3.273438 20.203125 L 3.246094 20.191406 C 3.214844 20.171875 3.191406 20.15625 3.167969 20.128906 L 3.167969 20.097656 C 3.15625 20.089844 3.15625 20.089844 3.144531 20.085938 C 2.984375 19.996094 2.8125 19.777344 2.730469 19.613281 C 2.679688 19.519531 2.605469 19.445312 2.53125 19.371094 C 2.496094 19.335938 2.460938 19.296875 2.429688 19.261719 L 2.394531 19.226562 C 2.371094 19.195312 2.371094 19.195312 2.371094 19.167969 C 2.359375 19.160156 2.34375 19.15625 2.328125 19.152344 C 2.308594 19.125 2.308594 19.125 2.289062 19.09375 C 2.28125 19.082031 2.273438 19.070312 2.269531 19.0625 C 2.253906 19.03125 2.253906 19.03125 2.253906 18.984375 C 2.242188 18.980469 2.234375 18.976562 2.222656 18.972656 C 2.210938 18.953125 2.195312 18.933594 2.183594 18.914062 C 2.136719 18.84375 2.089844 18.777344 2.039062 18.710938 C 2.011719 18.671875 1.992188 18.628906 1.96875 18.582031 C 1.949219 18.5625 1.933594 18.539062 1.914062 18.519531 C 1.742188 18.304688 1.742188 18.304688 1.742188 18.207031 C 1.734375 18.203125 1.722656 18.199219 1.710938 18.191406 C 1.695312 18.164062 1.695312 18.164062 1.679688 18.125 C 1.675781 18.113281 1.671875 18.101562 1.664062 18.089844 C 1.652344 18.058594 1.652344 18.058594 1.652344 18.027344 C 1.644531 18.023438 1.632812 18.015625 1.621094 18.011719 C 1.609375 17.992188 1.59375 17.972656 1.582031 17.953125 C 1.550781 17.902344 1.515625 17.855469 1.480469 17.808594 C 1.410156 17.707031 1.359375 17.597656 1.308594 17.488281 C 1.285156 17.441406 1.265625 17.398438 1.234375 17.355469 C 1.199219 17.304688 1.179688 17.25 1.15625 17.191406 C 1.144531 17.15625 1.144531 17.15625 1.113281 17.128906 C 1.101562 17.105469 1.09375 17.082031 1.085938 17.058594 C 1.066406 17.007812 1.042969 16.957031 1.015625 16.910156 C 0.984375 16.84375 0.960938 16.777344 0.941406 16.707031 C 0.917969 16.625 0.886719 16.554688 0.847656 16.476562 C 0.816406 16.414062 0.792969 16.347656 0.769531 16.28125 C 0.75 16.222656 0.75 16.222656 0.722656 16.167969 C 0.703125 16.128906 0.695312 16.089844 0.6875 16.050781 C 0.671875 15.996094 0.652344 15.949219 0.632812 15.898438 C 0.605469 15.820312 0.578125 15.746094 0.554688 15.664062 C 0.539062 15.617188 0.523438 15.574219 0.503906 15.53125 C 0.480469 15.464844 0.460938 15.398438 0.445312 15.328125 C 0.4375 15.292969 0.421875 15.257812 0.40625 15.222656 C 0.367188 15.125 0.351562 15.027344 0.332031 14.921875 C 0.320312 14.832031 0.296875 14.75 0.257812 14.667969 C 0.234375 14.546875 0.222656 14.425781 0.21875 14.304688 C 0.214844 14.242188 0.207031 14.1875 0.183594 14.128906 L 0.152344 14.113281 C 0.132812 14.070312 0.132812 14.03125 0.128906 13.984375 C 0.128906 13.933594 0.125 13.890625 0.109375 13.84375 C 0.105469 13.804688 0.105469 13.769531 0.105469 13.730469 C 0.105469 13.710938 0.105469 13.6875 0.105469 13.664062 C 0.105469 13.628906 0.101562 13.59375 0.101562 13.5625 C 0.101562 13.527344 0.101562 13.492188 0.101562 13.460938 C 0.101562 13.449219 0.101562 13.4375 0.101562 13.429688 C 0.101562 13.378906 0.0976562 13.351562 0.0625 13.3125 C 0.0351562 13.285156 0.0351562 13.285156 0.00390625 13.273438 L 0.00390625 10.675781 L 0.078125 10.648438 C 0.0976562 10.609375 0.0976562 10.582031 0.0976562 10.539062 L 0.0976562 10.492188 C 0.101562 10.464844 0.101562 10.464844 0.101562 10.441406 C 0.101562 10.40625 0.101562 10.375 0.105469 10.34375 C 0.105469 10.328125 0.105469 10.3125 0.105469 10.296875 C 0.109375 10.257812 0.113281 10.222656 0.121094 10.183594 C 0.125 10.148438 0.125 10.113281 0.125 10.082031 C 0.132812 9.992188 0.148438 9.914062 0.175781 9.828125 C 0.207031 9.726562 0.21875 9.636719 0.222656 9.527344 C 0.230469 9.417969 0.265625 9.316406 0.304688 9.210938 C 0.324219 9.15625 0.335938 9.113281 0.339844 9.054688 C 0.347656 8.933594 0.382812 8.800781 0.4375 8.695312 C 0.457031 8.65625 0.464844 8.617188 0.472656 8.578125 C 0.488281 8.507812 0.503906 8.449219 0.535156 8.386719 C 0.574219 8.296875 0.597656 8.207031 0.621094 8.113281 C 0.636719 8.050781 0.660156 8.003906 0.691406 7.945312 C 0.703125 7.914062 0.714844 7.878906 0.722656 7.84375 C 0.742188 7.773438 0.761719 7.710938 0.796875 7.644531 C 0.820312 7.597656 0.839844 7.550781 0.859375 7.503906 C 0.871094 7.46875 0.886719 7.433594 0.902344 7.402344 C 0.929688 7.347656 0.945312 7.289062 0.964844 7.234375 C 0.984375 7.167969 1.003906 7.105469 1.039062 7.046875 C 1.054688 7.015625 1.066406 6.984375 1.078125 6.949219 C 1.117188 6.847656 1.167969 6.753906 1.214844 6.660156 C 1.246094 6.605469 1.273438 6.550781 1.300781 6.496094 C 1.308594 6.476562 1.320312 6.453125 1.328125 6.433594 L 1.367188 6.359375 L 1.398438 6.359375 L 1.40625 6.324219 C 1.449219 6.214844 1.503906 6.117188 1.578125 6.027344 C 1.585938 6.015625 1.59375 6 1.601562 5.988281 C 1.625 5.953125 1.625 5.953125 1.652344 5.9375 C 1.667969 5.90625 1.667969 5.90625 1.679688 5.871094 C 1.710938 5.785156 1.753906 5.714844 1.804688 5.636719 C 1.816406 5.613281 1.832031 5.589844 1.84375 5.570312 C 1.859375 5.542969 1.875 5.519531 1.890625 5.496094 C 1.898438 5.476562 1.898438 5.476562 1.910156 5.457031 C 1.921875 5.441406 1.921875 5.441406 1.929688 5.425781 C 1.9375 5.414062 1.941406 5.402344 1.949219 5.394531 C 1.96875 5.367188 1.96875 5.367188 2.011719 5.335938 C 2.027344 5.3125 2.039062 5.285156 2.050781 5.257812 C 2.089844 5.175781 2.140625 5.109375 2.195312 5.039062 C 2.253906 4.960938 2.304688 4.882812 2.355469 4.800781 C 2.402344 4.730469 2.449219 4.667969 2.515625 4.617188 C 2.570312 4.574219 2.613281 4.523438 2.65625 4.46875 C 2.664062 4.460938 2.671875 4.453125 2.679688 4.445312 C 2.710938 4.40625 2.734375 4.375 2.753906 4.328125 C 2.78125 4.257812 2.824219 4.207031 2.867188 4.152344 C 2.878906 4.140625 2.886719 4.125 2.898438 4.113281 C 2.929688 4.074219 2.96875 4.042969 3.007812 4.007812 C 3.0625 3.960938 3.109375 3.910156 3.160156 3.855469 C 3.199219 3.804688 3.242188 3.765625 3.292969 3.726562 C 3.320312 3.699219 3.34375 3.671875 3.371094 3.644531 C 3.414062 3.589844 3.460938 3.546875 3.515625 3.5 C 3.570312 3.453125 3.621094 3.398438 3.667969 3.34375 C 3.707031 3.296875 3.75 3.261719 3.796875 3.222656 C 3.8125 3.207031 3.824219 3.191406 3.839844 3.171875 C 3.882812 3.121094 3.929688 3.082031 3.980469 3.039062 C 4.007812 3.011719 4.007812 3.011719 4.035156 2.976562 C 4.113281 2.878906 4.21875 2.796875 4.332031 2.753906 C 4.386719 2.726562 4.414062 2.699219 4.457031 2.652344 C 4.480469 2.632812 4.507812 2.613281 4.53125 2.597656 C 4.578125 2.558594 4.617188 2.523438 4.652344 2.480469 C 4.695312 2.425781 4.746094 2.394531 4.800781 2.359375 C 4.835938 2.339844 4.835938 2.339844 4.863281 2.308594 C 4.898438 2.273438 4.933594 2.257812 4.976562 2.238281 C 5.039062 2.203125 5.09375 2.160156 5.152344 2.117188 C 5.199219 2.082031 5.246094 2.050781 5.296875 2.023438 C 5.347656 1.992188 5.394531 1.957031 5.441406 1.921875 C 5.511719 1.871094 5.585938 1.828125 5.664062 1.785156 C 5.675781 1.777344 5.691406 1.769531 5.707031 1.761719 C 5.777344 1.71875 5.847656 1.679688 5.917969 1.644531 C 5.976562 1.613281 6.023438 1.578125 6.074219 1.539062 C 6.152344 1.484375 6.238281 1.441406 6.320312 1.394531 C 6.335938 1.382812 6.355469 1.371094 6.375 1.363281 C 6.410156 1.339844 6.441406 1.324219 6.484375 1.3125 C 6.539062 1.292969 6.582031 1.265625 6.632812 1.234375 C 6.675781 1.207031 6.71875 1.191406 6.761719 1.171875 C 6.816406 1.144531 6.871094 1.113281 6.925781 1.085938 C 6.964844 1.0625 6.964844 1.0625 7 1.050781 C 7.042969 1.035156 7.042969 1.035156 7.089844 1.003906 C 7.144531 0.972656 7.195312 0.960938 7.257812 0.945312 C 7.375 0.917969 7.476562 0.878906 7.578125 0.824219 C 7.785156 0.71875 7.785156 0.71875 7.894531 0.707031 C 7.96875 0.695312 8.011719 0.679688 8.066406 0.632812 C 8.144531 0.570312 8.261719 0.574219 8.359375 0.570312 L 8.359375 0.539062 C 8.449219 0.492188 8.53125 0.464844 8.628906 0.460938 C 8.699219 0.453125 8.738281 0.429688 8.796875 0.390625 C 8.875 0.34375 8.960938 0.34375 9.050781 0.335938 C 9.15625 0.332031 9.21875 0.3125 9.304688 0.253906 C 9.34375 0.25 9.378906 0.246094 9.417969 0.246094 C 9.441406 0.242188 9.464844 0.242188 9.488281 0.238281 C 9.523438 0.238281 9.558594 0.234375 9.59375 0.234375 C 9.628906 0.230469 9.664062 0.226562 9.699219 0.226562 C 9.707031 0.226562 9.71875 0.222656 9.730469 0.222656 C 9.808594 0.21875 9.839844 0.191406 9.890625 0.132812 C 9.921875 0.125 9.921875 0.125 9.953125 0.125 C 9.964844 0.125 9.972656 0.125 9.984375 0.125 C 9.996094 0.125 10.007812 0.125 10.019531 0.125 C 10.105469 0.121094 10.105469 0.121094 10.191406 0.105469 C 10.226562 0.101562 10.261719 0.101562 10.296875 0.0976562 C 10.3125 0.0976562 10.3125 0.0976562 10.328125 0.0976562 C 10.359375 0.0976562 10.394531 0.0976562 10.425781 0.0976562 C 10.449219 0.09375 10.46875 0.09375 10.492188 0.09375 C 10.546875 0.09375 10.601562 0.0898438 10.65625 0.0898438 C 10.660156 0.0585938 10.664062 0.03125 10.671875 0 Z M 10.664062 0 "/>
<path style=" stroke:none;fill-rule:nonzero;fill:rgb(0%,0.392157%,0.784314%);fill-opacity:1;" d="M 11.953125 3.601562 C 11.980469 3.617188 12.003906 3.632812 12.027344 3.648438 C 12.066406 3.671875 12.097656 3.683594 12.140625 3.699219 C 12.320312 3.769531 12.429688 3.960938 12.53125 4.121094 C 12.550781 4.152344 12.570312 4.179688 12.585938 4.210938 C 12.605469 4.234375 12.621094 4.261719 12.636719 4.285156 C 12.640625 4.296875 12.648438 4.308594 12.65625 4.316406 C 12.695312 4.382812 12.730469 4.445312 12.761719 4.511719 C 12.875 4.734375 12.992188 4.957031 13.132812 5.160156 C 13.179688 5.230469 13.21875 5.296875 13.253906 5.371094 C 13.347656 5.570312 13.457031 5.761719 13.578125 5.945312 C 13.609375 5.996094 13.640625 6.046875 13.671875 6.101562 C 13.675781 6.109375 13.679688 6.117188 13.6875 6.128906 C 13.703125 6.160156 13.722656 6.191406 13.738281 6.222656 C 13.746094 6.234375 13.75 6.246094 13.757812 6.257812 C 13.792969 6.324219 13.832031 6.390625 13.867188 6.457031 C 13.875 6.46875 13.882812 6.484375 13.890625 6.5 C 13.90625 6.527344 13.921875 6.554688 13.933594 6.582031 C 13.976562 6.664062 14.027344 6.738281 14.078125 6.8125 C 14.121094 6.871094 14.15625 6.9375 14.191406 7 C 14.199219 7.011719 14.203125 7.023438 14.210938 7.039062 C 14.253906 7.113281 14.285156 7.1875 14.316406 7.265625 C 14.328125 7.300781 14.328125 7.300781 14.355469 7.332031 C 14.414062 7.410156 14.394531 7.5625 14.398438 7.660156 C 14.402344 7.753906 14.414062 7.828125 14.472656 7.898438 C 14.546875 8.007812 14.511719 8.203125 14.511719 8.328125 C 14.511719 8.363281 14.511719 8.394531 14.515625 8.425781 C 14.515625 8.582031 14.496094 8.71875 14.445312 8.863281 C 14.417969 8.941406 14.398438 9.011719 14.386719 9.09375 C 14.363281 9.222656 14.304688 9.332031 14.242188 9.445312 C 14.230469 9.46875 14.230469 9.46875 14.21875 9.488281 C 14.207031 9.507812 14.195312 9.53125 14.183594 9.550781 C 14.164062 9.585938 14.164062 9.585938 14.144531 9.632812 C 14.070312 9.808594 13.964844 9.96875 13.867188 10.128906 C 13.820312 10.210938 13.769531 10.289062 13.726562 10.371094 C 13.667969 10.472656 13.601562 10.566406 13.535156 10.660156 C 13.476562 10.746094 13.433594 10.832031 13.390625 10.925781 C 13.347656 11.011719 13.300781 11.097656 13.25 11.179688 C 13.226562 11.222656 13.203125 11.265625 13.183594 11.308594 C 13.160156 11.351562 13.136719 11.386719 13.109375 11.425781 C 12.980469 11.617188 12.875 11.816406 12.769531 12.019531 C 12.691406 12.175781 12.601562 12.324219 12.507812 12.472656 C 12.402344 12.636719 12.308594 12.808594 12.222656 12.984375 C 12.199219 13.035156 12.171875 13.082031 12.140625 13.132812 C 12.136719 13.140625 12.128906 13.152344 12.125 13.160156 C 12.105469 13.191406 12.085938 13.222656 12.066406 13.253906 C 12.058594 13.265625 12.054688 13.277344 12.046875 13.289062 C 11.796875 13.699219 11.796875 13.699219 11.699219 13.839844 C 11.628906 13.945312 11.574219 14.058594 11.511719 14.171875 C 11.5 14.195312 11.488281 14.222656 11.472656 14.246094 C 11.449219 14.292969 11.425781 14.335938 11.402344 14.382812 C 11.394531 14.402344 11.382812 14.421875 11.371094 14.441406 C 11.359375 14.464844 11.359375 14.464844 11.347656 14.492188 C 11.324219 14.535156 11.292969 14.574219 11.265625 14.617188 C 11.210938 14.691406 11.164062 14.773438 11.121094 14.855469 C 11.113281 14.867188 11.105469 14.882812 11.097656 14.898438 C 11.054688 14.980469 11.011719 15.0625 10.96875 15.148438 C 10.910156 15.277344 10.832031 15.394531 10.753906 15.515625 C 10.714844 15.574219 10.679688 15.636719 10.640625 15.695312 C 10.636719 15.707031 10.628906 15.71875 10.621094 15.730469 C 10.589844 15.777344 10.5625 15.828125 10.535156 15.882812 C 10.507812 15.941406 10.472656 15.988281 10.433594 16.039062 C 10.378906 16.113281 10.335938 16.1875 10.300781 16.277344 C 10.226562 16.460938 10.105469 16.609375 9.953125 16.738281 C 9.941406 16.753906 9.933594 16.769531 9.921875 16.785156 L 9.890625 16.785156 C 9.882812 16.804688 9.871094 16.824219 9.863281 16.84375 L 9.832031 16.84375 C 9.828125 16.855469 9.828125 16.855469 9.820312 16.867188 C 9.800781 16.90625 9.769531 16.929688 9.734375 16.960938 C 9.691406 16.996094 9.652344 17.035156 9.617188 17.074219 C 9.5625 17.132812 9.511719 17.164062 9.441406 17.195312 C 9.386719 17.222656 9.339844 17.257812 9.292969 17.292969 C 9.21875 17.347656 9.152344 17.386719 9.066406 17.417969 C 9.023438 17.433594 8.996094 17.460938 8.960938 17.488281 C 8.878906 17.519531 8.800781 17.523438 8.714844 17.527344 C 8.703125 17.527344 8.6875 17.53125 8.675781 17.535156 C 8.671875 17.546875 8.671875 17.546875 8.664062 17.5625 C 8.644531 17.59375 8.644531 17.59375 8.59375 17.609375 C 8.523438 17.625 8.460938 17.628906 8.390625 17.628906 C 8.375 17.628906 8.363281 17.628906 8.347656 17.628906 C 8.304688 17.628906 8.257812 17.628906 8.214844 17.628906 C 8.183594 17.628906 8.148438 17.632812 8.117188 17.632812 C 8.027344 17.632812 7.9375 17.632812 7.847656 17.632812 C 7.792969 17.632812 7.734375 17.632812 7.679688 17.632812 C 7.382812 17.636719 7.085938 17.636719 6.785156 17.636719 C 6.773438 17.636719 6.761719 17.636719 6.75 17.636719 C 6.425781 17.640625 6.101562 17.640625 5.78125 17.636719 C 5.753906 17.636719 5.726562 17.636719 5.703125 17.636719 C 5.6875 17.636719 5.675781 17.636719 5.664062 17.636719 C 5.574219 17.636719 5.484375 17.636719 5.394531 17.636719 C 5.28125 17.636719 5.171875 17.636719 5.0625 17.636719 C 5.003906 17.636719 4.949219 17.636719 4.890625 17.636719 C 4.828125 17.636719 4.765625 17.636719 4.703125 17.636719 C 4.6875 17.636719 4.667969 17.636719 4.648438 17.636719 C 4.527344 17.632812 4.457031 17.605469 4.355469 17.535156 C 4.332031 17.519531 4.304688 17.507812 4.277344 17.496094 C 4.121094 17.417969 4.039062 17.296875 3.980469 17.136719 C 3.914062 16.929688 3.953125 16.78125 4.050781 16.589844 C 4.058594 16.574219 4.066406 16.554688 4.074219 16.539062 C 4.136719 16.414062 4.199219 16.292969 4.265625 16.171875 C 4.292969 16.117188 4.320312 16.0625 4.34375 16.007812 C 4.378906 15.945312 4.414062 15.886719 4.460938 15.832031 C 4.480469 15.808594 4.480469 15.808594 4.476562 15.777344 L 4.507812 15.777344 C 4.511719 15.765625 4.511719 15.753906 4.515625 15.742188 C 4.535156 15.691406 4.558594 15.652344 4.589844 15.605469 C 4.640625 15.519531 4.6875 15.425781 4.738281 15.332031 C 4.792969 15.226562 4.851562 15.125 4.917969 15.023438 C 4.960938 14.953125 5 14.886719 5.042969 14.816406 C 5.050781 14.800781 5.0625 14.785156 5.070312 14.769531 C 5.140625 14.648438 5.207031 14.523438 5.269531 14.398438 C 5.320312 14.300781 5.375 14.207031 5.4375 14.117188 C 5.53125 13.972656 5.613281 13.820312 5.691406 13.664062 C 5.835938 13.390625 5.835938 13.390625 5.925781 13.273438 C 5.949219 13.242188 5.96875 13.207031 5.988281 13.171875 C 5.996094 13.15625 6.003906 13.144531 6.011719 13.128906 C 6.039062 13.074219 6.066406 13.023438 6.09375 12.96875 C 6.109375 12.941406 6.125 12.914062 6.140625 12.882812 C 6.152344 12.863281 6.160156 12.84375 6.171875 12.824219 C 6.234375 12.707031 6.296875 12.597656 6.371094 12.488281 C 6.40625 12.441406 6.433594 12.394531 6.460938 12.34375 C 6.464844 12.335938 6.46875 12.324219 6.476562 12.316406 C 6.515625 12.246094 6.550781 12.179688 6.585938 12.109375 C 6.605469 12.074219 6.625 12.035156 6.644531 12 C 6.648438 11.992188 6.65625 11.980469 6.660156 11.972656 C 6.722656 11.851562 6.792969 11.734375 6.867188 11.621094 C 6.957031 11.488281 7.035156 11.347656 7.101562 11.203125 C 7.167969 11.070312 7.246094 10.945312 7.324219 10.816406 C 7.371094 10.746094 7.410156 10.671875 7.445312 10.59375 C 7.503906 10.476562 7.574219 10.359375 7.640625 10.246094 C 7.667969 10.199219 7.695312 10.148438 7.722656 10.101562 C 7.753906 10.046875 7.785156 9.992188 7.824219 9.941406 C 7.867188 9.875 7.902344 9.808594 7.9375 9.738281 C 8.042969 9.535156 8.148438 9.335938 8.277344 9.152344 C 8.332031 9.070312 8.378906 8.988281 8.421875 8.902344 C 8.492188 8.75 8.578125 8.605469 8.664062 8.457031 C 8.671875 8.449219 8.675781 8.4375 8.683594 8.425781 C 8.71875 8.363281 8.753906 8.300781 8.792969 8.242188 C 8.847656 8.152344 8.894531 8.058594 8.941406 7.964844 C 8.960938 7.925781 8.984375 7.890625 9.007812 7.855469 C 9.023438 7.832031 9.035156 7.808594 9.046875 7.785156 C 9.117188 7.636719 9.199219 7.492188 9.28125 7.347656 C 9.289062 7.332031 9.289062 7.332031 9.300781 7.3125 C 9.316406 7.285156 9.332031 7.253906 9.347656 7.226562 C 9.355469 7.210938 9.363281 7.195312 9.375 7.179688 C 9.398438 7.136719 9.429688 7.101562 9.460938 7.0625 C 9.472656 7.042969 9.484375 7.023438 9.492188 7.007812 C 9.503906 6.988281 9.503906 6.988281 9.511719 6.972656 C 9.53125 6.9375 9.546875 6.902344 9.566406 6.871094 C 9.578125 6.847656 9.589844 6.824219 9.601562 6.804688 C 9.609375 6.789062 9.609375 6.789062 9.617188 6.769531 C 9.664062 6.683594 9.714844 6.597656 9.761719 6.507812 C 9.785156 6.46875 9.808594 6.429688 9.832031 6.386719 C 9.851562 6.347656 9.875 6.3125 9.902344 6.273438 C 9.964844 6.1875 10.011719 6.09375 10.0625 6 C 10.164062 5.804688 10.269531 5.605469 10.390625 5.417969 C 10.472656 5.292969 10.542969 5.160156 10.613281 5.023438 C 10.636719 4.976562 10.664062 4.929688 10.6875 4.882812 C 10.695312 4.867188 10.703125 4.851562 10.710938 4.835938 C 10.722656 4.816406 10.722656 4.816406 10.734375 4.796875 C 10.746094 4.777344 10.746094 4.777344 10.757812 4.753906 C 10.769531 4.738281 10.769531 4.738281 10.78125 4.722656 L 10.808594 4.722656 C 10.816406 4.707031 10.816406 4.707031 10.820312 4.691406 C 10.84375 4.636719 10.875 4.585938 10.90625 4.535156 C 10.914062 4.523438 10.917969 4.515625 10.925781 4.503906 C 10.949219 4.464844 10.972656 4.425781 11 4.390625 C 11.023438 4.359375 11.023438 4.359375 11.035156 4.304688 C 11.058594 4.230469 11.101562 4.179688 11.152344 4.125 C 11.210938 4.0625 11.253906 4.011719 11.277344 3.929688 C 11.304688 3.835938 11.359375 3.773438 11.441406 3.71875 C 11.484375 3.699219 11.53125 3.683594 11.578125 3.671875 C 11.628906 3.65625 11.65625 3.632812 11.695312 3.597656 C 11.78125 3.570312 11.875 3.5625 11.960938 3.601562 Z M 11.953125 3.601562 "/>
<path style=" stroke:none;fill-rule:nonzero;fill:rgb(0%,0.392157%,0.784314%);fill-opacity:1;" d="M 16.828125 11.851562 C 16.859375 11.871094 16.886719 11.894531 16.914062 11.917969 C 16.921875 11.925781 16.933594 11.9375 16.945312 11.945312 C 17.03125 12.027344 17.09375 12.117188 17.152344 12.21875 C 17.171875 12.25 17.191406 12.285156 17.210938 12.316406 C 17.277344 12.433594 17.34375 12.546875 17.394531 12.675781 C 17.429688 12.765625 17.480469 12.84375 17.539062 12.925781 C 17.605469 13.011719 17.65625 13.101562 17.707031 13.195312 C 17.722656 13.222656 17.738281 13.25 17.757812 13.277344 C 17.84375 13.425781 17.84375 13.425781 17.871094 13.507812 C 17.894531 13.570312 17.929688 13.625 17.96875 13.679688 C 18.042969 13.785156 18.105469 13.894531 18.167969 14.003906 C 18.171875 14.015625 18.175781 14.023438 18.179688 14.03125 C 18.25 14.152344 18.3125 14.277344 18.375 14.398438 C 18.421875 14.484375 18.472656 14.566406 18.527344 14.644531 C 18.570312 14.710938 18.609375 14.777344 18.640625 14.847656 C 18.679688 14.921875 18.71875 14.996094 18.757812 15.070312 C 18.769531 15.089844 18.769531 15.089844 18.78125 15.109375 C 18.878906 15.289062 18.878906 15.289062 18.992188 15.457031 C 19.039062 15.519531 19.074219 15.585938 19.109375 15.660156 C 19.207031 15.863281 19.316406 16.054688 19.4375 16.246094 C 19.585938 16.472656 19.660156 16.636719 19.660156 16.910156 C 19.660156 16.929688 19.660156 16.945312 19.660156 16.964844 C 19.660156 17.132812 19.648438 17.234375 19.53125 17.359375 C 19.519531 17.371094 19.503906 17.382812 19.492188 17.394531 C 19.480469 17.40625 19.480469 17.40625 19.464844 17.421875 C 19.339844 17.542969 19.171875 17.621094 18.996094 17.621094 C 18.976562 17.621094 18.957031 17.621094 18.9375 17.621094 C 18.917969 17.621094 18.898438 17.621094 18.875 17.621094 C 18.855469 17.621094 18.832031 17.621094 18.808594 17.621094 C 18.75 17.621094 18.6875 17.621094 18.628906 17.621094 C 18.574219 17.621094 18.523438 17.621094 18.472656 17.621094 C 18.285156 17.621094 18.097656 17.625 17.910156 17.625 C 17.886719 17.625 17.886719 17.625 17.867188 17.625 C 17.574219 17.625 17.277344 17.625 16.984375 17.625 C 16.921875 17.625 16.855469 17.625 16.792969 17.625 C 16.777344 17.625 16.761719 17.625 16.746094 17.625 C 16.484375 17.625 16.226562 17.628906 15.96875 17.628906 C 15.703125 17.628906 15.433594 17.628906 15.167969 17.628906 C 15.019531 17.628906 14.871094 17.628906 14.722656 17.632812 C 14.59375 17.632812 14.464844 17.632812 14.339844 17.632812 C 14.273438 17.632812 14.207031 17.632812 14.144531 17.632812 C 14.082031 17.632812 14.023438 17.632812 13.964844 17.632812 C 13.945312 17.632812 13.921875 17.632812 13.902344 17.632812 C 13.648438 17.636719 13.480469 17.503906 13.300781 17.339844 C 13.160156 17.183594 13.167969 17.039062 13.175781 16.835938 C 13.1875 16.660156 13.277344 16.507812 13.363281 16.359375 C 13.371094 16.347656 13.375 16.339844 13.382812 16.328125 C 13.421875 16.261719 13.460938 16.195312 13.503906 16.132812 C 13.523438 16.105469 13.53125 16.078125 13.542969 16.046875 C 13.566406 15.972656 13.621094 15.917969 13.671875 15.859375 C 13.71875 15.800781 13.75 15.746094 13.777344 15.675781 C 13.820312 15.554688 13.886719 15.449219 13.957031 15.339844 C 13.976562 15.304688 13.992188 15.273438 14.007812 15.238281 C 14.042969 15.164062 14.089844 15.101562 14.140625 15.035156 C 14.171875 14.988281 14.199219 14.941406 14.230469 14.890625 C 14.234375 14.878906 14.242188 14.867188 14.246094 14.855469 C 14.269531 14.8125 14.292969 14.773438 14.3125 14.734375 C 14.320312 14.71875 14.328125 14.703125 14.335938 14.691406 C 14.378906 14.613281 14.421875 14.535156 14.460938 14.457031 C 14.511719 14.359375 14.566406 14.265625 14.628906 14.171875 C 14.710938 14.046875 14.78125 13.921875 14.847656 13.789062 C 14.988281 13.523438 15.132812 13.261719 15.300781 13.015625 C 15.324219 12.984375 15.339844 12.949219 15.355469 12.914062 C 15.386719 12.855469 15.417969 12.808594 15.457031 12.757812 C 15.535156 12.660156 15.585938 12.550781 15.636719 12.4375 C 15.761719 12.160156 15.996094 11.863281 16.28125 11.738281 C 16.480469 11.675781 16.660156 11.75 16.828125 11.851562 Z M 16.828125 11.851562 "/>
<path style=" stroke:none;fill-rule:nonzero;fill:rgb(0%,0.392157%,0.784314%);fill-opacity:1;" d="M 13.84375 23.835938 L 13.949219 23.835938 L 13.949219 23.851562 L 13.84375 23.851562 Z M 13.84375 23.835938 "/>
<path style=" stroke:none;fill-rule:nonzero;fill:rgb(0%,0.392157%,0.784314%);fill-opacity:1;" d="M 23.59375 8.851562 L 23.609375 8.851562 L 23.609375 8.925781 L 23.59375 8.925781 Z M 23.59375 8.851562 "/>
<path style=" stroke:none;fill-rule:nonzero;fill:rgb(0%,0.392157%,0.784314%);fill-opacity:1;" d="M 10.019531 23.835938 L 10.078125 23.851562 Z M 10.019531 23.835938 "/>
<path style=" stroke:none;fill-rule:nonzero;fill:rgb(0%,0.392157%,0.784314%);fill-opacity:1;" d="M 9.238281 23.683594 C 9.285156 23.699219 9.285156 23.699219 9.285156 23.699219 Z M 9.238281 23.683594 "/>
<path style=" stroke:none;fill-rule:nonzero;fill:rgb(0%,0.392157%,0.784314%);fill-opacity:1;" d="M 14.730469 23.683594 L 14.761719 23.699219 Z M 14.730469 23.683594 "/>
<path style=" stroke:none;fill-rule:nonzero;fill:rgb(0%,0.392157%,0.784314%);fill-opacity:1;" d="M 8.671875 23.535156 L 8.699219 23.550781 Z M 8.671875 23.535156 "/>
<path style=" stroke:none;fill-rule:nonzero;fill:rgb(0%,0.392157%,0.784314%);fill-opacity:1;" d="M 15.75 23.386719 L 15.78125 23.398438 Z M 15.75 23.386719 "/>
<path style=" stroke:none;fill-rule:nonzero;fill:rgb(0%,0.392157%,0.784314%);fill-opacity:1;" d="M 7.738281 23.234375 L 7.769531 23.25 Z M 7.738281 23.234375 "/>
</g>
</svg>
