<svg width="24" height="24" viewBox="0 0 24 24" fill="none" xmlns="http://www.w3.org/2000/svg">
<g clip-path="url(#clip0_28_1037)">
<circle cx="12" cy="12" r="12" fill="#F7F7F7"/>
<path d="M22.0835 15.1665H8.00046L7.16752 17.8333H19.2776C18.2416 19.1283 16.879 20.1236 15.3303 20.7167C13.7816 21.3098 12.1028 21.4792 10.4668 21.2075C8.83078 20.9358 7.29682 20.2328 6.02295 19.171C4.74907 18.1091 3.78136 16.7268 3.21952 15.1665H0.424927C1.81834 20.2503 6.47999 23.9999 12 23.9999C17.5214 23.9999 22.183 20.2503 23.575 15.1665H22.0835Z" fill="url(#paint0_linear_28_1037)"/>
<path d="M22.4831 6.1665H10.5833L9.75037 8.83333H20.7791C21.3009 10.2725 21.4585 11.8184 21.2379 13.3333H23.9259C23.9753 12.8907 24 12.4453 24 11.9999C24.002 9.95766 23.4797 7.94908 22.4831 6.1665Z" fill="url(#paint1_linear_28_1037)"/>
<path d="M12 2.66682C13.9988 2.66457 15.9449 3.30749 17.5489 4.5H21.36C20.2374 3.09572 18.8132 1.96207 17.1929 1.18309C15.5726 0.404103 13.7978 -0.000249422 12 1.15427e-07C5.38306 1.15427e-07 0 5.38306 0 12C0 12.4454 0.0247059 12.8908 0.0741176 13.3334H14.3329L15.1666 10.6666H2.76282C3.08638 8.44665 4.19749 6.4171 5.89333 4.94844C7.58916 3.47978 9.75661 2.66996 12 2.66682Z" fill="url(#paint2_linear_28_1037)"/>
</g>
<defs>
<linearGradient id="paint0_linear_28_1037" x1="5.65763" y1="9.9345" x2="18.343" y2="22.6192" gradientUnits="userSpaceOnUse">
<stop stop-color="#AA64F1"/>
<stop offset="1" stop-color="#363770"/>
</linearGradient>
<linearGradient id="paint1_linear_28_1037" x1="12.6833" y1="4.0665" x2="22.9377" y2="14.3209" gradientUnits="userSpaceOnUse">
<stop stop-color="#FFBF6B"/>
<stop offset="1" stop-color="#F38220"/>
</linearGradient>
<linearGradient id="paint2_linear_28_1037" x1="5.83906" y1="1.68494" x2="13.896" y2="13.6285" gradientUnits="userSpaceOnUse">
<stop stop-color="#FF2B8A"/>
<stop offset="1" stop-color="#D01B6C"/>
</linearGradient>
<clipPath id="clip0_28_1037">
<rect width="24" height="24" fill="white"/>
</clipPath>
</defs>
</svg>
