<svg width="24" height="24" viewBox="0 0 24 24" fill="none" xmlns="http://www.w3.org/2000/svg">
<g clip-path="url(#clip0_28_1242)">
<path d="M12 24C18.6274 24 24 18.6274 24 12C24 5.37258 18.6274 0 12 0C5.37258 0 0 5.37258 0 12C0 18.6274 5.37258 24 12 24Z" fill="#00A35C"/>
<path d="M5.23304 10.0436H4.26782L4.38782 14.134H5.32174L5.22782 10.0436H5.23304ZM5.80174 14.134L5.81739 15.0523C5.84869 17.0557 7.30434 19.0071 8.47304 19.7531V17.5462L7.09043 15.861V9.62618L9.57391 12.5688L12 9.62618L14.4261 12.5688L16.9096 9.62618V15.8401L15.5113 17.5462V19.7531C16.68 19.0175 18.1513 17.0557 18.1826 15.0523L18.1983 14.134L18.3078 10.0436V9.99662C18.3078 6.53227 15.4696 3.88184 12 3.88184C8.53043 3.88184 5.69217 6.53227 5.69217 9.99662V10.0436L5.80174 14.134ZM7.56521 13.3984L9.55826 15.7097L12 12.861L14.4417 15.7097L16.44 13.414V15.694L15.0417 17.4001L15.0574 18.8244C14.3217 19.5131 13.4296 20.1131 12.5739 20.1131H11.4417C10.5809 20.1131 9.70956 19.5131 8.96869 18.8244L8.95304 17.3844L7.57043 15.6784V13.3931L7.56521 13.3984ZM10.0956 17.4888C10.273 17.4053 10.4661 17.3584 10.6643 17.3479C11.1078 17.3479 11.3426 17.5931 12 17.5931C12.6574 17.5931 12.8922 17.3479 13.32 17.3479C13.5183 17.3584 13.7113 17.4053 13.8939 17.4888L14.0609 17.0297C13.8261 16.9357 13.5756 16.8784 13.3252 16.8627C12.6939 16.8627 12.4643 17.1079 12.0052 17.1079C11.5461 17.1079 11.3009 16.8627 10.6696 16.8627C10.4191 16.8784 10.1687 16.9357 9.93391 17.0297L10.0956 17.4888ZM13.32 18.4227L13.2104 17.9323C12.4122 18.0992 11.5878 18.0992 10.7843 17.9323L10.6748 18.4227C11.5461 18.5897 12.4435 18.5897 13.32 18.4227ZM19.6174 14.1288L19.7426 10.0384H18.7774L18.6835 14.1288H19.6174Z" fill="white"/>
</g>
<defs>
<clipPath id="clip0_28_1242">
<rect width="24" height="24" fill="white"/>
</clipPath>
</defs>
</svg>
