<svg width="24" height="24" viewBox="0 0 24 24" fill="none" xmlns="http://www.w3.org/2000/svg">
<path d="M13.6854 15.4116C13.4415 15.8324 13.3198 16.0427 13.3286 16.2153C13.3404 16.404 13.4377 16.5778 13.5969 16.6811C13.7413 16.7753 13.989 16.7753 14.4813 16.7753H17.8183C18.3106 16.7753 18.5582 16.7753 18.7057 16.6782C18.8649 16.575 18.9651 16.401 18.974 16.2124C18.9825 16.0442 18.8642 15.8401 18.6325 15.4403C18.6245 15.4267 18.6166 15.4128 18.6084 15.3988L16.9369 12.5392L16.9179 12.507C16.683 12.1097 16.5644 11.9092 16.4121 11.8317C16.2442 11.7462 16.0465 11.7462 15.8786 11.8317C15.7254 11.9113 15.6015 12.1206 15.3569 12.5421L13.6913 15.4017L13.6854 15.4116Z" fill="#F5F5F5"/>
<path d="M5.39178 16.6812C5.5391 16.7754 5.78086 16.7754 6.27029 16.7754H8.59918C9.14757 16.7754 9.4216 16.7754 9.6664 16.7077C9.93468 16.628 10.1793 16.4865 10.3827 16.2919C10.5695 16.1139 10.7044 15.8779 10.9704 15.4125L10.9782 15.3987L13.9987 10.0594C14.267 9.59078 14.3996 9.35493 14.4586 9.10726C14.5234 8.83898 14.5234 8.55599 14.4586 8.28771C14.4001 8.04196 14.266 7.80787 14.0017 7.34609L13.9957 7.33554L12.8136 5.27205C12.5689 4.84159 12.4451 4.62651 12.2888 4.54678C12.1207 4.46129 11.9204 4.46129 11.7523 4.54678C11.596 4.62635 11.4721 4.84159 11.2275 5.27205L5.47726 15.4077C5.2355 15.8322 5.11471 16.0444 5.12349 16.2183C5.13532 16.407 5.23263 16.5779 5.39178 16.6812Z" fill="#F5F5F5"/>
<path d="M12 0C5.37252 0 0 5.37252 0 12C0 18.6275 5.37252 24 12 24C18.6275 24 24 18.6275 24 12C24 5.37252 18.6275 0 12 0ZM5.47766 15.4076L11.2279 5.27201C11.4725 4.84154 11.5964 4.62647 11.7527 4.54674C11.9207 4.46125 12.1211 4.46125 12.2892 4.54674C12.4455 4.62631 12.5693 4.84154 12.814 5.27201L13.9961 7.3355L14.0021 7.34605C14.2664 7.80783 14.4005 8.04192 14.459 8.28767C14.5238 8.55595 14.5238 8.83894 14.459 9.10722C14.4 9.35489 14.2674 9.59073 13.9991 10.0594L10.9786 15.3987L10.9708 15.4124C10.7048 15.878 10.5701 16.1139 10.3831 16.2919C10.1797 16.4865 9.93507 16.6279 9.66679 16.7076C9.42216 16.7754 9.14796 16.7754 8.59957 16.7754H6.27068C5.78125 16.7754 5.53965 16.7754 5.39217 16.6811C5.23302 16.5779 5.13571 16.4069 5.12389 16.2182C5.1151 16.0444 5.2359 15.832 5.47766 15.4076ZM18.9734 16.2126C18.9645 16.4012 18.8643 16.5752 18.7051 16.6784C18.5577 16.7756 18.31 16.7756 17.8177 16.7756H14.4807C13.9884 16.7756 13.7407 16.7756 13.5963 16.6813C13.4371 16.5781 13.3398 16.4042 13.328 16.2155C13.3192 16.0429 13.4411 15.8327 13.6848 15.4118L13.6905 15.4019L15.3562 12.5423C15.6008 12.1208 15.7246 11.9115 15.8779 11.8319C16.0458 11.7464 16.2435 11.7464 16.4114 11.8319C16.5637 11.9094 16.6822 12.1101 16.9171 12.5072L16.9361 12.5394L18.6077 15.399C18.6158 15.413 18.6238 15.427 18.6318 15.4405C18.8635 15.8403 18.9818 16.0444 18.9734 16.2126Z" fill="#3F4150"/>
</svg>
