<svg width="24" height="24" viewBox="0 0 24 24" fill="none" xmlns="http://www.w3.org/2000/svg">
<path d="M23.641 14.9029C22.0381 21.3315 15.5262 25.2438 9.09606 23.6407C2.66863 22.0381 -1.24415 15.5265 0.359423 9.09837C1.96159 2.66903 8.47349 -1.24361 14.9016 0.359081C21.3313 1.96177 25.244 8.47393 23.641 14.9029Z" fill="#3F4150"/>
<path d="M17.2923 10.2903C17.5312 8.6934 16.3153 7.83498 14.6526 7.26233L15.192 5.09914L13.875 4.77103L13.3499 6.87726C13.0037 6.79092 12.6482 6.70957 12.2948 6.62892L12.8237 4.50878L11.5075 4.18066L10.9679 6.34315C10.6814 6.27793 10.4 6.21347 10.1269 6.14554L10.1285 6.13874L8.31237 5.68528L7.96204 7.09171C7.96204 7.09171 8.93911 7.31565 8.91852 7.32944C9.45181 7.46252 9.54825 7.81551 9.53224 8.09529L8.91781 10.5597C8.95454 10.569 9.00217 10.5825 9.05473 10.6036C9.01079 10.5927 8.96404 10.5808 8.91553 10.5692L8.05432 14.0214C7.98914 14.1834 7.82372 14.4266 7.45087 14.3342C7.46406 14.3534 6.49369 14.0954 6.49369 14.0954L5.83984 15.6027L7.55364 16.0299C7.87247 16.1098 8.1849 16.1935 8.49258 16.2721L7.94761 18.4601L9.26304 18.7883L9.80272 16.6235C10.1621 16.721 10.5108 16.811 10.8522 16.8958L10.3144 19.0504L11.6314 19.3785L12.1763 17.1946C14.422 17.6196 16.1105 17.4482 16.8213 15.4172C17.394 13.7821 16.7928 12.8389 15.6113 12.2238C16.4718 12.0254 17.12 11.4595 17.2928 10.2905L17.2924 10.2902L17.2923 10.2903ZM14.2834 14.5091C13.8764 16.1443 11.123 15.2604 10.2302 15.0387L10.9534 12.14C11.8461 12.3628 14.7088 12.8038 14.2835 14.5091H14.2834ZM14.6907 10.2666C14.3194 11.754 12.0277 10.9984 11.2843 10.8131L11.9399 8.1841C12.6834 8.36939 15.0775 8.71522 14.6908 10.2666H14.6907Z" fill="#F5F5F5"/>
</svg>
