<svg width="24" height="24" viewBox="0 0 24 24" fill="none" xmlns="http://www.w3.org/2000/svg">
<path d="M11.9996 23.9993C18.6269 23.9993 23.9993 18.6269 23.9993 11.9996C23.9993 5.37242 18.6269 0 11.9996 0C5.37242 0 0 5.37242 0 11.9996C0 18.6269 5.37242 23.9993 11.9996 23.9993Z" fill="#EDEEF0"/>
<path d="M7.93362 11.9345C7.89562 12.6563 8.40863 13.2743 9.07563 13.3165H9.14763C9.81964 13.3165 10.3616 12.7299 10.3576 12.0026C10.3576 11.2754 9.81564 10.6888 9.14363 10.6931C8.50063 10.6931 7.96762 11.2386 7.93362 11.9345V11.9345Z" fill="#3F4150"/>
<path d="M3.41344 11.5968C3.19744 11.5817 3.01043 11.7635 3.00043 11.9973C2.99043 12.231 3.15443 12.4334 3.37044 12.4442C3.58644 12.4594 3.76844 12.2775 3.78344 12.0438C3.79744 11.81 3.62944 11.6131 3.41344 11.5968Z" fill="#3F4150"/>
<path d="M7.85835 4.31968C8.05036 4.21579 8.12736 3.95605 8.03136 3.74827C7.93536 3.54048 7.69535 3.45715 7.50335 3.56104C7.31135 3.66493 7.23435 3.91926 7.33035 4.12705C7.42635 4.34025 7.66135 4.42791 7.85835 4.31968C7.85835 4.31968 7.85335 4.31968 7.85835 4.31968Z" fill="#3F4150"/>
<path d="M9.08672 6.64142C9.38472 6.48017 9.50473 6.08515 9.35572 5.76373C9.20672 5.44231 8.84172 5.31136 8.54472 5.47261C8.24772 5.63386 8.12672 6.02888 8.27572 6.3503C8.42472 6.6728 8.78972 6.80267 9.08672 6.64142Z" fill="#3F4150"/>
<path d="M4.94948 8.23675C5.17948 8.398 5.48748 8.32982 5.64048 8.08091C5.78948 7.832 5.72648 7.49867 5.49648 7.33309C5.26648 7.17184 4.95848 7.24002 4.80548 7.48893C4.65148 7.73784 4.71948 8.0755 4.94948 8.23675Z" fill="#3F4150"/>
<path d="M5.68393 11.3631C5.34792 11.3426 5.06492 11.6175 5.04592 11.9811C5.02692 12.3447 5.28092 12.651 5.61693 12.6716C5.95293 12.6921 6.23593 12.4172 6.25493 12.0536C6.27393 11.6954 6.01993 11.3837 5.68393 11.3631Z" fill="#3F4150"/>
<path d="M5.01692 15.7635C4.77192 15.8988 4.67092 16.2202 4.79592 16.4907C4.92092 16.7559 5.21792 16.8652 5.46793 16.7299C5.71293 16.5946 5.81393 16.2732 5.68893 16.0026C5.56393 15.7375 5.26192 15.6282 5.01692 15.7635Z" fill="#3F4150"/>
<path d="M7.36898 10.0081C7.69998 10.2418 8.14199 10.1433 8.35299 9.78512C8.56899 9.42691 8.47799 8.94856 8.14699 8.72021C7.81598 8.48645 7.37398 8.58493 7.16298 8.94315C6.94698 9.29596 7.03798 9.7743 7.36898 10.0081Z" fill="#3F4150"/>
<path d="M14.8317 6.58926C15.1097 6.78623 15.4897 6.70398 15.6717 6.40204C15.8537 6.1001 15.7777 5.68993 15.4987 5.49297C15.2207 5.296 14.8407 5.37825 14.6587 5.68019C14.4717 5.98646 14.5487 6.3923 14.8317 6.58926Z" fill="#3F4150"/>
<path d="M16.0695 4.27903C16.2515 4.40889 16.4915 4.35153 16.6115 4.15457C16.7315 3.9576 16.6785 3.69787 16.4965 3.568C16.3145 3.43813 16.0745 3.49549 15.9545 3.68705C15.8395 3.88401 15.8925 4.14916 16.0695 4.27903V4.27903Z" fill="#3F4150"/>
<path d="M14.9225 10.6835C14.2555 10.6424 13.6795 11.1976 13.6455 11.9194C13.6075 12.6413 14.1205 13.2647 14.7875 13.3015H14.8545C15.5215 13.3015 16.0646 12.7149 16.0646 11.9876C16.0696 11.2972 15.5656 10.7203 14.9225 10.6835V10.6835Z" fill="#3F4150"/>
<path d="M9.48494 9.91421C9.69094 10.3558 10.1089 10.6361 10.5699 10.6361C11.237 10.6361 11.78 10.0495 11.78 9.32223C11.78 9.11985 11.737 8.91747 11.65 8.73025C11.348 8.08091 10.6179 7.82117 10.0229 8.14801C9.42294 8.48025 9.18294 9.27028 9.48494 9.91421V9.91421Z" fill="#3F4150"/>
<path d="M18.9834 8.23686C19.2284 8.10158 19.3244 7.77474 19.1994 7.5096C19.0744 7.24445 18.7724 7.14056 18.5274 7.27584C18.2824 7.41111 18.1864 7.73254 18.3064 7.99768C18.4364 8.26283 18.7334 8.37213 18.9834 8.23686Z" fill="#3F4150"/>
<path d="M15.9123 8.65216C15.5623 8.8448 15.4183 9.30691 15.5953 9.68569C15.7733 10.0645 16.2003 10.2203 16.5503 10.0288C16.9003 9.8372 17.0444 9.37401 16.8673 8.99523C16.6903 8.61645 16.2623 8.46494 15.9123 8.65216Z" fill="#3F4150"/>
<path d="M11.9521 4.08079C12.2261 4.09594 12.4611 3.86759 12.4801 3.57215C12.4991 3.2767 12.2831 3.02129 12.0101 3.00073C11.7361 2.98558 11.5011 3.20852 11.4821 3.50505C11.4681 3.80591 11.6791 4.06131 11.9521 4.08187V4.08079Z" fill="#3F4150"/>
<path d="M11.9473 7.47264C12.3413 7.49862 12.6773 7.17178 12.6963 6.74539C12.7203 6.31899 12.4183 5.95536 12.0243 5.9348C11.6303 5.90882 11.2943 6.23566 11.2753 6.66205C11.2563 7.08845 11.5533 7.45208 11.9473 7.47264Z" fill="#3F4150"/>
<path d="M8.08843 15.348C8.43844 15.1554 8.58244 14.6933 8.40543 14.3145C8.22743 13.9357 7.80043 13.7799 7.45043 13.9714C7.10042 14.163 6.95642 14.6262 7.13342 15.005C7.31143 15.3838 7.73843 15.5396 8.08843 15.348Z" fill="#3F4150"/>
<path d="M12.4067 8.59979C12.0417 9.208 12.1957 10.0175 12.7567 10.4125C13.3177 10.8075 14.0667 10.6409 14.4317 10.0337C14.7967 9.42553 14.6427 8.61603 14.0817 8.22101C13.8847 8.08032 13.6547 8.00781 13.4197 8.00781C13.0117 8.00781 12.6327 8.23075 12.4067 8.59979Z" fill="#3F4150"/>
<path d="M14.5152 14.086C14.2132 13.4366 13.4832 13.1769 12.8882 13.5037C12.2882 13.8306 12.0482 14.6206 12.3502 15.2645C12.6522 15.9138 13.3822 16.1736 13.9772 15.8467C14.5722 15.5242 14.8172 14.745 14.5192 14.0957C14.5192 14.0957 14.5175 14.0921 14.5142 14.0849L14.5152 14.086Z" fill="#3F4150"/>
<path d="M16.6314 13.9919C16.3004 13.7582 15.8584 13.8567 15.6474 14.2149C15.4314 14.5731 15.5224 15.0514 15.8534 15.2798C16.1844 15.5136 16.6264 15.4151 16.8374 15.0569C17.0534 14.704 16.9624 14.2257 16.6314 13.9919Z" fill="#3F4150"/>
<path d="M18.9551 12.0231C18.9741 11.6595 18.7201 11.3532 18.3841 11.3326C18.0481 11.3121 17.7651 11.5869 17.7461 11.9506C17.7271 12.3142 17.9811 12.6205 18.3171 12.641C18.6481 12.6616 18.9361 12.3813 18.9551 12.0231Z" fill="#3F4150"/>
<path d="M20.6302 11.5558C20.4142 11.5407 20.2272 11.7225 20.2172 11.9562C20.2072 12.19 20.3712 12.3924 20.5872 12.4032C20.8032 12.4184 20.9852 12.2365 21.0002 12.0028C21.0102 11.769 20.8462 11.572 20.6302 11.5558Z" fill="#3F4150"/>
<path d="M19.0499 15.7633C18.8199 15.602 18.5119 15.6702 18.3589 15.9191C18.2099 16.168 18.2729 16.5013 18.5029 16.6669C18.7329 16.8282 19.0409 16.76 19.1939 16.5111C19.3479 16.2622 19.2799 15.9245 19.0499 15.7633Z" fill="#3F4150"/>
<path d="M7.92403 19.7213C7.74202 19.5915 7.50202 19.6488 7.38202 19.8404C7.26202 20.0373 7.31502 20.2971 7.49202 20.4269C7.67402 20.5568 7.91403 20.4994 8.03403 20.3079C8.15903 20.1153 8.10603 19.8512 7.92403 19.7213Z" fill="#3F4150"/>
<path d="M16.143 19.6802C15.951 19.7841 15.874 20.0439 15.97 20.2517C16.066 20.4594 16.306 20.5428 16.498 20.4389C16.69 20.335 16.767 20.0807 16.671 19.8729C16.575 19.6597 16.34 19.572 16.143 19.6802C16.143 19.6802 16.148 19.6802 16.143 19.6802Z" fill="#3F4150"/>
<path d="M11.5912 15.3998C11.9562 14.7916 11.8022 13.982 11.2412 13.5816C10.6792 13.1866 9.93123 13.3533 9.56123 13.9604C9.19123 14.5675 9.35023 15.3781 9.91123 15.7785C10.1082 15.9192 10.3382 15.9917 10.5732 15.9917C10.9862 15.9972 11.3652 15.7731 11.5912 15.3998Z" fill="#3F4150"/>
<path d="M9.16835 17.4095C8.89035 17.2125 8.51035 17.2948 8.32834 17.5967C8.14634 17.8976 8.22234 18.3088 8.50135 18.5058C8.78035 18.7027 9.15935 18.6205 9.34135 18.3185C9.52835 18.0177 9.45135 17.6064 9.16835 17.4095Z" fill="#3F4150"/>
<path d="M11.994 19.9191C11.72 19.9039 11.485 20.1322 11.466 20.4277C11.447 20.7231 11.663 20.9786 11.936 20.9991C12.21 21.0143 12.445 20.7913 12.464 20.4948C12.478 20.1939 12.267 19.9385 11.994 19.918V19.9191Z" fill="#3F4150"/>
<path d="M12.0003 16.5261C11.6063 16.5001 11.2703 16.827 11.2513 17.2534C11.2273 17.6798 11.5293 18.0434 11.9233 18.064C12.3173 18.0845 12.6533 17.7631 12.6723 17.3367C12.6963 16.9157 12.3943 16.5467 12.0003 16.5261Z" fill="#3F4150"/>
<path d="M14.9133 17.3578C14.6153 17.5244 14.4953 17.9184 14.6493 18.2409C14.8033 18.5634 15.1673 18.6932 15.4653 18.5266C15.7633 18.3653 15.8833 17.9703 15.7343 17.6489C15.5803 17.3264 15.2163 17.1922 14.9133 17.3578Z" fill="#3F4150"/>
</svg>
