<svg width="24" height="24" viewBox="0 0 24 24" fill="none" xmlns="http://www.w3.org/2000/svg">
<rect width="24" height="24" rx="12" fill="#EDEEF0"/>
<path d="M15.4125 9.62894C15.1614 9.4743 14.835 9.4743 14.5588 9.62894L12.6002 10.8145L11.2694 11.5876L9.31081 12.7732C9.05972 12.9278 8.73328 12.9278 8.45707 12.7732L6.90027 11.8454C6.64917 11.6908 6.4734 11.4073 6.4734 11.098V9.26812C6.4734 8.95885 6.62406 8.67535 6.90027 8.52071L8.43196 7.61867C8.68306 7.46403 9.00947 7.46403 9.2857 7.61867L10.8174 8.52071C11.0685 8.67535 11.2443 8.95885 11.2443 9.26812V10.4537L12.5751 9.65471V8.46917C12.5751 8.15989 12.4244 7.8764 12.1482 7.72176L9.31081 6.02076C9.05972 5.86613 8.73328 5.86613 8.45707 6.02076L5.56945 7.72176C5.29324 7.8764 5.14258 8.15989 5.14258 8.46917V11.8969C5.14258 12.2062 5.29324 12.4897 5.56945 12.6443L8.45707 14.3453C8.70817 14.5 9.03462 14.5 9.31081 14.3453L11.2694 13.1855L12.6002 12.3866L14.5588 11.2268C14.8099 11.0722 15.1363 11.0722 15.4125 11.2268L16.9442 12.1289C17.1953 12.2835 17.3711 12.567 17.3711 12.8763V14.7062C17.3711 15.0154 17.2204 15.2989 16.9442 15.4535L15.4125 16.3814C15.1614 16.536 14.835 16.536 14.5588 16.3814L13.0271 15.4793C12.7759 15.3247 12.6002 15.0412 12.6002 14.7319V13.5464L11.2694 14.3453V15.5309C11.2694 15.8401 11.42 16.1236 11.6963 16.2783L14.5839 17.9793C14.835 18.1339 15.1614 18.1339 15.4376 17.9793L18.3252 16.2783C18.5763 16.1236 18.7521 15.8401 18.7521 15.5309V12.1031C18.7521 11.7939 18.6014 11.5103 18.3252 11.3557L15.4125 9.62894Z" fill="#3F4150"/>
</svg>
