<svg width="24" height="24" viewBox="0 0 24 24" fill="none" xmlns="http://www.w3.org/2000/svg">
<circle cx="12" cy="12" r="12" fill="#EDEEF0"/>
<g clip-path="url(#clip0_3091_40248)">
<path d="M6.65279 15.1587C6.74072 15.0663 6.86163 15.0125 6.98987 15.0125H18.6192C18.8317 15.0125 18.9379 15.2819 18.7877 15.4398L16.4904 17.8536C16.4025 17.946 16.2816 17.9999 16.1533 17.9999H4.52405C4.31154 17.9999 4.20529 17.7304 4.35551 17.5726L6.65279 15.1587Z" fill="#3F4150"/>
<path d="M6.65279 6.14629C6.74439 6.0539 6.8653 6 6.98987 6H18.6192C18.8317 6 18.9379 6.26949 18.7877 6.42733L16.4904 8.84119C16.4025 8.93359 16.2816 8.98749 16.1533 8.98749H4.52405C4.31154 8.98749 4.20529 8.718 4.35551 8.56015L6.65279 6.14629Z" fill="#3F4150"/>
<path d="M16.4904 10.6236C16.4025 10.5312 16.2816 10.4773 16.1533 10.4773H4.52405C4.31154 10.4773 4.20529 10.7468 4.35551 10.9046L6.65279 13.3185C6.74072 13.4109 6.86163 13.4648 6.98987 13.4648H18.6192C18.8317 13.4648 18.9379 13.1953 18.7877 13.0374L16.4904 10.6236Z" fill="#3F4150"/>
</g>
<defs>
<clipPath id="clip0_3091_40248">
<rect width="14.5714" height="12" fill="white" transform="translate(4.28613 6)"/>
</clipPath>
</defs>
</svg>
